<?xml version="1.0" standalone="no"?><!DOCTYPE svg PUBLIC "-//W3C//DTD SVG 1.1//EN" "http://www.w3.org/Graphics/SVG/1.1/DTD/svg11.dtd" ><svg xmlns="http://www.w3.org/2000/svg"><metadata></metadata><defs><font id="Version 1.000;FEAKit 1.0;UKWN;Uto-LightItalic;2022;FL801" horiz-adv-x="2471"><font-face font-family="Uto Light" font-weight="300" font-stretch="normal" units-per-em="2048" panose-1="0 0 0 0 0 0 0 0 0 0" ascent="2085" descent="-582" x-height="0" bbox="-258 -582 2431 2087" underline-thickness="102" underline-position="-307" unicode-range="U+000d-fb02" /><missing-glyph horiz-adv-x="921" d="M307 764 l0 -62 l185 0 l0 129 l122 0 l0 62 l-307 0 l0 -62 l123 0 l0 -67 l-123 0 ZM307 1135 l0 -193 l307 0 l0 64 l-122 0 l0 129 l-185 0 ZM307 1243 l0 -61 l307 0 l0 61 l-122 0 l0 68 l122 0 l0 61 l-305 0 l0 -61 l121 0 l0 -68 l-123 0 ZM307 -160 l0 -61 l307 0 l0 61 l-188 0 l129 86 l59 0 l0 62 l-307 0 l0 -62 l129 0 l-129 -86 ZM307 238 l0 -207 l307 0 l0 207 l-307 0 ZM307 557 l0 -209 l307 0 l0 209 l-184 0 l0 -102 l62 0 l0 41 l61 0 l0 -86 l-184 0 l0 147 l-62 0 ZM307 659 l0 -61 l307 0 l0 184 l-61 0 l0 -123 l-246 0 ZM553 90 l-184 0 l0 88 l184 0 l0 -88 ZM172 1495 l584 0 l0 -1843 l-584 0 l0 1843 ZM430 1006 l-61 0 l0 65 l61 0 l0 -65 Z" /><glyph glyph-name="uni0000" unicode="" d="" /><glyph glyph-name="uni000D" unicode="" d="" /><glyph glyph-name="space" unicode="  " d="" /><glyph glyph-name="exclam" unicode="!" d="M473 1413 l148 0 l-197 -1016 l-148 0 l197 1016 ZM178 66 q0 49 38 88 q38 39 95 39 q39 0 63.5 -26 q24.5 -26 24.5 -65 q0 -53 -37 -91 q-37 -38 -94 -38 q-38 0 -64 27 q-26 27 -26 66 Z" /><glyph glyph-name="quotedbl" unicode="&quot;" d="M324 1497 l141 0 l-119 -528 l-110 0 l88 528 ZM526 969 l88 528 l142 0 l-119 -528 l-111 0 Z" /><glyph glyph-name="numbersign" unicode="#" d="M586 932 l-140 -430 l455 0 l139 430 l-454 0 ZM483 1057 l115 356 l143 0 l-114 -356 l454 0 l117 356 l139 0 l-114 -356 l207 0 l-25 -125 l-223 0 l-140 -430 l205 0 l-24 -125 l-222 0 l-122 -377 l-142 0 l123 377 l-454 0 l-123 -377 l-144 0 l123 377 l-207 0 l25 125 l223 0 l139 430 l-204 0 l24 125 l221 0 Z" /><glyph glyph-name="dollar" unicode="$" d="M311 -61 l39 198 q-136 29 -218.5 121.5 q-82.5 92.5 -82.5 230.5 l144 0 q19 -233 294 -233 q140 0 231 64 q91 64 91 165 q0 71 -67.5 114 q-67.5 43 -229.5 67 q-172 28 -257 98 q-85 70 -85 186 q0 135 109.5 229.5 q109.5 94.5 295.5 106.5 l35 189 l144 0 l-37 -195 q122 -25 197 -111.5 q75 -86.5 75 -210.5 l-145 0 q-3 98 -66 149.5 q-63 51.5 -178 51.5 q-132 0 -211.5 -52.5 q-79.5 -52.5 -79.5 -141.5 q0 -69 69.5 -109 q69.5 -40 225.5 -63 q342 -51 342 -295 q0 -152 -125.5 -258 q-125.5 -106 -331.5 -113 l-34 -188 l-144 0 Z" /><glyph glyph-name="percent" unicode="%" d="M440 678 q-119 0 -195.5 82 q-76.5 82 -76.5 221 q0 118 53 223 q53 105 150.5 170.5 q97.5 65.5 216.5 65.5 q118 0 195 -83 q77 -83 77 -222 q0 -87 -31.5 -169.5 q-31.5 -82.5 -86.5 -146.5 q-55 -64 -134 -102.5 q-79 -38.5 -168 -38.5 ZM244 0 l1110 1413 l172 0 l-1110 -1413 l-172 0 ZM309 993 q0 -87 40 -139.5 q40 -52.5 114 -52.5 q100 0 179 96 q79 96 79 225 q0 87 -40.5 140 q-40.5 53 -115.5 53 q-100 0 -178 -95.5 q-78 -95.5 -78 -226.5 ZM907 279 q0 117 52.5 221 q52.5 104 150 169.5 q97.5 65.5 217.5 65.5 q117 0 193.5 -82.5 q76.5 -82.5 76.5 -220.5 q0 -118 -52.5 -223 q-52.5 -105 -149.5 -170.5 q-97 -65.5 -215 -65.5 q-118 0 -195.5 83.5 q-77.5 83.5 -77.5 222.5 ZM1047 289 q0 -86 39.5 -138.5 q39.5 -52.5 115.5 -52.5 q100 0 178 96 q78 96 78 226 q0 88 -39.5 140 q-39.5 52 -115.5 52 q-100 0 -178 -96 q-78 -96 -78 -227 Z" /><glyph glyph-name="ampersand" unicode="&amp;" d="M938 281 l-279 348 q-11 13 -34 45 q-214 -76 -318 -163 q-104 -87 -104 -198 q0 -87 65.5 -141.5 q65.5 -54.5 196.5 -54.5 q265 0 473 164 ZM580 1081 q0 -56 29.5 -117.5 q29.5 -61.5 97.5 -150.5 q177 60 259.5 148.5 q82.5 88.5 82.5 177.5 q0 75 -50 116 q-50 41 -147 41 q-119 0 -195.5 -61.5 q-76.5 -61.5 -76.5 -153.5 ZM43 301 q0 293 506 471 q-119 167 -119 309 q0 150 120 254.5 q120 104.5 329 104.5 q145 0 234 -73 q89 -73 89 -210 q0 -135 -108 -247.5 q-108 -112.5 -314 -190.5 l269 -334 q133 152 192 371 l148 0 q-76 -289 -254 -480 l223 -276 l-195 0 l-139 174 q-254 -201 -584 -201 q-180 0 -288.5 85.5 q-108.5 85.5 -108.5 242.5 Z" /><glyph glyph-name="quotesingle" unicode="&#39;" d="M324 1497 l141 0 l-119 -528 l-110 0 l88 528 Z" /><glyph glyph-name="parenleft" unicode="(" d="M121 473 q0 375 215.5 701 q215.5 326 560.5 491 l33 -139 q-190 -94 -341 -258 q-151 -164 -236 -367.5 q-85 -203.5 -85 -408.5 q0 -215 77 -390.5 q77 -175.5 224 -275.5 l-73 -117 q-175 108 -275 309.5 q-100 201.5 -100 454.5 Z" /><glyph glyph-name="parenright" unicode=")" d="M692 911 q0 -375 -215.5 -701 q-215.5 -326 -560.5 -491 l-33 140 q190 94 341 258 q151 164 236 367.5 q85 203.5 85 408.5 q0 215 -77 390.5 q-77 175.5 -224 275.5 l73 116 q175 -108 275 -309.5 q100 -201.5 100 -454.5 Z" /><glyph glyph-name="asterisk" unicode="*" d="M588 733 l-121 244 l-217 -246 l-96 86 l247 221 l-249 86 l71 121 l226 -129 l32 297 l129 0 l-75 -299 l264 129 l26 -121 l-274 -90 l154 -221 l-117 -78 Z" /><glyph glyph-name="plus" unicode="+" d="M899 680 l-344 0 l-66 -336 l-145 0 l66 336 l-349 0 l27 137 l348 0 l68 340 l145 0 l-67 -340 l346 0 l-29 -137 Z" /><glyph glyph-name="comma" unicode="," d="M178 252 l150 0 l-262 -494 l-113 0 l225 494 Z" /><glyph glyph-name="hyphen" unicode="-" d="M840 614 l-756 0 l27 136 l755 0 l-26 -136 Z" /><glyph glyph-name="period" unicode="." d="M172 -27 q-38 0 -64 27 q-26 27 -26 66 q0 49 38 88 q38 39 95 39 q39 0 63.5 -26 q24.5 -26 24.5 -65 q0 -53 -37 -91 q-37 -38 -94 -38 Z" /><glyph glyph-name="slash" unicode="/" d="M1036 1606 l162 0 l-1137 -1844 l-163 0 l1138 1844 Z" /><glyph glyph-name="zero" unicode="0" d="M604 -27 q-146 0 -255.5 75 q-109.5 75 -166.5 207 q-57 132 -57 302 q0 135 36.5 266 q36.5 131 106 241.5 q69.5 110.5 162 195 q92.5 84.5 211.5 132.5 q119 48 248 48 q221 0 349 -153 q128 -153 128 -413 q0 -136 -37.5 -269 q-37.5 -133 -107 -246 q-69.5 -113 -162 -200 q-92.5 -87 -211 -136.5 q-118.5 -49.5 -244.5 -49.5 ZM285 561 q0 -194 89.5 -315 q89.5 -121 258.5 -121 q144 0 277.5 106 q133.5 106 214.5 279 q81 173 81 360 q0 194 -90.5 307 q-90.5 113 -255.5 113 q-111 0 -217 -60.5 q-106 -60.5 -184.5 -159.5 q-78.5 -99 -126 -233.5 q-47.5 -134.5 -47.5 -275.5 Z" /><glyph glyph-name="one" unicode="1" d="M494 1413 l102 0 l-274 -1413 l-156 0 l242 1243 l-177 0 l21 100 l242 70 Z" /><glyph glyph-name="two" unicode="2" d="M33 0 l26 143 l449 299 q90 60 159.5 112.5 q69.5 52.5 140 117 q70.5 64.5 116.5 125 q46 60.5 75 130 q29 69.5 29 138.5 q0 100 -61 161.5 q-61 61.5 -174 61.5 q-295 0 -437 -336 l-163 0 q98 236 258.5 362 q160.5 126 373.5 126 q166 0 265.5 -94 q99.5 -94 99.5 -256 q0 -69 -21 -137.5 q-21 -68.5 -54.5 -127 q-33.5 -58.5 -85.5 -119.5 q-52 -61 -102 -108.5 q-50 -47.5 -117 -100 q-67 -52.5 -118 -88.5 q-51 -36 -117 -79 l-280 -185 l811 0 l-29 -145 l-1044 0 Z" /><glyph glyph-name="three" unicode="3" d="M492 -27 q-203 0 -331 122 q-128 122 -134 321 l166 0 q5 -133 87 -212 q82 -79 232 -79 q163 0 277 101 q114 101 114 247 q0 106 -81.5 170 q-81.5 64 -262.5 64 l-123 0 l21 106 l479 453 l-709 -2 l29 149 l911 0 l-26 -143 l-482 -445 q187 -14 294.5 -104.5 q107.5 -90.5 107.5 -251.5 q0 -212 -161.5 -354 q-161.5 -142 -407.5 -142 Z" /><glyph glyph-name="four" unicode="4" d="M1006 1272 l-766 -821 l606 0 l160 821 ZM981 1413 l205 0 l-187 -962 l271 0 l-27 -140 l-270 0 l-62 -311 l-153 0 l61 311 l-776 0 l20 119 l918 983 Z" /><glyph glyph-name="five" unicode="5" d="M489 -27 q-196 0 -320 118.5 q-124 118.5 -130 322.5 l164 0 q5 -133 82.5 -211 q77.5 -78 228.5 -78 q168 0 289 116.5 q121 116.5 121 280.5 q0 118 -77 195.5 q-77 77.5 -202 77.5 q-114 0 -215 -54.5 q-101 -54.5 -166 -140.5 l-139 39 l295 774 l731 0 l-29 -153 l-616 0 l-184 -478 q174 144 383 144 q101 0 186 -43.5 q85 -43.5 139.5 -133.5 q54.5 -90 54.5 -210 q0 -112 -43.5 -215 q-43.5 -103 -120 -181 q-76.5 -78 -189 -124 q-112.5 -46 -243.5 -46 Z" /><glyph glyph-name="six" unicode="6" d="M305 412 q0 -128 77 -208.5 q77 -80.5 216 -80.5 q112 0 214 59.5 q102 59.5 163 158 q61 98.5 61 206.5 q0 127 -80 209 q-80 82 -215 82 q-110 0 -211.5 -60 q-101.5 -60 -163 -159 q-61.5 -99 -61.5 -207 ZM575 -27 q-219 0 -337.5 146.5 q-118.5 146.5 -118.5 386.5 q0 189 60 362 q60 173 161 298 q101 125 238 199.5 q137 74.5 286 74.5 q175 0 280.5 -110 q105.5 -110 119.5 -288 l-162 0 q-11 115 -78 181.5 q-67 66.5 -188 66.5 q-122 0 -238 -80 q-116 -80 -198 -220 q-82 -140 -107 -308 q97 145 223 216 q126 71 266 71 q177 0 294.5 -112 q117.5 -112 117.5 -298 q0 -113 -49 -220 q-49 -107 -131.5 -187.5 q-82.5 -80.5 -198 -129.5 q-115.5 -49 -240.5 -49 Z" /><glyph glyph-name="seven" unicode="7" d="M229 0 l750 1266 l-817 0 l31 147 l983 0 l-25 -119 l-750 -1294 l-172 0 Z" /><glyph glyph-name="eight" unicode="8" d="M238 352 q0 -105 83.5 -167 q83.5 -62 241.5 -62 q191 0 313.5 97 q122.5 97 122.5 249 q0 103 -84.5 163 q-84.5 60 -242.5 60 q-193 0 -313.5 -93.5 q-120.5 -93.5 -120.5 -246.5 ZM463 1016 q0 -91 66 -146 q66 -55 167 -55 q135 0 233.5 88.5 q98.5 88.5 98.5 208.5 q0 88 -66.5 135 q-66.5 47 -173.5 47 q-141 0 -233 -79 q-92 -79 -92 -199 ZM532 -27 q-205 0 -330.5 96.5 q-125.5 96.5 -125.5 266.5 q0 151 106.5 271 q106.5 120 270.5 159 q-67 36 -106.5 101.5 q-39.5 65.5 -39.5 156.5 q0 171 148 293.5 q148 122.5 362 122.5 q171 0 272 -81.5 q101 -81.5 101 -221.5 q0 -118 -70 -221.5 q-70 -103.5 -192 -151.5 q105 -29 167 -106 q62 -77 62 -193 q0 -101 -44.5 -191 q-44.5 -90 -124.5 -156.5 q-80 -66.5 -198 -105.5 q-118 -39 -258 -39 Z" /><glyph glyph-name="nine" unicode="9" d="M303 866 q0 -127 80 -209 q80 -82 215 -82 q110 0 211.5 60 q101.5 60 163 159 q61.5 99 61.5 207 q0 128 -77 208.5 q-77 80.5 -216 80.5 q-112 0 -214 -59.5 q-102 -59.5 -163 -158 q-61 -98.5 -61 -206.5 ZM764 1440 q219 0 338 -146.5 q119 -146.5 119 -386.5 q0 -189 -60.5 -362 q-60.5 -173 -161 -298 q-100.5 -125 -238 -199.5 q-137.5 -74.5 -286.5 -74.5 q-175 0 -280 109.5 q-105 109.5 -119 288.5 l162 0 q11 -115 78 -181.5 q67 -66.5 188 -66.5 q122 0 238 80 q116 80 198 220 q82 140 107 308 q-97 -145 -223.5 -216 q-126.5 -71 -266.5 -71 q-177 0 -294.5 112 q-117.5 112 -117.5 298 q0 113 49 220 q49 107 131.5 187.5 q82.5 80.5 198 129.5 q115.5 49 240.5 49 Z" /><glyph glyph-name="colon" unicode=":" d="M227 43 q-38 0 -64 27 q-26 27 -26 65 q0 49 38 88 q38 39 95 39 q39 0 63.5 -25.5 q24.5 -25.5 24.5 -64.5 q0 -53 -37 -91 q-37 -38 -94 -38 ZM287 901 q0 49 38 88 q38 39 95 39 q39 0 63.5 -25.5 q24.5 -25.5 24.5 -64.5 q0 -53 -37 -91 q-37 -38 -94 -38 q-38 0 -64 27 q-26 27 -26 65 Z" /><glyph glyph-name="semicolon" unicode=";" d="M274 276 l150 0 l-262 -493 l-113 0 l225 493 ZM289 897 q0 49 38 88 q38 39 95 39 q39 0 63.5 -25.5 q24.5 -25.5 24.5 -64.5 q0 -53 -37 -91 q-37 -38 -94 -38 q-38 0 -64 27 q-26 27 -26 65 Z" /><glyph glyph-name="less" unicode="&lt;" d="M958 1270 l-32 -176 l-619 -363 l477 -364 l-28 -148 l-590 459 l27 135 l765 457 Z" /><glyph glyph-name="equal" unicode="=" d="M954 883 l-839 0 l26 137 l840 0 l-27 -137 ZM33 451 l26 137 l840 0 l-27 -137 l-839 0 Z" /><glyph glyph-name="greater" unicode="&gt;" d="M92 219 l33 176 l618 363 l-477 364 l29 148 l590 -459 l-27 -135 l-766 -457 Z" /><glyph glyph-name="question" unicode="?" d="M762 1288 q-89 0 -169.5 -29 q-80.5 -29 -152 -98 q-71.5 -69 -108.5 -170 l-166 0 q83 219 244.5 334 q161.5 115 382.5 115 q183 0 289 -85 q106 -85 106 -233 q0 -137 -105.5 -244 q-105.5 -107 -332.5 -216 q-58 -28 -95.5 -51.5 q-37.5 -23.5 -63 -46.5 q-25.5 -23 -41 -56 q-15.5 -33 -25 -66 q-9.5 -33 -19.5 -90 l-150 0 q17 90 36 145 q19 55 55 107 q36 52 90 91.5 q54 39.5 143 84.5 q61 31 96 49.5 q35 18.5 82 46.5 q47 28 73 51 q26 23 51.5 52.5 q25.5 29.5 36.5 61.5 q11 32 11 69 q0 83 -66 130.5 q-66 47.5 -202 47.5 ZM272 68 q0 48 38.5 87.5 q38.5 39.5 95.5 39.5 q39 0 63.5 -26 q24.5 -26 24.5 -65 q0 -52 -37.5 -90.5 q-37.5 -38.5 -94.5 -38.5 q-38 0 -64 27 q-26 27 -26 66 Z" /><glyph glyph-name="at" unicode="@" d="M647 561 q0 -113 65 -182.5 q65 -69.5 173 -69.5 q116 0 213.5 82.5 q97.5 82.5 134.5 206.5 l14 76 q2 14 2 41 q0 111 -64.5 177 q-64.5 66 -172.5 66 q-148 0 -256.5 -118 q-108.5 -118 -108.5 -279 ZM772 -170 q-137 0 -256 41 q-119 41 -210 118 q-91 77 -143 198 q-52 121 -52 272 q0 193 77.5 369.5 q77.5 176.5 212 308 q134.5 131.5 330.5 210 q196 78.5 420 78.5 q123 0 233 -29 q110 -29 200.5 -86.5 q90.5 -57.5 156.5 -139 q66 -81.5 102.5 -191.5 q36.5 -110 36.5 -238 q0 -150 -52 -281.5 q-52 -131.5 -150.5 -213.5 q-98.5 -82 -221.5 -82 q-60 0 -105.5 19.5 q-45.5 19.5 -72 54.5 q-26.5 35 -40.5 73.5 q-14 38.5 -19 85.5 q-60 -92 -165 -146 q-105 -54 -214 -54 q-145 0 -237.5 94 q-92.5 94 -92.5 246 q0 141 64 263.5 q64 122.5 179.5 197.5 q115.5 75 256.5 75 q99 0 172.5 -47 q73.5 -47 107.5 -131 l29 145 l125 0 l-96 -493 q-27 -139 7 -212 q34 -73 120 -73 q81 0 151.5 67 q70.5 67 111 174.5 q40.5 107.5 40.5 225.5 q0 276 -175 439 q-175 163 -468 163 q-186 0 -356.5 -69 q-170.5 -69 -294 -185 q-123.5 -116 -196.5 -274.5 q-73 -158.5 -73 -329.5 q0 -260 149.5 -405.5 q149.5 -145.5 423.5 -145.5 q165 0 304 41 l-21 -98 q-134 -35 -299 -35 Z" /><glyph glyph-name="A" unicode="A" d="M823 1257 l-420 -735 l558 0 l-138 735 ZM104 0 l-167 0 l819 1413 l186 0 l272 -1413 l-155 0 l-72 387 l-661 0 l-222 -387 Z" /><glyph glyph-name="B" unicode="B" d="M352 666 l-100 -523 l442 0 q149 0 249.5 93 q100.5 93 100.5 219 q0 94 -59.5 152.5 q-59.5 58.5 -155.5 58.5 l-477 0 ZM471 1270 l-92 -471 l362 0 q130 0 225 82.5 q95 82.5 95 197.5 q0 91 -63 141 q-63 50 -181 50 l-346 0 ZM662 0 l-592 0 l274 1413 l526 0 q168 0 260.5 -83 q92.5 -83 92.5 -222 q0 -114 -66.5 -207.5 q-66.5 -93.5 -183.5 -148.5 q113 -35 172 -113 q59 -78 59 -186 q0 -192 -149.5 -322.5 q-149.5 -130.5 -392.5 -130.5 Z" /><glyph glyph-name="C" unicode="C" d="M109 567 q0 168 70 327.5 q70 159.5 188 279.5 q118 120 283.5 193 q165.5 73 346.5 73 q224 0 373 -140 q149 -140 174 -364 l-164 0 q-23 164 -134 258 q-111 94 -277 94 q-137 0 -266.5 -57.5 q-129.5 -57.5 -224.5 -152.5 q-95 -95 -152.5 -224.5 q-57.5 -129.5 -57.5 -267.5 q0 -203 129.5 -332 q129.5 -129 341.5 -129 q172 0 320.5 92.5 q148.5 92.5 236.5 261.5 l166 0 q-118 -251 -309 -378.5 q-191 -127.5 -442 -127.5 q-175 0 -313 77.5 q-138 77.5 -213.5 212.5 q-75.5 135 -75.5 304 Z" /><glyph glyph-name="D" unicode="D" d="M70 0 l274 1413 l483 0 q301 0 470 -158.5 q169 -158.5 169 -435.5 q0 -170 -67.5 -320.5 q-67.5 -150.5 -187.5 -260.5 q-120 -110 -297 -174 q-177 -64 -386 -64 l-458 0 ZM250 143 l289 0 q169 0 313.5 52.5 q144.5 52.5 243.5 142.5 q99 90 155 213 q56 123 56 262 q0 219 -132.5 338 q-132.5 119 -377.5 119 l-326 0 l-221 -1127 Z" /><glyph glyph-name="E" unicode="E" d="M344 1413 l965 0 l-29 -145 l-811 0 l-86 -449 l688 0 l-29 -143 l-688 0 l-102 -531 l811 0 l-29 -145 l-964 0 l274 1413 Z" /><glyph glyph-name="F" unicode="F" d="M70 0 l274 1413 l999 0 l-28 -145 l-846 0 l-96 -498 l737 0 l-29 -145 l-737 0 l-121 -625 l-153 0 Z" /><glyph glyph-name="G" unicode="G" d="M721 -27 q-271 0 -440.5 169 q-169.5 169 -169.5 431 q0 175 71 336 q71 161 190 277 q119 116 281 185 q162 69 336 69 q225 0 376.5 -131 q151.5 -131 176.5 -344 l-168 0 q-26 156 -135.5 239.5 q-109.5 83.5 -277.5 83.5 q-136 0 -263.5 -57.5 q-127.5 -57.5 -221 -152.5 q-93.5 -95 -150 -224.5 q-56.5 -129.5 -56.5 -267.5 q0 -203 131 -332 q131 -129 347 -129 q149 0 289 55 q140 55 247 150 l55 284 l-505 0 l26 142 l662 0 l-148 -756 l-141 0 l18 139 q-239 -166 -530 -166 Z" /><glyph glyph-name="H" unicode="H" d="M344 1413 l154 0 l-117 -598 l844 0 l116 598 l154 0 l-274 -1413 l-154 0 l131 670 l-844 0 l-131 -670 l-153 0 l274 1413 Z" /><glyph glyph-name="I" unicode="I" d="M344 1413 l154 0 l-275 -1413 l-153 0 l274 1413 Z" /><glyph glyph-name="J" unicode="J" d="M688 571 l164 842 l154 0 l-168 -862 q-30 -158 -82.5 -270.5 q-52.5 -112.5 -126.5 -179.5 q-74 -67 -162.5 -97.5 q-88.5 -30.5 -200.5 -30.5 q-166 0 -297 64 l31 164 q123 -76 268 -76 q172 0 273.5 106.5 q101.5 106.5 146.5 339.5 Z" /><glyph glyph-name="K" unicode="K" d="M344 1413 l154 0 l-127 -655 l811 655 l217 0 l-852 -678 l608 -735 l-188 0 l-602 731 l-142 -731 l-153 0 l274 1413 Z" /><glyph glyph-name="L" unicode="L" d="M70 0 l274 1413 l154 0 l-246 -1268 l801 0 l-29 -145 l-954 0 Z" /><glyph glyph-name="M" unicode="M" d="M799 143 l-334 1106 l-242 -1249 l-153 0 l274 1413 l223 0 l334 -1102 l778 1102 l232 0 l-275 -1413 l-153 0 l237 1219 l-762 -1076 l-159 0 Z" /><glyph glyph-name="N" unicode="N" d="M1028 0 l-569 1243 l-242 -1243 l-147 0 l274 1413 l199 0 l553 -1200 l233 1200 l148 0 l-275 -1413 l-174 0 Z" /><glyph glyph-name="O" unicode="O" d="M711 -27 q-172 0 -309.5 79 q-137.5 79 -214 217.5 q-76.5 138.5 -76.5 308.5 q0 165 68 322 q68 157 184.5 276 q116.5 119 282.5 191.5 q166 72.5 351 72.5 q260 0 430 -170.5 q170 -170.5 170 -427.5 q0 -167 -67.5 -325 q-67.5 -158 -183.5 -278 q-116 -120 -282.5 -193 q-166.5 -73 -352.5 -73 ZM270 594 q0 -207 124 -338 q124 -131 347 -131 q132 0 260.5 58.5 q128.5 58.5 223.5 153.5 q95 95 154 223 q59 128 59 259 q0 205 -126 337 q-126 132 -345 132 q-134 0 -263 -59 q-129 -59 -223.5 -154.5 q-94.5 -95.5 -152.5 -222.5 q-58 -127 -58 -258 Z" /><glyph glyph-name="P" unicode="P" d="M471 1274 l-117 -604 l334 0 q190 0 309 102.5 q119 102.5 119 253.5 q0 111 -78 179.5 q-78 68.5 -217 68.5 l-350 0 ZM659 530 l-333 0 l-103 -530 l-153 0 l274 1413 l492 0 q204 0 320 -103 q116 -103 116 -282 q0 -222 -165 -360 q-165 -138 -448 -138 Z" /><glyph glyph-name="Q" unicode="Q" d="M270 594 q0 -207 124 -338 q124 -131 347 -131 q132 0 260.5 58.5 q128.5 58.5 223.5 153.5 q95 95 154 223 q59 128 59 259 q0 205 -126 337 q-126 132 -345 132 q-134 0 -263 -59 q-129 -59 -223.5 -154.5 q-94.5 -95.5 -152.5 -222.5 q-58 -127 -58 -258 ZM860 -14 l346 -168 l-88 -133 l-659 340 q-161 68 -254.5 215.5 q-93.5 147.5 -93.5 337.5 q0 165 68 322 q68 157 184.5 276 q116.5 119 282.5 191.5 q166 72.5 351 72.5 q260 0 430 -170.5 q170 -170.5 170 -427.5 q0 -200 -93 -383 q-93 -183 -263 -310.5 q-170 -127.5 -381 -162.5 Z" /><glyph glyph-name="R" unicode="R" d="M469 1268 l-98 -514 l405 0 q146 0 248 89 q102 89 102 212 q0 93 -64.5 153 q-64.5 60 -170.5 60 l-422 0 ZM754 610 l-13 0 l459 -610 l-186 0 l-459 610 l-213 0 l-119 -610 l-153 0 l274 1413 l580 0 q170 0 266 -96 q96 -96 96 -254 q0 -188 -148.5 -320.5 q-148.5 -132.5 -383.5 -132.5 Z" /><glyph glyph-name="S" unicode="S" d="M498 -27 q-196 0 -317.5 121 q-121.5 121 -117.5 324 l154 0 q4 -156 85 -229.5 q81 -73.5 216 -73.5 q147 0 243.5 81.5 q96.5 81.5 96.5 200.5 q0 99 -68 161.5 q-68 62.5 -221 107.5 q-354 102 -354 370 q0 174 132.5 289 q132.5 115 348.5 115 q188 0 298.5 -110.5 q110.5 -110.5 107.5 -301.5 l-156 0 q-3 127 -72.5 198.5 q-69.5 71.5 -197.5 71.5 q-132 0 -219.5 -69 q-87.5 -69 -87.5 -170 q0 -98 74 -155.5 q74 -57.5 225 -100.5 q344 -98 344 -385 q0 -194 -140 -319.5 q-140 -125.5 -374 -125.5 Z" /><glyph glyph-name="T" unicode="T" d="M1309 1268 l-488 0 l-243 -1268 l-154 0 l246 1268 l-486 0 l29 145 l1124 0 l-28 -145 Z" /><glyph glyph-name="U" unicode="U" d="M600 -27 q-115 0 -208.5 45.5 q-93.5 45.5 -156 133 q-62.5 87.5 -82.5 216.5 q-20 129 11 296 l145 749 l156 0 l-148 -756 q-25 -146 -14.5 -247.5 q10.5 -101.5 57.5 -164.5 q47 -63 113 -91.5 q66 -28.5 154 -28.5 q68 0 129.5 16.5 q61.5 16.5 122.5 55.5 q61 39 110 99 q49 60 89 152 q40 92 63 209 l147 756 l154 0 l-148 -760 q-134 -680 -694 -680 Z" /><glyph glyph-name="V" unicode="V" d="M459 0 l-266 1413 l151 0 l227 -1270 l721 1270 l172 0 l-815 -1413 l-190 0 Z" /><glyph glyph-name="W" unicode="W" d="M438 0 l-245 1413 l163 0 l197 -1212 l678 1212 l160 0 l206 -1220 l670 1220 l164 0 l-795 -1413 l-157 0 l-209 1210 l-674 -1210 l-158 0 Z" /><glyph glyph-name="X" unicode="X" d="M-53 0 l635 735 l-326 678 l170 0 l268 -559 l490 559 l192 0 l-608 -688 l350 -725 l-170 0 l-289 604 l-522 -604 l-190 0 Z" /><glyph glyph-name="Y" unicode="Y" d="M465 0 l123 639 l-406 774 l168 0 l336 -641 l569 641 l195 0 l-713 -792 l-119 -621 l-153 0 Z" /><glyph glyph-name="Z" unicode="Z" d="M31 0 l24 133 l1022 1135 l-860 0 l29 145 l1059 0 l-25 -139 l-1018 -1129 l879 0 l-27 -145 l-1083 0 Z" /><glyph glyph-name="bracketleft" unicode="[" d="M100 -186 l367 1894 l508 4 l-23 -121 l-368 -4 l-320 -1650 l365 -5 l-23 -122 l-506 4 Z" /><glyph glyph-name="backslash" unicode="\" d="M397 1606 l322 -1844 l-141 0 l-320 1844 l139 0 Z" /><glyph glyph-name="bracketright" unicode="]" d="M-94 -190 l22 120 l369 4 l319 1651 l-364 4 l22 123 l506 -4 l-366 -1894 l-508 -4 Z" /><glyph glyph-name="asciicircum" unicode="^" d="M758 1495 l186 0 l311 -850 l-165 0 l-254 731 l-539 -731 l-180 0 l641 850 Z" /><glyph glyph-name="underscore" unicode="_" d="M903 -205 l-1048 0 l26 131 l1047 0 l-25 -131 Z" /><glyph glyph-name="a" unicode="a" d="M209 444 q0 -143 91.5 -236 q91.5 -93 240.5 -93 q120 0 232 69 q112 69 180.5 182 q68.5 113 68.5 234 q0 144 -87 238 q-87 94 -237 94 q-125 0 -239 -69.5 q-114 -69.5 -182 -182.5 q-68 -113 -68 -236 ZM502 -27 q-190 0 -316.5 132 q-126.5 132 -126.5 335 q0 118 52.5 233 q52.5 115 139 202.5 q86.5 87.5 206.5 141.5 q120 54 248 54 q129 0 226.5 -69 q97.5 -69 139.5 -185 l45 227 l146 0 l-203 -1044 l-146 0 l39 199 q-85 -106 -201.5 -166 q-116.5 -60 -248.5 -60 Z" /><glyph glyph-name="b" unicode="b" d="M305 444 q0 -144 88 -237.5 q88 -93.5 238 -93.5 q93 0 183 41.5 q90 41.5 156.5 108.5 q66.5 67 107 156.5 q40.5 89.5 40.5 182.5 q0 143 -91 236.5 q-91 93.5 -239 93.5 q-121 0 -233.5 -69.5 q-112.5 -69.5 -181 -183 q-68.5 -113.5 -68.5 -235.5 ZM211 0 l-145 0 l290 1495 l146 0 l-127 -649 q85 106 202 165.5 q117 59.5 250 59.5 q190 0 315.5 -131 q125.5 -131 125.5 -334 q0 -119 -52 -234.5 q-52 -115.5 -138.5 -203 q-86.5 -87.5 -206 -141.5 q-119.5 -54 -246.5 -54 q-129 0 -228 69.5 q-99 69.5 -141 184.5 l-45 -227 Z" /><glyph glyph-name="c" unicode="c" d="M504 -27 q-199 0 -326 128 q-127 128 -127 323 q0 127 51.5 245 q51.5 118 139 207 q87.5 89 213 142 q125.5 53 264.5 53 q170 0 284.5 -108 q114.5 -108 133.5 -275 l-152 0 q-23 112 -96.5 178 q-73.5 66 -198.5 66 q-123 0 -237 -69.5 q-114 -69.5 -183 -183 q-69 -113.5 -69 -235.5 q0 -144 89 -237.5 q89 -93.5 236 -93.5 q254 0 404 233 l155 0 q-90 -181 -238 -277 q-148 -96 -343 -96 Z" /><glyph glyph-name="d" unicode="d" d="M203 444 q0 -143 91.5 -236 q91.5 -93 240.5 -93 q120 0 232 69 q112 69 180.5 182 q68.5 113 68.5 234 q0 144 -87 238 q-87 94 -237 94 q-125 0 -239 -69.5 q-114 -69.5 -182 -182.5 q-68 -113 -68 -236 ZM1055 0 l-146 0 l39 201 q-85 -108 -202 -168 q-117 -60 -250 -60 q-190 0 -316.5 132 q-126.5 132 -126.5 335 q0 118 52 233 q52 115 138.5 202.5 q86.5 87.5 206.5 141.5 q120 54 248 54 q129 0 228 -69.5 q99 -69.5 141 -186.5 l131 680 l145 0 l-288 -1495 Z" /><glyph glyph-name="e" unicode="e" d="M229 598 l744 0 q6 148 -67 242 q-73 94 -218 94 q-146 0 -275 -96.5 q-129 -96.5 -184 -239.5 ZM500 -27 q-197 0 -322 129.5 q-125 129.5 -125 325.5 q0 127 52.5 245 q52.5 118 141 205.5 q88.5 87.5 212.5 140 q124 52.5 260 52.5 q103 0 187 -42 q84 -42 136.5 -119 q52.5 -77 70.5 -185 q18 -108 -11 -240 l-899 0 q-2 -14 -2 -43 q0 -142 89.5 -235.5 q89.5 -93.5 233.5 -93.5 q123 0 224 56 q101 56 167 150 l150 0 q-76 -158 -227 -252 q-151 -94 -338 -94 Z" /><glyph glyph-name="f" unicode="f" d="M373 1102 q39 202 156 311 q117 109 286 109 q136 0 232 -52 l-31 -145 q-89 64 -215 64 q-108 0 -181.5 -71 q-73.5 -71 -101.5 -216 l-10 -58 l410 0 l-25 -124 l-410 0 l-180 -920 l-145 0 l180 920 l-221 0 l22 124 l223 0 l11 58 Z" /><glyph glyph-name="g" unicode="g" d="M207 485 q0 -130 78.5 -210 q78.5 -80 214.5 -80 q116 0 216 61 q100 61 159 164.5 q59 103.5 59 222.5 q0 132 -78.5 214.5 q-78.5 82.5 -210.5 82.5 q-113 0 -214.5 -62.5 q-101.5 -62.5 -162.5 -168 q-61 -105.5 -61 -224.5 ZM397 -375 q-181 0 -293.5 99.5 q-112.5 99.5 -126.5 250.5 l154 0 q8 -98 82.5 -158.5 q74.5 -60.5 208.5 -60.5 q163 0 277.5 112.5 q114.5 112.5 156.5 330.5 l14 71 q-79 -95 -187 -149.5 q-108 -54.5 -228 -54.5 q-175 -10 -285.5 105 q-110.5 115 -110.5 292 q0 117 44.5 227 q44.5 110 121 193.5 q76.5 83.5 188 134.5 q111.5 51 236.5 51 q119 0 205 -59 q86 -59 127 -162 l39 196 l143 0 l-168 -864 q-53 -270 -204.5 -412.5 q-151.5 -142.5 -393.5 -142.5 Z" /><glyph glyph-name="h" unicode="h" d="M356 1495 l146 0 l-127 -653 q66 103 173 164 q107 61 224 61 q71 0 128.5 -24 q57.5 -24 101.5 -76.5 q44 -52.5 56.5 -136 q12.5 -83.5 -7.5 -203.5 l-123 -627 l-144 0 l119 604 q63 330 -186 330 q-122 0 -230.5 -84.5 q-108.5 -84.5 -158.5 -245.5 l-117 -604 l-145 0 l290 1495 Z" /><glyph glyph-name="i" unicode="i" d="M70 0 l202 1042 l144 0 l-205 -1042 l-141 0 ZM317 1386 q0 42 32.5 76.5 q32.5 34.5 82.5 34.5 q34 0 57 -23.5 q23 -23.5 23 -58.5 q0 -42 -34 -76 q-34 -34 -83 -34 q-36 0 -57 22 q-21 22 -21 59 Z" /><glyph glyph-name="j" unicode="j" d="M-195 -233 q40 -7 62 -7 q89 0 132 52.5 q43 52.5 60 150.5 l211 1081 l142 0 l-209 -1077 q-35 -176 -118 -256 q-83 -80 -232 -80 q-20 0 -74 4 l26 132 ZM319 1399 q0 44 35 78 q35 34 78 34 q32 0 55 -22.5 q23 -22.5 23 -54.5 q0 -41 -36 -77 q-36 -36 -77 -36 q-35 0 -56.5 22.5 q-21.5 22.5 -21.5 55.5 Z" /><glyph glyph-name="k" unicode="k" d="M745 0 l-430 547 l-106 -547 l-143 0 l290 1495 l144 0 l-178 -915 l598 464 l200 0 l-631 -489 l431 -555 l-175 0 Z" /><glyph glyph-name="l" unicode="l" d="M356 1495 l144 0 l-291 -1495 l-143 0 l290 1495 Z" /><glyph glyph-name="m" unicode="m" d="M272 1044 l144 0 l-39 -198 q66 103 169 165 q103 62 208 62 q108 0 184 -66 q76 -66 86 -202 q70 126 180.5 197 q110.5 71 231.5 71 q54 0 99 -13 q45 -13 84.5 -43.5 q39.5 -30.5 60.5 -80.5 q21 -50 27.5 -125 q6.5 -75 -15.5 -176 l-123 -635 l-142 0 l119 610 q63 330 -170 330 q-121 0 -224 -91 q-103 -91 -148 -267 l-113 -582 l-141 0 l116 610 q32 165 -17 247.5 q-49 82.5 -155 82.5 q-125 0 -230.5 -101 q-105.5 -101 -144.5 -294 l0 6 l-106 -551 l-143 0 l202 1044 Z" /><glyph glyph-name="n" unicode="n" d="M272 1044 l144 0 l-37 -188 q75 97 178.5 156 q103.5 59 212.5 59 q70 0 129 -27.5 q59 -27.5 103.5 -87 q44.5 -59.5 57 -152 q12.5 -92.5 -10.5 -222.5 l-113 -582 l-145 0 l108 563 q37 190 -12.5 283.5 q-49.5 93.5 -173.5 93.5 q-124 0 -234 -95 q-110 -95 -155 -276 l-111 -569 l-143 0 l202 1044 Z" /><glyph glyph-name="o" unicode="o" d="M508 -27 q-201 0 -328 130 q-127 130 -127 329 q0 122 51 238 q51 116 138.5 204.5 q87.5 88.5 213 142.5 q125.5 54 265.5 54 q198 0 325.5 -128.5 q127.5 -128.5 127.5 -324.5 q0 -122 -51.5 -239 q-51.5 -117 -139.5 -206.5 q-88 -89.5 -213 -144.5 q-125 -55 -262 -55 ZM201 438 q0 -142 89.5 -233.5 q89.5 -91.5 241.5 -91.5 q124 0 238 70 q114 70 184 185.5 q70 115.5 70 241.5 q0 139 -91 230.5 q-91 91.5 -243 91.5 q-93 0 -182.5 -41.5 q-89.5 -41.5 -156.5 -108.5 q-67 -67 -108.5 -158 q-41.5 -91 -41.5 -186 Z" /><glyph glyph-name="p" unicode="p" d="M293 444 q0 -144 87.5 -237.5 q87.5 -93.5 237.5 -93.5 q124 0 238 69 q114 69 183 182.5 q69 113.5 69 237.5 q0 143 -91.5 236.5 q-91.5 93.5 -240.5 93.5 q-121 0 -233.5 -69.5 q-112.5 -69.5 -181 -183 q-68.5 -113.5 -68.5 -235.5 ZM131 -348 l-141 0 l270 1392 l141 0 l-39 -198 q85 106 202.5 165.5 q117.5 59.5 250.5 59.5 q190 0 315 -131 q125 -131 125 -334 q0 -119 -52 -234.5 q-52 -115.5 -138.5 -203 q-86.5 -87.5 -206 -141.5 q-119.5 -54 -246.5 -54 q-129 0 -227.5 69.5 q-98.5 69.5 -140.5 186.5 l-113 -577 Z" /><glyph glyph-name="q" unicode="q" d="M203 444 q0 -143 91.5 -236 q91.5 -93 240.5 -93 q120 0 232 69 q112 69 180.5 182 q68.5 113 68.5 234 q0 144 -87 238 q-87 94 -237 94 q-125 0 -239 -69.5 q-114 -69.5 -182 -182.5 q-68 -113 -68 -236 ZM985 -348 l-145 0 l106 547 q-85 -106 -201.5 -166 q-116.5 -60 -248.5 -60 q-190 0 -316.5 132 q-126.5 132 -126.5 335 q0 118 52 233 q52 115 138.5 202.5 q86.5 87.5 206.5 141.5 q120 54 248 54 q129 0 227.5 -69.5 q98.5 -69.5 141.5 -186.5 l43 227 l145 0 l-270 -1390 Z" /><glyph glyph-name="r" unicode="r" d="M272 1044 l140 0 l-43 -221 q66 117 172.5 180 q106.5 63 253.5 52 l-31 -148 q-335 28 -440 -356 l-109 -551 l-145 0 l202 1044 Z" /><glyph glyph-name="s" unicode="s" d="M393 -27 q-157 0 -255.5 90.5 q-98.5 90.5 -106.5 239.5 l145 0 q1 -94 62.5 -149.5 q61.5 -55.5 162.5 -55.5 q103 0 170.5 52 q67.5 52 67.5 133 q0 74 -51.5 114.5 q-51.5 40.5 -157.5 73.5 q-287 91 -287 303 q0 127 97 212 q97 85 260 85 q140 0 232.5 -83 q92.5 -83 101.5 -230 l-144 0 q-7 95 -63 141.5 q-56 46.5 -140 46.5 q-91 0 -148.5 -44 q-57.5 -44 -57.5 -114 q0 -66 50.5 -108 q50.5 -42 155.5 -74 q60 -19 105.5 -41.5 q45.5 -22.5 89.5 -57.5 q44 -35 68 -88 q24 -53 24 -120 q0 -145 -101 -235.5 q-101 -90.5 -280 -90.5 Z" /><glyph glyph-name="t" unicode="t" d="M711 -12 q-65 -8 -136 -8 q-448 0 -356 466 l92 472 l-217 0 l23 126 l219 0 l65 336 l144 0 l-66 -336 l381 0 l-24 -126 l-381 0 l-86 -449 q-13 -67 -16 -116.5 q-3 -49.5 6.5 -97.5 q9.5 -48 36.5 -78 q27 -30 78.5 -48 q51.5 -18 127.5 -18 q58 0 137 12 l-28 -135 Z" /><glyph glyph-name="u" unicode="u" d="M877 0 l-144 0 l35 178 q-66 -91 -169.5 -148 q-103.5 -57 -205.5 -57 q-71 0 -129.5 28 q-58.5 28 -102 88 q-43.5 60 -55 154 q-11.5 94 12.5 226 l110 575 l144 0 l-109 -561 q-37 -190 13 -283.5 q50 -93.5 172 -93.5 q56 0 113.5 24 q57.5 24 111.5 70.5 q54 46.5 96 124.5 q42 78 61 177 l107 542 l141 0 l-202 -1044 Z" /><glyph glyph-name="v" unicode="v" d="M326 0 l-193 1044 l148 0 l157 -915 l514 915 l162 0 l-600 -1044 l-188 0 Z" /><glyph glyph-name="w" unicode="w" d="M338 0 l-205 1044 l148 0 l165 -878 l474 878 l153 0 l141 -866 l496 866 l162 0 l-617 -1044 l-147 0 l-143 852 l-463 -852 l-164 0 Z" /><glyph glyph-name="x" unicode="x" d="M909 0 l-157 0 l-234 442 l-395 -442 l-180 0 l501 551 l-249 493 l155 0 l201 -395 l356 395 l178 0 l-464 -505 l288 -539 Z" /><glyph glyph-name="y" unicode="y" d="M109 -348 l241 391 l-237 1001 l149 0 l195 -833 l514 833 l162 0 l-867 -1392 l-157 0 Z" /><glyph glyph-name="z" unicode="z" d="M989 928 l-762 -803 l686 0 l-24 -125 l-866 0 l24 115 l760 805 l-651 0 l24 124 l832 0 l-23 -116 Z" /><glyph glyph-name="braceleft" unicode="{" d="M63 666 l25 125 l156 0 q87 0 129.5 35.5 q42.5 35.5 42.5 113.5 q0 43 -32 162 q-32 119 -32 203 q0 399 545 399 l-25 -133 q-182 0 -279 -65.5 q-97 -65.5 -97 -190.5 q0 -69 26.5 -192 q26.5 -123 26.5 -177 q0 -91 -45 -147 q-45 -56 -113 -72 q44 -11 70 -47 q26 -36 26 -88 q0 -54 -24 -110 q-24 -56 -57.5 -105 q-33.5 -49 -67.5 -98.5 q-34 -49.5 -58 -107.5 q-24 -58 -24 -116 q0 -176 287 -176 l-25 -127 q-201 0 -305 79 q-104 79 -104 214 q0 66 24.5 130.5 q24.5 64.5 59.5 115.5 q35 51 70.5 98.5 q35.5 47.5 60 98.5 q24.5 51 24.5 98 q0 80 -129 80 l-156 0 Z" /><glyph glyph-name="bar" unicode="|" d="M743 1718 l146 0 l-391 -2015 l-146 0 l391 2015 Z" /><glyph glyph-name="braceright" unicode="}" d="M-129 -248 l25 133 q182 0 279 65.5 q97 65.5 97 190.5 q0 69 -26.5 192 q-26.5 123 -26.5 177 q0 91 45 147 q45 56 113 72 q-44 11 -70 47 q-26 36 -26 88 q0 54 24 110 q24 56 57.5 105 q33.5 49 67.5 98.5 q34 49.5 58 107.5 q24 58 24 116 q0 176 -287 176 l25 127 q201 0 305 -79 q104 -79 104 -214 q0 -66 -24.5 -130.5 q-24.5 -64.5 -59.5 -115.5 q-35 -51 -70.5 -98.5 q-35.5 -47.5 -60 -98.5 q-24.5 -51 -24.5 -98 q0 -79 129 -79 l156 0 l-25 -125 l-156 0 q-86 0 -129 -36 q-43 -36 -43 -114 q0 -43 32 -161.5 q32 -118.5 32 -202.5 q0 -400 -545 -400 Z" /><glyph glyph-name="exclamdown" unicode="¡" d="M274 -367 l-147 0 l197 1016 l147 0 l-197 -1016 ZM348 944 q0 53 37 91 q37 38 94 38 q38 0 64 -27 q26 -27 26 -65 q0 -49 -38 -88 q-38 -39 -95 -39 q-39 0 -63.5 25.5 q-24.5 25.5 -24.5 64.5 Z" /><glyph glyph-name="cent" unicode="¢" d="M422 0 l31 168 q-161 26 -259 146.5 q-98 120.5 -98 291.5 q0 155 74.5 296.5 q74.5 141.5 206 236.5 q131.5 95 287.5 114 l32 160 l142 0 l-31 -160 q146 -23 234.5 -126 q88.5 -103 103.5 -253 l-156 0 q-20 114 -89 180 q-69 66 -191 66 q-87 0 -172.5 -42 q-85.5 -42 -149 -110 q-63.5 -68 -102.5 -159 q-39 -91 -39 -184 q0 -144 80.5 -235 q80.5 -91 228.5 -91 q115 0 208.5 61 q93.5 61 156.5 172 l157 -2 q-73 -154 -196 -250.5 q-123 -96.5 -285 -113.5 l-33 -166 l-141 0 Z" /><glyph glyph-name="sterling" unicode="£" d="M-2 139 q52 16 99 37 q47 21 96.5 54 q49.5 33 84.5 73 q35 40 57.5 95.5 q22.5 55.5 22.5 119.5 q0 37 -12 111 l-258 0 l23 119 l206 0 q-34 136 -34 233 q0 94 36 178 q36 84 99.5 146 q63.5 62 156 98.5 q92.5 36.5 199.5 36.5 q187 0 290.5 -110 q103.5 -110 109.5 -288 l-158 0 q-11 125 -73.5 187.5 q-62.5 62.5 -188.5 62.5 q-135 0 -225.5 -87.5 q-90.5 -87.5 -90.5 -223.5 q0 -81 37 -233 l522 0 l-24 -119 l-471 0 q6 -43 6 -90 q0 -261 -289 -400 l858 0 l-26 -139 l-1080 0 l27 139 Z" /><glyph glyph-name="yen" unicode="¥" d="M430 0 l59 309 l-362 0 l23 121 l364 0 l43 225 l-362 0 l22 119 l305 0 l-299 639 l166 0 l266 -590 l486 590 l190 0 l-536 -639 l297 0 l-23 -119 l-362 0 l-43 -225 l360 0 l-23 -121 l-362 0 l-59 -309 l-150 0 Z" /><glyph glyph-name="brokenbar" unicode="¦" d="M664 553 l-166 -850 l-146 0 l166 850 l146 0 ZM578 866 l165 850 l146 0 l-166 -850 l-145 0 Z" /><glyph glyph-name="section" unicode="§" d="M301 575 q0 -86 106.5 -130 q106.5 -44 280.5 -44 q200 0 324.5 55.5 q124.5 55.5 124.5 153.5 q0 48 -34 83.5 q-34 35.5 -94.5 55 q-60.5 19.5 -132.5 28.5 q-72 9 -159 9 q-183 0 -299.5 -59.5 q-116.5 -59.5 -116.5 -151.5 ZM592 -254 q-176 0 -293.5 101.5 q-117.5 101.5 -124.5 269.5 l154 0 q9 -109 83.5 -170.5 q74.5 -61.5 204.5 -61.5 q132 0 215.5 55.5 q83.5 55.5 83.5 143.5 q0 86 -81.5 129 q-81.5 43 -251.5 59 q-218 21 -324 88.5 q-106 67.5 -106 196.5 q0 116 95.5 193 q95.5 77 272.5 108 q-145 82 -145 238 q0 146 128.5 245 q128.5 99 340.5 99 q188 0 301.5 -105.5 q113.5 -105.5 118.5 -265.5 l-154 0 q-8 109 -81.5 170 q-73.5 61 -207.5 61 q-132 0 -215.5 -54 q-83.5 -54 -83.5 -142 q0 -83 84 -128.5 q84 -45.5 252 -60.5 q219 -21 323.5 -85 q104.5 -64 104.5 -193 q0 -114 -95 -194.5 q-95 -80.5 -269 -114.5 q141 -76 141 -240 q0 -155 -134 -248.5 q-134 -93.5 -337 -93.5 Z" /><glyph glyph-name="copyright" unicode="©" d="M209 580 q0 -147 64 -264.5 q64 -117.5 188 -187 q124 -69.5 289 -69.5 q154 0 300 64.5 q146 64.5 253.5 170 q107.5 105.5 173 249.5 q65.5 144 65.5 295 q0 224 -147.5 370 q-147.5 146 -393.5 146 q-154 0 -300 -63.5 q-146 -63.5 -254 -168.5 q-108 -105 -173 -248 q-65 -143 -65 -294 ZM430 625 q0 131 71.5 250 q71.5 119 197.5 193.5 q126 74.5 272 74.5 q144 0 235.5 -86.5 q91.5 -86.5 106.5 -222.5 l-137 0 q-41 182 -232 182 q-95 0 -183.5 -53.5 q-88.5 -53.5 -142 -141 q-53.5 -87.5 -53.5 -182.5 q0 -114 66.5 -186 q66.5 -72 189.5 -72 q98 0 174 46.5 q76 46.5 123 129.5 l139 0 q-68 -141 -183.5 -222 q-115.5 -81 -274.5 -81 q-163 0 -266 104.5 q-103 104.5 -103 266.5 ZM733 -27 q-136 0 -252 46 q-116 46 -196.5 125.5 q-80.5 79.5 -126 189 q-45.5 109.5 -45.5 235.5 q0 112 31.5 221.5 q31.5 109.5 89 205.5 q57.5 96 140.5 178 q83 82 181.5 141 q98.5 59 218 92 q119.5 33 244.5 33 q181 0 322 -77.5 q141 -77.5 217.5 -212 q76.5 -134.5 76.5 -302.5 q0 -169 -70 -328.5 q-70 -159.5 -189 -280 q-119 -120.5 -287.5 -193.5 q-168.5 -73 -354.5 -73 Z" /><glyph glyph-name="guillemotleft" unicode="«" d="M553 1049 l88 -95 l-330 -317 l203 -311 l-104 -70 l-277 397 l420 396 ZM543 653 l420 396 l88 -95 l-330 -317 l203 -311 l-105 -70 l-276 397 Z" /><glyph glyph-name="registered" unicode="®" d="M250 907 q0 -134 87 -220.5 q87 -86.5 224 -86.5 q120 0 227.5 64.5 q107.5 64.5 172.5 171.5 q65 107 65 227 q0 133 -87.5 220 q-87.5 87 -227.5 87 q-119 0 -226 -65 q-107 -65 -171 -172 q-64 -107 -64 -226 ZM582 1147 l-29 -156 l119 0 q40 0 69 27 q29 27 29 65 q0 30 -20 47 q-20 17 -50 17 l-118 0 ZM547 530 q-163 0 -268 104 q-105 104 -105 263 q0 139 73 264 q73 125 200.5 202 q127.5 77 275.5 77 q167 0 273 -104 q106 -104 106 -261 q0 -141 -74 -266.5 q-74 -125.5 -202.5 -202 q-128.5 -76.5 -278.5 -76.5 ZM506 748 l-86 0 l92 477 l188 0 q79 0 118.5 -35.5 q39.5 -35.5 39.5 -99.5 q0 -60 -37 -103 q-37 -43 -100 -61 l110 -178 l-100 0 l-96 167 l-96 0 l-33 -167 Z" /><glyph glyph-name="degree" unicode="°" d="M502 621 q-151 0 -245.5 96 q-94.5 96 -94.5 248 q0 125 67 234 q67 109 182 174 q115 65 248 65 q149 0 243.5 -95 q94.5 -95 94.5 -243 q0 -127 -65.5 -237.5 q-65.5 -110.5 -180 -176 q-114.5 -65.5 -249.5 -65.5 ZM295 975 q0 -101 62 -165.5 q62 -64.5 167 -64.5 q130 0 235 104.5 q105 104.5 105 233.5 q0 100 -63 165 q-63 65 -166 65 q-132 0 -236 -103 q-104 -103 -104 -235 Z" /><glyph glyph-name="plusminus" unicode="±" d="M1018 764 l-352 0 l-50 -248 l-131 0 l50 248 l-357 0 l27 133 l356 0 l49 252 l131 0 l-49 -252 l350 0 l-24 -133 ZM61 160 l25 133 l840 0 l-27 -133 l-838 0 Z" /><glyph glyph-name="paragraph" unicode="¶" d="M555 504 q-195 0 -300 101 q-105 101 -105 259 q0 112 45.5 214 q45.5 102 123 175.5 q77.5 73.5 185.5 116.5 q108 43 227 43 l748 0 l-342 -1761 l-150 0 l316 1622 l-371 0 l-314 -1622 l-149 0 l166 852 l-80 0 Z" /><glyph glyph-name="periodcentered" unicode="·" d="M297 621 q-38 0 -64 27 q-26 27 -26 65 q0 49 38 88 q38 39 95 39 q39 0 63.5 -25.5 q24.5 -25.5 24.5 -64.5 q0 -53 -37 -91 q-37 -38 -94 -38 Z" /><glyph glyph-name="guillemotright" unicode="»" d="M602 256 l-88 94 l330 318 l-203 311 l104 70 l277 -398 l-420 -395 ZM104 350 l330 318 l-203 311 l105 70 l276 -398 l-419 -395 l-89 94 Z" /><glyph glyph-name="onequarter" unicode="¼" d="M1247 604 l-334 -377 l261 0 l73 377 ZM1157 133 l-377 0 l15 84 l436 490 l147 0 l-92 -480 l131 0 l-18 -94 l-131 0 l-27 -133 l-111 0 l27 133 ZM238 1360 l133 53 l82 0 l-138 -706 l-114 0 l112 587 l-88 0 l13 66 ZM276 0 l-172 0 l1110 1413 l172 0 l-1110 -1413 Z" /><glyph glyph-name="onehalf" unicode="½" d="M238 1360 l133 53 l82 0 l-138 -706 l-114 0 l112 587 l-88 0 l13 66 ZM299 0 l-172 0 l1110 1413 l172 0 l-1110 -1413 ZM1438 0 l-539 0 l19 102 l223 142 q237 147 237 272 q0 43 -26 68.5 q-26 25.5 -78 25.5 q-128 0 -178 -141 l-119 0 q40 115 122 184.5 q82 69.5 197 69.5 q88 0 144.5 -49.5 q56.5 -49.5 56.5 -134.5 q0 -99 -79.5 -190 q-79.5 -91 -233.5 -187 l-90 -56 l364 0 l-20 -106 Z" /><glyph glyph-name="threequarters" unicode="¾" d="M1325 604 l-334 -377 l260 0 l74 377 ZM1235 133 l-377 0 l14 84 l437 490 l147 0 l-92 -480 l131 0 l-18 -94 l-131 0 l-27 -133 l-111 0 l27 133 ZM356 690 q-108 0 -172.5 64.5 q-64.5 64.5 -62.5 169.5 l119 0 q0 -56 35.5 -89.5 q35.5 -33.5 99.5 -33.5 q69 0 117.5 43 q48.5 43 48.5 106 q0 42 -35.5 68 q-35.5 26 -108.5 26 l-71 0 l14 72 l211 191 l-338 -2 l20 108 l476 0 l-21 -100 l-215 -187 q86 -11 134 -54 q48 -43 48 -118 q0 -110 -86 -187 q-86 -77 -213 -77 ZM393 0 l-172 0 l1110 1413 l172 0 l-1110 -1413 Z" /><glyph glyph-name="questiondown" unicode="¿" d="M348 -305 q89 0 169.5 29 q80.5 29 152 98 q71.5 69 108.5 170 l166 0 q-83 -219 -244.5 -334 q-161.5 -115 -382.5 -115 q-183 0 -289 85 q-106 85 -106 233 q0 137 105.5 244.5 q105.5 107.5 332.5 216.5 q73 35 114 61.5 q41 26.5 67.5 64 q26.5 37.5 38 75 q11.5 37.5 24.5 108.5 l150 0 q-17 -90 -36 -145 q-19 -55 -55 -107 q-36 -52 -90 -91.5 q-54 -39.5 -143 -84.5 q-61 -31 -96 -49.5 q-35 -18.5 -82 -46.5 q-47 -28 -73 -51 q-26 -23 -51.5 -52.5 q-25.5 -29.5 -36.5 -61.5 q-11 -32 -11 -69 q0 -83 66 -130.5 q66 -47.5 202 -47.5 ZM614 881 q0 53 37 91 q37 38 94 38 q38 0 64.5 -27 q26.5 -27 26.5 -65 q0 -48 -38.5 -87.5 q-38.5 -39.5 -95.5 -39.5 q-39 0 -63.5 25.5 q-24.5 25.5 -24.5 64.5 Z" /><glyph glyph-name="Agrave" unicode="À" d="M823 1257 l-420 -735 l558 0 l-138 735 ZM104 0 l-167 0 l819 1413 l186 0 l272 -1413 l-155 0 l-72 387 l-661 0 l-222 -387 ZM852 1518 l-283 258 l197 0 l254 -258 l-168 0 Z" /><glyph glyph-name="Aacute" unicode="Á" d="M823 1257 l-420 -735 l558 0 l-138 735 ZM104 0 l-167 0 l819 1413 l186 0 l272 -1413 l-155 0 l-72 387 l-661 0 l-222 -387 ZM920 1536 l-168 0 l254 258 l196 0 l-282 -258 Z" /><glyph glyph-name="Acircumflex" unicode="Â" d="M823 1257 l-420 -735 l558 0 l-138 735 ZM104 0 l-167 0 l819 1413 l186 0 l272 -1413 l-155 0 l-72 387 l-661 0 l-222 -387 ZM672 1540 l-158 0 l338 307 l154 0 l223 -307 l-137 0 l-168 217 l-252 -217 Z" /><glyph glyph-name="Atilde" unicode="Ã" d="M823 1257 l-420 -735 l558 0 l-138 735 ZM104 0 l-167 0 l819 1413 l186 0 l272 -1413 l-155 0 l-72 387 l-661 0 l-222 -387 ZM541 1567 l24 131 q86 57 189 57 q62 0 114 -21.5 q52 -21.5 98 -43 q46 -21.5 93 -21.5 q94 0 184 70 l-24 -131 q-85 -60 -191 -60 q-59 0 -111.5 22 q-52.5 22 -99.5 44 q-47 22 -92 22 q-91 0 -184 -69 Z" /><glyph glyph-name="Adieresis" unicode="Ä" d="M823 1257 l-420 -735 l558 0 l-138 735 ZM104 0 l-167 0 l819 1413 l186 0 l272 -1413 l-155 0 l-72 387 l-661 0 l-222 -387 ZM547 1651 q0 43 34.5 76.5 q34.5 33.5 80.5 33.5 q36 0 58.5 -21 q22.5 -21 22.5 -52 q0 -46 -35.5 -80.5 q-35.5 -34.5 -82.5 -34.5 q-34 0 -56 21.5 q-22 21.5 -22 56.5 ZM1042 1649 q0 45 35.5 78.5 q35.5 33.5 83.5 33.5 q34 0 57 -21 q23 -21 23 -52 q0 -45 -36.5 -80 q-36.5 -35 -82.5 -35 q-35 0 -57.5 21 q-22.5 21 -22.5 55 Z" /><glyph glyph-name="Aring" unicode="Å" d="M823 1257 l-420 -735 l558 0 l-138 735 ZM741 1743 q0 -63 38 -102 q38 -39 106 -39 q82 0 144.5 65 q62.5 65 62.5 148 q0 60 -37.5 97.5 q-37.5 37.5 -102.5 37.5 q-83 0 -147 -62.5 q-64 -62.5 -64 -144.5 ZM104 0 l-167 0 l819 1413 l186 0 l272 -1413 l-155 0 l-72 387 l-661 0 l-222 -387 ZM629 1737 q0 132 99.5 226.5 q99.5 94.5 244.5 94.5 q101 0 166 -67.5 q65 -67.5 65 -169.5 q0 -137 -100 -231.5 q-100 -94.5 -242 -94.5 q-102 0 -167.5 69 q-65.5 69 -65.5 173 Z" /><glyph glyph-name="AE" unicode="Æ" d="M1114 1268 l-577 -707 l536 0 l105 707 l-64 0 ZM-102 0 l1161 1413 l1188 0 l-27 -145 l-887 0 l-69 -465 l741 0 l-29 -137 l-733 0 l-78 -521 l836 0 l-29 -145 l-983 0 l62 420 l-629 0 l-344 -420 l-180 0 Z" /><glyph glyph-name="Ccedilla" unicode="Ç" d="M109 567 q0 168 70 327.5 q70 159.5 188 279.5 q118 120 283.5 193 q165.5 73 346.5 73 q224 0 373 -140 q149 -140 174 -364 l-164 0 q-23 164 -134 258 q-111 94 -277 94 q-137 0 -266.5 -57.5 q-129.5 -57.5 -224.5 -152.5 q-95 -95 -152.5 -224.5 q-57.5 -129.5 -57.5 -267.5 q0 -203 129.5 -332 q129.5 -129 341.5 -129 q172 0 320.5 92.5 q148.5 92.5 236.5 261.5 l166 0 q-112 -238 -289 -365 q-177 -127 -409 -139 l-74 -96 q54 15 90 15 q66 0 113 -36 q47 -36 47 -112 q0 -95 -78 -157 q-78 -62 -203 -62 q-135 0 -225 51 l23 117 q96 -55 200 -55 q67 0 109.5 27 q42.5 27 42.5 67 q0 61 -86 61 q-83 0 -148 -35 l-36 68 l114 147 q-243 20 -393.5 184.5 q-150.5 164.5 -150.5 407.5 Z" /><glyph glyph-name="Egrave" unicode="È" d="M344 1413 l965 0 l-29 -145 l-811 0 l-86 -449 l688 0 l-29 -143 l-688 0 l-102 -531 l811 0 l-29 -145 l-964 0 l274 1413 ZM606 1776 l197 0 l254 -258 l-168 0 l-283 258 Z" /><glyph glyph-name="Eacute" unicode="É" d="M344 1413 l965 0 l-29 -145 l-811 0 l-86 -449 l688 0 l-29 -143 l-688 0 l-102 -531 l811 0 l-29 -145 l-964 0 l274 1413 ZM788 1536 l254 258 l197 0 l-283 -258 l-168 0 Z" /><glyph glyph-name="Ecircumflex" unicode="Ê" d="M344 1413 l965 0 l-29 -145 l-811 0 l-86 -449 l688 0 l-29 -143 l-688 0 l-102 -531 l811 0 l-29 -145 l-964 0 l274 1413 ZM551 1540 l338 307 l153 0 l224 -307 l-138 0 l-167 217 l-252 -217 l-158 0 Z" /><glyph glyph-name="Edieresis" unicode="Ë" d="M344 1413 l965 0 l-29 -145 l-811 0 l-86 -449 l688 0 l-29 -143 l-688 0 l-102 -531 l811 0 l-29 -145 l-964 0 l274 1413 ZM586 1651 q0 43 34.5 76.5 q34.5 33.5 79.5 33.5 q36 0 59 -21 q23 -21 23 -52 q0 -46 -35.5 -80.5 q-35.5 -34.5 -82.5 -34.5 q-34 0 -56 21.5 q-22 21.5 -22 56.5 ZM1081 1649 q0 45 35.5 78.5 q35.5 33.5 83.5 33.5 q34 0 57 -21 q23 -21 23 -52 q0 -45 -36.5 -80 q-36.5 -35 -82.5 -35 q-35 0 -57.5 21 q-22.5 21 -22.5 55 Z" /><glyph glyph-name="Igrave" unicode="Ì" d="M344 1413 l154 0 l-275 -1413 l-153 0 l274 1413 ZM141 1776 l197 0 l254 -258 l-168 0 l-283 258 Z" /><glyph glyph-name="Iacute" unicode="Í" d="M344 1413 l154 0 l-275 -1413 l-153 0 l274 1413 ZM324 1536 l254 258 l196 0 l-282 -258 l-168 0 Z" /><glyph glyph-name="Icircumflex" unicode="Î" d="M344 1413 l154 0 l-275 -1413 l-153 0 l274 1413 ZM86 1540 l338 307 l154 0 l223 -307 l-137 0 l-168 217 l-252 -217 l-158 0 Z" /><glyph glyph-name="Idieresis" unicode="Ï" d="M344 1413 l154 0 l-275 -1413 l-153 0 l274 1413 ZM119 1651 q0 43 34.5 76.5 q34.5 33.5 79.5 33.5 q36 0 59 -21 q23 -21 23 -52 q0 -46 -35.5 -80.5 q-35.5 -34.5 -82.5 -34.5 q-34 0 -56 21.5 q-22 21.5 -22 56.5 ZM614 1649 q0 45 35.5 78.5 q35.5 33.5 83.5 33.5 q34 0 57 -21 q23 -21 23 -52 q0 -45 -36.5 -80 q-36.5 -35 -82.5 -35 q-35 0 -57.5 21 q-22.5 21 -22.5 55 Z" /><glyph glyph-name="Eth" unicode="Ð" d="M410 647 l-99 -504 l289 0 q169 0 313.5 52.5 q144.5 52.5 243.5 142.5 q99 90 155 213 q56 123 56 262 q0 219 -132.5 338 q-132.5 119 -377.5 119 l-326 0 l-94 -477 l514 0 l-28 -146 l-514 0 ZM590 0 l-459 0 l125 647 l-141 0 l28 146 l142 0 l121 620 l483 0 q301 0 470 -158.5 q169 -158.5 169 -435.5 q0 -170 -67.5 -320.5 q-67.5 -150.5 -187.5 -260.5 q-120 -110 -297 -174 q-177 -64 -386 -64 Z" /><glyph glyph-name="Ntilde" unicode="Ñ" d="M1028 0 l-569 1243 l-242 -1243 l-147 0 l274 1413 l199 0 l553 -1200 l233 1200 l148 0 l-275 -1413 l-174 0 ZM645 1567 l25 131 q86 57 188 57 q62 0 114 -21.5 q52 -21.5 98 -43 q46 -21.5 93 -21.5 q95 0 185 70 l-25 -131 q-85 -60 -190 -60 q-59 0 -112 22 q-53 22 -100 44 q-47 22 -92 22 q-91 0 -184 -69 Z" /><glyph glyph-name="Ograve" unicode="Ò" d="M711 -27 q-172 0 -309.5 79 q-137.5 79 -214 217.5 q-76.5 138.5 -76.5 308.5 q0 165 68 322 q68 157 184.5 276 q116.5 119 282.5 191.5 q166 72.5 351 72.5 q260 0 430 -170.5 q170 -170.5 170 -427.5 q0 -167 -67.5 -325 q-67.5 -158 -183.5 -278 q-116 -120 -282.5 -193 q-166.5 -73 -352.5 -73 ZM270 594 q0 -207 124 -338 q124 -131 347 -131 q132 0 260.5 58.5 q128.5 58.5 223.5 153.5 q95 95 154 223 q59 128 59 259 q0 205 -126 337 q-126 132 -345 132 q-134 0 -263 -59 q-129 -59 -223.5 -154.5 q-94.5 -95.5 -152.5 -222.5 q-58 -127 -58 -258 ZM719 1776 l196 0 l254 -258 l-168 0 l-282 258 Z" /><glyph glyph-name="Oacute" unicode="Ó" d="M711 -27 q-172 0 -309.5 79 q-137.5 79 -214 217.5 q-76.5 138.5 -76.5 308.5 q0 165 68 322 q68 157 184.5 276 q116.5 119 282.5 191.5 q166 72.5 351 72.5 q260 0 430 -170.5 q170 -170.5 170 -427.5 q0 -167 -67.5 -325 q-67.5 -158 -183.5 -278 q-116 -120 -282.5 -193 q-166.5 -73 -352.5 -73 ZM270 594 q0 -207 124 -338 q124 -131 347 -131 q132 0 260.5 58.5 q128.5 58.5 223.5 153.5 q95 95 154 223 q59 128 59 259 q0 205 -126 337 q-126 132 -345 132 q-134 0 -263 -59 q-129 -59 -223.5 -154.5 q-94.5 -95.5 -152.5 -222.5 q-58 -127 -58 -258 ZM899 1536 l254 258 l197 0 l-283 -258 l-168 0 Z" /><glyph glyph-name="Ocircumflex" unicode="Ô" d="M270 594 q0 -207 124 -338 q124 -131 347 -131 q132 0 260.5 58.5 q128.5 58.5 223.5 153.5 q95 95 154 223 q59 128 59 259 q0 205 -126 337 q-126 132 -345 132 q-134 0 -263 -59 q-129 -59 -223.5 -154.5 q-94.5 -95.5 -152.5 -222.5 q-58 -127 -58 -258 ZM711 -27 q-172 0 -309.5 79 q-137.5 79 -214 217.5 q-76.5 138.5 -76.5 308.5 q0 165 68 322 q68 157 184.5 276 q116.5 119 282.5 191.5 q166 72.5 351 72.5 q260 0 430 -170.5 q170 -170.5 170 -427.5 q0 -167 -67.5 -325 q-67.5 -158 -183.5 -278 q-116 -120 -282.5 -193 q-166.5 -73 -352.5 -73 ZM821 1540 l-157 0 l337 307 l154 0 l223 -307 l-137 0 l-168 217 l-252 -217 Z" /><glyph glyph-name="Otilde" unicode="Õ" d="M270 594 q0 -207 124 -338 q124 -131 347 -131 q132 0 260.5 58.5 q128.5 58.5 223.5 153.5 q95 95 154 223 q59 128 59 259 q0 205 -126 337 q-126 132 -345 132 q-134 0 -263 -59 q-129 -59 -223.5 -154.5 q-94.5 -95.5 -152.5 -222.5 q-58 -127 -58 -258 ZM711 -27 q-172 0 -309.5 79 q-137.5 79 -214 217.5 q-76.5 138.5 -76.5 308.5 q0 165 68 322 q68 157 184.5 276 q116.5 119 282.5 191.5 q166 72.5 351 72.5 q260 0 430 -170.5 q170 -170.5 170 -427.5 q0 -167 -67.5 -325 q-67.5 -158 -183.5 -278 q-116 -120 -282.5 -193 q-166.5 -73 -352.5 -73 ZM688 1567 l25 131 q86 57 188 57 q62 0 114 -21.5 q52 -21.5 98 -43 q46 -21.5 93 -21.5 q95 0 185 70 l-25 -131 q-85 -60 -190 -60 q-59 0 -112 22 q-53 22 -100 44 q-47 22 -92 22 q-91 0 -184 -69 Z" /><glyph glyph-name="Odieresis" unicode="Ö" d="M711 -27 q-172 0 -309.5 79 q-137.5 79 -214 217.5 q-76.5 138.5 -76.5 308.5 q0 165 68 322 q68 157 184.5 276 q116.5 119 282.5 191.5 q166 72.5 351 72.5 q260 0 430 -170.5 q170 -170.5 170 -427.5 q0 -167 -67.5 -325 q-67.5 -158 -183.5 -278 q-116 -120 -282.5 -193 q-166.5 -73 -352.5 -73 ZM270 594 q0 -207 124 -338 q124 -131 347 -131 q132 0 260.5 58.5 q128.5 58.5 223.5 153.5 q95 95 154 223 q59 128 59 259 q0 205 -126 337 q-126 132 -345 132 q-134 0 -263 -59 q-129 -59 -223.5 -154.5 q-94.5 -95.5 -152.5 -222.5 q-58 -127 -58 -258 ZM696 1651 q0 43 34.5 76.5 q34.5 33.5 80.5 33.5 q36 0 59 -21 q23 -21 23 -52 q0 -46 -36 -80.5 q-36 -34.5 -83 -34.5 q-34 0 -56 21.5 q-22 21.5 -22 56.5 ZM1192 1649 q0 45 35.5 78.5 q35.5 33.5 83.5 33.5 q34 0 57 -21 q23 -21 23 -52 q0 -45 -36.5 -80 q-36.5 -35 -82.5 -35 q-35 0 -57.5 21 q-22.5 21 -22.5 55 Z" /><glyph glyph-name="multiply" unicode="×" d="M768 340 l-221 301 l-350 -309 l-93 104 l361 318 l-227 307 l110 82 l219 -297 l351 307 l94 -102 l-361 -318 l228 -309 l-111 -84 Z" /><glyph glyph-name="Oslash" unicode="Ø" d="M270 594 q0 -178 92 -299 l906 901 q-126 92 -301 92 q-134 0 -263 -59 q-129 -59 -223.5 -154.5 q-94.5 -95.5 -152.5 -222.5 q-58 -127 -58 -258 ZM1352 1108 l-903 -899 q117 -84 292 -84 q132 0 260.5 58.5 q128.5 58.5 223.5 153.5 q95 95 154 223 q59 128 59 259 q0 167 -86 289 ZM1376 1315 l119 121 l102 -101 l-120 -121 q120 -158 120 -372 q0 -167 -67.5 -325 q-67.5 -158 -183.5 -278 q-116 -120 -282.5 -193 q-166.5 -73 -352.5 -73 q-212 0 -367 117 l-131 -129 l-102 96 l131 131 q-131 163 -131 390 q0 165 68 322 q68 157 184.5 276 q116.5 119 282.5 191.5 q166 72.5 351 72.5 q223 0 379 -125 Z" /><glyph glyph-name="Ugrave" unicode="Ù" d="M600 -27 q-115 0 -208.5 45.5 q-93.5 45.5 -156 133 q-62.5 87.5 -82.5 216.5 q-20 129 11 296 l145 749 l156 0 l-148 -756 q-25 -146 -14.5 -247.5 q10.5 -101.5 57.5 -164.5 q47 -63 113 -91.5 q66 -28.5 154 -28.5 q68 0 129.5 16.5 q61.5 16.5 122.5 55.5 q61 39 110 99 q49 60 89 152 q40 92 63 209 l147 756 l154 0 l-148 -760 q-134 -680 -694 -680 ZM600 1776 l197 0 l254 -258 l-168 0 l-283 258 Z" /><glyph glyph-name="Uacute" unicode="Ú" d="M600 -27 q-115 0 -208.5 45.5 q-93.5 45.5 -156 133 q-62.5 87.5 -82.5 216.5 q-20 129 11 296 l145 749 l156 0 l-148 -756 q-25 -146 -14.5 -247.5 q10.5 -101.5 57.5 -164.5 q47 -63 113 -91.5 q66 -28.5 154 -28.5 q68 0 129.5 16.5 q61.5 16.5 122.5 55.5 q61 39 110 99 q49 60 89 152 q40 92 63 209 l147 756 l154 0 l-148 -760 q-134 -680 -694 -680 ZM780 1536 l254 258 l197 0 l-283 -258 l-168 0 Z" /><glyph glyph-name="Ucircumflex" unicode="Û" d="M600 -27 q-115 0 -208.5 45.5 q-93.5 45.5 -156 133 q-62.5 87.5 -82.5 216.5 q-20 129 11 296 l145 749 l156 0 l-148 -756 q-25 -146 -14.5 -247.5 q10.5 -101.5 57.5 -164.5 q47 -63 113 -91.5 q66 -28.5 154 -28.5 q68 0 129.5 16.5 q61.5 16.5 122.5 55.5 q61 39 110 99 q49 60 89 152 q40 92 63 209 l147 756 l154 0 l-148 -760 q-134 -680 -694 -680 ZM545 1540 l338 307 l153 0 l224 -307 l-138 0 l-168 217 l-252 -217 l-157 0 Z" /><glyph glyph-name="Udieresis" unicode="Ü" d="M600 -27 q-115 0 -208.5 45.5 q-93.5 45.5 -156 133 q-62.5 87.5 -82.5 216.5 q-20 129 11 296 l145 749 l156 0 l-148 -756 q-25 -146 -14.5 -247.5 q10.5 -101.5 57.5 -164.5 q47 -63 113 -91.5 q66 -28.5 154 -28.5 q68 0 129.5 16.5 q61.5 16.5 122.5 55.5 q61 39 110 99 q49 60 89 152 q40 92 63 209 l147 756 l154 0 l-148 -760 q-134 -680 -694 -680 ZM578 1651 q0 43 34.5 76.5 q34.5 33.5 79.5 33.5 q36 0 59 -21 q23 -21 23 -52 q0 -46 -36 -80.5 q-36 -34.5 -83 -34.5 q-34 0 -55.5 21.5 q-21.5 21.5 -21.5 56.5 ZM1073 1649 q0 45 35.5 78.5 q35.5 33.5 83.5 33.5 q34 0 57 -21 q23 -21 23 -52 q0 -45 -36.5 -80 q-36.5 -35 -82.5 -35 q-35 0 -57.5 21 q-22.5 21 -22.5 55 Z" /><glyph glyph-name="Yacute" unicode="Ý" d="M465 0 l123 639 l-406 774 l168 0 l336 -641 l569 641 l195 0 l-713 -792 l-119 -621 l-153 0 ZM723 1536 l254 258 l197 0 l-283 -258 l-168 0 Z" /><glyph glyph-name="Thorn" unicode="Þ" d="M424 1055 l-117 -604 l357 0 q172 0 291.5 105.5 q119.5 105.5 119.5 256.5 q0 107 -77.5 174.5 q-77.5 67.5 -217.5 67.5 l-356 0 ZM344 1413 l150 0 l-43 -219 l352 0 q203 0 316.5 -100 q113.5 -100 113.5 -265 q0 -150 -80.5 -269.5 q-80.5 -119.5 -217 -184 q-136.5 -64.5 -300.5 -64.5 l-354 0 l-62 -311 l-149 0 l274 1413 Z" /><glyph glyph-name="germandbls" unicode="ß" d="M604 -25 q-110 0 -233 35 l26 140 q80 -39 226 -39 q168 0 275.5 96 q107.5 96 107.5 242 q0 123 -79 186 q-79 63 -255 63 l-158 0 l23 129 l118 0 q137 0 240.5 102 q103.5 102 103.5 238 q0 105 -65.5 161 q-65.5 56 -165.5 56 q-141 0 -237 -92 q-96 -92 -134 -286 l-194 -1006 l-142 0 l197 1014 q51 259 188 383.5 q137 124.5 345 124.5 q158 0 258 -89.5 q100 -89.5 100 -248.5 q0 -129 -81.5 -237.5 q-81.5 -108.5 -195.5 -162.5 q281 -64 281 -331 q0 -203 -150 -340.5 q-150 -137.5 -399 -137.5 Z" /><glyph glyph-name="agrave" unicode="à" d="M209 444 q0 -143 91.5 -236 q91.5 -93 240.5 -93 q120 0 232 69 q112 69 180.5 182 q68.5 113 68.5 234 q0 144 -87 238 q-87 94 -237 94 q-125 0 -239 -69.5 q-114 -69.5 -182 -182.5 q-68 -113 -68 -236 ZM502 -27 q-190 0 -316.5 132 q-126.5 132 -126.5 335 q0 118 52.5 233 q52.5 115 139 202.5 q86.5 87.5 206.5 141.5 q120 54 248 54 q129 0 226.5 -69 q97.5 -69 139.5 -185 l45 227 l146 0 l-203 -1044 l-146 0 l39 199 q-85 -106 -201.5 -166 q-116.5 -60 -248.5 -60 ZM766 1241 l-205 350 l178 0 l152 -350 l-125 0 Z" /><glyph glyph-name="aacute" unicode="á" d="M209 444 q0 -143 91.5 -236 q91.5 -93 240.5 -93 q120 0 232 69 q112 69 180.5 182 q68.5 113 68.5 234 q0 144 -87 238 q-87 94 -237 94 q-125 0 -239 -69.5 q-114 -69.5 -182 -182.5 q-68 -113 -68 -236 ZM502 -27 q-190 0 -316.5 132 q-126.5 132 -126.5 335 q0 118 52.5 233 q52.5 115 139 202.5 q86.5 87.5 206.5 141.5 q120 54 248 54 q129 0 226.5 -69 q97.5 -69 139.5 -185 l45 227 l146 0 l-203 -1044 l-146 0 l39 199 q-85 -106 -201.5 -166 q-116.5 -60 -248.5 -60 ZM856 1241 l-125 0 l162 350 l178 0 l-215 -350 Z" /><glyph glyph-name="acircumflex" unicode="â" d="M209 444 q0 -143 91.5 -236 q91.5 -93 240.5 -93 q120 0 232 69 q112 69 180.5 182 q68.5 113 68.5 234 q0 144 -87 238 q-87 94 -237 94 q-125 0 -239 -69.5 q-114 -69.5 -182 -182.5 q-68 -113 -68 -236 ZM502 -27 q-190 0 -316.5 132 q-126.5 132 -126.5 335 q0 118 52.5 233 q52.5 115 139 202.5 q86.5 87.5 206.5 141.5 q120 54 248 54 q129 0 226.5 -69 q97.5 -69 139.5 -185 l45 227 l146 0 l-203 -1044 l-146 0 l39 199 q-85 -106 -201.5 -166 q-116.5 -60 -248.5 -60 ZM588 1194 l-154 0 l352 362 l150 0 l211 -362 l-131 0 l-162 266 l-266 -266 Z" /><glyph glyph-name="atilde" unicode="ã" d="M209 444 q0 -143 91.5 -236 q91.5 -93 240.5 -93 q120 0 232 69 q112 69 180.5 182 q68.5 113 68.5 234 q0 144 -87 238 q-87 94 -237 94 q-125 0 -239 -69.5 q-114 -69.5 -182 -182.5 q-68 -113 -68 -236 ZM502 -27 q-190 0 -316.5 132 q-126.5 132 -126.5 335 q0 118 52.5 233 q52.5 115 139 202.5 q86.5 87.5 206.5 141.5 q120 54 248 54 q129 0 226.5 -69 q97.5 -69 139.5 -185 l45 227 l146 0 l-203 -1044 l-146 0 l39 199 q-85 -106 -201.5 -166 q-116.5 -60 -248.5 -60 ZM473 1360 l27 139 q82 57 182 57 q55 0 104.5 -19 q49.5 -19 81 -42 q31.5 -23 76 -42 q44.5 -19 90.5 -19 q72 0 158 63 l-23 -135 q-86 -49 -170 -49 q-53 0 -102.5 19.5 q-49.5 19.5 -82 43 q-32.5 23.5 -78 43 q-45.5 19.5 -91.5 19.5 q-91 0 -172 -78 Z" /><glyph glyph-name="adieresis" unicode="ä" d="M209 444 q0 -143 91.5 -236 q91.5 -93 240.5 -93 q120 0 232 69 q112 69 180.5 182 q68.5 113 68.5 234 q0 144 -87 238 q-87 94 -237 94 q-125 0 -239 -69.5 q-114 -69.5 -182 -182.5 q-68 -113 -68 -236 ZM502 -27 q-190 0 -316.5 132 q-126.5 132 -126.5 335 q0 118 52.5 233 q52.5 115 139 202.5 q86.5 87.5 206.5 141.5 q120 54 248 54 q129 0 226.5 -69 q97.5 -69 139.5 -185 l45 227 l146 0 l-203 -1044 l-146 0 l39 199 q-85 -106 -201.5 -166 q-116.5 -60 -248.5 -60 ZM485 1378 q0 43 35 77 q35 34 80 34 q36 0 59 -21.5 q23 -21.5 23 -52.5 q0 -45 -36 -80 q-36 -35 -83 -35 q-34 0 -56 22 q-22 22 -22 56 ZM981 1376 q0 46 36 79.5 q36 33.5 83 33.5 q34 0 57 -21.5 q23 -21.5 23 -52.5 q0 -44 -36.5 -79.5 q-36.5 -35.5 -82.5 -35.5 q-35 0 -57.5 21.5 q-22.5 21.5 -22.5 54.5 Z" /><glyph glyph-name="aring" unicode="å" d="M209 444 q0 -143 91.5 -236 q91.5 -93 240.5 -93 q120 0 232 69 q112 69 180.5 182 q68.5 113 68.5 234 q0 144 -87 238 q-87 94 -237 94 q-125 0 -239 -69.5 q-114 -69.5 -182 -182.5 q-68 -113 -68 -236 ZM670 1452 q0 -61 40.5 -102 q40.5 -41 102.5 -41 q81 0 146 64.5 q65 64.5 65 144.5 q0 61 -40.5 102 q-40.5 41 -102.5 41 q-79 0 -145 -65.5 q-66 -65.5 -66 -143.5 ZM502 -27 q-190 0 -316.5 132 q-126.5 132 -126.5 335 q0 118 52.5 233 q52.5 115 139 202.5 q86.5 87.5 206.5 141.5 q120 54 248 54 q129 0 226.5 -69 q97.5 -69 139.5 -185 l45 227 l146 0 l-203 -1044 l-146 0 l39 199 q-85 -106 -201.5 -166 q-116.5 -60 -248.5 -60 ZM567 1432 q0 128 102 227.5 q102 99.5 232 99.5 q99 0 162 -63.5 q63 -63.5 63 -159.5 q0 -126 -101 -226 q-101 -100 -230 -100 q-99 0 -163.5 63 q-64.5 63 -64.5 159 Z" /><glyph glyph-name="ae" unicode="æ" d="M207 266 q0 -74 52.5 -118 q52.5 -44 143.5 -44 q89 0 170.5 38.5 q81.5 38.5 144.5 119.5 q63 81 85 191 l10 55 l-268 2 q-158 0 -248 -65.5 q-90 -65.5 -90 -178.5 ZM987 604 l692 0 q5 145 -64 235.5 q-69 90.5 -200 90.5 q-134 0 -254.5 -93.5 q-120.5 -93.5 -173.5 -232.5 ZM367 -27 q-148 0 -231 73.5 q-83 73.5 -83 195.5 q0 165 134 272 q134 107 345 107 l306 0 l6 30 q26 136 -21.5 210.5 q-47.5 74.5 -156.5 74.5 q-96 0 -168.5 -46.5 q-72.5 -46.5 -114.5 -131.5 l-156 0 q54 128 180.5 220.5 q126.5 92.5 286.5 92.5 q119 0 196 -58 q77 -58 99 -165 q91 102 210.5 160.5 q119.5 58.5 246.5 58.5 q134 -1 230.5 -73 q96.5 -72 132 -199.5 q35.5 -127.5 -4.5 -302.5 l-843 2 q-5 -35 -5 -41 q-8 -146 78 -244 q86 -98 226 -98 q104 0 205 60.5 q101 60.5 155 150.5 l143 0 q-83 -161 -226 -255 q-143 -94 -302 -94 q-142 0 -246.5 75.5 q-104.5 75.5 -148.5 199.5 q-83 -135 -206.5 -205 q-123.5 -70 -266.5 -70 Z" /><glyph glyph-name="ccedilla" unicode="ç" d="M51 424 q0 127 51.5 245 q51.5 118 139 207 q87.5 89 213 142 q125.5 53 264.5 53 q170 0 284.5 -108 q114.5 -108 133.5 -275 l-152 0 q-23 112 -96.5 178 q-73.5 66 -198.5 66 q-123 0 -237 -69.5 q-114 -69.5 -183 -183 q-69 -113.5 -69 -235.5 q0 -144 89 -237.5 q89 -93.5 236 -93.5 q254 0 404 233 l155 0 q-87 -175 -229 -271 q-142 -96 -328 -102 l-47 -98 q45 10 80 10 q64 0 107 -38.5 q43 -38.5 43 -108.5 q0 -97 -73.5 -149 q-73.5 -52 -191.5 -52 q-60 0 -116.5 15 q-56.5 15 -91.5 40 l24 119 q27 -24 78.5 -39.5 q51.5 -15.5 108.5 -15.5 q58 0 91 21 q33 21 33 57 q0 57 -73 57 q-71 0 -135 -37 l-15 74 l74 152 q-168 26 -270.5 148 q-102.5 122 -102.5 296 Z" /><glyph glyph-name="egrave" unicode="è" d="M229 598 l744 0 q6 148 -67 242 q-73 94 -218 94 q-146 0 -275 -96.5 q-129 -96.5 -184 -239.5 ZM500 -27 q-197 0 -322 129.5 q-125 129.5 -125 325.5 q0 127 52.5 245 q52.5 118 141 205.5 q88.5 87.5 212.5 140 q124 52.5 260 52.5 q103 0 187 -42 q84 -42 136.5 -119 q52.5 -77 70.5 -185 q18 -108 -11 -240 l-899 0 q-2 -14 -2 -43 q0 -142 89.5 -235.5 q89.5 -93.5 233.5 -93.5 q123 0 224 56 q101 56 167 150 l150 0 q-76 -158 -227 -252 q-151 -94 -338 -94 ZM719 1239 l-205 350 l178 0 l152 -350 l-125 0 Z" /><glyph glyph-name="eacute" unicode="é" d="M229 598 l744 0 q6 148 -67 242 q-73 94 -218 94 q-146 0 -275 -96.5 q-129 -96.5 -184 -239.5 ZM500 -27 q-197 0 -322 129.5 q-125 129.5 -125 325.5 q0 127 52.5 245 q52.5 118 141 205.5 q88.5 87.5 212.5 140 q124 52.5 260 52.5 q103 0 187 -42 q84 -42 136.5 -119 q52.5 -77 70.5 -185 q18 -108 -11 -240 l-899 0 q-2 -14 -2 -43 q0 -142 89.5 -235.5 q89.5 -93.5 233.5 -93.5 q123 0 224 56 q101 56 167 150 l150 0 q-76 -158 -227 -252 q-151 -94 -338 -94 ZM807 1239 l-125 0 l162 350 l178 0 l-215 -350 Z" /><glyph glyph-name="ecircumflex" unicode="ê" d="M229 598 l744 0 q6 148 -67 242 q-73 94 -218 94 q-146 0 -275 -96.5 q-129 -96.5 -184 -239.5 ZM500 -27 q-197 0 -322 129.5 q-125 129.5 -125 325.5 q0 127 52.5 245 q52.5 118 141 205.5 q88.5 87.5 212.5 140 q124 52.5 260 52.5 q103 0 187 -42 q84 -42 136.5 -119 q52.5 -77 70.5 -185 q18 -108 -11 -240 l-899 0 q-2 -14 -2 -43 q0 -142 89.5 -235.5 q89.5 -93.5 233.5 -93.5 q123 0 224 56 q101 56 167 150 l150 0 q-76 -158 -227 -252 q-151 -94 -338 -94 ZM539 1192 l-154 0 l352 362 l150 0 l211 -362 l-131 0 l-162 266 l-266 -266 Z" /><glyph glyph-name="edieresis" unicode="ë" d="M229 598 l744 0 q6 148 -67 242 q-73 94 -218 94 q-146 0 -275 -96.5 q-129 -96.5 -184 -239.5 ZM500 -27 q-197 0 -322 129.5 q-125 129.5 -125 325.5 q0 127 52.5 245 q52.5 118 141 205.5 q88.5 87.5 212.5 140 q124 52.5 260 52.5 q103 0 187 -42 q84 -42 136.5 -119 q52.5 -77 70.5 -185 q18 -108 -11 -240 l-899 0 q-2 -14 -2 -43 q0 -142 89.5 -235.5 q89.5 -93.5 233.5 -93.5 q123 0 224 56 q101 56 167 150 l150 0 q-76 -158 -227 -252 q-151 -94 -338 -94 ZM436 1376 q0 43 35 77 q35 34 80 34 q36 0 59 -21.5 q23 -21.5 23 -52.5 q0 -45 -36 -80 q-36 -35 -83 -35 q-34 0 -56 22 q-22 22 -22 56 ZM932 1374 q0 46 36 79.5 q36 33.5 83 33.5 q34 0 56.5 -21.5 q22.5 -21.5 22.5 -52.5 q0 -44 -36 -79.5 q-36 -35.5 -82 -35.5 q-35 0 -57.5 21.5 q-22.5 21.5 -22.5 54.5 Z" /><glyph glyph-name="igrave" unicode="ì" d="M47 0 l203 1042 l143 0 l-205 -1042 l-141 0 ZM119 1589 l178 0 l152 -350 l-125 0 l-205 350 Z" /><glyph glyph-name="iacute" unicode="í" d="M47 0 l203 1042 l143 0 l-205 -1042 l-141 0 ZM289 1239 l162 350 l178 0 l-215 -350 l-125 0 Z" /><glyph glyph-name="icircumflex" unicode="î" d="M47 0 l203 1042 l143 0 l-205 -1042 l-141 0 ZM-8 1192 l352 362 l150 0 l211 -362 l-132 0 l-161 266 l-267 -266 l-153 0 Z" /><glyph glyph-name="idieresis" unicode="ï" d="M47 0 l203 1042 l143 0 l-205 -1042 l-141 0 ZM43 1376 q0 43 35 77 q35 34 80 34 q36 0 59 -21.5 q23 -21.5 23 -52.5 q0 -45 -36 -80 q-36 -35 -83 -35 q-34 0 -56 22 q-22 22 -22 56 ZM539 1374 q0 46 35.5 79.5 q35.5 33.5 82.5 33.5 q34 0 57 -21.5 q23 -21.5 23 -52.5 q0 -44 -36.5 -79.5 q-36.5 -35.5 -82.5 -35.5 q-35 0 -57 21.5 q-22 21.5 -22 54.5 Z" /><glyph glyph-name="eth" unicode="ð" d="M205 428 q0 -141 83.5 -229 q83.5 -88 237.5 -88 q120 0 230.5 66 q110.5 66 177.5 174.5 q67 108.5 67 226.5 q0 137 -90.5 227 q-90.5 90 -232.5 90 q-120 0 -229.5 -65.5 q-109.5 -65.5 -176.5 -174.5 q-67 -109 -67 -227 ZM506 -27 q-199 0 -328 120.5 q-129 120.5 -129 320.5 q0 115 48 224.5 q48 109.5 131 193.5 q83 84 204 135 q121 51 258 51 q76 0 150.5 -28.5 q74.5 -28.5 141.5 -92.5 q67 -64 101 -154 q15 124 15 185 q0 185 -74 303 l-270 -148 l-41 93 l245 135 q-96 80 -231 80 q-202 0 -346 -93 l29 148 q158 76 342 76 q209 0 340 -140 l233 129 l39 -98 l-209 -113 q88 -148 88 -366 q0 -197 -52 -372 q-52 -175 -145.5 -306 q-93.5 -131 -233 -207 q-139.5 -76 -306.5 -76 Z" /><glyph glyph-name="ntilde" unicode="ñ" d="M272 1044 l144 0 l-37 -188 q75 97 178.5 156 q103.5 59 212.5 59 q70 0 129 -27.5 q59 -27.5 103.5 -87 q44.5 -59.5 57 -152 q12.5 -92.5 -10.5 -222.5 l-113 -582 l-145 0 l108 563 q37 190 -12.5 283.5 q-49.5 93.5 -173.5 93.5 q-124 0 -234 -95 q-110 -95 -155 -276 l-111 -569 l-143 0 l202 1044 ZM395 1358 l27 139 q82 57 182 57 q55 0 104.5 -19 q49.5 -19 81 -42 q31.5 -23 76 -42 q44.5 -19 90.5 -19 q72 0 158 63 l-22 -135 q-86 -49 -170 -49 q-53 0 -102.5 19.5 q-49.5 19.5 -82 43 q-32.5 23.5 -78.5 43 q-46 19.5 -92 19.5 q-91 0 -172 -78 Z" /><glyph glyph-name="ograve" unicode="ò" d="M508 -27 q-201 0 -328 130 q-127 130 -127 329 q0 122 51 238 q51 116 138.5 204.5 q87.5 88.5 213 142.5 q125.5 54 265.5 54 q198 0 325.5 -128.5 q127.5 -128.5 127.5 -324.5 q0 -122 -51.5 -239 q-51.5 -117 -139.5 -206.5 q-88 -89.5 -213 -144.5 q-125 -55 -262 -55 ZM201 438 q0 -142 89.5 -233.5 q89.5 -91.5 241.5 -91.5 q124 0 238 70 q114 70 184 185.5 q70 115.5 70 241.5 q0 139 -91 230.5 q-91 91.5 -243 91.5 q-93 0 -182.5 -41.5 q-89.5 -41.5 -156.5 -108.5 q-67 -67 -108.5 -158 q-41.5 -91 -41.5 -186 ZM487 1589 l179 0 l151 -350 l-125 0 l-205 350 Z" /><glyph glyph-name="oacute" unicode="ó" d="M508 -27 q-201 0 -328 130 q-127 130 -127 329 q0 122 51 238 q51 116 138.5 204.5 q87.5 88.5 213 142.5 q125.5 54 265.5 54 q198 0 325.5 -128.5 q127.5 -128.5 127.5 -324.5 q0 -122 -51.5 -239 q-51.5 -117 -139.5 -206.5 q-88 -89.5 -213 -144.5 q-125 -55 -262 -55 ZM201 438 q0 -142 89.5 -233.5 q89.5 -91.5 241.5 -91.5 q124 0 238 70 q114 70 184 185.5 q70 115.5 70 241.5 q0 139 -91 230.5 q-91 91.5 -243 91.5 q-93 0 -182.5 -41.5 q-89.5 -41.5 -156.5 -108.5 q-67 -67 -108.5 -158 q-41.5 -91 -41.5 -186 ZM657 1239 l162 350 l178 0 l-215 -350 l-125 0 Z" /><glyph glyph-name="ocircumflex" unicode="ô" d="M201 438 q0 -142 89.5 -233.5 q89.5 -91.5 241.5 -91.5 q124 0 238 70 q114 70 184 185.5 q70 115.5 70 241.5 q0 139 -91 230.5 q-91 91.5 -243 91.5 q-93 0 -182.5 -41.5 q-89.5 -41.5 -156.5 -108.5 q-67 -67 -108.5 -158 q-41.5 -91 -41.5 -186 ZM508 -27 q-201 0 -328 130 q-127 130 -127 329 q0 122 51 238 q51 116 138.5 204.5 q87.5 88.5 213 142.5 q125.5 54 265.5 54 q198 0 325.5 -128.5 q127.5 -128.5 127.5 -324.5 q0 -122 -51.5 -239 q-51.5 -117 -139.5 -206.5 q-88 -89.5 -213 -144.5 q-125 -55 -262 -55 ZM512 1192 l-154 0 l353 362 l149 0 l211 -362 l-131 0 l-162 266 l-266 -266 Z" /><glyph glyph-name="otilde" unicode="õ" d="M201 438 q0 -142 89.5 -233.5 q89.5 -91.5 241.5 -91.5 q124 0 238 70 q114 70 184 185.5 q70 115.5 70 241.5 q0 139 -91 230.5 q-91 91.5 -243 91.5 q-93 0 -182.5 -41.5 q-89.5 -41.5 -156.5 -108.5 q-67 -67 -108.5 -158 q-41.5 -91 -41.5 -186 ZM508 -27 q-201 0 -328 130 q-127 130 -127 329 q0 122 51 238 q51 116 138.5 204.5 q87.5 88.5 213 142.5 q125.5 54 265.5 54 q198 0 325.5 -128.5 q127.5 -128.5 127.5 -324.5 q0 -122 -51.5 -239 q-51.5 -117 -139.5 -206.5 q-88 -89.5 -213 -144.5 q-125 -55 -262 -55 ZM399 1358 l27 139 q82 57 182 57 q45 0 85.5 -12.5 q40.5 -12.5 70.5 -30.5 q30 -18 59 -36 q29 -18 64.5 -30.5 q35.5 -12.5 73.5 -12.5 q71 0 157 63 l-22 -135 q-86 -49 -170 -49 q-53 0 -102.5 19.5 q-49.5 19.5 -82 43 q-32.5 23.5 -78.5 43 q-46 19.5 -92 19.5 q-91 0 -172 -78 Z" /><glyph glyph-name="odieresis" unicode="ö" d="M508 -27 q-201 0 -328 130 q-127 130 -127 329 q0 122 51 238 q51 116 138.5 204.5 q87.5 88.5 213 142.5 q125.5 54 265.5 54 q198 0 325.5 -128.5 q127.5 -128.5 127.5 -324.5 q0 -122 -51.5 -239 q-51.5 -117 -139.5 -206.5 q-88 -89.5 -213 -144.5 q-125 -55 -262 -55 ZM201 438 q0 -142 89.5 -233.5 q89.5 -91.5 241.5 -91.5 q124 0 238 70 q114 70 184 185.5 q70 115.5 70 241.5 q0 139 -91 230.5 q-91 91.5 -243 91.5 q-93 0 -182.5 -41.5 q-89.5 -41.5 -156.5 -108.5 q-67 -67 -108.5 -158 q-41.5 -91 -41.5 -186 ZM412 1376 q0 43 34.5 77 q34.5 34 79.5 34 q36 0 59 -21.5 q23 -21.5 23 -52.5 q0 -45 -36 -80 q-36 -35 -83 -35 q-34 0 -55.5 22 q-21.5 22 -21.5 56 ZM907 1374 q0 46 36 79.5 q36 33.5 83 33.5 q34 0 57 -21.5 q23 -21.5 23 -52.5 q0 -44 -36.5 -79.5 q-36.5 -35.5 -82.5 -35.5 q-35 0 -57.5 21.5 q-22.5 21.5 -22.5 54.5 Z" /><glyph glyph-name="divide" unicode="÷" d="M915 678 l-839 0 l26 137 l840 0 l-27 -137 ZM334 367 q0 48 36.5 86.5 q36.5 38.5 92.5 38.5 q39 0 62.5 -25 q23.5 -25 23.5 -64 q0 -51 -36 -89 q-36 -38 -91 -38 q-38 0 -63 27 q-25 27 -25 64 ZM475 1098 q0 48 36.5 86.5 q36.5 38.5 92.5 38.5 q39 0 62.5 -25 q23.5 -25 23.5 -63 q0 -51 -36 -89 q-36 -38 -91 -38 q-38 0 -63 26.5 q-25 26.5 -25 63.5 Z" /><glyph glyph-name="oslash" unicode="ø" d="M276 442 q0 -90 39 -163 l664 591 q-89 66 -209 66 q-124 0 -239 -70 q-115 -70 -185 -185 q-70 -115 -70 -239 ZM1049 797 l-674 -600 q92 -86 235 -86 q123 0 238 70 q115 70 185.5 185.5 q70.5 115.5 70.5 239.5 q0 108 -55 191 ZM586 -27 q-193 0 -320 121 l-127 -112 l-71 84 l129 112 q-66 107 -66 242 q0 124 54.5 243.5 q54.5 119.5 144.5 209 q90 89.5 214 144 q124 54.5 255 54.5 q171 0 291 -96 l114 102 l70 -84 l-109 -96 q86 -116 86 -268 q0 -165 -92 -317 q-92 -152 -246.5 -245.5 q-154.5 -93.5 -326.5 -93.5 Z" /><glyph glyph-name="ugrave" unicode="ù" d="M877 0 l-144 0 l35 178 q-66 -91 -169.5 -148 q-103.5 -57 -205.5 -57 q-71 0 -129.5 28 q-58.5 28 -102 88 q-43.5 60 -55 154 q-11.5 94 12.5 226 l110 575 l144 0 l-109 -561 q-37 -190 13 -283.5 q50 -93.5 172 -93.5 q56 0 113.5 24 q57.5 24 111.5 70.5 q54 46.5 96 124.5 q42 78 61 177 l107 542 l141 0 l-202 -1044 ZM469 1589 l178 0 l152 -350 l-125 0 l-205 350 Z" /><glyph glyph-name="uacute" unicode="ú" d="M877 0 l-144 0 l35 178 q-66 -91 -169.5 -148 q-103.5 -57 -205.5 -57 q-71 0 -129.5 28 q-58.5 28 -102 88 q-43.5 60 -55 154 q-11.5 94 12.5 226 l110 575 l144 0 l-109 -561 q-37 -190 13 -283.5 q50 -93.5 172 -93.5 q56 0 113.5 24 q57.5 24 111.5 70.5 q54 46.5 96 124.5 q42 78 61 177 l107 542 l141 0 l-202 -1044 ZM639 1239 l162 350 l178 0 l-215 -350 l-125 0 Z" /><glyph glyph-name="ucircumflex" unicode="û" d="M877 0 l-144 0 l35 178 q-66 -91 -169.5 -148 q-103.5 -57 -205.5 -57 q-71 0 -129.5 28 q-58.5 28 -102 88 q-43.5 60 -55 154 q-11.5 94 12.5 226 l110 575 l144 0 l-109 -561 q-37 -190 13 -283.5 q50 -93.5 172 -93.5 q56 0 113.5 24 q57.5 24 111.5 70.5 q54 46.5 96 124.5 q42 78 61 177 l107 542 l141 0 l-202 -1044 ZM342 1192 l352 362 l150 0 l211 -362 l-131 0 l-162 266 l-266 -266 l-154 0 Z" /><glyph glyph-name="udieresis" unicode="ü" d="M877 0 l-144 0 l35 178 q-66 -91 -169.5 -148 q-103.5 -57 -205.5 -57 q-71 0 -129.5 28 q-58.5 28 -102 88 q-43.5 60 -55 154 q-11.5 94 12.5 226 l110 575 l144 0 l-109 -561 q-37 -190 13 -283.5 q50 -93.5 172 -93.5 q56 0 113.5 24 q57.5 24 111.5 70.5 q54 46.5 96 124.5 q42 78 61 177 l107 542 l141 0 l-202 -1044 ZM393 1376 q0 43 35 77 q35 34 80 34 q36 0 59 -21.5 q23 -21.5 23 -52.5 q0 -45 -36 -80 q-36 -35 -83 -35 q-34 0 -56 22 q-22 22 -22 56 ZM889 1374 q0 46 36 79.5 q36 33.5 83 33.5 q34 0 56.5 -21.5 q22.5 -21.5 22.5 -52.5 q0 -44 -36 -79.5 q-36 -35.5 -82 -35.5 q-35 0 -57.5 21.5 q-22.5 21.5 -22.5 54.5 Z" /><glyph glyph-name="yacute" unicode="ý" d="M109 -348 l241 391 l-237 1001 l149 0 l195 -833 l514 833 l162 0 l-867 -1392 l-157 0 ZM586 1239 l162 350 l178 0 l-215 -350 l-125 0 Z" /><glyph glyph-name="thorn" unicode="þ" d="M293 444 q0 -141 91 -234 q91 -93 232 -93 q123 0 236 68 q113 68 181.5 179.5 q68.5 111.5 68.5 233.5 q0 140 -92 235 q-92 95 -236 95 q-91 0 -179.5 -41 q-88.5 -41 -154.5 -107.5 q-66 -66.5 -106.5 -155.5 q-40.5 -89 -40.5 -180 ZM131 -348 l-141 0 l358 1843 l141 0 l-131 -670 q89 113 208.5 179.5 q119.5 66.5 246.5 66.5 q192 0 317 -128.5 q125 -128.5 125 -317.5 q0 -122 -55.5 -241.5 q-55.5 -119.5 -145.5 -209.5 q-90 -90 -210.5 -145.5 q-120.5 -55.5 -243.5 -55.5 q-128 0 -222 66.5 q-94 66.5 -136 181.5 l-111 -569 Z" /><glyph glyph-name="ydieresis" unicode="ÿ" d="M109 -348 l241 391 l-237 1001 l149 0 l195 -833 l514 833 l162 0 l-867 -1392 l-157 0 ZM340 1376 q0 43 35 77 q35 34 80 34 q36 0 59 -21.5 q23 -21.5 23 -52.5 q0 -45 -36 -80 q-36 -35 -83 -35 q-34 0 -56 22 q-22 22 -22 56 ZM836 1374 q0 46 35.5 79.5 q35.5 33.5 82.5 33.5 q34 0 57 -21.5 q23 -21.5 23 -52.5 q0 -44 -36.5 -79.5 q-36.5 -35.5 -82.5 -35.5 q-35 0 -57 21.5 q-22 21.5 -22 54.5 Z" /><glyph glyph-name="Amacron" unicode="&#x100;" d="M823 1257 l-420 -735 l558 0 l-138 735 ZM104 0 l-167 0 l819 1413 l186 0 l272 -1413 l-155 0 l-72 387 l-661 0 l-222 -387 ZM1210 1589 l-665 0 l24 125 l666 0 l-25 -125 Z" /><glyph glyph-name="amacron" unicode="&#x101;" d="M209 444 q0 -143 91.5 -236 q91.5 -93 240.5 -93 q120 0 232 69 q112 69 180.5 182 q68.5 113 68.5 234 q0 144 -87 238 q-87 94 -237 94 q-125 0 -239 -69.5 q-114 -69.5 -182 -182.5 q-68 -113 -68 -236 ZM502 -27 q-190 0 -316.5 132 q-126.5 132 -126.5 335 q0 118 52.5 233 q52.5 115 139 202.5 q86.5 87.5 206.5 141.5 q120 54 248 54 q129 0 226.5 -69 q97.5 -69 139.5 -185 l45 227 l146 0 l-203 -1044 l-146 0 l39 199 q-85 -106 -201.5 -166 q-116.5 -60 -248.5 -60 ZM1157 1348 l-665 0 l24 125 l666 0 l-25 -125 Z" /><glyph glyph-name="Abreve" unicode="&#x102;" d="M823 1257 l-420 -735 l558 0 l-138 735 ZM104 0 l-167 0 l819 1413 l186 0 l272 -1413 l-155 0 l-72 387 l-661 0 l-222 -387 ZM604 1884 l123 0 q-18 -87 27 -148 q45 -61 143 -61 q96 0 165 61 q69 61 87 148 l125 0 q-11 -53 -43 -108.5 q-32 -55.5 -81.5 -104 q-49.5 -48.5 -122 -79.5 q-72.5 -31 -153.5 -31 q-66 0 -118.5 20.5 q-52.5 20.5 -83 54 q-30.5 33.5 -50.5 76 q-20 42.5 -21.5 86.5 q-1.5 44 3.5 86 Z" /><glyph glyph-name="abreve" unicode="&#x103;" d="M209 444 q0 -143 91.5 -236 q91.5 -93 240.5 -93 q120 0 232 69 q112 69 180.5 182 q68.5 113 68.5 234 q0 144 -87 238 q-87 94 -237 94 q-125 0 -239 -69.5 q-114 -69.5 -182 -182.5 q-68 -113 -68 -236 ZM502 -27 q-190 0 -316.5 132 q-126.5 132 -126.5 335 q0 118 52.5 233 q52.5 115 139 202.5 q86.5 87.5 206.5 141.5 q120 54 248 54 q129 0 226.5 -69 q97.5 -69 139.5 -185 l45 227 l146 0 l-203 -1044 l-146 0 l39 199 q-85 -106 -201.5 -166 q-116.5 -60 -248.5 -60 ZM537 1587 l131 0 q-19 -101 24 -160 q43 -59 135 -59 q93 0 160 59 q67 59 86 160 l133 0 q-12 -61 -44.5 -118 q-32.5 -57 -82 -104.5 q-49.5 -47.5 -121 -76 q-71.5 -28.5 -151.5 -28.5 q-65 0 -117 19 q-52 19 -83.5 51 q-31.5 32 -52 74 q-20.5 42 -22.5 88.5 q-2 46.5 5 94.5 Z" /><glyph glyph-name="Aogonek" unicode="&#x104;" d="M823 1257 l-420 -735 l558 0 l-138 735 ZM104 0 l-167 0 l819 1413 l186 0 l272 -1413 q-144 -54 -239.5 -124.5 q-95.5 -70.5 -95.5 -135.5 q0 -30 26.5 -48 q26.5 -18 77.5 -18 q85 0 164 27 l-25 -123 q-85 -29 -184 -29 q-89 0 -145 35 q-56 35 -56 109 q0 185 318 334 l-68 360 l-661 0 l-222 -387 Z" /><glyph glyph-name="aogonek" unicode="&#x105;" d="M209 444 q0 -143 91.5 -236 q91.5 -93 240.5 -93 q120 0 232 69 q112 69 180.5 182 q68.5 113 68.5 234 q0 144 -87 238 q-87 94 -237 94 q-125 0 -239 -69.5 q-114 -69.5 -182 -182.5 q-68 -113 -68 -236 ZM502 -27 q-190 0 -316.5 132 q-126.5 132 -126.5 335 q0 118 52.5 233 q52.5 115 139 202.5 q86.5 87.5 206.5 141.5 q120 54 248 54 q129 0 226.5 -69 q97.5 -69 139.5 -185 l45 227 l146 0 l-203 -1044 q-142 -54 -223.5 -128 q-81.5 -74 -81.5 -148 q0 -35 24.5 -53.5 q24.5 -18.5 67.5 -18.5 q82 0 139 26 l-24 -131 q-78 -20 -156 -20 q-84 0 -137.5 40 q-53.5 40 -53.5 118 q0 100 80 190 q80 90 226 160 l32 164 q-85 -106 -201.5 -166 q-116.5 -60 -248.5 -60 Z" /><glyph glyph-name="Cacute" unicode="&#x106;" d="M109 567 q0 168 70 327.5 q70 159.5 188 279.5 q118 120 283.5 193 q165.5 73 346.5 73 q224 0 373 -140 q149 -140 174 -364 l-164 0 q-23 164 -134 258 q-111 94 -277 94 q-137 0 -266.5 -57.5 q-129.5 -57.5 -224.5 -152.5 q-95 -95 -152.5 -224.5 q-57.5 -129.5 -57.5 -267.5 q0 -203 129.5 -332 q129.5 -129 341.5 -129 q172 0 320.5 92.5 q148.5 92.5 236.5 261.5 l166 0 q-118 -251 -309 -378.5 q-191 -127.5 -442 -127.5 q-175 0 -313 77.5 q-138 77.5 -213.5 212.5 q-75.5 135 -75.5 304 ZM903 1536 l254 258 l197 0 l-283 -258 l-168 0 Z" /><glyph glyph-name="cacute" unicode="&#x107;" d="M504 -27 q-199 0 -326 128 q-127 128 -127 323 q0 127 51.5 245 q51.5 118 139 207 q87.5 89 213 142 q125.5 53 264.5 53 q170 0 284.5 -108 q114.5 -108 133.5 -275 l-152 0 q-23 112 -96.5 178 q-73.5 66 -198.5 66 q-123 0 -237 -69.5 q-114 -69.5 -183 -183 q-69 -113.5 -69 -235.5 q0 -144 89 -237.5 q89 -93.5 236 -93.5 q254 0 404 233 l155 0 q-90 -181 -238 -277 q-148 -96 -343 -96 ZM651 1239 l162 350 l178 0 l-215 -350 l-125 0 Z" /><glyph glyph-name="Ccircumflex" unicode="&#x108;" d="M109 567 q0 168 70 327.5 q70 159.5 188 279.5 q118 120 283.5 193 q165.5 73 346.5 73 q224 0 373 -140 q149 -140 174 -364 l-164 0 q-23 164 -134 258 q-111 94 -277 94 q-137 0 -266.5 -57.5 q-129.5 -57.5 -224.5 -152.5 q-95 -95 -152.5 -224.5 q-57.5 -129.5 -57.5 -267.5 q0 -203 129.5 -332 q129.5 -129 341.5 -129 q172 0 320.5 92.5 q148.5 92.5 236.5 261.5 l166 0 q-118 -251 -309 -378.5 q-191 -127.5 -442 -127.5 q-175 0 -313 77.5 q-138 77.5 -213.5 212.5 q-75.5 135 -75.5 304 ZM666 1540 l338 307 l153 0 l223 -307 l-137 0 l-168 217 l-252 -217 l-157 0 Z" /><glyph glyph-name="ccircumflex" unicode="&#x109;" d="M504 -27 q-199 0 -326 128 q-127 128 -127 323 q0 127 51.5 245 q51.5 118 139 207 q87.5 89 213 142 q125.5 53 264.5 53 q170 0 284.5 -108 q114.5 -108 133.5 -275 l-152 0 q-23 112 -96.5 178 q-73.5 66 -198.5 66 q-123 0 -237 -69.5 q-114 -69.5 -183 -183 q-69 -113.5 -69 -235.5 q0 -144 89 -237.5 q89 -93.5 236 -93.5 q254 0 404 233 l155 0 q-90 -181 -238 -277 q-148 -96 -343 -96 ZM354 1192 l353 362 l149 0 l211 -362 l-131 0 l-162 266 l-266 -266 l-154 0 Z" /><glyph glyph-name="Cdotaccent" unicode="&#x10a;" d="M109 567 q0 168 70 327.5 q70 159.5 188 279.5 q118 120 283.5 193 q165.5 73 346.5 73 q224 0 373 -140 q149 -140 174 -364 l-164 0 q-23 164 -134 258 q-111 94 -277 94 q-137 0 -266.5 -57.5 q-129.5 -57.5 -224.5 -152.5 q-95 -95 -152.5 -224.5 q-57.5 -129.5 -57.5 -267.5 q0 -203 129.5 -332 q129.5 -129 341.5 -129 q172 0 320.5 92.5 q148.5 92.5 236.5 261.5 l166 0 q-118 -251 -309 -378.5 q-191 -127.5 -442 -127.5 q-175 0 -313 77.5 q-138 77.5 -213.5 212.5 q-75.5 135 -75.5 304 ZM969 1747 q0 44 35.5 77.5 q35.5 33.5 82.5 33.5 q34 0 56 -21 q22 -21 22 -53 q0 -44 -35.5 -79.5 q-35.5 -35.5 -80.5 -35.5 q-35 0 -57.5 22 q-22.5 22 -22.5 56 Z" /><glyph glyph-name="cdotaccent" unicode="&#x10b;" d="M504 -27 q-199 0 -326 128 q-127 128 -127 323 q0 127 51.5 245 q51.5 118 139 207 q87.5 89 213 142 q125.5 53 264.5 53 q170 0 284.5 -108 q114.5 -108 133.5 -275 l-152 0 q-23 112 -96.5 178 q-73.5 66 -198.5 66 q-123 0 -237 -69.5 q-114 -69.5 -183 -183 q-69 -113.5 -69 -235.5 q0 -144 89 -237.5 q89 -93.5 236 -93.5 q254 0 404 233 l155 0 q-90 -181 -238 -277 q-148 -96 -343 -96 ZM655 1376 q0 44 36 77.5 q36 33.5 83 33.5 q34 0 56 -21 q22 -21 22 -53 q0 -44 -35.5 -79.5 q-35.5 -35.5 -81.5 -35.5 q-35 0 -57.5 22 q-22.5 22 -22.5 56 Z" /><glyph glyph-name="Ccaron" unicode="&#x10c;" d="M109 567 q0 168 70 327.5 q70 159.5 188 279.5 q118 120 283.5 193 q165.5 73 346.5 73 q224 0 373 -140 q149 -140 174 -364 l-164 0 q-23 164 -134 258 q-111 94 -277 94 q-137 0 -266.5 -57.5 q-129.5 -57.5 -224.5 -152.5 q-95 -95 -152.5 -224.5 q-57.5 -129.5 -57.5 -267.5 q0 -203 129.5 -332 q129.5 -129 341.5 -129 q172 0 320.5 92.5 q148.5 92.5 236.5 261.5 l166 0 q-118 -251 -309 -378.5 q-191 -127.5 -442 -127.5 q-175 0 -313 77.5 q-138 77.5 -213.5 212.5 q-75.5 135 -75.5 304 ZM731 1849 l137 0 l168 -217 l252 217 l158 0 l-338 -307 l-154 0 l-223 307 Z" /><glyph glyph-name="ccaron" unicode="&#x10d;" d="M504 -27 q-199 0 -326 128 q-127 128 -127 323 q0 127 51.5 245 q51.5 118 139 207 q87.5 89 213 142 q125.5 53 264.5 53 q170 0 284.5 -108 q114.5 -108 133.5 -275 l-152 0 q-23 112 -96.5 178 q-73.5 66 -198.5 66 q-123 0 -237 -69.5 q-114 -69.5 -183 -183 q-69 -113.5 -69 -235.5 q0 -144 89 -237.5 q89 -93.5 236 -93.5 q254 0 404 233 l155 0 q-90 -181 -238 -277 q-148 -96 -343 -96 ZM408 1544 l131 0 l161 -266 l267 266 l153 0 l-352 -362 l-150 0 l-210 362 Z" /><glyph glyph-name="Dcaron" unicode="&#x10e;" d="M471 1270 l-221 -1127 l289 0 q169 0 313.5 52.5 q144.5 52.5 243.5 142.5 q99 90 155 213 q56 123 56 262 q0 219 -132.5 338 q-132.5 119 -377.5 119 l-326 0 ZM528 0 l-458 0 l274 1413 l483 0 q301 0 470 -158.5 q169 -158.5 169 -435.5 q0 -170 -67.5 -320.5 q-67.5 -150.5 -187.5 -260.5 q-120 -110 -297 -174 q-177 -64 -386 -64 ZM829 1542 l-223 307 l137 0 l168 -217 l252 217 l158 0 l-338 -307 l-154 0 Z" /><glyph glyph-name="dcaron" unicode="&#x10f;" d="M203 444 q0 -143 91.5 -236 q91.5 -93 240.5 -93 q120 0 232 69 q112 69 180.5 182 q68.5 113 68.5 234 q0 144 -87 238 q-87 94 -237 94 q-125 0 -239 -69.5 q-114 -69.5 -182 -182.5 q-68 -113 -68 -236 ZM1055 0 l-146 0 l39 201 q-85 -108 -202 -168 q-117 -60 -250 -60 q-190 0 -316.5 132 q-126.5 132 -126.5 335 q0 118 52 233 q52 115 138.5 202.5 q86.5 87.5 206.5 141.5 q120 54 248 54 q129 0 228 -69.5 q99 -69.5 141 -186.5 l131 680 l145 0 l-288 -1495 ZM1546 1147 l-108 0 l182 502 l139 0 l-213 -502 Z" /><glyph glyph-name="Dcroat" unicode="&#x110;" d="M410 647 l-99 -504 l289 0 q169 0 313.5 52.5 q144.5 52.5 243.5 142.5 q99 90 155 213 q56 123 56 262 q0 219 -132.5 338 q-132.5 119 -377.5 119 l-326 0 l-94 -477 l514 0 l-28 -146 l-514 0 ZM590 0 l-459 0 l125 647 l-141 0 l28 146 l142 0 l121 620 l483 0 q301 0 470 -158.5 q169 -158.5 169 -435.5 q0 -170 -67.5 -320.5 q-67.5 -150.5 -187.5 -260.5 q-120 -110 -297 -174 q-177 -64 -386 -64 Z" /><glyph glyph-name="dcroat" unicode="&#x111;" d="M203 444 q0 -143 91.5 -236 q91.5 -93 240.5 -93 q120 0 232 69 q112 69 180.5 182 q68.5 113 68.5 234 q0 144 -87 238 q-87 94 -237 94 q-125 0 -239 -69.5 q-114 -69.5 -182 -182.5 q-68 -113 -68 -236 ZM1055 0 l-146 0 l39 201 q-85 -108 -202 -168 q-117 -60 -250 -60 q-190 0 -316.5 132 q-126.5 132 -126.5 335 q0 118 52 233 q52 115 138.5 202.5 q86.5 87.5 206.5 141.5 q120 54 248 54 q129 0 228 -69.5 q99 -69.5 141 -186.5 l80 420 l-430 0 l26 125 l428 0 l27 135 l145 0 l-26 -135 l170 0 l-27 -125 l-168 0 l-237 -1235 Z" /><glyph glyph-name="Emacron" unicode="&#x112;" d="M344 1413 l965 0 l-29 -145 l-811 0 l-86 -449 l688 0 l-29 -143 l-688 0 l-102 -531 l811 0 l-29 -145 l-964 0 l274 1413 ZM584 1589 l24 125 l666 0 l-25 -125 l-665 0 Z" /><glyph glyph-name="emacron" unicode="&#x113;" d="M229 598 l744 0 q6 148 -67 242 q-73 94 -218 94 q-146 0 -275 -96.5 q-129 -96.5 -184 -239.5 ZM500 -27 q-197 0 -322 129.5 q-125 129.5 -125 325.5 q0 127 52.5 245 q52.5 118 141 205.5 q88.5 87.5 212.5 140 q124 52.5 260 52.5 q103 0 187 -42 q84 -42 136.5 -119 q52.5 -77 70.5 -185 q18 -108 -11 -240 l-899 0 q-2 -14 -2 -43 q0 -142 89.5 -235.5 q89.5 -93.5 233.5 -93.5 q123 0 224 56 q101 56 167 150 l150 0 q-76 -158 -227 -252 q-151 -94 -338 -94 ZM1108 1346 l-666 0 l25 124 l666 0 l-25 -124 Z" /><glyph glyph-name="Ebreve" unicode="&#x114;" d="M344 1413 l965 0 l-29 -145 l-811 0 l-86 -449 l688 0 l-29 -143 l-688 0 l-102 -531 l811 0 l-29 -145 l-964 0 l274 1413 ZM641 1884 l123 0 q-18 -87 27 -148 q45 -61 143 -61 q96 0 165 61 q69 61 87 148 l125 0 q-11 -53 -43 -108.5 q-32 -55.5 -81.5 -104 q-49.5 -48.5 -122 -79.5 q-72.5 -31 -153.5 -31 q-66 0 -118.5 20.5 q-52.5 20.5 -83 54 q-30.5 33.5 -50.5 76 q-20 42.5 -21.5 86.5 q-1.5 44 3.5 86 Z" /><glyph glyph-name="ebreve" unicode="&#x115;" d="M229 598 l744 0 q6 148 -67 242 q-73 94 -218 94 q-146 0 -275 -96.5 q-129 -96.5 -184 -239.5 ZM500 -27 q-197 0 -322 129.5 q-125 129.5 -125 325.5 q0 127 52.5 245 q52.5 118 141 205.5 q88.5 87.5 212.5 140 q124 52.5 260 52.5 q103 0 187 -42 q84 -42 136.5 -119 q52.5 -77 70.5 -185 q18 -108 -11 -240 l-899 0 q-2 -14 -2 -43 q0 -142 89.5 -235.5 q89.5 -93.5 233.5 -93.5 q123 0 224 56 q101 56 167 150 l150 0 q-76 -158 -227 -252 q-151 -94 -338 -94 ZM487 1585 l131 0 q-19 -101 24.5 -160 q43.5 -59 135.5 -59 q93 0 160 59 q67 59 86 160 l133 0 q-12 -61 -44.5 -118.5 q-32.5 -57.5 -82 -104.5 q-49.5 -47 -121 -76 q-71.5 -29 -151.5 -29 q-65 0 -117 19 q-52 19 -83.5 51 q-31.5 32 -52 74.5 q-20.5 42.5 -23 89 q-2.5 46.5 4.5 94.5 Z" /><glyph glyph-name="Edotaccent" unicode="&#x116;" d="M344 1413 l965 0 l-29 -145 l-811 0 l-86 -449 l688 0 l-29 -143 l-688 0 l-102 -531 l811 0 l-29 -145 l-964 0 l274 1413 ZM852 1747 q0 44 36 77.5 q36 33.5 83 33.5 q34 0 56 -21 q22 -21 22 -53 q0 -44 -35.5 -79.5 q-35.5 -35.5 -81.5 -35.5 q-35 0 -57.5 22 q-22.5 22 -22.5 56 Z" /><glyph glyph-name="edotaccent" unicode="&#x117;" d="M229 598 l744 0 q6 148 -67 242 q-73 94 -218 94 q-146 0 -275 -96.5 q-129 -96.5 -184 -239.5 ZM500 -27 q-197 0 -322 129.5 q-125 129.5 -125 325.5 q0 127 52.5 245 q52.5 118 141 205.5 q88.5 87.5 212.5 140 q124 52.5 260 52.5 q103 0 187 -42 q84 -42 136.5 -119 q52.5 -77 70.5 -185 q18 -108 -11 -240 l-899 0 q-2 -14 -2 -43 q0 -142 89.5 -235.5 q89.5 -93.5 233.5 -93.5 q123 0 224 56 q101 56 167 150 l150 0 q-76 -158 -227 -252 q-151 -94 -338 -94 ZM686 1376 q0 44 36 77.5 q36 33.5 83 33.5 q34 0 56 -21 q22 -21 22 -53 q0 -44 -35.5 -79.5 q-35.5 -35.5 -81.5 -35.5 q-35 0 -57.5 22 q-22.5 22 -22.5 56 Z" /><glyph glyph-name="Eogonek" unicode="&#x118;" d="M344 1413 l965 0 l-29 -145 l-811 0 l-86 -449 l688 0 l-29 -143 l-688 0 l-102 -531 l811 0 l-16 -86 l28 -59 q-145 -54 -240.5 -124.5 q-95.5 -70.5 -95.5 -135.5 q0 -30 27 -48 q27 -18 78 -18 q85 0 164 27 l-25 -123 q-85 -29 -184 -29 q-89 0 -145 35 q-56 35 -56 109 q0 170 264 307 l-792 0 l274 1413 Z" /><glyph glyph-name="eogonek" unicode="&#x119;" d="M229 598 l744 0 q6 148 -67 242 q-73 94 -218 94 q-146 0 -275 -96.5 q-129 -96.5 -184 -239.5 ZM53 428 q0 127 52.5 245 q52.5 118 141 205.5 q88.5 87.5 212.5 140 q124 52.5 260 52.5 q103 0 187 -42 q84 -42 136.5 -119 q52.5 -77 70.5 -185 q18 -108 -11 -240 l-899 0 q-2 -14 -2 -43 q0 -142 89.5 -235.5 q89.5 -93.5 233.5 -93.5 q123 0 224 56 q101 56 167 150 l150 0 q-59 -121 -161.5 -205 q-102.5 -84 -233.5 -118 q-112 -52 -174 -117.5 q-62 -65.5 -62 -130.5 q0 -35 24.5 -53.5 q24.5 -18.5 67.5 -18.5 q81 0 140 27 l-25 -131 q-82 -21 -156 -21 q-84 0 -137 40 q-53 40 -53 118 q0 145 162 266 q-180 13 -292 140.5 q-112 127.5 -112 312.5 Z" /><glyph glyph-name="Ecaron" unicode="&#x11a;" d="M344 1413 l965 0 l-29 -145 l-811 0 l-86 -449 l688 0 l-29 -143 l-688 0 l-102 -531 l811 0 l-29 -145 l-964 0 l274 1413 ZM616 1849 l138 0 l168 -217 l252 217 l157 0 l-338 -307 l-153 0 l-224 307 Z" /><glyph glyph-name="ecaron" unicode="&#x11b;" d="M229 598 l744 0 q6 148 -67 242 q-73 94 -218 94 q-146 0 -275 -96.5 q-129 -96.5 -184 -239.5 ZM500 -27 q-197 0 -322 129.5 q-125 129.5 -125 325.5 q0 127 52.5 245 q52.5 118 141 205.5 q88.5 87.5 212.5 140 q124 52.5 260 52.5 q103 0 187 -42 q84 -42 136.5 -119 q52.5 -77 70.5 -185 q18 -108 -11 -240 l-899 0 q-2 -14 -2 -43 q0 -142 89.5 -235.5 q89.5 -93.5 233.5 -93.5 q123 0 224 56 q101 56 167 150 l150 0 q-76 -158 -227 -252 q-151 -94 -338 -94 ZM649 1182 l-211 362 l131 0 l162 -266 l266 266 l154 0 l-352 -362 l-150 0 Z" /><glyph glyph-name="Gcircumflex" unicode="&#x11c;" d="M721 -27 q-271 0 -440.5 169 q-169.5 169 -169.5 431 q0 175 71 336 q71 161 190 277 q119 116 281 185 q162 69 336 69 q225 0 376.5 -131 q151.5 -131 176.5 -344 l-168 0 q-26 156 -135.5 239.5 q-109.5 83.5 -277.5 83.5 q-136 0 -263.5 -57.5 q-127.5 -57.5 -221 -152.5 q-93.5 -95 -150 -224.5 q-56.5 -129.5 -56.5 -267.5 q0 -203 131 -332 q131 -129 347 -129 q149 0 289 55 q140 55 247 150 l55 284 l-505 0 l26 142 l662 0 l-148 -756 l-141 0 l18 139 q-239 -166 -530 -166 ZM655 1540 l338 307 l154 0 l223 -307 l-137 0 l-168 217 l-252 -217 l-158 0 Z" /><glyph glyph-name="gcircumflex" unicode="&#x11d;" d="M207 485 q0 -130 78.5 -210 q78.5 -80 214.5 -80 q116 0 216 61 q100 61 159 164.5 q59 103.5 59 222.5 q0 132 -78.5 214.5 q-78.5 82.5 -210.5 82.5 q-113 0 -214.5 -62.5 q-101.5 -62.5 -162.5 -168 q-61 -105.5 -61 -224.5 ZM397 -375 q-181 0 -293.5 99.5 q-112.5 99.5 -126.5 250.5 l154 0 q8 -98 82.5 -158.5 q74.5 -60.5 208.5 -60.5 q163 0 277.5 112.5 q114.5 112.5 156.5 330.5 l14 71 q-79 -95 -187 -149.5 q-108 -54.5 -228 -54.5 q-175 -10 -285.5 105 q-110.5 115 -110.5 292 q0 117 44.5 227 q44.5 110 121 193.5 q76.5 83.5 188 134.5 q111.5 51 236.5 51 q119 0 205 -59 q86 -59 127 -162 l39 196 l143 0 l-168 -864 q-53 -270 -204.5 -412.5 q-151.5 -142.5 -393.5 -142.5 ZM528 1192 l-153 0 l352 362 l150 0 l210 -362 l-131 0 l-161 266 l-267 -266 Z" /><glyph glyph-name="Gbreve" unicode="&#x11e;" d="M721 -27 q-271 0 -440.5 169 q-169.5 169 -169.5 431 q0 175 71 336 q71 161 190 277 q119 116 281 185 q162 69 336 69 q225 0 376.5 -131 q151.5 -131 176.5 -344 l-168 0 q-26 156 -135.5 239.5 q-109.5 83.5 -277.5 83.5 q-136 0 -263.5 -57.5 q-127.5 -57.5 -221 -152.5 q-93.5 -95 -150 -224.5 q-56.5 -129.5 -56.5 -267.5 q0 -203 131 -332 q131 -129 347 -129 q149 0 289 55 q140 55 247 150 l55 284 l-505 0 l26 142 l662 0 l-148 -756 l-141 0 l18 139 q-239 -166 -530 -166 ZM745 1884 l123 0 q-18 -87 27 -148 q45 -61 143 -61 q96 0 165 61 q69 61 87 148 l125 0 q-11 -53 -43 -108.5 q-32 -55.5 -81 -104 q-49 -48.5 -121.5 -79.5 q-72.5 -31 -153.5 -31 q-66 0 -118.5 20.5 q-52.5 20.5 -83 54 q-30.5 33.5 -51 76 q-20.5 42.5 -22 86.5 q-1.5 44 3.5 86 Z" /><glyph glyph-name="gbreve" unicode="&#x11f;" d="M207 485 q0 -130 78.5 -210 q78.5 -80 214.5 -80 q116 0 216 61 q100 61 159 164.5 q59 103.5 59 222.5 q0 132 -78.5 214.5 q-78.5 82.5 -210.5 82.5 q-113 0 -214.5 -62.5 q-101.5 -62.5 -162.5 -168 q-61 -105.5 -61 -224.5 ZM397 -375 q-181 0 -293.5 99.5 q-112.5 99.5 -126.5 250.5 l154 0 q8 -98 82.5 -158.5 q74.5 -60.5 208.5 -60.5 q163 0 277.5 112.5 q114.5 112.5 156.5 330.5 l14 71 q-79 -95 -187 -149.5 q-108 -54.5 -228 -54.5 q-175 -10 -285.5 105 q-110.5 115 -110.5 292 q0 117 44.5 227 q44.5 110 121 193.5 q76.5 83.5 188 134.5 q111.5 51 236.5 51 q119 0 205 -59 q86 -59 127 -162 l39 196 l143 0 l-168 -864 q-53 -270 -204.5 -412.5 q-151.5 -142.5 -393.5 -142.5 ZM479 1585 l131 0 q-19 -101 24.5 -160 q43.5 -59 135.5 -59 q93 0 160 59 q67 59 86 160 l133 0 q-12 -61 -44.5 -118.5 q-32.5 -57.5 -82 -104.5 q-49.5 -47 -121 -76 q-71.5 -29 -151.5 -29 q-65 0 -117 19 q-52 19 -83.5 51 q-31.5 32 -52 74.5 q-20.5 42.5 -23 89 q-2.5 46.5 4.5 94.5 Z" /><glyph glyph-name="Gdotaccent" unicode="&#x120;" d="M721 -27 q-271 0 -440.5 169 q-169.5 169 -169.5 431 q0 175 71 336 q71 161 190 277 q119 116 281 185 q162 69 336 69 q225 0 376.5 -131 q151.5 -131 176.5 -344 l-168 0 q-26 156 -135.5 239.5 q-109.5 83.5 -277.5 83.5 q-136 0 -263.5 -57.5 q-127.5 -57.5 -221 -152.5 q-93.5 -95 -150 -224.5 q-56.5 -129.5 -56.5 -267.5 q0 -203 131 -332 q131 -129 347 -129 q149 0 289 55 q140 55 247 150 l55 284 l-505 0 l26 142 l662 0 l-148 -756 l-141 0 l18 139 q-239 -166 -530 -166 ZM956 1747 q0 44 36 77.5 q36 33.5 83 33.5 q34 0 56 -21 q22 -21 22 -53 q0 -44 -35.5 -79.5 q-35.5 -35.5 -81.5 -35.5 q-35 0 -57.5 22 q-22.5 22 -22.5 56 Z" /><glyph glyph-name="gdotaccent" unicode="&#x121;" d="M207 485 q0 -130 78.5 -210 q78.5 -80 214.5 -80 q116 0 216 61 q100 61 159 164.5 q59 103.5 59 222.5 q0 132 -78.5 214.5 q-78.5 82.5 -210.5 82.5 q-113 0 -214.5 -62.5 q-101.5 -62.5 -162.5 -168 q-61 -105.5 -61 -224.5 ZM397 -375 q-181 0 -293.5 99.5 q-112.5 99.5 -126.5 250.5 l154 0 q8 -98 82.5 -158.5 q74.5 -60.5 208.5 -60.5 q163 0 277.5 112.5 q114.5 112.5 156.5 330.5 l14 71 q-79 -95 -187 -149.5 q-108 -54.5 -228 -54.5 q-175 -10 -285.5 105 q-110.5 115 -110.5 292 q0 117 44.5 227 q44.5 110 121 193.5 q76.5 83.5 188 134.5 q111.5 51 236.5 51 q119 0 205 -59 q86 -59 127 -162 l39 196 l143 0 l-168 -864 q-53 -270 -204.5 -412.5 q-151.5 -142.5 -393.5 -142.5 ZM676 1376 q0 44 36 77.5 q36 33.5 83 33.5 q34 0 55.5 -21 q21.5 -21 21.5 -53 q0 -45 -35 -80 q-35 -35 -81 -35 q-35 0 -57.5 22 q-22.5 22 -22.5 56 Z" /><glyph glyph-name="uni0122" unicode="&#x122;" d="M721 -27 q-271 0 -440.5 169 q-169.5 169 -169.5 431 q0 175 71 336 q71 161 190 277 q119 116 281 185 q162 69 336 69 q225 0 376.5 -131 q151.5 -131 176.5 -344 l-168 0 q-26 156 -135.5 239.5 q-109.5 83.5 -277.5 83.5 q-136 0 -263.5 -57.5 q-127.5 -57.5 -221 -152.5 q-93.5 -95 -150 -224.5 q-56.5 -129.5 -56.5 -267.5 q0 -203 131 -332 q131 -129 347 -129 q149 0 289 55 q140 55 247 150 l55 284 l-505 0 l26 142 l662 0 l-148 -756 l-141 0 l18 139 q-239 -166 -530 -166 ZM385 -582 l215 445 l170 0 l-268 -445 l-117 0 Z" /><glyph glyph-name="uni0123" unicode="&#x123;" d="M207 485 q0 -130 78.5 -210 q78.5 -80 214.5 -80 q116 0 216 61 q100 61 159 164.5 q59 103.5 59 222.5 q0 132 -78.5 214.5 q-78.5 82.5 -210.5 82.5 q-113 0 -214.5 -62.5 q-101.5 -62.5 -162.5 -168 q-61 -105.5 -61 -224.5 ZM397 -375 q-181 0 -293.5 99.5 q-112.5 99.5 -126.5 250.5 l154 0 q8 -98 82.5 -158.5 q74.5 -60.5 208.5 -60.5 q163 0 277.5 112.5 q114.5 112.5 156.5 330.5 l14 71 q-79 -95 -187 -149.5 q-108 -54.5 -228 -54.5 q-175 -10 -285.5 105 q-110.5 115 -110.5 292 q0 117 44.5 227 q44.5 110 121 193.5 q76.5 83.5 188 134.5 q111.5 51 236.5 51 q119 0 205 -59 q86 -59 127 -162 l39 196 l143 0 l-168 -864 q-53 -270 -204.5 -412.5 q-151.5 -142.5 -393.5 -142.5 ZM786 1204 l-135 0 l242 383 l100 0 l-207 -383 Z" /><glyph glyph-name="Hcircumflex" unicode="&#x124;" d="M344 1413 l154 0 l-117 -598 l844 0 l116 598 l154 0 l-274 -1413 l-154 0 l131 670 l-844 0 l-131 -670 l-153 0 l274 1413 ZM590 1540 l338 307 l153 0 l224 -307 l-138 0 l-168 217 l-251 -217 l-158 0 Z" /><glyph glyph-name="hcircumflex" unicode="&#x125;" d="M356 1495 l146 0 l-127 -653 q66 103 173 164 q107 61 224 61 q71 0 128.5 -24 q57.5 -24 101.5 -76.5 q44 -52.5 56.5 -136 q12.5 -83.5 -7.5 -203.5 l-123 -627 l-144 0 l119 604 q63 330 -186 330 q-122 0 -230.5 -84.5 q-108.5 -84.5 -158.5 -245.5 l-117 -604 l-145 0 l290 1495 ZM102 1622 l338 307 l154 0 l223 -307 l-137 0 l-168 217 l-252 -217 l-158 0 Z" /><glyph glyph-name="Hbar" unicode="&#x126;" d="M473 1112 l-57 -297 l844 0 l57 297 l-844 0 ZM152 1112 l26 131 l168 0 l33 170 l153 0 l-32 -170 l843 0 l33 170 l154 0 l-33 -170 l170 0 l-25 -131 l-172 0 l-215 -1112 l-153 0 l131 670 l-844 0 l-131 -670 l-154 0 l215 1112 l-167 0 Z" /><glyph glyph-name="hbar" unicode="&#x127;" d="M182 1219 l25 122 l137 0 l31 154 l145 0 l-31 -154 l451 0 l-22 -122 l-451 0 l-74 -377 q66 103 173.5 164 q107.5 61 224.5 61 q71 0 128 -24 q57 -24 101 -76.5 q44 -52.5 56.5 -136 q12.5 -83.5 -7.5 -203.5 l-123 -627 l-143 0 l119 604 q63 330 -187 330 q-122 0 -230.5 -84.5 q-108.5 -84.5 -158.5 -245.5 l-117 -604 l-145 0 l238 1219 l-140 0 Z" /><glyph glyph-name="Itilde" unicode="&#x128;" d="M344 1413 l154 0 l-275 -1413 l-153 0 l274 1413 ZM113 1567 l24 131 q86 57 189 57 q62 0 114 -21.5 q52 -21.5 98 -43 q46 -21.5 93 -21.5 q94 0 184 70 l-24 -131 q-85 -60 -191 -60 q-59 0 -111.5 22 q-52.5 22 -99.5 44 q-47 22 -92 22 q-91 0 -184 -69 Z" /><glyph glyph-name="itilde" unicode="&#x129;" d="M47 0 l203 1042 l143 0 l-205 -1042 l-141 0 ZM31 1358 l26 139 q82 57 183 57 q55 0 104.5 -19 q49.5 -19 81 -42 q31.5 -23 76 -42 q44.5 -19 90.5 -19 q72 0 158 63 l-23 -135 q-86 -49 -170 -49 q-53 0 -102.5 19.5 q-49.5 19.5 -82 43 q-32.5 23.5 -78 43 q-45.5 19.5 -91.5 19.5 q-91 0 -172 -78 Z" /><glyph glyph-name="Imacron" unicode="&#x12a;" d="M344 1413 l154 0 l-275 -1413 l-153 0 l274 1413 ZM119 1589 l24 125 l666 0 l-25 -125 l-665 0 Z" /><glyph glyph-name="imacron" unicode="&#x12b;" d="M47 0 l203 1042 l143 0 l-205 -1042 l-141 0 ZM111 1346 l18 124 l518 0 l-20 -124 l-516 0 Z" /><glyph glyph-name="Ibreve" unicode="&#x12c;" d="M344 1413 l154 0 l-275 -1413 l-153 0 l274 1413 ZM176 1884 l123 0 q-18 -87 27 -148 q45 -61 143 -61 q96 0 165 61 q69 61 87 148 l125 0 q-11 -53 -43 -108.5 q-32 -55.5 -81.5 -104 q-49.5 -48.5 -122 -79.5 q-72.5 -31 -153.5 -31 q-66 0 -118.5 20.5 q-52.5 20.5 -83 54 q-30.5 33.5 -50.5 76 q-20 42.5 -21.5 86.5 q-1.5 44 3.5 86 Z" /><glyph glyph-name="ibreve" unicode="&#x12d;" d="M47 0 l203 1042 l143 0 l-205 -1042 l-141 0 ZM94 1585 l131 0 q-19 -101 24.5 -160 q43.5 -59 135.5 -59 q93 0 160 59 q67 59 86 160 l133 0 q-12 -61 -44.5 -118.5 q-32.5 -57.5 -82 -104.5 q-49.5 -47 -121 -76 q-71.5 -29 -151.5 -29 q-65 0 -117 19 q-52 19 -83.5 51 q-31.5 32 -52 74.5 q-20.5 42.5 -23 89 q-2.5 46.5 4.5 94.5 Z" /><glyph glyph-name="Iogonek" unicode="&#x12e;" d="M344 1413 l154 0 l-275 -1413 l-4 0 q-145 -54 -240.5 -124.5 q-95.5 -70.5 -95.5 -135.5 q0 -30 27 -48 q27 -18 78 -18 q85 0 164 27 l-25 -123 q-85 -29 -184 -29 q-89 0 -145 35 q-56 35 -56 109 q0 55 28.5 107 q28.5 52 78.5 94.5 q50 42.5 105.5 76 q55.5 33.5 121.5 62.5 l268 1380 Z" /><glyph glyph-name="iogonek" unicode="&#x12f;" d="M373 1298 q-35 0 -57.5 22 q-22.5 22 -22.5 56 q0 44 36 77.5 q36 33.5 83 33.5 q34 0 55.5 -21 q21.5 -21 21.5 -53 q0 -45 -35.5 -80 q-35.5 -35 -80.5 -35 ZM-256 -315 q0 102 81 192 q81 90 230 160 l195 1005 l143 0 l-205 -1042 q-142 -54 -223.5 -128 q-81.5 -74 -81.5 -148 q0 -35 24.5 -53.5 q24.5 -18.5 67.5 -18.5 q83 0 140 26 l-25 -131 q-78 -20 -156 -20 q-84 0 -137 40 q-53 40 -53 118 Z" /><glyph glyph-name="Idotaccent" unicode="&#x130;" d="M344 1413 l154 0 l-275 -1413 l-153 0 l274 1413 ZM387 1747 q0 44 36 77.5 q36 33.5 83 33.5 q34 0 56 -21 q22 -21 22 -53 q0 -44 -35.5 -79.5 q-35.5 -35.5 -81.5 -35.5 q-35 0 -57.5 22 q-22.5 22 -22.5 56 Z" /><glyph glyph-name="dotlessi" unicode="&#x131;" d="M47 0 l203 1042 l143 0 l-205 -1042 l-141 0 Z" /><glyph glyph-name="IJ" unicode="&#x132;" d="M700 -27 q-154 0 -297 58 l31 159 q70 -36 131.5 -50.5 q61.5 -14.5 145.5 -14.5 q170 0 270 103 q100 103 143 325 l168 860 l152 0 l-172 -887 q-106 -553 -572 -553 ZM70 0 l274 1413 l154 0 l-275 -1413 l-153 0 Z" /><glyph glyph-name="ij" unicode="&#x133;" d="M70 0 l202 1042 l144 0 l-205 -1042 l-141 0 ZM266 -365 l27 132 q40 -7 61 -7 q89 0 132.5 53 q43.5 53 60.5 150 l211 1081 l141 0 l-209 -1077 q-35 -176 -118 -256 q-83 -80 -232 -80 q-20 0 -74 4 ZM317 1386 q0 42 32.5 76.5 q32.5 34.5 82.5 34.5 q34 0 57 -23.5 q23 -23.5 23 -58.5 q0 -42 -34 -76 q-34 -34 -83 -34 q-36 0 -57 22 q-21 22 -21 59 ZM807 1399 q0 44 35 78 q35 34 78 34 q32 0 54.5 -22.5 q22.5 -22.5 22.5 -54.5 q0 -41 -35.5 -77 q-35.5 -36 -76.5 -36 q-35 0 -56.5 22.5 q-21.5 22.5 -21.5 55.5 Z" /><glyph glyph-name="Jcircumflex" unicode="&#x134;" d="M688 571 l164 842 l154 0 l-168 -862 q-30 -158 -82.5 -270.5 q-52.5 -112.5 -126.5 -179.5 q-74 -67 -162.5 -97.5 q-88.5 -30.5 -200.5 -30.5 q-166 0 -297 64 l31 164 q123 -76 268 -76 q172 0 273.5 106.5 q101.5 106.5 146.5 339.5 ZM606 1540 l338 307 l154 0 l223 -307 l-137 0 l-168 217 l-252 -217 l-158 0 Z" /><glyph glyph-name="jcircumflex" unicode="&#x135;" d="M-195 -233 q40 -7 62 -7 q89 0 132 52.5 q43 52.5 60 150.5 l211 1081 l142 0 l-209 -1077 q-34 -175 -117.5 -255.5 q-83.5 -80.5 -232.5 -80.5 q-20 0 -74 4 l26 132 ZM8 1192 l352 362 l150 0 l211 -362 l-131 0 l-162 266 l-266 -266 l-154 0 Z" /><glyph glyph-name="uni0136" unicode="&#x136;" d="M344 1413 l154 0 l-127 -655 l811 655 l217 0 l-852 -678 l608 -735 l-188 0 l-602 731 l-142 -731 l-153 0 l274 1413 ZM227 -582 l215 445 l170 0 l-268 -445 l-117 0 Z" /><glyph glyph-name="uni0137" unicode="&#x137;" d="M745 0 l-430 547 l-106 -547 l-143 0 l290 1495 l144 0 l-178 -915 l598 464 l200 0 l-631 -489 l431 -555 l-175 0 ZM162 -520 l207 383 l135 0 l-242 -383 l-100 0 Z" /><glyph glyph-name="kgreenlandic" unicode="&#x138;" d="M272 1044 l144 0 l-90 -462 l594 462 l200 0 l-628 -489 l428 -555 l-172 0 l-429 545 l-106 -545 l-143 0 l202 1044 Z" /><glyph glyph-name="Lacute" unicode="&#x139;" d="M70 0 l274 1413 l154 0 l-246 -1268 l801 0 l-29 -145 l-954 0 ZM348 1536 l254 258 l197 0 l-283 -258 l-168 0 Z" /><glyph glyph-name="lacute" unicode="&#x13a;" d="M356 1495 l144 0 l-291 -1495 l-143 0 l290 1495 ZM352 1708 l254 258 l197 0 l-283 -258 l-168 0 Z" /><glyph glyph-name="uni013B" unicode="&#x13b;" d="M70 0 l274 1413 l154 0 l-246 -1268 l801 0 l-29 -145 l-954 0 ZM260 -582 l215 445 l170 0 l-268 -445 l-117 0 Z" /><glyph glyph-name="uni013C" unicode="&#x13c;" d="M356 1495 l144 0 l-291 -1495 l-143 0 l290 1495 ZM-150 -520 l207 383 l136 0 l-242 -383 l-101 0 Z" /><glyph glyph-name="Lcaron" unicode="&#x13d;" d="M70 0 l274 1413 l154 0 l-246 -1268 l801 0 l-29 -145 l-954 0 ZM846 975 l182 502 l139 0 l-213 -502 l-108 0 Z" /><glyph glyph-name="lcaron" unicode="&#x13e;" d="M356 1495 l144 0 l-291 -1495 l-143 0 l290 1495 ZM168 2087 l131 0 l162 -266 l266 266 l154 0 l-353 -363 l-149 0 l-211 363 Z" /><glyph glyph-name="Ldot" unicode="&#x13f;" d="M70 0 l274 1413 l154 0 l-246 -1268 l801 0 l-29 -145 l-954 0 ZM827 846 q0 48 38.5 87.5 q38.5 39.5 95.5 39.5 q39 0 63.5 -25.5 q24.5 -25.5 24.5 -64.5 q0 -53 -37 -91 q-37 -38 -94 -38 q-38 0 -64.5 27 q-26.5 27 -26.5 65 Z" /><glyph glyph-name="ldot" unicode="&#x140;" d="M356 1495 l144 0 l-291 -1495 l-143 0 l290 1495 ZM594 737 q0 49 38 88 q38 39 95 39 q39 0 63.5 -25.5 q24.5 -25.5 24.5 -64.5 q0 -53 -37 -91 q-37 -38 -94 -38 q-38 0 -64 27 q-26 27 -26 65 Z" /><glyph glyph-name="Lslash" unicode="&#x141;" d="M1016 862 l-598 -108 l-119 -609 l801 0 l-29 -145 l-954 0 l141 727 l-246 -45 l25 125 l246 43 l108 563 l154 0 l-105 -534 l602 108 l-26 -125 Z" /><glyph glyph-name="lslash" unicode="&#x142;" d="M635 909 l-219 -90 l-160 -819 l-143 0 l147 756 l-178 -72 l29 147 l178 72 l114 592 l144 0 l-103 -528 l220 88 l-29 -146 Z" /><glyph glyph-name="Nacute" unicode="&#x143;" d="M1028 0 l-569 1243 l-242 -1243 l-147 0 l274 1413 l199 0 l553 -1200 l233 1200 l148 0 l-275 -1413 l-174 0 ZM854 1536 l254 258 l197 0 l-283 -258 l-168 0 Z" /><glyph glyph-name="nacute" unicode="&#x144;" d="M272 1044 l144 0 l-37 -188 q75 97 178.5 156 q103.5 59 212.5 59 q70 0 129 -27.5 q59 -27.5 103.5 -87 q44.5 -59.5 57 -152 q12.5 -92.5 -10.5 -222.5 l-113 -582 l-145 0 l108 563 q37 190 -12.5 283.5 q-49.5 93.5 -173.5 93.5 q-124 0 -234 -95 q-110 -95 -155 -276 l-111 -569 l-143 0 l202 1044 ZM653 1239 l162 350 l178 0 l-215 -350 l-125 0 Z" /><glyph glyph-name="uni0145" unicode="&#x145;" d="M1028 0 l-569 1243 l-242 -1243 l-147 0 l274 1413 l199 0 l553 -1200 l233 1200 l148 0 l-275 -1413 l-174 0 ZM342 -582 l215 445 l170 0 l-268 -445 l-117 0 Z" /><glyph glyph-name="uni0146" unicode="&#x146;" d="M272 1044 l144 0 l-37 -188 q75 97 178.5 156 q103.5 59 212.5 59 q70 0 129 -27.5 q59 -27.5 103.5 -87 q44.5 -59.5 57 -152 q12.5 -92.5 -10.5 -222.5 l-113 -582 l-145 0 l108 563 q37 190 -12.5 283.5 q-49.5 93.5 -173.5 93.5 q-124 0 -234 -95 q-110 -95 -155 -276 l-111 -569 l-143 0 l202 1044 ZM215 -520 l207 383 l135 0 l-242 -383 l-100 0 Z" /><glyph glyph-name="Ncaron" unicode="&#x147;" d="M1028 0 l-569 1243 l-242 -1243 l-147 0 l274 1413 l199 0 l553 -1200 l233 1200 l148 0 l-275 -1413 l-174 0 ZM684 1849 l137 0 l168 -217 l252 217 l158 0 l-338 -307 l-154 0 l-223 307 Z" /><glyph glyph-name="ncaron" unicode="&#x148;" d="M272 1044 l144 0 l-37 -188 q75 97 178.5 156 q103.5 59 212.5 59 q70 0 129 -27.5 q59 -27.5 103.5 -87 q44.5 -59.5 57 -152 q12.5 -92.5 -10.5 -222.5 l-113 -582 l-145 0 l108 563 q37 190 -12.5 283.5 q-49.5 93.5 -173.5 93.5 q-124 0 -234 -95 q-110 -95 -155 -276 l-111 -569 l-143 0 l202 1044 ZM408 1544 l131 0 l161 -266 l267 266 l153 0 l-352 -362 l-150 0 l-210 362 Z" /><glyph glyph-name="Eng" unicode="&#x14a;" d="M459 -160 q95 -61 246 -61 q228 0 342 203 l-594 1220 l-234 -1202 l-149 0 l274 1413 l191 0 l589 -1216 q1 7 4.5 20.5 q3.5 13.5 4.5 20.5 l229 1175 l147 0 l-231 -1198 q-53 -277 -215.5 -427 q-162.5 -150 -394.5 -150 q-139 0 -242 43 l33 159 Z" /><glyph glyph-name="eng" unicode="&#x14b;" d="M672 -328 q-108 0 -197 66 l82 133 q60 -68 148 -68 q83 0 133.5 52.5 q50.5 52.5 74.5 175.5 l121 624 q30 150 -18 215.5 q-48 65.5 -170 65.5 q-131 0 -244 -92 q-113 -92 -158 -269 l-112 -575 l-144 0 l203 1042 l144 0 l-41 -206 q64 106 171 169.5 q107 63.5 214 63.5 q61 0 112.5 -12.5 q51.5 -12.5 96.5 -41 q45 -28.5 70 -74 q25 -45.5 35 -111.5 q10 -66 -9 -154 l-125 -635 q-36 -184 -138 -276.5 q-102 -92.5 -249 -92.5 Z" /><glyph glyph-name="Omacron" unicode="&#x14c;" d="M711 -27 q-172 0 -309.5 79 q-137.5 79 -214 217.5 q-76.5 138.5 -76.5 308.5 q0 165 68 322 q68 157 184.5 276 q116.5 119 282.5 191.5 q166 72.5 351 72.5 q260 0 430 -170.5 q170 -170.5 170 -427.5 q0 -167 -67.5 -325 q-67.5 -158 -183.5 -278 q-116 -120 -282.5 -193 q-166.5 -73 -352.5 -73 ZM270 594 q0 -207 124 -338 q124 -131 347 -131 q132 0 260.5 58.5 q128.5 58.5 223.5 153.5 q95 95 154 223 q59 128 59 259 q0 205 -126 337 q-126 132 -345 132 q-134 0 -263 -59 q-129 -59 -223.5 -154.5 q-94.5 -95.5 -152.5 -222.5 q-58 -127 -58 -258 ZM694 1589 l25 125 l665 0 l-24 -125 l-666 0 Z" /><glyph glyph-name="omacron" unicode="&#x14d;" d="M508 -27 q-201 0 -328 130 q-127 130 -127 329 q0 122 51 238 q51 116 138.5 204.5 q87.5 88.5 213 142.5 q125.5 54 265.5 54 q198 0 325.5 -128.5 q127.5 -128.5 127.5 -324.5 q0 -122 -51.5 -239 q-51.5 -117 -139.5 -206.5 q-88 -89.5 -213 -144.5 q-125 -55 -262 -55 ZM201 438 q0 -142 89.5 -233.5 q89.5 -91.5 241.5 -91.5 q124 0 238 70 q114 70 184 185.5 q70 115.5 70 241.5 q0 139 -91 230.5 q-91 91.5 -243 91.5 q-93 0 -182.5 -41.5 q-89.5 -41.5 -156.5 -108.5 q-67 -67 -108.5 -158 q-41.5 -91 -41.5 -186 ZM416 1346 l24 124 l666 0 l-25 -124 l-665 0 Z" /><glyph glyph-name="Obreve" unicode="&#x14e;" d="M270 594 q0 -207 124 -338 q124 -131 347 -131 q132 0 260.5 58.5 q128.5 58.5 223.5 153.5 q95 95 154 223 q59 128 59 259 q0 205 -126 337 q-126 132 -345 132 q-134 0 -263 -59 q-129 -59 -223.5 -154.5 q-94.5 -95.5 -152.5 -222.5 q-58 -127 -58 -258 ZM711 -27 q-172 0 -309.5 79 q-137.5 79 -214 217.5 q-76.5 138.5 -76.5 308.5 q0 165 68 322 q68 157 184.5 276 q116.5 119 282.5 191.5 q166 72.5 351 72.5 q260 0 430 -170.5 q170 -170.5 170 -427.5 q0 -167 -67.5 -325 q-67.5 -158 -183.5 -278 q-116 -120 -282.5 -193 q-166.5 -73 -352.5 -73 ZM754 1884 l123 0 q-18 -87 27 -148 q45 -61 143 -61 q96 0 164.5 61 q68.5 61 86.5 148 l125 0 q-11 -53 -43 -108.5 q-32 -55.5 -81 -104 q-49 -48.5 -121.5 -79.5 q-72.5 -31 -153.5 -31 q-66 0 -118.5 20.5 q-52.5 20.5 -83 54 q-30.5 33.5 -50.5 76 q-20 42.5 -21.5 86.5 q-1.5 44 3.5 86 Z" /><glyph glyph-name="obreve" unicode="&#x14f;" d="M201 438 q0 -142 89.5 -233.5 q89.5 -91.5 241.5 -91.5 q124 0 238 70 q114 70 184 185.5 q70 115.5 70 241.5 q0 139 -91 230.5 q-91 91.5 -243 91.5 q-93 0 -182.5 -41.5 q-89.5 -41.5 -156.5 -108.5 q-67 -67 -108.5 -158 q-41.5 -91 -41.5 -186 ZM508 -27 q-201 0 -328 130 q-127 130 -127 329 q0 122 51 238 q51 116 138.5 204.5 q87.5 88.5 213 142.5 q125.5 54 265.5 54 q198 0 325.5 -128.5 q127.5 -128.5 127.5 -324.5 q0 -122 -51.5 -239 q-51.5 -117 -139.5 -206.5 q-88 -89.5 -213 -144.5 q-125 -55 -262 -55 ZM463 1585 l131 0 q-19 -101 24.5 -160 q43.5 -59 135.5 -59 q93 0 159.5 59 q66.5 59 85.5 160 l134 0 q-12 -61 -45 -118.5 q-33 -57.5 -82.5 -104.5 q-49.5 -47 -121 -76 q-71.5 -29 -151.5 -29 q-65 0 -117 19 q-52 19 -83.5 51 q-31.5 32 -52 74.5 q-20.5 42.5 -22.5 89 q-2 46.5 5 94.5 Z" /><glyph glyph-name="Ohungarumlaut" unicode="&#x150;" d="M711 -27 q-172 0 -309.5 79 q-137.5 79 -214 217.5 q-76.5 138.5 -76.5 308.5 q0 165 68 322 q68 157 184.5 276 q116.5 119 282.5 191.5 q166 72.5 351 72.5 q260 0 430 -170.5 q170 -170.5 170 -427.5 q0 -167 -67.5 -325 q-67.5 -158 -183.5 -278 q-116 -120 -282.5 -193 q-166.5 -73 -352.5 -73 ZM270 594 q0 -207 124 -338 q124 -131 347 -131 q132 0 260.5 58.5 q128.5 58.5 223.5 153.5 q95 95 154 223 q59 128 59 259 q0 205 -126 337 q-126 132 -345 132 q-134 0 -263 -59 q-129 -59 -223.5 -154.5 q-94.5 -95.5 -152.5 -222.5 q-58 -127 -58 -258 ZM719 1485 l274 272 l178 0 l-307 -272 l-145 0 ZM1094 1485 l307 272 l188 0 l-346 -272 l-149 0 Z" /><glyph glyph-name="ohungarumlaut" unicode="&#x151;" d="M508 -27 q-201 0 -328 130 q-127 130 -127 329 q0 122 51 238 q51 116 138.5 204.5 q87.5 88.5 213 142.5 q125.5 54 265.5 54 q198 0 325.5 -128.5 q127.5 -128.5 127.5 -324.5 q0 -122 -51.5 -239 q-51.5 -117 -139.5 -206.5 q-88 -89.5 -213 -144.5 q-125 -55 -262 -55 ZM201 438 q0 -142 89.5 -233.5 q89.5 -91.5 241.5 -91.5 q124 0 238 70 q114 70 184 185.5 q70 115.5 70 241.5 q0 139 -91 230.5 q-91 91.5 -243 91.5 q-93 0 -182.5 -41.5 q-89.5 -41.5 -156.5 -108.5 q-67 -67 -108.5 -158 q-41.5 -91 -41.5 -186 ZM494 1239 l223 350 l168 0 l-264 -350 l-127 0 ZM834 1239 l282 350 l170 0 l-325 -350 l-127 0 Z" /><glyph glyph-name="OE" unicode="&#x152;" d="M270 586 q0 -201 138.5 -321 q138.5 -120 382.5 -120 l184 0 l217 1123 l-184 0 q-203 0 -372.5 -90 q-169.5 -90 -267.5 -247 q-98 -157 -98 -345 ZM1894 0 l-1144 0 q-180 0 -326 69.5 q-146 69.5 -230.5 199.5 q-84.5 130 -84.5 296 q0 172 68.5 328 q68.5 156 187.5 270.5 q119 114.5 288 182 q169 67.5 361 67.5 l1155 0 l-29 -145 l-794 0 l-89 -455 l672 0 l-26 -135 l-672 0 l-103 -533 l793 0 l-27 -145 Z" /><glyph glyph-name="oe" unicode="&#x153;" d="M201 438 q0 -142 89.5 -233.5 q89.5 -91.5 241.5 -91.5 q124 0 238 70 q114 70 184 185.5 q70 115.5 70 241.5 q0 139 -91 230.5 q-91 91.5 -243 91.5 q-93 0 -182.5 -41.5 q-89.5 -41.5 -156.5 -108.5 q-67 -67 -108.5 -158 q-41.5 -91 -41.5 -186 ZM1188 598 l743 0 q6 148 -66.5 242 q-72.5 94 -217.5 94 q-146 0 -275 -96.5 q-129 -96.5 -184 -239.5 ZM508 -27 q-201 0 -328 130 q-127 130 -127 329 q0 122 51 238 q51 116 138.5 204.5 q87.5 88.5 213 142.5 q125.5 54 265.5 54 q147 0 257.5 -72.5 q110.5 -72.5 160.5 -195.5 q93 123 234 195.5 q141 72.5 304 72.5 q103 0 187 -42 q84 -42 136.5 -119 q52.5 -77 70.5 -185 q18 -108 -11 -240 l-899 0 q-2 -14 -2 -43 q0 -142 90 -235.5 q90 -93.5 234 -93.5 q123 0 224 56 q101 56 167 150 l149 0 q-76 -158 -227 -252 q-151 -94 -338 -94 q-146 0 -256 74.5 q-110 74.5 -158 198.5 q-93 -125 -233 -199 q-140 -74 -303 -74 Z" /><glyph glyph-name="Racute" unicode="&#x154;" d="M469 1268 l-98 -514 l405 0 q146 0 248 89 q102 89 102 212 q0 93 -64.5 153 q-64.5 60 -170.5 60 l-422 0 ZM754 610 l-13 0 l459 -610 l-186 0 l-459 610 l-213 0 l-119 -610 l-153 0 l274 1413 l580 0 q170 0 266 -96 q96 -96 96 -254 q0 -188 -148.5 -320.5 q-148.5 -132.5 -383.5 -132.5 ZM922 1536 l-168 0 l254 258 l196 0 l-282 -258 Z" /><glyph glyph-name="racute" unicode="&#x155;" d="M272 1044 l140 0 l-43 -221 q66 117 172.5 180 q106.5 63 253.5 52 l-31 -148 q-335 28 -440 -356 l-109 -551 l-145 0 l202 1044 ZM502 1239 l162 350 l178 0 l-215 -350 l-125 0 Z" /><glyph glyph-name="uni0156" unicode="&#x156;" d="M469 1268 l-98 -514 l405 0 q146 0 248 89 q102 89 102 212 q0 93 -64.5 153 q-64.5 60 -170.5 60 l-422 0 ZM754 610 l-13 0 l459 -610 l-186 0 l-459 610 l-213 0 l-119 -610 l-153 0 l274 1413 l580 0 q170 0 266 -96 q96 -96 96 -254 q0 -188 -148.5 -320.5 q-148.5 -132.5 -383.5 -132.5 ZM360 -582 l-116 0 l215 445 l170 0 l-269 -445 Z" /><glyph glyph-name="uni0157" unicode="&#x157;" d="M272 1044 l140 0 l-43 -221 q66 117 172.5 180 q106.5 63 253.5 52 l-31 -148 q-335 28 -440 -356 l-109 -551 l-145 0 l202 1044 ZM-139 -520 l207 383 l135 0 l-242 -383 l-100 0 Z" /><glyph glyph-name="Rcaron" unicode="&#x158;" d="M469 1268 l-98 -514 l405 0 q146 0 248 89 q102 89 102 212 q0 93 -64.5 153 q-64.5 60 -170.5 60 l-422 0 ZM754 610 l-13 0 l459 -610 l-186 0 l-459 610 l-213 0 l-119 -610 l-153 0 l274 1413 l580 0 q170 0 266 -96 q96 -96 96 -254 q0 -188 -148.5 -320.5 q-148.5 -132.5 -383.5 -132.5 ZM805 1542 l-223 307 l137 0 l168 -217 l252 217 l157 0 l-338 -307 l-153 0 Z" /><glyph glyph-name="rcaron" unicode="&#x159;" d="M272 1044 l140 0 l-43 -221 q66 117 172.5 180 q106.5 63 253.5 52 l-31 -148 q-335 28 -440 -356 l-109 -551 l-145 0 l202 1044 ZM258 1544 l131 0 l162 -266 l266 266 l154 0 l-353 -362 l-149 0 l-211 362 Z" /><glyph glyph-name="Sacute" unicode="&#x15a;" d="M498 -27 q-196 0 -317.5 121 q-121.5 121 -117.5 324 l154 0 q4 -156 85 -229.5 q81 -73.5 216 -73.5 q147 0 243.5 81.5 q96.5 81.5 96.5 200.5 q0 99 -68 161.5 q-68 62.5 -221 107.5 q-354 102 -354 370 q0 174 132.5 289 q132.5 115 348.5 115 q188 0 298.5 -110.5 q110.5 -110.5 107.5 -301.5 l-156 0 q-3 127 -72.5 198.5 q-69.5 71.5 -197.5 71.5 q-132 0 -219.5 -69 q-87.5 -69 -87.5 -170 q0 -98 74 -155.5 q74 -57.5 225 -100.5 q344 -98 344 -385 q0 -194 -140 -319.5 q-140 -125.5 -374 -125.5 ZM641 1548 l254 258 l197 0 l-283 -258 l-168 0 Z" /><glyph glyph-name="sacute" unicode="&#x15b;" d="M393 -27 q-157 0 -255.5 90.5 q-98.5 90.5 -106.5 239.5 l145 0 q1 -94 62.5 -149.5 q61.5 -55.5 162.5 -55.5 q103 0 170.5 52 q67.5 52 67.5 133 q0 74 -51.5 114.5 q-51.5 40.5 -157.5 73.5 q-287 91 -287 303 q0 127 97 212 q97 85 260 85 q140 0 232.5 -83 q92.5 -83 101.5 -230 l-144 0 q-7 95 -63 141.5 q-56 46.5 -140 46.5 q-91 0 -148.5 -44 q-57.5 -44 -57.5 -114 q0 -66 50.5 -108 q50.5 -42 155.5 -74 q60 -19 105.5 -41.5 q45.5 -22.5 89.5 -57.5 q44 -35 68 -88 q24 -53 24 -120 q0 -145 -101 -235.5 q-101 -90.5 -280 -90.5 ZM537 1239 l161 350 l179 0 l-215 -350 l-125 0 Z" /><glyph glyph-name="Scircumflex" unicode="&#x15c;" d="M498 -27 q-196 0 -317.5 121 q-121.5 121 -117.5 324 l154 0 q4 -156 85 -229.5 q81 -73.5 216 -73.5 q147 0 243.5 81.5 q96.5 81.5 96.5 200.5 q0 99 -68 161.5 q-68 62.5 -221 107.5 q-354 102 -354 370 q0 174 132.5 289 q132.5 115 348.5 115 q188 0 298.5 -110.5 q110.5 -110.5 107.5 -301.5 l-156 0 q-3 127 -72.5 198.5 q-69.5 71.5 -197.5 71.5 q-132 0 -219.5 -69 q-87.5 -69 -87.5 -170 q0 -98 74 -155.5 q74 -57.5 225 -100.5 q344 -98 344 -385 q0 -194 -140 -319.5 q-140 -125.5 -374 -125.5 ZM406 1552 l337 308 l154 0 l223 -308 l-137 0 l-168 217 l-252 -217 l-157 0 Z" /><glyph glyph-name="scircumflex" unicode="&#x15d;" d="M393 -27 q-157 0 -255.5 90.5 q-98.5 90.5 -106.5 239.5 l145 0 q1 -94 62.5 -149.5 q61.5 -55.5 162.5 -55.5 q103 0 170.5 52 q67.5 52 67.5 133 q0 74 -51.5 114.5 q-51.5 40.5 -157.5 73.5 q-287 91 -287 303 q0 127 97 212 q97 85 260 85 q140 0 232.5 -83 q92.5 -83 101.5 -230 l-144 0 q-7 95 -63 141.5 q-56 46.5 -140 46.5 q-91 0 -148.5 -44 q-57.5 -44 -57.5 -114 q0 -66 50.5 -108 q50.5 -42 155.5 -74 q60 -19 105.5 -41.5 q45.5 -22.5 89.5 -57.5 q44 -35 68 -88 q24 -53 24 -120 q0 -145 -101 -235.5 q-101 -90.5 -280 -90.5 ZM238 1192 l352 362 l149 0 l211 -362 l-131 0 l-162 266 l-266 -266 l-153 0 Z" /><glyph glyph-name="Scedilla" unicode="&#x15e;" d="M63 418 l154 0 q4 -156 85 -229.5 q81 -73.5 216 -73.5 q147 0 243.5 81.5 q96.5 81.5 96.5 200.5 q0 99 -68 161.5 q-68 62.5 -221 107.5 q-354 102 -354 370 q0 174 132.5 289 q132.5 115 348.5 115 q188 0 298.5 -110.5 q110.5 -110.5 107.5 -301.5 l-156 0 q-3 127 -72.5 198.5 q-69.5 71.5 -197.5 71.5 q-132 0 -219.5 -69 q-87.5 -69 -87.5 -170 q0 -98 74 -155.5 q74 -57.5 225 -100.5 q344 -98 344 -385 q0 -183 -124 -305.5 q-124 -122.5 -335 -137.5 l-74 -96 q54 15 90 15 q66 0 113 -36 q47 -36 47 -112 q0 -95 -77.5 -157 q-77.5 -62 -202.5 -62 q-136 0 -226 51 l23 117 q96 -55 200 -55 q67 0 109.5 27 q42.5 27 42.5 67 q0 61 -86 61 q-82 0 -147 -35 l-37 68 l114 147 q-175 19 -279 137.5 q-104 118.5 -100 305.5 Z" /><glyph glyph-name="scedilla" unicode="&#x15f;" d="M31 303 l145 0 q1 -94 62.5 -149.5 q61.5 -55.5 162.5 -55.5 q103 0 170.5 52 q67.5 52 67.5 133 q0 74 -51.5 114.5 q-51.5 40.5 -157.5 73.5 q-287 91 -287 303 q0 127 97 212 q97 85 260 85 q140 0 232.5 -83 q92.5 -83 101.5 -230 l-144 0 q-7 95 -63 141.5 q-56 46.5 -140 46.5 q-91 0 -148.5 -44 q-57.5 -44 -57.5 -114 q0 -66 50.5 -108 q50.5 -42 155.5 -74 q60 -19 105.5 -41.5 q45.5 -22.5 89.5 -57.5 q44 -35 68 -88 q24 -53 24 -120 q0 -141 -96 -231.5 q-96 -90.5 -266 -94.5 l-47 -98 q45 10 79 10 q64 0 107 -38.5 q43 -38.5 43 -108.5 q0 -97 -73 -149 q-73 -52 -191 -52 q-60 0 -117 15 q-57 15 -92 40 l24 119 q27 -24 78.5 -39.5 q51.5 -15.5 108.5 -15.5 q58 0 91.5 21 q33.5 21 33.5 57 q0 57 -74 57 q-71 0 -135 -37 l-15 74 l74 154 q-122 23 -196 109 q-74 86 -80 212 Z" /><glyph glyph-name="Scaron" unicode="&#x160;" d="M498 -27 q-196 0 -317.5 121 q-121.5 121 -117.5 324 l154 0 q4 -156 85 -229.5 q81 -73.5 216 -73.5 q147 0 243.5 81.5 q96.5 81.5 96.5 200.5 q0 99 -68 161.5 q-68 62.5 -221 107.5 q-354 102 -354 370 q0 174 132.5 289 q132.5 115 348.5 115 q188 0 298.5 -110.5 q110.5 -110.5 107.5 -301.5 l-156 0 q-3 127 -72.5 198.5 q-69.5 71.5 -197.5 71.5 q-132 0 -219.5 -69 q-87.5 -69 -87.5 -170 q0 -98 74 -155.5 q74 -57.5 225 -100.5 q344 -98 344 -385 q0 -194 -140 -319.5 q-140 -125.5 -374 -125.5 ZM471 1862 l137 0 l168 -217 l252 217 l158 0 l-338 -308 l-154 0 l-223 308 Z" /><glyph glyph-name="scaron" unicode="&#x161;" d="M393 -27 q-157 0 -255.5 90.5 q-98.5 90.5 -106.5 239.5 l145 0 q1 -94 62.5 -149.5 q61.5 -55.5 162.5 -55.5 q103 0 170.5 52 q67.5 52 67.5 133 q0 74 -51.5 114.5 q-51.5 40.5 -157.5 73.5 q-287 91 -287 303 q0 127 97 212 q97 85 260 85 q140 0 232.5 -83 q92.5 -83 101.5 -230 l-144 0 q-7 95 -63 141.5 q-56 46.5 -140 46.5 q-91 0 -148.5 -44 q-57.5 -44 -57.5 -114 q0 -66 50.5 -108 q50.5 -42 155.5 -74 q60 -19 105.5 -41.5 q45.5 -22.5 89.5 -57.5 q44 -35 68 -88 q24 -53 24 -120 q0 -145 -101 -235.5 q-101 -90.5 -280 -90.5 ZM293 1544 l131 0 l162 -266 l266 266 l154 0 l-353 -362 l-149 0 l-211 362 Z" /><glyph glyph-name="uni0162" unicode="&#x162;" d="M1309 1268 l-488 0 l-237 -1235 l28 0 l-118 -154 q54 15 90 15 q66 0 112.5 -36 q46.5 -36 46.5 -112 q0 -95 -77.5 -157 q-77.5 -62 -202.5 -62 q-135 0 -225 51 l22 117 q96 -55 201 -55 q67 0 109 27 q42 27 42 67 q0 61 -86 61 q-82 0 -147 -35 l-37 68 l133 172 l-51 0 l246 1268 l-486 0 l29 145 l1124 0 l-28 -145 Z" /><glyph glyph-name="uni0163" unicode="&#x163;" d="M711 -12 q-117 -15 -205 -6 l-51 -107 q45 10 80 10 q64 0 106.5 -38.5 q42.5 -38.5 42.5 -108.5 q0 -97 -73 -149 q-73 -52 -191 -52 q-60 0 -117 15 q-57 15 -92 40 l25 119 q27 -24 78 -39.5 q51 -15.5 108 -15.5 q58 0 91.5 21 q33.5 21 33.5 57 q0 57 -74 57 q-71 0 -135 -37 l-14 74 l84 172 q-260 82 -189 446 l92 472 l-217 0 l23 126 l219 0 l65 336 l144 0 l-66 -336 l381 0 l-24 -126 l-381 0 l-86 -449 q-13 -67 -16 -116.5 q-3 -49.5 6.5 -97.5 q9.5 -48 36.5 -78 q27 -30 78.5 -48 q51.5 -18 127.5 -18 q58 0 137 12 l-28 -135 Z" /><glyph glyph-name="Tcaron" unicode="&#x164;" d="M1309 1268 l-488 0 l-243 -1268 l-154 0 l246 1268 l-486 0 l29 145 l1124 0 l-28 -145 ZM512 1849 l137 0 l168 -217 l252 217 l158 0 l-338 -307 l-154 0 l-223 307 Z" /><glyph glyph-name="tcaron" unicode="&#x165;" d="M711 -12 q-65 -8 -136 -8 q-448 0 -356 466 l92 472 l-217 0 l23 126 l219 0 l65 336 l144 0 l-66 -336 l381 0 l-24 -126 l-381 0 l-86 -449 q-13 -67 -16 -116.5 q-3 -49.5 6.5 -97.5 q9.5 -48 36.5 -78 q27 -30 78.5 -48 q51.5 -18 127.5 -18 q58 0 137 12 l-28 -135 ZM717 1180 l182 501 l139 0 l-213 -501 l-108 0 Z" /><glyph glyph-name="Tbar" unicode="&#x166;" d="M1309 1268 l-488 0 l-102 -535 l340 0 l-29 -135 l-338 0 l-114 -598 l-154 0 l117 598 l-353 0 l31 135 l348 0 l103 535 l-486 0 l29 145 l1124 0 l-28 -145 Z" /><glyph glyph-name="tbar" unicode="&#x167;" d="M711 -12 q-65 -8 -136 -8 q-448 0 -356 466 l14 70 l-200 0 l24 125 l201 0 l53 277 l-217 0 l23 126 l219 0 l65 336 l144 0 l-66 -336 l381 0 l-24 -126 l-381 0 l-54 -277 l381 0 l-24 -125 l-381 0 l-8 -47 q-13 -67 -16 -116.5 q-3 -49.5 6.5 -97.5 q9.5 -48 36.5 -78 q27 -30 78.5 -48 q51.5 -18 127.5 -18 q58 0 137 12 l-28 -135 Z" /><glyph glyph-name="Utilde" unicode="&#x168;" d="M600 -27 q-115 0 -208.5 45.5 q-93.5 45.5 -156 133 q-62.5 87.5 -82.5 216.5 q-20 129 11 296 l145 749 l156 0 l-148 -756 q-25 -146 -14.5 -247.5 q10.5 -101.5 57.5 -164.5 q47 -63 113 -91.5 q66 -28.5 154 -28.5 q68 0 129.5 16.5 q61.5 16.5 122.5 55.5 q61 39 110 99 q49 60 89 152 q40 92 63 209 l147 756 l154 0 l-148 -760 q-134 -680 -694 -680 ZM571 1567 l25 131 q86 57 188 57 q49 0 93.5 -13.5 q44.5 -13.5 71.5 -29.5 q27 -16 65 -29.5 q38 -13.5 76 -13.5 q94 0 184 70 l-25 -131 q-85 -60 -190 -60 q-59 0 -111.5 22 q-52.5 22 -99.5 44 q-47 22 -92 22 q-92 0 -185 -69 Z" /><glyph glyph-name="utilde" unicode="&#x169;" d="M877 0 l-144 0 l35 178 q-66 -91 -169.5 -148 q-103.5 -57 -205.5 -57 q-71 0 -129.5 28 q-58.5 28 -102 88 q-43.5 60 -55 154 q-11.5 94 12.5 226 l110 575 l144 0 l-109 -561 q-37 -190 13 -283.5 q50 -93.5 172 -93.5 q56 0 113.5 24 q57.5 24 111.5 70.5 q54 46.5 96 124.5 q42 78 61 177 l107 542 l141 0 l-202 -1044 ZM381 1358 l27 139 q82 57 182 57 q55 0 104.5 -19 q49.5 -19 81 -42 q31.5 -23 76 -42 q44.5 -19 90.5 -19 q72 0 158 63 l-23 -135 q-86 -49 -170 -49 q-53 0 -102.5 19.5 q-49.5 19.5 -82 43 q-32.5 23.5 -78 43 q-45.5 19.5 -91.5 19.5 q-91 0 -172 -78 Z" /><glyph glyph-name="Umacron" unicode="&#x16a;" d="M600 -27 q-115 0 -208.5 45.5 q-93.5 45.5 -156 133 q-62.5 87.5 -82.5 216.5 q-20 129 11 296 l145 749 l156 0 l-148 -756 q-25 -146 -14.5 -247.5 q10.5 -101.5 57.5 -164.5 q47 -63 113 -91.5 q66 -28.5 154 -28.5 q68 0 129.5 16.5 q61.5 16.5 122.5 55.5 q61 39 110 99 q49 60 89 152 q40 92 63 209 l147 756 l154 0 l-148 -760 q-134 -680 -694 -680 ZM575 1589 l25 125 l666 0 l-25 -125 l-666 0 Z" /><glyph glyph-name="umacron" unicode="&#x16b;" d="M877 0 l-144 0 l35 178 q-66 -91 -169.5 -148 q-103.5 -57 -205.5 -57 q-71 0 -129.5 28 q-58.5 28 -102 88 q-43.5 60 -55 154 q-11.5 94 12.5 226 l110 575 l144 0 l-109 -561 q-37 -190 13 -283.5 q50 -93.5 172 -93.5 q56 0 113.5 24 q57.5 24 111.5 70.5 q54 46.5 96 124.5 q42 78 61 177 l107 542 l141 0 l-202 -1044 ZM399 1346 l25 124 l666 0 l-25 -124 l-666 0 Z" /><glyph glyph-name="Ubreve" unicode="&#x16c;" d="M600 -27 q-115 0 -208.5 45.5 q-93.5 45.5 -156 133 q-62.5 87.5 -82.5 216.5 q-20 129 11 296 l145 749 l156 0 l-148 -756 q-25 -146 -14.5 -247.5 q10.5 -101.5 57.5 -164.5 q47 -63 113 -91.5 q66 -28.5 154 -28.5 q68 0 129.5 16.5 q61.5 16.5 122.5 55.5 q61 39 110 99 q49 60 89 152 q40 92 63 209 l147 756 l154 0 l-148 -760 q-134 -680 -694 -680 ZM635 1884 l123 0 q-18 -87 27 -148 q45 -61 143 -61 q96 0 165 61 q69 61 87 148 l125 0 q-11 -53 -43 -108.5 q-32 -55.5 -81.5 -104 q-49.5 -48.5 -122 -79.5 q-72.5 -31 -153.5 -31 q-66 0 -118.5 20.5 q-52.5 20.5 -83 54 q-30.5 33.5 -50.5 76 q-20 42.5 -21.5 86.5 q-1.5 44 3.5 86 Z" /><glyph glyph-name="ubreve" unicode="&#x16d;" d="M877 0 l-144 0 l35 178 q-66 -91 -169.5 -148 q-103.5 -57 -205.5 -57 q-71 0 -129.5 28 q-58.5 28 -102 88 q-43.5 60 -55 154 q-11.5 94 12.5 226 l110 575 l144 0 l-109 -561 q-37 -190 13 -283.5 q50 -93.5 172 -93.5 q56 0 113.5 24 q57.5 24 111.5 70.5 q54 46.5 96 124.5 q42 78 61 177 l107 542 l141 0 l-202 -1044 ZM444 1585 l131 0 q-19 -101 24.5 -160 q43.5 -59 135.5 -59 q93 0 160 59 q67 59 86 160 l133 0 q-12 -61 -44.5 -118.5 q-32.5 -57.5 -82 -104.5 q-49.5 -47 -121 -76 q-71.5 -29 -151.5 -29 q-65 0 -117 19 q-52 19 -83.5 51 q-31.5 32 -52 74.5 q-20.5 42.5 -23 89 q-2.5 46.5 4.5 94.5 Z" /><glyph glyph-name="Uring" unicode="&#x16e;" d="M772 1743 q0 -63 38 -102 q38 -39 105 -39 q82 0 144.5 65 q62.5 65 62.5 148 q0 60 -37 97.5 q-37 37.5 -102 37.5 q-83 0 -147 -62.5 q-64 -62.5 -64 -144.5 ZM600 -27 q-115 0 -208.5 45.5 q-93.5 45.5 -156 133 q-62.5 87.5 -82.5 216.5 q-20 129 11 296 l145 749 l156 0 l-148 -756 q-25 -146 -14.5 -247.5 q10.5 -101.5 57.5 -164.5 q47 -63 113 -91.5 q66 -28.5 154 -28.5 q68 0 129.5 16.5 q61.5 16.5 122.5 55.5 q61 39 110 99 q49 60 89 152 q40 92 63 209 l147 756 l154 0 l-148 -760 q-134 -680 -694 -680 ZM659 1737 q0 132 100 226.5 q100 94.5 245 94.5 q101 0 166 -67.5 q65 -67.5 65 -169.5 q0 -137 -100 -231.5 q-100 -94.5 -242 -94.5 q-102 0 -168 69 q-66 69 -66 173 Z" /><glyph glyph-name="uring" unicode="&#x16f;" d="M578 1450 q0 -61 40.5 -102 q40.5 -41 102.5 -41 q81 0 146 64.5 q65 64.5 65 144.5 q0 61 -41 102 q-41 41 -103 41 q-79 0 -144.5 -65.5 q-65.5 -65.5 -65.5 -143.5 ZM1079 1044 l-202 -1044 l-144 0 l35 178 q-66 -91 -169.5 -148 q-103.5 -57 -205.5 -57 q-71 0 -129.5 28 q-58.5 28 -102 88 q-43.5 60 -55 154 q-11.5 94 12.5 226 l110 575 l144 0 l-109 -561 q-37 -190 13 -283.5 q50 -93.5 172 -93.5 q56 0 113.5 24 q57.5 24 111.5 70.5 q54 46.5 96 124.5 q42 78 61 177 l107 542 l141 0 ZM475 1430 q0 128 102 227.5 q102 99.5 232 99.5 q99 0 162 -63.5 q63 -63.5 63 -159.5 q0 -126 -101.5 -226 q-101.5 -100 -230.5 -100 q-99 0 -163 63 q-64 63 -64 159 Z" /><glyph glyph-name="Uhungarumlaut" unicode="&#x170;" d="M600 -27 q-115 0 -208.5 45.5 q-93.5 45.5 -156 133 q-62.5 87.5 -82.5 216.5 q-20 129 11 296 l145 749 l156 0 l-148 -756 q-25 -146 -14.5 -247.5 q10.5 -101.5 57.5 -164.5 q47 -63 113 -91.5 q66 -28.5 154 -28.5 q68 0 129.5 16.5 q61.5 16.5 122.5 55.5 q61 39 110 99 q49 60 89 152 q40 92 63 209 l147 756 l154 0 l-148 -760 q-134 -680 -694 -680 ZM600 1485 l274 272 l179 0 l-308 -272 l-145 0 ZM975 1485 l307 272 l188 0 l-346 -272 l-149 0 Z" /><glyph glyph-name="uhungarumlaut" unicode="&#x171;" d="M877 0 l-144 0 l35 178 q-66 -91 -169.5 -148 q-103.5 -57 -205.5 -57 q-71 0 -129.5 28 q-58.5 28 -102 88 q-43.5 60 -55 154 q-11.5 94 12.5 226 l110 575 l144 0 l-109 -561 q-37 -190 13 -283.5 q50 -93.5 172 -93.5 q56 0 113.5 24 q57.5 24 111.5 70.5 q54 46.5 96 124.5 q42 78 61 177 l107 542 l141 0 l-202 -1044 ZM475 1239 l223 350 l168 0 l-264 -350 l-127 0 ZM815 1239 l283 350 l170 0 l-326 -350 l-127 0 Z" /><glyph glyph-name="Uogonek" unicode="&#x172;" d="M164 664 l145 749 l156 0 l-148 -756 q-25 -146 -14.5 -247.5 q10.5 -101.5 57.5 -164.5 q47 -63 113 -91.5 q66 -28.5 154 -28.5 q68 0 129.5 16.5 q61.5 16.5 122.5 55.5 q61 39 110 99 q49 60 89 152 q40 92 63 209 l147 756 l154 0 l-148 -760 q-117 -593 -559 -669 q-134 -54 -219.5 -120.5 q-85.5 -66.5 -85.5 -127.5 q0 -30 27 -48 q27 -18 78 -18 q84 0 163 27 l-24 -123 q-85 -29 -185 -29 q-89 0 -144.5 35 q-55.5 35 -55.5 109 q0 159 233 291 q-134 20 -226.5 104 q-92.5 84 -131.5 230 q-39 146 0 350 Z" /><glyph glyph-name="uogonek" unicode="&#x173;" d="M877 0 q-142 -54 -224 -128 q-82 -74 -82 -148 q0 -35 25 -53.5 q25 -18.5 68 -18.5 q82 0 139 26 l-25 -131 q-78 -20 -155 -20 q-84 0 -137.5 40 q-53.5 40 -53.5 118 q0 100 79.5 190.5 q79.5 90.5 227.5 161.5 l29 141 q-66 -91 -169.5 -148 q-103.5 -57 -205.5 -57 q-71 0 -129.5 28 q-58.5 28 -102 88 q-43.5 60 -55 154 q-11.5 94 12.5 226 l110 575 l144 0 l-109 -561 q-37 -190 13 -283.5 q50 -93.5 172 -93.5 q56 0 113.5 24 q57.5 24 111.5 70.5 q54 46.5 96 124.5 q42 78 61 177 l107 542 l141 0 l-202 -1044 Z" /><glyph glyph-name="Wcircumflex" unicode="&#x174;" d="M438 0 l-245 1413 l163 0 l197 -1212 l678 1212 l160 0 l206 -1220 l670 1220 l164 0 l-795 -1413 l-157 0 l-209 1210 l-674 -1210 l-158 0 ZM981 1540 l338 307 l154 0 l223 -307 l-137 0 l-168 217 l-252 -217 l-158 0 Z" /><glyph glyph-name="wcircumflex" unicode="&#x175;" d="M338 0 l-205 1044 l148 0 l165 -878 l474 878 l153 0 l141 -866 l496 866 l162 0 l-617 -1044 l-147 0 l-143 852 l-463 -852 l-164 0 ZM670 1192 l352 362 l149 0 l211 -362 l-131 0 l-161 266 l-267 -266 l-153 0 Z" /><glyph glyph-name="Ycircumflex" unicode="&#x176;" d="M465 0 l123 639 l-406 774 l168 0 l336 -641 l569 641 l195 0 l-713 -792 l-119 -621 l-153 0 ZM487 1540 l338 307 l154 0 l223 -307 l-137 0 l-168 217 l-252 -217 l-158 0 Z" /><glyph glyph-name="ycircumflex" unicode="&#x177;" d="M109 -348 l241 391 l-237 1001 l149 0 l195 -833 l514 833 l162 0 l-867 -1392 l-157 0 ZM287 1192 l352 362 l149 0 l211 -362 l-131 0 l-161 266 l-267 -266 l-153 0 Z" /><glyph glyph-name="Ydieresis" unicode="&#x178;" d="M465 0 l123 639 l-406 774 l168 0 l336 -641 l569 641 l195 0 l-713 -792 l-119 -621 l-153 0 ZM520 1651 q0 43 34.5 76.5 q34.5 33.5 80.5 33.5 q36 0 59 -21 q23 -21 23 -52 q0 -46 -36 -80.5 q-36 -34.5 -83 -34.5 q-34 0 -56 21.5 q-22 21.5 -22 56.5 ZM1016 1649 q0 45 35.5 78.5 q35.5 33.5 83.5 33.5 q34 0 56.5 -21 q22.5 -21 22.5 -52 q0 -45 -36 -80 q-36 -35 -82 -35 q-35 0 -57.5 21 q-22.5 21 -22.5 55 Z" /><glyph glyph-name="Zacute" unicode="&#x179;" d="M31 0 l24 133 l1022 1135 l-860 0 l29 145 l1059 0 l-25 -139 l-1018 -1129 l879 0 l-27 -145 l-1083 0 ZM705 1536 l253 258 l197 0 l-283 -258 l-167 0 Z" /><glyph glyph-name="zacute" unicode="&#x17a;" d="M989 928 l-762 -803 l686 0 l-24 -125 l-866 0 l24 115 l760 805 l-651 0 l24 124 l832 0 l-23 -116 ZM604 1239 l162 350 l178 0 l-215 -350 l-125 0 Z" /><glyph glyph-name="Zdotaccent" unicode="&#x17b;" d="M31 0 l24 133 l1022 1135 l-860 0 l29 145 l1059 0 l-25 -139 l-1018 -1129 l879 0 l-27 -145 l-1083 0 ZM770 1747 q0 44 36 77.5 q36 33.5 83 33.5 q34 0 56 -21 q22 -21 22 -53 q0 -44 -35.5 -79.5 q-35.5 -35.5 -81.5 -35.5 q-35 0 -57.5 22 q-22.5 22 -22.5 56 Z" /><glyph glyph-name="zdotaccent" unicode="&#x17c;" d="M989 928 l-762 -803 l686 0 l-24 -125 l-866 0 l24 115 l760 805 l-651 0 l24 124 l832 0 l-23 -116 ZM608 1376 q0 44 36 77.5 q36 33.5 83 33.5 q34 0 56 -21 q22 -21 22 -53 q0 -44 -35.5 -79.5 q-35.5 -35.5 -81.5 -35.5 q-35 0 -57.5 22 q-22.5 22 -22.5 56 Z" /><glyph glyph-name="Zcaron" unicode="&#x17d;" d="M31 0 l24 133 l1022 1135 l-860 0 l29 145 l1059 0 l-25 -139 l-1018 -1129 l879 0 l-27 -145 l-1083 0 ZM535 1849 l137 0 l168 -217 l252 217 l157 0 l-338 -307 l-153 0 l-223 307 Z" /><glyph glyph-name="zcaron" unicode="&#x17e;" d="M989 928 l-762 -803 l686 0 l-24 -125 l-866 0 l24 115 l760 805 l-651 0 l24 124 l832 0 l-23 -116 ZM360 1544 l132 0 l161 -266 l267 266 l153 0 l-352 -362 l-150 0 l-211 362 Z" /><glyph glyph-name="Aringacute" unicode="&#x1fa;" d="M823 1257 l-420 -735 l558 0 l-138 735 ZM870 1421 q94 0 160 66 q66 66 66 158 q0 61 -40 101 q-40 40 -114 40 q-92 0 -157.5 -65 q-65.5 -65 -65.5 -156 q0 -64 40 -104 q40 -40 111 -40 ZM104 0 l-167 0 l786 1356 q-111 62 -111 200 q0 126 101 224 l245 229 l181 0 l-168 -127 q106 -3 169.5 -66.5 q63.5 -63.5 63.5 -164.5 q0 -107 -68.5 -194.5 q-68.5 -87.5 -179.5 -117.5 l258 -1339 l-155 0 l-72 387 l-661 0 l-222 -387 Z" /><glyph glyph-name="aringacute" unicode="&#x1fb;" d="M209 444 q0 -143 91.5 -236 q91.5 -93 240.5 -93 q120 0 232 69 q112 69 180.5 182 q68.5 113 68.5 234 q0 144 -87 238 q-87 94 -237 94 q-125 0 -239 -69.5 q-114 -69.5 -182 -182.5 q-68 -113 -68 -236 ZM657 1452 q0 -61 41 -102 q41 -41 103 -41 q81 0 146 64.5 q65 64.5 65 144.5 q0 61 -41 102 q-41 41 -103 41 q-79 0 -145 -65.5 q-66 -65.5 -66 -143.5 ZM502 -27 q-190 0 -316.5 132 q-126.5 132 -126.5 335 q0 118 52.5 233 q52.5 115 139 202.5 q86.5 87.5 206.5 141.5 q120 54 248 54 q129 0 226.5 -69 q97.5 -69 139.5 -185 l45 227 l146 0 l-203 -1044 l-146 0 l39 199 q-85 -106 -201.5 -166 q-116.5 -60 -248.5 -60 ZM555 1432 q0 118 90 215 l195 247 l141 0 l-127 -137 q12 2 35 2 q99 0 162 -63.5 q63 -63.5 63 -159.5 q0 -126 -101.5 -226 q-101.5 -100 -230.5 -100 q-99 0 -163 63 q-64 63 -64 159 Z" /><glyph glyph-name="AEacute" unicode="&#x1fc;" d="M1114 1268 l-577 -707 l536 0 l105 707 l-64 0 ZM-102 0 l1161 1413 l1188 0 l-27 -145 l-887 0 l-69 -465 l741 0 l-29 -137 l-733 0 l-78 -521 l836 0 l-29 -145 l-983 0 l62 420 l-629 0 l-344 -420 l-180 0 ZM1604 1548 l-168 0 l254 258 l196 0 l-282 -258 Z" /><glyph glyph-name="aeacute" unicode="&#x1fd;" d="M207 266 q0 -74 52.5 -118 q52.5 -44 143.5 -44 q89 0 170.5 38.5 q81.5 38.5 144.5 119.5 q63 81 85 191 l10 55 l-268 2 q-158 0 -248 -65.5 q-90 -65.5 -90 -178.5 ZM987 604 l692 0 q5 145 -64 235.5 q-69 90.5 -200 90.5 q-134 0 -254.5 -93.5 q-120.5 -93.5 -173.5 -232.5 ZM367 -27 q-148 0 -231 73.5 q-83 73.5 -83 195.5 q0 165 134 272 q134 107 345 107 l306 0 l6 30 q26 136 -21.5 210.5 q-47.5 74.5 -156.5 74.5 q-96 0 -168.5 -46.5 q-72.5 -46.5 -114.5 -131.5 l-156 0 q54 128 180.5 220.5 q126.5 92.5 286.5 92.5 q119 0 196 -58 q77 -58 99 -165 q91 102 210.5 160.5 q119.5 58.5 246.5 58.5 q134 -1 230.5 -73 q96.5 -72 132 -199.5 q35.5 -127.5 -4.5 -302.5 l-843 2 q-5 -35 -5 -41 q-8 -146 78 -244 q86 -98 226 -98 q104 0 205 60.5 q101 60.5 155 150.5 l143 0 q-83 -161 -226 -255 q-143 -94 -302 -94 q-142 0 -246.5 75.5 q-104.5 75.5 -148.5 199.5 q-83 -135 -206.5 -205 q-123.5 -70 -266.5 -70 ZM1116 1241 l-125 0 l162 350 l178 0 l-215 -350 Z" /><glyph glyph-name="Oslashacute" unicode="&#x1fe;" d="M270 594 q0 -178 92 -299 l906 901 q-126 92 -301 92 q-134 0 -263 -59 q-129 -59 -223.5 -154.5 q-94.5 -95.5 -152.5 -222.5 q-58 -127 -58 -258 ZM1352 1108 l-903 -899 q117 -84 292 -84 q132 0 260.5 58.5 q128.5 58.5 223.5 153.5 q95 95 154 223 q59 128 59 259 q0 167 -86 289 ZM1376 1315 l119 121 l102 -101 l-120 -121 q120 -158 120 -372 q0 -167 -67.5 -325 q-67.5 -158 -183.5 -278 q-116 -120 -282.5 -193 q-166.5 -73 -352.5 -73 q-212 0 -367 117 l-131 -129 l-102 96 l131 131 q-131 163 -131 390 q0 165 68 322 q68 157 184.5 276 q116.5 119 282.5 191.5 q166 72.5 351 72.5 q223 0 379 -125 ZM1067 1536 l-168 0 l254 258 l197 0 l-283 -258 Z" /><glyph glyph-name="oslashacute" unicode="&#x1ff;" d="M276 442 q0 -90 39 -163 l664 591 q-89 66 -209 66 q-124 0 -239 -70 q-115 -70 -185 -185 q-70 -115 -70 -239 ZM1049 797 l-674 -600 q92 -86 235 -86 q123 0 238 70 q115 70 185.5 185.5 q70.5 115.5 70.5 239.5 q0 108 -55 191 ZM586 -27 q-193 0 -320 121 l-127 -112 l-71 84 l129 112 q-66 107 -66 242 q0 124 54.5 243.5 q54.5 119.5 144.5 209 q90 89.5 214 144 q124 54.5 255 54.5 q171 0 291 -96 l114 102 l70 -84 l-109 -96 q86 -116 86 -268 q0 -165 -92 -317 q-92 -152 -246.5 -245.5 q-154.5 -93.5 -326.5 -93.5 ZM842 1239 l-125 0 l162 350 l178 0 l-215 -350 Z" /><glyph glyph-name="uni0218" unicode="&#x218;" d="M498 -27 q-196 0 -317.5 121 q-121.5 121 -117.5 324 l154 0 q4 -156 85 -229.5 q81 -73.5 216 -73.5 q147 0 243.5 81.5 q96.5 81.5 96.5 200.5 q0 99 -68 161.5 q-68 62.5 -221 107.5 q-354 102 -354 370 q0 174 132.5 289 q132.5 115 348.5 115 q188 0 298.5 -110.5 q110.5 -110.5 107.5 -301.5 l-156 0 q-3 127 -72.5 198.5 q-69.5 71.5 -197.5 71.5 q-132 0 -219.5 -69 q-87.5 -69 -87.5 -170 q0 -98 74 -155.5 q74 -57.5 225 -100.5 q344 -98 344 -385 q0 -194 -140 -319.5 q-140 -125.5 -374 -125.5 ZM156 -582 l215 445 l170 0 l-269 -445 l-116 0 Z" /><glyph glyph-name="uni0219" unicode="&#x219;" d="M393 -27 q-157 0 -255.5 90.5 q-98.5 90.5 -106.5 239.5 l145 0 q1 -94 62.5 -149.5 q61.5 -55.5 162.5 -55.5 q103 0 170.5 52 q67.5 52 67.5 133 q0 74 -51.5 114.5 q-51.5 40.5 -157.5 73.5 q-287 91 -287 303 q0 127 97 212 q97 85 260 85 q140 0 232.5 -83 q92.5 -83 101.5 -230 l-144 0 q-7 95 -63 141.5 q-56 46.5 -140 46.5 q-91 0 -148.5 -44 q-57.5 -44 -57.5 -114 q0 -66 50.5 -108 q50.5 -42 155.5 -74 q60 -19 105.5 -41.5 q45.5 -22.5 89.5 -57.5 q44 -35 68 -88 q24 -53 24 -120 q0 -145 -101 -235.5 q-101 -90.5 -280 -90.5 ZM76 -520 l207 383 l135 0 l-242 -383 l-100 0 Z" /><glyph glyph-name="uni021A" unicode="&#x21a;" d="M1309 1268 l-488 0 l-243 -1268 l-154 0 l246 1268 l-486 0 l29 145 l1124 0 l-28 -145 ZM170 -582 l215 445 l170 0 l-268 -445 l-117 0 Z" /><glyph glyph-name="uni021B" unicode="&#x21b;" d="M711 -12 q-65 -8 -136 -8 q-448 0 -356 466 l92 472 l-217 0 l23 126 l219 0 l65 336 l144 0 l-66 -336 l381 0 l-24 -126 l-381 0 l-86 -449 q-13 -67 -16 -116.5 q-3 -49.5 6.5 -97.5 q9.5 -48 36.5 -78 q27 -30 78.5 -48 q51.5 -18 127.5 -18 q58 0 137 12 l-28 -135 ZM166 -520 l207 383 l135 0 l-242 -383 l-100 0 Z" /><glyph glyph-name="uni0237" unicode="&#x237;" d="M-195 -233 q40 -7 62 -7 q89 0 132 52.5 q43 52.5 60 150.5 l211 1081 l142 0 l-209 -1077 q-34 -175 -117.5 -255.5 q-83.5 -80.5 -232.5 -80.5 q-20 0 -74 4 l26 132 Z" /><glyph glyph-name="gravecomb" unicode="&#x300;" d="M248 1589 l178 0 l152 -350 l-125 0 l-205 350 Z" /><glyph glyph-name="acutecomb" unicode="&#x301;" d="M600 1589 l-215 -350 l-125 0 l162 350 l178 0 Z" /><glyph glyph-name="uni0302" unicode="&#x302;" d="M205 1192 l352 362 l150 0 l211 -362 l-132 0 l-161 266 l-267 -266 l-153 0 Z" /><glyph glyph-name="tildecomb" unicode="&#x303;" d="M655 1311 q-53 0 -102.5 19.5 q-49.5 19.5 -82 43 q-32.5 23.5 -78 43 q-45.5 19.5 -91.5 19.5 q-91 0 -172 -78 l27 139 q82 57 182 57 q55 0 104.5 -19 q49.5 -19 81 -42 q31.5 -23 76 -42 q44.5 -19 90.5 -19 q72 0 158 63 l-23 -135 q-86 -49 -170 -49 Z" /><glyph glyph-name="uni0304" unicode="&#x304;" d="M752 1346 l-666 0 l25 124 l665 0 l-24 -124 Z" /><glyph glyph-name="uni0306" unicode="&#x306;" d="M371 1257 q-65 0 -117 19 q-52 19 -83.5 51 q-31.5 32 -52 74.5 q-20.5 42.5 -23 89 q-2.5 46.5 4.5 94.5 l131 0 q-19 -101 24.5 -160 q43.5 -59 135.5 -59 q93 0 160 59 q67 59 86 160 l133 0 q-12 -61 -44.5 -118.5 q-32.5 -57.5 -82 -104.5 q-49.5 -47 -121 -76 q-71.5 -29 -151.5 -29 Z" /><glyph glyph-name="uni0307" unicode="&#x307;" d="M180 1298 q-35 0 -57.5 22 q-22.5 22 -22.5 56 q0 44 36 77.5 q36 33.5 83 33.5 q34 0 56 -21 q22 -21 22 -53 q0 -44 -35.5 -79.5 q-35.5 -35.5 -81.5 -35.5 Z" /><glyph glyph-name="uni0308" unicode="&#x308;" d="M193 1298 q-34 0 -56 22 q-22 22 -22 56 q0 43 34.5 77 q34.5 34 79.5 34 q36 0 59 -21.5 q23 -21.5 23 -52.5 q0 -45 -35.5 -80 q-35.5 -35 -82.5 -35 ZM610 1374 q0 46 36 79.5 q36 33.5 83 33.5 q34 0 57 -21.5 q23 -21.5 23 -52.5 q0 -44 -36.5 -79.5 q-36.5 -35.5 -82.5 -35.5 q-35 0 -57.5 21.5 q-22.5 21.5 -22.5 54.5 Z" /><glyph glyph-name="uni030A" unicode="&#x30a;" d="M389 1210 q-99 0 -163 63 q-64 63 -64 159 q0 128 102 227.5 q102 99.5 232 99.5 q99 0 162 -63.5 q63 -63.5 63 -159.5 q0 -126 -101.5 -226 q-101.5 -100 -230.5 -100 ZM264 1452 q0 -61 41 -102 q41 -41 103 -41 q81 0 145.5 64.5 q64.5 64.5 64.5 144.5 q0 61 -40.5 102 q-40.5 41 -102.5 41 q-79 0 -145 -65.5 q-66 -65.5 -66 -143.5 Z" /><glyph glyph-name="uni030B" unicode="&#x30b;" d="M469 1589 l-264 -350 l-127 0 l223 350 l168 0 ZM418 1239 l282 350 l170 0 l-325 -350 l-127 0 Z" /><glyph glyph-name="uni030C" unicode="&#x30c;" d="M971 1544 l-353 -362 l-149 0 l-211 362 l131 0 l162 -266 l266 266 l154 0 Z" /><glyph glyph-name="uni0312" unicode="&#x312;" d="M328 1204 l-135 0 l241 383 l101 0 l-207 -383 Z" /><glyph glyph-name="uni0326" unicode="&#x326;" d="M317 -137 l136 0 l-242 -383 l-100 0 l206 383 Z" /><glyph glyph-name="uni0327" unicode="&#x327;" d="M166 33 l108 0 l-75 -158 q45 10 80 10 q64 0 106.5 -38.5 q42.5 -38.5 42.5 -108.5 q0 -97 -73 -149 q-73 -52 -191 -52 q-60 0 -117 15 q-57 15 -92 40 l25 119 q27 -24 78 -39.5 q51 -15.5 108 -15.5 q58 0 91.5 21 q33.5 21 33.5 57 q0 57 -74 57 q-71 0 -135 -37 l-14 74 l98 205 Z" /><glyph glyph-name="uni0328" unicode="&#x328;" d="M516 0 q-142 -54 -223.5 -128 q-81.5 -74 -81.5 -148 q0 -35 24.5 -53.5 q24.5 -18.5 67.5 -18.5 q82 0 139 26 l-24 -131 q-78 -20 -156 -20 q-84 0 -137 40 q-53 40 -53 118 q0 119 109 221.5 q109 102.5 308 175.5 l27 -82 Z" /><glyph glyph-name="Wgrave" unicode="&#x1e80;" d="M438 0 l-245 1413 l163 0 l197 -1212 l678 1212 l160 0 l206 -1220 l670 1220 l164 0 l-795 -1413 l-157 0 l-209 1210 l-674 -1210 l-158 0 ZM1036 1776 l197 0 l254 -258 l-168 0 l-283 258 Z" /><glyph glyph-name="wgrave" unicode="&#x1e81;" d="M338 0 l-205 1044 l148 0 l165 -878 l474 878 l153 0 l141 -866 l496 866 l162 0 l-617 -1044 l-147 0 l-143 852 l-463 -852 l-164 0 ZM799 1589 l178 0 l151 -350 l-124 0 l-205 350 Z" /><glyph glyph-name="Wacute" unicode="&#x1e82;" d="M438 0 l-245 1413 l163 0 l197 -1212 l678 1212 l160 0 l206 -1220 l670 1220 l164 0 l-795 -1413 l-157 0 l-209 1210 l-674 -1210 l-158 0 ZM1217 1536 l253 258 l197 0 l-283 -258 l-167 0 Z" /><glyph glyph-name="wacute" unicode="&#x1e83;" d="M338 0 l-205 1044 l148 0 l165 -878 l474 878 l153 0 l141 -866 l496 866 l162 0 l-617 -1044 l-147 0 l-143 852 l-463 -852 l-164 0 ZM969 1239 l161 350 l179 0 l-215 -350 l-125 0 Z" /><glyph glyph-name="Wdieresis" unicode="&#x1e84;" d="M438 0 l-245 1413 l163 0 l197 -1212 l678 1212 l160 0 l206 -1220 l670 1220 l164 0 l-795 -1413 l-157 0 l-209 1210 l-674 -1210 l-158 0 ZM1014 1651 q0 43 34.5 76.5 q34.5 33.5 79.5 33.5 q36 0 59 -21 q23 -21 23 -52 q0 -46 -35.5 -80.5 q-35.5 -34.5 -82.5 -34.5 q-34 0 -56 21.5 q-22 21.5 -22 56.5 ZM1509 1649 q0 45 35.5 78.5 q35.5 33.5 83.5 33.5 q34 0 57 -21 q23 -21 23 -52 q0 -45 -36.5 -80 q-36.5 -35 -82.5 -35 q-35 0 -57.5 21 q-22.5 21 -22.5 55 Z" /><glyph glyph-name="wdieresis" unicode="&#x1e85;" d="M338 0 l-205 1044 l148 0 l165 -878 l474 878 l153 0 l141 -866 l496 866 l162 0 l-617 -1044 l-147 0 l-143 852 l-463 -852 l-164 0 ZM723 1376 q0 43 35 77 q35 34 80 34 q36 0 59 -21.5 q23 -21.5 23 -52.5 q0 -45 -36 -80 q-36 -35 -83 -35 q-34 0 -56 22 q-22 22 -22 56 ZM1219 1374 q0 46 35.5 79.5 q35.5 33.5 82.5 33.5 q34 0 57 -21.5 q23 -21.5 23 -52.5 q0 -44 -36.5 -79.5 q-36.5 -35.5 -82.5 -35.5 q-35 0 -57 21.5 q-22 21.5 -22 54.5 Z" /><glyph glyph-name="Germandbls" unicode="&#x1e9e;" d="M717 668 l22 118 l467 482 l-735 0 l-246 -1268 l-155 0 l274 1413 l1088 0 l-27 -137 l-479 -488 q223 -17 336.5 -112 q113.5 -95 113.5 -258 q0 -199 -144.5 -322 q-144.5 -123 -387.5 -123 q-177 0 -320 66 l31 160 q131 -76 313 -76 q160 0 257.5 80 q97.5 80 97.5 217 q0 126 -123 187 q-123 61 -383 61 Z" /><glyph glyph-name="Ygrave" unicode="&#x1ef2;" d="M465 0 l123 639 l-406 774 l168 0 l336 -641 l569 641 l195 0 l-713 -792 l-119 -621 l-153 0 ZM543 1776 l196 0 l254 -258 l-168 0 l-282 258 Z" /><glyph glyph-name="ygrave" unicode="&#x1ef3;" d="M109 -348 l241 391 l-237 1001 l149 0 l195 -833 l514 833 l162 0 l-867 -1392 l-157 0 ZM416 1589 l178 0 l151 -350 l-124 0 l-205 350 Z" /><glyph glyph-name="endash" unicode="&#x2013;" d="M1133 614 l-1049 0 l27 136 l1046 0 l-24 -136 Z" /><glyph glyph-name="emdash" unicode="&#x2014;" d="M1647 614 l-1561 0 l25 136 l1558 0 l-22 -136 Z" /><glyph glyph-name="quoteleft" unicode="&#x2018;" d="M344 911 l-156 0 l201 502 l117 0 l-162 -502 Z" /><glyph glyph-name="quoteright" unicode="&#x2019;" d="M350 1413 l156 0 l-201 -502 l-117 0 l162 502 Z" /><glyph glyph-name="quotesinglbase" unicode="&#x201a;" d="M145 244 l156 0 l-201 -502 l-116 0 l161 502 Z" /><glyph glyph-name="quotedblleft" unicode="&#x201c;" d="M657 909 l-155 0 l200 502 l117 0 l-162 -502 ZM188 909 l201 502 l117 0 l-162 -502 l-156 0 Z" /><glyph glyph-name="quotedblright" unicode="&#x201d;" d="M350 1413 l156 0 l-201 -502 l-117 0 l162 502 ZM502 911 l162 502 l155 0 l-201 -502 l-116 0 Z" /><glyph glyph-name="quotedblbase" unicode="&#x201e;" d="M104 244 l156 0 l-201 -502 l-116 0 l161 502 ZM256 -258 l162 502 l155 0 l-200 -502 l-117 0 Z" /><glyph glyph-name="dagger" unicode="&#x2020;" d="M965 934 l-308 0 l-125 -647 l-137 0 l125 647 l-305 0 l25 127 l307 0 l67 352 l136 0 l-68 -352 l309 0 l-26 -127 Z" /><glyph glyph-name="daggerdbl" unicode="&#x2021;" d="M987 1020 l-307 0 l-68 -338 l310 0 l-27 -129 l-307 0 l-51 -264 l-138 0 l52 264 l-308 0 l27 129 l307 0 l66 338 l-307 0 l24 129 l309 0 l52 264 l135 0 l-51 -264 l307 0 l-25 -129 Z" /><glyph glyph-name="bullet" unicode="&#x2022;" d="M324 588 q-54 0 -89.5 37.5 q-35.5 37.5 -35.5 91.5 q0 68 52.5 123 q52.5 55 133.5 55 q55 0 89 -35 q34 -35 34 -90 q0 -74 -51.5 -128 q-51.5 -54 -132.5 -54 Z" /><glyph glyph-name="ellipsis" unicode="&#x2026;" d="M545 -27 q-38 0 -64 27 q-26 27 -26 66 q0 49 38 88 q38 39 95 39 q39 0 63.5 -26 q24.5 -26 24.5 -65 q0 -53 -37 -91 q-37 -38 -94 -38 ZM82 66 q0 49 38 88 q38 39 95 39 q39 0 63.5 -26 q24.5 -26 24.5 -65 q0 -53 -37 -91 q-37 -38 -94 -38 q-38 0 -64 27 q-26 27 -26 66 ZM825 66 q0 49 38 88 q38 39 95 39 q39 0 64 -26 q25 -26 25 -65 q0 -52 -37.5 -90.5 q-37.5 -38.5 -94.5 -38.5 q-38 0 -64 27 q-26 27 -26 66 Z" /><glyph glyph-name="perthousand" unicode="&#x2030;" d="M1956 -27 q-118 0 -195.5 83.5 q-77.5 83.5 -77.5 222.5 q0 117 52.5 221 q52.5 104 150 169.5 q97.5 65.5 217.5 65.5 q117 0 194 -82.5 q77 -82.5 77 -220.5 q0 -88 -31.5 -171 q-31.5 -83 -85.5 -147 q-54 -64 -133 -102.5 q-79 -38.5 -168 -38.5 ZM168 981 q0 118 53 223 q53 105 150.5 170.5 q97.5 65.5 216.5 65.5 q118 0 195 -83 q77 -83 77 -222 q0 -87 -31.5 -169.5 q-31.5 -82.5 -86.5 -146.5 q-55 -64 -134 -102.5 q-79 -38.5 -168 -38.5 q-119 0 -195.5 82 q-76.5 82 -76.5 221 ZM244 0 l1110 1413 l172 0 l-1110 -1413 l-172 0 ZM309 993 q0 -87 40 -139.5 q40 -52.5 114 -52.5 q100 0 179 96 q79 96 79 225 q0 87 -40.5 140 q-40.5 53 -115.5 53 q-100 0 -178 -95.5 q-78 -95.5 -78 -226.5 ZM907 279 q0 117 52.5 221 q52.5 104 150 169.5 q97.5 65.5 217.5 65.5 q117 0 193.5 -82.5 q76.5 -82.5 76.5 -220.5 q0 -118 -52.5 -223 q-52.5 -105 -149.5 -170.5 q-97 -65.5 -215 -65.5 q-118 0 -195.5 83.5 q-77.5 83.5 -77.5 222.5 ZM1047 289 q0 -86 39.5 -138.5 q39.5 -52.5 115.5 -52.5 q100 0 178 96 q78 96 78 226 q0 88 -39.5 140 q-39.5 52 -115.5 52 q-100 0 -178 -96 q-78 -96 -78 -227 ZM1823 289 q0 -86 39.5 -138.5 q39.5 -52.5 115.5 -52.5 q100 0 178 96 q78 96 78 226 q0 88 -39.5 140 q-39.5 52 -113.5 52 q-101 0 -179.5 -95.5 q-78.5 -95.5 -78.5 -227.5 Z" /><glyph glyph-name="guilsinglleft" unicode="&#x2039;" d="M553 1049 l88 -95 l-330 -317 l203 -311 l-104 -70 l-277 397 l420 396 Z" /><glyph glyph-name="guilsinglright" unicode="&#x203a;" d="M193 258 l-89 94 l330 318 l-203 311 l105 70 l276 -398 l-419 -395 Z" /><glyph glyph-name="fraction" unicode="&#x2044;" d="M1339 1413 l-1110 -1413 l-172 0 l1110 1413 l172 0 Z" /><glyph glyph-name="Euro" unicode="&#x20ac;" d="M784 -27 q-210 0 -356.5 135.5 q-146.5 135.5 -177.5 350.5 l-203 0 l27 129 l170 0 q6 131 45 246 l-164 0 l25 129 l192 0 q109 213 306 345 q197 132 433 132 q212 0 347.5 -139.5 q135.5 -139.5 154.5 -364.5 l-158 0 q-20 163 -120 257.5 q-100 94.5 -248 94.5 q-160 0 -305.5 -89 q-145.5 -89 -237.5 -236 l481 0 l-24 -129 l-520 0 q-47 -118 -50 -246 l519 0 l-27 -129 l-479 0 q30 -152 135.5 -243 q105.5 -91 261.5 -91 q159 0 296 93.5 q137 93.5 218 258.5 l158 0 q-99 -236 -279.5 -370 q-180.5 -134 -419.5 -134 Z" /><glyph glyph-name="trademark" unicode="&#x2122;" d="M938 1288 l-295 0 l-133 -686 l-131 0 l133 686 l-295 0 l25 125 l721 0 l-25 -125 ZM971 602 l157 811 l177 0 l200 -530 l414 530 l180 0 l-157 -811 l-132 0 l121 629 l-469 -588 l-237 590 l-123 -631 l-131 0 Z" /><glyph glyph-name="oneeighth" unicode="&#x215b;" d="M963 193 q0 -48 38 -75.5 q38 -27.5 105 -27.5 q82 0 135 41.5 q53 41.5 53 104.5 q0 45 -37.5 71.5 q-37.5 26.5 -105.5 26.5 q-82 0 -135 -40 q-53 -40 -53 -101 ZM1063 496 q0 -38 29 -60 q29 -22 75 -22 q62 0 103 35.5 q41 35.5 41 89.5 q0 39 -28.5 60.5 q-28.5 21.5 -74.5 21.5 q-62 0 -103.5 -35.5 q-41.5 -35.5 -41.5 -89.5 ZM842 168 q0 74 51.5 133.5 q51.5 59.5 132.5 81.5 q-34 18 -55 51.5 q-21 33.5 -21 75.5 q0 90 81 151.5 q81 61.5 196 61.5 q89 0 144.5 -43.5 q55.5 -43.5 55.5 -114.5 q0 -58 -36 -108.5 q-36 -50.5 -93 -75.5 q52 -15 81.5 -52.5 q29.5 -37.5 29.5 -92.5 q0 -106 -91 -179 q-91 -73 -233 -73 q-101 0 -172 51.5 q-71 51.5 -71 132.5 ZM238 1360 l133 53 l82 0 l-138 -706 l-114 0 l112 587 l-88 0 l13 66 ZM272 0 l-172 0 l1110 1413 l172 0 l-1110 -1413 Z" /><glyph glyph-name="threeeighths" unicode="&#x215c;" d="M1079 193 q0 -47 38.5 -75 q38.5 -28 105.5 -28 q82 0 135 41.5 q53 41.5 53 104.5 q0 45 -37.5 71.5 q-37.5 26.5 -105.5 26.5 q-83 0 -136 -40.5 q-53 -40.5 -53 -100.5 ZM1180 496 q0 -38 29 -60 q29 -22 75 -22 q62 0 102.5 35.5 q40.5 35.5 40.5 89.5 q0 39 -28 60.5 q-28 21.5 -74 21.5 q-62 0 -103.5 -35.5 q-41.5 -35.5 -41.5 -89.5 ZM958 168 q0 74 52 133.5 q52 59.5 133 81.5 q-34 18 -55 51.5 q-21 33.5 -21 75.5 q0 90 80.5 151.5 q80.5 61.5 195.5 61.5 q89 0 145 -43.5 q56 -43.5 56 -114.5 q0 -58 -36 -108.5 q-36 -50.5 -93 -75.5 q52 -15 81.5 -52.5 q29.5 -37.5 29.5 -92.5 q0 -106 -91 -179 q-91 -73 -233 -73 q-101 0 -172.5 51.5 q-71.5 51.5 -71.5 132.5 ZM356 690 q-108 0 -172.5 64.5 q-64.5 64.5 -62.5 169.5 l119 0 q0 -56 35.5 -89.5 q35.5 -33.5 99.5 -33.5 q69 0 117.5 43 q48.5 43 48.5 106 q0 42 -35.5 68 q-35.5 26 -108.5 26 l-71 0 l14 72 l211 191 l-338 -2 l20 108 l476 0 l-21 -100 l-215 -187 q86 -11 134 -54 q48 -43 48 -118 q0 -110 -86 -187 q-86 -77 -213 -77 ZM381 0 l-172 0 l1110 1413 l172 0 l-1110 -1413 Z" /><glyph glyph-name="fiveeighths" unicode="&#x215d;" d="M1081 193 q0 -47 38.5 -75 q38.5 -28 105.5 -28 q82 0 135 41.5 q53 41.5 53 104.5 q0 45 -37.5 71.5 q-37.5 26.5 -105.5 26.5 q-83 0 -136 -40.5 q-53 -40.5 -53 -100.5 ZM1182 496 q0 -38 29 -60 q29 -22 75 -22 q62 0 103 35.5 q41 35.5 41 89.5 q0 39 -28.5 60.5 q-28.5 21.5 -74.5 21.5 q-62 0 -103.5 -35.5 q-41.5 -35.5 -41.5 -89.5 ZM961 168 q0 74 51.5 133.5 q51.5 59.5 132.5 81.5 q-34 18 -55 51.5 q-21 33.5 -21 75.5 q0 90 81 151.5 q81 61.5 196 61.5 q89 0 144.5 -43.5 q55.5 -43.5 55.5 -114.5 q0 -58 -36 -108.5 q-36 -50.5 -93 -75.5 q52 -15 81.5 -52.5 q29.5 -37.5 29.5 -92.5 q0 -106 -91 -179 q-91 -73 -233 -73 q-101 0 -172 51.5 q-71 51.5 -71 132.5 ZM344 690 q-101 0 -166 63 q-65 63 -65 167 l118 0 q2 -53 35.5 -86 q33.5 -33 91.5 -33 q74 0 126.5 49.5 q52.5 49.5 52.5 118.5 q0 48 -32 80 q-32 32 -85 32 q-48 0 -92 -22 q-44 -22 -74 -60 l-100 27 l149 387 l381 0 l-20 -108 l-304 0 l-77 -199 q83 59 188 59 q74 0 129 -50.5 q55 -50.5 55 -137.5 q0 -118 -88.5 -202.5 q-88.5 -84.5 -222.5 -84.5 ZM377 0 l-172 0 l1110 1413 l172 0 l-1110 -1413 Z" /><glyph glyph-name="seveneighths" unicode="&#x215e;" d="M1063 193 q0 -48 38 -75.5 q38 -27.5 105 -27.5 q82 0 135.5 41.5 q53.5 41.5 53.5 104.5 q0 45 -38 71.5 q-38 26.5 -106 26.5 q-82 0 -135 -40 q-53 -40 -53 -101 ZM1163 496 q0 -38 29 -60 q29 -22 76 -22 q62 0 102.5 35.5 q40.5 35.5 40.5 89.5 q0 39 -28 60.5 q-28 21.5 -74 21.5 q-62 0 -104 -35.5 q-42 -35.5 -42 -89.5 ZM942 168 q0 74 51.5 133.5 q51.5 59.5 132.5 81.5 q-34 18 -54.5 51 q-20.5 33 -20.5 76 q0 90 80.5 151.5 q80.5 61.5 195.5 61.5 q89 0 145 -43.5 q56 -43.5 56 -114.5 q0 -58 -36 -108.5 q-36 -50.5 -93 -75.5 q52 -15 81 -52.5 q29 -37.5 29 -92.5 q0 -106 -90.5 -179 q-90.5 -73 -232.5 -73 q-101 0 -172.5 51.5 q-71.5 51.5 -71.5 132.5 ZM348 707 l-125 0 l348 596 l-381 0 l21 110 l504 0 l-17 -86 l-350 -620 ZM348 0 l-172 0 l1110 1413 l172 0 l-1110 -1413 Z" /><glyph glyph-name="minus" unicode="&#x2212;" d="M915 682 l-839 0 l26 137 l840 0 l-27 -137 Z" /><glyph glyph-name="notequal" unicode="&#x2260;" d="M954 883 l-839 0 l26 137 l492 0 l121 252 l147 0 l-123 -252 l203 0 l-27 -137 ZM33 451 l26 137 l840 0 l-27 -137 l-374 0 l-121 -240 l-146 0 l121 240 l-319 0 Z" /><glyph glyph-name="lessequal" unicode="&#x2264;" d="M1040 1231 l-30 -158 l-721 -235 l626 -244 l-26 -137 l-768 323 l26 135 l893 316 ZM-2 188 l27 138 l839 0 l-26 -138 l-840 0 Z" /><glyph glyph-name="greaterequal" unicode="&#x2265;" d="M102 471 l25 156 l725 235 l-631 246 l31 137 l770 -321 l-27 -138 l-893 -315 ZM39 186 l27 138 l839 0 l-26 -138 l-840 0 Z" /><glyph glyph-name="lozenge" unicode="&#x25ca;" d="M756 1296 l-553 -604 l305 -573 l553 602 l-305 575 ZM567 0 l-145 0 l-379 709 l653 704 l146 0 l377 -704 l-652 -709 Z" /><glyph glyph-name="fi" unicode="&#xfb01;" d="M373 1102 q39 202 156 311 q117 109 286 109 q136 0 232 -52 l-31 -145 q-89 64 -215 64 q-108 0 -181.5 -71 q-73.5 -71 -101.5 -216 l-10 -58 l410 0 l-25 -124 l-410 0 l-180 -920 l-145 0 l180 920 l-221 0 l22 124 l223 0 l11 58 ZM915 0 l203 1042 l144 0 l-205 -1042 l-142 0 ZM1163 1386 q0 42 32.5 76.5 q32.5 34.5 82.5 34.5 q34 0 57 -23.5 q23 -23.5 23 -58.5 q0 -42 -34 -76 q-34 -34 -83 -34 q-36 0 -57 22 q-21 22 -21 59 Z" /><glyph glyph-name="fl" unicode="&#xfb02;" d="M373 1102 q39 202 156 311 q117 109 286 109 q136 0 232 -52 l-31 -145 q-89 64 -215 64 q-108 0 -181.5 -71 q-73.5 -71 -101.5 -216 l-10 -58 l410 0 l-25 -124 l-410 0 l-180 -920 l-145 0 l180 920 l-221 0 l22 124 l223 0 l11 58 ZM911 0 l291 1495 l144 0 l-291 -1495 l-144 0 Z" /></font>
</defs>
</svg>
