<?xml version="1.0" standalone="no"?><!DOCTYPE svg PUBLIC "-//W3C//DTD SVG 1.1//EN" "http://www.w3.org/Graphics/SVG/1.1/DTD/svg11.dtd" ><svg xmlns="http://www.w3.org/2000/svg"><metadata></metadata><defs><font id="Version 1.000;FEAKit 1.0;UKWN;Uto-Regular;2022;FL801" horiz-adv-x="2519"><font-face font-family="Uto" font-weight="400" font-stretch="normal" units-per-em="2048" panose-1="0 0 0 0 0 0 0 0 0 0" ascent="2089" descent="-582" x-height="0" bbox="-123 -582 2470 2091" underline-thickness="102" underline-position="-307" unicode-range="U+000d-fb02" /><missing-glyph horiz-adv-x="921" d="M307 764 l0 -62 l185 0 l0 129 l122 0 l0 62 l-307 0 l0 -62 l123 0 l0 -67 l-123 0 ZM307 1135 l0 -193 l307 0 l0 64 l-122 0 l0 129 l-185 0 ZM307 1243 l0 -61 l307 0 l0 61 l-122 0 l0 68 l122 0 l0 61 l-305 0 l0 -61 l121 0 l0 -68 l-123 0 ZM307 -160 l0 -61 l307 0 l0 61 l-188 0 l129 86 l59 0 l0 62 l-307 0 l0 -62 l129 0 l-129 -86 ZM307 238 l0 -207 l307 0 l0 207 l-307 0 ZM307 557 l0 -209 l307 0 l0 209 l-184 0 l0 -102 l62 0 l0 41 l61 0 l0 -86 l-184 0 l0 147 l-62 0 ZM307 659 l0 -61 l307 0 l0 184 l-61 0 l0 -123 l-246 0 ZM553 90 l-184 0 l0 88 l184 0 l0 -88 ZM172 1495 l584 0 l0 -1843 l-584 0 l0 1843 ZM430 1006 l-61 0 l0 65 l61 0 l0 -65 Z" /><glyph glyph-name="uni0000" unicode="" d="" /><glyph glyph-name="uni000D" unicode="" d="" /><glyph glyph-name="space" unicode="  " d="" /><glyph glyph-name="exclam" unicode="!" d="M338 1413 l188 0 l0 -989 l-188 0 l0 989 ZM301 100 q0 56 38.5 96 q38.5 40 92.5 40 q55 0 93 -40 q38 -40 38 -96 q0 -52 -38 -90.5 q-38 -38.5 -93 -38.5 q-52 0 -91.5 39 q-39.5 39 -39.5 90 Z" /><glyph glyph-name="quotedbl" unicode="&quot;" d="M227 1497 l176 0 l-18 -539 l-143 0 l-15 539 ZM537 1497 l176 0 l-19 -539 l-143 0 l-14 539 Z" /><glyph glyph-name="numbersign" unicode="#" d="M514 915 l-51 -399 l420 0 l53 399 l-422 0 ZM356 1069 l45 344 l179 0 l-45 -344 l421 0 l45 344 l177 0 l-45 -344 l202 0 l0 -154 l-223 0 l-51 -399 l201 0 l0 -151 l-222 0 l-47 -365 l-178 0 l47 365 l-420 0 l-47 -365 l-178 0 l47 365 l-201 0 l0 151 l222 0 l51 399 l-201 0 l0 154 l221 0 Z" /><glyph glyph-name="dollar" unicode="$" d="M395 -61 l0 198 q-144 31 -238 124 q-94 93 -120 231 l174 0 q58 -216 313 -216 q112 0 187 46 q75 46 75 129 q0 83 -71.5 128.5 q-71.5 45.5 -245.5 71.5 q-199 29 -301 115 q-102 86 -102 225 q0 122 90 201 q90 79 239 94 l0 189 l178 0 l0 -195 q133 -26 220.5 -113.5 q87.5 -87.5 107.5 -212.5 l-174 0 q-22 90 -88.5 137.5 q-66.5 47.5 -173.5 47.5 q-106 0 -170 -39.5 q-64 -39.5 -64 -108.5 q0 -76 69 -120 q69 -44 237 -70 q413 -52 413 -348 q0 -138 -105.5 -226.5 q-105.5 -88.5 -271.5 -99.5 l0 -188 l-178 0 Z" /><glyph glyph-name="percent" unicode="%" d="M1305 -27 q-145 0 -247 108 q-102 108 -102 277 q0 169 102 278 q102 109 247 109 q142 0 244 -109 q102 -109 102 -278 q0 -169 -102 -277 q-102 -108 -244 -108 ZM151.5 777 q-102.5 109 -102.5 278 q0 169 102 277 q102 108 246 108 q144 0 246 -108 q102 -108 102 -277 q0 -169 -102.5 -278 q-102.5 -109 -245.5 -109 q-143 0 -245.5 109 ZM267.5 1225.5 q-52.5 -68.5 -52.5 -170.5 q0 -102 52.5 -171 q52.5 -69 129.5 -69 q77 0 131 69 q54 69 54 171 q0 102 -54 170.5 q-54 68.5 -131 68.5 q-77 0 -129.5 -68.5 ZM328 0 l835 1413 l183 0 l-836 -1413 l-182 0 ZM1173.5 529 q-53.5 -69 -53.5 -171 q0 -102 53.5 -170.5 q53.5 -68.5 131.5 -68.5 q76 0 129 68.5 q53 68.5 53 170.5 q0 102 -53 171 q-53 69 -129 69 q-78 0 -131.5 -69 Z" /><glyph glyph-name="ampersand" unicode="&amp;" d="M963 279 l-324 329 q-33 33 -47 49 q-316 -108 -316 -299 q0 -92 79 -151.5 q79 -59.5 216 -59.5 q229 0 392 132 ZM500 1100 q0 -58 38.5 -117.5 q38.5 -59.5 133.5 -157.5 q109 48 178.5 122 q69.5 74 69.5 153 q0 75 -56 119.5 q-56 44.5 -147 44.5 q-95 0 -156 -45 q-61 -45 -61 -119 ZM82 340 q0 78 35.5 147.5 q35.5 69.5 97 121 q61.5 51.5 128.5 88.5 q67 37 146 67 q-85 98 -129.5 179.5 q-44.5 81.5 -44.5 166.5 q0 63 21.5 117 q21.5 54 59.5 93 q38 39 89 66 q51 27 110 40.5 q59 13.5 122 13.5 q107 0 193.5 -35.5 q86.5 -35.5 141 -110 q54.5 -74.5 54.5 -176.5 q0 -122 -92 -223.5 q-92 -101.5 -244 -167.5 l311 -313 q89 145 97 344 l180 0 q-11 -270 -154 -469 l289 -289 l-256 0 l-156 158 q-106 -91 -239.5 -139 q-133.5 -48 -272.5 -48 q-218 0 -352.5 98.5 q-134.5 98.5 -134.5 270.5 Z" /><glyph glyph-name="quotesingle" unicode="&#39;" d="M227 1497 l176 0 l-18 -539 l-143 0 l-15 539 Z" /><glyph glyph-name="parenleft" unicode="(" d="M152 700 q0 323 153.5 585.5 q153.5 262.5 407.5 395.5 l67 -157 q-210 -119 -326 -340.5 q-116 -221.5 -116 -483.5 q0 -264 117.5 -493.5 q117.5 -229.5 326.5 -349.5 l-69 -158 q-254 136 -407.5 404 q-153.5 268 -153.5 597 Z" /><glyph glyph-name="parenright" unicode=")" d="M731 700 q0 -329 -153.5 -597 q-153.5 -268 -407.5 -404 l-70 158 q209 121 327 350 q118 229 118 493 q0 261 -116.5 483 q-116.5 222 -326.5 341 l68 157 q254 -133 407.5 -395.5 q153.5 -262.5 153.5 -585.5 Z" /><glyph glyph-name="asterisk" unicode="*" d="M645 721 l-166 246 l-168 -246 l-116 90 l198 221 l-264 78 l55 137 l244 -119 l-25 285 l150 0 l-21 -280 l238 114 l53 -137 l-260 -78 l199 -221 l-117 -90 Z" /><glyph glyph-name="plus" unicode="+" d="M936 664 l-336 0 l0 -330 l-180 0 l0 330 l-342 0 l0 170 l342 0 l0 331 l180 0 l0 -331 l336 0 l0 -170 Z" /><glyph glyph-name="comma" unicode="," d="M190 272 l199 0 l-186 -520 l-142 0 l129 520 Z" /><glyph glyph-name="hyphen" unicode="-" d="M872 598 l-778 0 l0 172 l778 0 l0 -172 Z" /><glyph glyph-name="period" unicode="." d="M293 -29 q-52 0 -91.5 39 q-39.5 39 -39.5 90 q0 56 38.5 96 q38.5 40 92.5 40 q55 0 93 -40 q38 -40 38 -96 q0 -52 -38 -90.5 q-38 -38.5 -93 -38.5 Z" /><glyph glyph-name="slash" unicode="/" d="M887 1606 l184 0 l-778 -1844 l-184 0 l778 1844 Z" /><glyph glyph-name="zero" unicode="0" d="M741 -27 q-172 0 -313 99 q-141 99 -220 268 q-79 169 -79 371 q0 157 46.5 293 q46.5 136 127.5 231.5 q81 95.5 194.5 150 q113.5 54.5 243.5 54.5 q176 0 316 -93 q140 -93 218.5 -259.5 q78.5 -166.5 78.5 -376.5 q0 -151 -46 -287 q-46 -136 -126.5 -235.5 q-80.5 -99.5 -195 -157.5 q-114.5 -58 -245.5 -58 ZM328 711 q0 -149 52.5 -274.5 q52.5 -125.5 148 -200 q95.5 -74.5 212.5 -74.5 q116 0 211 74 q95 74 148 200 q53 126 53 275 q0 240 -116 390 q-116 150 -296 150 q-181 0 -297 -150 q-116 -150 -116 -390 Z" /><glyph glyph-name="one" unicode="1" d="M371 1413 l137 0 l0 -1413 l-197 0 l0 1204 l-176 0 l0 121 l236 88 Z" /><glyph glyph-name="two" unicode="2" d="M127 0 l-2 178 l403 305 q180 137 275.5 260.5 q95.5 123.5 95.5 249.5 q0 114 -66.5 186 q-66.5 72 -183.5 72 q-129 0 -220 -80 q-91 -80 -128 -225 l-197 0 q51 223 196 358.5 q145 135.5 357 135.5 q193 0 318 -117 q125 -117 125 -309 q0 -174 -113 -331 q-113 -157 -344 -331 l-233 -170 l778 0 l0 -182 l-1061 0 Z" /><glyph glyph-name="three" unicode="3" d="M600 -27 q-217 0 -364 123.5 q-147 123.5 -187 331.5 l207 0 q27 -123 115.5 -194.5 q88.5 -71.5 226.5 -71.5 q133 0 215 75 q82 75 82 193 q0 117 -84 188.5 q-84 71.5 -272 71.5 l-129 0 l0 129 l358 410 l-682 -2 l0 186 l928 0 l0 -176 l-369 -401 q204 -23 325.5 -130 q121.5 -107 121.5 -290 q0 -137 -66 -238.5 q-66 -101.5 -176.5 -153 q-110.5 -51.5 -249.5 -51.5 Z" /><glyph glyph-name="four" unicode="4" d="M834 1245 l-555 -776 l555 0 l0 776 ZM768 1413 l258 0 l0 -944 l262 0 l0 -172 l-262 0 l0 -297 l-192 0 l0 297 l-760 0 l-2 147 l696 969 Z" /><glyph glyph-name="five" unicode="5" d="M596 -27 q-202 0 -348.5 120 q-146.5 120 -188.5 329 l207 0 q27 -119 112 -189.5 q85 -70.5 214 -70.5 q139 0 226 83.5 q87 83.5 87 213.5 q0 131 -85.5 220 q-85.5 89 -217.5 89 q-103 0 -187.5 -49.5 q-84.5 -49.5 -129.5 -126.5 l-183 45 l144 776 l747 0 l0 -190 l-606 0 l-84 -439 q153 138 354 138 q83 0 162.5 -31.5 q79.5 -31.5 144 -89 q64.5 -57.5 104.5 -148 q40 -90.5 40 -198.5 q0 -146 -71 -257.5 q-71 -111.5 -186.5 -168 q-115.5 -56.5 -254.5 -56.5 Z" /><glyph glyph-name="six" unicode="6" d="M391 481 q0 -136 95.5 -230.5 q95.5 -94.5 230.5 -94.5 q135 0 230 94.5 q95 94.5 95 230.5 q0 135 -95 229.5 q-95 94.5 -230 94.5 q-135 0 -230.5 -94.5 q-95.5 -94.5 -95.5 -229.5 ZM721 -27 q-184 0 -319.5 99.5 q-135.5 99.5 -204 269.5 q-68.5 170 -68.5 389 q0 154 48 288 q48 134 128.5 225.5 q80.5 91.5 188.5 143.5 q108 52 227 52 q189 0 315.5 -110.5 q126.5 -110.5 173.5 -287.5 l-200 0 q-30 97 -104 154 q-74 57 -183 57 q-166 0 -280.5 -146 q-114.5 -146 -114.5 -378 q0 -35 2 -53 q68 139 177.5 207.5 q109.5 68.5 240.5 68.5 q97 0 186 -34 q89 -34 157.5 -95 q68.5 -61 109 -153 q40.5 -92 40.5 -201 q0 -114 -45 -209.5 q-45 -95.5 -118.5 -157 q-73.5 -61.5 -166 -95.5 q-92.5 -34 -190.5 -34 Z" /><glyph glyph-name="seven" unicode="7" d="M358 0 l494 1225 l-793 0 l0 188 l1002 0 l0 -149 l-488 -1264 l-215 0 Z" /><glyph glyph-name="eight" unicode="8" d="M297 422 q0 -119 90.5 -191.5 q90.5 -72.5 253.5 -72.5 q163 0 252.5 72.5 q89.5 72.5 89.5 191.5 q0 118 -89 187 q-89 69 -253 69 q-164 0 -254 -69 q-90 -69 -90 -187 ZM387 1051 q0 -102 73.5 -166 q73.5 -64 180.5 -64 q107 0 180.5 64 q73.5 64 73.5 166 q0 100 -72 155.5 q-72 55.5 -182 55.5 q-110 0 -182 -55.5 q-72 -55.5 -72 -155.5 ZM919 24.5 q-123 -51.5 -278 -51.5 q-155 0 -278 51.5 q-123 51.5 -195 150 q-72 98.5 -72 228.5 q0 137 80 231.5 q80 94.5 209 129.5 q-88 42 -142.5 123.5 q-54.5 81.5 -54.5 193.5 q0 160 127 259.5 q127 99.5 326 99.5 q199 0 326 -99.5 q127 -99.5 127 -259.5 q0 -111 -55 -193 q-55 -82 -144 -124 q130 -34 210.5 -128.5 q80.5 -94.5 80.5 -232.5 q0 -130 -72 -228.5 q-72 -98.5 -195 -150 Z" /><glyph glyph-name="nine" unicode="9" d="M279 932 q0 -135 95 -229.5 q95 -94.5 230 -94.5 q135 0 230.5 94.5 q95.5 94.5 95.5 229.5 q0 136 -95.5 230.5 q-95.5 94.5 -230.5 94.5 q-135 0 -230 -94.5 q-95 -94.5 -95 -230.5 ZM600 1440 q184 0 319.5 -99.5 q135.5 -99.5 204 -269.5 q68.5 -170 68.5 -389 q0 -154 -48 -288 q-48 -134 -128.5 -225.5 q-80.5 -91.5 -188.5 -143.5 q-108 -52 -227 -52 q-189 0 -315.5 110.5 q-126.5 110.5 -173.5 287.5 l200 0 q30 -97 104 -154 q74 -57 183 -57 q166 0 280.5 146 q114.5 146 114.5 378 q0 35 -2 53 q-68 -139 -177.5 -207.5 q-109.5 -68.5 -240.5 -68.5 q-97 0 -186 34 q-89 34 -157.5 95 q-68.5 61 -109 153 q-40.5 92 -40.5 201 q0 114 45 209.5 q45 95.5 118.5 157 q73.5 61.5 166 95.5 q92.5 34 190.5 34 Z" /><glyph glyph-name="colon" unicode=":" d="M344 31 q-52 0 -91.5 39 q-39.5 39 -39.5 90 q0 56 38.5 95.5 q38.5 39.5 92.5 39.5 q55 0 93 -39.5 q38 -39.5 38 -95.5 q0 -52 -38 -90.5 q-38 -38.5 -93 -38.5 ZM213 903 q0 56 38.5 95.5 q38.5 39.5 92.5 39.5 q55 0 93 -39.5 q38 -39.5 38 -95.5 q0 -52 -38 -90.5 q-38 -38.5 -93 -38.5 q-52 0 -91.5 39 q-39.5 39 -39.5 90 Z" /><glyph glyph-name="semicolon" unicode=";" d="M270 293 l199 0 l-186 -520 l-142 0 l129 520 ZM238 899 q0 56 38.5 95.5 q38.5 39.5 92.5 39.5 q55 0 93 -39.5 q38 -39.5 38 -95.5 q0 -52 -38 -90.5 q-38 -38.5 -93 -38.5 q-52 0 -91.5 39 q-39.5 39 -39.5 90 Z" /><glyph glyph-name="less" unicode="&lt;" d="M778 203 l-686 456 l0 166 l686 459 l0 -199 l-528 -342 l528 -342 l0 -198 Z" /><glyph glyph-name="equal" unicode="=" d="M936 862 l-858 0 l0 170 l858 0 l0 -170 ZM78 430 l0 170 l858 0 l0 -170 l-858 0 Z" /><glyph glyph-name="greater" unicode="&gt;" d="M109 203 l0 198 l528 342 l-528 342 l0 199 l686 -459 l0 -166 l-686 -456 Z" /><glyph glyph-name="question" unicode="?" d="M680 1251 q-139 0 -233.5 -70.5 q-94.5 -70.5 -131.5 -201.5 l-204 0 q51 210 199.5 335.5 q148.5 125.5 375.5 125.5 q214 0 337.5 -101.5 q123.5 -101.5 123.5 -267.5 q0 -132 -84.5 -235.5 q-84.5 -103.5 -267.5 -190.5 q-50 -26 -79.5 -47 q-29.5 -21 -48.5 -40 q-19 -19 -26.5 -49 q-7.5 -30 -9.5 -55.5 q-2 -25.5 -2 -78.5 l-191 0 q0 84 8 136.5 q8 52.5 33.5 101.5 q25.5 49 72 86.5 q46.5 37.5 124.5 76.5 q144 75 207 139 q63 64 63 148 q0 84 -68 136 q-68 52 -198 52 ZM408 102 q0 56 38.5 96 q38.5 40 92.5 40 q55 0 93 -40 q38 -40 38 -96 q0 -52 -38 -90.5 q-38 -38.5 -93 -38.5 q-52 0 -91.5 39 q-39.5 39 -39.5 90 Z" /><glyph glyph-name="at" unicode="@" d="M670 639 q0 -131 76.5 -217 q76.5 -86 193.5 -86 q117 0 193.5 86 q76.5 86 76.5 217 q0 129 -76.5 211 q-76.5 82 -193.5 82 q-117 0 -193.5 -82 q-76.5 -82 -76.5 -211 ZM915 -176 q-125 0 -242.5 32.5 q-117.5 32.5 -219 99 q-101.5 66.5 -177 159 q-75.5 92.5 -118.5 220 q-43 127.5 -43 275.5 q0 186 70 342 q70 156 189 259.5 q119 103.5 278 161 q159 57.5 337 57.5 q177 0 337 -58.5 q160 -58.5 279.5 -161.5 q119.5 -103 190 -255.5 q70.5 -152.5 70.5 -329.5 q0 -216 -89.5 -340.5 q-89.5 -124.5 -248.5 -124.5 q-118 0 -189.5 67.5 q-71.5 67.5 -101.5 169.5 q-44 -95 -133.5 -148.5 q-89.5 -53.5 -200.5 -53.5 q-167 0 -284 125 q-117 125 -117 315 q0 190 117 315 q117 125 284 125 q98 0 178 -44.5 q80 -44.5 129 -127.5 l0 139 l158 0 l0 -501 q0 -133 45.5 -202 q45.5 -69 128.5 -69 q92 0 149.5 87.5 q57.5 87.5 57.5 267.5 q0 198 -97.5 357.5 q-97.5 159.5 -271.5 250 q-174 90.5 -391 90.5 q-218 0 -390 -89.5 q-172 -89.5 -269 -252.5 q-97 -163 -97 -371 q0 -152 53 -280.5 q53 -128.5 145 -215.5 q92 -87 217 -135.5 q125 -48.5 267 -48.5 q163 0 293 39 l0 -110 q-150 -35 -293 -35 Z" /><glyph glyph-name="A" unicode="A" d="M700 1221 l-258 -695 l516 0 l-258 695 ZM246 0 l-201 0 l541 1413 l229 0 l543 -1413 l-203 0 l-135 360 l-641 0 l-133 -360 Z" /><glyph glyph-name="B" unicode="B" d="M406 659 l0 -481 l438 0 q102 0 171.5 70 q69.5 70 69.5 170 q0 102 -69.5 171.5 q-69.5 69.5 -171.5 69.5 l-438 0 ZM406 1235 l0 -434 l362 0 q107 0 174.5 64 q67.5 64 67.5 159 q0 89 -67.5 150 q-67.5 61 -174.5 61 l-362 0 ZM821 0 l-610 0 l0 1413 l600 0 q175 0 285 -100.5 q110 -100.5 110 -249.5 q0 -102 -51.5 -180.5 q-51.5 -78.5 -146.5 -124.5 q133 -41 205.5 -137.5 q72.5 -96.5 72.5 -221.5 q0 -81 -29 -152.5 q-29 -71.5 -85.5 -127 q-56.5 -55.5 -146.5 -87.5 q-90 -32 -204 -32 Z" /><glyph glyph-name="C" unicode="C" d="M111 711 q0 150 58 285 q58 135 157 232 q99 97 236 154.5 q137 57.5 288 57.5 q231 0 410.5 -143 q179.5 -143 246.5 -371 l-204 0 q-54 151 -176.5 238 q-122.5 87 -276.5 87 q-153 0 -276.5 -71.5 q-123.5 -71.5 -193 -195 q-69.5 -123.5 -69.5 -273.5 q0 -234 153.5 -391.5 q153.5 -157.5 385.5 -157.5 q154 0 277 86.5 q123 86.5 176 238.5 l204 0 q-65 -226 -246 -370 q-181 -144 -411 -144 q-202 0 -372 98.5 q-170 98.5 -268.5 268 q-98.5 169.5 -98.5 371.5 Z" /><glyph glyph-name="D" unicode="D" d="M211 0 l0 1413 l508 0 q218 0 390.5 -89.5 q172.5 -89.5 269 -251 q96.5 -161.5 96.5 -365.5 q0 -205 -96.5 -366.5 q-96.5 -161.5 -268.5 -251 q-172 -89.5 -391 -89.5 l-508 0 ZM406 178 l294 0 q260 0 418 147 q158 147 158 382 q0 233 -158 380.5 q-158 147.5 -418 147.5 l-294 0 l0 -1057 Z" /><glyph glyph-name="E" unicode="E" d="M211 1413 l975 0 l0 -182 l-780 0 l0 -402 l665 0 l0 -180 l-665 0 l0 -467 l780 0 l0 -182 l-975 0 l0 1413 Z" /><glyph glyph-name="F" unicode="F" d="M211 0 l0 1413 l1012 0 l0 -182 l-817 0 l0 -449 l700 0 l0 -182 l-700 0 l0 -600 l-195 0 Z" /><glyph glyph-name="G" unicode="G" d="M848 -27 q-150 0 -286.5 58 q-136.5 58 -235.5 156.5 q-99 98.5 -157 235.5 q-58 137 -58 288 q0 150 58 285 q58 135 157 232 q99 97 236 154.5 q137 57.5 288 57.5 q226 0 403 -134.5 q177 -134.5 242 -351.5 l-213 0 q-51 140 -169.5 218.5 q-118.5 78.5 -262.5 78.5 q-153 0 -276.5 -71.5 q-123.5 -71.5 -193 -195 q-69.5 -123.5 -69.5 -273.5 q0 -234 153.5 -391.5 q153.5 -157.5 385.5 -157.5 q131 0 253 41.5 q122 41.5 206 115.5 l0 281 l-482 0 l0 166 l674 0 l0 -766 l-160 0 l-18 135 q-206 -162 -475 -162 Z" /><glyph glyph-name="H" unicode="H" d="M211 1413 l195 0 l0 -582 l786 0 l0 582 l194 0 l0 -1413 l-194 0 l0 649 l-786 0 l0 -649 l-195 0 l0 1413 Z" /><glyph glyph-name="I" unicode="I" d="M211 1413 l195 0 l0 -1413 l-195 0 l0 1413 Z" /><glyph glyph-name="J" unicode="J" d="M682 559 l0 854 l192 0 l0 -854 q0 -293 -131 -439.5 q-131 -146.5 -366 -146.5 q-171 0 -299 60 l0 203 q75 -41 139 -57.5 q64 -16.5 150 -16.5 q159 0 237 98 q78 98 78 299 Z" /><glyph glyph-name="K" unicode="K" d="M211 1413 l195 0 l0 -651 l655 651 l252 0 l-678 -668 l704 -745 l-249 0 l-684 729 l0 -729 l-195 0 l0 1413 Z" /><glyph glyph-name="L" unicode="L" d="M211 0 l0 1413 l195 0 l0 -1231 l778 0 l0 -182 l-973 0 Z" /><glyph glyph-name="M" unicode="M" d="M915 147 l-509 1012 l0 -1159 l-195 0 l0 1413 l285 0 l522 -1034 l516 1034 l287 0 l0 -1413 l-197 0 l0 1151 l-510 -1004 l-199 0 Z" /><glyph glyph-name="N" unicode="N" d="M1149 0 l-750 1151 l0 -1151 l-188 0 l0 1413 l244 0 l725 -1110 l0 1110 l190 0 l0 -1413 l-221 0 Z" /><glyph glyph-name="O" unicode="O" d="M1133.5 31 q-135.5 -58 -285.5 -58 q-150 0 -286.5 58 q-136.5 58 -235.5 156.5 q-99 98.5 -157 234 q-58 135.5 -58 285.5 q0 200 98.5 368.5 q98.5 168.5 268 266.5 q169.5 98 370.5 98 q200 0 368.5 -98 q168.5 -98 266.5 -266.5 q98 -168.5 98 -368.5 q0 -150 -58 -285.5 q-58 -135.5 -156 -234 q-98 -98.5 -233.5 -156.5 ZM311 707 q0 -149 71.5 -274.5 q71.5 -125.5 195 -198 q123.5 -72.5 270.5 -72.5 q146 0 269 72.5 q123 72.5 194 198 q71 125.5 71 274.5 q0 147 -71 272.5 q-71 125.5 -194 198.5 q-123 73 -269 73 q-147 0 -270.5 -72.5 q-123.5 -72.5 -195 -198 q-71.5 -125.5 -71.5 -273.5 Z" /><glyph glyph-name="P" unicode="P" d="M406 1235 l0 -551 l319 0 q144 0 229.5 79 q85.5 79 85.5 198 q0 118 -85.5 196 q-85.5 78 -229.5 78 l-319 0 ZM727 506 l-321 0 l0 -506 l-195 0 l0 1413 l516 0 q230 0 370 -128.5 q140 -128.5 140 -323.5 q0 -195 -140 -325 q-140 -130 -370 -130 Z" /><glyph glyph-name="Q" unicode="Q" d="M311 707 q0 -149 71.5 -274.5 q71.5 -125.5 195 -198 q123.5 -72.5 270.5 -72.5 q146 0 269 72.5 q123 72.5 194 198 q71 125.5 71 274.5 q0 147 -71 272.5 q-71 125.5 -194 198.5 q-123 73 -269 73 q-147 0 -270.5 -72.5 q-123.5 -72.5 -195 -198 q-71.5 -125.5 -71.5 -273.5 ZM1036 -2 l371 -174 l-78 -162 l-770 369 q-201 86 -324.5 269 q-123.5 183 -123.5 407 q0 200 98.5 368.5 q98.5 168.5 268 266.5 q169.5 98 370.5 98 q200 0 368.5 -98 q168.5 -98 266.5 -266.5 q98 -168.5 98 -368.5 q0 -252 -153.5 -448.5 q-153.5 -196.5 -391.5 -260.5 Z" /><glyph glyph-name="R" unicode="R" d="M406 1231 l0 -475 l389 0 q112 0 185 66.5 q73 66.5 73 166.5 q0 102 -73.5 172 q-73.5 70 -184.5 70 l-389 0 ZM406 0 l-195 0 l0 1413 l590 0 q203 0 326.5 -117 q123.5 -117 123.5 -299 q0 -172 -119 -285.5 q-119 -113.5 -315 -117.5 l553 -594 l-250 0 l-559 594 l-155 0 l0 -594 Z" /><glyph glyph-name="S" unicode="S" d="M563 -27 q-206 0 -343.5 117.5 q-137.5 117.5 -172.5 331.5 l193 0 q63 -277 321 -277 q70 0 128 22.5 q58 22.5 98 76 q40 53.5 40 131.5 q0 100 -71.5 161.5 q-71.5 61.5 -247.5 110.5 q-96 24 -170.5 58 q-74.5 34 -135.5 84.5 q-61 50.5 -93.5 122.5 q-32.5 72 -32.5 163 q0 160 120 262.5 q120 102.5 306 102.5 q188 0 319.5 -109 q131.5 -109 167.5 -307 l-194 0 q-25 116 -100.5 180 q-75.5 64 -190.5 64 q-104 0 -171 -51 q-67 -51 -67 -138 q0 -101 79 -158 q79 -57 247 -102 q98 -26 172.5 -62 q74.5 -36 134 -88.5 q59.5 -52.5 90.5 -127 q31 -74.5 31 -168.5 q0 -179 -131 -289.5 q-131 -110.5 -326 -110.5 Z" /><glyph glyph-name="T" unicode="T" d="M1198 1231 l-475 0 l0 -1231 l-195 0 l0 1231 l-475 0 l0 182 l1145 0 l0 -182 Z" /><glyph glyph-name="U" unicode="U" d="M752 -29 q-124 0 -229.5 43.5 q-105.5 43.5 -185 127 q-79.5 83.5 -124.5 214.5 q-45 131 -45 297 l0 760 l197 0 l0 -758 q0 -129 30.5 -226.5 q30.5 -97.5 85 -155 q54.5 -57.5 122.5 -85.5 q68 -28 149 -28 q82 0 150.5 28 q68.5 28 123 85.5 q54.5 57.5 85 155 q30.5 97.5 30.5 226.5 l0 758 l194 0 l0 -760 q0 -166 -44.5 -297 q-44.5 -131 -123.5 -214.5 q-79 -83.5 -184.5 -127 q-105.5 -43.5 -230.5 -43.5 Z" /><glyph glyph-name="V" unicode="V" d="M604 0 l-534 1413 l206 0 l451 -1220 l451 1220 l206 0 l-534 -1413 l-246 0 Z" /><glyph glyph-name="W" unicode="W" d="M590 0 l-520 1413 l206 0 l408 -1147 l414 1147 l202 0 l412 -1157 l410 1157 l209 0 l-521 -1413 l-198 0 l-414 1151 l-410 -1151 l-198 0 Z" /><glyph glyph-name="X" unicode="X" d="M45 0 l494 729 l-453 684 l223 0 l353 -532 l360 532 l223 0 l-473 -684 l496 -729 l-230 0 l-385 582 l-387 -582 l-221 0 Z" /><glyph glyph-name="Y" unicode="Y" d="M582 0 l0 629 l-551 784 l231 0 l424 -610 l416 610 l225 0 l-551 -792 l0 -621 l-194 0 Z" /><glyph glyph-name="Z" unicode="Z" d="M135 0 l-2 166 l789 1065 l-822 0 l0 182 l1074 0 l0 -172 l-787 -1059 l836 0 l0 -182 l-1088 0 Z" /><glyph glyph-name="bracketleft" unicode="[" d="M133 -195 l0 1907 l526 4 l0 -153 l-350 -4 l0 -1598 l350 -4 l0 -156 l-526 4 Z" /><glyph glyph-name="backslash" unicode="\" d="M293 1606 l778 -1844 l-184 0 l-778 1844 l184 0 Z" /><glyph glyph-name="bracketright" unicode="]" d="M41 -199 l0 156 l350 4 l0 1598 l-350 4 l0 153 l526 -4 l0 -1907 l-526 -4 Z" /><glyph glyph-name="asciicircum" unicode="^" d="M584 1495 l227 0 l483 -862 l-209 0 l-389 725 l-389 -725 l-209 0 l486 862 Z" /><glyph glyph-name="underscore" unicode="_" d="M1085 -231 l-1079 0 l0 165 l1079 0 l0 -165 Z" /><glyph glyph-name="a" unicode="a" d="M266 524 q0 -155 107.5 -263.5 q107.5 -108.5 261.5 -108.5 q149 0 255.5 109 q106.5 109 106.5 263 q0 152 -107 261.5 q-107 109.5 -255 109.5 q-153 0 -261 -109 q-108 -109 -108 -262 ZM610 -27 q-142 0 -264.5 73.5 q-122.5 73.5 -195 200.5 q-72.5 127 -72.5 277 q0 150 72.5 277 q72.5 127 195 200.5 q122.5 73.5 264.5 73.5 q125 0 225 -63.5 q100 -63.5 162 -173.5 l0 209 l183 0 l0 -1047 l-183 0 l0 211 q-62 -110 -162.5 -174 q-100.5 -64 -224.5 -64 Z" /><glyph glyph-name="b" unicode="b" d="M340 524 q0 -155 106.5 -264.5 q106.5 -109.5 255.5 -109.5 q153 0 261 109 q108 109 108 265 q0 154 -108 263.5 q-108 109.5 -261 109.5 q-149 0 -255.5 -109.5 q-106.5 -109.5 -106.5 -263.5 ZM340 0 l-184 0 l0 1495 l184 0 l0 -645 q65 105 166 166 q101 61 223 61 q140 0 262 -74 q122 -74 194 -202 q72 -128 72 -277 q0 -149 -72 -277 q-72 -128 -194 -202 q-122 -74 -262 -74 q-122 0 -223 61 q-101 61 -166 167 l0 -199 Z" /><glyph glyph-name="c" unicode="c" d="M627 -27 q-114 0 -217 44 q-103 44 -177.5 118 q-74.5 74 -118.5 175.5 q-44 101.5 -44 213.5 q0 112 44 213.5 q44 101.5 118.5 175.5 q74.5 74 177.5 118 q103 44 217 44 q182 0 317 -111.5 q135 -111.5 182 -287.5 l-188 0 q-40 104 -119 164.5 q-79 60.5 -194 60.5 q-153 0 -261 -110.5 q-108 -110.5 -108 -268.5 q0 -154 108 -264.5 q108 -110.5 261 -110.5 q217 0 311 213 l188 0 q-51 -173 -183 -280 q-132 -107 -314 -107 Z" /><glyph glyph-name="d" unicode="d" d="M258 524 q0 -156 108 -265 q108 -109 261 -109 q148 0 255 109.5 q107 109.5 107 264.5 q0 153 -107 263 q-107 110 -255 110 q-153 0 -261 -109.5 q-108 -109.5 -108 -263.5 ZM1171 0 l-182 0 l0 207 q-63 -110 -164.5 -173 q-101.5 -63 -224.5 -63 q-106 0 -203.5 44 q-97.5 44 -169 118 q-71.5 74 -114.5 176.5 q-43 102.5 -43 214.5 q0 112 43 214.5 q43 102.5 114.5 176.5 q71.5 74 169 118 q97.5 44 203.5 44 q124 0 225 -62.5 q101 -62.5 164 -172.5 l0 653 l182 0 l0 -1495 Z" /><glyph glyph-name="e" unicode="e" d="M262 612 l678 0 q-24 129 -107 209 q-83 80 -210 80 q-129 0 -229.5 -81.5 q-100.5 -81.5 -131.5 -207.5 ZM625 -27 q-112 0 -214 42.5 q-102 42.5 -176.5 115.5 q-74.5 73 -119 175 q-44.5 102 -45.5 216 q0 113 44 215.5 q44 102.5 119 176.5 q75 74 178 117.5 q103 43.5 216 43.5 q225 -2 372 -168.5 q147 -166.5 134 -427.5 l-879 -2 q19 -140 124.5 -236 q105.5 -96 246.5 -96 q208 0 311 185 l182 0 q-50 -164 -186 -260.5 q-136 -96.5 -307 -96.5 Z" /><glyph glyph-name="f" unicode="f" d="M264 1094 q0 207 102 317.5 q102 110.5 279 110.5 q137 0 248 -49 l-2 -179 q-100 62 -232 62 q-208 0 -208 -260 l0 -49 l395 0 l0 -158 l-395 0 l0 -889 l-187 0 l0 889 l-213 0 l0 158 l213 0 l0 47 Z" /><glyph glyph-name="g" unicode="g" d="M350.5 812 q-92.5 -99 -92.5 -245 q0 -146 92 -243 q92 -97 234 -97 q141 0 234 95.5 q93 95.5 93 240.5 q0 147 -93.5 247.5 q-93.5 100.5 -233.5 100.5 q-141 0 -233.5 -99 ZM584 -375 q-192 0 -324.5 99.5 q-132.5 99.5 -169.5 273.5 l195 0 q25 -101 101 -155 q76 -54 198 -54 q156 0 241.5 101 q85.5 101 85.5 298 l0 93 q-55 -101 -148.5 -158 q-93.5 -57 -213.5 -57 q-200 0 -338.5 144 q-138.5 144 -138.5 357 q0 139 63.5 255.5 q63.5 116.5 173 183.5 q109.5 67 240.5 67 q120 0 213 -59.5 q93 -59.5 149 -163.5 l0 194 l183 0 l0 -849 q0 -140 -38 -249.5 q-38 -109.5 -106.5 -179 q-68.5 -69.5 -161 -105.5 q-92.5 -36 -204.5 -36 Z" /><glyph glyph-name="h" unicode="h" d="M156 1495 l184 0 l0 -641 q47 100 140 158.5 q93 58.5 206 58.5 q58 0 110 -15 q52 -15 99.5 -49 q47.5 -34 82 -85 q34.5 -51 55 -127.5 q20.5 -76.5 20.5 -171.5 l0 -623 l-183 0 l0 600 q0 305 -233 305 q-113 0 -198.5 -79.5 q-85.5 -79.5 -98.5 -231.5 l0 -594 l-184 0 l0 1495 Z" /><glyph glyph-name="i" unicode="i" d="M164 0 l0 1044 l182 0 l0 -1044 l-182 0 ZM133 1389 q0 51 36 85.5 q36 34.5 87 34.5 q50 0 85.5 -34.5 q35.5 -34.5 35.5 -85.5 q0 -49 -35.5 -85 q-35.5 -36 -85.5 -36 q-51 0 -87 35.5 q-36 35.5 -36 85.5 Z" /><glyph glyph-name="j" unicode="j" d="M-33 -199 q35 -6 60 -6 q79 0 110 48.5 q31 48.5 31 138.5 l0 1065 l182 0 l0 -1057 q0 -189 -70.5 -274 q-70.5 -85 -230.5 -85 q-24 0 -82 4 l0 166 ZM133 1389 q0 51 36 85.5 q36 34.5 87 34.5 q50 0 85.5 -34.5 q35.5 -34.5 35.5 -85.5 q0 -49 -35.5 -85 q-35.5 -36 -85.5 -36 q-51 0 -87 35.5 q-36 35.5 -36 85.5 Z" /><glyph glyph-name="k" unicode="k" d="M819 0 l-479 526 l0 -526 l-184 0 l0 1479 l184 0 l0 -912 l477 480 l240 0 l-502 -486 l494 -561 l-230 0 Z" /><glyph glyph-name="l" unicode="l" d="M156 1495 l184 0 l0 -1495 l-184 0 l0 1495 Z" /><glyph glyph-name="m" unicode="m" d="M164 1047 l184 0 l0 -183 q50 98 137 154.5 q87 56.5 191 56.5 q107 0 193 -63.5 q86 -63.5 122 -194.5 q47 122 142 190 q95 68 215 68 q54 0 101.5 -13 q47.5 -13 92 -44.5 q44.5 -31.5 76.5 -80.5 q32 -49 51 -126 q19 -77 19 -176 l0 -635 l-183 0 l0 608 q0 301 -215 301 q-115 0 -194 -91.5 q-79 -91.5 -80 -266.5 l0 -551 l-180 0 l0 608 q0 151 -61 226 q-61 75 -159 75 q-111 0 -189 -92 q-78 -92 -79 -266 l0 -551 l-184 0 l0 1047 Z" /><glyph glyph-name="n" unicode="n" d="M164 1047 l184 0 l0 -195 q53 102 144 163.5 q91 61.5 202 61.5 q78 0 142 -25 q64 -25 114.5 -78 q50.5 -53 78.5 -145 q28 -92 28 -217 l0 -612 l-183 0 l0 584 q0 171 -61 248 q-61 77 -178 77 q-55 0 -104.5 -22 q-49.5 -22 -91 -64.5 q-41.5 -42.5 -66 -114 q-24.5 -71.5 -25.5 -163.5 l0 -545 l-184 0 l0 1047 Z" /><glyph glyph-name="o" unicode="o" d="M627 -27 q-114 0 -217 44 q-103 44 -177.5 118.5 q-74.5 74.5 -118.5 176.5 q-44 102 -44 214 q0 111 44 212.5 q44 101.5 118.5 175 q74.5 73.5 177.5 117.5 q103 44 217 44 q149 0 276.5 -74 q127.5 -74 202 -200.5 q74.5 -126.5 74.5 -274.5 q0 -150 -74.5 -277.5 q-74.5 -127.5 -202 -201.5 q-127.5 -74 -276.5 -74 ZM258 526 q0 -157 107.5 -266.5 q107.5 -109.5 259.5 -109.5 q153 0 260.5 110 q107.5 110 107.5 266 q0 154 -108.5 263.5 q-108.5 109.5 -259.5 109.5 q-152 0 -259.5 -109.5 q-107.5 -109.5 -107.5 -263.5 Z" /><glyph glyph-name="p" unicode="p" d="M332 526 q0 -156 106.5 -265 q106.5 -109 255.5 -109 q154 0 261.5 107.5 q107.5 107.5 107.5 262.5 q0 153 -108 263 q-108 110 -261 110 q-148 0 -255 -108.5 q-107 -108.5 -107 -260.5 ZM332 -348 l-182 0 l0 1395 l182 0 l0 -199 q65 105 166 166 q101 61 223 61 q141 0 263 -74 q122 -74 193.5 -201 q71.5 -127 71.5 -276 q0 -113 -42.5 -215.5 q-42.5 -102.5 -113.5 -175.5 q-71 -73 -168.5 -116.5 q-97.5 -43.5 -203.5 -43.5 q-122 0 -223 61.5 q-101 61.5 -166 168.5 l0 -551 Z" /><glyph glyph-name="q" unicode="q" d="M258 524 q0 -156 108 -265 q108 -109 261 -109 q148 0 255 109.5 q107 109.5 107 264.5 q0 153 -107 263 q-107 110 -255 110 q-153 0 -261 -109.5 q-108 -109.5 -108 -263.5 ZM1174 -348 l-185 0 l0 561 q-63 -112 -164 -177 q-101 -65 -223 -65 q-142 0 -264.5 74 q-122.5 74 -195 201.5 q-72.5 127.5 -72.5 277.5 q0 150 72.5 277.5 q72.5 127.5 195 201.5 q122.5 74 264.5 74 q122 0 223 -65 q101 -65 164 -176 l0 208 l185 0 l0 -1392 Z" /><glyph glyph-name="r" unicode="r" d="M164 1047 l176 0 l0 -218 q41 114 133.5 177 q92.5 63 237.5 53 l0 -189 q-96 8 -166 -15.5 q-70 -23.5 -112.5 -76 q-42.5 -52.5 -62.5 -127.5 q-20 -75 -20 -174 l0 -477 l-186 0 l0 1047 Z" /><glyph glyph-name="s" unicode="s" d="M455 -27 q-150 0 -256 85 q-106 85 -140 247 l177 0 q17 -91 76 -136.5 q59 -45.5 145 -45.5 q82 0 137 42 q55 42 55 116 q0 80 -53.5 117 q-53.5 37 -169.5 63 q-69 17 -122.5 38.5 q-53.5 21.5 -107 58.5 q-53.5 37 -83 95 q-29.5 58 -29.5 133 q0 122 91 205.5 q91 83.5 239 83.5 q141 0 241 -81.5 q100 -81.5 136 -233.5 l-173 0 q-24 84 -77 126 q-53 42 -123 42 q-71 0 -119.5 -37.5 q-48.5 -37.5 -48.5 -104.5 q0 -69 52.5 -106.5 q52.5 -37.5 170.5 -65.5 q58 -14 102.5 -29.5 q44.5 -15.5 92 -42.5 q47.5 -27 78.5 -60.5 q31 -33.5 51 -84.5 q20 -51 20 -114 q0 -101 -53 -173 q-53 -72 -133 -104.5 q-80 -32.5 -176 -32.5 Z" /><glyph glyph-name="t" unicode="t" d="M817 -12 q-78 -11 -158 -11 q-121 0 -203.5 30 q-82.5 30 -128.5 91 q-46 61 -65.5 141 q-19.5 80 -19.5 193 l0 457 l-205 0 l0 158 l205 0 l0 333 l182 0 l0 -333 l385 0 l0 -158 l-385 0 l0 -418 q0 -64 4 -106 q4 -42 18.5 -88 q14.5 -46 41.5 -72.5 q27 -26.5 76 -44 q49 -17.5 118 -17.5 q52 0 135 13 l0 -168 Z" /><glyph glyph-name="u" unicode="u" d="M1014 0 l-183 0 l0 174 q-45 -94 -133.5 -147.5 q-88.5 -53.5 -193.5 -53.5 q-59 0 -111.5 14.5 q-52.5 14.5 -101 49 q-48.5 34.5 -83 86 q-34.5 51.5 -55 129.5 q-20.5 78 -20.5 176 l0 619 l182 0 l0 -584 q0 -324 234 -324 q54 0 103.5 20.5 q49.5 20.5 89.5 59 q40 38.5 64 102 q24 63.5 25 142.5 l0 584 l183 0 l0 -1047 Z" /><glyph glyph-name="v" unicode="v" d="M426 0 l-391 1047 l192 0 l316 -885 l313 885 l195 0 l-396 -1047 l-229 0 Z" /><glyph glyph-name="w" unicode="w" d="M440 0 l-405 1047 l194 0 l310 -840 l297 840 l174 0 l303 -820 l301 820 l196 0 l-409 -1047 l-178 0 l-301 797 l-291 -797 l-191 0 Z" /><glyph glyph-name="x" unicode="x" d="M1010 0 l-217 0 l-285 401 l-289 -401 l-207 0 l391 532 l-350 515 l215 0 l252 -373 l264 373 l205 0 l-366 -506 l387 -541 Z" /><glyph glyph-name="y" unicode="y" d="M319 -348 l150 358 l-434 1037 l194 0 l336 -816 l332 816 l188 0 l-577 -1395 l-189 0 Z" /><glyph glyph-name="z" unicode="z" d="M924 901 l-592 -743 l655 0 l0 -158 l-883 0 l0 133 l592 756 l-635 0 l0 158 l863 0 l0 -146 Z" /><glyph glyph-name="braceleft" unicode="{" d="M45 651 l0 156 l145 0 q75 0 110.5 25 q35.5 25 35.5 79 q0 44 -22 98 q-22 54 -48.5 100 q-26.5 46 -48.5 115 q-22 69 -22 138 q0 155 127.5 252.5 q127.5 97.5 369.5 97.5 l0 -160 q-315 0 -315 -213 q0 -52 20.5 -113.5 q20.5 -61.5 45 -109.5 q24.5 -48 45 -109.5 q20.5 -61.5 20.5 -113.5 q0 -63 -36 -107.5 q-36 -44.5 -99 -56.5 q63 -13 99 -58 q36 -45 36 -108 q0 -51 -20.5 -112.5 q-20.5 -61.5 -45 -109 q-24.5 -47.5 -45 -109 q-20.5 -61.5 -20.5 -113.5 q0 -99 74.5 -157 q74.5 -58 240.5 -58 l0 -160 q-243 0 -370 98 q-127 98 -127 252 q0 70 22 139 q22 69 48.5 114.5 q26.5 45.5 48.5 99.5 q22 54 22 98 q0 106 -146 106 l-145 0 Z" /><glyph glyph-name="bar" unicode="|" d="M340 1718 l186 0 l0 -2015 l-186 0 l0 2015 Z" /><glyph glyph-name="braceright" unicode="}" d="M37 -256 l0 160 q166 0 240.5 58 q74.5 58 74.5 157 q0 52 -20.5 113.5 q-20.5 61.5 -45 109 q-24.5 47.5 -45 109 q-20.5 61.5 -20.5 112.5 q0 63 36 108 q36 45 99 58 q-63 12 -99 56.5 q-36 44.5 -36 107.5 q0 52 20.5 113.5 q20.5 61.5 45 109.5 q24.5 48 45 109.5 q20.5 61.5 20.5 113.5 q0 213 -315 213 l0 160 q242 0 370 -97.5 q128 -97.5 128 -252.5 q0 -69 -22 -138 q-22 -69 -49 -115 q-27 -46 -49 -100 q-22 -54 -22 -98 q0 -54 35.5 -79 q35.5 -25 110.5 -25 l145 0 l0 -156 l-145 0 q-146 0 -146 -106 q0 -44 22 -98 q22 -54 49 -99.5 q27 -45.5 49 -114.5 q22 -69 22 -139 q0 -154 -127.5 -252 q-127.5 -98 -370.5 -98 Z" /><glyph glyph-name="exclamdown" unicode="¡" d="M338 -365 l0 990 l188 0 l0 -990 l-188 0 ZM301 946 q0 51 39.5 90 q39.5 39 91.5 39 q55 0 93 -38.5 q38 -38.5 38 -90.5 q0 -56 -38 -95.5 q-38 -39.5 -93 -39.5 q-54 0 -92.5 39.5 q-38.5 39.5 -38.5 95.5 Z" /><glyph glyph-name="cent" unicode="¢" d="M494 0 l0 168 q-124 23 -224 100 q-100 77 -157.5 193 q-57.5 116 -57.5 248 q0 132 57.5 247.5 q57.5 115.5 157.5 192.5 q100 77 224 100 l0 164 l182 0 l0 -164 q147 -26 254 -131.5 q107 -105.5 149 -257.5 l-194 0 q-39 105 -114 165 q-75 60 -185 60 q-143 0 -244.5 -110 q-101.5 -110 -101.5 -266 q0 -155 102 -266 q102 -111 244 -111 q203 0 295 215 l194 -2 q-44 -151 -148 -252 q-104 -101 -251 -127 l0 -166 l-182 0 Z" /><glyph glyph-name="sterling" unicode="£" d="M66 176 q132 39 209 112.5 q77 73.5 77 178.5 q0 65 -35 154 l-256 0 l0 139 l193 0 q-74 156 -74 274 q0 117 59.5 210.5 q59.5 93.5 161 144.5 q101.5 51 224.5 51 q191 0 315.5 -106.5 q124.5 -106.5 153.5 -293.5 l-197 0 q-47 215 -264 215 q-110 0 -182 -66 q-72 -66 -72 -177 q0 -67 18.5 -123 q18.5 -56 53.5 -129 l512 0 l0 -139 l-453 0 q20 -68 20 -136 q0 -191 -213 -307 l850 0 l0 -178 l-1101 0 l0 176 Z" /><glyph glyph-name="yen" unicode="¥" d="M506 0 l0 299 l-369 0 l0 141 l369 0 l0 205 l-367 0 l0 139 l297 0 l-411 629 l227 0 l352 -557 l348 557 l222 0 l-410 -629 l301 0 l0 -139 l-367 0 l0 -205 l367 0 l0 -141 l-367 0 l0 -299 l-192 0 Z" /><glyph glyph-name="brokenbar" unicode="¦" d="M526 563 l0 -860 l-186 0 l0 860 l186 0 ZM340 856 l0 860 l186 0 l0 -860 l-186 0 Z" /><glyph glyph-name="section" unicode="§" d="M326 590 q0 -81 78 -116.5 q78 -35.5 272 -55.5 q4 0 12.5 -1 q8.5 -1 13.5 -1 q189 -3 293.5 43.5 q104.5 46.5 104.5 132.5 q0 82 -77.5 117 q-77.5 35 -272.5 55 q-4 0 -13 1 q-9 1 -14 1 q-189 3 -293 -43.5 q-104 -46.5 -104 -132.5 ZM727 -260 q-187 0 -316 99.5 q-129 99.5 -159 275.5 l188 0 q20 -98 95.5 -153.5 q75.5 -55.5 191.5 -55.5 q118 0 188 44 q70 44 70 120 q0 86 -85 129 q-85 43 -269 61 q-247 23 -366.5 93.5 q-119.5 70.5 -119.5 213.5 q0 104 75.5 175 q75.5 71 215.5 102 q-174 86 -174 270 q0 146 118 236 q118 90 318 90 q187 0 316.5 -99.5 q129.5 -99.5 159.5 -275.5 l-189 0 q-20 99 -95.5 154 q-75.5 55 -193.5 55 q-118 0 -187 -42 q-69 -42 -69 -120 q0 -84 87 -128 q87 -44 272 -62 q244 -23 362.5 -94 q118.5 -71 118.5 -216 q0 -102 -74 -173 q-74 -71 -213 -103 q170 -87 170 -268 q0 -145 -118.5 -236.5 q-118.5 -91.5 -317.5 -91.5 Z" /><glyph glyph-name="copyright" unicode="©" d="M215 709 q0 -176 82.5 -324.5 q82.5 -148.5 233.5 -237 q151 -88.5 339 -88.5 q141 0 264.5 52 q123.5 52 208.5 140 q85 88 134 207 q49 119 49 251 q0 131 -49 249.5 q-49 118.5 -134.5 206 q-85.5 87.5 -208.5 138.5 q-123 51 -264 51 q-141 0 -264 -51.5 q-123 -51.5 -208.5 -139 q-85.5 -87.5 -134 -205.5 q-48.5 -118 -48.5 -249 ZM432 698 q0 186 131 316.5 q131 130.5 318 130.5 q149 0 260 -90.5 q111 -90.5 149 -231.5 l-166 0 q-33 77 -95 122.5 q-62 45.5 -150 45.5 q-118 0 -202.5 -85.5 q-84.5 -85.5 -84.5 -207.5 q0 -119 84.5 -204.5 q84.5 -85.5 202.5 -85.5 q171 0 245 161 l164 0 q-41 -142 -149.5 -229.5 q-108.5 -87.5 -257.5 -87.5 q-92 0 -175.5 35.5 q-83.5 35.5 -143 95.5 q-59.5 60 -95 142.5 q-35.5 82.5 -35.5 172.5 ZM870 -27 q-154 0 -293 58 q-139 58 -239.5 156.5 q-100.5 98.5 -159.5 235 q-59 136.5 -59 286.5 q0 200 100 368 q100 168 272.5 265.5 q172.5 97.5 378.5 97.5 q155 0 293.5 -57.5 q138.5 -57.5 238 -155.5 q99.5 -98 158 -233 q58.5 -135 58.5 -285 q0 -151 -58.5 -287 q-58.5 -136 -157.5 -234.5 q-99 -98.5 -238 -156.5 q-139 -58 -294 -58 Z" /><glyph glyph-name="guillemotleft" unicode="«" d="M494 242 l-359 411 l359 412 l116 -90 l-268 -322 l268 -321 l-116 -90 ZM565 653 l359 412 l116 -90 l-268 -322 l268 -321 l-116 -90 l-359 411 Z" /><glyph glyph-name="registered" unicode="®" d="M258 987 q0 -164 110 -275.5 q110 -111.5 269 -111.5 q163 0 273 111.5 q110 111.5 110 275.5 q0 162 -110.5 273.5 q-110.5 111.5 -272.5 111.5 q-158 0 -268.5 -112 q-110.5 -112 -110.5 -273 ZM561 1139 l0 -144 l109 0 q31 0 52 20 q21 20 21 52 q0 33 -20.5 52.5 q-20.5 19.5 -52.5 19.5 l-109 0 ZM637 530 q-188 0 -320.5 133.5 q-132.5 133.5 -132.5 323.5 q0 187 133 320 q133 133 320 133 q191 0 324 -132.5 q133 -132.5 133 -320.5 q0 -125 -60.5 -230 q-60.5 -105 -165.5 -166 q-105 -61 -231 -61 ZM561 748 l-98 0 l0 479 l219 0 q73 0 118.5 -46 q45.5 -46 45.5 -112 q0 -48 -27 -88 q-27 -40 -74 -59 l136 -174 l-121 0 l-119 161 l-80 0 l0 -161 Z" /><glyph glyph-name="degree" unicode="°" d="M836.5 740.5 q-119.5 -119.5 -289.5 -119.5 q-170 0 -290 119.5 q-120 119.5 -120 289.5 q0 169 120 288.5 q120 119.5 290 119.5 q170 0 289.5 -119.5 q119.5 -119.5 119.5 -288.5 q0 -170 -119.5 -289.5 ZM289 1030 q0 -108 75.5 -185 q75.5 -77 182.5 -77 q106 0 182 77.5 q76 77.5 76 184.5 q0 107 -76 183.5 q-76 76.5 -182 76.5 q-107 0 -182.5 -76.5 q-75.5 -76.5 -75.5 -183.5 Z" /><glyph glyph-name="plusminus" unicode="±" d="M936 748 l-342 0 l0 -240 l-170 0 l0 240 l-346 0 l0 165 l346 0 l0 242 l170 0 l0 -242 l342 0 l0 -165 ZM78 139 l0 168 l858 0 l0 -168 l-858 0 Z" /><glyph glyph-name="paragraph" unicode="¶" d="M629 500 q-221 0 -352.5 132.5 q-131.5 132.5 -131.5 325.5 q0 125 57 227.5 q57 102.5 168.5 165 q111.5 62.5 258.5 62.5 l788 0 l0 -1761 l-188 0 l0 1583 l-330 0 l0 -1583 l-188 0 l0 848 l-82 0 Z" /><glyph glyph-name="periodcentered" unicode="·" d="M293 600 q-52 0 -91.5 39 q-39.5 39 -39.5 90 q0 56 38.5 95.5 q38.5 39.5 92.5 39.5 q55 0 93 -39.5 q38 -39.5 38 -95.5 q0 -52 -38 -90.5 q-38 -38.5 -93 -38.5 Z" /><glyph glyph-name="guillemotright" unicode="»" d="M717 242 l-117 90 l268 321 l-268 322 l117 90 l358 -412 l-358 -411 ZM172 332 l268 321 l-268 322 l117 90 l358 -412 l-358 -411 l-117 90 Z" /><glyph glyph-name="onequarter" unicode="¼" d="M1171 592 l-239 -346 l239 0 l0 346 ZM801 137 l-2 96 l327 474 l177 0 l0 -461 l129 0 l0 -109 l-129 0 l0 -137 l-132 0 l0 137 l-370 0 ZM63 1350 l127 63 l99 0 l0 -706 l-135 0 l0 567 l-91 0 l0 76 ZM348 0 l-182 0 l835 1413 l183 0 l-836 -1413 Z" /><glyph glyph-name="onehalf" unicode="½" d="M63 1350 l127 63 l99 0 l0 -706 l-135 0 l0 567 l-91 0 l0 76 ZM348 0 l-182 0 l835 1413 l183 0 l-836 -1413 ZM1049 463 l-134 0 q23 111 98.5 185.5 q75.5 74.5 190.5 74.5 q102 0 168 -61.5 q66 -61.5 66 -159.5 q0 -88 -60.5 -167 q-60.5 -79 -183.5 -161 l-72 -47 l357 0 l0 -127 l-549 0 l-2 121 l207 141 q85 59 126.5 111.5 q41.5 52.5 41.5 109.5 q0 47 -29 77 q-29 30 -78 30 q-56 0 -94 -33 q-38 -33 -53 -94 Z" /><glyph glyph-name="threequarters" unicode="¾" d="M1298 592 l-239 -346 l239 0 l0 346 ZM928 137 l-2 96 l327 474 l177 0 l0 -461 l129 0 l0 -109 l-129 0 l0 -137 l-132 0 l0 137 l-370 0 ZM305 690 q-114 0 -188.5 65.5 q-74.5 65.5 -93.5 174.5 l139 0 q11 -50 48.5 -80.5 q37.5 -30.5 92.5 -30.5 q58 0 92.5 30.5 q34.5 30.5 34.5 78.5 q0 49 -35 77.5 q-35 28.5 -108 28.5 l-80 0 l-2 84 l164 170 l-328 -2 l0 127 l485 0 l0 -117 l-172 -172 q100 -12 155.5 -65 q55.5 -53 55.5 -144 q0 -103 -73.5 -164 q-73.5 -61 -186.5 -61 ZM471 0 l-182 0 l835 1413 l183 0 l-836 -1413 Z" /><glyph glyph-name="questiondown" unicode="¿" d="M512 -258 q139 0 233.5 70.5 q94.5 70.5 131.5 201.5 l204 0 q-51 -210 -199.5 -335 q-148.5 -125 -375.5 -125 q-214 0 -337.5 101 q-123.5 101 -123.5 267 q0 132 84.5 235.5 q84.5 103.5 267.5 190.5 q50 26 79.5 47 q29.5 21 48.5 40 q19 19 26.5 49 q7.5 30 9.5 55.5 q2 25.5 2 78.5 l191 0 q0 -84 -8 -136.5 q-8 -52.5 -33.5 -101.5 q-25.5 -49 -72 -86.5 q-46.5 -37.5 -124.5 -76.5 q-144 -75 -207 -139 q-63 -64 -63 -148 q0 -84 68 -136 q68 -52 198 -52 ZM520 893 q0 52 38 90.5 q38 38.5 93 38.5 q52 0 91.5 -39 q39.5 -39 39.5 -90 q0 -56 -38.5 -95.5 q-38.5 -39.5 -92.5 -39.5 q-55 0 -93 39.5 q-38 39.5 -38 95.5 Z" /><glyph glyph-name="Agrave" unicode="À" d="M700 1221 l-258 -695 l516 0 l-258 695 ZM246 0 l-201 0 l541 1413 l229 0 l543 -1413 l-203 0 l-135 360 l-641 0 l-133 -360 ZM668 1520 l-344 260 l239 0 l307 -260 l-202 0 Z" /><glyph glyph-name="Aacute" unicode="Á" d="M700 1221 l-258 -695 l516 0 l-258 695 ZM246 0 l-201 0 l541 1413 l229 0 l543 -1413 l-203 0 l-135 360 l-641 0 l-133 -360 ZM721 1536 l-203 0 l307 260 l240 0 l-344 -260 Z" /><glyph glyph-name="Acircumflex" unicode="Â" d="M700 1221 l-258 -695 l516 0 l-258 695 ZM246 0 l-201 0 l541 1413 l229 0 l543 -1413 l-203 0 l-135 360 l-641 0 l-133 -360 ZM487 1536 l-165 0 l282 315 l182 0 l285 -315 l-168 0 l-207 211 l-209 -211 Z" /><glyph glyph-name="Atilde" unicode="Ã" d="M700 1221 l-258 -695 l516 0 l-258 695 ZM246 0 l-201 0 l541 1413 l229 0 l543 -1413 l-203 0 l-135 360 l-641 0 l-133 -360 ZM352 1561 l0 157 q75 60 180 60 q65 0 122.5 -22 q57.5 -22 108 -44 q50.5 -22 99.5 -22 q95 0 176 71 l2 -159 q-78 -60 -186 -60 q-61 0 -119.5 22 q-58.5 22 -110.5 44 q-52 22 -98 22 q-91 0 -174 -69 Z" /><glyph glyph-name="Adieresis" unicode="Ä" d="M700 1221 l-258 -695 l516 0 l-258 695 ZM246 0 l-201 0 l541 1413 l229 0 l543 -1413 l-203 0 l-135 360 l-641 0 l-133 -360 ZM332 1673 q0 45 32 77 q32 32 78 32 q47 0 80 -32 q33 -32 33 -77 q0 -49 -32.5 -80.5 q-32.5 -31.5 -80.5 -31.5 q-46 0 -78 31.5 q-32 31.5 -32 80.5 ZM831 1673 q0 45 33 77 q33 32 80 32 q46 0 79.5 -32.5 q33.5 -32.5 33.5 -76.5 q0 -47 -33 -79.5 q-33 -32.5 -80 -32.5 q-48 0 -80.5 31.5 q-32.5 31.5 -32.5 80.5 Z" /><glyph glyph-name="Aring" unicode="Å" d="M700 1221 l-258 -695 l516 0 l-258 695 ZM532 1778 q0 -68 48 -117 q48 -49 118 -49 q68 0 115 49 q47 49 47 117 q0 69 -46.5 117.5 q-46.5 48.5 -115.5 48.5 q-70 0 -118 -48.5 q-48 -48.5 -48 -117.5 ZM246 0 l-201 0 l541 1413 l229 0 l543 -1413 l-203 0 l-135 360 l-641 0 l-133 -360 ZM408 1778 q0 120 84.5 204 q84.5 84 205.5 84 q118 0 202.5 -84.5 q84.5 -84.5 84.5 -203.5 q0 -117 -85 -202 q-85 -85 -202 -85 q-121 0 -205.5 84.5 q-84.5 84.5 -84.5 202.5 Z" /><glyph glyph-name="AE" unicode="Æ" d="M985 1231 l-405 -662 l495 0 l-31 662 l-59 0 ZM4 0 l881 1413 l1216 0 l0 -182 l-862 0 l21 -418 l725 0 l0 -168 l-719 0 l22 -463 l813 0 l0 -182 l-999 0 l-19 391 l-612 0 l-240 -391 l-227 0 Z" /><glyph glyph-name="Ccedilla" unicode="Ç" d="M111 711 q0 150 58 285 q58 135 157 232 q99 97 236 154.5 q137 57.5 288 57.5 q231 0 410.5 -143 q179.5 -143 246.5 -371 l-204 0 q-54 151 -176.5 238 q-122.5 87 -276.5 87 q-153 0 -276.5 -71.5 q-123.5 -71.5 -193 -195 q-69.5 -123.5 -69.5 -273.5 q0 -234 153.5 -391.5 q153.5 -157.5 385.5 -157.5 q154 0 277 86.5 q123 86.5 176 238.5 l204 0 q-64 -218 -235 -361 q-171 -143 -391 -153 l-58 -92 q54 15 97 15 q73 0 130.5 -43 q57.5 -43 57.5 -129 q0 -103 -74.5 -157 q-74.5 -54 -189.5 -54 q-126 0 -230 53 l0 135 q102 -57 224 -57 q59 0 91 21.5 q32 21.5 32 58.5 q0 65 -97 65 q-80 0 -143 -35 l-53 76 l90 150 q-182 22 -329.5 123.5 q-147.5 101.5 -232.5 261.5 q-85 160 -85 346 Z" /><glyph glyph-name="Egrave" unicode="È" d="M211 1413 l975 0 l0 -182 l-780 0 l0 -402 l665 0 l0 -180 l-665 0 l0 -467 l780 0 l0 -182 l-975 0 l0 1413 ZM379 1780 l239 0 l308 -260 l-203 0 l-344 260 Z" /><glyph glyph-name="Eacute" unicode="É" d="M211 1413 l975 0 l0 -182 l-780 0 l0 -402 l665 0 l0 -180 l-665 0 l0 -467 l780 0 l0 -182 l-975 0 l0 1413 ZM573 1536 l308 260 l239 0 l-344 -260 l-203 0 Z" /><glyph glyph-name="Ecircumflex" unicode="Ê" d="M211 1413 l975 0 l0 -182 l-780 0 l0 -402 l665 0 l0 -180 l-665 0 l0 -467 l780 0 l0 -182 l-975 0 l0 1413 ZM377 1536 l282 315 l183 0 l284 -315 l-168 0 l-206 211 l-209 -211 l-166 0 Z" /><glyph glyph-name="Edieresis" unicode="Ë" d="M211 1413 l975 0 l0 -182 l-780 0 l0 -402 l665 0 l0 -180 l-665 0 l0 -467 l780 0 l0 -182 l-975 0 l0 1413 ZM389 1673 q0 44 32.5 76.5 q32.5 32.5 78.5 32.5 q47 0 79.5 -32 q32.5 -32 32.5 -77 q0 -49 -32 -80.5 q-32 -31.5 -80 -31.5 q-47 0 -79 31.5 q-32 31.5 -32 80.5 ZM889 1673 q0 45 32.5 77 q32.5 32 79.5 32 q46 0 79.5 -32.5 q33.5 -32.5 33.5 -76.5 q0 -47 -33 -79.5 q-33 -32.5 -80 -32.5 q-48 0 -80 31.5 q-32 31.5 -32 80.5 Z" /><glyph glyph-name="Igrave" unicode="Ì" d="M211 1413 l195 0 l0 -1413 l-195 0 l0 1413 ZM-66 1780 l240 0 l307 -260 l-202 0 l-345 260 Z" /><glyph glyph-name="Iacute" unicode="Í" d="M211 1413 l195 0 l0 -1413 l-195 0 l0 1413 ZM129 1536 l307 260 l240 0 l-344 -260 l-203 0 Z" /><glyph glyph-name="Icircumflex" unicode="Î" d="M211 1413 l195 0 l0 -1413 l-195 0 l0 1413 ZM-68 1536 l283 315 l182 0 l285 -315 l-168 0 l-207 211 l-209 -211 l-166 0 Z" /><glyph glyph-name="Idieresis" unicode="Ï" d="M211 1413 l195 0 l0 -1413 l-195 0 l0 1413 ZM-57 1673 q0 45 32.5 77 q32.5 32 77.5 32 q47 0 80 -32 q33 -32 33 -77 q0 -49 -32.5 -80.5 q-32.5 -31.5 -80.5 -31.5 q-46 0 -78 31.5 q-32 31.5 -32 80.5 ZM442 1673 q0 45 33 77 q33 32 80 32 q46 0 79.5 -32.5 q33.5 -32.5 33.5 -76.5 q0 -47 -33 -79.5 q-33 -32.5 -80 -32.5 q-48 0 -80.5 31.5 q-32.5 31.5 -32.5 80.5 Z" /><glyph glyph-name="Eth" unicode="Ð" d="M467 631 l0 -453 l295 0 q260 0 417.5 147 q157.5 147 157.5 382 q0 233 -157.5 380.5 q-157.5 147.5 -417.5 147.5 l-295 0 l0 -422 l471 0 l0 -182 l-471 0 ZM780 0 l-508 0 l0 631 l-155 0 l0 182 l155 0 l0 600 l508 0 q218 0 390.5 -89.5 q172.5 -89.5 269 -251 q96.5 -161.5 96.5 -365.5 q0 -205 -96.5 -366.5 q-96.5 -161.5 -268.5 -251 q-172 -89.5 -391 -89.5 Z" /><glyph glyph-name="Ntilde" unicode="Ñ" d="M1149 0 l-750 1151 l0 -1151 l-188 0 l0 1413 l244 0 l725 -1110 l0 1110 l190 0 l0 -1413 l-221 0 ZM492 1561 l0 157 q75 60 180 60 q65 0 122.5 -22 q57.5 -22 107.5 -44 q50 -22 99 -22 q96 0 177 71 l2 -159 q-78 -60 -187 -60 q-61 0 -119 22 q-58 22 -110 44 q-52 22 -98 22 q-91 0 -174 -69 Z" /><glyph glyph-name="Ograve" unicode="Ò" d="M1133.5 31 q-135.5 -58 -285.5 -58 q-150 0 -286.5 58 q-136.5 58 -235.5 156.5 q-99 98.5 -157 234 q-58 135.5 -58 285.5 q0 200 98.5 368.5 q98.5 168.5 268 266.5 q169.5 98 370.5 98 q200 0 368.5 -98 q168.5 -98 266.5 -266.5 q98 -168.5 98 -368.5 q0 -150 -58 -285.5 q-58 -135.5 -156 -234 q-98 -98.5 -233.5 -156.5 ZM311 707 q0 -149 71.5 -274.5 q71.5 -125.5 195 -198 q123.5 -72.5 270.5 -72.5 q146 0 269 72.5 q123 72.5 194 198 q71 125.5 71 274.5 q0 147 -71 272.5 q-71 125.5 -194 198.5 q-123 73 -269 73 q-147 0 -270.5 -72.5 q-123.5 -72.5 -195 -198 q-71.5 -125.5 -71.5 -273.5 ZM477 1780 l240 0 l307 -260 l-203 0 l-344 260 Z" /><glyph glyph-name="Oacute" unicode="Ó" d="M1133.5 31 q-135.5 -58 -285.5 -58 q-150 0 -286.5 58 q-136.5 58 -235.5 156.5 q-99 98.5 -157 234 q-58 135.5 -58 285.5 q0 200 98.5 368.5 q98.5 168.5 268 266.5 q169.5 98 370.5 98 q200 0 368.5 -98 q168.5 -98 266.5 -266.5 q98 -168.5 98 -368.5 q0 -150 -58 -285.5 q-58 -135.5 -156 -234 q-98 -98.5 -233.5 -156.5 ZM311 707 q0 -149 71.5 -274.5 q71.5 -125.5 195 -198 q123.5 -72.5 270.5 -72.5 q146 0 269 72.5 q123 72.5 194 198 q71 125.5 71 274.5 q0 147 -71 272.5 q-71 125.5 -194 198.5 q-123 73 -269 73 q-147 0 -270.5 -72.5 q-123.5 -72.5 -195 -198 q-71.5 -125.5 -71.5 -273.5 ZM672 1536 l307 260 l240 0 l-345 -260 l-202 0 Z" /><glyph glyph-name="Ocircumflex" unicode="Ô" d="M311 707 q0 -149 71.5 -274.5 q71.5 -125.5 195 -198 q123.5 -72.5 270.5 -72.5 q146 0 269 72.5 q123 72.5 194 198 q71 125.5 71 274.5 q0 147 -71 272.5 q-71 125.5 -194 198.5 q-123 73 -269 73 q-147 0 -270.5 -72.5 q-123.5 -72.5 -195 -198 q-71.5 -125.5 -71.5 -273.5 ZM1133.5 31 q-135.5 -58 -285.5 -58 q-150 0 -286.5 58 q-136.5 58 -235.5 156.5 q-99 98.5 -157 234 q-58 135.5 -58 285.5 q0 200 98.5 368.5 q98.5 168.5 268 266.5 q169.5 98 370.5 98 q200 0 368.5 -98 q168.5 -98 266.5 -266.5 q98 -168.5 98 -368.5 q0 -150 -58 -285.5 q-58 -135.5 -156 -234 q-98 -98.5 -233.5 -156.5 ZM641 1536 l-166 0 l283 315 l182 0 l285 -315 l-168 0 l-207 211 l-209 -211 Z" /><glyph glyph-name="Otilde" unicode="Õ" d="M311 707 q0 -149 71.5 -274.5 q71.5 -125.5 195 -198 q123.5 -72.5 270.5 -72.5 q146 0 269 72.5 q123 72.5 194 198 q71 125.5 71 274.5 q0 147 -71 272.5 q-71 125.5 -194 198.5 q-123 73 -269 73 q-147 0 -270.5 -72.5 q-123.5 -72.5 -195 -198 q-71.5 -125.5 -71.5 -273.5 ZM1133.5 31 q-135.5 -58 -285.5 -58 q-150 0 -286.5 58 q-136.5 58 -235.5 156.5 q-99 98.5 -157 234 q-58 135.5 -58 285.5 q0 200 98.5 368.5 q98.5 168.5 268 266.5 q169.5 98 370.5 98 q200 0 368.5 -98 q168.5 -98 266.5 -266.5 q98 -168.5 98 -368.5 q0 -150 -58 -285.5 q-58 -135.5 -156 -234 q-98 -98.5 -233.5 -156.5 ZM506 1561 l0 157 q75 60 180 60 q65 0 122.5 -22 q57.5 -22 108 -44 q50.5 -22 99.5 -22 q95 0 176 71 l2 -159 q-78 -60 -186 -60 q-61 0 -119.5 22 q-58.5 22 -110.5 44 q-52 22 -98 22 q-91 0 -174 -69 Z" /><glyph glyph-name="Odieresis" unicode="Ö" d="M1133.5 31 q-135.5 -58 -285.5 -58 q-150 0 -286.5 58 q-136.5 58 -235.5 156.5 q-99 98.5 -157 234 q-58 135.5 -58 285.5 q0 200 98.5 368.5 q98.5 168.5 268 266.5 q169.5 98 370.5 98 q200 0 368.5 -98 q168.5 -98 266.5 -266.5 q98 -168.5 98 -368.5 q0 -150 -58 -285.5 q-58 -135.5 -156 -234 q-98 -98.5 -233.5 -156.5 ZM311 707 q0 -149 71.5 -274.5 q71.5 -125.5 195 -198 q123.5 -72.5 270.5 -72.5 q146 0 269 72.5 q123 72.5 194 198 q71 125.5 71 274.5 q0 147 -71 272.5 q-71 125.5 -194 198.5 q-123 73 -269 73 q-147 0 -270.5 -72.5 q-123.5 -72.5 -195 -198 q-71.5 -125.5 -71.5 -273.5 ZM485 1673 q0 44 32.5 76.5 q32.5 32.5 78.5 32.5 q47 0 80 -32 q33 -32 33 -77 q0 -49 -32.5 -80.5 q-32.5 -31.5 -80.5 -31.5 q-47 0 -79 31.5 q-32 31.5 -32 80.5 ZM985 1673 q0 45 33 77 q33 32 80 32 q46 0 79 -32.5 q33 -32.5 33 -76.5 q0 -47 -32.5 -79.5 q-32.5 -32.5 -79.5 -32.5 q-48 0 -80.5 31.5 q-32.5 31.5 -32.5 80.5 Z" /><glyph glyph-name="multiply" unicode="×" d="M795 319 l-275 295 l-276 -295 l-127 115 l284 307 l-284 308 l129 116 l274 -295 l273 295 l131 -116 l-285 -308 l285 -307 l-129 -115 Z" /><glyph glyph-name="Oslash" unicode="Ø" d="M311 707 q0 -213 138 -367 l725 799 q-144 112 -326 112 q-147 0 -270.5 -72.5 q-123.5 -72.5 -195 -198 q-71.5 -125.5 -71.5 -273.5 ZM1266 1044 l-721 -790 q139 -92 303 -92 q146 0 269 72.5 q123 72.5 194 198 q71 125.5 71 274.5 q0 193 -116 337 ZM1292 1290 l97 109 l120 -109 l-100 -110 q172 -209 172 -473 q0 -150 -58 -285.5 q-58 -135.5 -156 -234 q-98 -98.5 -233.5 -156.5 q-135.5 -58 -285.5 -58 q-231 0 -418 129 l-117 -129 l-120 109 l114 125 q-94 100 -145 228.5 q-51 128.5 -51 271.5 q0 200 98.5 368.5 q98.5 168.5 268 266.5 q169.5 98 370.5 98 q245 0 444 -150 Z" /><glyph glyph-name="Ugrave" unicode="Ù" d="M752 -29 q-124 0 -229.5 43.5 q-105.5 43.5 -185 127 q-79.5 83.5 -124.5 214.5 q-45 131 -45 297 l0 760 l197 0 l0 -758 q0 -129 30.5 -226.5 q30.5 -97.5 85 -155 q54.5 -57.5 122.5 -85.5 q68 -28 149 -28 q82 0 150.5 28 q68.5 28 123 85.5 q54.5 57.5 85 155 q30.5 97.5 30.5 226.5 l0 758 l194 0 l0 -760 q0 -166 -44.5 -297 q-44.5 -131 -123.5 -214.5 q-79 -83.5 -184.5 -127 q-105.5 -43.5 -230.5 -43.5 ZM379 1780 l239 0 l308 -260 l-203 0 l-344 260 Z" /><glyph glyph-name="Uacute" unicode="Ú" d="M752 -29 q-124 0 -229.5 43.5 q-105.5 43.5 -185 127 q-79.5 83.5 -124.5 214.5 q-45 131 -45 297 l0 760 l197 0 l0 -758 q0 -129 30.5 -226.5 q30.5 -97.5 85 -155 q54.5 -57.5 122.5 -85.5 q68 -28 149 -28 q82 0 150.5 28 q68.5 28 123 85.5 q54.5 57.5 85 155 q30.5 97.5 30.5 226.5 l0 758 l194 0 l0 -760 q0 -166 -44.5 -297 q-44.5 -131 -123.5 -214.5 q-79 -83.5 -184.5 -127 q-105.5 -43.5 -230.5 -43.5 ZM573 1536 l308 260 l239 0 l-344 -260 l-203 0 Z" /><glyph glyph-name="Ucircumflex" unicode="Û" d="M752 -29 q-124 0 -229.5 43.5 q-105.5 43.5 -185 127 q-79.5 83.5 -124.5 214.5 q-45 131 -45 297 l0 760 l197 0 l0 -758 q0 -129 30.5 -226.5 q30.5 -97.5 85 -155 q54.5 -57.5 122.5 -85.5 q68 -28 149 -28 q82 0 150.5 28 q68.5 28 123 85.5 q54.5 57.5 85 155 q30.5 97.5 30.5 226.5 l0 758 l194 0 l0 -760 q0 -166 -44.5 -297 q-44.5 -131 -123.5 -214.5 q-79 -83.5 -184.5 -127 q-105.5 -43.5 -230.5 -43.5 ZM377 1536 l282 315 l183 0 l284 -315 l-168 0 l-206 211 l-209 -211 l-166 0 Z" /><glyph glyph-name="Udieresis" unicode="Ü" d="M752 -29 q-124 0 -229.5 43.5 q-105.5 43.5 -185 127 q-79.5 83.5 -124.5 214.5 q-45 131 -45 297 l0 760 l197 0 l0 -758 q0 -129 30.5 -226.5 q30.5 -97.5 85 -155 q54.5 -57.5 122.5 -85.5 q68 -28 149 -28 q82 0 150.5 28 q68.5 28 123 85.5 q54.5 57.5 85 155 q30.5 97.5 30.5 226.5 l0 758 l194 0 l0 -760 q0 -166 -44.5 -297 q-44.5 -131 -123.5 -214.5 q-79 -83.5 -184.5 -127 q-105.5 -43.5 -230.5 -43.5 ZM389 1673 q0 44 32.5 76.5 q32.5 32.5 78.5 32.5 q47 0 79.5 -32 q32.5 -32 32.5 -77 q0 -49 -32 -80.5 q-32 -31.5 -80 -31.5 q-47 0 -79 31.5 q-32 31.5 -32 80.5 ZM889 1673 q0 45 32.5 77 q32.5 32 79.5 32 q46 0 79.5 -32.5 q33.5 -32.5 33.5 -76.5 q0 -47 -33 -79.5 q-33 -32.5 -80 -32.5 q-48 0 -80 31.5 q-32 31.5 -32 80.5 Z" /><glyph glyph-name="Yacute" unicode="Ý" d="M582 0 l0 629 l-551 784 l231 0 l424 -610 l416 610 l225 0 l-551 -792 l0 -621 l-194 0 ZM504 1536 l307 260 l240 0 l-344 -260 l-203 0 Z" /><glyph glyph-name="Thorn" unicode="Þ" d="M401 1024 l0 -551 l328 0 q145 0 230 79 q85 79 85 198 q0 119 -85 196.5 q-85 77.5 -230 77.5 l-328 0 ZM211 1413 l190 0 l0 -211 l330 0 q230 0 371 -128.5 q141 -128.5 141 -321.5 q0 -197 -140.5 -327 q-140.5 -130 -371.5 -130 l-330 0 l0 -295 l-190 0 l0 1413 Z" /><glyph glyph-name="germandbls" unicode="ß" d="M733 -25 q-135 0 -250 33 l0 174 q109 -37 222 -37 q133 0 210.5 73.5 q77.5 73.5 77.5 193.5 q0 127 -78 199.5 q-78 72.5 -227 72.5 l-166 0 l-2 152 l70 0 q120 0 192 78 q72 78 72 184 q0 118 -76.5 186 q-76.5 68 -175.5 68 q-129 0 -203.5 -85 q-74.5 -85 -74.5 -261 l0 -1006 l-183 0 l0 1004 q0 133 37 234.5 q37 101.5 101.5 162 q64.5 60.5 147 91 q82.5 30.5 179.5 30.5 q180 0 304 -109 q124 -109 124 -287 q0 -100 -56.5 -189.5 q-56.5 -89.5 -139.5 -137.5 q161 -34 250.5 -139.5 q89.5 -105.5 89.5 -264.5 q0 -188 -126 -304 q-126 -116 -319 -116 Z" /><glyph glyph-name="agrave" unicode="à" d="M266 524 q0 -155 107.5 -263.5 q107.5 -108.5 261.5 -108.5 q149 0 255.5 109 q106.5 109 106.5 263 q0 152 -107 261.5 q-107 109.5 -255 109.5 q-153 0 -261 -109 q-108 -109 -108 -262 ZM610 -27 q-142 0 -264.5 73.5 q-122.5 73.5 -195 200.5 q-72.5 127 -72.5 277 q0 150 72.5 277 q72.5 127 195 200.5 q122.5 73.5 264.5 73.5 q125 0 225 -63.5 q100 -63.5 162 -173.5 l0 209 l183 0 l0 -1047 l-183 0 l0 211 q-62 -110 -162.5 -174 q-100.5 -64 -224.5 -64 ZM631 1239 l-277 358 l215 0 l219 -358 l-157 0 Z" /><glyph glyph-name="aacute" unicode="á" d="M266 524 q0 -155 107.5 -263.5 q107.5 -108.5 261.5 -108.5 q149 0 255.5 109 q106.5 109 106.5 263 q0 152 -107 261.5 q-107 109.5 -255 109.5 q-153 0 -261 -109 q-108 -109 -108 -262 ZM610 -27 q-142 0 -264.5 73.5 q-122.5 73.5 -195 200.5 q-72.5 127 -72.5 277 q0 150 72.5 277 q72.5 127 195 200.5 q122.5 73.5 264.5 73.5 q125 0 225 -63.5 q100 -63.5 162 -173.5 l0 209 l183 0 l0 -1047 l-183 0 l0 211 q-62 -110 -162.5 -174 q-100.5 -64 -224.5 -64 ZM737 1239 l-157 0 l219 358 l215 0 l-277 -358 Z" /><glyph glyph-name="acircumflex" unicode="â" d="M266 524 q0 -155 107.5 -263.5 q107.5 -108.5 261.5 -108.5 q149 0 255.5 109 q106.5 109 106.5 263 q0 152 -107 261.5 q-107 109.5 -255 109.5 q-153 0 -261 -109 q-108 -109 -108 -262 ZM610 -27 q-142 0 -264.5 73.5 q-122.5 73.5 -195 200.5 q-72.5 127 -72.5 277 q0 150 72.5 277 q72.5 127 195 200.5 q122.5 73.5 264.5 73.5 q125 0 225 -63.5 q100 -63.5 162 -173.5 l0 209 l183 0 l0 -1047 l-183 0 l0 211 q-62 -110 -162.5 -174 q-100.5 -64 -224.5 -64 ZM467 1194 l-162 0 l283 369 l176 0 l285 -369 l-162 0 l-209 254 l-211 -254 Z" /><glyph glyph-name="atilde" unicode="ã" d="M266 524 q0 -155 107.5 -263.5 q107.5 -108.5 261.5 -108.5 q149 0 255.5 109 q106.5 109 106.5 263 q0 152 -107 261.5 q-107 109.5 -255 109.5 q-153 0 -261 -109 q-108 -109 -108 -262 ZM610 -27 q-142 0 -264.5 73.5 q-122.5 73.5 -195 200.5 q-72.5 127 -72.5 277 q0 150 72.5 277 q72.5 127 195 200.5 q122.5 73.5 264.5 73.5 q125 0 225 -63.5 q100 -63.5 162 -173.5 l0 209 l183 0 l0 -1047 l-183 0 l0 211 q-62 -110 -162.5 -174 q-100.5 -64 -224.5 -64 ZM324 1348 l0 168 q68 53 168 53 q56 0 110 -18.5 q54 -18.5 90 -41 q36 -22.5 85.5 -41 q49.5 -18.5 96.5 -18.5 q74 0 148 61 l2 -163 q-74 -48 -158 -48 q-54 0 -109 19 q-55 19 -92.5 41.5 q-37.5 22.5 -87.5 41.5 q-50 19 -96 19 q-90 0 -157 -73 Z" /><glyph glyph-name="adieresis" unicode="ä" d="M266 524 q0 -155 107.5 -263.5 q107.5 -108.5 261.5 -108.5 q149 0 255.5 109 q106.5 109 106.5 263 q0 152 -107 261.5 q-107 109.5 -255 109.5 q-153 0 -261 -109 q-108 -109 -108 -262 ZM610 -27 q-142 0 -264.5 73.5 q-122.5 73.5 -195 200.5 q-72.5 127 -72.5 277 q0 150 72.5 277 q72.5 127 195 200.5 q122.5 73.5 264.5 73.5 q125 0 225 -63.5 q100 -63.5 162 -173.5 l0 209 l183 0 l0 -1047 l-183 0 l0 211 q-62 -110 -162.5 -174 q-100.5 -64 -224.5 -64 ZM313 1397 q0 44 32.5 76 q32.5 32 78.5 32 q47 0 80 -32 q33 -32 33 -76 q0 -49 -32.5 -81 q-32.5 -32 -80.5 -32 q-46 0 -78.5 32 q-32.5 32 -32.5 81 ZM813 1397 q0 44 33 76 q33 32 80 32 q46 0 79 -32 q33 -32 33 -76 q0 -47 -32.5 -80 q-32.5 -33 -79.5 -33 q-48 0 -80.5 32 q-32.5 32 -32.5 81 Z" /><glyph glyph-name="aring" unicode="å" d="M266 524 q0 -155 107.5 -263.5 q107.5 -108.5 261.5 -108.5 q149 0 255.5 109 q106.5 109 106.5 263 q0 152 -107 261.5 q-107 109.5 -255 109.5 q-153 0 -261 -109 q-108 -109 -108 -262 ZM560 1600.5 q-48 -48.5 -48 -115.5 q0 -67 48 -115.5 q48 -48.5 116 -48.5 q67 0 114.5 48 q47.5 48 47.5 116 q0 68 -47.5 116 q-47.5 48 -114.5 48 q-68 0 -116 -48.5 ZM610 -27 q-142 0 -264.5 73.5 q-122.5 73.5 -195 200.5 q-72.5 127 -72.5 277 q0 150 72.5 277 q72.5 127 195 200.5 q122.5 73.5 264.5 73.5 q125 0 225 -63.5 q100 -63.5 162 -173.5 l0 209 l183 0 l0 -1047 l-183 0 l0 211 q-62 -110 -162.5 -174 q-100.5 -64 -224.5 -64 ZM397 1485 q0 114 82 195 q82 81 197 81 q115 0 195.5 -81 q80.5 -81 80.5 -195 q0 -116 -80.5 -197.5 q-80.5 -81.5 -195.5 -81.5 q-116 0 -197.5 82 q-81.5 82 -81.5 197 Z" /><glyph glyph-name="ae" unicode="æ" d="M260 313 q0 -82 57 -130 q57 -48 152 -48 q61 0 115 20.5 q54 20.5 97 59 q43 38.5 68 102 q25 63.5 25 142.5 l0 35 l-246 2 q-123 0 -195.5 -45 q-72.5 -45 -72.5 -138 ZM969 616 l633 0 q-24 125 -102 203 q-78 78 -197 78 q-120 0 -213 -79.5 q-93 -79.5 -121 -201.5 ZM436 -27 q-167 0 -265.5 92.5 q-98.5 92.5 -98.5 237.5 q0 147 110.5 236.5 q110.5 89.5 306.5 89.5 l287 0 l0 18 q0 124 -56.5 191 q-56.5 67 -156.5 67 q-178 0 -227 -157 l-195 0 q34 137 149 232 q115 95 277 95 q113 0 201 -51.5 q88 -51.5 137 -149.5 q72 92 177 144.5 q105 52.5 225 52.5 q103 -1 194.5 -44 q91.5 -43 157.5 -118.5 q66 -75.5 102 -186 q36 -110.5 29 -239.5 l-829 0 q12 -142 110.5 -240 q98.5 -98 233.5 -98 q99 0 178.5 53.5 q79.5 53.5 111.5 133.5 l187 0 q-54 -164 -185 -261.5 q-131 -97.5 -292 -97.5 q-136 0 -252.5 68.5 q-116.5 68.5 -186.5 185.5 q-62 -126 -173.5 -190 q-111.5 -64 -256.5 -64 Z" /><glyph glyph-name="ccedilla" unicode="ç" d="M643 -485 q-94 0 -180 36 l0 150 q75 -47 174 -47 q46 0 73 17.5 q27 17.5 27 49.5 q0 60 -80 60 q-55 0 -151 -27 l0 84 l41 142 q-203 28 -340 183 q-137 155 -137 361 q0 112 44 213.5 q44 101.5 118.5 175.5 q74.5 74 177.5 118 q103 44 217 44 q182 0 317 -111.5 q135 -111.5 182 -287.5 l-188 0 q-40 104 -119 164.5 q-79 60.5 -194 60.5 q-153 0 -261 -110.5 q-108 -110.5 -108 -268.5 q0 -154 108 -264.5 q108 -110.5 261 -110.5 q217 0 311 213 l188 0 q-47 -161 -165.5 -265.5 q-118.5 -104.5 -282.5 -119.5 l-25 -86 q40 5 58 5 q73 0 124.5 -42 q51.5 -42 51.5 -128 q0 -96 -65.5 -152.5 q-65.5 -56.5 -176.5 -56.5 Z" /><glyph glyph-name="egrave" unicode="è" d="M262 612 l678 0 q-24 129 -107 209 q-83 80 -210 80 q-129 0 -229.5 -81.5 q-100.5 -81.5 -131.5 -207.5 ZM625 -27 q-112 0 -214 42.5 q-102 42.5 -176.5 115.5 q-74.5 73 -119 175 q-44.5 102 -45.5 216 q0 113 44 215.5 q44 102.5 119 176.5 q75 74 178 117.5 q103 43.5 216 43.5 q225 -2 372 -168.5 q147 -166.5 134 -427.5 l-879 -2 q19 -140 124.5 -236 q105.5 -96 246.5 -96 q208 0 311 185 l182 0 q-50 -164 -186 -260.5 q-136 -96.5 -307 -96.5 ZM582 1237 l-277 358 l215 0 l219 -358 l-157 0 Z" /><glyph glyph-name="eacute" unicode="é" d="M262 612 l678 0 q-24 129 -107 209 q-83 80 -210 80 q-129 0 -229.5 -81.5 q-100.5 -81.5 -131.5 -207.5 ZM625 -27 q-112 0 -214 42.5 q-102 42.5 -176.5 115.5 q-74.5 73 -119 175 q-44.5 102 -45.5 216 q0 113 44 215.5 q44 102.5 119 176.5 q75 74 178 117.5 q103 43.5 216 43.5 q225 -2 372 -168.5 q147 -166.5 134 -427.5 l-879 -2 q19 -140 124.5 -236 q105.5 -96 246.5 -96 q208 0 311 185 l182 0 q-50 -164 -186 -260.5 q-136 -96.5 -307 -96.5 ZM688 1237 l-158 0 l220 358 l215 0 l-277 -358 Z" /><glyph glyph-name="ecircumflex" unicode="ê" d="M262 612 l678 0 q-24 129 -107 209 q-83 80 -210 80 q-129 0 -229.5 -81.5 q-100.5 -81.5 -131.5 -207.5 ZM625 -27 q-112 0 -214 42.5 q-102 42.5 -176.5 115.5 q-74.5 73 -119 175 q-44.5 102 -45.5 216 q0 113 44 215.5 q44 102.5 119 176.5 q75 74 178 117.5 q103 43.5 216 43.5 q225 -2 372 -168.5 q147 -166.5 134 -427.5 l-879 -2 q19 -140 124.5 -236 q105.5 -96 246.5 -96 q208 0 311 185 l182 0 q-50 -164 -186 -260.5 q-136 -96.5 -307 -96.5 ZM418 1192 l-162 0 l283 369 l176 0 l284 -369 l-161 0 l-209 254 l-211 -254 Z" /><glyph glyph-name="edieresis" unicode="ë" d="M262 612 l678 0 q-24 129 -107 209 q-83 80 -210 80 q-129 0 -229.5 -81.5 q-100.5 -81.5 -131.5 -207.5 ZM625 -27 q-112 0 -214 42.5 q-102 42.5 -176.5 115.5 q-74.5 73 -119 175 q-44.5 102 -45.5 216 q0 113 44 215.5 q44 102.5 119 176.5 q75 74 178 117.5 q103 43.5 216 43.5 q225 -2 372 -168.5 q147 -166.5 134 -427.5 l-879 -2 q19 -140 124.5 -236 q105.5 -96 246.5 -96 q208 0 311 185 l182 0 q-50 -164 -186 -260.5 q-136 -96.5 -307 -96.5 ZM264 1395 q0 44 32.5 76 q32.5 32 78.5 32 q47 0 79.5 -31.5 q32.5 -31.5 32.5 -76.5 q0 -49 -32 -81 q-32 -32 -80 -32 q-46 0 -78.5 32 q-32.5 32 -32.5 81 ZM764 1395 q0 44 33 76 q33 32 80 32 q46 0 79 -32 q33 -32 33 -76 q0 -47 -32.5 -80 q-32.5 -33 -79.5 -33 q-48 0 -80.5 32 q-32.5 32 -32.5 81 Z" /><glyph glyph-name="igrave" unicode="ì" d="M193 0 l0 1044 l182 0 l0 -1044 l-182 0 ZM-39 1595 l215 0 l219 -358 l-157 0 l-277 358 Z" /><glyph glyph-name="iacute" unicode="í" d="M193 0 l0 1044 l182 0 l0 -1044 l-182 0 ZM188 1237 l220 358 l215 0 l-277 -358 l-158 0 Z" /><glyph glyph-name="icircumflex" unicode="î" d="M193 0 l0 1044 l182 0 l0 -1044 l-182 0 ZM-86 1192 l283 369 l176 0 l284 -369 l-161 0 l-209 254 l-211 -254 l-162 0 Z" /><glyph glyph-name="idieresis" unicode="ï" d="M193 0 l0 1044 l182 0 l0 -1044 l-182 0 ZM-78 1395 q0 44 32.5 76 q32.5 32 78.5 32 q47 0 79.5 -31.5 q32.5 -31.5 32.5 -76.5 q0 -49 -32 -81 q-32 -32 -80 -32 q-46 0 -78.5 32 q-32.5 32 -32.5 81 ZM422 1395 q0 44 33 76 q33 32 80 32 q46 0 79 -32 q33 -32 33 -76 q0 -47 -32.5 -80 q-32.5 -33 -79.5 -33 q-48 0 -80.5 32 q-32.5 32 -32.5 81 Z" /><glyph glyph-name="eth" unicode="ð" d="M258 506 q0 -150 104.5 -255.5 q104.5 -105.5 253.5 -105.5 q149 0 254 106 q105 106 105 255 q0 149 -105 253.5 q-105 104.5 -254 104.5 q-149 0 -253.5 -104.5 q-104.5 -104.5 -104.5 -253.5 ZM621 -27 q-150 0 -275.5 63.5 q-125.5 63.5 -200.5 182.5 q-75 119 -75 270 q0 148 71 268 q71 120 192 186.5 q121 66.5 265 66.5 q125 0 236 -58.5 q111 -58.5 182 -175.5 q-6 280 -150 443 l-219 -134 l-72 109 l185 113 q-91 51 -201 51 q-195 0 -319 -88 l0 178 q133 74 329 74 q205 0 357 -115 l211 129 l67 -113 l-182 -110 q176 -210 176 -572 q0 -160 -32 -290 q-32 -130 -86 -218 q-54 -88 -128.5 -147.5 q-74.5 -59.5 -157 -86 q-82.5 -26.5 -173.5 -26.5 Z" /><glyph glyph-name="ntilde" unicode="ñ" d="M164 1047 l184 0 l0 -195 q53 102 144 163.5 q91 61.5 202 61.5 q78 0 142 -25 q64 -25 114.5 -78 q50.5 -53 78.5 -145 q28 -92 28 -217 l0 -612 l-183 0 l0 584 q0 171 -61 248 q-61 77 -178 77 q-55 0 -104.5 -22 q-49.5 -22 -91 -64.5 q-41.5 -42.5 -66 -114 q-24.5 -71.5 -25.5 -163.5 l0 -545 l-184 0 l0 1047 ZM242 1346 l0 167 q69 54 168 54 q56 0 110.5 -18.5 q54.5 -18.5 90.5 -41 q36 -22.5 85.5 -41 q49.5 -18.5 96.5 -18.5 q73 0 147 61 l2 -163 q-74 -48 -158 -48 q-54 0 -109 19 q-55 19 -92.5 41.5 q-37.5 22.5 -87.5 41.5 q-50 19 -96 19 q-90 0 -157 -73 Z" /><glyph glyph-name="ograve" unicode="ò" d="M627 -27 q-114 0 -217 44 q-103 44 -177.5 118.5 q-74.5 74.5 -118.5 176.5 q-44 102 -44 214 q0 111 44 212.5 q44 101.5 118.5 175 q74.5 73.5 177.5 117.5 q103 44 217 44 q149 0 276.5 -74 q127.5 -74 202 -200.5 q74.5 -126.5 74.5 -274.5 q0 -150 -74.5 -277.5 q-74.5 -127.5 -202 -201.5 q-127.5 -74 -276.5 -74 ZM258 526 q0 -157 107.5 -266.5 q107.5 -109.5 259.5 -109.5 q153 0 260.5 110 q107.5 110 107.5 266 q0 154 -108.5 263.5 q-108.5 109.5 -259.5 109.5 q-152 0 -259.5 -109.5 q-107.5 -109.5 -107.5 -263.5 ZM283 1595 l215 0 l219 -358 l-158 0 l-276 358 Z" /><glyph glyph-name="oacute" unicode="ó" d="M627 -27 q-114 0 -217 44 q-103 44 -177.5 118.5 q-74.5 74.5 -118.5 176.5 q-44 102 -44 214 q0 111 44 212.5 q44 101.5 118.5 175 q74.5 73.5 177.5 117.5 q103 44 217 44 q149 0 276.5 -74 q127.5 -74 202 -200.5 q74.5 -126.5 74.5 -274.5 q0 -150 -74.5 -277.5 q-74.5 -127.5 -202 -201.5 q-127.5 -74 -276.5 -74 ZM258 526 q0 -157 107.5 -266.5 q107.5 -109.5 259.5 -109.5 q153 0 260.5 110 q107.5 110 107.5 266 q0 154 -108.5 263.5 q-108.5 109.5 -259.5 109.5 q-152 0 -259.5 -109.5 q-107.5 -109.5 -107.5 -263.5 ZM508 1237 l219 358 l215 0 l-276 -358 l-158 0 Z" /><glyph glyph-name="ocircumflex" unicode="ô" d="M258 526 q0 -157 107.5 -266.5 q107.5 -109.5 259.5 -109.5 q153 0 260.5 110 q107.5 110 107.5 266 q0 154 -108.5 263.5 q-108.5 109.5 -259.5 109.5 q-152 0 -259.5 -109.5 q-107.5 -109.5 -107.5 -263.5 ZM627 -27 q-114 0 -217 44 q-103 44 -177.5 118.5 q-74.5 74.5 -118.5 176.5 q-44 102 -44 214 q0 111 44 212.5 q44 101.5 118.5 175 q74.5 73.5 177.5 117.5 q103 44 217 44 q149 0 276.5 -74 q127.5 -74 202 -200.5 q74.5 -126.5 74.5 -274.5 q0 -150 -74.5 -277.5 q-74.5 -127.5 -202 -201.5 q-127.5 -74 -276.5 -74 ZM395 1192 l-162 0 l283 369 l176 0 l285 -369 l-162 0 l-209 254 l-211 -254 Z" /><glyph glyph-name="otilde" unicode="õ" d="M258 526 q0 -157 107.5 -266.5 q107.5 -109.5 259.5 -109.5 q153 0 260.5 110 q107.5 110 107.5 266 q0 154 -108.5 263.5 q-108.5 109.5 -259.5 109.5 q-152 0 -259.5 -109.5 q-107.5 -109.5 -107.5 -263.5 ZM627 -27 q-114 0 -217 44 q-103 44 -177.5 118.5 q-74.5 74.5 -118.5 176.5 q-44 102 -44 214 q0 111 44 212.5 q44 101.5 118.5 175 q74.5 73.5 177.5 117.5 q103 44 217 44 q149 0 276.5 -74 q127.5 -74 202 -200.5 q74.5 -126.5 74.5 -274.5 q0 -150 -74.5 -277.5 q-74.5 -127.5 -202 -201.5 q-127.5 -74 -276.5 -74 ZM252 1346 l0 167 q69 54 168 54 q56 0 110.5 -18.5 q54.5 -18.5 90.5 -41 q36 -22.5 85.5 -41 q49.5 -18.5 96.5 -18.5 q73 0 147 61 l2 -163 q-74 -48 -157 -48 q-54 0 -109 19 q-55 19 -92.5 41.5 q-37.5 22.5 -87.5 41.5 q-50 19 -96 19 q-91 0 -158 -73 Z" /><glyph glyph-name="odieresis" unicode="ö" d="M627 -27 q-114 0 -217 44 q-103 44 -177.5 118.5 q-74.5 74.5 -118.5 176.5 q-44 102 -44 214 q0 111 44 212.5 q44 101.5 118.5 175 q74.5 73.5 177.5 117.5 q103 44 217 44 q149 0 276.5 -74 q127.5 -74 202 -200.5 q74.5 -126.5 74.5 -274.5 q0 -150 -74.5 -277.5 q-74.5 -127.5 -202 -201.5 q-127.5 -74 -276.5 -74 ZM242 1395 q0 44 32 76 q32 32 78 32 q47 0 80 -32 q33 -32 33 -76 q0 -49 -32.5 -81 q-32.5 -32 -80.5 -32 q-46 0 -78 32 q-32 32 -32 81 ZM258 526 q0 -157 107.5 -266.5 q107.5 -109.5 259.5 -109.5 q153 0 260.5 110 q107.5 110 107.5 266 q0 154 -108.5 263.5 q-108.5 109.5 -259.5 109.5 q-152 0 -259.5 -109.5 q-107.5 -109.5 -107.5 -263.5 ZM741 1395 q0 44 33 76 q33 32 80 32 q46 0 79.5 -32 q33.5 -32 33.5 -76 q0 -47 -33 -80 q-33 -33 -80 -33 q-48 0 -80.5 32 q-32.5 32 -32.5 81 Z" /><glyph glyph-name="divide" unicode="÷" d="M936 662 l-858 0 l0 169 l858 0 l0 -169 ZM389 426 q0 53 36 90 q36 37 87 37 q52 0 87.5 -37 q35.5 -37 35.5 -90 q0 -48 -36 -84.5 q-36 -36.5 -87 -36.5 q-49 0 -86 36.5 q-37 36.5 -37 84.5 ZM391 1083 q0 53 36 90 q36 37 87 37 q52 0 87.5 -37 q35.5 -37 35.5 -90 q0 -48 -35.5 -84 q-35.5 -36 -87.5 -36 q-49 0 -86 36.5 q-37 36.5 -37 83.5 Z" /><glyph glyph-name="oslash" unicode="ø" d="M252 526 q0 -118 65 -215 l498 539 q-83 53 -190 53 q-154 0 -263.5 -110.5 q-109.5 -110.5 -109.5 -266.5 ZM915 764 l-507 -549 q98 -72 217 -72 q155 0 264.5 112.5 q109.5 112.5 109.5 270.5 q0 133 -84 238 ZM627 -27 q-185 0 -332 109 l-102 -111 l-109 105 l102 110 q-116 147 -116 340 q0 111 44 212.5 q44 101.5 118.5 175 q74.5 73.5 177.5 117.5 q103 44 217 44 q165 0 301 -90 l96 102 l106 -104 l-88 -96 q138 -154 138 -361 q0 -150 -74.5 -277.5 q-74.5 -127.5 -202 -201.5 q-127.5 -74 -276.5 -74 Z" /><glyph glyph-name="ugrave" unicode="ù" d="M1014 0 l-183 0 l0 174 q-45 -94 -133.5 -147.5 q-88.5 -53.5 -193.5 -53.5 q-59 0 -111.5 14.5 q-52.5 14.5 -101 49 q-48.5 34.5 -83 86 q-34.5 51.5 -55 129.5 q-20.5 78 -20.5 176 l0 619 l182 0 l0 -584 q0 -324 234 -324 q54 0 103.5 20.5 q49.5 20.5 89.5 59 q40 38.5 64 102 q24 63.5 25 142.5 l0 584 l183 0 l0 -1047 ZM266 1595 l215 0 l219 -358 l-157 0 l-277 358 Z" /><glyph glyph-name="uacute" unicode="ú" d="M1014 0 l-183 0 l0 174 q-45 -94 -133.5 -147.5 q-88.5 -53.5 -193.5 -53.5 q-59 0 -111.5 14.5 q-52.5 14.5 -101 49 q-48.5 34.5 -83 86 q-34.5 51.5 -55 129.5 q-20.5 78 -20.5 176 l0 619 l182 0 l0 -584 q0 -324 234 -324 q54 0 103.5 20.5 q49.5 20.5 89.5 59 q40 38.5 64 102 q24 63.5 25 142.5 l0 584 l183 0 l0 -1047 ZM492 1237 l219 358 l215 0 l-277 -358 l-157 0 Z" /><glyph glyph-name="ucircumflex" unicode="û" d="M1014 0 l-183 0 l0 174 q-45 -94 -133.5 -147.5 q-88.5 -53.5 -193.5 -53.5 q-59 0 -111.5 14.5 q-52.5 14.5 -101 49 q-48.5 34.5 -83 86 q-34.5 51.5 -55 129.5 q-20.5 78 -20.5 176 l0 619 l182 0 l0 -584 q0 -324 234 -324 q54 0 103.5 20.5 q49.5 20.5 89.5 59 q40 38.5 64 102 q24 63.5 25 142.5 l0 584 l183 0 l0 -1047 ZM217 1192 l283 369 l176 0 l285 -369 l-162 0 l-209 254 l-211 -254 l-162 0 Z" /><glyph glyph-name="udieresis" unicode="ü" d="M1014 0 l-183 0 l0 174 q-45 -94 -133.5 -147.5 q-88.5 -53.5 -193.5 -53.5 q-59 0 -111.5 14.5 q-52.5 14.5 -101 49 q-48.5 34.5 -83 86 q-34.5 51.5 -55 129.5 q-20.5 78 -20.5 176 l0 619 l182 0 l0 -584 q0 -324 234 -324 q54 0 103.5 20.5 q49.5 20.5 89.5 59 q40 38.5 64 102 q24 63.5 25 142.5 l0 584 l183 0 l0 -1047 ZM225 1395 q0 44 32.5 76 q32.5 32 78.5 32 q47 0 80 -32 q33 -32 33 -76 q0 -49 -32.5 -81 q-32.5 -32 -80.5 -32 q-46 0 -78.5 32 q-32.5 32 -32.5 81 ZM725 1395 q0 44 33 76 q33 32 80 32 q46 0 79 -32 q33 -32 33 -76 q0 -47 -32.5 -80 q-32.5 -33 -79.5 -33 q-48 0 -80.5 32 q-32.5 32 -32.5 81 Z" /><glyph glyph-name="yacute" unicode="ý" d="M319 -348 l150 358 l-434 1037 l194 0 l336 -816 l332 816 l188 0 l-577 -1395 l-189 0 ZM463 1237 l219 358 l215 0 l-276 -358 l-158 0 Z" /><glyph glyph-name="thorn" unicode="þ" d="M332 526 q0 -156 106 -265 q106 -109 256 -109 q153 0 261 107.5 q108 107.5 108 262.5 q0 153 -108 263 q-108 110 -261 110 q-149 0 -255.5 -108.5 q-106.5 -108.5 -106.5 -260.5 ZM332 -348 l-182 0 l0 1843 l182 0 l0 -645 q64 105 165.5 165 q101.5 60 223.5 60 q140 0 262 -74 q122 -74 194 -201 q72 -127 72 -276 q0 -113 -42.5 -215.5 q-42.5 -102.5 -114 -175.5 q-71.5 -73 -169 -116.5 q-97.5 -43.5 -202.5 -43.5 q-122 0 -223 61 q-101 61 -166 167 l0 -549 Z" /><glyph glyph-name="ydieresis" unicode="ÿ" d="M319 -348 l150 358 l-434 1037 l194 0 l336 -816 l332 816 l188 0 l-577 -1395 l-189 0 ZM197 1395 q0 44 32 76 q32 32 78 32 q47 0 80 -32 q33 -32 33 -76 q0 -49 -32.5 -81 q-32.5 -32 -80.5 -32 q-46 0 -78 32 q-32 32 -32 81 ZM696 1395 q0 44 33 76 q33 32 80 32 q46 0 79.5 -32 q33.5 -32 33.5 -76 q0 -47 -33 -80 q-33 -33 -80 -33 q-48 0 -80.5 32 q-32.5 32 -32.5 81 Z" /><glyph glyph-name="Amacron" unicode="&#x100;" d="M700 1221 l-258 -695 l516 0 l-258 695 ZM246 0 l-201 0 l541 1413 l229 0 l543 -1413 l-203 0 l-135 360 l-641 0 l-133 -360 ZM1040 1581 l-694 0 l0 154 l694 0 l0 -154 Z" /><glyph glyph-name="amacron" unicode="&#x101;" d="M266 524 q0 -155 107.5 -263.5 q107.5 -108.5 261.5 -108.5 q149 0 255.5 109 q106.5 109 106.5 263 q0 152 -107 261.5 q-107 109.5 -255 109.5 q-153 0 -261 -109 q-108 -109 -108 -262 ZM610 -27 q-142 0 -264.5 73.5 q-122.5 73.5 -195 200.5 q-72.5 127 -72.5 277 q0 150 72.5 277 q72.5 127 195 200.5 q122.5 73.5 264.5 73.5 q125 0 225 -63.5 q100 -63.5 162 -173.5 l0 209 l183 0 l0 -1047 l-183 0 l0 211 q-62 -110 -162.5 -174 q-100.5 -64 -224.5 -64 ZM1024 1333 l-694 0 l0 156 l694 0 l0 -156 Z" /><glyph glyph-name="Abreve" unicode="&#x102;" d="M700 1221 l-258 -695 l516 0 l-258 695 ZM246 0 l-201 0 l541 1413 l229 0 l543 -1413 l-203 0 l-135 360 l-641 0 l-133 -360 ZM350 1884 l150 0 q0 -83 52.5 -138.5 q52.5 -55.5 143.5 -55.5 q91 0 143 55.5 q52 55.5 52 138.5 l153 0 q1 -56 -20.5 -113.5 q-21.5 -57.5 -62.5 -107.5 q-41 -50 -110.5 -81.5 q-69.5 -31.5 -154.5 -31.5 q-86 0 -154.5 31.5 q-68.5 31.5 -109 81.5 q-40.5 50 -61.5 107 q-21 57 -21 114 Z" /><glyph glyph-name="abreve" unicode="&#x103;" d="M266 524 q0 -155 107.5 -263.5 q107.5 -108.5 261.5 -108.5 q149 0 255.5 109 q106.5 109 106.5 263 q0 152 -107 261.5 q-107 109.5 -255 109.5 q-153 0 -261 -109 q-108 -109 -108 -262 ZM610 -27 q-142 0 -264.5 73.5 q-122.5 73.5 -195 200.5 q-72.5 127 -72.5 277 q0 150 72.5 277 q72.5 127 195 200.5 q122.5 73.5 264.5 73.5 q125 0 225 -63.5 q100 -63.5 162 -173.5 l0 209 l183 0 l0 -1047 l-183 0 l0 211 q-62 -110 -162.5 -174 q-100.5 -64 -224.5 -64 ZM332 1591 l157 0 q0 -97 50.5 -152 q50.5 -55 138.5 -55 q88 0 138 55 q50 55 50 152 l160 0 q0 -63 -21.5 -121.5 q-21.5 -58.5 -62.5 -108 q-41 -49.5 -109.5 -79 q-68.5 -29.5 -154.5 -29.5 q-85 0 -153 29.5 q-68 29.5 -109 79 q-41 49.5 -62.5 108 q-21.5 58.5 -21.5 121.5 Z" /><glyph glyph-name="Aogonek" unicode="&#x104;" d="M700 1221 l-258 -695 l516 0 l-258 695 ZM246 0 l-201 0 l541 1413 l229 0 l543 -1413 q-121 -47 -197 -108.5 q-76 -61.5 -76 -118.5 q0 -36 28 -56 q28 -20 83 -20 q84 0 152 27 l0 -146 q-82 -29 -185 -29 q-107 0 -173 46.5 q-66 46.5 -66 146.5 q0 152 225 272 l-129 346 l-641 0 l-133 -360 Z" /><glyph glyph-name="aogonek" unicode="&#x105;" d="M266 524 q0 -155 107.5 -263.5 q107.5 -108.5 261.5 -108.5 q149 0 255.5 109 q106.5 109 106.5 263 q0 152 -107 261.5 q-107 109.5 -255 109.5 q-153 0 -261 -109 q-108 -109 -108 -262 ZM610 -27 q-142 0 -264.5 73.5 q-122.5 73.5 -195 200.5 q-72.5 127 -72.5 277 q0 150 72.5 277 q72.5 127 195 200.5 q122.5 73.5 264.5 73.5 q125 0 225 -63.5 q100 -63.5 162 -173.5 l0 209 l183 0 l0 -1047 q-120 -48 -182 -111 q-62 -63 -62 -127 q0 -44 26.5 -68 q26.5 -24 73.5 -24 q70 0 133 29 l0 -152 q-71 -22 -157 -22 q-101 0 -167.5 54 q-66.5 54 -66.5 157 q0 171 219 297 l0 178 q-62 -110 -162.5 -174 q-100.5 -64 -224.5 -64 Z" /><glyph glyph-name="Cacute" unicode="&#x106;" d="M111 711 q0 150 58 285 q58 135 157 232 q99 97 236 154.5 q137 57.5 288 57.5 q231 0 410.5 -143 q179.5 -143 246.5 -371 l-204 0 q-54 151 -176.5 238 q-122.5 87 -276.5 87 q-153 0 -276.5 -71.5 q-123.5 -71.5 -193 -195 q-69.5 -123.5 -69.5 -273.5 q0 -234 153.5 -391.5 q153.5 -157.5 385.5 -157.5 q154 0 277 86.5 q123 86.5 176 238.5 l204 0 q-65 -226 -246 -370 q-181 -144 -411 -144 q-202 0 -372 98.5 q-170 98.5 -268.5 268 q-98.5 169.5 -98.5 371.5 ZM680 1536 l307 260 l240 0 l-344 -260 l-203 0 Z" /><glyph glyph-name="cacute" unicode="&#x107;" d="M627 -27 q-114 0 -217 44 q-103 44 -177.5 118 q-74.5 74 -118.5 175.5 q-44 101.5 -44 213.5 q0 112 44 213.5 q44 101.5 118.5 175.5 q74.5 74 177.5 118 q103 44 217 44 q182 0 317 -111.5 q135 -111.5 182 -287.5 l-188 0 q-40 104 -119 164.5 q-79 60.5 -194 60.5 q-153 0 -261 -110.5 q-108 -110.5 -108 -268.5 q0 -154 108 -264.5 q108 -110.5 261 -110.5 q217 0 311 213 l188 0 q-51 -173 -183 -280 q-132 -107 -314 -107 ZM504 1237 l219 358 l215 0 l-276 -358 l-158 0 Z" /><glyph glyph-name="Ccircumflex" unicode="&#x108;" d="M111 711 q0 150 58 285 q58 135 157 232 q99 97 236 154.5 q137 57.5 288 57.5 q231 0 410.5 -143 q179.5 -143 246.5 -371 l-204 0 q-54 151 -176.5 238 q-122.5 87 -276.5 87 q-153 0 -276.5 -71.5 q-123.5 -71.5 -193 -195 q-69.5 -123.5 -69.5 -273.5 q0 -234 153.5 -391.5 q153.5 -157.5 385.5 -157.5 q154 0 277 86.5 q123 86.5 176 238.5 l204 0 q-65 -226 -246 -370 q-181 -144 -411 -144 q-202 0 -372 98.5 q-170 98.5 -268.5 268 q-98.5 169.5 -98.5 371.5 ZM483 1536 l283 315 l182 0 l285 -315 l-168 0 l-207 211 l-209 -211 l-166 0 Z" /><glyph glyph-name="ccircumflex" unicode="&#x109;" d="M627 -27 q-114 0 -217 44 q-103 44 -177.5 118 q-74.5 74 -118.5 175.5 q-44 101.5 -44 213.5 q0 112 44 213.5 q44 101.5 118.5 175.5 q74.5 74 177.5 118 q103 44 217 44 q182 0 317 -111.5 q135 -111.5 182 -287.5 l-188 0 q-40 104 -119 164.5 q-79 60.5 -194 60.5 q-153 0 -261 -110.5 q-108 -110.5 -108 -268.5 q0 -154 108 -264.5 q108 -110.5 261 -110.5 q217 0 311 213 l188 0 q-51 -173 -183 -280 q-132 -107 -314 -107 ZM229 1192 l283 369 l176 0 l285 -369 l-162 0 l-209 254 l-211 -254 l-162 0 Z" /><glyph glyph-name="Cdotaccent" unicode="&#x10a;" d="M111 711 q0 150 58 285 q58 135 157 232 q99 97 236 154.5 q137 57.5 288 57.5 q231 0 410.5 -143 q179.5 -143 246.5 -371 l-204 0 q-54 151 -176.5 238 q-122.5 87 -276.5 87 q-153 0 -276.5 -71.5 q-123.5 -71.5 -193 -195 q-69.5 -123.5 -69.5 -273.5 q0 -234 153.5 -391.5 q153.5 -157.5 385.5 -157.5 q154 0 277 86.5 q123 86.5 176 238.5 l204 0 q-65 -226 -246 -370 q-181 -144 -411 -144 q-202 0 -372 98.5 q-170 98.5 -268.5 268 q-98.5 169.5 -98.5 371.5 ZM745 1763 q0 45 33 77 q33 32 80 32 q46 0 78.5 -32.5 q32.5 -32.5 32.5 -76.5 q0 -48 -33 -80 q-33 -32 -78 -32 q-48 0 -80.5 31.5 q-32.5 31.5 -32.5 80.5 Z" /><glyph glyph-name="cdotaccent" unicode="&#x10b;" d="M627 -27 q-114 0 -217 44 q-103 44 -177.5 118 q-74.5 74 -118.5 175.5 q-44 101.5 -44 213.5 q0 112 44 213.5 q44 101.5 118.5 175.5 q74.5 74 177.5 118 q103 44 217 44 q182 0 317 -111.5 q135 -111.5 182 -287.5 l-188 0 q-40 104 -119 164.5 q-79 60.5 -194 60.5 q-153 0 -261 -110.5 q-108 -110.5 -108 -268.5 q0 -154 108 -264.5 q108 -110.5 261 -110.5 q217 0 311 213 l188 0 q-51 -173 -183 -280 q-132 -107 -314 -107 ZM489 1395 q0 44 33 76 q33 32 80 32 q46 0 78.5 -32 q32.5 -32 32.5 -76 q0 -48 -33 -80.5 q-33 -32.5 -78 -32.5 q-48 0 -80.5 32 q-32.5 32 -32.5 81 Z" /><glyph glyph-name="Ccaron" unicode="&#x10c;" d="M111 711 q0 150 58 285 q58 135 157 232 q99 97 236 154.5 q137 57.5 288 57.5 q231 0 410.5 -143 q179.5 -143 246.5 -371 l-204 0 q-54 151 -176.5 238 q-122.5 87 -276.5 87 q-153 0 -276.5 -71.5 q-123.5 -71.5 -193 -195 q-69.5 -123.5 -69.5 -273.5 q0 -234 153.5 -391.5 q153.5 -157.5 385.5 -157.5 q154 0 277 86.5 q123 86.5 176 238.5 l204 0 q-65 -226 -246 -370 q-181 -144 -411 -144 q-202 0 -372 98.5 q-170 98.5 -268.5 268 q-98.5 169.5 -98.5 371.5 ZM483 1853 l166 0 l209 -211 l207 211 l168 0 l-285 -315 l-182 0 l-283 315 Z" /><glyph glyph-name="ccaron" unicode="&#x10d;" d="M627 -27 q-114 0 -217 44 q-103 44 -177.5 118 q-74.5 74 -118.5 175.5 q-44 101.5 -44 213.5 q0 112 44 213.5 q44 101.5 118.5 175.5 q74.5 74 177.5 118 q103 44 217 44 q182 0 317 -111.5 q135 -111.5 182 -287.5 l-188 0 q-40 104 -119 164.5 q-79 60.5 -194 60.5 q-153 0 -261 -110.5 q-108 -110.5 -108 -268.5 q0 -154 108 -264.5 q108 -110.5 261 -110.5 q217 0 311 213 l188 0 q-51 -173 -183 -280 q-132 -107 -314 -107 ZM227 1550 l162 0 l211 -254 l209 254 l162 0 l-285 -368 l-176 0 l-283 368 Z" /><glyph glyph-name="Dcaron" unicode="&#x10e;" d="M406 1235 l0 -1057 l294 0 q260 0 418 147 q158 147 158 382 q0 233 -158 380.5 q-158 147.5 -418 147.5 l-294 0 ZM719 0 l-508 0 l0 1413 l508 0 q218 0 390.5 -89.5 q172.5 -89.5 269 -251 q96.5 -161.5 96.5 -365.5 q0 -205 -96.5 -366.5 q-96.5 -161.5 -268.5 -251 q-172 -89.5 -391 -89.5 ZM651 1538 l-282 315 l166 0 l208 -211 l207 211 l168 0 l-284 -315 l-183 0 Z" /><glyph glyph-name="dcaron" unicode="&#x10f;" d="M258 524 q0 -156 108 -265 q108 -109 261 -109 q148 0 255 109.5 q107 109.5 107 264.5 q0 153 -107 263 q-107 110 -255 110 q-153 0 -261 -109.5 q-108 -109.5 -108 -263.5 ZM1171 0 l-182 0 l0 207 q-63 -110 -164.5 -173 q-101.5 -63 -224.5 -63 q-106 0 -203.5 44 q-97.5 44 -169 118 q-71.5 74 -114.5 176.5 q-43 102.5 -43 214.5 q0 112 43 214.5 q43 102.5 114.5 176.5 q71.5 74 169 118 q97.5 44 203.5 44 q124 0 225 -62.5 q101 -62.5 164 -172.5 l0 653 l182 0 l0 -1495 ZM1456 1137 l-137 0 l88 512 l176 0 l-127 -512 Z" /><glyph glyph-name="Dcroat" unicode="&#x110;" d="M467 631 l0 -453 l295 0 q260 0 417.5 147 q157.5 147 157.5 382 q0 233 -157.5 380.5 q-157.5 147.5 -417.5 147.5 l-295 0 l0 -422 l471 0 l0 -182 l-471 0 ZM780 0 l-508 0 l0 631 l-155 0 l0 182 l155 0 l0 600 l508 0 q218 0 390.5 -89.5 q172.5 -89.5 269 -251 q96.5 -161.5 96.5 -365.5 q0 -205 -96.5 -366.5 q-96.5 -161.5 -268.5 -251 q-172 -89.5 -391 -89.5 Z" /><glyph glyph-name="dcroat" unicode="&#x111;" d="M258 524 q0 -156 108 -265 q108 -109 261 -109 q148 0 255 109.5 q107 109.5 107 264.5 q0 153 -107 263 q-107 110 -255 110 q-153 0 -261 -109.5 q-108 -109.5 -108 -263.5 ZM1171 0 l-182 0 l0 207 q-63 -110 -164.5 -173 q-101.5 -63 -224.5 -63 q-106 0 -203.5 44 q-97.5 44 -169 118 q-71.5 74 -114.5 176.5 q-43 102.5 -43 214.5 q0 112 43 214.5 q43 102.5 114.5 176.5 q71.5 74 169 118 q97.5 44 203.5 44 q124 0 225 -62.5 q101 -62.5 164 -172.5 l0 381 l-448 0 l0 151 l448 0 l0 121 l182 0 l0 -121 l123 0 l0 -151 l-123 0 l0 -1223 Z" /><glyph glyph-name="Emacron" unicode="&#x112;" d="M211 1413 l975 0 l0 -182 l-780 0 l0 -402 l665 0 l0 -180 l-665 0 l0 -467 l780 0 l0 -182 l-975 0 l0 1413 ZM403 1581 l0 154 l695 0 l0 -154 l-695 0 Z" /><glyph glyph-name="emacron" unicode="&#x113;" d="M262 612 l678 0 q-24 129 -107 209 q-83 80 -210 80 q-129 0 -229.5 -81.5 q-100.5 -81.5 -131.5 -207.5 ZM625 -27 q-112 0 -214 42.5 q-102 42.5 -176.5 115.5 q-74.5 73 -119 175 q-44.5 102 -45.5 216 q0 113 44 215.5 q44 102.5 119 176.5 q75 74 178 117.5 q103 43.5 216 43.5 q225 -2 372 -168.5 q147 -166.5 134 -427.5 l-879 -2 q19 -140 124.5 -236 q105.5 -96 246.5 -96 q208 0 311 185 l182 0 q-50 -164 -186 -260.5 q-136 -96.5 -307 -96.5 ZM975 1331 l-694 0 l0 156 l694 0 l0 -156 Z" /><glyph glyph-name="Ebreve" unicode="&#x114;" d="M211 1413 l975 0 l0 -182 l-780 0 l0 -402 l665 0 l0 -180 l-665 0 l0 -467 l780 0 l0 -182 l-975 0 l0 1413 ZM406 1884 l149 0 q0 -83 53 -138.5 q53 -55.5 144 -55.5 q90 0 142 55.5 q52 55.5 52 138.5 l154 0 q1 -56 -20.5 -113.5 q-21.5 -57.5 -62.5 -107.5 q-41 -50 -110.5 -81.5 q-69.5 -31.5 -154.5 -31.5 q-86 0 -154.5 31.5 q-68.5 31.5 -109 81.5 q-40.5 50 -61.5 107 q-21 57 -21 114 Z" /><glyph glyph-name="ebreve" unicode="&#x115;" d="M262 612 l678 0 q-24 129 -107 209 q-83 80 -210 80 q-129 0 -229.5 -81.5 q-100.5 -81.5 -131.5 -207.5 ZM625 -27 q-112 0 -214 42.5 q-102 42.5 -176.5 115.5 q-74.5 73 -119 175 q-44.5 102 -45.5 216 q0 113 44 215.5 q44 102.5 119 176.5 q75 74 178 117.5 q103 43.5 216 43.5 q225 -2 372 -168.5 q147 -166.5 134 -427.5 l-879 -2 q19 -140 124.5 -236 q105.5 -96 246.5 -96 q208 0 311 185 l182 0 q-50 -164 -186 -260.5 q-136 -96.5 -307 -96.5 ZM283 1589 l157 0 q0 -97 50.5 -152 q50.5 -55 138.5 -55 q88 0 138 55 q50 55 50 152 l160 0 q0 -63 -21.5 -121.5 q-21.5 -58.5 -62.5 -108 q-41 -49.5 -109.5 -79 q-68.5 -29.5 -154.5 -29.5 q-85 0 -153 29.5 q-68 29.5 -109 79 q-41 49.5 -62.5 108 q-21.5 58.5 -21.5 121.5 Z" /><glyph glyph-name="Edotaccent" unicode="&#x116;" d="M211 1413 l975 0 l0 -182 l-780 0 l0 -402 l665 0 l0 -180 l-665 0 l0 -467 l780 0 l0 -182 l-975 0 l0 1413 ZM639 1763 q0 45 33 77 q33 32 80 32 q46 0 78 -32 q32 -32 32 -77 q0 -48 -32.5 -80 q-32.5 -32 -77.5 -32 q-48 0 -80.5 31.5 q-32.5 31.5 -32.5 80.5 Z" /><glyph glyph-name="edotaccent" unicode="&#x117;" d="M262 612 l678 0 q-24 129 -107 209 q-83 80 -210 80 q-129 0 -229.5 -81.5 q-100.5 -81.5 -131.5 -207.5 ZM625 -27 q-112 0 -214 42.5 q-102 42.5 -176.5 115.5 q-74.5 73 -119 175 q-44.5 102 -45.5 216 q0 113 44 215.5 q44 102.5 119 176.5 q75 74 178 117.5 q103 43.5 216 43.5 q225 -2 372 -168.5 q147 -166.5 134 -427.5 l-879 -2 q19 -140 124.5 -236 q105.5 -96 246.5 -96 q208 0 311 185 l182 0 q-50 -164 -186 -260.5 q-136 -96.5 -307 -96.5 ZM516 1395 q0 44 33 76 q33 32 80 32 q46 0 78 -32 q32 -32 32 -76 q0 -49 -32.5 -81 q-32.5 -32 -77.5 -32 q-48 0 -80.5 32 q-32.5 32 -32.5 81 Z" /><glyph glyph-name="Eogonek" unicode="&#x118;" d="M211 1413 l975 0 l0 -182 l-780 0 l0 -402 l665 0 l0 -180 l-665 0 l0 -467 l780 0 l0 -121 l41 -61 q-121 -47 -197 -108.5 q-76 -61.5 -76 -118.5 q0 -36 28 -56 q28 -20 83 -20 q85 0 152 27 l0 -146 q-82 -29 -185 -29 q-107 0 -173 46.5 q-66 46.5 -66 146.5 q0 140 198 258 l-780 0 l0 1413 Z" /><glyph glyph-name="eogonek" unicode="&#x119;" d="M262 612 l678 0 q-24 129 -107 209 q-83 80 -210 80 q-129 0 -229.5 -81.5 q-100.5 -81.5 -131.5 -207.5 ZM70 522 q0 113 44 215.5 q44 102.5 119 176.5 q75 74 178 117.5 q103 43.5 216 43.5 q225 -2 372 -168.5 q147 -166.5 134 -427.5 l-879 -2 q19 -140 124.5 -236 q105.5 -96 246.5 -96 q208 0 311 185 l182 0 q-36 -120 -119.5 -204.5 q-83.5 -84.5 -197.5 -123.5 q-95 -44 -144 -100.5 q-49 -56.5 -49 -114.5 q0 -44 26.5 -68 q26.5 -24 74.5 -24 q70 0 133 29 l0 -152 q-74 -23 -158 -23 q-100 0 -166.5 54 q-66.5 54 -66.5 157 q0 119 106 217 q-100 12 -189.5 59 q-89.5 47 -154.5 118 q-65 71 -103.5 166.5 q-38.5 95.5 -39.5 201.5 Z" /><glyph glyph-name="Ecaron" unicode="&#x11a;" d="M211 1413 l975 0 l0 -182 l-780 0 l0 -402 l665 0 l0 -180 l-665 0 l0 -467 l780 0 l0 -182 l-975 0 l0 1413 ZM377 1853 l166 0 l209 -211 l206 211 l168 0 l-284 -315 l-183 0 l-282 315 Z" /><glyph glyph-name="ecaron" unicode="&#x11b;" d="M262 612 l678 0 q-24 129 -107 209 q-83 80 -210 80 q-129 0 -229.5 -81.5 q-100.5 -81.5 -131.5 -207.5 ZM625 -27 q-112 0 -214 42.5 q-102 42.5 -176.5 115.5 q-74.5 73 -119 175 q-44.5 102 -45.5 216 q0 113 44 215.5 q44 102.5 119 176.5 q75 74 178 117.5 q103 43.5 216 43.5 q225 -2 372 -168.5 q147 -166.5 134 -427.5 l-879 -2 q19 -140 124.5 -236 q105.5 -96 246.5 -96 q208 0 311 185 l182 0 q-50 -164 -186 -260.5 q-136 -96.5 -307 -96.5 ZM537 1182 l-283 368 l162 0 l211 -254 l209 254 l161 0 l-284 -368 l-176 0 Z" /><glyph glyph-name="Gcircumflex" unicode="&#x11c;" d="M848 -27 q-150 0 -286.5 58 q-136.5 58 -235.5 156.5 q-99 98.5 -157 235.5 q-58 137 -58 288 q0 150 58 285 q58 135 157 232 q99 97 236 154.5 q137 57.5 288 57.5 q226 0 403 -134.5 q177 -134.5 242 -351.5 l-213 0 q-51 140 -169.5 218.5 q-118.5 78.5 -262.5 78.5 q-153 0 -276.5 -71.5 q-123.5 -71.5 -193 -195 q-69.5 -123.5 -69.5 -273.5 q0 -234 153.5 -391.5 q153.5 -157.5 385.5 -157.5 q131 0 253 41.5 q122 41.5 206 115.5 l0 281 l-482 0 l0 166 l674 0 l0 -766 l-160 0 l-18 135 q-206 -162 -475 -162 ZM469 1536 l283 315 l182 0 l285 -315 l-168 0 l-207 211 l-209 -211 l-166 0 Z" /><glyph glyph-name="gcircumflex" unicode="&#x11d;" d="M350.5 812 q-92.5 -99 -92.5 -245 q0 -146 92 -243 q92 -97 234 -97 q141 0 234 95.5 q93 95.5 93 240.5 q0 147 -93.5 247.5 q-93.5 100.5 -233.5 100.5 q-141 0 -233.5 -99 ZM584 -375 q-192 0 -324.5 99.5 q-132.5 99.5 -169.5 273.5 l195 0 q25 -101 101 -155 q76 -54 198 -54 q156 0 241.5 101 q85.5 101 85.5 298 l0 93 q-55 -101 -148.5 -158 q-93.5 -57 -213.5 -57 q-200 0 -338.5 144 q-138.5 144 -138.5 357 q0 139 63.5 255.5 q63.5 116.5 173 183.5 q109.5 67 240.5 67 q120 0 213 -59.5 q93 -59.5 149 -163.5 l0 194 l183 0 l0 -849 q0 -140 -38 -249.5 q-38 -109.5 -106.5 -179 q-68.5 -69.5 -161 -105.5 q-92.5 -36 -204.5 -36 ZM416 1192 l-162 0 l283 369 l176 0 l284 -369 l-161 0 l-209 254 l-211 -254 Z" /><glyph glyph-name="Gbreve" unicode="&#x11e;" d="M848 -27 q-150 0 -286.5 58 q-136.5 58 -235.5 156.5 q-99 98.5 -157 235.5 q-58 137 -58 288 q0 150 58 285 q58 135 157 232 q99 97 236 154.5 q137 57.5 288 57.5 q226 0 403 -134.5 q177 -134.5 242 -351.5 l-213 0 q-51 140 -169.5 218.5 q-118.5 78.5 -262.5 78.5 q-153 0 -276.5 -71.5 q-123.5 -71.5 -193 -195 q-69.5 -123.5 -69.5 -273.5 q0 -234 153.5 -391.5 q153.5 -157.5 385.5 -157.5 q131 0 253 41.5 q122 41.5 206 115.5 l0 281 l-482 0 l0 166 l674 0 l0 -766 l-160 0 l-18 135 q-206 -162 -475 -162 ZM498 1884 l149 0 q0 -83 53 -138.5 q53 -55.5 144 -55.5 q90 0 142 55.5 q52 55.5 52 138.5 l154 0 q1 -56 -20.5 -113.5 q-21.5 -57.5 -62.5 -107.5 q-41 -50 -110.5 -81.5 q-69.5 -31.5 -154.5 -31.5 q-86 0 -154.5 31.5 q-68.5 31.5 -109 81.5 q-40.5 50 -61.5 107 q-21 57 -21 114 Z" /><glyph glyph-name="gbreve" unicode="&#x11f;" d="M350.5 812 q-92.5 -99 -92.5 -245 q0 -146 92 -243 q92 -97 234 -97 q141 0 234 95.5 q93 95.5 93 240.5 q0 147 -93.5 247.5 q-93.5 100.5 -233.5 100.5 q-141 0 -233.5 -99 ZM584 -375 q-192 0 -324.5 99.5 q-132.5 99.5 -169.5 273.5 l195 0 q25 -101 101 -155 q76 -54 198 -54 q156 0 241.5 101 q85.5 101 85.5 298 l0 93 q-55 -101 -148.5 -158 q-93.5 -57 -213.5 -57 q-200 0 -338.5 144 q-138.5 144 -138.5 357 q0 139 63.5 255.5 q63.5 116.5 173 183.5 q109.5 67 240.5 67 q120 0 213 -59.5 q93 -59.5 149 -163.5 l0 194 l183 0 l0 -849 q0 -140 -38 -249.5 q-38 -109.5 -106.5 -179 q-68.5 -69.5 -161 -105.5 q-92.5 -36 -204.5 -36 ZM281 1589 l157 0 q0 -97 50.5 -152 q50.5 -55 138.5 -55 q88 0 138 55 q50 55 50 152 l160 0 q0 -63 -21.5 -121.5 q-21.5 -58.5 -62.5 -108 q-41 -49.5 -109.5 -79 q-68.5 -29.5 -154.5 -29.5 q-85 0 -153 29.5 q-68 29.5 -109 79 q-41 49.5 -62.5 108 q-21.5 58.5 -21.5 121.5 Z" /><glyph glyph-name="Gdotaccent" unicode="&#x120;" d="M848 -27 q-150 0 -286.5 58 q-136.5 58 -235.5 156.5 q-99 98.5 -157 235.5 q-58 137 -58 288 q0 150 58 285 q58 135 157 232 q99 97 236 154.5 q137 57.5 288 57.5 q226 0 403 -134.5 q177 -134.5 242 -351.5 l-213 0 q-51 140 -169.5 218.5 q-118.5 78.5 -262.5 78.5 q-153 0 -276.5 -71.5 q-123.5 -71.5 -193 -195 q-69.5 -123.5 -69.5 -273.5 q0 -234 153.5 -391.5 q153.5 -157.5 385.5 -157.5 q131 0 253 41.5 q122 41.5 206 115.5 l0 281 l-482 0 l0 166 l674 0 l0 -766 l-160 0 l-18 135 q-206 -162 -475 -162 ZM729 1763 q0 45 33 77 q33 32 80 32 q46 0 78 -32 q32 -32 32 -77 q0 -48 -32.5 -80 q-32.5 -32 -77.5 -32 q-48 0 -80.5 31.5 q-32.5 31.5 -32.5 80.5 Z" /><glyph glyph-name="gdotaccent" unicode="&#x121;" d="M350.5 812 q-92.5 -99 -92.5 -245 q0 -146 92 -243 q92 -97 234 -97 q141 0 234 95.5 q93 95.5 93 240.5 q0 147 -93.5 247.5 q-93.5 100.5 -233.5 100.5 q-141 0 -233.5 -99 ZM584 -375 q-192 0 -324.5 99.5 q-132.5 99.5 -169.5 273.5 l195 0 q25 -101 101 -155 q76 -54 198 -54 q156 0 241.5 101 q85.5 101 85.5 298 l0 93 q-55 -101 -148.5 -158 q-93.5 -57 -213.5 -57 q-200 0 -338.5 144 q-138.5 144 -138.5 357 q0 139 63.5 255.5 q63.5 116.5 173 183.5 q109.5 67 240.5 67 q120 0 213 -59.5 q93 -59.5 149 -163.5 l0 194 l183 0 l0 -849 q0 -140 -38 -249.5 q-38 -109.5 -106.5 -179 q-68.5 -69.5 -161 -105.5 q-92.5 -36 -204.5 -36 ZM514 1395 q0 44 33 76 q33 32 80 32 q46 0 78 -32 q32 -32 32 -76 q0 -49 -32.5 -81 q-32.5 -32 -77.5 -32 q-48 0 -80.5 32 q-32.5 32 -32.5 81 Z" /><glyph glyph-name="uni0122" unicode="&#x122;" d="M848 -27 q-150 0 -286.5 58 q-136.5 58 -235.5 156.5 q-99 98.5 -157 235.5 q-58 137 -58 288 q0 150 58 285 q58 135 157 232 q99 97 236 154.5 q137 57.5 288 57.5 q226 0 403 -134.5 q177 -134.5 242 -351.5 l-213 0 q-51 140 -169.5 218.5 q-118.5 78.5 -262.5 78.5 q-153 0 -276.5 -71.5 q-123.5 -71.5 -193 -195 q-69.5 -123.5 -69.5 -273.5 q0 -234 153.5 -391.5 q153.5 -157.5 385.5 -157.5 q131 0 253 41.5 q122 41.5 206 115.5 l0 281 l-482 0 l0 166 l674 0 l0 -766 l-160 0 l-18 135 q-206 -162 -475 -162 ZM629 -582 l121 445 l200 0 l-188 -445 l-133 0 Z" /><glyph glyph-name="uni0123" unicode="&#x123;" d="M350.5 812 q-92.5 -99 -92.5 -245 q0 -146 92 -243 q92 -97 234 -97 q141 0 234 95.5 q93 95.5 93 240.5 q0 147 -93.5 247.5 q-93.5 100.5 -233.5 100.5 q-141 0 -233.5 -99 ZM584 -375 q-192 0 -324.5 99.5 q-132.5 99.5 -169.5 273.5 l195 0 q25 -101 101 -155 q76 -54 198 -54 q156 0 241.5 101 q85.5 101 85.5 298 l0 93 q-55 -101 -148.5 -158 q-93.5 -57 -213.5 -57 q-200 0 -338.5 144 q-138.5 144 -138.5 357 q0 139 63.5 255.5 q63.5 116.5 173 183.5 q109.5 67 240.5 67 q120 0 213 -59.5 q93 -59.5 149 -163.5 l0 194 l183 0 l0 -849 q0 -140 -38 -249.5 q-38 -109.5 -106.5 -179 q-68.5 -69.5 -161 -105.5 q-92.5 -36 -204.5 -36 ZM709 1204 l-170 0 l180 383 l119 0 l-129 -383 Z" /><glyph glyph-name="Hcircumflex" unicode="&#x124;" d="M211 1413 l195 0 l0 -582 l786 0 l0 582 l194 0 l0 -1413 l-194 0 l0 649 l-786 0 l0 -649 l-195 0 l0 1413 ZM426 1536 l283 315 l182 0 l285 -315 l-168 0 l-207 211 l-209 -211 l-166 0 Z" /><glyph glyph-name="hcircumflex" unicode="&#x125;" d="M156 1495 l184 0 l0 -641 q47 100 140 158.5 q93 58.5 206 58.5 q58 0 110 -15 q52 -15 99.5 -49 q47.5 -34 82 -85 q34.5 -51 55 -127.5 q20.5 -76.5 20.5 -171.5 l0 -623 l-183 0 l0 600 q0 305 -233 305 q-113 0 -198.5 -79.5 q-85.5 -79.5 -98.5 -231.5 l0 -594 l-184 0 l0 1495 ZM-121 1620 l283 315 l182 0 l285 -315 l-168 0 l-207 211 l-209 -211 l-166 0 Z" /><glyph glyph-name="Hbar" unicode="&#x126;" d="M406 1102 l0 -271 l786 0 l0 271 l-786 0 ZM49 1102 l0 151 l162 0 l0 160 l195 0 l0 -160 l786 0 l0 160 l194 0 l0 -160 l162 0 l0 -151 l-162 0 l0 -1102 l-194 0 l0 649 l-786 0 l0 -649 l-195 0 l0 1102 l-162 0 Z" /><glyph glyph-name="hbar" unicode="&#x127;" d="M764 1206 l-420 0 l0 -352 q47 100 140 158.5 q93 58.5 206 58.5 q58 0 110 -15 q52 -15 99.5 -49 q47.5 -34 82 -85 q34.5 -51 55 -127.5 q20.5 -76.5 20.5 -171.5 l0 -623 l-183 0 l0 600 q0 305 -233 305 q-113 0 -198.5 -79.5 q-85.5 -79.5 -98.5 -231.5 l0 -594 l-184 0 l0 1206 l-140 0 l0 154 l140 0 l0 135 l184 0 l0 -135 l420 0 l0 -154 Z" /><glyph glyph-name="Itilde" unicode="&#x128;" d="M211 1413 l195 0 l0 -1413 l-195 0 l0 1413 ZM-37 1561 l0 157 q75 60 180 60 q65 0 122.5 -22 q57.5 -22 108 -44 q50.5 -22 99.5 -22 q95 0 176 71 l2 -159 q-78 -60 -186 -60 q-61 0 -119.5 22 q-58.5 22 -110.5 44 q-52 22 -98 22 q-91 0 -174 -69 Z" /><glyph glyph-name="itilde" unicode="&#x129;" d="M193 0 l0 1044 l182 0 l0 -1044 l-182 0 ZM-70 1346 l0 167 q69 54 168 54 q56 0 110.5 -18.5 q54.5 -18.5 90.5 -41 q36 -22.5 85.5 -41 q49.5 -18.5 96.5 -18.5 q74 0 148 61 l2 -163 q-74 -48 -158 -48 q-54 0 -109 19 q-55 19 -92.5 41.5 q-37.5 22.5 -87.5 41.5 q-50 19 -96 19 q-91 0 -158 -73 Z" /><glyph glyph-name="Imacron" unicode="&#x12a;" d="M211 1413 l195 0 l0 -1413 l-195 0 l0 1413 ZM-41 1581 l0 154 l694 0 l0 -154 l-694 0 Z" /><glyph glyph-name="imacron" unicode="&#x12b;" d="M193 0 l0 1044 l182 0 l0 -1044 l-182 0 ZM18 1331 l0 156 l533 0 l0 -156 l-533 0 Z" /><glyph glyph-name="Ibreve" unicode="&#x12c;" d="M211 1413 l195 0 l0 -1413 l-195 0 l0 1413 ZM-39 1884 l150 0 q0 -83 52.5 -138.5 q52.5 -55.5 143.5 -55.5 q91 0 143 55.5 q52 55.5 52 138.5 l153 0 q1 -56 -20.5 -113.5 q-21.5 -57.5 -62.5 -107.5 q-41 -50 -110.5 -81.5 q-69.5 -31.5 -154.5 -31.5 q-86 0 -154.5 31.5 q-68.5 31.5 -109 81.5 q-40.5 50 -61.5 107 q-21 57 -21 114 Z" /><glyph glyph-name="ibreve" unicode="&#x12d;" d="M193 0 l0 1044 l182 0 l0 -1044 l-182 0 ZM-59 1589 l157 0 q0 -97 50.5 -152 q50.5 -55 138.5 -55 q88 0 138 55 q50 55 50 152 l160 0 q0 -63 -21.5 -121.5 q-21.5 -58.5 -62.5 -108 q-41 -49.5 -109.5 -79 q-68.5 -29.5 -154.5 -29.5 q-85 0 -153 29.5 q-68 29.5 -109 79 q-41 49.5 -62.5 108 q-21.5 58.5 -21.5 121.5 Z" /><glyph glyph-name="Iogonek" unicode="&#x12e;" d="M211 1413 l195 0 l0 -1413 l-5 0 q-121 -47 -196.5 -108.5 q-75.5 -61.5 -75.5 -118.5 q0 -36 28 -56 q28 -20 83 -20 q84 0 151 27 l0 -146 q-82 -29 -184 -29 q-107 0 -173.5 46.5 q-66.5 46.5 -66.5 146.5 q0 81 66 153.5 q66 72.5 178 129.5 l0 1388 Z" /><glyph glyph-name="iogonek" unicode="&#x12f;" d="M287 1282 q-48 0 -80.5 32 q-32.5 32 -32.5 81 q0 44 33 76 q33 32 80 32 q46 0 78 -32 q32 -32 32 -76 q0 -49 -32.5 -81 q-32.5 -32 -77.5 -32 ZM-27 -264 q0 171 220 297 l0 1011 l182 0 l0 -1044 q-120 -48 -182 -111 q-62 -63 -62 -127 q0 -44 26.5 -68 q26.5 -24 73.5 -24 q71 0 134 29 l0 -152 q-71 -22 -158 -22 q-101 0 -167.5 54 q-66.5 54 -66.5 157 Z" /><glyph glyph-name="Idotaccent" unicode="&#x130;" d="M211 1413 l195 0 l0 -1413 l-195 0 l0 1413 ZM195 1763 q0 45 32.5 77 q32.5 32 79.5 32 q46 0 78.5 -32.5 q32.5 -32.5 32.5 -76.5 q0 -48 -33 -80 q-33 -32 -78 -32 q-48 0 -80 31.5 q-32 31.5 -32 80.5 Z" /><glyph glyph-name="dotlessi" unicode="&#x131;" d="M193 0 l0 1044 l182 0 l0 -1044 l-182 0 Z" /><glyph glyph-name="IJ" unicode="&#x132;" d="M930 -27 q-168 0 -297 54 l0 200 q75 -37 135.5 -51 q60.5 -14 146.5 -14 q312 0 312 385 l0 866 l194 0 l0 -874 q0 -280 -131 -423 q-131 -143 -360 -143 ZM211 0 l0 1413 l195 0 l0 -1413 l-195 0 Z" /><glyph glyph-name="ij" unicode="&#x133;" d="M164 0 l0 1044 l182 0 l0 -1044 l-182 0 ZM133 1389 q0 51 36 85.5 q36 34.5 87 34.5 q50 0 85.5 -34.5 q35.5 -34.5 35.5 -85.5 q0 -49 -35.5 -85 q-35.5 -36 -85.5 -36 q-51 0 -87 35.5 q-36 35.5 -36 85.5 ZM479 -365 l0 166 q35 -6 60 -6 q79 0 110 48.5 q31 48.5 31 138.5 l0 1065 l182 0 l0 -1057 q0 -189 -70.5 -274 q-70.5 -85 -230.5 -85 q-24 0 -82 4 ZM645 1389 q0 51 36 85.5 q36 34.5 87 34.5 q50 0 85.5 -34.5 q35.5 -34.5 35.5 -85.5 q0 -49 -35.5 -85 q-35.5 -36 -85.5 -36 q-51 0 -87 35.5 q-36 35.5 -36 85.5 Z" /><glyph glyph-name="Jcircumflex" unicode="&#x134;" d="M682 559 l0 854 l192 0 l0 -854 q0 -293 -131 -439.5 q-131 -146.5 -366 -146.5 q-171 0 -299 60 l0 203 q75 -41 139 -57.5 q64 -16.5 150 -16.5 q159 0 237 98 q78 98 78 299 ZM410 1536 l282 315 l182 0 l285 -315 l-168 0 l-207 211 l-209 -211 l-165 0 Z" /><glyph glyph-name="jcircumflex" unicode="&#x135;" d="M193 -369 l0 1413 l182 0 l0 -1413 l-182 0 ZM-86 1192 l283 369 l176 0 l284 -369 l-161 0 l-209 254 l-211 -254 l-162 0 Z" /><glyph glyph-name="uni0136" unicode="&#x136;" d="M211 1413 l195 0 l0 -651 l655 651 l252 0 l-678 -668 l704 -745 l-249 0 l-684 729 l0 -729 l-195 0 l0 1413 ZM502 -582 l121 445 l200 0 l-188 -445 l-133 0 Z" /><glyph glyph-name="uni0137" unicode="&#x137;" d="M819 0 l-479 526 l0 -526 l-184 0 l0 1479 l184 0 l0 -912 l477 480 l240 0 l-502 -486 l494 -561 l-230 0 ZM365 -520 l129 383 l170 0 l-181 -383 l-118 0 Z" /><glyph glyph-name="kgreenlandic" unicode="&#x138;" d="M164 1047 l184 0 l0 -482 l496 482 l241 0 l-524 -486 l514 -561 l-235 0 l-492 528 l0 -528 l-184 0 l0 1047 Z" /><glyph glyph-name="Lacute" unicode="&#x139;" d="M211 0 l0 1413 l195 0 l0 -1231 l778 0 l0 -182 l-973 0 ZM156 1536 l307 260 l239 0 l-344 -260 l-202 0 Z" /><glyph glyph-name="lacute" unicode="&#x13a;" d="M156 1495 l184 0 l0 -1495 l-184 0 l0 1495 ZM74 1708 l307 260 l240 0 l-345 -260 l-202 0 Z" /><glyph glyph-name="uni013B" unicode="&#x13b;" d="M211 0 l0 1413 l195 0 l0 -1231 l778 0 l0 -182 l-973 0 ZM524 -582 l121 445 l201 0 l-189 -445 l-133 0 Z" /><glyph glyph-name="uni013C" unicode="&#x13c;" d="M156 1495 l184 0 l0 -1495 l-184 0 l0 1495 ZM49 -520 l129 383 l170 0 l-180 -383 l-119 0 Z" /><glyph glyph-name="Lcaron" unicode="&#x13d;" d="M211 0 l0 1413 l195 0 l0 -1231 l778 0 l0 -182 l-973 0 ZM821 965 l88 512 l176 0 l-127 -512 l-137 0 Z" /><glyph glyph-name="lcaron" unicode="&#x13e;" d="M156 1495 l184 0 l0 -1495 l-184 0 l0 1495 ZM-123 2091 l162 0 l211 -254 l209 254 l162 0 l-285 -369 l-176 0 l-283 369 Z" /><glyph glyph-name="Ldot" unicode="&#x13f;" d="M211 0 l0 1413 l195 0 l0 -1231 l778 0 l0 -182 l-973 0 ZM784 864 q0 56 38.5 95.5 q38.5 39.5 92.5 39.5 q55 0 93.5 -39.5 q38.5 -39.5 38.5 -95.5 q0 -52 -38.5 -90.5 q-38.5 -38.5 -93.5 -38.5 q-52 0 -91.5 39 q-39.5 39 -39.5 90 Z" /><glyph glyph-name="ldot" unicode="&#x140;" d="M156 1495 l184 0 l0 -1495 l-184 0 l0 1495 ZM565 754 q0 56 38.5 95.5 q38.5 39.5 92.5 39.5 q55 0 93 -39.5 q38 -39.5 38 -95.5 q0 -52 -38 -90.5 q-38 -38.5 -93 -38.5 q-52 0 -91.5 39 q-39.5 39 -39.5 90 Z" /><glyph glyph-name="Lslash" unicode="&#x141;" d="M987 846 l-530 -94 l0 -570 l778 0 l0 -182 l-973 0 l0 717 l-235 -43 l0 157 l235 43 l0 539 l195 0 l0 -504 l530 95 l0 -158 Z" /><glyph glyph-name="lslash" unicode="&#x142;" d="M580 905 l-189 -84 l0 -821 l-184 0 l0 741 l-166 -73 l0 172 l166 71 l0 584 l184 0 l0 -502 l189 82 l0 -170 Z" /><glyph glyph-name="Nacute" unicode="&#x143;" d="M1149 0 l-750 1151 l0 -1151 l-188 0 l0 1413 l244 0 l725 -1110 l0 1110 l190 0 l0 -1413 l-221 0 ZM655 1536 l308 260 l239 0 l-344 -260 l-203 0 Z" /><glyph glyph-name="nacute" unicode="&#x144;" d="M164 1047 l184 0 l0 -195 q53 102 144 163.5 q91 61.5 202 61.5 q78 0 142 -25 q64 -25 114.5 -78 q50.5 -53 78.5 -145 q28 -92 28 -217 l0 -612 l-183 0 l0 584 q0 171 -61 248 q-61 77 -178 77 q-55 0 -104.5 -22 q-49.5 -22 -91 -64.5 q-41.5 -42.5 -66 -114 q-24.5 -71.5 -25.5 -163.5 l0 -545 l-184 0 l0 1047 ZM500 1237 l219 358 l215 0 l-277 -358 l-157 0 Z" /><glyph glyph-name="uni0145" unicode="&#x145;" d="M1149 0 l-750 1151 l0 -1151 l-188 0 l0 1413 l244 0 l725 -1110 l0 1110 l190 0 l0 -1413 l-221 0 ZM610 -582 l121 445 l201 0 l-189 -445 l-133 0 Z" /><glyph glyph-name="uni0146" unicode="&#x146;" d="M164 1047 l184 0 l0 -195 q53 102 144 163.5 q91 61.5 202 61.5 q78 0 142 -25 q64 -25 114.5 -78 q50.5 -53 78.5 -145 q28 -92 28 -217 l0 -612 l-183 0 l0 584 q0 171 -61 248 q-61 77 -178 77 q-55 0 -104.5 -22 q-49.5 -22 -91 -64.5 q-41.5 -42.5 -66 -114 q-24.5 -71.5 -25.5 -163.5 l0 -545 l-184 0 l0 1047 ZM418 -520 l129 383 l170 0 l-180 -383 l-119 0 Z" /><glyph glyph-name="Ncaron" unicode="&#x147;" d="M1149 0 l-750 1151 l0 -1151 l-188 0 l0 1413 l244 0 l725 -1110 l0 1110 l190 0 l0 -1413 l-221 0 ZM459 1853 l166 0 l209 -211 l206 211 l168 0 l-284 -315 l-183 0 l-282 315 Z" /><glyph glyph-name="ncaron" unicode="&#x148;" d="M164 1047 l184 0 l0 -195 q53 102 144 163.5 q91 61.5 202 61.5 q78 0 142 -25 q64 -25 114.5 -78 q50.5 -53 78.5 -145 q28 -92 28 -217 l0 -612 l-183 0 l0 584 q0 171 -61 248 q-61 77 -178 77 q-55 0 -104.5 -22 q-49.5 -22 -91 -64.5 q-41.5 -42.5 -66 -114 q-24.5 -71.5 -25.5 -163.5 l0 -545 l-184 0 l0 1047 ZM223 1550 l162 0 l211 -254 l209 254 l162 0 l-285 -368 l-176 0 l-283 368 Z" /><glyph glyph-name="Eng" unicode="&#x14a;" d="M647 -131 q106 -59 254 -59 q211 0 281 176 l-781 1151 l0 -1137 l-190 0 l0 1413 l240 0 l770 -1141 l0 1141 l190 0 l0 -1186 q0 -289 -138 -442.5 q-138 -153.5 -376 -153.5 q-139 0 -252 41 l2 197 Z" /><glyph glyph-name="eng" unicode="&#x14b;" d="M756 -340 q-116 0 -219 66 l63 157 q63 -63 148 -63 q75 0 113 47 q38 47 38 158 l0 622 q0 141 -56.5 202.5 q-56.5 61.5 -168.5 61.5 q-59 0 -112.5 -21.5 q-53.5 -21.5 -97 -64 q-43.5 -42.5 -69 -112.5 q-25.5 -70 -26.5 -160 l0 -553 l-185 0 l0 1044 l185 0 l0 -192 q44 102 136 161.5 q92 59.5 202 59.5 q61 0 114 -12.5 q53 -12.5 102 -41.5 q49 -29 84 -73.5 q35 -44.5 55.5 -113.5 q20.5 -69 20.5 -156 l0 -635 q0 -192 -89 -286.5 q-89 -94.5 -238 -94.5 Z" /><glyph glyph-name="Omacron" unicode="&#x14c;" d="M1133.5 31 q-135.5 -58 -285.5 -58 q-150 0 -286.5 58 q-136.5 58 -235.5 156.5 q-99 98.5 -157 234 q-58 135.5 -58 285.5 q0 200 98.5 368.5 q98.5 168.5 268 266.5 q169.5 98 370.5 98 q200 0 368.5 -98 q168.5 -98 266.5 -266.5 q98 -168.5 98 -368.5 q0 -150 -58 -285.5 q-58 -135.5 -156 -234 q-98 -98.5 -233.5 -156.5 ZM311 707 q0 -149 71.5 -274.5 q71.5 -125.5 195 -198 q123.5 -72.5 270.5 -72.5 q146 0 269 72.5 q123 72.5 194 198 q71 125.5 71 274.5 q0 147 -71 272.5 q-71 125.5 -194 198.5 q-123 73 -269 73 q-147 0 -270.5 -72.5 q-123.5 -72.5 -195 -198 q-71.5 -125.5 -71.5 -273.5 ZM500 1581 l0 154 l694 0 l0 -154 l-694 0 Z" /><glyph glyph-name="omacron" unicode="&#x14d;" d="M627 -27 q-114 0 -217 44 q-103 44 -177.5 118.5 q-74.5 74.5 -118.5 176.5 q-44 102 -44 214 q0 111 44 212.5 q44 101.5 118.5 175 q74.5 73.5 177.5 117.5 q103 44 217 44 q149 0 276.5 -74 q127.5 -74 202 -200.5 q74.5 -126.5 74.5 -274.5 q0 -150 -74.5 -277.5 q-74.5 -127.5 -202 -201.5 q-127.5 -74 -276.5 -74 ZM258 526 q0 -157 107.5 -266.5 q107.5 -109.5 259.5 -109.5 q153 0 260.5 110 q107.5 110 107.5 266 q0 154 -108.5 263.5 q-108.5 109.5 -259.5 109.5 q-152 0 -259.5 -109.5 q-107.5 -109.5 -107.5 -263.5 ZM258 1331 l0 156 l694 0 l0 -156 l-694 0 Z" /><glyph glyph-name="Obreve" unicode="&#x14e;" d="M311 707 q0 -149 71.5 -274.5 q71.5 -125.5 195 -198 q123.5 -72.5 270.5 -72.5 q146 0 269 72.5 q123 72.5 194 198 q71 125.5 71 274.5 q0 147 -71 272.5 q-71 125.5 -194 198.5 q-123 73 -269 73 q-147 0 -270.5 -72.5 q-123.5 -72.5 -195 -198 q-71.5 -125.5 -71.5 -273.5 ZM1133.5 31 q-135.5 -58 -285.5 -58 q-150 0 -286.5 58 q-136.5 58 -235.5 156.5 q-99 98.5 -157 234 q-58 135.5 -58 285.5 q0 200 98.5 368.5 q98.5 168.5 268 266.5 q169.5 98 370.5 98 q200 0 368.5 -98 q168.5 -98 266.5 -266.5 q98 -168.5 98 -368.5 q0 -150 -58 -285.5 q-58 -135.5 -156 -234 q-98 -98.5 -233.5 -156.5 ZM504 1884 l149 0 q0 -83 53 -138.5 q53 -55.5 144 -55.5 q90 0 142 55.5 q52 55.5 52 138.5 l154 0 q1 -56 -20.5 -113.5 q-21.5 -57.5 -62.5 -107.5 q-41 -50 -110.5 -81.5 q-69.5 -31.5 -154.5 -31.5 q-86 0 -154.5 31.5 q-68.5 31.5 -109 81.5 q-40.5 50 -61.5 107 q-21 57 -21 114 Z" /><glyph glyph-name="obreve" unicode="&#x14f;" d="M258 526 q0 -157 107.5 -266.5 q107.5 -109.5 259.5 -109.5 q153 0 260.5 110 q107.5 110 107.5 266 q0 154 -108.5 263.5 q-108.5 109.5 -259.5 109.5 q-152 0 -259.5 -109.5 q-107.5 -109.5 -107.5 -263.5 ZM627 -27 q-114 0 -217 44 q-103 44 -177.5 118.5 q-74.5 74.5 -118.5 176.5 q-44 102 -44 214 q0 111 44 212.5 q44 101.5 118.5 175 q74.5 73.5 177.5 117.5 q103 44 217 44 q149 0 276.5 -74 q127.5 -74 202 -200.5 q74.5 -126.5 74.5 -274.5 q0 -150 -74.5 -277.5 q-74.5 -127.5 -202 -201.5 q-127.5 -74 -276.5 -74 ZM260 1589 l158 0 q0 -97 50 -152 q50 -55 138 -55 q88 0 138.5 55 q50.5 55 50.5 152 l159 0 q0 -63 -21.5 -121.5 q-21.5 -58.5 -62.5 -108 q-41 -49.5 -109.5 -79 q-68.5 -29.5 -154.5 -29.5 q-85 0 -153 29.5 q-68 29.5 -109 79 q-41 49.5 -62.5 108 q-21.5 58.5 -21.5 121.5 Z" /><glyph glyph-name="Ohungarumlaut" unicode="&#x150;" d="M1133.5 31 q-135.5 -58 -285.5 -58 q-150 0 -286.5 58 q-136.5 58 -235.5 156.5 q-99 98.5 -157 234 q-58 135.5 -58 285.5 q0 200 98.5 368.5 q98.5 168.5 268 266.5 q169.5 98 370.5 98 q200 0 368.5 -98 q168.5 -98 266.5 -266.5 q98 -168.5 98 -368.5 q0 -150 -58 -285.5 q-58 -135.5 -156 -234 q-98 -98.5 -233.5 -156.5 ZM311 707 q0 -149 71.5 -274.5 q71.5 -125.5 195 -198 q123.5 -72.5 270.5 -72.5 q146 0 269 72.5 q123 72.5 194 198 q71 125.5 71 274.5 q0 147 -71 272.5 q-71 125.5 -194 198.5 q-123 73 -269 73 q-147 0 -270.5 -72.5 q-123.5 -72.5 -195 -198 q-71.5 -125.5 -71.5 -273.5 ZM532 1485 l218 272 l217 0 l-256 -272 l-179 0 ZM922 1485 l254 272 l235 0 l-305 -272 l-184 0 Z" /><glyph glyph-name="ohungarumlaut" unicode="&#x151;" d="M627 -27 q-114 0 -217 44 q-103 44 -177.5 118.5 q-74.5 74.5 -118.5 176.5 q-44 102 -44 214 q0 111 44 212.5 q44 101.5 118.5 175 q74.5 73.5 177.5 117.5 q103 44 217 44 q149 0 276.5 -74 q127.5 -74 202 -200.5 q74.5 -126.5 74.5 -274.5 q0 -150 -74.5 -277.5 q-74.5 -127.5 -202 -201.5 q-127.5 -74 -276.5 -74 ZM258 526 q0 -157 107.5 -266.5 q107.5 -109.5 259.5 -109.5 q153 0 260.5 110 q107.5 110 107.5 266 q0 154 -108.5 263.5 q-108.5 109.5 -259.5 109.5 q-152 0 -259.5 -109.5 q-107.5 -109.5 -107.5 -263.5 ZM346 1237 l156 358 l205 0 l-203 -358 l-158 0 ZM698 1237 l224 358 l206 0 l-272 -358 l-158 0 Z" /><glyph glyph-name="OE" unicode="&#x152;" d="M311 705 q0 -231 157.5 -377 q157.5 -146 416.5 -146 l176 0 l0 1049 l-176 0 q-259 0 -416.5 -147 q-157.5 -147 -157.5 -379 ZM2021 0 l-1153 0 q-218 0 -391 90.5 q-173 90.5 -269.5 251.5 q-96.5 161 -96.5 365 q0 204 96.5 365.5 q96.5 161.5 269.5 251 q173 89.5 391 89.5 l1153 0 l0 -182 l-768 0 l0 -408 l654 0 l0 -164 l-654 0 l0 -477 l768 0 l0 -182 Z" /><glyph glyph-name="oe" unicode="&#x153;" d="M258 526 q0 -157 107.5 -266.5 q107.5 -109.5 259.5 -109.5 q153 0 260.5 110 q107.5 110 107.5 266 q0 154 -108.5 263.5 q-108.5 109.5 -259.5 109.5 q-152 0 -259.5 -109.5 q-107.5 -109.5 -107.5 -263.5 ZM1190 612 l678 0 q-24 128 -107.5 208.5 q-83.5 80.5 -210.5 80.5 q-129 0 -229 -81.5 q-100 -81.5 -131 -207.5 ZM627 -27 q-114 0 -217 44 q-103 44 -177.5 118.5 q-74.5 74.5 -118.5 176.5 q-44 102 -44 214 q0 111 44 212.5 q44 101.5 118.5 175 q74.5 73.5 177.5 117.5 q103 44 217 44 q142 0 264 -67.5 q122 -67.5 199 -182.5 q75 116 197.5 183 q122.5 67 266.5 67 q225 -2 372 -168.5 q147 -166.5 134 -427.5 l-878 -2 q19 -140 124 -236 q105 -96 246 -96 q209 0 312 185 l182 0 q-50 -164 -186.5 -260.5 q-136.5 -96.5 -307.5 -96.5 q-143 0 -266 67 q-123 67 -199 181 q-74 -114 -196.5 -181 q-122.5 -67 -263.5 -67 Z" /><glyph glyph-name="Racute" unicode="&#x154;" d="M406 1231 l0 -475 l389 0 q112 0 185 66.5 q73 66.5 73 166.5 q0 102 -73.5 172 q-73.5 70 -184.5 70 l-389 0 ZM406 0 l-195 0 l0 1413 l590 0 q203 0 326.5 -117 q123.5 -117 123.5 -299 q0 -172 -119 -285.5 q-119 -113.5 -315 -117.5 l553 -594 l-250 0 l-559 594 l-155 0 l0 -594 ZM856 1819 l240 0 l-344 -260 l-203 0 l307 260 Z" /><glyph glyph-name="racute" unicode="&#x155;" d="M164 1047 l176 0 l0 -218 q41 114 133.5 177 q92.5 63 237.5 53 l0 -189 q-96 8 -166 -15.5 q-70 -23.5 -112.5 -76 q-42.5 -52.5 -62.5 -127.5 q-20 -75 -20 -174 l0 -477 l-186 0 l0 1047 ZM285 1237 l219 358 l215 0 l-277 -358 l-157 0 Z" /><glyph glyph-name="uni0156" unicode="&#x156;" d="M406 1231 l0 -475 l389 0 q112 0 185 66.5 q73 66.5 73 166.5 q0 102 -73.5 172 q-73.5 70 -184.5 70 l-389 0 ZM406 0 l-195 0 l0 1413 l590 0 q203 0 326.5 -117 q123.5 -117 123.5 -299 q0 -172 -119 -285.5 q-119 -113.5 -315 -117.5 l553 -594 l-250 0 l-559 594 l-155 0 l0 -594 ZM504 -582 l121 445 l200 0 l-188 -445 l-133 0 Z" /><glyph glyph-name="uni0157" unicode="&#x157;" d="M164 1047 l176 0 l0 -218 q41 114 133.5 177 q92.5 63 237.5 53 l0 -189 q-96 8 -166 -15.5 q-70 -23.5 -112.5 -76 q-42.5 -52.5 -62.5 -127.5 q-20 -75 -20 -174 l0 -477 l-186 0 l0 1047 ZM66 -520 l129 383 l170 0 l-181 -383 l-118 0 Z" /><glyph glyph-name="Rcaron" unicode="&#x158;" d="M406 1231 l0 -475 l389 0 q112 0 185 66.5 q73 66.5 73 166.5 q0 102 -73.5 172 q-73.5 70 -184.5 70 l-389 0 ZM406 0 l-195 0 l0 1413 l590 0 q203 0 326.5 -117 q123.5 -117 123.5 -299 q0 -172 -119 -285.5 q-119 -113.5 -315 -117.5 l553 -594 l-250 0 l-559 594 l-155 0 l0 -594 ZM934 1876 l168 0 l-285 -315 l-182 0 l-283 315 l166 0 l209 -211 l207 211 Z" /><glyph glyph-name="rcaron" unicode="&#x159;" d="M164 1047 l176 0 l0 -218 q41 114 133.5 177 q92.5 63 237.5 53 l0 -189 q-96 8 -166 -15.5 q-70 -23.5 -112.5 -76 q-42.5 -52.5 -62.5 -127.5 q-20 -75 -20 -174 l0 -477 l-186 0 l0 1047 ZM8 1550 l162 0 l211 -254 l209 254 l162 0 l-285 -368 l-176 0 l-283 368 Z" /><glyph glyph-name="Sacute" unicode="&#x15a;" d="M563 -27 q-206 0 -343.5 117.5 q-137.5 117.5 -172.5 331.5 l193 0 q63 -277 321 -277 q70 0 128 22.5 q58 22.5 98 76 q40 53.5 40 131.5 q0 100 -71.5 161.5 q-71.5 61.5 -247.5 110.5 q-96 24 -170.5 58 q-74.5 34 -135.5 84.5 q-61 50.5 -93.5 122.5 q-32.5 72 -32.5 163 q0 160 120 262.5 q120 102.5 306 102.5 q188 0 319.5 -109 q131.5 -109 167.5 -307 l-194 0 q-25 116 -100.5 180 q-75.5 64 -190.5 64 q-104 0 -171 -51 q-67 -51 -67 -138 q0 -101 79 -158 q79 -57 247 -102 q98 -26 172.5 -62 q74.5 -36 134 -88.5 q59.5 -52.5 90.5 -127 q31 -74.5 31 -168.5 q0 -179 -131 -289.5 q-131 -110.5 -326 -110.5 ZM360 1559 l308 260 l239 0 l-344 -260 l-203 0 Z" /><glyph glyph-name="sacute" unicode="&#x15b;" d="M455 -27 q-150 0 -256 85 q-106 85 -140 247 l177 0 q17 -91 76 -136.5 q59 -45.5 145 -45.5 q82 0 137 42 q55 42 55 116 q0 80 -53.5 117 q-53.5 37 -169.5 63 q-69 17 -122.5 38.5 q-53.5 21.5 -107 58.5 q-53.5 37 -83 95 q-29.5 58 -29.5 133 q0 122 91 205.5 q91 83.5 239 83.5 q141 0 241 -81.5 q100 -81.5 136 -233.5 l-173 0 q-24 84 -77 126 q-53 42 -123 42 q-71 0 -119.5 -37.5 q-48.5 -37.5 -48.5 -104.5 q0 -69 52.5 -106.5 q52.5 -37.5 170.5 -65.5 q58 -14 102.5 -29.5 q44.5 -15.5 92 -42.5 q47.5 -27 78.5 -60.5 q31 -33.5 51 -84.5 q20 -51 20 -114 q0 -101 -53 -173 q-53 -72 -133 -104.5 q-80 -32.5 -176 -32.5 ZM365 1237 l219 358 l215 0 l-277 -358 l-157 0 Z" /><glyph glyph-name="Scircumflex" unicode="&#x15c;" d="M563 -27 q-206 0 -343.5 117.5 q-137.5 117.5 -172.5 331.5 l193 0 q63 -277 321 -277 q70 0 128 22.5 q58 22.5 98 76 q40 53.5 40 131.5 q0 100 -71.5 161.5 q-71.5 61.5 -247.5 110.5 q-96 24 -170.5 58 q-74.5 34 -135.5 84.5 q-61 50.5 -93.5 122.5 q-32.5 72 -32.5 163 q0 160 120 262.5 q120 102.5 306 102.5 q188 0 319.5 -109 q131.5 -109 167.5 -307 l-194 0 q-25 116 -100.5 180 q-75.5 64 -190.5 64 q-104 0 -171 -51 q-67 -51 -67 -138 q0 -101 79 -158 q79 -57 247 -102 q98 -26 172.5 -62 q74.5 -36 134 -88.5 q59.5 -52.5 90.5 -127 q31 -74.5 31 -168.5 q0 -179 -131 -289.5 q-131 -110.5 -326 -110.5 ZM164 1559 l282 315 l183 0 l284 -315 l-168 0 l-206 210 l-209 -210 l-166 0 Z" /><glyph glyph-name="scircumflex" unicode="&#x15d;" d="M455 -27 q-150 0 -256 85 q-106 85 -140 247 l177 0 q17 -91 76 -136.5 q59 -45.5 145 -45.5 q82 0 137 42 q55 42 55 116 q0 80 -53.5 117 q-53.5 37 -169.5 63 q-69 17 -122.5 38.5 q-53.5 21.5 -107 58.5 q-53.5 37 -83 95 q-29.5 58 -29.5 133 q0 122 91 205.5 q91 83.5 239 83.5 q141 0 241 -81.5 q100 -81.5 136 -233.5 l-173 0 q-24 84 -77 126 q-53 42 -123 42 q-71 0 -119.5 -37.5 q-48.5 -37.5 -48.5 -104.5 q0 -69 52.5 -106.5 q52.5 -37.5 170.5 -65.5 q58 -14 102.5 -29.5 q44.5 -15.5 92 -42.5 q47.5 -27 78.5 -60.5 q31 -33.5 51 -84.5 q20 -51 20 -114 q0 -101 -53 -173 q-53 -72 -133 -104.5 q-80 -32.5 -176 -32.5 ZM90 1192 l283 369 l176 0 l285 -369 l-162 0 l-209 254 l-211 -254 l-162 0 Z" /><glyph glyph-name="Scedilla" unicode="&#x15e;" d="M47 422 l193 0 q63 -277 321 -277 q70 0 128 22.5 q58 22.5 98 76 q40 53.5 40 131.5 q0 100 -71.5 161.5 q-71.5 61.5 -247.5 110.5 q-96 24 -170.5 58 q-74.5 34 -135.5 84.5 q-61 50.5 -93.5 122.5 q-32.5 72 -32.5 163 q0 160 120 262.5 q120 102.5 306 102.5 q188 0 319.5 -109 q131.5 -109 167.5 -307 l-194 0 q-25 116 -100.5 180 q-75.5 64 -190.5 64 q-104 0 -171 -51 q-67 -51 -67 -138 q0 -101 79 -158 q79 -57 247 -102 q98 -26 172.5 -62 q74.5 -36 134 -88.5 q59.5 -52.5 90.5 -127 q31 -74.5 31 -168.5 q0 -168 -117.5 -277 q-117.5 -109 -296.5 -121 l-57 -94 q54 15 96 15 q73 0 131 -43 q58 -43 58 -129 q0 -103 -75 -157 q-75 -54 -190 -54 q-125 0 -229 53 l0 135 q102 -57 223 -57 q59 0 91 21.5 q32 21.5 32 58.5 q0 65 -96 65 q-81 0 -144 -35 l-53 76 l90 147 q-175 22 -289.5 137 q-114.5 115 -146.5 308 Z" /><glyph glyph-name="scedilla" unicode="&#x15f;" d="M502 -485 q-94 0 -180 36 l0 150 q75 -47 174 -47 q46 0 73 17.5 q27 17.5 27 49.5 q0 60 -80 60 q-55 0 -151 -27 l0 84 l41 137 q-133 14 -224.5 97.5 q-91.5 83.5 -122.5 232.5 l177 0 q17 -91 76 -136.5 q59 -45.5 145 -45.5 q82 0 137 42 q55 42 55 116 q0 80 -53.5 117 q-53.5 37 -169.5 63 q-69 17 -122.5 38.5 q-53.5 21.5 -107 58.5 q-53.5 37 -83 95 q-29.5 58 -29.5 133 q0 122 91 205.5 q91 83.5 239 83.5 q141 0 241 -81.5 q100 -81.5 136 -233.5 l-173 0 q-24 84 -77 126 q-53 42 -123 42 q-71 0 -119.5 -37.5 q-48.5 -37.5 -48.5 -104.5 q0 -69 52.5 -106.5 q52.5 -37.5 170.5 -65.5 q58 -14 102.5 -29.5 q44.5 -15.5 92 -42.5 q47.5 -27 78.5 -60.5 q31 -33.5 51 -84.5 q20 -51 20 -114 q0 -128 -79 -205.5 q-79 -77.5 -201 -97.5 l-27 -91 q40 5 57 5 q73 0 124.5 -42 q51.5 -42 51.5 -128 q0 -96 -65 -152.5 q-65 -56.5 -176 -56.5 Z" /><glyph glyph-name="Scaron" unicode="&#x160;" d="M563 -27 q-206 0 -343.5 117.5 q-137.5 117.5 -172.5 331.5 l193 0 q63 -277 321 -277 q70 0 128 22.5 q58 22.5 98 76 q40 53.5 40 131.5 q0 100 -71.5 161.5 q-71.5 61.5 -247.5 110.5 q-96 24 -170.5 58 q-74.5 34 -135.5 84.5 q-61 50.5 -93.5 122.5 q-32.5 72 -32.5 163 q0 160 120 262.5 q120 102.5 306 102.5 q188 0 319.5 -109 q131.5 -109 167.5 -307 l-194 0 q-25 116 -100.5 180 q-75.5 64 -190.5 64 q-104 0 -171 -51 q-67 -51 -67 -138 q0 -101 79 -158 q79 -57 247 -102 q98 -26 172.5 -62 q74.5 -36 134 -88.5 q59.5 -52.5 90.5 -127 q31 -74.5 31 -168.5 q0 -179 -131 -289.5 q-131 -110.5 -326 -110.5 ZM164 1876 l166 0 l209 -211 l206 211 l168 0 l-284 -315 l-183 0 l-282 315 Z" /><glyph glyph-name="scaron" unicode="&#x161;" d="M455 -27 q-150 0 -256 85 q-106 85 -140 247 l177 0 q17 -91 76 -136.5 q59 -45.5 145 -45.5 q82 0 137 42 q55 42 55 116 q0 80 -53.5 117 q-53.5 37 -169.5 63 q-69 17 -122.5 38.5 q-53.5 21.5 -107 58.5 q-53.5 37 -83 95 q-29.5 58 -29.5 133 q0 122 91 205.5 q91 83.5 239 83.5 q141 0 241 -81.5 q100 -81.5 136 -233.5 l-173 0 q-24 84 -77 126 q-53 42 -123 42 q-71 0 -119.5 -37.5 q-48.5 -37.5 -48.5 -104.5 q0 -69 52.5 -106.5 q52.5 -37.5 170.5 -65.5 q58 -14 102.5 -29.5 q44.5 -15.5 92 -42.5 q47.5 -27 78.5 -60.5 q31 -33.5 51 -84.5 q20 -51 20 -114 q0 -101 -53 -173 q-53 -72 -133 -104.5 q-80 -32.5 -176 -32.5 ZM88 1550 l162 0 l211 -254 l209 254 l161 0 l-284 -368 l-176 0 l-283 368 Z" /><glyph glyph-name="uni0162" unicode="&#x162;" d="M1198 1231 l-475 0 l0 -1231 l-39 0 l-72 -119 q54 15 97 15 q73 0 130.5 -43 q57.5 -43 57.5 -129 q0 -103 -74.5 -157 q-74.5 -54 -189.5 -54 q-126 0 -230 53 l0 135 q102 -57 224 -57 q59 0 91 21.5 q32 21.5 32 58.5 q0 65 -97 65 q-80 0 -143 -35 l-53 76 l102 170 l-31 0 l0 1231 l-475 0 l0 182 l1145 0 l0 -182 Z" /><glyph glyph-name="uni0163" unicode="&#x163;" d="M817 -12 q-113 -14 -209 -11 l-24 -88 q40 5 57 5 q73 0 124.5 -42 q51.5 -42 51.5 -128 q0 -96 -65.5 -152.5 q-65.5 -56.5 -176.5 -56.5 q-94 0 -180 36 l0 150 q75 -47 174 -47 q46 0 73.5 17.5 q27.5 17.5 27.5 49.5 q0 60 -80 60 q-56 0 -152 -27 l0 84 l47 160 q-133 38 -188 145.5 q-55 107.5 -55 288.5 l0 457 l-205 0 l0 158 l205 0 l0 333 l182 0 l0 -333 l385 0 l0 -158 l-385 0 l0 -418 q0 -64 4 -106 q4 -42 18.5 -88 q14.5 -46 41.5 -72.5 q27 -26.5 76 -44 q49 -17.5 118 -17.5 q52 0 135 13 l0 -168 Z" /><glyph glyph-name="Tcaron" unicode="&#x164;" d="M1198 1231 l-475 0 l0 -1231 l-195 0 l0 1231 l-475 0 l0 182 l1145 0 l0 -182 ZM252 1853 l166 0 l209 -211 l207 211 l167 0 l-284 -315 l-182 0 l-283 315 Z" /><glyph glyph-name="tcaron" unicode="&#x165;" d="M817 -12 q-78 -11 -158 -11 q-121 0 -203.5 30 q-82.5 30 -128.5 91 q-46 61 -65.5 141 q-19.5 80 -19.5 193 l0 457 l-205 0 l0 158 l205 0 l0 333 l182 0 l0 -333 l385 0 l0 -158 l-385 0 l0 -418 q0 -64 4 -106 q4 -42 18.5 -88 q14.5 -46 41.5 -72.5 q27 -26.5 76 -44 q49 -17.5 118 -17.5 q52 0 135 13 l0 -168 ZM621 1182 l88 512 l176 0 l-127 -512 l-137 0 Z" /><glyph glyph-name="Tbar" unicode="&#x166;" d="M1198 1231 l-475 0 l0 -492 l338 0 l0 -172 l-338 0 l0 -567 l-195 0 l0 567 l-333 0 l0 172 l333 0 l0 492 l-475 0 l0 182 l1145 0 l0 -182 Z" /><glyph glyph-name="tbar" unicode="&#x167;" d="M817 -12 q-78 -11 -158 -11 q-121 0 -203.5 30 q-82.5 30 -128.5 91 q-46 61 -65.5 141 q-19.5 80 -19.5 193 l0 70 l-201 0 l0 147 l201 0 l0 240 l-205 0 l0 158 l205 0 l0 333 l182 0 l0 -333 l385 0 l0 -158 l-385 0 l0 -240 l356 0 l0 -147 l-356 0 l0 -31 q0 -64 4 -106 q4 -42 18.5 -88 q14.5 -46 41.5 -72.5 q27 -26.5 76 -44 q49 -17.5 118 -17.5 q52 0 135 13 l0 -168 Z" /><glyph glyph-name="Utilde" unicode="&#x168;" d="M752 -29 q-124 0 -229.5 43.5 q-105.5 43.5 -185 127 q-79.5 83.5 -124.5 214.5 q-45 131 -45 297 l0 760 l197 0 l0 -758 q0 -129 30.5 -226.5 q30.5 -97.5 85 -155 q54.5 -57.5 122.5 -85.5 q68 -28 149 -28 q82 0 150.5 28 q68.5 28 123 85.5 q54.5 57.5 85 155 q30.5 97.5 30.5 226.5 l0 758 l194 0 l0 -760 q0 -166 -44.5 -297 q-44.5 -131 -123.5 -214.5 q-79 -83.5 -184.5 -127 q-105.5 -43.5 -230.5 -43.5 ZM410 1561 l0 157 q75 60 180 60 q65 0 122.5 -22 q57.5 -22 108 -44 q50.5 -22 99.5 -22 q95 0 176 71 l2 -159 q-78 -60 -187 -60 q-61 0 -119 22 q-58 22 -110 44 q-52 22 -98 22 q-91 0 -174 -69 Z" /><glyph glyph-name="utilde" unicode="&#x169;" d="M1014 0 l-183 0 l0 174 q-45 -94 -133.5 -147.5 q-88.5 -53.5 -193.5 -53.5 q-59 0 -111.5 14.5 q-52.5 14.5 -101 49 q-48.5 34.5 -83 86 q-34.5 51.5 -55 129.5 q-20.5 78 -20.5 176 l0 619 l182 0 l0 -584 q0 -324 234 -324 q54 0 103.5 20.5 q49.5 20.5 89.5 59 q40 38.5 64 102 q24 63.5 25 142.5 l0 584 l183 0 l0 -1047 ZM236 1346 l0 167 q69 54 167 54 q56 0 110.5 -18.5 q54.5 -18.5 90.5 -41 q36 -22.5 85.5 -41 q49.5 -18.5 96.5 -18.5 q74 0 148 61 l2 -163 q-74 -48 -158 -48 q-54 0 -109 19 q-55 19 -92.5 41.5 q-37.5 22.5 -87.5 41.5 q-50 19 -96 19 q-90 0 -157 -73 Z" /><glyph glyph-name="Umacron" unicode="&#x16a;" d="M752 -29 q-124 0 -229.5 43.5 q-105.5 43.5 -185 127 q-79.5 83.5 -124.5 214.5 q-45 131 -45 297 l0 760 l197 0 l0 -758 q0 -129 30.5 -226.5 q30.5 -97.5 85 -155 q54.5 -57.5 122.5 -85.5 q68 -28 149 -28 q82 0 150.5 28 q68.5 28 123 85.5 q54.5 57.5 85 155 q30.5 97.5 30.5 226.5 l0 758 l194 0 l0 -760 q0 -166 -44.5 -297 q-44.5 -131 -123.5 -214.5 q-79 -83.5 -184.5 -127 q-105.5 -43.5 -230.5 -43.5 ZM403 1581 l0 154 l695 0 l0 -154 l-695 0 Z" /><glyph glyph-name="umacron" unicode="&#x16b;" d="M1014 0 l-183 0 l0 174 q-45 -94 -133.5 -147.5 q-88.5 -53.5 -193.5 -53.5 q-59 0 -111.5 14.5 q-52.5 14.5 -101 49 q-48.5 34.5 -83 86 q-34.5 51.5 -55 129.5 q-20.5 78 -20.5 176 l0 619 l182 0 l0 -584 q0 -324 234 -324 q54 0 103.5 20.5 q49.5 20.5 89.5 59 q40 38.5 64 102 q24 63.5 25 142.5 l0 584 l183 0 l0 -1047 ZM242 1331 l0 156 l694 0 l0 -156 l-694 0 Z" /><glyph glyph-name="Ubreve" unicode="&#x16c;" d="M752 -29 q-124 0 -229.5 43.5 q-105.5 43.5 -185 127 q-79.5 83.5 -124.5 214.5 q-45 131 -45 297 l0 760 l197 0 l0 -758 q0 -129 30.5 -226.5 q30.5 -97.5 85 -155 q54.5 -57.5 122.5 -85.5 q68 -28 149 -28 q82 0 150.5 28 q68.5 28 123 85.5 q54.5 57.5 85 155 q30.5 97.5 30.5 226.5 l0 758 l194 0 l0 -760 q0 -166 -44.5 -297 q-44.5 -131 -123.5 -214.5 q-79 -83.5 -184.5 -127 q-105.5 -43.5 -230.5 -43.5 ZM406 1884 l149 0 q0 -83 53 -138.5 q53 -55.5 144 -55.5 q90 0 142 55.5 q52 55.5 52 138.5 l154 0 q1 -56 -20.5 -113.5 q-21.5 -57.5 -62.5 -107.5 q-41 -50 -110.5 -81.5 q-69.5 -31.5 -154.5 -31.5 q-86 0 -154.5 31.5 q-68.5 31.5 -109 81.5 q-40.5 50 -61.5 107 q-21 57 -21 114 Z" /><glyph glyph-name="ubreve" unicode="&#x16d;" d="M1014 0 l-183 0 l0 174 q-45 -94 -133.5 -147.5 q-88.5 -53.5 -193.5 -53.5 q-59 0 -111.5 14.5 q-52.5 14.5 -101 49 q-48.5 34.5 -83 86 q-34.5 51.5 -55 129.5 q-20.5 78 -20.5 176 l0 619 l182 0 l0 -584 q0 -324 234 -324 q54 0 103.5 20.5 q49.5 20.5 89.5 59 q40 38.5 64 102 q24 63.5 25 142.5 l0 584 l183 0 l0 -1047 ZM244 1589 l157 0 q0 -97 50.5 -152 q50.5 -55 138.5 -55 q88 0 138 55 q50 55 50 152 l160 0 q0 -63 -21.5 -121.5 q-21.5 -58.5 -62.5 -108 q-41 -49.5 -109.5 -79 q-68.5 -29.5 -154.5 -29.5 q-85 0 -153 29.5 q-68 29.5 -109 79 q-41 49.5 -62.5 108 q-21.5 58.5 -21.5 121.5 Z" /><glyph glyph-name="Uring" unicode="&#x16e;" d="M588 1778 q0 -68 48 -117 q48 -49 118 -49 q68 0 114.5 49 q46.5 49 46.5 117 q0 70 -46 118 q-46 48 -115 48 q-70 0 -118 -48.5 q-48 -48.5 -48 -117.5 ZM752 -29 q-124 0 -229.5 43.5 q-105.5 43.5 -185 127 q-79.5 83.5 -124.5 214.5 q-45 131 -45 297 l0 760 l197 0 l0 -758 q0 -129 30.5 -226.5 q30.5 -97.5 85 -155 q54.5 -57.5 122.5 -85.5 q68 -28 149 -28 q82 0 150.5 28 q68.5 28 123 85.5 q54.5 57.5 85 155 q30.5 97.5 30.5 226.5 l0 758 l194 0 l0 -760 q0 -166 -44.5 -297 q-44.5 -131 -123.5 -214.5 q-79 -83.5 -184.5 -127 q-105.5 -43.5 -230.5 -43.5 ZM463 1778 q0 120 85 204 q85 84 206 84 q118 0 202 -84 q84 -84 84 -204 q0 -117 -84.5 -202 q-84.5 -85 -201.5 -85 q-121 0 -206 84.5 q-85 84.5 -85 202.5 Z" /><glyph glyph-name="uring" unicode="&#x16f;" d="M472 1598.5 q-48 -48.5 -48 -115.5 q0 -67 48 -115.5 q48 -48.5 116 -48.5 q67 0 114.5 48 q47.5 48 47.5 116 q0 68 -47.5 116 q-47.5 48 -114.5 48 q-68 0 -116 -48.5 ZM1014 1047 l0 -1047 l-183 0 l0 174 q-45 -94 -133.5 -147.5 q-88.5 -53.5 -193.5 -53.5 q-59 0 -111.5 14.5 q-52.5 14.5 -101 49 q-48.5 34.5 -83 86 q-34.5 51.5 -55 129.5 q-20.5 78 -20.5 176 l0 619 l182 0 l0 -584 q0 -324 234 -324 q54 0 103.5 20.5 q49.5 20.5 89.5 59 q40 38.5 64 102 q24 63.5 25 142.5 l0 584 l183 0 ZM309 1483 q0 114 82 195 q82 81 197 81 q115 0 195.5 -81 q80.5 -81 80.5 -195 q0 -116 -80.5 -197.5 q-80.5 -81.5 -195.5 -81.5 q-116 0 -197.5 82 q-81.5 82 -81.5 197 Z" /><glyph glyph-name="Uhungarumlaut" unicode="&#x170;" d="M752 -29 q-124 0 -229.5 43.5 q-105.5 43.5 -185 127 q-79.5 83.5 -124.5 214.5 q-45 131 -45 297 l0 760 l197 0 l0 -758 q0 -129 30.5 -226.5 q30.5 -97.5 85 -155 q54.5 -57.5 122.5 -85.5 q68 -28 149 -28 q82 0 150.5 28 q68.5 28 123 85.5 q54.5 57.5 85 155 q30.5 97.5 30.5 226.5 l0 758 l194 0 l0 -760 q0 -166 -44.5 -297 q-44.5 -131 -123.5 -214.5 q-79 -83.5 -184.5 -127 q-105.5 -43.5 -230.5 -43.5 ZM436 1485 l217 272 l217 0 l-256 -272 l-178 0 ZM825 1485 l254 272 l236 0 l-305 -272 l-185 0 Z" /><glyph glyph-name="uhungarumlaut" unicode="&#x171;" d="M1014 0 l-183 0 l0 174 q-45 -94 -133.5 -147.5 q-88.5 -53.5 -193.5 -53.5 q-59 0 -111.5 14.5 q-52.5 14.5 -101 49 q-48.5 34.5 -83 86 q-34.5 51.5 -55 129.5 q-20.5 78 -20.5 176 l0 619 l182 0 l0 -584 q0 -324 234 -324 q54 0 103.5 20.5 q49.5 20.5 89.5 59 q40 38.5 64 102 q24 63.5 25 142.5 l0 584 l183 0 l0 -1047 ZM332 1237 l155 358 l205 0 l-203 -358 l-157 0 ZM684 1237 l223 358 l207 0 l-272 -358 l-158 0 Z" /><glyph glyph-name="Uogonek" unicode="&#x172;" d="M932 -4 q-121 -47 -197 -108.5 q-76 -61.5 -76 -118.5 q0 -36 28 -56 q28 -20 83 -20 q87 0 152 26 l0 -145 q-82 -29 -185 -29 q-107 0 -173 46.5 q-66 46.5 -66 146.5 q0 128 168 239 q-223 29 -360.5 203.5 q-137.5 174.5 -137.5 472.5 l0 760 l197 0 l0 -758 q0 -129 30.5 -226.5 q30.5 -97.5 85 -155 q54.5 -57.5 122.5 -85.5 q68 -28 149 -28 q82 0 150.5 28 q68.5 28 123 85.5 q54.5 57.5 85 155 q30.5 97.5 30.5 226.5 l0 758 l194 0 l0 -760 q0 -266 -108.5 -433.5 q-108.5 -167.5 -294.5 -223.5 Z" /><glyph glyph-name="uogonek" unicode="&#x173;" d="M1014 0 q-120 -48 -182 -111 q-62 -63 -62 -127 q0 -44 26.5 -68 q26.5 -24 73.5 -24 q71 0 134 29 l0 -152 q-71 -22 -158 -22 q-101 0 -167.5 54 q-66.5 54 -66.5 157 q0 171 219 297 l0 141 q-45 -94 -133.5 -147.5 q-88.5 -53.5 -193.5 -53.5 q-59 0 -111.5 14.5 q-52.5 14.5 -101 49 q-48.5 34.5 -83 86 q-34.5 51.5 -55 129.5 q-20.5 78 -20.5 176 l0 619 l182 0 l0 -584 q0 -324 234 -324 q54 0 103.5 20.5 q49.5 20.5 89.5 59 q40 38.5 64 102 q24 63.5 25 142.5 l0 584 l183 0 l0 -1047 Z" /><glyph glyph-name="Wcircumflex" unicode="&#x174;" d="M590 0 l-520 1413 l206 0 l408 -1147 l414 1147 l202 0 l412 -1157 l410 1157 l209 0 l-521 -1413 l-198 0 l-414 1151 l-410 -1151 l-198 0 ZM825 1536 l283 315 l182 0 l285 -315 l-168 0 l-207 211 l-209 -211 l-166 0 Z" /><glyph glyph-name="wcircumflex" unicode="&#x175;" d="M440 0 l-405 1047 l194 0 l310 -840 l297 840 l174 0 l303 -820 l301 820 l196 0 l-409 -1047 l-178 0 l-301 797 l-291 -797 l-191 0 ZM551 1192 l283 369 l176 0 l284 -369 l-161 0 l-209 254 l-211 -254 l-162 0 Z" /><glyph glyph-name="Ycircumflex" unicode="&#x176;" d="M582 0 l0 629 l-551 784 l231 0 l424 -610 l416 610 l225 0 l-551 -792 l0 -621 l-194 0 ZM307 1536 l283 315 l182 0 l285 -315 l-168 0 l-207 211 l-209 -211 l-166 0 Z" /><glyph glyph-name="ycircumflex" unicode="&#x177;" d="M319 -348 l150 358 l-434 1037 l194 0 l336 -816 l332 816 l188 0 l-577 -1395 l-189 0 ZM188 1192 l283 369 l176 0 l285 -369 l-162 0 l-209 254 l-211 -254 l-162 0 Z" /><glyph glyph-name="Ydieresis" unicode="&#x178;" d="M582 0 l0 629 l-551 784 l231 0 l424 -610 l416 610 l225 0 l-551 -792 l0 -621 l-194 0 ZM317 1673 q0 44 32.5 76.5 q32.5 32.5 78.5 32.5 q47 0 80 -32 q33 -32 33 -77 q0 -49 -32.5 -80.5 q-32.5 -31.5 -80.5 -31.5 q-47 0 -79 31.5 q-32 31.5 -32 80.5 ZM817 1673 q0 45 33 77 q33 32 80 32 q46 0 79 -32.5 q33 -32.5 33 -76.5 q0 -47 -32.5 -79.5 q-32.5 -32.5 -79.5 -32.5 q-48 0 -80.5 31.5 q-32.5 31.5 -32.5 80.5 Z" /><glyph glyph-name="Zacute" unicode="&#x179;" d="M135 0 l-2 166 l789 1065 l-822 0 l0 182 l1074 0 l0 -172 l-787 -1059 l836 0 l0 -182 l-1088 0 ZM481 1536 l307 260 l240 0 l-344 -260 l-203 0 Z" /><glyph glyph-name="zacute" unicode="&#x17a;" d="M924 901 l-592 -743 l655 0 l0 -158 l-883 0 l0 133 l592 756 l-635 0 l0 158 l863 0 l0 -146 ZM440 1237 l219 358 l215 0 l-276 -358 l-158 0 Z" /><glyph glyph-name="Zdotaccent" unicode="&#x17b;" d="M135 0 l-2 166 l789 1065 l-822 0 l0 182 l1074 0 l0 -172 l-787 -1059 l836 0 l0 -182 l-1088 0 ZM547 1763 q0 45 32.5 77 q32.5 32 79.5 32 q46 0 78.5 -32.5 q32.5 -32.5 32.5 -76.5 q0 -48 -33 -80 q-33 -32 -78 -32 q-48 0 -80 31.5 q-32 31.5 -32 80.5 Z" /><glyph glyph-name="zdotaccent" unicode="&#x17c;" d="M924 901 l-592 -743 l655 0 l0 -158 l-883 0 l0 133 l592 756 l-635 0 l0 158 l863 0 l0 -146 ZM426 1395 q0 44 33 76 q33 32 80 32 q46 0 78 -32 q32 -32 32 -76 q0 -49 -32.5 -81 q-32.5 -32 -77.5 -32 q-48 0 -80.5 32 q-32.5 32 -32.5 81 Z" /><glyph glyph-name="Zcaron" unicode="&#x17d;" d="M135 0 l-2 166 l789 1065 l-822 0 l0 182 l1074 0 l0 -172 l-787 -1059 l836 0 l0 -182 l-1088 0 ZM285 1853 l166 0 l208 -211 l207 211 l168 0 l-284 -315 l-183 0 l-282 315 Z" /><glyph glyph-name="zcaron" unicode="&#x17e;" d="M924 901 l-592 -743 l655 0 l0 -158 l-883 0 l0 133 l592 756 l-635 0 l0 158 l863 0 l0 -146 ZM164 1550 l162 0 l211 -254 l208 254 l162 0 l-284 -368 l-177 0 l-282 368 Z" /><glyph glyph-name="Aringacute" unicode="&#x1fa;" d="M700 1221 l-258 -695 l516 0 l-258 695 ZM696 1456 q81 0 127.5 49.5 q46.5 49.5 46.5 124.5 q0 72 -47 122 q-47 50 -127 50 q-79 0 -126.5 -49.5 q-47.5 -49.5 -47.5 -122.5 q0 -74 47 -124 q47 -50 127 -50 ZM246 0 l-201 0 l524 1368 q-78 34 -124 104 q-46 70 -46 158 q0 104 64 180 l-2 0 l205 228 l215 0 l-150 -125 q116 -10 190 -90 q74 -80 74 -193 q0 -87 -44 -155.5 q-44 -68.5 -120 -102.5 l527 -1372 l-203 0 l-135 360 l-641 0 l-133 -360 Z" /><glyph glyph-name="aringacute" unicode="&#x1fb;" d="M266 524 q0 -155 107.5 -263.5 q107.5 -108.5 261.5 -108.5 q149 0 255.5 109 q106.5 109 106.5 263 q0 152 -107 261.5 q-107 109.5 -255 109.5 q-153 0 -261 -109 q-108 -109 -108 -262 ZM548 1600.5 q-48 -48.5 -48 -115.5 q0 -67 48 -115.5 q48 -48.5 116 -48.5 q67 0 114 48 q47 48 47 116 q0 68 -47 116 q-47 48 -114 48 q-68 0 -116 -48.5 ZM610 -27 q-142 0 -264.5 73.5 q-122.5 73.5 -195 200.5 q-72.5 127 -72.5 277 q0 150 72.5 277 q72.5 127 195 200.5 q122.5 73.5 264.5 73.5 q125 0 225 -63.5 q100 -63.5 162 -173.5 l0 209 l183 0 l0 -1047 l-183 0 l0 211 q-62 -110 -162.5 -174 q-100.5 -64 -224.5 -64 ZM385 1485 q0 80 41 145 l164 266 l162 0 l-105 -135 l17 0 q115 0 195.5 -81 q80.5 -81 80.5 -195 q0 -116 -80.5 -197.5 q-80.5 -81.5 -195.5 -81.5 q-116 0 -197.5 82 q-81.5 82 -81.5 197 Z" /><glyph glyph-name="AEacute" unicode="&#x1fc;" d="M985 1231 l-405 -662 l495 0 l-31 662 l-59 0 ZM4 0 l881 1413 l1216 0 l0 -182 l-862 0 l21 -418 l725 0 l0 -168 l-719 0 l22 -463 l813 0 l0 -182 l-999 0 l-19 391 l-612 0 l-240 -391 l-227 0 ZM1419 1559 l-202 0 l307 260 l239 0 l-344 -260 Z" /><glyph glyph-name="aeacute" unicode="&#x1fd;" d="M260 313 q0 -82 57 -130 q57 -48 152 -48 q61 0 115 20.5 q54 20.5 97 59 q43 38.5 68 102 q25 63.5 25 142.5 l0 35 l-246 2 q-123 0 -195.5 -45 q-72.5 -45 -72.5 -138 ZM969 616 l633 0 q-24 125 -102 203 q-78 78 -197 78 q-120 0 -213 -79.5 q-93 -79.5 -121 -201.5 ZM436 -27 q-167 0 -265.5 92.5 q-98.5 92.5 -98.5 237.5 q0 147 110.5 236.5 q110.5 89.5 306.5 89.5 l287 0 l0 18 q0 124 -56.5 191 q-56.5 67 -156.5 67 q-178 0 -227 -157 l-195 0 q34 137 149 232 q115 95 277 95 q113 0 201 -51.5 q88 -51.5 137 -149.5 q72 92 177 144.5 q105 52.5 225 52.5 q103 -1 194.5 -44 q91.5 -43 157.5 -118.5 q66 -75.5 102 -186 q36 -110.5 29 -239.5 l-829 0 q12 -142 110.5 -240 q98.5 -98 233.5 -98 q99 0 178.5 53.5 q79.5 53.5 111.5 133.5 l187 0 q-54 -164 -185 -261.5 q-131 -97.5 -292 -97.5 q-136 0 -252.5 68.5 q-116.5 68.5 -186.5 185.5 q-62 -126 -173.5 -190 q-111.5 -64 -256.5 -64 ZM985 1239 l-158 0 l220 358 l215 0 l-277 -358 Z" /><glyph glyph-name="Oslashacute" unicode="&#x1fe;" d="M311 707 q0 -213 138 -367 l725 799 q-144 112 -326 112 q-147 0 -270.5 -72.5 q-123.5 -72.5 -195 -198 q-71.5 -125.5 -71.5 -273.5 ZM1266 1044 l-721 -790 q139 -92 303 -92 q146 0 269 72.5 q123 72.5 194 198 q71 125.5 71 274.5 q0 193 -116 337 ZM1292 1290 l97 109 l120 -109 l-100 -110 q172 -209 172 -473 q0 -150 -58 -285.5 q-58 -135.5 -156 -234 q-98 -98.5 -233.5 -156.5 q-135.5 -58 -285.5 -58 q-231 0 -418 129 l-117 -129 l-120 109 l114 125 q-94 100 -145 228.5 q-51 128.5 -51 271.5 q0 200 98.5 368.5 q98.5 168.5 268 266.5 q169.5 98 370.5 98 q245 0 444 -150 ZM874 1536 l-202 0 l307 260 l240 0 l-345 -260 Z" /><glyph glyph-name="oslashacute" unicode="&#x1ff;" d="M252 526 q0 -118 65 -215 l498 539 q-83 53 -190 53 q-154 0 -263.5 -110.5 q-109.5 -110.5 -109.5 -266.5 ZM915 764 l-507 -549 q98 -72 217 -72 q155 0 264.5 112.5 q109.5 112.5 109.5 270.5 q0 133 -84 238 ZM627 -27 q-185 0 -332 109 l-102 -111 l-109 105 l102 110 q-116 147 -116 340 q0 111 44 212.5 q44 101.5 118.5 175 q74.5 73.5 177.5 117.5 q103 44 217 44 q165 0 301 -90 l96 102 l106 -104 l-88 -96 q138 -154 138 -361 q0 -150 -74.5 -277.5 q-74.5 -127.5 -202 -201.5 q-127.5 -74 -276.5 -74 ZM666 1237 l-158 0 l219 358 l215 0 l-276 -358 Z" /><glyph glyph-name="uni0218" unicode="&#x218;" d="M563 -27 q-206 0 -343.5 117.5 q-137.5 117.5 -172.5 331.5 l193 0 q63 -277 321 -277 q70 0 128 22.5 q58 22.5 98 76 q40 53.5 40 131.5 q0 100 -71.5 161.5 q-71.5 61.5 -247.5 110.5 q-96 24 -170.5 58 q-74.5 34 -135.5 84.5 q-61 50.5 -93.5 122.5 q-32.5 72 -32.5 163 q0 160 120 262.5 q120 102.5 306 102.5 q188 0 319.5 -109 q131.5 -109 167.5 -307 l-194 0 q-25 116 -100.5 180 q-75.5 64 -190.5 64 q-104 0 -171 -51 q-67 -51 -67 -138 q0 -101 79 -158 q79 -57 247 -102 q98 -26 172.5 -62 q74.5 -36 134 -88.5 q59.5 -52.5 90.5 -127 q31 -74.5 31 -168.5 q0 -179 -131 -289.5 q-131 -110.5 -326 -110.5 ZM338 -582 l121 445 l200 0 l-188 -445 l-133 0 Z" /><glyph glyph-name="uni0219" unicode="&#x219;" d="M455 -27 q-150 0 -256 85 q-106 85 -140 247 l177 0 q17 -91 76 -136.5 q59 -45.5 145 -45.5 q82 0 137 42 q55 42 55 116 q0 80 -53.5 117 q-53.5 37 -169.5 63 q-69 17 -122.5 38.5 q-53.5 21.5 -107 58.5 q-53.5 37 -83 95 q-29.5 58 -29.5 133 q0 122 91 205.5 q91 83.5 239 83.5 q141 0 241 -81.5 q100 -81.5 136 -233.5 l-173 0 q-24 84 -77 126 q-53 42 -123 42 q-71 0 -119.5 -37.5 q-48.5 -37.5 -48.5 -104.5 q0 -69 52.5 -106.5 q52.5 -37.5 170.5 -65.5 q58 -14 102.5 -29.5 q44.5 -15.5 92 -42.5 q47.5 -27 78.5 -60.5 q31 -33.5 51 -84.5 q20 -51 20 -114 q0 -101 -53 -173 q-53 -72 -133 -104.5 q-80 -32.5 -176 -32.5 ZM260 -520 l129 383 l170 0 l-180 -383 l-119 0 Z" /><glyph glyph-name="uni021A" unicode="&#x21a;" d="M1198 1231 l-475 0 l0 -1231 l-195 0 l0 1231 l-475 0 l0 182 l1145 0 l0 -182 ZM403 -582 l121 445 l201 0 l-188 -445 l-134 0 Z" /><glyph glyph-name="uni021B" unicode="&#x21b;" d="M817 -12 q-78 -11 -158 -11 q-121 0 -203.5 30 q-82.5 30 -128.5 91 q-46 61 -65.5 141 q-19.5 80 -19.5 193 l0 457 l-205 0 l0 158 l205 0 l0 333 l182 0 l0 -333 l385 0 l0 -158 l-385 0 l0 -418 q0 -64 4 -106 q4 -42 18.5 -88 q14.5 -46 41.5 -72.5 q27 -26.5 76 -44 q49 -17.5 118 -17.5 q52 0 135 13 l0 -168 ZM334 -520 l129 383 l170 0 l-180 -383 l-119 0 Z" /><glyph glyph-name="uni0237" unicode="&#x237;" d="M193 -369 l0 1413 l182 0 l0 -1413 l-182 0 Z" /><glyph glyph-name="gravecomb" unicode="&#x300;" d="M102 1595 l215 0 l220 -358 l-158 0 l-277 358 Z" /><glyph glyph-name="acutecomb" unicode="&#x301;" d="M502 1595 l-277 -358 l-157 0 l219 358 l215 0 Z" /><glyph glyph-name="uni0302" unicode="&#x302;" d="M829 1192 l-161 0 l-209 254 l-211 -254 l-162 0 l283 369 l176 0 l284 -369 Z" /><glyph glyph-name="tildecomb" unicode="&#x303;" d="M682 1298 q-54 0 -109 19 q-55 19 -92.5 41.5 q-37.5 22.5 -87.5 41.5 q-50 19 -96 19 q-91 0 -158 -73 l0 167 q69 54 168 54 q56 0 110.5 -18.5 q54.5 -18.5 90.5 -41 q36 -22.5 85.5 -41 q49.5 -18.5 96.5 -18.5 q74 0 148 61 l2 -163 q-74 -48 -158 -48 Z" /><glyph glyph-name="uni0304" unicode="&#x304;" d="M786 1331 l-694 0 l0 156 l694 0 l0 -156 Z" /><glyph glyph-name="uni0306" unicode="&#x306;" d="M461 1251 q-85 0 -153 29.5 q-68 29.5 -109 79 q-41 49.5 -62.5 108 q-21.5 58.5 -21.5 121.5 l157 0 q0 -97 50.5 -152 q50.5 -55 138.5 -55 q88 0 138 55 q50 55 50 152 l160 0 q0 -63 -21.5 -121.5 q-21.5 -58.5 -62.5 -108 q-41 -49.5 -109.5 -79 q-68.5 -29.5 -154.5 -29.5 Z" /><glyph glyph-name="uni0307" unicode="&#x307;" d="M219 1282 q-48 0 -80.5 32 q-32.5 32 -32.5 81 q0 44 33 76 q33 32 80 32 q46 0 78.5 -32 q32.5 -32 32.5 -76 q0 -48 -33 -80.5 q-33 -32.5 -78 -32.5 Z" /><glyph glyph-name="uni0308" unicode="&#x308;" d="M227 1282 q-46 0 -78 32 q-32 32 -32 81 q0 44 32 76 q32 32 78 32 q47 0 80 -32 q33 -32 33 -76 q0 -49 -32.5 -81 q-32.5 -32 -80.5 -32 ZM616 1395 q0 44 33 76 q33 32 80 32 q46 0 79.5 -32 q33.5 -32 33.5 -76 q0 -47 -33 -80 q-33 -33 -80 -33 q-48 0 -80.5 32 q-32.5 32 -32.5 81 Z" /><glyph glyph-name="uni030A" unicode="&#x30a;" d="M642 1287.5 q-81 -81.5 -196 -81.5 q-115 0 -196.5 81.5 q-81.5 81.5 -81.5 197.5 q0 114 81.5 195 q81.5 81 196.5 81 q115 0 196 -81 q81 -81 81 -195 q0 -116 -81 -197.5 ZM331 1601 q-48 -48 -48 -116 q0 -68 48 -116 q48 -48 115 -48 q67 0 114.5 48 q47.5 48 47.5 116 q0 68 -47.5 116 q-47.5 48 -114.5 48 q-67 0 -115 -48 Z" /><glyph glyph-name="uni030B" unicode="&#x30b;" d="M440 1595 l-202 -358 l-158 0 l156 358 l204 0 ZM432 1237 l223 358 l207 0 l-272 -358 l-158 0 Z" /><glyph glyph-name="uni030C" unicode="&#x30c;" d="M829 1550 l-284 -368 l-176 0 l-283 368 l162 0 l211 -254 l209 254 l161 0 Z" /><glyph glyph-name="uni0312" unicode="&#x312;" d="M254 1204 l-170 0 l180 383 l119 0 l-129 -383 Z" /><glyph glyph-name="uni0326" unicode="&#x326;" d="M252 -137 l170 0 l-180 -383 l-119 0 l129 383 Z" /><glyph glyph-name="uni0327" unicode="&#x327;" d="M324 -485 q-95 0 -181 36 l0 150 q75 -47 174 -47 q46 0 73.5 17.5 q27.5 17.5 27.5 49.5 q0 60 -80 60 q-56 0 -152 -27 l0 84 l58 195 l129 0 l-41 -144 q40 5 57 5 q73 0 124.5 -42 q51.5 -42 51.5 -128 q0 -96 -65 -152.5 q-65 -56.5 -176 -56.5 Z" /><glyph glyph-name="uni0328" unicode="&#x328;" d="M477 0 q-120 -48 -182 -111 q-62 -63 -62 -127 q0 -44 26.5 -68 q26.5 -24 74.5 -24 q70 0 133 29 l0 -152 q-71 -22 -158 -22 q-100 0 -166.5 54 q-66.5 54 -66.5 157 q0 116 96.5 207 q96.5 91 255.5 151 l49 -94 Z" /><glyph glyph-name="Wgrave" unicode="&#x1e80;" d="M590 0 l-520 1413 l206 0 l408 -1147 l414 1147 l202 0 l412 -1157 l410 1157 l209 0 l-521 -1413 l-198 0 l-414 1151 l-410 -1151 l-198 0 ZM827 1780 l240 0 l307 -260 l-203 0 l-344 260 Z" /><glyph glyph-name="wgrave" unicode="&#x1e81;" d="M440 0 l-405 1047 l194 0 l310 -840 l297 840 l174 0 l303 -820 l301 820 l196 0 l-409 -1047 l-178 0 l-301 797 l-291 -797 l-191 0 ZM598 1595 l215 0 l219 -358 l-158 0 l-276 358 Z" /><glyph glyph-name="Wacute" unicode="&#x1e82;" d="M590 0 l-520 1413 l206 0 l408 -1147 l414 1147 l202 0 l412 -1157 l410 1157 l209 0 l-521 -1413 l-198 0 l-414 1151 l-410 -1151 l-198 0 ZM1022 1536 l307 260 l240 0 l-344 -260 l-203 0 Z" /><glyph glyph-name="wacute" unicode="&#x1e83;" d="M440 0 l-405 1047 l194 0 l310 -840 l297 840 l174 0 l303 -820 l301 820 l196 0 l-409 -1047 l-178 0 l-301 797 l-291 -797 l-191 0 ZM825 1237 l219 358 l216 0 l-277 -358 l-158 0 Z" /><glyph glyph-name="Wdieresis" unicode="&#x1e84;" d="M590 0 l-520 1413 l206 0 l408 -1147 l414 1147 l202 0 l412 -1157 l410 1157 l209 0 l-521 -1413 l-198 0 l-414 1151 l-410 -1151 l-198 0 ZM836 1673 q0 45 32 77 q32 32 78 32 q47 0 80 -32 q33 -32 33 -77 q0 -49 -32.5 -80.5 q-32.5 -31.5 -80.5 -31.5 q-46 0 -78 31.5 q-32 31.5 -32 80.5 ZM1335 1673 q0 45 33 77 q33 32 80 32 q46 0 79.5 -32.5 q33.5 -32.5 33.5 -76.5 q0 -47 -33 -79.5 q-33 -32.5 -80 -32.5 q-48 0 -80.5 31.5 q-32.5 31.5 -32.5 80.5 Z" /><glyph glyph-name="wdieresis" unicode="&#x1e85;" d="M440 0 l-405 1047 l194 0 l310 -840 l297 840 l174 0 l303 -820 l301 820 l196 0 l-409 -1047 l-178 0 l-301 797 l-291 -797 l-191 0 ZM559 1395 q0 44 32.5 76 q32.5 32 78.5 32 q47 0 79.5 -31.5 q32.5 -31.5 32.5 -76.5 q0 -49 -32 -81 q-32 -32 -80 -32 q-46 0 -78.5 32 q-32.5 32 -32.5 81 ZM1059 1395 q0 45 32.5 76.5 q32.5 31.5 79.5 31.5 q46 0 79.5 -32 q33.5 -32 33.5 -76 q0 -47 -33 -80 q-33 -33 -80 -33 q-48 0 -80 32 q-32 32 -32 81 Z" /><glyph glyph-name="Germandbls" unicode="&#x1e9e;" d="M741 647 l0 148 l334 436 l-667 0 l0 -1231 l-197 0 l0 1413 l1110 0 l0 -170 l-352 -444 q501 -34 501 -412 q0 -196 -126.5 -305 q-126.5 -109 -337.5 -109 q-181 0 -326 62 l0 194 q143 -73 315 -73 q60 0 109 12 q49 12 90 38 q41 26 63.5 72.5 q22.5 46.5 22.5 110.5 q0 138 -128.5 199 q-128.5 61 -410.5 59 Z" /><glyph glyph-name="Ygrave" unicode="&#x1ef2;" d="M582 0 l0 629 l-551 784 l231 0 l424 -610 l416 610 l225 0 l-551 -792 l0 -621 l-194 0 ZM309 1780 l240 0 l307 -260 l-203 0 l-344 260 Z" /><glyph glyph-name="ygrave" unicode="&#x1ef3;" d="M319 -348 l150 358 l-434 1037 l194 0 l336 -816 l332 816 l188 0 l-577 -1395 l-189 0 ZM238 1595 l215 0 l219 -358 l-158 0 l-276 358 Z" /><glyph glyph-name="endash" unicode="&#x2013;" d="M1174 598 l-1080 0 l0 172 l1080 0 l0 -172 Z" /><glyph glyph-name="emdash" unicode="&#x2014;" d="M1702 598 l-1608 0 l0 172 l1608 0 l0 -172 Z" /><glyph glyph-name="quoteleft" unicode="&#x2018;" d="M373 905 l-187 0 l107 508 l143 0 l-63 -508 Z" /><glyph glyph-name="quoteright" unicode="&#x2019;" d="M231 1413 l187 0 l-107 -508 l-143 0 l63 508 Z" /><glyph glyph-name="quotesinglbase" unicode="&#x201a;" d="M231 248 l187 0 l-107 -508 l-143 0 l63 508 Z" /><glyph glyph-name="quotedblleft" unicode="&#x201c;" d="M698 903 l-186 0 l106 508 l144 0 l-64 -508 ZM186 903 l107 508 l143 0 l-63 -508 l-187 0 Z" /><glyph glyph-name="quotedblright" unicode="&#x201d;" d="M231 1413 l187 0 l-107 -508 l-143 0 l63 508 ZM494 905 l63 508 l186 0 l-106 -508 l-143 0 Z" /><glyph glyph-name="quotedblbase" unicode="&#x201e;" d="M231 248 l187 0 l-107 -508 l-143 0 l63 508 ZM494 -260 l63 508 l186 0 l-106 -508 l-143 0 Z" /><glyph glyph-name="dagger" unicode="&#x2020;" d="M907 911 l-303 0 l0 -628 l-174 0 l0 628 l-303 0 l0 160 l303 0 l0 342 l174 0 l0 -342 l303 0 l0 -160 Z" /><glyph glyph-name="daggerdbl" unicode="&#x2021;" d="M920 1004 l-306 0 l0 -308 l306 0 l0 -161 l-306 0 l0 -248 l-174 0 l0 248 l-303 0 l0 161 l303 0 l0 308 l-303 0 l0 161 l303 0 l0 248 l174 0 l0 -248 l306 0 l0 -161 Z" /><glyph glyph-name="bullet" unicode="&#x2022;" d="M489 561 q-72 0 -127 54.5 q-55 54.5 -55 125.5 q0 76 54 131.5 q54 55.5 128 55.5 q76 0 129.5 -55 q53.5 -55 53.5 -132 q0 -72 -54 -126 q-54 -54 -129 -54 Z" /><glyph glyph-name="ellipsis" unicode="&#x2026;" d="M690 -29 q-52 0 -91.5 39 q-39.5 39 -39.5 90 q0 56 38.5 96 q38.5 40 92.5 40 q55 0 93 -40 q38 -40 38 -96 q0 -52 -38 -90.5 q-38 -38.5 -93 -38.5 ZM162 100 q0 56 38.5 96 q38.5 40 92.5 40 q55 0 93 -40 q38 -40 38 -96 q0 -52 -38 -90.5 q-38 -38.5 -93 -38.5 q-52 0 -91.5 39 q-39.5 39 -39.5 90 ZM954 100 q0 56 38.5 96 q38.5 40 92.5 40 q55 0 93.5 -40 q38.5 -40 38.5 -96 q0 -52 -38.5 -90.5 q-38.5 -38.5 -93.5 -38.5 q-52 0 -91.5 39 q-39.5 39 -39.5 90 Z" /><glyph glyph-name="perthousand" unicode="&#x2030;" d="M2122 -27 q-143 0 -244.5 108 q-101.5 108 -101.5 277 q0 169 101.5 278 q101.5 109 244.5 109 q145 0 246.5 -109 q101.5 -109 101.5 -278 q0 -169 -101.5 -277 q-101.5 -108 -246.5 -108 ZM151.5 777 q-102.5 109 -102.5 278 q0 169 102 277 q102 108 246 108 q144 0 246 -108 q102 -108 102 -277 q0 -169 -102.5 -278 q-102.5 -109 -245.5 -109 q-143 0 -245.5 109 ZM267.5 1225.5 q-52.5 -68.5 -52.5 -170.5 q0 -102 52.5 -171 q52.5 -69 129.5 -69 q77 0 131 69 q54 69 54 171 q0 102 -54 170.5 q-54 68.5 -131 68.5 q-77 0 -129.5 -68.5 ZM328 0 l835 1413 l183 0 l-836 -1413 l-182 0 ZM1058 81 q-102 108 -102 277 q0 169 102 278 q102 109 247 109 q142 0 244 -109 q102 -109 102 -278 q0 -169 -102 -277 q-102 -108 -244 -108 q-145 0 -247 108 ZM1173.5 529 q-53.5 -69 -53.5 -171 q0 -102 53.5 -170.5 q53.5 -68.5 131.5 -68.5 q76 0 129 68.5 q53 68.5 53 170.5 q0 102 -53 171 q-53 69 -129 69 q-78 0 -131.5 -69 ZM1992 529 q-53 -69 -53 -171 q0 -102 53 -170.5 q53 -68.5 130 -68.5 q78 0 131 68.5 q53 68.5 53 170.5 q0 103 -53 171.5 q-53 68.5 -131 68.5 q-77 0 -130 -69 Z" /><glyph glyph-name="guilsinglleft" unicode="&#x2039;" d="M494 242 l-359 411 l359 412 l116 -90 l-268 -322 l268 -321 l-116 -90 Z" /><glyph glyph-name="guilsinglright" unicode="&#x203a;" d="M289 242 l-117 90 l268 321 l-268 322 l117 90 l358 -412 l-358 -411 Z" /><glyph glyph-name="fraction" unicode="&#x2044;" d="M1083 1413 l-835 -1413 l-182 0 l835 1413 l182 0 Z" /><glyph glyph-name="Euro" unicode="&#x20ac;" d="M891 -27 q-225 0 -403 139.5 q-178 139.5 -246 360.5 l-193 0 l0 121 l164 0 q-8 52 -8 117 q0 64 8 116 l-160 0 l0 121 l189 0 q70 218 247.5 355 q177.5 137 401.5 137 q212 0 375 -142.5 q163 -142.5 225 -371.5 l-199 0 q-47 151 -156 238 q-109 87 -245 87 q-149 0 -265.5 -82.5 q-116.5 -82.5 -174.5 -220.5 l450 0 l0 -121 l-487 0 q-11 -68 -11 -116 q0 -49 11 -117 l483 0 l0 -121 l-448 0 q57 -142 174 -226.5 q117 -84.5 268 -84.5 q137 0 245.5 86.5 q108.5 86.5 155.5 238.5 l199 0 q-61 -227 -224.5 -370.5 q-163.5 -143.5 -375.5 -143.5 Z" /><glyph glyph-name="trademark" unicode="&#x2122;" d="M809 1257 l-285 0 l0 -655 l-164 0 l0 655 l-286 0 l0 156 l735 0 l0 -156 ZM963 602 l0 811 l213 0 l288 -487 l287 487 l215 0 l0 -811 l-166 0 l0 584 l-336 -543 l-338 545 l0 -586 l-163 0 Z" /><glyph glyph-name="oneeighth" unicode="&#x215b;" d="M1042 217 q0 -48 41 -79.5 q41 -31.5 109 -31.5 q69 0 109 31 q40 31 40 80 q0 50 -39.5 80.5 q-39.5 30.5 -109.5 30.5 q-68 0 -109 -30.5 q-41 -30.5 -41 -80.5 ZM1081 512 q0 -44 31 -69 q31 -25 80 -25 q49 0 80 25 q31 25 31 69 q0 43 -31 67.5 q-31 24.5 -80 24.5 q-49 0 -80 -24.5 q-31 -24.5 -31 -67.5 ZM905 201 q0 68 38 114 q38 46 101 66 q-45 21 -71.5 59.5 q-26.5 38.5 -26.5 89.5 q0 87 69 140 q69 53 177 53 q108 0 176 -53 q68 -53 68 -140 q0 -50 -26.5 -88.5 q-26.5 -38.5 -68.5 -60.5 q63 -19 101.5 -66.5 q38.5 -47.5 38.5 -113.5 q0 -97 -80.5 -157 q-80.5 -60 -208.5 -60 q-126 0 -206.5 60.5 q-80.5 60.5 -80.5 156.5 ZM63 1350 l127 63 l99 0 l0 -706 l-135 0 l0 567 l-91 0 l0 76 ZM348 0 l-182 0 l835 1413 l183 0 l-836 -1413 Z" /><glyph glyph-name="threeeighths" unicode="&#x215c;" d="M1174 217 q0 -48 40.5 -79.5 q40.5 -31.5 108.5 -31.5 q69 0 109.5 31.5 q40.5 31.5 40.5 79.5 q0 50 -40 80.5 q-40 30.5 -110 30.5 q-68 0 -108.5 -30.5 q-40.5 -30.5 -40.5 -80.5 ZM1212 512 q0 -44 31 -69 q31 -25 80 -25 q49 0 80 25 q31 25 31 69 q0 43 -31 67.5 q-31 24.5 -80 24.5 q-49 0 -80 -24.5 q-31 -24.5 -31 -67.5 ZM1036 201 q0 68 38.5 114 q38.5 46 101.5 66 q-45 21 -72 59.5 q-27 38.5 -27 89.5 q0 87 69 140 q69 53 177 53 q108 0 176 -53 q68 -53 68 -140 q0 -50 -26 -89 q-26 -39 -68 -60 q63 -19 101 -66.5 q38 -47.5 38 -113.5 q0 -97 -80.5 -157 q-80.5 -60 -208.5 -60 q-126 0 -206.5 60.5 q-80.5 60.5 -80.5 156.5 ZM305 690 q-114 0 -188.5 65.5 q-74.5 65.5 -93.5 174.5 l139 0 q11 -50 48.5 -80.5 q37.5 -30.5 92.5 -30.5 q58 0 92.5 30.5 q34.5 30.5 34.5 78.5 q0 49 -35 77.5 q-35 28.5 -108 28.5 l-80 0 l-2 84 l164 170 l-328 -2 l0 127 l485 0 l0 -117 l-172 -172 q100 -12 155.5 -65 q55.5 -53 55.5 -144 q0 -103 -73.5 -164 q-73.5 -61 -186.5 -61 ZM475 0 l-182 0 l835 1413 l183 0 l-836 -1413 Z" /><glyph glyph-name="fiveeighths" unicode="&#x215d;" d="M1194 217 q0 -48 40.5 -79.5 q40.5 -31.5 108.5 -31.5 q69 0 109.5 31.5 q40.5 31.5 40.5 79.5 q0 50 -40 80.5 q-40 30.5 -110 30.5 q-68 0 -108.5 -30.5 q-40.5 -30.5 -40.5 -80.5 ZM1233 512 q0 -44 30.5 -69 q30.5 -25 79.5 -25 q49 0 80 25 q31 25 31 69 q0 43 -31 67.5 q-31 24.5 -80 24.5 q-49 0 -79.5 -24.5 q-30.5 -24.5 -30.5 -67.5 ZM1057 201 q0 68 38 114 q38 46 101 66 q-45 21 -71.5 59.5 q-26.5 38.5 -26.5 89.5 q0 87 68.5 140 q68.5 53 176.5 53 q108 0 176 -53 q68 -53 68 -140 q0 -50 -26 -89 q-26 -39 -68 -60 q63 -19 101 -66.5 q38 -47.5 38 -113.5 q0 -97 -80.5 -157 q-80.5 -60 -208.5 -60 q-126 0 -206 60.5 q-80 60.5 -80 156.5 ZM315 690 q-109 0 -185.5 63 q-76.5 63 -98.5 171 l139 0 q11 -47 47.5 -76 q36.5 -29 89.5 -29 q59 0 95 35 q36 35 36 88 q0 55 -35.5 91 q-35.5 36 -91.5 36 q-42 0 -78 -19.5 q-36 -19.5 -57 -52.5 l-123 29 l72 387 l395 0 l0 -129 l-303 0 l-33 -178 q74 57 172 57 q86 0 155 -62 q69 -62 69 -169 q0 -109 -76.5 -175.5 q-76.5 -66.5 -188.5 -66.5 ZM500 0 l-183 0 l836 1413 l182 0 l-835 -1413 Z" /><glyph glyph-name="seveneighths" unicode="&#x215e;" d="M1145 217 q0 -48 40.5 -79.5 q40.5 -31.5 108.5 -31.5 q69 0 109.5 31.5 q40.5 31.5 40.5 79.5 q0 50 -40 80.5 q-40 30.5 -110 30.5 q-68 0 -108.5 -30.5 q-40.5 -30.5 -40.5 -80.5 ZM1184 512 q0 -44 30.5 -69 q30.5 -25 79.5 -25 q49 0 80 25 q31 25 31 69 q0 43 -31 67.5 q-31 24.5 -80 24.5 q-49 0 -79.5 -24.5 q-30.5 -24.5 -30.5 -67.5 ZM1008 201 q0 68 38 114 q38 46 101 66 q-45 21 -71.5 59.5 q-26.5 38.5 -26.5 89.5 q0 87 68.5 140 q68.5 53 176.5 53 q108 0 176 -53 q68 -53 68 -140 q0 -50 -26 -89 q-26 -39 -68 -60 q63 -19 101 -66.5 q38 -47.5 38 -113.5 q0 -97 -80.5 -157 q-80.5 -60 -208.5 -60 q-126 0 -206 60.5 q-80 60.5 -80 156.5 ZM315 707 l-149 0 l240 575 l-379 0 l0 131 l526 0 l0 -102 l-238 -604 ZM446 0 l-182 0 l836 1413 l182 0 l-836 -1413 Z" /><glyph glyph-name="minus" unicode="&#x2212;" d="M936 666 l-858 0 l0 170 l858 0 l0 -170 Z" /><glyph glyph-name="notequal" unicode="&#x2260;" d="M936 862 l-858 0 l0 170 l430 0 l72 240 l180 0 l-72 -240 l248 0 l0 -170 ZM78 430 l0 170 l858 0 l0 -170 l-428 0 l-70 -233 l-180 0 l72 233 l-252 0 Z" /><glyph glyph-name="lessequal" unicode="&#x2264;" d="M903 461 l-827 325 l0 166 l827 305 l0 -182 l-637 -209 l637 -223 l0 -182 ZM57 170 l0 170 l858 0 l0 -170 l-858 0 Z" /><glyph glyph-name="greaterequal" unicode="&#x2265;" d="M66 461 l0 182 l636 223 l-636 209 l0 182 l827 -305 l0 -166 l-827 -325 ZM51 170 l0 170 l858 0 l0 -170 l-858 0 Z" /><glyph glyph-name="lozenge" unicode="&#x25ca;" d="M666 1280 l-410 -573 l410 -572 l409 572 l-409 573 ZM758 0 l-187 0 l-510 709 l510 704 l187 0 l510 -704 l-510 -709 Z" /><glyph glyph-name="fi" unicode="&#xfb01;" d="M264 1094 q0 207 102 317.5 q102 110.5 279 110.5 q137 0 248 -49 l-2 -179 q-100 62 -232 62 q-208 0 -208 -260 l0 -49 l395 0 l0 -158 l-395 0 l0 -889 l-187 0 l0 889 l-213 0 l0 158 l213 0 l0 47 ZM985 1389 q0 51 36 85.5 q36 34.5 87 34.5 q50 0 85.5 -34.5 q35.5 -34.5 35.5 -85.5 q0 -49 -35.5 -85 q-35.5 -36 -85.5 -36 q-51 0 -87 35.5 q-36 35.5 -36 85.5 ZM1016 0 l0 1044 l182 0 l0 -1044 l-182 0 Z" /><glyph glyph-name="fl" unicode="&#xfb02;" d="M264 1094 q0 207 102 317.5 q102 110.5 279 110.5 q137 0 248 -49 l-2 -179 q-100 62 -232 62 q-208 0 -208 -260 l0 -49 l395 0 l0 -158 l-395 0 l0 -889 l-187 0 l0 889 l-213 0 l0 158 l213 0 l0 47 ZM1008 0 l0 1495 l184 0 l0 -1495 l-184 0 Z" /></font>
</defs>
</svg>
