<?xml version="1.0" standalone="no"?><!DOCTYPE svg PUBLIC "-//W3C//DTD SVG 1.1//EN" "http://www.w3.org/Graphics/SVG/1.1/DTD/svg11.dtd" ><svg xmlns="http://www.w3.org/2000/svg"><metadata></metadata><defs><font id="Version 1.000;FEAKit 1.0;UKWN;Uto-SemiBoldItalic;2022;FL801" horiz-adv-x="2674"><font-face font-family="Uto SemBd" font-weight="600" font-stretch="normal" units-per-em="2048" panose-1="0 0 0 0 0 0 0 0 0 0" ascent="2093" descent="-586" x-height="0" bbox="-197 -586 2585 2093" underline-thickness="102" underline-position="-307" unicode-range="U+000d-fb02" /><missing-glyph horiz-adv-x="921" d="M307 764 l0 -62 l185 0 l0 129 l122 0 l0 62 l-307 0 l0 -62 l123 0 l0 -67 l-123 0 ZM307 1135 l0 -193 l307 0 l0 64 l-122 0 l0 129 l-185 0 ZM307 1243 l0 -61 l307 0 l0 61 l-122 0 l0 68 l122 0 l0 61 l-305 0 l0 -61 l121 0 l0 -68 l-123 0 ZM307 -160 l0 -61 l307 0 l0 61 l-188 0 l129 86 l59 0 l0 62 l-307 0 l0 -62 l129 0 l-129 -86 ZM307 238 l0 -207 l307 0 l0 207 l-307 0 ZM307 557 l0 -209 l307 0 l0 209 l-184 0 l0 -102 l62 0 l0 41 l61 0 l0 -86 l-184 0 l0 147 l-62 0 ZM307 659 l0 -61 l307 0 l0 184 l-61 0 l0 -123 l-246 0 ZM553 90 l-184 0 l0 88 l184 0 l0 -88 ZM172 1495 l584 0 l0 -1843 l-584 0 l0 1843 ZM430 1006 l-61 0 l0 65 l61 0 l0 -65 Z" /><glyph glyph-name="uni0000" unicode="" d="" /><glyph glyph-name="uni000D" unicode="" d="" /><glyph glyph-name="space" unicode="  " d="" /><glyph glyph-name="exclam" unicode="!" d="M399 1413 l285 0 l-180 -932 l-285 0 l180 932 ZM113 125 q0 80 64 144.5 q64 64.5 157 64.5 q67 0 107 -43 q40 -43 40 -113 q0 -81 -62.5 -145 q-62.5 -64 -156.5 -64 q-64 0 -106.5 44 q-42.5 44 -42.5 112 Z" /><glyph glyph-name="quotedbl" unicode="&quot;" d="M276 1497 l254 0 l-129 -561 l-217 0 l92 561 ZM535 936 l92 561 l254 0 l-129 -561 l-217 0 Z" /><glyph glyph-name="numbersign" unicode="#" d="M682 883 l-109 -334 l340 0 l111 334 l-342 0 ZM494 1096 l102 317 l258 0 l-102 -317 l340 0 l104 317 l256 0 l-102 -317 l194 0 l-41 -213 l-223 0 l-109 -334 l193 0 l-41 -213 l-221 0 l-109 -336 l-258 0 l109 336 l-340 0 l-109 -336 l-258 0 l109 336 l-193 0 l41 213 l221 0 l109 334 l-193 0 l41 213 l222 0 Z" /><glyph glyph-name="dollar" unicode="$" d="M272 -61 l39 204 q-122 39 -189.5 134 q-67.5 95 -70.5 223 l240 0 q11 -176 223 -176 q113 0 183.5 44.5 q70.5 44.5 70.5 116.5 q0 54 -58 85 q-58 31 -200 51 q-173 26 -261.5 99 q-88.5 73 -88.5 204 q0 137 101.5 238 q101.5 101 273.5 128 l36 185 l260 0 l-38 -199 q112 -36 174 -124 q62 -88 67 -206 l-239 0 q-6 146 -187 146 q-98 0 -157.5 -39 q-59.5 -39 -59.5 -103 q0 -52 54 -81 q54 -29 180 -44 q185 -24 277.5 -98 q92.5 -74 92.5 -209 q0 -152 -116 -262 q-116 -110 -312 -133 l-35 -184 l-260 0 Z" /><glyph glyph-name="percent" unicode="%" d="M465 647 q-137 0 -221 88.5 q-84 88.5 -84 241.5 q0 121 57 227.5 q57 106.5 163 173 q106 66.5 238 66.5 q137 0 221.5 -89 q84.5 -89 84.5 -241 q0 -121 -58 -227.5 q-58 -106.5 -164.5 -173 q-106.5 -66.5 -236.5 -66.5 ZM254 0 l1110 1413 l305 0 l-1110 -1413 l-305 0 ZM389 987 q0 -66 29.5 -104.5 q29.5 -38.5 83.5 -38.5 q75 0 133.5 79 q58.5 79 58.5 179 q0 67 -29.5 106 q-29.5 39 -82.5 39 q-76 0 -134.5 -78.5 q-58.5 -78.5 -58.5 -181.5 ZM1001 299 q0 121 57 227.5 q57 106.5 163.5 173 q106.5 66.5 238.5 66.5 q137 0 221 -89 q84 -89 84 -241 q0 -121 -57.5 -227.5 q-57.5 -106.5 -164 -173 q-106.5 -66.5 -236.5 -66.5 q-137 0 -221.5 88.5 q-84.5 88.5 -84.5 241.5 ZM1231 309 q0 -66 29 -104.5 q29 -38.5 83 -38.5 q75 0 134 79 q59 79 59 179 q0 67 -30 106 q-30 39 -83 39 q-76 0 -134 -78.5 q-58 -78.5 -58 -181.5 Z" /><glyph glyph-name="ampersand" unicode="&amp;" d="M877 303 l-213 258 q-22 26 -33 41 q-136 -44 -213.5 -105 q-77.5 -61 -77.5 -132 q0 -69 52.5 -107.5 q52.5 -38.5 152.5 -38.5 q170 0 332 84 ZM692 1036 q0 -70 82 -182 q110 40 178 104 q68 64 68 129 q0 48 -36.5 76.5 q-36.5 28.5 -98.5 28.5 q-82 0 -137.5 -45 q-55.5 -45 -55.5 -111 ZM45 315 q0 304 463 455 q-86 138 -86 272 q0 82 33.5 154 q33.5 72 96.5 127.5 q63 55.5 162.5 88 q99.5 32.5 221.5 32.5 q164 0 265.5 -77.5 q101.5 -77.5 101.5 -221.5 q0 -131 -106.5 -249 q-106.5 -118 -297.5 -194 l193 -235 q120 129 172 295 l260 0 q-81 -281 -279 -479 l234 -283 l-353 0 l-94 115 q-250 -148 -547 -148 q-201 0 -320.5 92.5 q-119.5 92.5 -119.5 255.5 Z" /><glyph glyph-name="quotesingle" unicode="&#39;" d="M276 1497 l254 0 l-129 -561 l-217 0 l92 561 Z" /><glyph glyph-name="parenleft" unicode="(" d="M90 498 q0 237 103.5 472.5 q103.5 235.5 293 428 q189.5 192.5 431.5 299.5 l65 -273 q-177 -82 -315.5 -224 q-138.5 -142 -216.5 -320.5 q-78 -178.5 -78 -362.5 q0 -202 75 -356.5 q75 -154.5 222 -245.5 l-146 -238 q-202 109 -318 316 q-116 207 -116 504 Z" /><glyph glyph-name="parenright" unicode=")" d="M797 879 q0 -237 -103.5 -473 q-103.5 -236 -293 -428.5 q-189.5 -192.5 -431.5 -299.5 l-65 273 q177 82 315.5 224 q138.5 142 216.5 320.5 q78 178.5 78 362.5 q0 202 -75 356.5 q-75 154.5 -222 245.5 l145 238 q203 -109 319 -316 q116 -207 116 -503 Z" /><glyph glyph-name="asterisk" unicode="*" d="M567 688 l-106 232 l-195 -232 l-133 121 l225 203 l-235 69 l104 183 l203 -121 l23 270 l198 0 l-78 -266 l252 117 l33 -189 l-258 -63 l145 -203 l-178 -121 Z" /><glyph glyph-name="plus" unicode="+" d="M991 625 l-315 0 l-62 -314 l-262 0 l62 314 l-320 0 l47 243 l320 0 l61 316 l262 0 l-61 -316 l315 0 l-47 -243 Z" /><glyph glyph-name="comma" unicode="," d="M162 319 l305 0 l-340 -581 l-211 0 l246 581 Z" /><glyph glyph-name="hyphen" unicode="-" d="M926 559 l-834 0 l49 256 l834 0 l-49 -256 Z" /><glyph glyph-name="period" unicode="." d="M201 -33 q-65 0 -107.5 44.5 q-42.5 44.5 -42.5 111.5 q0 80 64 144.5 q64 64.5 157 64.5 q67 0 107.5 -43 q40.5 -43 40.5 -113 q0 -81 -62.5 -145 q-62.5 -64 -156.5 -64 Z" /><glyph glyph-name="slash" unicode="/" d="M1024 1608 l319 0 l-1134 -1846 l-320 0 l1135 1846 Z" /><glyph glyph-name="zero" unicode="0" d="M621 -31 q-232 0 -371 162.5 q-139 162.5 -139 433.5 q0 169 60.5 329 q60.5 160 164 281.5 q103.5 121.5 253.5 195 q150 73.5 318 73.5 q236 0 375 -156.5 q139 -156.5 139 -433.5 q0 -168 -61.5 -328.5 q-61.5 -160.5 -166 -283.5 q-104.5 -123 -255 -198 q-150.5 -75 -317.5 -75 ZM468 870 q-62 -135 -62 -288 q0 -153 69 -243.5 q69 -90.5 201 -90.5 q116 0 221 84 q105 84 167 221.5 q62 137.5 62 288.5 q0 154 -69 238.5 q-69 84.5 -203 84.5 q-117 0 -220.5 -80 q-103.5 -80 -165.5 -215 Z" /><glyph glyph-name="one" unicode="1" d="M528 1413 l215 0 l-274 -1413 l-289 0 l217 1116 l-180 0 l31 164 l280 133 Z" /><glyph glyph-name="two" unicode="2" d="M6 0 l47 256 l500 319 q86 54 150 103.5 q64 49.5 117.5 105 q53.5 55.5 81.5 114 q28 58.5 28 118.5 q0 69 -43 109 q-43 40 -121 40 q-96 0 -174 -60.5 q-78 -60.5 -123 -172.5 l-299 0 q41 104 101.5 193.5 q60.5 89.5 143 162.5 q82.5 73 192 114.5 q109.5 41.5 233.5 41.5 q180 0 286.5 -94.5 q106.5 -94.5 106.5 -264.5 q0 -357 -539 -692 l-200 -125 l661 0 l-51 -268 l-1098 0 Z" /><glyph glyph-name="three" unicode="3" d="M516 -31 q-110 0 -202 39.5 q-92 39.5 -152 106.5 q-60 67 -91.5 154.5 q-31.5 87.5 -29.5 183.5 l301 0 q2 -97 58 -152 q56 -55 163 -55 q114 0 193.5 74 q79.5 74 79.5 180 q0 72 -57.5 113.5 q-57.5 41.5 -180.5 41.5 l-160 0 l33 181 l346 309 l-598 0 l51 268 l959 0 l-47 -248 l-383 -323 q153 -29 238 -114.5 q85 -85.5 85 -231.5 q0 -108 -41.5 -203.5 q-41.5 -95.5 -117.5 -167.5 q-76 -72 -191.5 -114 q-115.5 -42 -255.5 -42 Z" /><glyph glyph-name="four" unicode="4" d="M913 1184 l-577 -674 l446 0 l131 674 ZM864 1413 l375 0 l-176 -903 l248 0 l-47 -244 l-248 0 l-51 -266 l-281 0 l51 266 l-719 0 l39 209 l809 938 Z" /><glyph glyph-name="five" unicode="5" d="M504 -31 q-224 0 -351 124.5 q-127 124.5 -126 346.5 l297 0 q3 -92 52 -142 q49 -50 159 -50 q123 0 207.5 79.5 q84.5 79.5 84.5 196.5 q0 81 -52 133 q-52 52 -140 52 q-82 0 -156 -39 q-74 -39 -123 -99 l-250 58 l293 784 l785 0 l-54 -274 l-585 0 l-127 -342 q164 116 350 116 q72 0 136 -22.5 q64 -22.5 115 -64.5 q51 -42 81 -109.5 q30 -67.5 30 -151.5 q0 -124 -45 -233 q-45 -109 -125.5 -189.5 q-80.5 -80.5 -198.5 -127 q-118 -46.5 -257 -46.5 Z" /><glyph glyph-name="six" unicode="6" d="M436 434 q0 -91 54.5 -147 q54.5 -56 154.5 -56 q119 0 212 91 q93 91 93 208 q0 87 -58.5 145 q-58.5 58 -148.5 58 q-120 0 -213.5 -91.5 q-93.5 -91.5 -93.5 -207.5 ZM602 -31 q-121 0 -217 42.5 q-96 42.5 -157 117 q-61 74.5 -92.5 173.5 q-31.5 99 -31.5 216 q0 249 101.5 461.5 q101.5 212.5 281.5 338.5 q180 126 396 126 q101 0 183.5 -36 q82.5 -36 134.5 -97 q52 -61 81 -138.5 q29 -77.5 31 -164.5 l-285 0 q-11 76 -60 118.5 q-49 42.5 -137 42.5 q-144 0 -264.5 -121.5 q-120.5 -121.5 -156.5 -310.5 q167 193 434 193 q170 0 283.5 -101 q113.5 -101 113.5 -288 q0 -148 -86.5 -280 q-86.5 -132 -234.5 -212 q-148 -80 -318 -80 Z" /><glyph glyph-name="seven" unicode="7" d="M184 0 l686 1133 l-735 0 l55 280 l1047 0 l-43 -219 l-694 -1194 l-316 0 Z" /><glyph glyph-name="eight" unicode="8" d="M395 403 q0 -76 61 -120.5 q61 -44.5 175 -44.5 q140 0 228.5 69 q88.5 69 88.5 178 q0 75 -61 117.5 q-61 42.5 -176 42.5 q-140 0 -228 -67 q-88 -67 -88 -175 ZM578 981 q0 -65 48 -105 q48 -40 122 -40 q98 0 168.5 65 q70.5 65 70.5 154 q0 64 -48 99.5 q-48 35.5 -124 35.5 q-101 0 -169 -60 q-68 -60 -68 -149 ZM580 -31 q-222 0 -359 97.5 q-137 97.5 -137 259.5 q0 151 96.5 268 q96.5 117 251.5 164 q-65 35 -102 96.5 q-37 61.5 -37 144.5 q0 125 74.5 227 q74.5 102 205.5 160 q131 58 293 58 q197 0 312.5 -83 q115.5 -83 115.5 -222 q0 -118 -73 -223 q-73 -105 -187 -158 q97 -33 153 -105 q56 -72 56 -174 q0 -141 -87.5 -258.5 q-87.5 -117.5 -239.5 -184.5 q-152 -67 -336 -67 Z" /><glyph glyph-name="nine" unicode="9" d="M428 883 q0 -87 58.5 -145 q58.5 -58 148.5 -58 q120 0 213.5 91.5 q93.5 91.5 93.5 207.5 q0 91 -54.5 147 q-54.5 56 -154.5 56 q-119 0 -212 -91 q-93 -91 -93 -208 ZM776 1444 q121 0 217 -42.5 q96 -42.5 157 -117 q61 -74.5 92.5 -173.5 q31.5 -99 31.5 -216 q0 -149 -38 -289.5 q-38 -140.5 -109 -255 q-71 -114.5 -166 -200.5 q-95 -86 -215 -133.5 q-120 -47.5 -250 -47.5 q-101 0 -183.5 36 q-82.5 36 -134.5 97.5 q-52 61.5 -81 139 q-29 77.5 -31 164.5 l284 0 q11 -76 60 -119 q49 -43 137 -43 q144 0 265 122 q121 122 157 310 q-167 -193 -434 -193 q-170 0 -284 101 q-114 101 -114 288 q0 148 86.5 280 q86.5 132 234.5 212 q148 80 318 80 Z" /><glyph glyph-name="colon" unicode=":" d="M240 4 q-65 0 -107.5 44.5 q-42.5 44.5 -42.5 111.5 q0 80 64 144.5 q64 64.5 157 64.5 q67 0 107.5 -43 q40.5 -43 40.5 -113 q0 -81 -62.5 -145 q-62.5 -64 -156.5 -64 ZM225 850 q0 80 64 144.5 q64 64.5 157 64.5 q67 0 107.5 -43 q40.5 -43 40.5 -113 q0 -81 -62.5 -145 q-62.5 -64 -156.5 -64 q-65 0 -107.5 44.5 q-42.5 44.5 -42.5 111.5 Z" /><glyph glyph-name="semicolon" unicode=";" d="M203 332 l305 0 l-340 -582 l-211 0 l246 582 ZM231 846 q0 80 64.5 144.5 q64.5 64.5 157.5 64.5 q67 0 107 -43 q40 -43 40 -113 q0 -81 -62.5 -145 q-62.5 -64 -156.5 -64 q-65 0 -107.5 44.5 q-42.5 44.5 -42.5 111.5 Z" /><glyph glyph-name="less" unicode="&lt;" d="M989 1317 l-59 -309 l-520 -291 l407 -291 l-51 -262 l-619 463 l46 229 l796 461 Z" /><glyph glyph-name="equal" unicode="=" d="M1028 811 l-897 0 l47 244 l897 0 l-47 -244 ZM49 379 l47 244 l897 0 l-47 -244 l-897 0 Z" /><glyph glyph-name="greater" unicode="&gt;" d="M80 164 l59 309 l520 291 l-407 291 l51 262 l619 -463 l-45 -229 l-797 -461 Z" /><glyph glyph-name="question" unicode="?" d="M762 1167 q-108 0 -194 -52.5 q-86 -52.5 -122 -147.5 l-301 0 q37 106 90 188 q53 82 131.5 149.5 q78.5 67.5 192.5 103.5 q114 36 258 36 q201 0 310.5 -96 q109.5 -96 109.5 -254 q0 -146 -95.5 -253 q-95.5 -107 -293.5 -190 q-57 -23 -91.5 -42 q-34.5 -19 -56.5 -34.5 q-22 -15.5 -34.5 -40 q-12.5 -24.5 -18.5 -45 q-6 -20.5 -14 -63.5 l-285 0 q15 84 32.5 137.5 q17.5 53.5 50 104.5 q32.5 51 84.5 90 q52 39 132 76 q159 74 223 119.5 q64 45.5 64 105.5 q0 52 -43.5 80 q-43.5 28 -128.5 28 ZM254 123 q0 80 64 144.5 q64 64.5 157 64.5 q67 0 107.5 -43 q40.5 -43 40.5 -113 q0 -80 -63 -144.5 q-63 -64.5 -157 -64.5 q-64 0 -106.5 44 q-42.5 44 -42.5 112 Z" /><glyph glyph-name="at" unicode="@" d="M748 582 q0 -84 48.5 -135.5 q48.5 -51.5 127.5 -51.5 q91 0 165.5 67 q74.5 67 96.5 165 l4 18 q4 32 4 47 q0 82 -48 131 q-48 49 -128 49 q-110 0 -190 -86.5 q-80 -86.5 -80 -203.5 ZM774 -188 q-140 0 -261.5 42 q-121.5 42 -213.5 121 q-92 79 -144.5 202.5 q-52.5 123.5 -52.5 277.5 q0 200 76 379.5 q76 179.5 212.5 313.5 q136.5 134 339 213 q202.5 79 441.5 79 q156 0 293 -47.5 q137 -47.5 239 -134.5 q102 -87 161 -219.5 q59 -132.5 59 -293.5 q0 -162 -55.5 -298 q-55.5 -136 -159.5 -218 q-104 -82 -235 -82 q-124 0 -196 59.5 q-72 59.5 -91 155.5 q-63 -87 -157 -131.5 q-94 -44.5 -204 -44.5 q-141 0 -234 97 q-93 97 -93 252 q0 142 64.5 267.5 q64.5 125.5 179.5 203 q115 77.5 253 77.5 q89 0 153.5 -38.5 q64.5 -38.5 96.5 -110.5 l23 117 l235 0 l-100 -525 q-46 -231 104 -231 q71 0 132.5 63.5 q61.5 63.5 97 166 q35.5 102.5 35.5 214.5 q0 257 -169 411.5 q-169 154.5 -456 154.5 q-182 0 -347 -66.5 q-165 -66.5 -283.5 -179 q-118.5 -112.5 -188.5 -268 q-70 -155.5 -70 -326.5 q0 -236 151 -377 q151 -141 392 -141 q158 0 295 39 l-27 -142 q-117 -32 -295 -32 Z" /><glyph glyph-name="A" unicode="A" d="M856 1133 l-328 -596 l426 0 l-98 596 ZM231 0 l-301 0 l805 1413 l330 0 l260 -1413 l-283 0 l-49 303 l-594 0 l-168 -303 Z" /><glyph glyph-name="B" unicode="B" d="M463 612 l-68 -352 l338 0 q108 0 178 62 q70 62 70 149 q0 69 -43 105 q-43 36 -117 36 l-358 0 ZM567 1153 l-61 -317 l246 0 q92 0 157.5 49.5 q65.5 49.5 65.5 124.5 q0 69 -42.5 106 q-42.5 37 -115.5 37 l-250 0 ZM680 0 l-623 0 l275 1413 l590 0 q170 0 266 -82.5 q96 -82.5 96 -224.5 q0 -102 -57.5 -192.5 q-57.5 -90.5 -159.5 -149.5 q100 -36 154.5 -112 q54.5 -76 54.5 -187 q0 -210 -163 -337.5 q-163 -127.5 -433 -127.5 Z" /><glyph glyph-name="C" unicode="C" d="M80 567 q0 113 30.5 223 q30.5 110 85.5 207 q55 97 137 179.5 q82 82.5 181 141.5 q99 59 220.5 92.5 q121.5 33.5 252.5 33.5 q243 0 403 -151.5 q160 -151.5 177 -389.5 l-301 0 q-25 124 -114 193 q-89 69 -220 69 q-108 0 -210.5 -45.5 q-102.5 -45.5 -177 -120 q-74.5 -74.5 -120 -177 q-45.5 -102.5 -45.5 -210.5 q0 -161 102.5 -262.5 q102.5 -101.5 270.5 -101.5 q141 0 259.5 68 q118.5 68 188.5 198 l301 0 q-109 -263 -315 -404 q-206 -141 -486 -141 q-180 0 -322 78 q-142 78 -220 214 q-78 136 -78 306 Z" /><glyph glyph-name="D" unicode="D" d="M57 0 l275 1413 l563 0 q290 0 456.5 -165.5 q166.5 -165.5 166.5 -436.5 q0 -131 -38.5 -251 q-38.5 -120 -116 -222 q-77.5 -102 -187.5 -177.5 q-110 -75.5 -261 -118 q-151 -42.5 -327 -42.5 l-531 0 ZM395 264 l236 0 q166 0 302 71 q136 71 212 192 q76 121 76 264 q0 163 -95.5 260.5 q-95.5 97.5 -267.5 97.5 l-291 0 l-172 -885 Z" /><glyph glyph-name="E" unicode="E" d="M332 1413 l999 0 l-51 -266 l-713 0 l-55 -283 l623 0 l-54 -258 l-620 0 l-66 -340 l713 0 l-51 -266 l-1000 0 l275 1413 Z" /><glyph glyph-name="F" unicode="F" d="M57 0 l275 1413 l1036 0 l-51 -266 l-750 0 l-65 -338 l655 0 l-51 -266 l-657 0 l-105 -543 l-287 0 Z" /><glyph glyph-name="G" unicode="G" d="M694 -31 q-268 0 -440 173.5 q-172 173.5 -172 445.5 q0 162 67.5 316.5 q67.5 154.5 184.5 274 q117 119.5 288.5 192.5 q171.5 73 366.5 73 q236 0 394.5 -141.5 q158.5 -141.5 177.5 -364.5 l-314 0 q-21 113 -104 170 q-83 57 -209 57 q-108 0 -210.5 -45.5 q-102.5 -45.5 -177 -120 q-74.5 -74.5 -120 -177 q-45.5 -102.5 -45.5 -210.5 q0 -161 101.5 -262.5 q101.5 -101.5 267.5 -101.5 q134 0 251.5 61 q117.5 61 190.5 170 l10 56 l-420 0 l49 256 l705 0 l-154 -791 l-223 0 l-6 111 q-208 -142 -459 -142 Z" /><glyph glyph-name="H" unicode="H" d="M332 1413 l286 0 l-104 -543 l657 0 l105 543 l287 0 l-275 -1413 l-287 0 l117 604 l-657 0 l-117 -604 l-287 0 l275 1413 Z" /><glyph glyph-name="I" unicode="I" d="M332 1413 l286 0 l-274 -1413 l-287 0 l275 1413 Z" /><glyph glyph-name="J" unicode="J" d="M565 604 l158 809 l287 0 l-164 -835 q-33 -166 -87.5 -284 q-54.5 -118 -130.5 -189 q-76 -71 -168.5 -103.5 q-92.5 -32.5 -209.5 -32.5 q-196 0 -313 66 l57 293 q64 -43 121.5 -62.5 q57.5 -19.5 126.5 -19.5 q130 0 209 87.5 q79 87.5 114 270.5 Z" /><glyph glyph-name="K" unicode="K" d="M332 1413 l286 0 l-126 -655 l647 655 l391 0 l-717 -692 l469 -721 l-330 0 l-469 713 l-139 -713 l-287 0 l275 1413 Z" /><glyph glyph-name="L" unicode="L" d="M57 0 l275 1413 l286 0 l-223 -1145 l731 0 l-51 -268 l-1018 0 Z" /><glyph glyph-name="M" unicode="M" d="M793 158 l-240 919 l-209 -1077 l-287 0 l275 1413 l422 0 l231 -905 l592 905 l465 0 l-275 -1413 l-292 0 l206 1061 l-604 -903 l-284 0 Z" /><glyph glyph-name="N" unicode="N" d="M989 0 l-448 1049 l-203 -1049 l-281 0 l275 1413 l356 0 l422 -985 l193 985 l278 0 l-274 -1413 l-318 0 Z" /><glyph glyph-name="O" unicode="O" d="M702 -31 q-275 0 -447.5 171.5 q-172.5 171.5 -172.5 445.5 q0 169 68 325 q68 156 186 274 q118 118 288.5 188.5 q170.5 70.5 364.5 70.5 q134 0 249 -46.5 q115 -46.5 196.5 -127.5 q81.5 -81 127.5 -195.5 q46 -114.5 46 -247.5 q0 -169 -65.5 -325 q-65.5 -156 -181.5 -274 q-116 -118 -287.5 -188.5 q-171.5 -70.5 -371.5 -70.5 ZM379 614 q0 -165 98.5 -265.5 q98.5 -100.5 278.5 -100.5 q143 0 271.5 77 q128.5 77 206 204.5 q77.5 127.5 77.5 269.5 q0 161 -99 263.5 q-99 102.5 -278 102.5 q-144 0 -272.5 -77 q-128.5 -77 -205.5 -204.5 q-77 -127.5 -77 -269.5 Z" /><glyph glyph-name="P" unicode="P" d="M567 1147 l-84 -430 l248 0 q126 0 209.5 69.5 q83.5 69.5 83.5 188.5 q0 77 -55.5 124.5 q-55.5 47.5 -153.5 47.5 l-248 0 ZM692 451 l-260 0 l-88 -451 l-287 0 l275 1413 l506 0 q226 0 354.5 -114.5 q128.5 -114.5 128.5 -319.5 q0 -109 -40.5 -204 q-40.5 -95 -117.5 -167.5 q-77 -72.5 -198 -114.5 q-121 -42 -273 -42 Z" /><glyph glyph-name="Q" unicode="Q" d="M379 614 q0 -165 98.5 -265.5 q98.5 -100.5 278.5 -100.5 q143 0 271.5 77 q128.5 77 206 204.5 q77.5 127.5 77.5 269.5 q0 161 -99 263.5 q-99 102.5 -278 102.5 q-144 0 -272.5 -77 q-128.5 -77 -205.5 -204.5 q-77 -127.5 -77 -269.5 ZM1020 20 l260 -139 l-158 -231 l-692 373 q-162 70 -255 218 q-93 148 -93 345 q0 169 68 325 q68 156 186 274 q118 118 288.5 188.5 q170.5 70.5 364.5 70.5 q134 0 249 -46.5 q115 -46.5 196.5 -127.5 q81.5 -81 127.5 -195.5 q46 -114.5 46 -247.5 q0 -272 -159 -494.5 q-159 -222.5 -429 -312.5 Z" /><glyph glyph-name="R" unicode="R" d="M567 1145 l-71 -361 l315 0 q103 0 174.5 60.5 q71.5 60.5 71.5 148.5 q0 67 -47 109.5 q-47 42.5 -125 42.5 l-318 0 ZM344 0 l-287 0 l275 1413 l614 0 q192 0 303 -108.5 q111 -108.5 111 -298.5 q0 -180 -122.5 -308.5 q-122.5 -128.5 -332.5 -160.5 l373 -537 l-338 0 l-365 526 l-129 0 l-102 -526 Z" /><glyph glyph-name="S" unicode="S" d="M541 -31 q-220 0 -350.5 124.5 q-130.5 124.5 -127.5 338.5 l281 0 q6 -219 219 -219 q115 0 186.5 53.5 q71.5 53.5 71.5 134.5 q0 79 -60.5 125 q-60.5 46 -189.5 78 q-188 46 -280 143 q-92 97 -92 252 q0 190 140.5 317.5 q140.5 127.5 375.5 127.5 q212 0 333.5 -107.5 q121.5 -107.5 125.5 -322.5 l-283 0 q-3 91 -56 138.5 q-53 47.5 -145 47.5 q-95 0 -157 -46 q-62 -46 -62 -116 q0 -71 61 -112.5 q61 -41.5 195 -73.5 q369 -91 369 -399 q0 -101 -36.5 -188.5 q-36.5 -87.5 -105.5 -153.5 q-69 -66 -175 -104 q-106 -38 -238 -38 Z" /><glyph glyph-name="T" unicode="T" d="M1354 1145 l-449 0 l-223 -1145 l-287 0 l223 1145 l-448 0 l51 268 l1184 0 l-51 -268 Z" /><glyph glyph-name="U" unicode="U" d="M649 -31 q-184 0 -308.5 91.5 q-124.5 91.5 -171.5 264 q-47 172.5 -3 400.5 l133 688 l287 0 l-142 -729 q-43 -225 24.5 -330.5 q67.5 -105.5 225.5 -105.5 q150 0 264 107.5 q114 107.5 156 328.5 l141 729 l287 0 l-141 -729 q-71 -370 -255 -542.5 q-184 -172.5 -497 -172.5 Z" /><glyph glyph-name="V" unicode="V" d="M422 0 l-248 1413 l289 0 l170 -1079 l592 1079 l319 0 l-796 -1413 l-326 0 Z" /><glyph glyph-name="W" unicode="W" d="M418 0 l-244 1413 l305 0 l156 -1005 l543 1005 l299 0 l147 -1016 l553 1016 l305 0 l-792 -1413 l-291 0 l-154 1014 l-534 -1014 l-293 0 Z" /><glyph glyph-name="X" unicode="X" d="M-78 0 l631 741 l-324 672 l314 0 l217 -463 l385 463 l352 0 l-588 -696 l348 -717 l-315 0 l-240 512 l-426 -512 l-354 0 Z" /><glyph glyph-name="Y" unicode="Y" d="M442 0 l119 608 l-381 805 l307 0 l248 -551 l447 551 l354 0 l-698 -838 l-111 -575 l-285 0 Z" /><glyph glyph-name="Z" unicode="Z" d="M12 0 l45 242 l856 903 l-725 0 l52 268 l1101 0 l-47 -248 l-854 -897 l740 0 l-52 -268 l-1116 0 Z" /><glyph glyph-name="bracketleft" unicode="[" d="M82 -211 l377 1935 l577 5 l-45 -230 l-311 -4 l-287 -1479 l309 -2 l-43 -229 l-577 4 Z" /><glyph glyph-name="backslash" unicode="\" d="M528 1608 l318 -1846 l-279 0 l-317 1846 l278 0 Z" /><glyph glyph-name="bracketright" unicode="]" d="M-113 -215 l45 229 l312 4 l286 1479 l-309 2 l43 230 l578 -5 l-377 -1935 l-578 -4 Z" /><glyph glyph-name="asciicircum" unicode="^" d="M758 1497 l319 0 l326 -891 l-305 0 l-217 654 l-471 -654 l-326 0 l674 891 Z" /><glyph glyph-name="underscore" unicode="_" d="M993 -295 l-1157 0 l49 248 l1155 0 l-47 -248 Z" /><glyph glyph-name="a" unicode="a" d="M334 465 q0 -104 64 -170 q64 -66 177 -66 q136 0 245.5 110 q109.5 110 109.5 245 q0 103 -64.5 170 q-64.5 67 -175.5 67 q-146 0 -251 -108.5 q-105 -108.5 -105 -247.5 ZM471 -31 q-175 0 -294.5 132 q-119.5 132 -119.5 348 q0 127 51 244.5 q51 117.5 135.5 202.5 q84.5 85 197 136 q112.5 51 231.5 51 q110 0 193.5 -55 q83.5 -55 125.5 -151 l35 176 l268 0 l-202 -1053 l-269 0 l29 143 q-76 -84 -174.5 -129 q-98.5 -45 -206.5 -45 Z" /><glyph glyph-name="b" unicode="b" d="M414 469 q0 -103 64 -170.5 q64 -67.5 175 -67.5 q146 0 251.5 109 q105.5 109 105.5 248 q0 104 -64.5 169.5 q-64.5 65.5 -177.5 65.5 q-136 0 -245 -109.5 q-109 -109.5 -109 -244.5 ZM315 0 l-270 0 l291 1495 l270 0 l-114 -588 q76 86 174 131 q98 45 206 45 q175 0 294.5 -131.5 q119.5 -131.5 119.5 -347.5 q0 -127 -51 -245 q-51 -118 -135 -203 q-84 -85 -196.5 -136 q-112.5 -51 -231.5 -51 q-110 0 -194 56 q-84 56 -128 153 l-35 -178 Z" /><glyph glyph-name="c" unicode="c" d="M526 -31 q-212 0 -343.5 132.5 q-131.5 132.5 -131.5 344.5 q0 133 52 250.5 q52 117.5 142 202.5 q90 85 218 134.5 q128 49.5 274 49.5 q182 0 307 -124 q125 -124 130 -308 l-271 0 q-16 79 -69.5 125.5 q-53.5 46.5 -149.5 46.5 q-137 0 -247.5 -108.5 q-110.5 -108.5 -110.5 -241.5 q0 -108 66 -177 q66 -69 177 -69 q90 0 174 44 q84 44 131 130 l273 0 q-78 -212 -240 -322 q-162 -110 -381 -110 Z" /><glyph glyph-name="d" unicode="d" d="M328 465 q0 -104 64 -170 q64 -66 177 -66 q136 0 245.5 110 q109.5 110 109.5 245 q0 103 -64.5 170 q-64.5 67 -175.5 67 q-146 0 -251 -108.5 q-105 -108.5 -105 -247.5 ZM1087 0 l-270 0 l29 143 q-76 -84 -174.5 -129 q-98.5 -45 -206.5 -45 q-175 0 -294.5 132 q-119.5 132 -119.5 348 q0 127 51 244.5 q51 117.5 135.5 202.5 q84.5 85 197 136 q112.5 51 231.5 51 q110 0 193.5 -55 q83.5 -55 127.5 -151 l119 618 l270 0 l-289 -1495 Z" /><glyph glyph-name="e" unicode="e" d="M375 643 l520 0 q-13 83 -68.5 132.5 q-55.5 49.5 -148.5 49.5 q-95 0 -175.5 -49.5 q-80.5 -49.5 -127.5 -132.5 ZM520 -31 q-203 0 -336 127.5 q-133 127.5 -133 345.5 q0 187 92.5 335 q92.5 148 248 227.5 q155.5 79.5 341.5 78.5 q155 -1 262 -79.5 q107 -78.5 148 -219 q41 -140.5 10 -319.5 l-825 -4 q2 -101 65.5 -165.5 q63.5 -64.5 177.5 -64.5 q91 0 155 28 q64 28 110 93 l276 0 q-72 -187 -224.5 -285 q-152.5 -98 -367.5 -98 Z" /><glyph glyph-name="f" unicode="f" d="M369 1073 q43 220 181.5 336.5 q138.5 116.5 334.5 116.5 q137 0 250 -47 l-58 -254 q-84 61 -205 61 q-91 0 -149 -52 q-58 -52 -78 -153 l-6 -28 l360 0 l-45 -234 l-360 0 l-160 -819 l-274 0 l159 819 l-198 0 l45 234 l199 0 l4 20 Z" /><glyph glyph-name="g" unicode="g" d="M328 516 q0 -97 56.5 -156 q56.5 -59 160.5 -59 q108 0 197 74.5 q89 74.5 114 181.5 l4 25 q4 32 4 47 q0 96 -58.5 157.5 q-58.5 61.5 -154.5 61.5 q-127 0 -225 -100.5 q-98 -100.5 -98 -231.5 ZM420 -379 q-193 0 -307 102 q-114 102 -133 271 l280 0 q6 -67 55.5 -103 q49.5 -36 139.5 -36 q125 0 211 84.5 q86 84.5 120 261.5 l11 57 q-74 -90 -169.5 -141 q-95.5 -51 -197.5 -51 q-166 0 -272.5 111.5 q-106.5 111.5 -106.5 285.5 q0 161 72.5 302.5 q72.5 141.5 206 229.5 q133.5 88 297.5 88 q105 0 180 -52 q75 -52 113 -144 l32 166 l273 0 l-160 -826 q-61 -317 -224.5 -461.5 q-163.5 -144.5 -420.5 -144.5 Z" /><glyph glyph-name="h" unicode="h" d="M336 1495 l274 0 l-116 -604 q67 90 163.5 140 q96.5 50 202.5 50 q58 0 107 -15 q49 -15 91 -48.5 q42 -33.5 65.5 -88 q23.5 -54.5 30.5 -132.5 q7 -78 -15 -183 l-119 -614 l-275 0 l115 588 q49 254 -141 254 q-92 0 -171 -63 q-79 -63 -114 -185 l-115 -594 l-274 0 l291 1495 Z" /><glyph glyph-name="i" unicode="i" d="M45 0 l205 1053 l274 0 l-205 -1053 l-274 0 ZM285 1335 q0 74 53.5 128.5 q53.5 54.5 138.5 54.5 q59 0 96 -36 q37 -36 37 -93 q0 -74 -55 -130.5 q-55 -56.5 -139 -56.5 q-58 0 -94.5 37 q-36.5 37 -36.5 96 Z" /><glyph glyph-name="j" unicode="j" d="M-150 -121 q18 -4 50 -4 q63 0 97 38 q34 38 48 114 l199 1026 l272 0 l-197 -1012 q-42 -213 -140 -311.5 q-98 -98.5 -279 -98.5 q-36 0 -97 7 l47 241 ZM281 1339 q0 73 58.5 130 q58.5 57 133.5 57 q57 0 94 -36.5 q37 -36.5 37 -90.5 q0 -72 -59 -129.5 q-59 -57.5 -133 -57.5 q-58 0 -94.5 35.5 q-36.5 35.5 -36.5 91.5 Z" /><glyph glyph-name="k" unicode="k" d="M725 0 l-305 526 l-103 -526 l-272 0 l291 1495 l272 0 l-174 -899 l471 457 l348 0 l-532 -510 l307 -543 l-303 0 Z" /><glyph glyph-name="l" unicode="l" d="M336 1495 l272 0 l-291 -1495 l-272 0 l291 1495 Z" /><glyph glyph-name="m" unicode="m" d="M250 1053 l274 0 l-30 -160 q70 92 160 141 q90 49 192 49 q105 0 175.5 -58 q70.5 -58 84.5 -181 q74 116 174 177.5 q100 61.5 217 61.5 q56 0 101.5 -14 q45.5 -14 83.5 -45.5 q38 -31.5 57.5 -83.5 q19.5 -52 24 -127 q4.5 -75 -16.5 -176 l-123 -637 l-274 0 l116 602 q47 238 -123 238 q-89 0 -162.5 -70.5 q-73.5 -70.5 -99.5 -202.5 l-110 -567 l-273 0 l117 602 q23 116 -11 177 q-34 61 -114 61 q-88 0 -160.5 -70.5 q-72.5 -70.5 -99.5 -202.5 l-111 -567 l-274 0 l205 1053 Z" /><glyph glyph-name="n" unicode="n" d="M250 1053 l274 0 l-24 -131 q150 163 338 163 q72 0 131.5 -29.5 q59.5 -29.5 103 -90.5 q43.5 -61 55 -156 q11.5 -95 -11.5 -225 l-112 -584 l-275 0 l109 561 q55 281 -140 281 q-96 0 -167 -71.5 q-71 -71.5 -103 -209.5 l-109 -561 l-274 0 l205 1053 Z" /><glyph glyph-name="o" unicode="o" d="M522 -31 q-209 0 -340 132.5 q-131 132.5 -131 340.5 q0 124 49.5 240 q49.5 116 137 205 q87.5 89 218.5 142.5 q131 53.5 283 53.5 q205 0 336 -132 q131 -132 131 -335 q0 -100 -30.5 -195.5 q-30.5 -95.5 -90 -177 q-59.5 -81.5 -141 -143 q-81.5 -61.5 -190.5 -96.5 q-109 -35 -232 -35 ZM328 469 q0 -107 64 -172.5 q64 -65.5 179 -65.5 q138 0 248.5 108.5 q110.5 108.5 110.5 244.5 q0 105 -65.5 170 q-65.5 65 -178.5 65 q-139 0 -248.5 -107.5 q-109.5 -107.5 -109.5 -242.5 Z" /><glyph glyph-name="p" unicode="p" d="M408 469 q0 -103 64 -170.5 q64 -67.5 175 -67.5 q146 0 251.5 109 q105.5 109 105.5 248 q0 104 -64.5 169.5 q-64.5 65.5 -177.5 65.5 q-136 0 -245 -109.5 q-109 -109.5 -109 -244.5 ZM242 -348 l-273 0 l273 1401 l272 0 l-29 -146 q76 86 174.5 131 q98.5 45 206.5 45 q175 0 294.5 -131.5 q119.5 -131.5 119.5 -347.5 q0 -127 -51 -245 q-51 -118 -135 -203 q-84 -85 -196.5 -136 q-112.5 -51 -231.5 -51 q-110 0 -194 56 q-84 56 -128 153 l-102 -526 Z" /><glyph glyph-name="q" unicode="q" d="M328 465 q0 -104 64 -170 q64 -66 177 -66 q136 0 245.5 110 q109.5 110 109.5 245 q0 103 -64.5 170 q-64.5 67 -175.5 67 q-146 0 -251 -108.5 q-105 -108.5 -105 -247.5 ZM1026 -348 l-276 0 l94 491 q-75 -84 -173 -129 q-98 -45 -206 -45 q-175 0 -294.5 132 q-119.5 132 -119.5 348 q0 127 51 244.5 q51 117.5 135.5 202.5 q84.5 85 197 136 q112.5 51 231.5 51 q110 0 193.5 -55 q83.5 -55 125.5 -151 l35 176 l276 0 l-270 -1401 Z" /><glyph glyph-name="r" unicode="r" d="M250 1053 l262 0 l-39 -199 q62 106 160.5 164 q98.5 58 228.5 51 l-53 -281 q-173 15 -268.5 -67.5 q-95.5 -82.5 -128.5 -257.5 l0 2 l-90 -465 l-277 0 l205 1053 Z" /><glyph glyph-name="s" unicode="s" d="M403 -31 q-181 0 -289.5 98 q-108.5 98 -109.5 273 l248 0 q0 -76 44 -113 q44 -37 118 -37 q67 0 109 26.5 q42 26.5 42 72.5 q0 47 -37.5 73 q-37.5 26 -126.5 56 q-65 22 -114.5 48 q-49.5 26 -93.5 65 q-44 39 -67.5 95.5 q-23.5 56.5 -23.5 127.5 q0 145 102 237 q102 92 285 92 q165 0 265 -87 q100 -87 106 -263 l-244 0 q-8 131 -151 131 q-56 0 -88.5 -22.5 q-32.5 -22.5 -32.5 -63.5 q0 -43 41 -71 q41 -28 135 -60 q63 -22 110 -48 q47 -26 89.5 -64.5 q42.5 -38.5 65 -94 q22.5 -55.5 22.5 -125.5 q0 -160 -106.5 -253 q-106.5 -93 -297.5 -93 Z" /><glyph glyph-name="t" unicode="t" d="M719 -6 q-119 -17 -184 -17 q-121 0 -202.5 34 q-81.5 34 -120.5 98 q-39 64 -48.5 154.5 q-9.5 90.5 14.5 203.5 l68 352 l-176 0 l45 234 l176 0 l63 327 l269 0 l-64 -327 l330 0 l-45 -234 l-330 0 l-61 -313 q-19 -96 -20.5 -159.5 q-1.5 -63.5 36 -94.5 q37.5 -31 125.5 -31 q73 0 172 17 l-47 -244 Z" /><glyph glyph-name="u" unicode="u" d="M963 0 l-275 0 l23 119 q-66 -72 -151 -111 q-85 -39 -173 -39 q-59 0 -109.5 18.5 q-50.5 18.5 -92 58 q-41.5 39.5 -64.5 101 q-23 61.5 -27.5 147.5 q-4.5 86 17.5 198 l108 561 l273 0 l-109 -559 q-56 -281 133 -281 q87 0 161.5 66 q74.5 66 100.5 186 l115 588 l274 0 l-204 -1053 Z" /><glyph glyph-name="v" unicode="v" d="M307 0 l-186 1053 l282 0 l107 -770 l408 770 l307 0 l-596 -1053 l-322 0 Z" /><glyph glyph-name="w" unicode="w" d="M315 0 l-194 1053 l287 0 l106 -715 l397 715 l263 0 l116 -717 l383 717 l307 0 l-604 -1053 l-284 0 l-119 666 l-369 -666 l-289 0 Z" /><glyph glyph-name="x" unicode="x" d="M987 0 l-301 0 l-162 346 l-280 -346 l-328 0 l473 547 l-244 506 l299 0 l146 -328 l264 328 l330 0 l-459 -531 l262 -522 Z" /><glyph glyph-name="y" unicode="y" d="M72 -348 l233 399 l-201 1002 l281 0 l125 -666 l385 666 l305 0 l-823 -1401 l-305 0 Z" /><glyph glyph-name="z" unicode="z" d="M1042 831 l-632 -598 l573 0 l-45 -233 l-918 0 l41 209 l641 610 l-555 0 l46 234 l892 0 l-43 -222 Z" /><glyph glyph-name="braceleft" unicode="{" d="M80 618 l43 222 l125 0 q155 0 155 137 q0 41 -31.5 140.5 q-31.5 99.5 -31.5 168.5 q0 211 156 329 q156 118 479 118 l-45 -254 q-159 0 -242.5 -53 q-83.5 -53 -83.5 -154 q0 -48 26.5 -148.5 q26.5 -100.5 26.5 -156.5 q0 -97 -55.5 -158.5 q-55.5 -61.5 -142.5 -79.5 q62 -14 94.5 -56 q32.5 -42 32.5 -108 q0 -51 -21.5 -106 q-21.5 -55 -52 -103 q-30.5 -48 -61.5 -94 q-31 -46 -52.5 -93.5 q-21.5 -47.5 -21.5 -86.5 q0 -65 57 -94 q57 -29 195 -29 l-45 -233 q-231 0 -360.5 85 q-129.5 85 -129.5 218 q0 65 23.5 126.5 q23.5 61.5 57 109 q33.5 47.5 67 92 q33.5 44.5 57 92.5 q23.5 48 23.5 94 q0 75 -117 75 l-125 0 Z" /><glyph glyph-name="bar" unicode="|" d="M680 1718 l281 0 l-392 -2015 l-280 0 l391 2015 Z" /><glyph glyph-name="braceright" unicode="}" d="M-123 -274 l45 254 q159 0 242.5 52.5 q83.5 52.5 83.5 153.5 q0 48 -26.5 149 q-26.5 101 -26.5 157 q0 97 55.5 158 q55.5 61 142.5 79 q-62 14 -94.5 56 q-32.5 42 -32.5 108 q0 51 21.5 106 q21.5 55 52 103 q30.5 48 61.5 94 q31 46 52.5 93.5 q21.5 47.5 21.5 86.5 q0 65 -57 94 q-57 29 -195 29 l45 234 q231 0 360.5 -85 q129.5 -85 129.5 -218 q0 -65 -23.5 -127 q-23.5 -62 -57 -109.5 q-33.5 -47.5 -67 -91.5 q-33.5 -44 -57 -92.5 q-23.5 -48.5 -23.5 -94.5 q0 -75 117 -75 l125 0 l-43 -222 l-125 0 q-155 0 -155 -137 q0 -41 31.5 -140.5 q31.5 -99.5 31.5 -168.5 q0 -211 -156 -328.5 q-156 -117.5 -479 -117.5 Z" /><glyph glyph-name="exclamdown" unicode="¡" d="M340 -360 l-285 0 l181 931 l284 0 l-180 -931 ZM258 874 q0 81 62.5 145 q62.5 64 156.5 64 q65 0 107.5 -44 q42.5 -44 42.5 -111 q0 -80 -64 -144.5 q-64 -64.5 -157 -64.5 q-67 0 -107.5 43 q-40.5 43 -40.5 112 Z" /><glyph glyph-name="cent" unicode="¢" d="M371 0 l35 174 q-145 38 -231.5 158.5 q-86.5 120.5 -86.5 288.5 q0 146 68 277.5 q68 131.5 188 223.5 q120 92 268 123 l33 168 l275 0 l-33 -172 q132 -41 211.5 -152.5 q79.5 -111.5 85.5 -257.5 l-281 0 q-14 81 -65.5 129 q-51.5 48 -137.5 48 q-135 0 -236.5 -112 q-101.5 -112 -101.5 -253 q0 -104 56 -169.5 q56 -65.5 166 -65.5 q163 0 268 170 l281 -3 q-68 -159 -182 -265 q-114 -106 -273 -140 l-33 -170 l-274 0 Z" /><glyph glyph-name="sterling" unicode="£" d="M18 260 q63 12 118 35 q55 23 101.5 57.5 q46.5 34.5 73.5 85.5 q27 51 27 113 q0 19 -4 51 l-252 0 l37 184 l168 0 q-23 94 -23 164 q0 100 35 188 q35 88 101.5 157 q66.5 69 171.5 109 q105 40 235 40 q215 0 332.5 -118.5 q117.5 -118.5 122.5 -319.5 l-289 0 q-3 80 -51.5 121.5 q-48.5 41.5 -133.5 41.5 q-112 0 -175.5 -60.5 q-63.5 -60.5 -63.5 -160.5 q0 -65 22 -162 l488 0 l-37 -184 l-422 0 q2 -12 2 -39 q0 -96 -59.5 -172 q-59.5 -76 -163.5 -125 l790 0 l-51 -266 l-1151 0 l51 260 Z" /><glyph glyph-name="yen" unicode="¥" d="M432 0 l53 276 l-379 0 l35 185 l381 0 l31 162 l-375 0 l35 184 l283 0 l-269 606 l310 0 l194 -506 l391 506 l346 0 l-501 -606 l284 0 l-34 -184 l-377 0 l-31 -162 l373 0 l-35 -185 l-375 0 l-53 -276 l-287 0 Z" /><glyph glyph-name="brokenbar" unicode="¦" d="M741 586 l-172 -883 l-280 0 l172 883 l280 0 ZM508 836 l172 882 l281 0 l-173 -882 l-280 0 Z" /><glyph glyph-name="section" unicode="§" d="M379 575 q0 -63 89 -96 q89 -33 245 -33 q152 0 236.5 39.5 q84.5 39.5 84.5 110.5 q0 129 -338 129 q-132 0 -224.5 -42 q-92.5 -42 -92.5 -108 ZM580 -276 q-194 0 -317 100.5 q-123 100.5 -130 286.5 l270 0 q7 -75 60.5 -115.5 q53.5 -40.5 144.5 -40.5 q104 0 161.5 38 q57.5 38 57.5 99 q0 63 -68 95 q-68 32 -216 44 q-225 20 -328.5 96.5 q-103.5 76.5 -103.5 207.5 q0 223 325 296 q-108 82 -108 228 q0 77 35.5 146.5 q35.5 69.5 99.5 122.5 q64 53 161 84.5 q97 31.5 212 31.5 q199 0 318.5 -105.5 q119.5 -105.5 127.5 -281.5 l-272 0 q-4 76 -56 116.5 q-52 40.5 -145 40.5 q-104 0 -163.5 -37.5 q-59.5 -37.5 -59.5 -99.5 q0 -60 72 -93.5 q72 -33.5 225 -47.5 q216 -19 319 -87 q103 -68 103 -198 q0 -114 -82.5 -193.5 q-82.5 -79.5 -239.5 -117.5 q104 -84 104 -231 q0 -119 -68 -207.5 q-68 -88.5 -182 -133 q-114 -44.5 -257 -44.5 Z" /><glyph glyph-name="copyright" unicode="©" d="M211 578 q0 -228 147.5 -372.5 q147.5 -144.5 395.5 -144.5 q157 0 304 63.5 q147 63.5 254.5 169.5 q107.5 106 172.5 249.5 q65 143.5 65 296.5 q0 223 -148 367.5 q-148 144.5 -396 144.5 q-157 0 -303.5 -63 q-146.5 -63 -254 -167.5 q-107.5 -104.5 -172.5 -247.5 q-65 -143 -65 -296 ZM737 -31 q-138 0 -255.5 45 q-117.5 45 -199 124 q-81.5 79 -127.5 189 q-46 110 -46 238 q0 137 43.5 268 q43.5 131 126 241 q82.5 110 193 193 q110.5 83 253.5 130 q143 47 299 47 q137 0 254 -45.5 q117 -45.5 199 -124.5 q82 -79 128 -189 q46 -110 46 -235 q0 -137 -43.5 -268.5 q-43.5 -131.5 -126 -241.5 q-82.5 -110 -193 -193.5 q-110.5 -83.5 -253.5 -130.5 q-143 -47 -298 -47 ZM422 614 q0 104 41.5 201.5 q41.5 97.5 113.5 171.5 q72 74 176.5 119 q104.5 45 223.5 45 q158 0 256.5 -99 q98.5 -99 103.5 -251 l-229 0 q-14 61 -59 97 q-45 36 -117 36 q-107 0 -194 -86 q-87 -86 -87 -193 q0 -84 49 -137 q49 -53 142 -53 q139 0 225 131 l229 0 q-67 -160 -191 -254 q-124 -94 -304 -94 q-166 0 -272.5 104 q-106.5 104 -106.5 262 Z" /><glyph glyph-name="guillemotleft" unicode="«" d="M559 1083 l156 -163 l-289 -287 l178 -287 l-194 -127 l-289 434 l438 430 ZM594 653 l438 430 l156 -163 l-289 -287 l178 -287 l-194 -127 l-289 434 Z" /><glyph glyph-name="registered" unicode="®" d="M258 913 q0 -136 87 -223.5 q87 -87.5 226 -87.5 q120 0 228 65 q108 65 173.5 173.5 q65.5 108.5 65.5 228.5 q0 133 -88 221 q-88 88 -227 88 q-119 0 -227 -65.5 q-108 -65.5 -173 -173 q-65 -107.5 -65 -226.5 ZM612 1120 l-22 -114 l80 0 q32 0 53.5 18.5 q21.5 18.5 21.5 50.5 q0 21 -14.5 33 q-14.5 12 -38.5 12 l-80 0 ZM559 535 q-165 0 -270 104 q-105 104 -105 262 q0 140 74 265 q74 125 202 201.5 q128 76.5 275 76.5 q164 0 269.5 -104.5 q105.5 -104.5 105.5 -262.5 q0 -104 -44 -203 q-44 -99 -118 -173.5 q-74 -74.5 -176.5 -120 q-102.5 -45.5 -212.5 -45.5 ZM541 752 l-129 0 l92 483 l194 0 q187 0 187 -150 q0 -62 -33.5 -107 q-33.5 -45 -93.5 -67 l94 -159 l-147 0 l-74 143 l-64 0 l-26 -143 Z" /><glyph glyph-name="degree" unicode="°" d="M494 621 q-150 0 -245 96.5 q-95 96.5 -95 249.5 q0 119 61.5 226 q61.5 107 177.5 176 q116 69 258 69 q150 0 245 -95 q95 -95 95 -245 q0 -91 -34.5 -176.5 q-34.5 -85.5 -96.5 -152.5 q-62 -67 -157.5 -107.5 q-95.5 -40.5 -208.5 -40.5 ZM360 989 q0 -75 44.5 -122.5 q44.5 -47.5 127.5 -47.5 q96 0 174 77 q78 77 78 173 q0 76 -43.5 123 q-43.5 47 -126.5 47 q-99 0 -176.5 -76.5 q-77.5 -76.5 -77.5 -173.5 Z" /><glyph glyph-name="plusminus" unicode="±" d="M1110 709 l-317 0 l-43 -220 l-256 0 l43 220 l-324 0 l47 243 l322 0 l43 219 l256 0 l-43 -219 l319 0 l-47 -243 ZM94 94 l47 244 l897 0 l-47 -244 l-897 0 Z" /><glyph glyph-name="paragraph" unicode="¶" d="M512 487 q-184 0 -290.5 104.5 q-106.5 104.5 -106.5 266.5 q0 147 79 275 q79 128 212 204 q133 76 286 76 l879 0 l-342 -1761 l-275 0 l291 1495 l-244 0 l-290 -1495 l-275 0 l162 835 l-86 0 Z" /><glyph glyph-name="periodcentered" unicode="·" d="M315 555 q-64 0 -106.5 44 q-42.5 44 -42.5 112 q0 80 64 144.5 q64 64.5 157 64.5 q67 0 107.5 -43 q40.5 -43 40.5 -113 q0 -80 -63 -144.5 q-63 -64.5 -157 -64.5 Z" /><glyph glyph-name="guillemotright" unicode="»" d="M705 219 l-156 164 l289 287 l-179 286 l195 127 l289 -434 l-438 -430 ZM76 383 l289 287 l-179 286 l195 127 l289 -434 l-439 -430 l-155 164 Z" /><glyph glyph-name="onequarter" unicode="¼" d="M1260 561 l-256 -301 l198 0 l58 301 ZM1174 121 l-357 0 l23 129 l389 457 l235 0 l-86 -447 l121 0 l-26 -139 l-123 0 l-23 -121 l-176 0 l23 121 ZM219 1327 l156 86 l139 0 l-137 -706 l-184 0 l100 520 l-94 0 l20 100 ZM373 0 l-305 0 l1110 1413 l305 0 l-1110 -1413 Z" /><glyph glyph-name="onehalf" unicode="½" d="M219 1327 l156 86 l139 0 l-137 -706 l-184 0 l100 520 l-94 0 l20 100 ZM420 0 l-305 0 l1110 1413 l305 0 l-1110 -1413 ZM1524 0 l-574 0 l29 162 l260 143 q75 41 115.5 86 q40.5 45 40.5 86 q0 32 -18.5 50 q-18.5 18 -49.5 18 q-40 0 -72 -24.5 q-32 -24.5 -49 -71.5 l-184 0 q39 122 127.5 199 q88.5 77 226.5 77 q94 0 152.5 -52.5 q58.5 -52.5 58.5 -140.5 q0 -190 -299 -346 l-28 -14 l296 0 l-32 -172 Z" /><glyph glyph-name="threequarters" unicode="¾" d="M1300 561 l-256 -301 l199 0 l57 301 ZM1214 121 l-356 0 l23 129 l389 457 l235 0 l-86 -447 l121 0 l-27 -139 l-122 0 l-23 -121 l-176 0 l22 121 ZM365 688 q-115 0 -183.5 73 q-68.5 73 -62.5 183 l188 0 q0 -37 24 -58.5 q24 -21.5 62 -21.5 q51 0 82 24.5 q31 24.5 31 63.5 q0 29 -22.5 44.5 q-22.5 15.5 -61.5 15.5 l-100 0 l20 110 l158 121 l-303 -2 l34 172 l510 0 l-30 -156 l-179 -135 q156 -36 156 -182 q0 -107 -88 -179.5 q-88 -72.5 -235 -72.5 ZM471 0 l-305 0 l1110 1413 l305 0 l-1110 -1413 Z" /><glyph glyph-name="questiondown" unicode="¿" d="M410 -152 q107 0 193 52.5 q86 52.5 122 148.5 l301 0 q-37 -106 -90 -188 q-53 -82 -131.5 -149.5 q-78.5 -67.5 -192.5 -103.5 q-114 -36 -258 -36 q-201 0 -310.5 96 q-109.5 96 -109.5 254 q0 146 96 253 q96 107 294 190 q57 23 91.5 42 q34.5 19 56.5 34.5 q22 15.5 34.5 40 q12.5 24.5 18.5 45 q6 20.5 14 63.5 l284 0 q-15 -84 -32.5 -137.5 q-17.5 -53.5 -50 -104.5 q-32.5 -51 -84.5 -90 q-52 -39 -132 -76 q-65 -30 -100.5 -47.5 q-35.5 -17.5 -76.5 -42 q-41 -24.5 -61 -43 q-20 -18.5 -34 -42.5 q-14 -24 -14 -50 q0 -52 43.5 -80.5 q43.5 -28.5 128.5 -28.5 ZM549 840 q0 81 62.5 145 q62.5 64 156.5 64 q65 0 107.5 -44.5 q42.5 -44.5 42.5 -111.5 q0 -80 -64.5 -144.5 q-64.5 -64.5 -157.5 -64.5 q-67 0 -107 43 q-40 43 -40 113 Z" /><glyph glyph-name="Agrave" unicode="À" d="M856 1133 l-328 -596 l426 0 l-98 596 ZM231 0 l-301 0 l805 1413 l330 0 l260 -1413 l-283 0 l-49 303 l-594 0 l-168 -303 ZM856 1524 l-324 264 l342 0 l261 -264 l-279 0 Z" /><glyph glyph-name="Aacute" unicode="Á" d="M856 1133 l-328 -596 l426 0 l-98 596 ZM231 0 l-301 0 l805 1413 l330 0 l260 -1413 l-283 0 l-49 303 l-594 0 l-168 -303 ZM1030 1534 l-278 0 l260 264 l342 0 l-324 -264 Z" /><glyph glyph-name="Acircumflex" unicode="Â" d="M856 1133 l-328 -596 l426 0 l-98 596 ZM231 0 l-301 0 l805 1413 l330 0 l260 -1413 l-283 0 l-49 303 l-594 0 l-168 -303 ZM754 1528 l-254 0 l354 332 l244 0 l231 -332 l-233 0 l-140 162 l-202 -162 Z" /><glyph glyph-name="Atilde" unicode="Ã" d="M856 1133 l-328 -596 l426 0 l-98 596 ZM231 0 l-301 0 l805 1413 l330 0 l260 -1413 l-283 0 l-49 303 l-594 0 l-168 -303 ZM555 1544 l41 221 q94 62 207 62 q69 0 124 -22 q55 -22 103 -44 q48 -22 100 -22 q91 0 203 73 l-41 -225 q-98 -59 -215 -59 q-67 0 -123 22 q-56 22 -103.5 44 q-47.5 22 -94.5 22 q-90 0 -201 -72 Z" /><glyph glyph-name="Adieresis" unicode="Ä" d="M856 1133 l-328 -596 l426 0 l-98 596 ZM231 0 l-301 0 l805 1413 l330 0 l260 -1413 l-283 0 l-49 303 l-594 0 l-168 -303 ZM537 1653 q0 67 54.5 120.5 q54.5 53.5 123.5 53.5 q54 0 88.5 -34 q34.5 -34 34.5 -85 q0 -68 -55.5 -121 q-55.5 -53 -125.5 -53 q-53 0 -86.5 33.5 q-33.5 33.5 -33.5 85.5 ZM1047 1651 q0 69 54 122.5 q54 53.5 124 53.5 q53 0 88 -34 q35 -34 35 -85 q0 -67 -56 -120.5 q-56 -53.5 -125 -53.5 q-54 0 -87 33 q-33 33 -33 84 Z" /><glyph glyph-name="Aring" unicode="Å" d="M856 1133 l-328 -596 l426 0 l-98 596 ZM813 1753 q0 -60 32.5 -89.5 q32.5 -29.5 90.5 -29.5 q69 0 122.5 54 q53.5 54 53.5 122 q0 61 -32 90 q-32 29 -89 29 q-69 0 -123.5 -53.5 q-54.5 -53.5 -54.5 -122.5 ZM231 0 l-301 0 l805 1413 l330 0 l260 -1413 l-283 0 l-49 303 l-594 0 l-168 -303 ZM651 1733 q0 150 107 252 q107 102 266 102 q112 0 182 -74 q70 -74 70 -182 q0 -149 -106.5 -250.5 q-106.5 -101.5 -264.5 -101.5 q-113 0 -183.5 73.5 q-70.5 73.5 -70.5 180.5 Z" /><glyph glyph-name="AE" unicode="Æ" d="M1155 1147 l-442 -561 l401 0 l84 561 l-43 0 ZM-82 0 l1145 1413 l1276 0 l-51 -266 l-803 0 l-47 -309 l694 0 l-47 -240 l-682 0 l-49 -332 l762 0 l-52 -266 l-1036 0 l49 330 l-567 0 l-260 -330 l-332 0 Z" /><glyph glyph-name="Ccedilla" unicode="Ç" d="M80 567 q0 113 30.5 223 q30.5 110 85.5 207 q55 97 137 179.5 q82 82.5 181 141.5 q99 59 220.5 92.5 q121.5 33.5 252.5 33.5 q243 0 403 -151.5 q160 -151.5 177 -389.5 l-301 0 q-25 124 -114 193 q-89 69 -220 69 q-108 0 -210.5 -45.5 q-102.5 -45.5 -177 -120 q-74.5 -74.5 -120 -177 q-45.5 -102.5 -45.5 -210.5 q0 -161 102.5 -262.5 q102.5 -101.5 270.5 -101.5 q141 0 259.5 68 q118.5 68 188.5 198 l301 0 q-101 -244 -285 -382.5 q-184 -138.5 -434 -158.5 l-65 -77 q31 8 67 8 q71 0 121.5 -42.5 q50.5 -42.5 50.5 -129.5 q0 -116 -93.5 -185 q-93.5 -69 -235.5 -69 q-160 0 -258 55 l34 176 q36 -24 98.5 -42.5 q62.5 -18.5 131.5 -18.5 q60 0 94.5 19.5 q34.5 19.5 34.5 53.5 q0 54 -84 54 q-80 0 -152 -35 l-45 96 l119 139 q-233 32 -376.5 196 q-143.5 164 -143.5 396 Z" /><glyph glyph-name="Egrave" unicode="È" d="M332 1413 l999 0 l-51 -266 l-713 0 l-55 -283 l623 0 l-54 -258 l-620 0 l-66 -340 l713 0 l-51 -266 l-1000 0 l275 1413 ZM518 1788 l342 0 l260 -264 l-278 0 l-324 264 Z" /><glyph glyph-name="Eacute" unicode="É" d="M332 1413 l999 0 l-51 -266 l-713 0 l-55 -283 l623 0 l-54 -258 l-620 0 l-66 -340 l713 0 l-51 -266 l-1000 0 l275 1413 ZM737 1534 l260 264 l342 0 l-323 -264 l-279 0 Z" /><glyph glyph-name="Ecircumflex" unicode="Ê" d="M332 1413 l999 0 l-51 -266 l-713 0 l-55 -283 l623 0 l-54 -258 l-620 0 l-66 -340 l713 0 l-51 -266 l-1000 0 l275 1413 ZM485 1528 l355 332 l243 0 l232 -332 l-234 0 l-139 162 l-203 -162 l-254 0 Z" /><glyph glyph-name="Edieresis" unicode="Ë" d="M332 1413 l999 0 l-51 -266 l-713 0 l-55 -283 l623 0 l-54 -258 l-620 0 l-66 -340 l713 0 l-51 -266 l-1000 0 l275 1413 ZM522 1653 q0 67 54.5 120.5 q54.5 53.5 123.5 53.5 q54 0 88.5 -34 q34.5 -34 34.5 -85 q0 -68 -55 -121 q-55 -53 -125 -53 q-53 0 -87 33.5 q-34 33.5 -34 85.5 ZM1032 1651 q0 69 54 122.5 q54 53.5 124 53.5 q53 0 88 -34 q35 -34 35 -85 q0 -67 -55.5 -120.5 q-55.5 -53.5 -124.5 -53.5 q-54 0 -87.5 33 q-33.5 33 -33.5 84 Z" /><glyph glyph-name="Igrave" unicode="Ì" d="M332 1413 l286 0 l-274 -1413 l-287 0 l275 1413 ZM117 1788 l342 0 l260 -264 l-279 0 l-323 264 Z" /><glyph glyph-name="Iacute" unicode="Í" d="M332 1413 l286 0 l-274 -1413 l-287 0 l275 1413 ZM336 1534 l260 264 l342 0 l-324 -264 l-278 0 Z" /><glyph glyph-name="Icircumflex" unicode="Î" d="M332 1413 l286 0 l-274 -1413 l-287 0 l275 1413 ZM84 1528 l354 332 l244 0 l231 -332 l-233 0 l-139 162 l-203 -162 l-254 0 Z" /><glyph glyph-name="Idieresis" unicode="Ï" d="M332 1413 l286 0 l-274 -1413 l-287 0 l275 1413 ZM121 1653 q0 67 54.5 120.5 q54.5 53.5 123.5 53.5 q54 0 88.5 -34 q34.5 -34 34.5 -85 q0 -68 -55 -121 q-55 -53 -125 -53 q-53 0 -87 33.5 q-34 33.5 -34 85.5 ZM631 1651 q0 69 54 122.5 q54 53.5 124 53.5 q53 0 88 -34 q35 -34 35 -85 q0 -67 -55.5 -120.5 q-55.5 -53.5 -124.5 -53.5 q-54 0 -87.5 33 q-33.5 33 -33.5 84 Z" /><glyph glyph-name="Eth" unicode="Ð" d="M520 590 l-63 -326 l235 0 q166 0 302 71 q136 71 212 192 q76 121 76 264 q0 163 -95 260.5 q-95 97.5 -267 97.5 l-291 0 l-58 -299 l430 0 l-51 -260 l-430 0 ZM649 0 l-530 0 l114 590 l-135 0 l52 260 l135 0 l108 563 l563 0 q290 0 456.5 -165.5 q166.5 -165.5 166.5 -436.5 q0 -131 -38.5 -251 q-38.5 -120 -116 -222 q-77.5 -102 -187.5 -177.5 q-110 -75.5 -261 -118 q-151 -42.5 -327 -42.5 Z" /><glyph glyph-name="Ntilde" unicode="Ñ" d="M989 0 l-448 1049 l-203 -1049 l-281 0 l275 1413 l356 0 l422 -985 l193 985 l278 0 l-274 -1413 l-318 0 ZM657 1544 l41 221 q94 62 207 62 q55 0 102.5 -13.5 q47.5 -13.5 75.5 -30.5 q28 -17 68 -30.5 q40 -13.5 82 -13.5 q91 0 203 73 l-41 -225 q-98 -59 -215 -59 q-53 0 -100.5 14 q-47.5 14 -76.5 30 q-29 16 -68 30 q-39 14 -77 14 q-90 0 -201 -72 Z" /><glyph glyph-name="Ograve" unicode="Ò" d="M702 -31 q-275 0 -447.5 171.5 q-172.5 171.5 -172.5 445.5 q0 169 68 325 q68 156 186 274 q118 118 288.5 188.5 q170.5 70.5 364.5 70.5 q134 0 249 -46.5 q115 -46.5 196.5 -127.5 q81.5 -81 127.5 -195.5 q46 -114.5 46 -247.5 q0 -169 -65.5 -325 q-65.5 -156 -181.5 -274 q-116 -118 -287.5 -188.5 q-171.5 -70.5 -371.5 -70.5 ZM379 614 q0 -165 98.5 -265.5 q98.5 -100.5 278.5 -100.5 q143 0 271.5 77 q128.5 77 206 204.5 q77.5 127.5 77.5 269.5 q0 161 -99 263.5 q-99 102.5 -278 102.5 q-144 0 -272.5 -77 q-128.5 -77 -205.5 -204.5 q-77 -127.5 -77 -269.5 ZM625 1788 l342 0 l260 -264 l-279 0 l-323 264 Z" /><glyph glyph-name="Oacute" unicode="Ó" d="M702 -31 q-275 0 -447.5 171.5 q-172.5 171.5 -172.5 445.5 q0 169 68 325 q68 156 186 274 q118 118 288.5 188.5 q170.5 70.5 364.5 70.5 q134 0 249 -46.5 q115 -46.5 196.5 -127.5 q81.5 -81 127.5 -195.5 q46 -114.5 46 -247.5 q0 -169 -65.5 -325 q-65.5 -156 -181.5 -274 q-116 -118 -287.5 -188.5 q-171.5 -70.5 -371.5 -70.5 ZM379 614 q0 -165 98.5 -265.5 q98.5 -100.5 278.5 -100.5 q143 0 271.5 77 q128.5 77 206 204.5 q77.5 127.5 77.5 269.5 q0 161 -99 263.5 q-99 102.5 -278 102.5 q-144 0 -272.5 -77 q-128.5 -77 -205.5 -204.5 q-77 -127.5 -77 -269.5 ZM844 1534 l260 264 l342 0 l-324 -264 l-278 0 Z" /><glyph glyph-name="Ocircumflex" unicode="Ô" d="M379 614 q0 -165 98.5 -265.5 q98.5 -100.5 278.5 -100.5 q143 0 271.5 77 q128.5 77 206 204.5 q77.5 127.5 77.5 269.5 q0 161 -99 263.5 q-99 102.5 -278 102.5 q-144 0 -272.5 -77 q-128.5 -77 -205.5 -204.5 q-77 -127.5 -77 -269.5 ZM702 -31 q-275 0 -447.5 171.5 q-172.5 171.5 -172.5 445.5 q0 169 68 325 q68 156 186 274 q118 118 288.5 188.5 q170.5 70.5 364.5 70.5 q134 0 249 -46.5 q115 -46.5 196.5 -127.5 q81.5 -81 127.5 -195.5 q46 -114.5 46 -247.5 q0 -169 -65.5 -325 q-65.5 -156 -181.5 -274 q-116 -118 -287.5 -188.5 q-171.5 -70.5 -371.5 -70.5 ZM846 1528 l-254 0 l354 332 l244 0 l231 -332 l-233 0 l-139 162 l-203 -162 Z" /><glyph glyph-name="Otilde" unicode="Õ" d="M379 614 q0 -165 98.5 -265.5 q98.5 -100.5 278.5 -100.5 q143 0 271.5 77 q128.5 77 206 204.5 q77.5 127.5 77.5 269.5 q0 161 -99 263.5 q-99 102.5 -278 102.5 q-144 0 -272.5 -77 q-128.5 -77 -205.5 -204.5 q-77 -127.5 -77 -269.5 ZM702 -31 q-275 0 -447.5 171.5 q-172.5 171.5 -172.5 445.5 q0 169 68 325 q68 156 186 274 q118 118 288.5 188.5 q170.5 70.5 364.5 70.5 q134 0 249 -46.5 q115 -46.5 196.5 -127.5 q81.5 -81 127.5 -195.5 q46 -114.5 46 -247.5 q0 -169 -65.5 -325 q-65.5 -156 -181.5 -274 q-116 -118 -287.5 -188.5 q-171.5 -70.5 -371.5 -70.5 ZM647 1544 l41 221 q94 62 207 62 q55 0 102.5 -13.5 q47.5 -13.5 75.5 -30.5 q28 -17 68 -30.5 q40 -13.5 82 -13.5 q90 0 202 73 l-41 -225 q-98 -59 -215 -59 q-67 0 -123 22 q-56 22 -103.5 44 q-47.5 22 -94.5 22 q-90 0 -201 -72 Z" /><glyph glyph-name="Odieresis" unicode="Ö" d="M702 -31 q-275 0 -447.5 171.5 q-172.5 171.5 -172.5 445.5 q0 169 68 325 q68 156 186 274 q118 118 288.5 188.5 q170.5 70.5 364.5 70.5 q134 0 249 -46.5 q115 -46.5 196.5 -127.5 q81.5 -81 127.5 -195.5 q46 -114.5 46 -247.5 q0 -169 -65.5 -325 q-65.5 -156 -181.5 -274 q-116 -118 -287.5 -188.5 q-171.5 -70.5 -371.5 -70.5 ZM379 614 q0 -165 98.5 -265.5 q98.5 -100.5 278.5 -100.5 q143 0 271.5 77 q128.5 77 206 204.5 q77.5 127.5 77.5 269.5 q0 161 -99 263.5 q-99 102.5 -278 102.5 q-144 0 -272.5 -77 q-128.5 -77 -205.5 -204.5 q-77 -127.5 -77 -269.5 ZM629 1653 q0 67 54.5 120.5 q54.5 53.5 123.5 53.5 q54 0 88.5 -34 q34.5 -34 34.5 -85 q0 -68 -55 -121 q-55 -53 -125 -53 q-53 0 -87 33.5 q-34 33.5 -34 85.5 ZM1139 1651 q0 69 54 122.5 q54 53.5 124 53.5 q53 0 88 -34 q35 -34 35 -85 q0 -67 -55.5 -120.5 q-55.5 -53.5 -124.5 -53.5 q-54 0 -87.5 33 q-33.5 33 -33.5 84 Z" /><glyph glyph-name="multiply" unicode="×" d="M786 295 l-200 262 l-314 -293 l-163 180 l329 308 l-215 282 l195 148 l200 -260 l314 292 l166 -180 l-330 -309 l215 -281 l-197 -149 Z" /><glyph glyph-name="Oslash" unicode="Ø" d="M379 614 q0 -116 49 -198 l702 706 q-84 43 -196 43 q-144 0 -272.5 -77 q-128.5 -77 -205.5 -204.5 q-77 -127.5 -77 -269.5 ZM1270 983 l-699 -698 q75 -37 185 -37 q143 0 271.5 77 q128.5 77 206 204.5 q77.5 127.5 77.5 269.5 q0 104 -41 184 ZM1327 1354 l125 125 l178 -174 l-125 -123 q103 -153 103 -355 q0 -169 -65.5 -325 q-65.5 -156 -181.5 -274 q-116 -118 -287.5 -188.5 q-171.5 -70.5 -371.5 -70.5 q-185 0 -327 82 l-142 -141 l-178 172 l135 135 q-108 154 -108 369 q0 169 68 325 q68 156 186 274 q118 118 288.5 188.5 q170.5 70.5 364.5 70.5 q190 0 338 -90 Z" /><glyph glyph-name="Ugrave" unicode="Ù" d="M649 -31 q-184 0 -308.5 91.5 q-124.5 91.5 -171.5 264 q-47 172.5 -3 400.5 l133 688 l287 0 l-142 -729 q-43 -225 24.5 -330.5 q67.5 -105.5 225.5 -105.5 q150 0 264 107.5 q114 107.5 156 328.5 l141 729 l287 0 l-141 -729 q-71 -370 -255 -542.5 q-184 -172.5 -497 -172.5 ZM561 1788 l342 0 l260 -264 l-278 0 l-324 264 Z" /><glyph glyph-name="Uacute" unicode="Ú" d="M649 -31 q-184 0 -308.5 91.5 q-124.5 91.5 -171.5 264 q-47 172.5 -3 400.5 l133 688 l287 0 l-142 -729 q-43 -225 24.5 -330.5 q67.5 -105.5 225.5 -105.5 q150 0 264 107.5 q114 107.5 156 328.5 l141 729 l287 0 l-141 -729 q-71 -370 -255 -542.5 q-184 -172.5 -497 -172.5 ZM780 1534 l260 264 l342 0 l-323 -264 l-279 0 Z" /><glyph glyph-name="Ucircumflex" unicode="Û" d="M649 -31 q-184 0 -308.5 91.5 q-124.5 91.5 -171.5 264 q-47 172.5 -3 400.5 l133 688 l287 0 l-142 -729 q-43 -225 24.5 -330.5 q67.5 -105.5 225.5 -105.5 q150 0 264 107.5 q114 107.5 156 328.5 l141 729 l287 0 l-141 -729 q-71 -370 -255 -542.5 q-184 -172.5 -497 -172.5 ZM528 1528 l355 332 l243 0 l232 -332 l-234 0 l-139 162 l-203 -162 l-254 0 Z" /><glyph glyph-name="Udieresis" unicode="Ü" d="M649 -31 q-184 0 -308.5 91.5 q-124.5 91.5 -171.5 264 q-47 172.5 -3 400.5 l133 688 l287 0 l-142 -729 q-43 -225 24.5 -330.5 q67.5 -105.5 225.5 -105.5 q150 0 264 107.5 q114 107.5 156 328.5 l141 729 l287 0 l-141 -729 q-71 -370 -255 -542.5 q-184 -172.5 -497 -172.5 ZM565 1653 q0 67 54.5 120.5 q54.5 53.5 123.5 53.5 q54 0 88.5 -34 q34.5 -34 34.5 -85 q0 -68 -55 -121 q-55 -53 -125 -53 q-53 0 -87 33.5 q-34 33.5 -34 85.5 ZM1075 1651 q0 69 54 122.5 q54 53.5 124 53.5 q53 0 88 -34 q35 -34 35 -85 q0 -67 -55.5 -120.5 q-55.5 -53.5 -124.5 -53.5 q-54 0 -87.5 33 q-33.5 33 -33.5 84 Z" /><glyph glyph-name="Yacute" unicode="Ý" d="M442 0 l119 608 l-381 805 l307 0 l248 -551 l447 551 l354 0 l-698 -838 l-111 -575 l-285 0 ZM721 1534 l260 264 l342 0 l-324 -264 l-278 0 Z" /><glyph glyph-name="Thorn" unicode="Þ" d="M526 954 l-82 -432 l261 0 q121 0 205.5 75.5 q84.5 75.5 84.5 184.5 q0 77 -54.5 124.5 q-54.5 47.5 -152.5 47.5 l-262 0 ZM332 1413 l284 0 l-36 -194 l251 0 q222 0 343.5 -110.5 q121.5 -110.5 121.5 -303.5 q0 -160 -86 -286.5 q-86 -126.5 -229.5 -194.5 q-143.5 -68 -316.5 -68 l-273 0 l-49 -256 l-285 0 l275 1413 Z" /><glyph glyph-name="germandbls" unicode="ß" d="M678 -25 q-120 0 -229 33 l49 256 q82 -37 196 -37 q105 0 178.5 65.5 q73.5 65.5 73.5 162.5 q0 79 -53 120 q-53 41 -154 41 l-166 0 l37 240 l72 0 q104 0 182 75 q78 75 78 175 q0 81 -49 124.5 q-49 43.5 -127 43.5 q-100 0 -169.5 -65 q-69.5 -65 -96.5 -201 l-197 -1008 l-272 0 l190 981 q54 276 206 410.5 q152 134.5 382 134.5 q186 0 297 -99.5 q111 -99.5 111 -265.5 q0 -121 -67.5 -222.5 q-67.5 -101.5 -170.5 -160.5 q114 -36 176 -119.5 q62 -83.5 62 -207.5 q0 -97 -40.5 -184.5 q-40.5 -87.5 -111 -152 q-70.5 -64.5 -171.5 -102 q-101 -37.5 -216 -37.5 Z" /><glyph glyph-name="agrave" unicode="à" d="M334 465 q0 -104 64 -170 q64 -66 177 -66 q136 0 245.5 110 q109.5 110 109.5 245 q0 103 -64.5 170 q-64.5 67 -175.5 67 q-146 0 -251 -108.5 q-105 -108.5 -105 -247.5 ZM471 -31 q-175 0 -294.5 132 q-119.5 132 -119.5 348 q0 127 51 244.5 q51 117.5 135.5 202.5 q84.5 85 197 136 q112.5 51 231.5 51 q110 0 193.5 -55 q83.5 -55 125.5 -151 l35 176 l268 0 l-202 -1053 l-269 0 l29 143 q-76 -84 -174.5 -129 q-98.5 -45 -206.5 -45 ZM743 1229 l-208 383 l292 0 l146 -383 l-230 0 Z" /><glyph glyph-name="aacute" unicode="á" d="M334 465 q0 -104 64 -170 q64 -66 177 -66 q136 0 245.5 110 q109.5 110 109.5 245 q0 103 -64.5 170 q-64.5 67 -175.5 67 q-146 0 -251 -108.5 q-105 -108.5 -105 -247.5 ZM471 -31 q-175 0 -294.5 132 q-119.5 132 -119.5 348 q0 127 51 244.5 q51 117.5 135.5 202.5 q84.5 85 197 136 q112.5 51 231.5 51 q110 0 193.5 -55 q83.5 -55 125.5 -151 l35 176 l268 0 l-202 -1053 l-269 0 l29 143 q-76 -84 -174.5 -129 q-98.5 -45 -206.5 -45 ZM922 1229 l-230 0 l187 383 l292 0 l-249 -383 Z" /><glyph glyph-name="acircumflex" unicode="â" d="M334 465 q0 -104 64 -170 q64 -66 177 -66 q136 0 245.5 110 q109.5 110 109.5 245 q0 103 -64.5 170 q-64.5 67 -175.5 67 q-146 0 -251 -108.5 q-105 -108.5 -105 -247.5 ZM471 -31 q-175 0 -294.5 132 q-119.5 132 -119.5 348 q0 127 51 244.5 q51 117.5 135.5 202.5 q84.5 85 197 136 q112.5 51 231.5 51 q110 0 193.5 -55 q83.5 -55 125.5 -151 l35 176 l268 0 l-202 -1053 l-269 0 l29 143 q-76 -84 -174.5 -129 q-98.5 -45 -206.5 -45 ZM647 1196 l-250 0 l365 379 l233 0 l219 -379 l-229 0 l-131 188 l-207 -188 Z" /><glyph glyph-name="atilde" unicode="ã" d="M334 465 q0 -104 64 -170 q64 -66 177 -66 q136 0 245.5 110 q109.5 110 109.5 245 q0 103 -64.5 170 q-64.5 67 -175.5 67 q-146 0 -251 -108.5 q-105 -108.5 -105 -247.5 ZM471 -31 q-175 0 -294.5 132 q-119.5 132 -119.5 348 q0 127 51 244.5 q51 117.5 135.5 202.5 q84.5 85 197 136 q112.5 51 231.5 51 q110 0 193.5 -55 q83.5 -55 125.5 -151 l35 176 l268 0 l-202 -1053 l-269 0 l29 143 q-76 -84 -174.5 -129 q-98.5 -45 -206.5 -45 ZM469 1321 l45 227 q73 45 168 45 q60 0 114 -16.5 q54 -16.5 88 -36.5 q34 -20 82 -36.5 q48 -16.5 97 -16.5 q84 0 164 51 l-43 -225 q-73 -39 -162 -39 q-56 0 -110 17 q-54 17 -89.5 37 q-35.5 20 -85 37 q-49.5 17 -98.5 17 q-93 0 -170 -61 Z" /><glyph glyph-name="adieresis" unicode="ä" d="M334 465 q0 -104 64 -170 q64 -66 177 -66 q136 0 245.5 110 q109.5 110 109.5 245 q0 103 -64.5 170 q-64.5 67 -175.5 67 q-146 0 -251 -108.5 q-105 -108.5 -105 -247.5 ZM471 -31 q-175 0 -294.5 132 q-119.5 132 -119.5 348 q0 127 51 244.5 q51 117.5 135.5 202.5 q84.5 85 197 136 q112.5 51 231.5 51 q110 0 193.5 -55 q83.5 -55 125.5 -151 l35 176 l268 0 l-202 -1053 l-269 0 l29 143 q-76 -84 -174.5 -129 q-98.5 -45 -206.5 -45 ZM438 1362 q0 67 54.5 120.5 q54.5 53.5 123.5 53.5 q54 0 88.5 -34 q34.5 -34 34.5 -85 q0 -68 -55 -121 q-55 -53 -125 -53 q-53 0 -87 33.5 q-34 33.5 -34 85.5 ZM948 1360 q0 69 54 122.5 q54 53.5 124 53.5 q53 0 88 -34 q35 -34 35 -85 q0 -67 -55.5 -120.5 q-55.5 -53.5 -124.5 -53.5 q-54 0 -87.5 33 q-33.5 33 -33.5 84 Z" /><glyph glyph-name="aring" unicode="å" d="M334 465 q0 -104 64 -170 q64 -66 177 -66 q136 0 245.5 110 q109.5 110 109.5 245 q0 103 -64.5 170 q-64.5 67 -175.5 67 q-146 0 -251 -108.5 q-105 -108.5 -105 -247.5 ZM721 1458 q0 -47 31.5 -78.5 q31.5 -31.5 81.5 -31.5 q65 0 115 49.5 q50 49.5 50 113.5 q0 48 -31 79.5 q-31 31.5 -81 31.5 q-64 0 -115 -50.5 q-51 -50.5 -51 -113.5 ZM471 -31 q-175 0 -294.5 132 q-119.5 132 -119.5 348 q0 127 51 244.5 q51 117.5 135.5 202.5 q84.5 85 197 136 q112.5 51 231.5 51 q110 0 193.5 -55 q83.5 -55 125.5 -151 l35 176 l268 0 l-202 -1053 l-269 0 l29 143 q-76 -84 -174.5 -129 q-98.5 -45 -206.5 -45 ZM567 1430 q0 85 49 163.5 q49 78.5 130 126 q81 47.5 169 47.5 q104 0 170 -65 q66 -65 66 -164 q0 -132 -105.5 -236 q-105.5 -104 -240.5 -104 q-104 0 -171 66 q-67 66 -67 166 Z" /><glyph glyph-name="ae" unicode="æ" d="M322 317 q0 -55 36 -85.5 q36 -30.5 99 -30.5 q101 0 182.5 64.5 q81.5 64.5 110.5 199.5 l-222 0 q-103 0 -154.5 -39 q-51.5 -39 -51.5 -109 ZM1079 643 l498 0 q-11 84 -64.5 133 q-53.5 49 -140.5 49 q-88 0 -166.5 -49.5 q-78.5 -49.5 -126.5 -132.5 ZM369 -31 q-150 0 -241 84 q-91 84 -91 223 q0 164 128.5 266.5 q128.5 102.5 346.5 102.5 l276 0 q15 94 -18 143.5 q-33 49.5 -106 49.5 q-139 0 -197 -113 l-285 0 q75 164 213.5 261 q138.5 97 323.5 97 q105 0 183.5 -41.5 q78.5 -41.5 119.5 -121.5 q185 161 410 161 q147 -1 252 -79.5 q105 -78.5 142 -215 q37 -136.5 -5 -321.5 l-791 -2 q0 -102 64 -170 q64 -68 163 -68 q83 0 149 35.5 q66 35.5 105 93.5 l279 0 q-88 -194 -241.5 -289.5 q-153.5 -95.5 -346.5 -95.5 q-121 0 -219 56 q-98 56 -152 157 q-169 -213 -462 -213 Z" /><glyph glyph-name="ccedilla" unicode="ç" d="M51 446 q0 133 52 250.5 q52 117.5 142 202.5 q90 85 218 134.5 q128 49.5 274 49.5 q182 0 307 -124 q125 -124 130 -308 l-271 0 q-16 79 -69.5 125.5 q-53.5 46.5 -149.5 46.5 q-137 0 -247.5 -108.5 q-110.5 -108.5 -110.5 -241.5 q0 -108 66 -177 q66 -69 177 -69 q90 0 174 44 q84 44 131 130 l273 0 q-74 -200 -223.5 -309.5 q-149.5 -109.5 -350.5 -120.5 l-36 -71 q33 8 71 8 q71 0 121.5 -45 q50.5 -45 50.5 -125 q0 -110 -84 -166.5 q-84 -56.5 -215 -56.5 q-164 0 -250 57 l37 174 q31 -26 83.5 -43.5 q52.5 -17.5 107.5 -17.5 q41 0 63.5 15 q22.5 15 22.5 40 q0 24 -13 33.5 q-13 9.5 -40 9.5 q-60 0 -127 -27 l0 88 l67 133 q-173 28 -277 155 q-104 127 -104 314 Z" /><glyph glyph-name="egrave" unicode="è" d="M375 643 l520 0 q-13 83 -68.5 132.5 q-55.5 49.5 -148.5 49.5 q-95 0 -175.5 -49.5 q-80.5 -49.5 -127.5 -132.5 ZM520 -31 q-203 0 -336 127.5 q-133 127.5 -133 345.5 q0 187 92.5 335 q92.5 148 248 227.5 q155.5 79.5 341.5 78.5 q155 -1 262 -79.5 q107 -78.5 148 -219 q41 -140.5 10 -319.5 l-825 -4 q2 -101 65.5 -165.5 q63.5 -64.5 177.5 -64.5 q91 0 155 28 q64 28 110 93 l276 0 q-72 -187 -224.5 -285 q-152.5 -98 -367.5 -98 ZM709 1229 l-209 383 l293 0 l145 -383 l-229 0 Z" /><glyph glyph-name="eacute" unicode="é" d="M375 643 l520 0 q-13 83 -68.5 132.5 q-55.5 49.5 -148.5 49.5 q-95 0 -175.5 -49.5 q-80.5 -49.5 -127.5 -132.5 ZM520 -31 q-203 0 -336 127.5 q-133 127.5 -133 345.5 q0 187 92.5 335 q92.5 148 248 227.5 q155.5 79.5 341.5 78.5 q155 -1 262 -79.5 q107 -78.5 148 -219 q41 -140.5 10 -319.5 l-825 -4 q2 -101 65.5 -165.5 q63.5 -64.5 177.5 -64.5 q91 0 155 28 q64 28 110 93 l276 0 q-72 -187 -224.5 -285 q-152.5 -98 -367.5 -98 ZM887 1229 l-230 0 l187 383 l293 0 l-250 -383 Z" /><glyph glyph-name="ecircumflex" unicode="ê" d="M375 643 l520 0 q-13 83 -68.5 132.5 q-55.5 49.5 -148.5 49.5 q-95 0 -175.5 -49.5 q-80.5 -49.5 -127.5 -132.5 ZM520 -31 q-203 0 -336 127.5 q-133 127.5 -133 345.5 q0 187 92.5 335 q92.5 148 248 227.5 q155.5 79.5 341.5 78.5 q155 -1 262 -79.5 q107 -78.5 148 -219 q41 -140.5 10 -319.5 l-825 -4 q2 -101 65.5 -165.5 q63.5 -64.5 177.5 -64.5 q91 0 155 28 q64 28 110 93 l276 0 q-72 -187 -224.5 -285 q-152.5 -98 -367.5 -98 ZM612 1196 l-250 0 l365 379 l234 0 l219 -379 l-230 0 l-131 188 l-207 -188 Z" /><glyph glyph-name="edieresis" unicode="ë" d="M375 643 l520 0 q-13 83 -68.5 132.5 q-55.5 49.5 -148.5 49.5 q-95 0 -175.5 -49.5 q-80.5 -49.5 -127.5 -132.5 ZM520 -31 q-203 0 -336 127.5 q-133 127.5 -133 345.5 q0 187 92.5 335 q92.5 148 248 227.5 q155.5 79.5 341.5 78.5 q155 -1 262 -79.5 q107 -78.5 148 -219 q41 -140.5 10 -319.5 l-825 -4 q2 -101 65.5 -165.5 q63.5 -64.5 177.5 -64.5 q91 0 155 28 q64 28 110 93 l276 0 q-72 -187 -224.5 -285 q-152.5 -98 -367.5 -98 ZM403 1362 q0 67 55 120.5 q55 53.5 124 53.5 q54 0 88.5 -34 q34.5 -34 34.5 -85 q0 -68 -55.5 -121 q-55.5 -53 -125.5 -53 q-53 0 -87 33.5 q-34 33.5 -34 85.5 ZM913 1360 q0 69 54.5 122.5 q54.5 53.5 124.5 53.5 q52 0 87 -34 q35 -34 35 -85 q0 -67 -55.5 -120.5 q-55.5 -53.5 -124.5 -53.5 q-54 0 -87.5 33 q-33.5 33 -33.5 84 Z" /><glyph glyph-name="igrave" unicode="ì" d="M25 0 l204 1053 l273 0 l-205 -1053 l-272 0 ZM123 1612 l293 0 l145 -383 l-229 0 l-209 383 Z" /><glyph glyph-name="iacute" unicode="í" d="M25 0 l204 1053 l273 0 l-205 -1053 l-272 0 ZM281 1229 l186 383 l293 0 l-250 -383 l-229 0 Z" /><glyph glyph-name="icircumflex" unicode="î" d="M25 0 l204 1053 l273 0 l-205 -1053 l-272 0 ZM-14 1196 l364 379 l234 0 l219 -379 l-230 0 l-131 188 l-206 -188 l-250 0 Z" /><glyph glyph-name="idieresis" unicode="ï" d="M25 0 l204 1053 l273 0 l-205 -1053 l-272 0 ZM27 1362 q0 67 54.5 120.5 q54.5 53.5 123.5 53.5 q54 0 88.5 -34 q34.5 -34 34.5 -85 q0 -68 -55.5 -121 q-55.5 -53 -125.5 -53 q-53 0 -86.5 33.5 q-33.5 33.5 -33.5 85.5 ZM537 1360 q0 69 54 122.5 q54 53.5 124 53.5 q53 0 88 -34 q35 -34 35 -85 q0 -67 -56 -120.5 q-56 -53.5 -125 -53.5 q-54 0 -87 33 q-33 33 -33 84 Z" /><glyph glyph-name="eth" unicode="ð" d="M332 457 q0 -104 59.5 -168 q59.5 -64 175.5 -64 q134 0 240 105 q106 105 106 237 q0 99 -65.5 164.5 q-65.5 65.5 -167.5 65.5 q-135 0 -241.5 -104 q-106.5 -104 -106.5 -236 ZM520 -31 q-208 0 -341.5 126 q-133.5 126 -133.5 327 q0 116 45 220 q45 104 123.5 181 q78.5 77 193 122.5 q114.5 45.5 246.5 45.5 q107 0 203.5 -44.5 q96.5 -44.5 157.5 -129.5 q8 49 8 90 q0 140 -59 232 l-215 -117 l-68 145 l156 86 q-66 29 -142 29 q-181 0 -315 -76 l51 258 q142 62 311 62 q223 0 367 -125 l229 125 l66 -148 l-193 -104 q84 -150 84 -350 q0 -209 -58.5 -387.5 q-58.5 -178.5 -161 -302.5 q-102.5 -124 -246 -194.5 q-143.5 -70.5 -308.5 -70.5 Z" /><glyph glyph-name="ntilde" unicode="ñ" d="M250 1053 l274 0 l-24 -131 q150 163 338 163 q72 0 131.5 -29.5 q59.5 -29.5 103 -90.5 q43.5 -61 55 -156 q11.5 -95 -11.5 -225 l-112 -584 l-275 0 l109 561 q55 281 -140 281 q-96 0 -167 -71.5 q-71 -71.5 -103 -209.5 l-109 -561 l-274 0 l205 1053 ZM418 1321 l45 227 q73 45 168 45 q60 0 114 -16.5 q54 -16.5 88 -36.5 q34 -20 82 -36.5 q48 -16.5 97 -16.5 q84 0 164 51 l-43 -225 q-73 -39 -162 -39 q-56 0 -110 17 q-54 17 -89.5 37 q-35.5 20 -85 37 q-49.5 17 -98.5 17 q-93 0 -170 -61 Z" /><glyph glyph-name="ograve" unicode="ò" d="M522 -31 q-209 0 -340 132.5 q-131 132.5 -131 340.5 q0 124 49.5 240 q49.5 116 137 205 q87.5 89 218.5 142.5 q131 53.5 283 53.5 q205 0 336 -132 q131 -132 131 -335 q0 -100 -30.5 -195.5 q-30.5 -95.5 -90 -177 q-59.5 -81.5 -141 -143 q-81.5 -61.5 -190.5 -96.5 q-109 -35 -232 -35 ZM328 469 q0 -107 64 -172.5 q64 -65.5 179 -65.5 q138 0 248.5 108.5 q110.5 108.5 110.5 244.5 q0 105 -65.5 170 q-65.5 65 -178.5 65 q-139 0 -248.5 -107.5 q-109.5 -107.5 -109.5 -242.5 ZM475 1612 l293 0 l145 -383 l-229 0 l-209 383 Z" /><glyph glyph-name="oacute" unicode="ó" d="M522 -31 q-209 0 -340 132.5 q-131 132.5 -131 340.5 q0 124 49.5 240 q49.5 116 137 205 q87.5 89 218.5 142.5 q131 53.5 283 53.5 q205 0 336 -132 q131 -132 131 -335 q0 -100 -30.5 -195.5 q-30.5 -95.5 -90 -177 q-59.5 -81.5 -141 -143 q-81.5 -61.5 -190.5 -96.5 q-109 -35 -232 -35 ZM328 469 q0 -107 64 -172.5 q64 -65.5 179 -65.5 q138 0 248.5 108.5 q110.5 108.5 110.5 244.5 q0 105 -65.5 170 q-65.5 65 -178.5 65 q-139 0 -248.5 -107.5 q-109.5 -107.5 -109.5 -242.5 ZM633 1229 l186 383 l293 0 l-250 -383 l-229 0 Z" /><glyph glyph-name="ocircumflex" unicode="ô" d="M328 469 q0 -107 64 -172.5 q64 -65.5 179 -65.5 q138 0 248.5 108.5 q110.5 108.5 110.5 244.5 q0 105 -65.5 170 q-65.5 65 -178.5 65 q-139 0 -248.5 -107.5 q-109.5 -107.5 -109.5 -242.5 ZM522 -31 q-209 0 -340 132.5 q-131 132.5 -131 340.5 q0 124 49.5 240 q49.5 116 137 205 q87.5 89 218.5 142.5 q131 53.5 283 53.5 q205 0 336 -132 q131 -132 131 -335 q0 -100 -30.5 -195.5 q-30.5 -95.5 -90 -177 q-59.5 -81.5 -141 -143 q-81.5 -61.5 -190.5 -96.5 q-109 -35 -232 -35 ZM588 1196 l-250 0 l364 379 l234 0 l219 -379 l-229 0 l-131 188 l-207 -188 Z" /><glyph glyph-name="otilde" unicode="õ" d="M328 469 q0 -107 64 -172.5 q64 -65.5 179 -65.5 q138 0 248.5 108.5 q110.5 108.5 110.5 244.5 q0 105 -65.5 170 q-65.5 65 -178.5 65 q-139 0 -248.5 -107.5 q-109.5 -107.5 -109.5 -242.5 ZM522 -31 q-209 0 -340 132.5 q-131 132.5 -131 340.5 q0 124 49.5 240 q49.5 116 137 205 q87.5 89 218.5 142.5 q131 53.5 283 53.5 q205 0 336 -132 q131 -132 131 -335 q0 -100 -30.5 -195.5 q-30.5 -95.5 -90 -177 q-59.5 -81.5 -141 -143 q-81.5 -61.5 -190.5 -96.5 q-109 -35 -232 -35 ZM410 1321 l45 227 q73 45 168 45 q60 0 114 -16.5 q54 -16.5 88 -36.5 q34 -20 82 -36.5 q48 -16.5 97 -16.5 q83 0 163 51 l-43 -225 q-73 -39 -161 -39 q-56 0 -110 17 q-54 17 -89.5 37 q-35.5 20 -85 37 q-49.5 17 -98.5 17 q-93 0 -170 -61 Z" /><glyph glyph-name="odieresis" unicode="ö" d="M522 -31 q-209 0 -340 132.5 q-131 132.5 -131 340.5 q0 124 49.5 240 q49.5 116 137 205 q87.5 89 218.5 142.5 q131 53.5 283 53.5 q205 0 336 -132 q131 -132 131 -335 q0 -100 -30.5 -195.5 q-30.5 -95.5 -90 -177 q-59.5 -81.5 -141 -143 q-81.5 -61.5 -190.5 -96.5 q-109 -35 -232 -35 ZM328 469 q0 -107 64 -172.5 q64 -65.5 179 -65.5 q138 0 248.5 108.5 q110.5 108.5 110.5 244.5 q0 105 -65.5 170 q-65.5 65 -178.5 65 q-139 0 -248.5 -107.5 q-109.5 -107.5 -109.5 -242.5 ZM379 1362 q0 67 54.5 120.5 q54.5 53.5 123.5 53.5 q54 0 88.5 -34 q34.5 -34 34.5 -85 q0 -68 -55 -121 q-55 -53 -125 -53 q-53 0 -87 33.5 q-34 33.5 -34 85.5 ZM889 1360 q0 69 54 122.5 q54 53.5 124 53.5 q53 0 88 -34 q35 -34 35 -85 q0 -67 -55.5 -120.5 q-55.5 -53.5 -124.5 -53.5 q-54 0 -87.5 33 q-33.5 33 -33.5 84 Z" /><glyph glyph-name="divide" unicode="÷" d="M991 623 l-897 0 l47 243 l897 0 l-47 -243 ZM336 344 q0 69 55 123.5 q55 54.5 135 54.5 q57 0 91 -36.5 q34 -36.5 34 -96.5 q0 -68 -53 -123 q-53 -55 -133 -55 q-55 0 -92 38 q-37 38 -37 95 ZM481 1098 q0 69 55.5 123.5 q55.5 54.5 135.5 54.5 q57 0 91 -36.5 q34 -36.5 34 -96.5 q0 -68 -53.5 -123 q-53.5 -55 -133.5 -55 q-55 0 -92 38 q-37 38 -37 95 Z" /><glyph glyph-name="oslash" unicode="ø" d="M385 469 q0 -47 12 -84 l471 422 q-50 24 -114 24 q-144 0 -256.5 -111 q-112.5 -111 -112.5 -251 ZM983 688 l-485 -432 q60 -37 135 -37 q93 0 179.5 52 q86.5 52 139 137.5 q52.5 85.5 52.5 177.5 q0 48 -21 102 ZM588 -31 q-164 0 -289 88 l-119 -106 l-129 147 l119 105 q-53 100 -53 221 q0 125 57.5 246.5 q57.5 121.5 151.5 211.5 q94 90 220 145.5 q126 55.5 257 55.5 q155 0 268 -75 l117 102 l127 -147 l-107 -95 q64 -106 64 -235 q0 -167 -97 -321.5 q-97 -154.5 -256 -248.5 q-159 -94 -331 -94 Z" /><glyph glyph-name="ugrave" unicode="ù" d="M963 0 l-275 0 l23 119 q-66 -72 -151 -111 q-85 -39 -173 -39 q-59 0 -109.5 18.5 q-50.5 18.5 -92 58 q-41.5 39.5 -64.5 101 q-23 61.5 -27.5 147.5 q-4.5 86 17.5 198 l108 561 l273 0 l-109 -559 q-56 -281 133 -281 q87 0 161.5 66 q74.5 66 100.5 186 l115 588 l274 0 l-204 -1053 ZM455 1612 l293 0 l145 -383 l-229 0 l-209 383 Z" /><glyph glyph-name="uacute" unicode="ú" d="M963 0 l-275 0 l23 119 q-66 -72 -151 -111 q-85 -39 -173 -39 q-59 0 -109.5 18.5 q-50.5 18.5 -92 58 q-41.5 39.5 -64.5 101 q-23 61.5 -27.5 147.5 q-4.5 86 17.5 198 l108 561 l273 0 l-109 -559 q-56 -281 133 -281 q87 0 161.5 66 q74.5 66 100.5 186 l115 588 l274 0 l-204 -1053 ZM612 1229 l187 383 l293 0 l-250 -383 l-230 0 Z" /><glyph glyph-name="ucircumflex" unicode="û" d="M963 0 l-275 0 l23 119 q-66 -72 -151 -111 q-85 -39 -173 -39 q-59 0 -109.5 18.5 q-50.5 18.5 -92 58 q-41.5 39.5 -64.5 101 q-23 61.5 -27.5 147.5 q-4.5 86 17.5 198 l108 561 l273 0 l-109 -559 q-56 -281 133 -281 q87 0 161.5 66 q74.5 66 100.5 186 l115 588 l274 0 l-204 -1053 ZM317 1196 l365 379 l233 0 l220 -379 l-230 0 l-131 188 l-207 -188 l-250 0 Z" /><glyph glyph-name="udieresis" unicode="ü" d="M963 0 l-275 0 l23 119 q-66 -72 -151 -111 q-85 -39 -173 -39 q-59 0 -109.5 18.5 q-50.5 18.5 -92 58 q-41.5 39.5 -64.5 101 q-23 61.5 -27.5 147.5 q-4.5 86 17.5 198 l108 561 l273 0 l-109 -559 q-56 -281 133 -281 q87 0 161.5 66 q74.5 66 100.5 186 l115 588 l274 0 l-204 -1053 ZM358 1362 q0 67 55 120.5 q55 53.5 124 53.5 q54 0 88 -34 q34 -34 34 -85 q0 -68 -55 -121 q-55 -53 -125 -53 q-53 0 -87 33.5 q-34 33.5 -34 85.5 ZM868 1360 q0 69 54.5 122.5 q54.5 53.5 124.5 53.5 q52 0 87 -34 q35 -34 35 -85 q0 -67 -55.5 -120.5 q-55.5 -53.5 -124.5 -53.5 q-54 0 -87.5 33 q-33.5 33 -33.5 84 Z" /><glyph glyph-name="yacute" unicode="ý" d="M72 -348 l233 399 l-201 1002 l281 0 l125 -666 l385 666 l305 0 l-823 -1401 l-305 0 ZM561 1229 l187 383 l292 0 l-249 -383 l-230 0 Z" /><glyph glyph-name="thorn" unicode="þ" d="M406 469 q0 -103 67.5 -171.5 q67.5 -68.5 171.5 -68.5 q91 0 174.5 50 q83.5 50 134 132.5 q50.5 82.5 50.5 172.5 q0 102 -69 170.5 q-69 68.5 -175 68.5 q-116 0 -215 -81.5 q-99 -81.5 -129 -196.5 l-8 -37 q-2 -12 -2 -39 ZM242 -348 l-273 0 l359 1843 l272 0 l-117 -604 q80 91 180 142.5 q100 51.5 205 51.5 q180 0 296 -124.5 q116 -124.5 116 -315.5 q0 -127 -53 -251 q-53 -124 -139.5 -217 q-86.5 -93 -202 -150.5 q-115.5 -57.5 -234.5 -57.5 q-105 0 -185 51.5 q-80 51.5 -124 141.5 l-100 -510 Z" /><glyph glyph-name="ydieresis" unicode="ÿ" d="M72 -348 l233 399 l-201 1002 l281 0 l125 -666 l385 666 l305 0 l-823 -1401 l-305 0 ZM307 1362 q0 67 54.5 120.5 q54.5 53.5 123.5 53.5 q54 0 88.5 -34 q34.5 -34 34.5 -85 q0 -68 -55 -121 q-55 -53 -125 -53 q-53 0 -87 33.5 q-34 33.5 -34 85.5 ZM817 1360 q0 69 54 122.5 q54 53.5 124 53.5 q53 0 88 -34 q35 -34 35 -85 q0 -67 -55.5 -120.5 q-55.5 -53.5 -124.5 -53.5 q-54 0 -87.5 33 q-33.5 33 -33.5 84 Z" /><glyph glyph-name="Amacron" unicode="&#x100;" d="M856 1133 l-328 -596 l426 0 l-98 596 ZM231 0 l-301 0 l805 1413 l330 0 l260 -1413 l-283 0 l-49 303 l-594 0 l-168 -303 ZM1296 1563 l-755 0 l43 221 l755 0 l-43 -221 Z" /><glyph glyph-name="amacron" unicode="&#x101;" d="M334 465 q0 -104 64 -170 q64 -66 177 -66 q136 0 245.5 110 q109.5 110 109.5 245 q0 103 -64.5 170 q-64.5 67 -175.5 67 q-146 0 -251 -108.5 q-105 -108.5 -105 -247.5 ZM471 -31 q-175 0 -294.5 132 q-119.5 132 -119.5 348 q0 127 51 244.5 q51 117.5 135.5 202.5 q84.5 85 197 136 q112.5 51 231.5 51 q110 0 193.5 -55 q83.5 -55 125.5 -151 l35 176 l268 0 l-202 -1053 l-269 0 l29 143 q-76 -84 -174.5 -129 q-98.5 -45 -206.5 -45 ZM1202 1298 l-756 0 l43 222 l756 0 l-43 -222 Z" /><glyph glyph-name="Abreve" unicode="&#x102;" d="M856 1133 l-328 -596 l426 0 l-98 596 ZM231 0 l-301 0 l805 1413 l330 0 l260 -1413 l-283 0 l-49 303 l-594 0 l-168 -303 ZM608 1882 l213 0 q-14 -72 20 -118 q34 -46 109 -46 q76 0 129.5 46 q53.5 46 67.5 118 l215 0 q-12 -64 -47 -125 q-35 -61 -90 -113 q-55 -52 -136.5 -84 q-81.5 -32 -175.5 -32 q-62 0 -113.5 15 q-51.5 15 -86 40.5 q-34.5 25.5 -60.5 60 q-26 34.5 -36.5 74 q-10.5 39.5 -14.5 81.5 q-4 42 6 83 Z" /><glyph glyph-name="abreve" unicode="&#x103;" d="M334 465 q0 -104 64 -170 q64 -66 177 -66 q136 0 245.5 110 q109.5 110 109.5 245 q0 103 -64.5 170 q-64.5 67 -175.5 67 q-146 0 -251 -108.5 q-105 -108.5 -105 -247.5 ZM471 -31 q-175 0 -294.5 132 q-119.5 132 -119.5 348 q0 127 51 244.5 q51 117.5 135.5 202.5 q84.5 85 197 136 q112.5 51 231.5 51 q110 0 193.5 -55 q83.5 -55 125.5 -151 l35 176 l268 0 l-202 -1053 l-269 0 l29 143 q-76 -84 -174.5 -129 q-98.5 -45 -206.5 -45 ZM510 1602 l217 0 q-17 -89 15.5 -137 q32.5 -48 107.5 -48 q75 0 126 48.5 q51 48.5 68 136.5 l220 0 q-14 -69 -49.5 -132.5 q-35.5 -63.5 -90 -115.5 q-54.5 -52 -135 -83.5 q-80.5 -31.5 -174.5 -31.5 q-76 0 -135 20.5 q-59 20.5 -94.5 56 q-35.5 35.5 -58 82 q-22.5 46.5 -24 98.5 q-1.5 52 6.5 106 Z" /><glyph glyph-name="Aogonek" unicode="&#x104;" d="M856 1133 l-328 -596 l426 0 l-98 596 ZM231 0 l-301 0 l805 1413 l330 0 l260 -1413 q-129 -46 -203.5 -101.5 q-74.5 -55.5 -74.5 -105.5 q0 -47 77 -47 q78 0 144 27 l-37 -193 q-90 -33 -205 -33 q-101 0 -161 38.5 q-60 38.5 -60 119.5 q0 169 237 297 l-49 301 l-594 0 l-168 -303 Z" /><glyph glyph-name="aogonek" unicode="&#x105;" d="M334 465 q0 -104 64 -170 q64 -66 177 -66 q136 0 245.5 110 q109.5 110 109.5 245 q0 103 -64.5 170 q-64.5 67 -175.5 67 q-146 0 -251 -108.5 q-105 -108.5 -105 -247.5 ZM471 -31 q-175 0 -294.5 132 q-119.5 132 -119.5 348 q0 127 51 244.5 q51 117.5 135.5 202.5 q84.5 85 197 136 q112.5 51 231.5 51 q110 0 193.5 -55 q83.5 -55 125.5 -151 l35 176 l268 0 l-202 -1053 q-129 -49 -198 -108.5 q-69 -59.5 -69 -118.5 q0 -60 76 -60 q62 0 133 31 l-39 -201 q-83 -26 -182 -26 q-92 0 -150.5 45.5 q-58.5 45.5 -58.5 130.5 q0 88 57.5 170 q57.5 82 163.5 151 l27 129 q-76 -84 -174.5 -129 q-98.5 -45 -206.5 -45 Z" /><glyph glyph-name="Cacute" unicode="&#x106;" d="M80 567 q0 113 30.5 223 q30.5 110 85.5 207 q55 97 137 179.5 q82 82.5 181 141.5 q99 59 220.5 92.5 q121.5 33.5 252.5 33.5 q243 0 403 -151.5 q160 -151.5 177 -389.5 l-301 0 q-25 124 -114 193 q-89 69 -220 69 q-108 0 -210.5 -45.5 q-102.5 -45.5 -177 -120 q-74.5 -74.5 -120 -177 q-45.5 -102.5 -45.5 -210.5 q0 -161 102.5 -262.5 q102.5 -101.5 270.5 -101.5 q141 0 259.5 68 q118.5 68 188.5 198 l301 0 q-109 -263 -315 -404 q-206 -141 -486 -141 q-180 0 -322 78 q-142 78 -220 214 q-78 136 -78 306 ZM858 1534 l260 264 l342 0 l-323 -264 l-279 0 Z" /><glyph glyph-name="cacute" unicode="&#x107;" d="M526 -31 q-212 0 -343.5 132.5 q-131.5 132.5 -131.5 344.5 q0 133 52 250.5 q52 117.5 142 202.5 q90 85 218 134.5 q128 49.5 274 49.5 q182 0 307 -124 q125 -124 130 -308 l-271 0 q-16 79 -69.5 125.5 q-53.5 46.5 -149.5 46.5 q-137 0 -247.5 -108.5 q-110.5 -108.5 -110.5 -241.5 q0 -108 66 -177 q66 -69 177 -69 q90 0 174 44 q84 44 131 130 l273 0 q-78 -212 -240 -322 q-162 -110 -381 -110 ZM627 1229 l186 383 l293 0 l-250 -383 l-229 0 Z" /><glyph glyph-name="Ccircumflex" unicode="&#x108;" d="M80 567 q0 113 30.5 223 q30.5 110 85.5 207 q55 97 137 179.5 q82 82.5 181 141.5 q99 59 220.5 92.5 q121.5 33.5 252.5 33.5 q243 0 403 -151.5 q160 -151.5 177 -389.5 l-301 0 q-25 124 -114 193 q-89 69 -220 69 q-108 0 -210.5 -45.5 q-102.5 -45.5 -177 -120 q-74.5 -74.5 -120 -177 q-45.5 -102.5 -45.5 -210.5 q0 -161 102.5 -262.5 q102.5 -101.5 270.5 -101.5 q141 0 259.5 68 q118.5 68 188.5 198 l301 0 q-109 -263 -315 -404 q-206 -141 -486 -141 q-180 0 -322 78 q-142 78 -220 214 q-78 136 -78 306 ZM606 1528 l355 332 l243 0 l232 -332 l-234 0 l-139 162 l-203 -162 l-254 0 Z" /><glyph glyph-name="ccircumflex" unicode="&#x109;" d="M526 -31 q-212 0 -343.5 132.5 q-131.5 132.5 -131.5 344.5 q0 133 52 250.5 q52 117.5 142 202.5 q90 85 218 134.5 q128 49.5 274 49.5 q182 0 307 -124 q125 -124 130 -308 l-271 0 q-16 79 -69.5 125.5 q-53.5 46.5 -149.5 46.5 q-137 0 -247.5 -108.5 q-110.5 -108.5 -110.5 -241.5 q0 -108 66 -177 q66 -69 177 -69 q90 0 174 44 q84 44 131 130 l273 0 q-78 -212 -240 -322 q-162 -110 -381 -110 ZM332 1196 l364 379 l234 0 l219 -379 l-229 0 l-132 188 l-206 -188 l-250 0 Z" /><glyph glyph-name="Cdotaccent" unicode="&#x10a;" d="M80 567 q0 113 30.5 223 q30.5 110 85.5 207 q55 97 137 179.5 q82 82.5 181 141.5 q99 59 220.5 92.5 q121.5 33.5 252.5 33.5 q243 0 403 -151.5 q160 -151.5 177 -389.5 l-301 0 q-25 124 -114 193 q-89 69 -220 69 q-108 0 -210.5 -45.5 q-102.5 -45.5 -177 -120 q-74.5 -74.5 -120 -177 q-45.5 -102.5 -45.5 -210.5 q0 -161 102.5 -262.5 q102.5 -101.5 270.5 -101.5 q141 0 259.5 68 q118.5 68 188.5 198 l301 0 q-109 -263 -315 -404 q-206 -141 -486 -141 q-180 0 -322 78 q-142 78 -220 214 q-78 136 -78 306 ZM911 1722 q0 68 55.5 121 q55.5 53 125.5 53 q53 0 86.5 -33 q33.5 -33 33.5 -83 q0 -69 -54.5 -122.5 q-54.5 -53.5 -123.5 -53.5 q-54 0 -88.5 33 q-34.5 33 -34.5 85 Z" /><glyph glyph-name="cdotaccent" unicode="&#x10b;" d="M526 -31 q-212 0 -343.5 132.5 q-131.5 132.5 -131.5 344.5 q0 133 52 250.5 q52 117.5 142 202.5 q90 85 218 134.5 q128 49.5 274 49.5 q182 0 307 -124 q125 -124 130 -308 l-271 0 q-16 79 -69.5 125.5 q-53.5 46.5 -149.5 46.5 q-137 0 -247.5 -108.5 q-110.5 -108.5 -110.5 -241.5 q0 -108 66 -177 q66 -69 177 -69 q90 0 174 44 q84 44 131 130 l273 0 q-78 -212 -240 -322 q-162 -110 -381 -110 ZM627 1362 q0 68 55 121 q55 53 125 53 q53 0 87 -33.5 q34 -33.5 34 -83.5 q0 -69 -54.5 -122.5 q-54.5 -53.5 -123.5 -53.5 q-54 0 -88.5 33.5 q-34.5 33.5 -34.5 85.5 Z" /><glyph glyph-name="Ccaron" unicode="&#x10c;" d="M80 567 q0 113 30.5 223 q30.5 110 85.5 207 q55 97 137 179.5 q82 82.5 181 141.5 q99 59 220.5 92.5 q121.5 33.5 252.5 33.5 q243 0 403 -151.5 q160 -151.5 177 -389.5 l-301 0 q-25 124 -114 193 q-89 69 -220 69 q-108 0 -210.5 -45.5 q-102.5 -45.5 -177 -120 q-74.5 -74.5 -120 -177 q-45.5 -102.5 -45.5 -210.5 q0 -161 102.5 -262.5 q102.5 -101.5 270.5 -101.5 q141 0 259.5 68 q118.5 68 188.5 198 l301 0 q-109 -263 -315 -404 q-206 -141 -486 -141 q-180 0 -322 78 q-142 78 -220 214 q-78 136 -78 306 ZM680 1860 l233 0 l140 -162 l202 162 l254 0 l-354 -332 l-244 0 l-231 332 Z" /><glyph glyph-name="ccaron" unicode="&#x10d;" d="M526 -31 q-212 0 -343.5 132.5 q-131.5 132.5 -131.5 344.5 q0 133 52 250.5 q52 117.5 142 202.5 q90 85 218 134.5 q128 49.5 274 49.5 q182 0 307 -124 q125 -124 130 -308 l-271 0 q-16 79 -69.5 125.5 q-53.5 46.5 -149.5 46.5 q-137 0 -247.5 -108.5 q-110.5 -108.5 -110.5 -241.5 q0 -108 66 -177 q66 -69 177 -69 q90 0 174 44 q84 44 131 130 l273 0 q-78 -212 -240 -322 q-162 -110 -381 -110 ZM397 1561 l230 0 l131 -189 l207 189 l249 0 l-364 -379 l-234 0 l-219 379 Z" /><glyph glyph-name="Dcaron" unicode="&#x10e;" d="M567 1149 l-172 -885 l236 0 q166 0 302 71 q136 71 212 192 q76 121 76 264 q0 163 -95.5 260.5 q-95.5 97.5 -267.5 97.5 l-291 0 ZM588 0 l-531 0 l275 1413 l563 0 q290 0 456.5 -165.5 q166.5 -165.5 166.5 -436.5 q0 -131 -38.5 -251 q-38.5 -120 -116 -222 q-77.5 -102 -187.5 -177.5 q-110 -75.5 -261 -118 q-151 -42.5 -327 -42.5 ZM786 1528 l-231 332 l233 0 l140 -162 l202 162 l254 0 l-354 -332 l-244 0 Z" /><glyph glyph-name="dcaron" unicode="&#x10f;" d="M328 465 q0 -104 64 -170 q64 -66 177 -66 q136 0 245.5 110 q109.5 110 109.5 245 q0 103 -64.5 170 q-64.5 67 -175.5 67 q-146 0 -251 -108.5 q-105 -108.5 -105 -247.5 ZM1087 0 l-270 0 l29 143 q-76 -84 -174.5 -129 q-98.5 -45 -206.5 -45 q-175 0 -294.5 132 q-119.5 132 -119.5 348 q0 127 51 244.5 q51 117.5 135.5 202.5 q84.5 85 197 136 q112.5 51 231.5 51 q110 0 193.5 -55 q83.5 -55 127.5 -151 l119 618 l270 0 l-289 -1495 ZM1622 1116 l-203 0 l199 535 l256 0 l-252 -535 Z" /><glyph glyph-name="Dcroat" unicode="&#x110;" d="M520 590 l-63 -326 l235 0 q166 0 302 71 q136 71 212 192 q76 121 76 264 q0 163 -95 260.5 q-95 97.5 -267 97.5 l-291 0 l-58 -299 l430 0 l-51 -260 l-430 0 ZM649 0 l-530 0 l114 590 l-135 0 l52 260 l135 0 l108 563 l563 0 q290 0 456.5 -165.5 q166.5 -165.5 166.5 -436.5 q0 -131 -38.5 -251 q-38.5 -120 -116 -222 q-77.5 -102 -187.5 -177.5 q-110 -75.5 -261 -118 q-151 -42.5 -327 -42.5 Z" /><glyph glyph-name="dcroat" unicode="&#x111;" d="M328 465 q0 -104 64 -170 q64 -66 177 -66 q136 0 245.5 110 q109.5 110 109.5 245 q0 103 -64.5 170 q-64.5 67 -175.5 67 q-146 0 -251 -108.5 q-105 -108.5 -105 -247.5 ZM1087 0 l-270 0 l29 143 q-76 -84 -174.5 -129 q-98.5 -45 -206.5 -45 q-175 0 -294.5 132 q-119.5 132 -119.5 348 q0 127 51 244.5 q51 117.5 135.5 202.5 q84.5 85 197 136 q112.5 51 231.5 51 q110 0 193.5 -55 q83.5 -55 127.5 -151 l62 323 l-383 0 l47 199 l374 0 l19 96 l270 0 l-18 -96 l133 0 l-45 -199 l-127 0 l-232 -1200 Z" /><glyph glyph-name="Emacron" unicode="&#x112;" d="M332 1413 l999 0 l-51 -266 l-713 0 l-55 -283 l623 0 l-54 -258 l-620 0 l-66 -340 l713 0 l-51 -266 l-1000 0 l275 1413 ZM526 1563 l43 221 l756 0 l-43 -221 l-756 0 Z" /><glyph glyph-name="emacron" unicode="&#x113;" d="M375 643 l520 0 q-13 83 -68.5 132.5 q-55.5 49.5 -148.5 49.5 q-95 0 -175.5 -49.5 q-80.5 -49.5 -127.5 -132.5 ZM520 -31 q-203 0 -336 127.5 q-133 127.5 -133 345.5 q0 187 92.5 335 q92.5 148 248 227.5 q155.5 79.5 341.5 78.5 q155 -1 262 -79.5 q107 -78.5 148 -219 q41 -140.5 10 -319.5 l-825 -4 q2 -101 65.5 -165.5 q63.5 -64.5 177.5 -64.5 q91 0 155 28 q64 28 110 93 l276 0 q-72 -187 -224.5 -285 q-152.5 -98 -367.5 -98 ZM1167 1298 l-755 0 l43 222 l755 0 l-43 -222 Z" /><glyph glyph-name="Ebreve" unicode="&#x114;" d="M332 1413 l999 0 l-51 -266 l-713 0 l-55 -283 l623 0 l-54 -258 l-620 0 l-66 -340 l713 0 l-51 -266 l-1000 0 l275 1413 ZM594 1882 l213 0 q-14 -72 20 -118 q34 -46 109 -46 q76 0 129.5 46 q53.5 46 67.5 118 l215 0 q-12 -64 -47 -125 q-35 -61 -90 -113 q-55 -52 -136.5 -84 q-81.5 -32 -175.5 -32 q-62 0 -113.5 15 q-51.5 15 -86 40.5 q-34.5 25.5 -60.5 60 q-26 34.5 -36.5 74 q-10.5 39.5 -14.5 81.5 q-4 42 6 83 Z" /><glyph glyph-name="ebreve" unicode="&#x115;" d="M375 643 l520 0 q-13 83 -68.5 132.5 q-55.5 49.5 -148.5 49.5 q-95 0 -175.5 -49.5 q-80.5 -49.5 -127.5 -132.5 ZM520 -31 q-203 0 -336 127.5 q-133 127.5 -133 345.5 q0 187 92.5 335 q92.5 148 248 227.5 q155.5 79.5 341.5 78.5 q155 -1 262 -79.5 q107 -78.5 148 -219 q41 -140.5 10 -319.5 l-825 -4 q2 -101 65.5 -165.5 q63.5 -64.5 177.5 -64.5 q91 0 155 28 q64 28 110 93 l276 0 q-72 -187 -224.5 -285 q-152.5 -98 -367.5 -98 ZM475 1602 l217 0 q-17 -89 15.5 -137 q32.5 -48 107.5 -48 q75 0 126.5 48.5 q51.5 48.5 68.5 136.5 l219 0 q-14 -69 -49.5 -132.5 q-35.5 -63.5 -90 -115.5 q-54.5 -52 -135 -83.5 q-80.5 -31.5 -174.5 -31.5 q-76 0 -135 20.5 q-59 20.5 -94.5 56 q-35.5 35.5 -58 82 q-22.5 46.5 -24 98.5 q-1.5 52 6.5 106 Z" /><glyph glyph-name="Edotaccent" unicode="&#x116;" d="M332 1413 l999 0 l-51 -266 l-713 0 l-55 -283 l623 0 l-54 -258 l-620 0 l-66 -340 l713 0 l-51 -266 l-1000 0 l275 1413 ZM791 1722 q0 68 55 121 q55 53 125 53 q53 0 87 -33 q34 -33 34 -83 q0 -69 -55 -122.5 q-55 -53.5 -124 -53.5 q-54 0 -88 33 q-34 33 -34 85 Z" /><glyph glyph-name="edotaccent" unicode="&#x117;" d="M375 643 l520 0 q-13 83 -68.5 132.5 q-55.5 49.5 -148.5 49.5 q-95 0 -175.5 -49.5 q-80.5 -49.5 -127.5 -132.5 ZM520 -31 q-203 0 -336 127.5 q-133 127.5 -133 345.5 q0 187 92.5 335 q92.5 148 248 227.5 q155.5 79.5 341.5 78.5 q155 -1 262 -79.5 q107 -78.5 148 -219 q41 -140.5 10 -319.5 l-825 -4 q2 -101 65.5 -165.5 q63.5 -64.5 177.5 -64.5 q91 0 155 28 q64 28 110 93 l276 0 q-72 -187 -224.5 -285 q-152.5 -98 -367.5 -98 ZM657 1362 q0 68 55.5 121 q55.5 53 125.5 53 q53 0 86.5 -33.5 q33.5 -33.5 33.5 -83.5 q0 -69 -54.5 -122.5 q-54.5 -53.5 -123.5 -53.5 q-54 0 -88.5 33.5 q-34.5 33.5 -34.5 85.5 Z" /><glyph glyph-name="Eogonek" unicode="&#x118;" d="M332 1413 l999 0 l-51 -266 l-713 0 l-55 -283 l623 0 l-54 -258 l-620 0 l-66 -340 l713 0 l-39 -205 l29 -61 q-129 -46 -204 -101.5 q-75 -55.5 -75 -105.5 q0 -47 78 -47 q77 0 143 27 l-36 -193 q-90 -33 -205 -33 q-101 0 -161 38.5 q-60 38.5 -60 119.5 q0 167 233 295 l-754 0 l275 1413 Z" /><glyph glyph-name="eogonek" unicode="&#x119;" d="M375 643 l520 0 q-13 83 -68.5 132.5 q-55.5 49.5 -148.5 49.5 q-95 0 -175.5 -49.5 q-80.5 -49.5 -127.5 -132.5 ZM51 442 q0 187 92.5 335 q92.5 148 248 227.5 q155.5 79.5 341.5 78.5 q155 -1 262 -79.5 q107 -78.5 148 -219 q41 -140.5 10 -319.5 l-825 -4 q2 -101 65.5 -165.5 q63.5 -64.5 177.5 -64.5 q91 0 155 28 q64 28 110 93 l276 0 q-58 -150 -169 -243.5 q-111 -93.5 -265 -124.5 q-85 -42 -129.5 -90.5 q-44.5 -48.5 -44.5 -96.5 q0 -59 76 -59 q62 0 133 31 l-39 -201 q-86 -27 -182 -27 q-92 0 -150.5 45.5 q-58.5 45.5 -58.5 130.5 q0 137 139 260 q-165 30 -268 153 q-103 123 -103 312 Z" /><glyph glyph-name="Ecaron" unicode="&#x11a;" d="M332 1413 l999 0 l-51 -266 l-713 0 l-55 -283 l623 0 l-54 -258 l-620 0 l-66 -340 l713 0 l-51 -266 l-1000 0 l275 1413 ZM559 1860 l234 0 l139 -162 l203 162 l254 0 l-355 -332 l-243 0 l-232 332 Z" /><glyph glyph-name="ecaron" unicode="&#x11b;" d="M375 643 l520 0 q-13 83 -68.5 132.5 q-55.5 49.5 -148.5 49.5 q-95 0 -175.5 -49.5 q-80.5 -49.5 -127.5 -132.5 ZM520 -31 q-203 0 -336 127.5 q-133 127.5 -133 345.5 q0 187 92.5 335 q92.5 148 248 227.5 q155.5 79.5 341.5 78.5 q155 -1 262 -79.5 q107 -78.5 148 -219 q41 -140.5 10 -319.5 l-825 -4 q2 -101 65.5 -165.5 q63.5 -64.5 177.5 -64.5 q91 0 155 28 q64 28 110 93 l276 0 q-72 -187 -224.5 -285 q-152.5 -98 -367.5 -98 ZM647 1182 l-219 379 l229 0 l131 -189 l207 189 l250 0 l-364 -379 l-234 0 Z" /><glyph glyph-name="Gcircumflex" unicode="&#x11c;" d="M694 -31 q-268 0 -440 173.5 q-172 173.5 -172 445.5 q0 162 67.5 316.5 q67.5 154.5 184.5 274 q117 119.5 288.5 192.5 q171.5 73 366.5 73 q236 0 394.5 -141.5 q158.5 -141.5 177.5 -364.5 l-314 0 q-21 113 -104 170 q-83 57 -209 57 q-108 0 -210.5 -45.5 q-102.5 -45.5 -177 -120 q-74.5 -74.5 -120 -177 q-45.5 -102.5 -45.5 -210.5 q0 -161 101.5 -262.5 q101.5 -101.5 267.5 -101.5 q134 0 251.5 61 q117.5 61 190.5 170 l10 56 l-420 0 l49 256 l705 0 l-154 -791 l-223 0 l-6 111 q-208 -142 -459 -142 ZM588 1528 l354 332 l244 0 l231 -332 l-233 0 l-140 162 l-202 -162 l-254 0 Z" /><glyph glyph-name="gcircumflex" unicode="&#x11d;" d="M328 516 q0 -97 56.5 -156 q56.5 -59 160.5 -59 q108 0 197 74.5 q89 74.5 114 181.5 l4 25 q4 32 4 47 q0 96 -58.5 157.5 q-58.5 61.5 -154.5 61.5 q-127 0 -225 -100.5 q-98 -100.5 -98 -231.5 ZM420 -379 q-193 0 -307 102 q-114 102 -133 271 l280 0 q6 -67 55.5 -103 q49.5 -36 139.5 -36 q125 0 211 84.5 q86 84.5 120 261.5 l11 57 q-74 -90 -169.5 -141 q-95.5 -51 -197.5 -51 q-166 0 -272.5 111.5 q-106.5 111.5 -106.5 285.5 q0 161 72.5 302.5 q72.5 141.5 206 229.5 q133.5 88 297.5 88 q105 0 180 -52 q75 -52 113 -144 l32 166 l273 0 l-160 -826 q-61 -317 -224.5 -461.5 q-163.5 -144.5 -420.5 -144.5 ZM604 1196 l-250 0 l365 379 l233 0 l219 -379 l-229 0 l-131 188 l-207 -188 Z" /><glyph glyph-name="Gbreve" unicode="&#x11e;" d="M694 -31 q-268 0 -440 173.5 q-172 173.5 -172 445.5 q0 162 67.5 316.5 q67.5 154.5 184.5 274 q117 119.5 288.5 192.5 q171.5 73 366.5 73 q236 0 394.5 -141.5 q158.5 -141.5 177.5 -364.5 l-314 0 q-21 113 -104 170 q-83 57 -209 57 q-108 0 -210.5 -45.5 q-102.5 -45.5 -177 -120 q-74.5 -74.5 -120 -177 q-45.5 -102.5 -45.5 -210.5 q0 -161 101.5 -262.5 q101.5 -101.5 267.5 -101.5 q134 0 251.5 61 q117.5 61 190.5 170 l10 56 l-420 0 l49 256 l705 0 l-154 -791 l-223 0 l-6 111 q-208 -142 -459 -142 ZM696 1882 l213 0 q-14 -72 20 -118 q34 -46 109 -46 q76 0 129.5 46 q53.5 46 67.5 118 l215 0 q-12 -64 -47 -125 q-35 -61 -90 -113 q-55 -52 -136.5 -84 q-81.5 -32 -175.5 -32 q-62 0 -113.5 15 q-51.5 15 -86 40.5 q-34.5 25.5 -60.5 60 q-26 34.5 -36.5 74 q-10.5 39.5 -14.5 81.5 q-4 42 6 83 Z" /><glyph glyph-name="gbreve" unicode="&#x11f;" d="M328 516 q0 -97 56.5 -156 q56.5 -59 160.5 -59 q108 0 197 74.5 q89 74.5 114 181.5 l4 25 q4 32 4 47 q0 96 -58.5 157.5 q-58.5 61.5 -154.5 61.5 q-127 0 -225 -100.5 q-98 -100.5 -98 -231.5 ZM420 -379 q-193 0 -307 102 q-114 102 -133 271 l280 0 q6 -67 55.5 -103 q49.5 -36 139.5 -36 q125 0 211 84.5 q86 84.5 120 261.5 l11 57 q-74 -90 -169.5 -141 q-95.5 -51 -197.5 -51 q-166 0 -272.5 111.5 q-106.5 111.5 -106.5 285.5 q0 161 72.5 302.5 q72.5 141.5 206 229.5 q133.5 88 297.5 88 q105 0 180 -52 q75 -52 113 -144 l32 166 l273 0 l-160 -826 q-61 -317 -224.5 -461.5 q-163.5 -144.5 -420.5 -144.5 ZM467 1602 l217 0 q-17 -89 15.5 -137 q32.5 -48 107.5 -48 q75 0 126 48.5 q51 48.5 68 136.5 l220 0 q-14 -69 -49.5 -132.5 q-35.5 -63.5 -90 -115.5 q-54.5 -52 -135 -83.5 q-80.5 -31.5 -174.5 -31.5 q-76 0 -135 20.5 q-59 20.5 -94.5 56 q-35.5 35.5 -58 82 q-22.5 46.5 -24 98.5 q-1.5 52 6.5 106 Z" /><glyph glyph-name="Gdotaccent" unicode="&#x120;" d="M694 -31 q-268 0 -440 173.5 q-172 173.5 -172 445.5 q0 162 67.5 316.5 q67.5 154.5 184.5 274 q117 119.5 288.5 192.5 q171.5 73 366.5 73 q236 0 394.5 -141.5 q158.5 -141.5 177.5 -364.5 l-314 0 q-21 113 -104 170 q-83 57 -209 57 q-108 0 -210.5 -45.5 q-102.5 -45.5 -177 -120 q-74.5 -74.5 -120 -177 q-45.5 -102.5 -45.5 -210.5 q0 -161 101.5 -262.5 q101.5 -101.5 267.5 -101.5 q134 0 251.5 61 q117.5 61 190.5 170 l10 56 l-420 0 l49 256 l705 0 l-154 -791 l-223 0 l-6 111 q-208 -142 -459 -142 ZM893 1722 q0 68 55 121 q55 53 125 53 q53 0 87 -33 q34 -33 34 -83 q0 -69 -54.5 -122.5 q-54.5 -53.5 -123.5 -53.5 q-54 0 -88.5 33 q-34.5 33 -34.5 85 Z" /><glyph glyph-name="gdotaccent" unicode="&#x121;" d="M328 516 q0 -97 56.5 -156 q56.5 -59 160.5 -59 q108 0 197 74.5 q89 74.5 114 181.5 l4 25 q4 32 4 47 q0 96 -58.5 157.5 q-58.5 61.5 -154.5 61.5 q-127 0 -225 -100.5 q-98 -100.5 -98 -231.5 ZM420 -379 q-193 0 -307 102 q-114 102 -133 271 l280 0 q6 -67 55.5 -103 q49.5 -36 139.5 -36 q125 0 211 84.5 q86 84.5 120 261.5 l11 57 q-74 -90 -169.5 -141 q-95.5 -51 -197.5 -51 q-166 0 -272.5 111.5 q-106.5 111.5 -106.5 285.5 q0 161 72.5 302.5 q72.5 141.5 206 229.5 q133.5 88 297.5 88 q105 0 180 -52 q75 -52 113 -144 l32 166 l273 0 l-160 -826 q-61 -317 -224.5 -461.5 q-163.5 -144.5 -420.5 -144.5 ZM649 1362 q0 68 55 121 q55 53 125 53 q53 0 87 -33.5 q34 -33.5 34 -83.5 q0 -69 -54.5 -122.5 q-54.5 -53.5 -123.5 -53.5 q-54 0 -88.5 33.5 q-34.5 33.5 -34.5 85.5 Z" /><glyph glyph-name="uni0122" unicode="&#x122;" d="M694 -31 q-268 0 -440 173.5 q-172 173.5 -172 445.5 q0 162 67.5 316.5 q67.5 154.5 184.5 274 q117 119.5 288.5 192.5 q171.5 73 366.5 73 q236 0 394.5 -141.5 q158.5 -141.5 177.5 -364.5 l-314 0 q-21 113 -104 170 q-83 57 -209 57 q-108 0 -210.5 -45.5 q-102.5 -45.5 -177 -120 q-74.5 -74.5 -120 -177 q-45.5 -102.5 -45.5 -210.5 q0 -161 101.5 -262.5 q101.5 -101.5 267.5 -101.5 q134 0 251.5 61 q117.5 61 190.5 170 l10 56 l-420 0 l49 256 l705 0 l-154 -791 l-223 0 l-6 111 q-208 -142 -459 -142 ZM373 -586 l194 451 l267 0 l-287 -451 l-174 0 Z" /><glyph glyph-name="uni0123" unicode="&#x123;" d="M328 516 q0 -97 56.5 -156 q56.5 -59 160.5 -59 q108 0 197 74.5 q89 74.5 114 181.5 l4 25 q4 32 4 47 q0 96 -58.5 157.5 q-58.5 61.5 -154.5 61.5 q-127 0 -225 -100.5 q-98 -100.5 -98 -231.5 ZM420 -379 q-193 0 -307 102 q-114 102 -133 271 l280 0 q6 -67 55.5 -103 q49.5 -36 139.5 -36 q125 0 211 84.5 q86 84.5 120 261.5 l11 57 q-74 -90 -169.5 -141 q-95.5 -51 -197.5 -51 q-166 0 -272.5 111.5 q-106.5 111.5 -106.5 285.5 q0 161 72.5 302.5 q72.5 141.5 206 229.5 q133.5 88 297.5 88 q105 0 180 -52 q75 -52 113 -144 l32 166 l273 0 l-160 -826 q-61 -317 -224.5 -461.5 q-163.5 -144.5 -420.5 -144.5 ZM883 1202 l-248 0 l278 389 l164 0 l-194 -389 Z" /><glyph glyph-name="Hcircumflex" unicode="&#x124;" d="M332 1413 l286 0 l-104 -543 l657 0 l105 543 l287 0 l-275 -1413 l-287 0 l117 604 l-657 0 l-117 -604 l-287 0 l275 1413 ZM557 1528 l354 332 l244 0 l231 -332 l-233 0 l-139 162 l-203 -162 l-254 0 Z" /><glyph glyph-name="hcircumflex" unicode="&#x125;" d="M336 1495 l274 0 l-116 -604 q67 90 163.5 140 q96.5 50 202.5 50 q58 0 107 -15 q49 -15 91 -48.5 q42 -33.5 65.5 -88 q23.5 -54.5 30.5 -132.5 q7 -78 -15 -183 l-119 -614 l-275 0 l115 588 q49 254 -141 254 q-92 0 -171 -63 q-79 -63 -114 -185 l-115 -594 l-274 0 l291 1495 ZM88 1618 l354 332 l244 0 l232 -332 l-234 0 l-139 162 l-203 -162 l-254 0 Z" /><glyph glyph-name="Hbar" unicode="&#x126;" d="M573 1079 l-38 -209 l657 0 l39 209 l-658 0 ZM141 1079 l39 197 l146 0 l26 137 l287 0 l-27 -137 l658 0 l26 137 l287 0 l-27 -137 l146 0 l-39 -197 l-145 0 l-209 -1079 l-287 0 l117 604 l-658 0 l-116 -604 l-287 0 l209 1079 l-146 0 Z" /><glyph glyph-name="hbar" unicode="&#x127;" d="M168 1180 l43 223 l117 0 l18 92 l275 0 l-19 -92 l399 0 l-43 -223 l-399 0 l-55 -289 q67 90 163.5 140 q96.5 50 202.5 50 q58 0 107 -15 q49 -15 91 -48.5 q42 -33.5 65.5 -88 q23.5 -54.5 30.5 -132.5 q7 -78 -15 -183 l-119 -614 l-274 0 l114 588 q49 254 -141 254 q-92 0 -171 -63 q-79 -63 -114 -185 l-114 -594 l-275 0 l230 1180 l-117 0 Z" /><glyph glyph-name="Itilde" unicode="&#x128;" d="M332 1413 l286 0 l-274 -1413 l-287 0 l275 1413 ZM139 1544 l41 221 q94 62 207 62 q55 0 102.5 -13.5 q47.5 -13.5 75.5 -30.5 q28 -17 68 -30.5 q40 -13.5 82 -13.5 q91 0 203 73 l-41 -225 q-98 -59 -215 -59 q-53 0 -100.5 14 q-47.5 14 -76.5 30 q-29 16 -68 30 q-39 14 -77 14 q-90 0 -201 -72 Z" /><glyph glyph-name="itilde" unicode="&#x129;" d="M25 0 l204 1053 l273 0 l-205 -1053 l-272 0 ZM57 1321 l45 227 q73 45 168 45 q60 0 114 -16.5 q54 -16.5 88 -36.5 q34 -20 82 -36.5 q48 -16.5 97 -16.5 q84 0 164 51 l-43 -225 q-73 -39 -162 -39 q-56 0 -110 17 q-54 17 -89.5 37 q-35.5 20 -85 37 q-49.5 17 -98.5 17 q-93 0 -170 -61 Z" /><glyph glyph-name="Imacron" unicode="&#x12a;" d="M332 1413 l286 0 l-274 -1413 l-287 0 l275 1413 ZM125 1563 l43 221 l756 0 l-43 -221 l-756 0 Z" /><glyph glyph-name="imacron" unicode="&#x12b;" d="M25 0 l204 1053 l273 0 l-205 -1053 l-272 0 ZM119 1298 l31 222 l565 0 l-33 -222 l-563 0 Z" /><glyph glyph-name="Ibreve" unicode="&#x12c;" d="M332 1413 l286 0 l-274 -1413 l-287 0 l275 1413 ZM193 1882 l213 0 q-14 -72 20 -118 q34 -46 109 -46 q76 0 129 46 q53 46 67 118 l215 0 q-12 -64 -47 -125 q-35 -61 -89.5 -113 q-54.5 -52 -136 -84 q-81.5 -32 -175.5 -32 q-62 0 -113.5 15 q-51.5 15 -86 40.5 q-34.5 25.5 -60.5 60 q-26 34.5 -36.5 74 q-10.5 39.5 -14.5 81.5 q-4 42 6 83 Z" /><glyph glyph-name="ibreve" unicode="&#x12d;" d="M25 0 l204 1053 l273 0 l-205 -1053 l-272 0 ZM98 1602 l217 0 q-17 -89 15.5 -137 q32.5 -48 107.5 -48 q75 0 126.5 48.5 q51.5 48.5 68.5 136.5 l219 0 q-14 -69 -49.5 -132.5 q-35.5 -63.5 -90 -115.5 q-54.5 -52 -135 -83.5 q-80.5 -31.5 -174.5 -31.5 q-76 0 -135 20.5 q-59 20.5 -94.5 56 q-35.5 35.5 -58 82 q-22.5 46.5 -24 98.5 q-1.5 52 6.5 106 Z" /><glyph glyph-name="Iogonek" unicode="&#x12e;" d="M332 1413 l286 0 l-274 -1413 l-2 0 q-129 -46 -204 -101.5 q-75 -55.5 -75 -105.5 q0 -47 78 -47 q78 0 144 27 l-37 -193 q-90 -33 -205 -33 q-101 0 -161 38.5 q-60 38.5 -60 119.5 q0 169 235 295 l275 1413 Z" /><glyph glyph-name="iogonek" unicode="&#x12f;" d="M403 1243 q-54 0 -88 33 q-34 33 -34 86 q0 68 55 121 q55 53 125 53 q53 0 87 -33.5 q34 -33.5 34 -83.5 q0 -69 -55 -122.5 q-55 -53.5 -124 -53.5 ZM-190 -307 q0 87 56.5 168.5 q56.5 81.5 160.5 148.5 l202 1043 l273 0 l-205 -1053 q-129 -49 -197.5 -108.5 q-68.5 -59.5 -68.5 -118.5 q0 -60 75 -60 q63 0 134 31 l-39 -201 q-83 -26 -183 -26 q-92 0 -150 45.5 q-58 45.5 -58 130.5 Z" /><glyph glyph-name="Idotaccent" unicode="&#x130;" d="M332 1413 l286 0 l-274 -1413 l-287 0 l275 1413 ZM389 1722 q0 68 55 121 q55 53 125 53 q53 0 87 -33 q34 -33 34 -83 q0 -69 -54.5 -122.5 q-54.5 -53.5 -123.5 -53.5 q-54 0 -88.5 33 q-34.5 33 -34.5 85 Z" /><glyph glyph-name="dotlessi" unicode="&#x131;" d="M25 0 l204 1053 l273 0 l-205 -1053 l-272 0 Z" /><glyph glyph-name="IJ" unicode="&#x132;" d="M784 -31 q-157 3 -288 56 l53 288 q115 -67 260 -67 q140 0 219.5 83.5 q79.5 83.5 114.5 266.5 l157 817 l287 0 l-170 -874 q-29 -151 -88 -262.5 q-59 -111.5 -142.5 -178.5 q-83.5 -67 -183 -98.5 q-99.5 -31.5 -219.5 -30.5 ZM57 0 l275 1413 l286 0 l-274 -1413 l-287 0 Z" /><glyph glyph-name="ij" unicode="&#x133;" d="M45 0 l205 1053 l274 0 l-205 -1053 l-274 0 ZM285 1335 q0 74 53.5 128.5 q53.5 54.5 138.5 54.5 q59 0 96 -36 q37 -36 37 -93 q0 -74 -55 -130.5 q-55 -56.5 -139 -56.5 q-58 0 -94.5 37 q-36.5 37 -36.5 96 ZM375 -362 l47 241 q18 -4 49 -4 q63 0 97 38 q34 38 48 114 l199 1026 l272 0 l-196 -1012 q-42 -213 -140 -311.5 q-98 -98.5 -280 -98.5 q-35 0 -96 7 ZM852 1339 q0 73 58.5 130 q58.5 57 133.5 57 q57 0 94.5 -36.5 q37.5 -36.5 37.5 -90.5 q0 -72 -59.5 -129.5 q-59.5 -57.5 -133.5 -57.5 q-58 0 -94.5 35.5 q-36.5 35.5 -36.5 91.5 Z" /><glyph glyph-name="Jcircumflex" unicode="&#x134;" d="M565 604 l158 809 l287 0 l-164 -835 q-33 -166 -87.5 -284 q-54.5 -118 -130.5 -189 q-76 -71 -168.5 -103.5 q-92.5 -32.5 -209.5 -32.5 q-196 0 -313 66 l57 293 q64 -43 121.5 -62.5 q57.5 -19.5 126.5 -19.5 q130 0 209 87.5 q79 87.5 114 270.5 ZM475 1528 l354 332 l244 0 l232 -332 l-234 0 l-139 162 l-203 -162 l-254 0 Z" /><glyph glyph-name="jcircumflex" unicode="&#x135;" d="M-150 -121 q18 -4 50 -4 q63 0 97 38 q34 38 48 114 l199 1026 l272 0 l-197 -1012 q-42 -213 -140 -311.5 q-98 -98.5 -279 -98.5 q-36 0 -97 7 l47 241 ZM-4 1196 l364 379 l234 0 l219 -379 l-229 0 l-131 188 l-207 -188 l-250 0 Z" /><glyph glyph-name="uni0136" unicode="&#x136;" d="M332 1413 l286 0 l-126 -655 l647 655 l391 0 l-717 -692 l469 -721 l-330 0 l-469 713 l-139 -713 l-287 0 l275 1413 ZM274 -586 l195 451 l266 0 l-286 -451 l-175 0 Z" /><glyph glyph-name="uni0137" unicode="&#x137;" d="M725 0 l-305 526 l-103 -526 l-272 0 l291 1495 l272 0 l-174 -899 l471 457 l348 0 l-532 -510 l307 -543 l-303 0 ZM180 -524 l195 389 l248 0 l-279 -389 l-164 0 Z" /><glyph glyph-name="kgreenlandic" unicode="&#x138;" d="M250 1053 l274 0 l-88 -455 l469 455 l348 0 l-532 -510 l307 -543 l-303 0 l-303 522 l-103 -522 l-274 0 l205 1053 Z" /><glyph glyph-name="Lacute" unicode="&#x139;" d="M57 0 l275 1413 l286 0 l-223 -1145 l731 0 l-51 -268 l-1018 0 ZM365 1534 l260 264 l342 0 l-324 -264 l-278 0 Z" /><glyph glyph-name="lacute" unicode="&#x13a;" d="M336 1495 l272 0 l-291 -1495 l-272 0 l291 1495 ZM358 1706 l260 264 l343 0 l-324 -264 l-279 0 Z" /><glyph glyph-name="uni013B" unicode="&#x13b;" d="M57 0 l275 1413 l286 0 l-223 -1145 l731 0 l-51 -268 l-1018 0 ZM274 -586 l195 451 l266 0 l-286 -451 l-175 0 Z" /><glyph glyph-name="uni013C" unicode="&#x13c;" d="M336 1495 l272 0 l-291 -1495 l-272 0 l291 1495 ZM-150 -524 l195 389 l248 0 l-279 -389 l-164 0 Z" /><glyph glyph-name="Lcaron" unicode="&#x13d;" d="M57 0 l275 1413 l286 0 l-223 -1145 l731 0 l-51 -268 l-1018 0 ZM850 944 l199 535 l256 0 l-252 -535 l-203 0 Z" /><glyph glyph-name="lcaron" unicode="&#x13e;" d="M336 1495 l272 0 l-291 -1495 l-272 0 l291 1495 ZM182 2093 l230 0 l131 -188 l207 188 l249 0 l-364 -379 l-234 0 l-219 379 Z" /><glyph glyph-name="Ldot" unicode="&#x13f;" d="M57 0 l275 1413 l286 0 l-223 -1145 l731 0 l-51 -268 l-1018 0 ZM795 854 q0 80 64 144.5 q64 64.5 157 64.5 q67 0 107 -43 q40 -43 40 -113 q0 -81 -62.5 -145 q-62.5 -64 -156.5 -64 q-64 0 -106.5 44 q-42.5 44 -42.5 112 Z" /><glyph glyph-name="ldot" unicode="&#x140;" d="M336 1495 l272 0 l-291 -1495 l-272 0 l291 1495 ZM608 735 q0 80 64 144.5 q64 64.5 157 64.5 q67 0 107.5 -43 q40.5 -43 40.5 -113 q0 -80 -62.5 -144 q-62.5 -64 -156.5 -64 q-65 0 -107.5 44 q-42.5 44 -42.5 111 Z" /><glyph glyph-name="Lslash" unicode="&#x141;" d="M1008 811 l-457 -72 l-92 -471 l731 0 l-51 -268 l-1018 0 l135 692 l-221 -35 l45 228 l219 35 l96 493 l287 0 l-86 -446 l455 71 l-43 -227 Z" /><glyph glyph-name="lslash" unicode="&#x142;" d="M733 895 l-192 -78 l-160 -817 l-272 0 l135 696 l-168 -67 l45 229 l168 68 l110 569 l273 0 l-88 -451 l194 78 l-45 -227 Z" /><glyph glyph-name="Nacute" unicode="&#x143;" d="M989 0 l-448 1049 l-203 -1049 l-281 0 l275 1413 l356 0 l422 -985 l193 985 l278 0 l-274 -1413 l-318 0 ZM854 1534 l260 264 l342 0 l-323 -264 l-279 0 Z" /><glyph glyph-name="nacute" unicode="&#x144;" d="M250 1053 l274 0 l-24 -131 q150 163 338 163 q72 0 131.5 -29.5 q59.5 -29.5 103 -90.5 q43.5 -61 55 -156 q11.5 -95 -11.5 -225 l-112 -584 l-275 0 l109 561 q55 281 -140 281 q-96 0 -167 -71.5 q-71 -71.5 -103 -209.5 l-109 -561 l-274 0 l205 1053 ZM641 1229 l186 383 l293 0 l-250 -383 l-229 0 Z" /><glyph glyph-name="uni0145" unicode="&#x145;" d="M989 0 l-448 1049 l-203 -1049 l-281 0 l275 1413 l356 0 l422 -985 l193 985 l278 0 l-274 -1413 l-318 0 ZM369 -586 l194 451 l266 0 l-286 -451 l-174 0 Z" /><glyph glyph-name="uni0146" unicode="&#x146;" d="M250 1053 l274 0 l-24 -131 q150 163 338 163 q72 0 131.5 -29.5 q59.5 -29.5 103 -90.5 q43.5 -61 55 -156 q11.5 -95 -11.5 -225 l-112 -584 l-275 0 l109 561 q55 281 -140 281 q-96 0 -167 -71.5 q-71 -71.5 -103 -209.5 l-109 -561 l-274 0 l205 1053 ZM211 -524 l195 389 l247 0 l-278 -389 l-164 0 Z" /><glyph glyph-name="Ncaron" unicode="&#x147;" d="M989 0 l-448 1049 l-203 -1049 l-281 0 l275 1413 l356 0 l422 -985 l193 985 l278 0 l-274 -1413 l-318 0 ZM676 1860 l233 0 l140 -162 l202 162 l254 0 l-354 -332 l-244 0 l-231 332 Z" /><glyph glyph-name="ncaron" unicode="&#x148;" d="M250 1053 l274 0 l-24 -131 q150 163 338 163 q72 0 131.5 -29.5 q59.5 -29.5 103 -90.5 q43.5 -61 55 -156 q11.5 -95 -11.5 -225 l-112 -584 l-275 0 l109 561 q55 281 -140 281 q-96 0 -167 -71.5 q-71 -71.5 -103 -209.5 l-109 -561 l-274 0 l205 1053 ZM412 1561 l229 0 l131 -189 l207 189 l250 0 l-365 -379 l-233 0 l-219 379 Z" /><glyph glyph-name="Eng" unicode="&#x14a;" d="M518 -66 q94 -59 232 -59 q169 0 256 125 l-474 993 l-192 -993 l-283 0 l275 1413 l350 0 l457 -962 l186 962 l283 0 l-226 -1159 q-31 -159 -96 -282 q-65 -123 -154.5 -200 q-89.5 -77 -196.5 -116 q-107 -39 -228 -39 q-145 0 -246 39 l57 278 Z" /><glyph glyph-name="eng" unicode="&#x14b;" d="M705 -367 q-145 0 -232 66 l123 211 q43 -55 113 -55 q59 0 95.5 35.5 q36.5 35.5 53.5 119.5 l121 619 q24 121 -12.5 174 q-36.5 53 -130.5 53 q-102 0 -184.5 -70.5 q-82.5 -70.5 -110.5 -207.5 l-113 -578 l-274 0 l204 1053 l275 0 l-31 -160 q67 92 164 142 q97 50 205 50 q60 0 110 -13 q50 -13 93.5 -42 q43.5 -29 67.5 -76 q24 -47 32.5 -115 q8.5 -68 -10.5 -159 l-125 -637 q-22 -112 -67 -194.5 q-45 -82.5 -105.5 -128 q-60.5 -45.5 -125 -66.5 q-64.5 -21 -136.5 -21 Z" /><glyph glyph-name="Omacron" unicode="&#x14c;" d="M702 -31 q-275 0 -447.5 171.5 q-172.5 171.5 -172.5 445.5 q0 169 68 325 q68 156 186 274 q118 118 288.5 188.5 q170.5 70.5 364.5 70.5 q134 0 249 -46.5 q115 -46.5 196.5 -127.5 q81.5 -81 127.5 -195.5 q46 -114.5 46 -247.5 q0 -169 -65.5 -325 q-65.5 -156 -181.5 -274 q-116 -118 -287.5 -188.5 q-171.5 -70.5 -371.5 -70.5 ZM379 614 q0 -165 98.5 -265.5 q98.5 -100.5 278.5 -100.5 q143 0 271.5 77 q128.5 77 206 204.5 q77.5 127.5 77.5 269.5 q0 161 -99 263.5 q-99 102.5 -278 102.5 q-144 0 -272.5 -77 q-128.5 -77 -205.5 -204.5 q-77 -127.5 -77 -269.5 ZM633 1563 l43 221 l756 0 l-43 -221 l-756 0 Z" /><glyph glyph-name="omacron" unicode="&#x14d;" d="M522 -31 q-209 0 -340 132.5 q-131 132.5 -131 340.5 q0 124 49.5 240 q49.5 116 137 205 q87.5 89 218.5 142.5 q131 53.5 283 53.5 q205 0 336 -132 q131 -132 131 -335 q0 -100 -30.5 -195.5 q-30.5 -95.5 -90 -177 q-59.5 -81.5 -141 -143 q-81.5 -61.5 -190.5 -96.5 q-109 -35 -232 -35 ZM328 469 q0 -107 64 -172.5 q64 -65.5 179 -65.5 q138 0 248.5 108.5 q110.5 108.5 110.5 244.5 q0 105 -65.5 170 q-65.5 65 -178.5 65 q-139 0 -248.5 -107.5 q-109.5 -107.5 -109.5 -242.5 ZM387 1298 l43 222 l756 0 l-43 -222 l-756 0 Z" /><glyph glyph-name="Obreve" unicode="&#x14e;" d="M379 614 q0 -165 98.5 -265.5 q98.5 -100.5 278.5 -100.5 q143 0 271.5 77 q128.5 77 206 204.5 q77.5 127.5 77.5 269.5 q0 161 -99 263.5 q-99 102.5 -278 102.5 q-144 0 -272.5 -77 q-128.5 -77 -205.5 -204.5 q-77 -127.5 -77 -269.5 ZM702 -31 q-275 0 -447.5 171.5 q-172.5 171.5 -172.5 445.5 q0 169 68 325 q68 156 186 274 q118 118 288.5 188.5 q170.5 70.5 364.5 70.5 q134 0 249 -46.5 q115 -46.5 196.5 -127.5 q81.5 -81 127.5 -195.5 q46 -114.5 46 -247.5 q0 -169 -65.5 -325 q-65.5 -156 -181.5 -274 q-116 -118 -287.5 -188.5 q-171.5 -70.5 -371.5 -70.5 ZM700 1882 l213 0 q-14 -72 20 -118 q34 -46 109 -46 q76 0 129.5 46 q53.5 46 67.5 118 l215 0 q-12 -64 -47 -125 q-35 -61 -89.5 -113 q-54.5 -52 -136 -84 q-81.5 -32 -175.5 -32 q-62 0 -113.5 15 q-51.5 15 -86.5 40.5 q-35 25.5 -61 60 q-26 34.5 -36.5 74 q-10.5 39.5 -14.5 81.5 q-4 42 6 83 Z" /><glyph glyph-name="obreve" unicode="&#x14f;" d="M328 469 q0 -107 64 -172.5 q64 -65.5 179 -65.5 q138 0 248.5 108.5 q110.5 108.5 110.5 244.5 q0 105 -65.5 170 q-65.5 65 -178.5 65 q-139 0 -248.5 -107.5 q-109.5 -107.5 -109.5 -242.5 ZM522 -31 q-209 0 -340 132.5 q-131 132.5 -131 340.5 q0 124 49.5 240 q49.5 116 137 205 q87.5 89 218.5 142.5 q131 53.5 283 53.5 q205 0 336 -132 q131 -132 131 -335 q0 -100 -30.5 -195.5 q-30.5 -95.5 -90 -177 q-59.5 -81.5 -141 -143 q-81.5 -61.5 -190.5 -96.5 q-109 -35 -232 -35 ZM451 1602 l217 0 q-17 -89 15.5 -137 q32.5 -48 107.5 -48 q75 0 126 48.5 q51 48.5 68 136.5 l219 0 q-14 -69 -49 -132 q-35 -63 -90 -115.5 q-55 -52.5 -135 -84 q-80 -31.5 -174 -31.5 q-76 0 -135 20.5 q-59 20.5 -94.5 56 q-35.5 35.5 -58 82 q-22.5 46.5 -24 98.5 q-1.5 52 6.5 106 Z" /><glyph glyph-name="Ohungarumlaut" unicode="&#x150;" d="M702 -31 q-275 0 -447.5 171.5 q-172.5 171.5 -172.5 445.5 q0 169 68 325 q68 156 186 274 q118 118 288.5 188.5 q170.5 70.5 364.5 70.5 q134 0 249 -46.5 q115 -46.5 196.5 -127.5 q81.5 -81 127.5 -195.5 q46 -114.5 46 -247.5 q0 -169 -65.5 -325 q-65.5 -156 -181.5 -274 q-116 -118 -287.5 -188.5 q-171.5 -70.5 -371.5 -70.5 ZM379 614 q0 -165 98.5 -265.5 q98.5 -100.5 278.5 -100.5 q143 0 271.5 77 q128.5 77 206 204.5 q77.5 127.5 77.5 269.5 q0 161 -99 263.5 q-99 102.5 -278 102.5 q-144 0 -272.5 -77 q-128.5 -77 -205.5 -204.5 q-77 -127.5 -77 -269.5 ZM623 1487 l258 272 l309 0 l-309 -272 l-258 0 ZM1042 1487 l312 272 l338 0 l-379 -272 l-271 0 Z" /><glyph glyph-name="ohungarumlaut" unicode="&#x151;" d="M522 -31 q-209 0 -340 132.5 q-131 132.5 -131 340.5 q0 124 49.5 240 q49.5 116 137 205 q87.5 89 218.5 142.5 q131 53.5 283 53.5 q205 0 336 -132 q131 -132 131 -335 q0 -100 -30.5 -195.5 q-30.5 -95.5 -90 -177 q-59.5 -81.5 -141 -143 q-81.5 -61.5 -190.5 -96.5 q-109 -35 -232 -35 ZM328 469 q0 -107 64 -172.5 q64 -65.5 179 -65.5 q138 0 248.5 108.5 q110.5 108.5 110.5 244.5 q0 105 -65.5 170 q-65.5 65 -178.5 65 q-139 0 -248.5 -107.5 q-109.5 -107.5 -109.5 -242.5 ZM444 1229 l228 383 l289 0 l-289 -383 l-228 0 ZM827 1229 l312 383 l288 0 l-372 -383 l-228 0 Z" /><glyph glyph-name="OE" unicode="&#x152;" d="M381 614 q0 -157 107 -252.5 q107 -95.5 294 -95.5 l154 0 l172 881 l-156 0 q-155 0 -286.5 -71 q-131.5 -71 -208 -194 q-76.5 -123 -76.5 -268 ZM1874 0 l-1110 0 q-308 0 -495 162.5 q-187 162.5 -187 429.5 q0 130 43 252.5 q43 122.5 125.5 225 q82.5 102.5 193 180 q110.5 77.5 253.5 120.5 q143 43 300 43 l1151 0 l-51 -266 l-704 0 l-60 -303 l611 0 l-43 -230 l-613 0 l-67 -348 l706 0 l-53 -266 Z" /><glyph glyph-name="oe" unicode="&#x153;" d="M328 469 q0 -107 64 -172.5 q64 -65.5 179 -65.5 q138 0 248.5 108.5 q110.5 108.5 110.5 244.5 q0 105 -65.5 170 q-65.5 65 -178.5 65 q-139 0 -248.5 -107.5 q-109.5 -107.5 -109.5 -242.5 ZM1247 643 l520 0 q-13 83 -68.5 132.5 q-55.5 49.5 -148.5 49.5 q-95 0 -175.5 -49.5 q-80.5 -49.5 -127.5 -132.5 ZM522 -31 q-209 0 -340 132.5 q-131 132.5 -131 340.5 q0 124 49.5 240 q49.5 116 137 205 q87.5 89 218.5 142.5 q131 53.5 283 53.5 q121 0 218.5 -48 q97.5 -48 160.5 -134 q95 89 221 136 q126 47 267 46 q155 -1 261.5 -79.5 q106.5 -78.5 147.5 -219 q41 -140.5 10 -319.5 l-825 -4 q2 -101 66 -165.5 q64 -64.5 178 -64.5 q91 0 154.5 28 q63.5 28 109.5 93 l277 0 q-72 -187 -224.5 -285 q-152.5 -98 -367.5 -98 q-121 0 -221.5 48 q-100.5 48 -163.5 137 q-192 -185 -486 -185 Z" /><glyph glyph-name="Racute" unicode="&#x154;" d="M567 1145 l-71 -361 l315 0 q103 0 174.5 60.5 q71.5 60.5 71.5 148.5 q0 67 -47 109.5 q-47 42.5 -125 42.5 l-318 0 ZM344 0 l-287 0 l275 1413 l614 0 q192 0 303 -108.5 q111 -108.5 111 -298.5 q0 -180 -122.5 -308.5 q-122.5 -128.5 -332.5 -160.5 l373 -537 l-338 0 l-365 526 l-129 0 l-102 -526 ZM973 1798 l342 0 l-324 -264 l-278 0 l260 264 Z" /><glyph glyph-name="racute" unicode="&#x155;" d="M250 1053 l262 0 l-39 -199 q62 106 160.5 164 q98.5 58 228.5 51 l-53 -281 q-173 15 -268.5 -67.5 q-95.5 -82.5 -128.5 -257.5 l0 2 l-90 -465 l-277 0 l205 1053 ZM483 1229 l187 383 l293 0 l-250 -383 l-230 0 Z" /><glyph glyph-name="uni0156" unicode="&#x156;" d="M567 1145 l-71 -361 l315 0 q103 0 174.5 60.5 q71.5 60.5 71.5 148.5 q0 67 -47 109.5 q-47 42.5 -125 42.5 l-318 0 ZM344 0 l-287 0 l275 1413 l614 0 q192 0 303 -108.5 q111 -108.5 111 -298.5 q0 -180 -122.5 -308.5 q-122.5 -128.5 -332.5 -160.5 l373 -537 l-338 0 l-365 526 l-129 0 l-102 -526 ZM242 -586 l194 451 l266 0 l-286 -451 l-174 0 Z" /><glyph glyph-name="uni0157" unicode="&#x157;" d="M250 1053 l262 0 l-39 -199 q62 106 160.5 164 q98.5 58 228.5 51 l-53 -281 q-173 15 -268.5 -67.5 q-95.5 -82.5 -128.5 -257.5 l0 2 l-90 -465 l-277 0 l205 1053 ZM-139 -524 l194 389 l248 0 l-278 -389 l-164 0 Z" /><glyph glyph-name="Rcaron" unicode="&#x158;" d="M567 1145 l-71 -361 l315 0 q103 0 174.5 60.5 q71.5 60.5 71.5 148.5 q0 67 -47 109.5 q-47 42.5 -125 42.5 l-318 0 ZM344 0 l-287 0 l275 1413 l614 0 q192 0 303 -108.5 q111 -108.5 111 -298.5 q0 -180 -122.5 -308.5 q-122.5 -128.5 -332.5 -160.5 l373 -537 l-338 0 l-365 526 l-129 0 l-102 -526 ZM766 1528 l-231 332 l233 0 l139 -162 l203 162 l254 0 l-354 -332 l-244 0 Z" /><glyph glyph-name="rcaron" unicode="&#x159;" d="M250 1053 l262 0 l-39 -199 q62 106 160.5 164 q98.5 58 228.5 51 l-53 -281 q-173 15 -268.5 -67.5 q-95.5 -82.5 -128.5 -257.5 l0 2 l-90 -465 l-277 0 l205 1053 ZM254 1561 l229 0 l131 -189 l207 189 l250 0 l-364 -379 l-234 0 l-219 379 Z" /><glyph glyph-name="Sacute" unicode="&#x15a;" d="M541 -31 q-220 0 -350.5 124.5 q-130.5 124.5 -127.5 338.5 l281 0 q6 -219 219 -219 q115 0 186.5 53.5 q71.5 53.5 71.5 134.5 q0 79 -60.5 125 q-60.5 46 -189.5 78 q-188 46 -280 143 q-92 97 -92 252 q0 190 140.5 317.5 q140.5 127.5 375.5 127.5 q212 0 333.5 -107.5 q121.5 -107.5 125.5 -322.5 l-283 0 q-3 91 -56 138.5 q-53 47.5 -145 47.5 q-95 0 -157 -46 q-62 -46 -62 -116 q0 -71 61 -112.5 q61 -41.5 195 -73.5 q369 -91 369 -399 q0 -101 -36.5 -188.5 q-36.5 -87.5 -105.5 -153.5 q-69 -66 -175 -104 q-106 -38 -238 -38 ZM647 1579 l260 264 l342 0 l-323 -264 l-279 0 Z" /><glyph glyph-name="sacute" unicode="&#x15b;" d="M403 -31 q-181 0 -289.5 98 q-108.5 98 -109.5 273 l248 0 q0 -76 44 -113 q44 -37 118 -37 q67 0 109 26.5 q42 26.5 42 72.5 q0 47 -37.5 73 q-37.5 26 -126.5 56 q-65 22 -114.5 48 q-49.5 26 -93.5 65 q-44 39 -67.5 95.5 q-23.5 56.5 -23.5 127.5 q0 145 102 237 q102 92 285 92 q165 0 265 -87 q100 -87 106 -263 l-244 0 q-8 131 -151 131 q-56 0 -88.5 -22.5 q-32.5 -22.5 -32.5 -63.5 q0 -43 41 -71 q41 -28 135 -60 q63 -22 110 -48 q47 -26 89.5 -64.5 q42.5 -38.5 65 -94 q22.5 -55.5 22.5 -125.5 q0 -160 -106.5 -253 q-106.5 -93 -297.5 -93 ZM485 1229 l187 383 l293 0 l-250 -383 l-230 0 Z" /><glyph glyph-name="Scircumflex" unicode="&#x15c;" d="M541 -31 q-220 0 -350.5 124.5 q-130.5 124.5 -127.5 338.5 l281 0 q6 -219 219 -219 q115 0 186.5 53.5 q71.5 53.5 71.5 134.5 q0 79 -60.5 125 q-60.5 46 -189.5 78 q-188 46 -280 143 q-92 97 -92 252 q0 190 140.5 317.5 q140.5 127.5 375.5 127.5 q212 0 333.5 -107.5 q121.5 -107.5 125.5 -322.5 l-283 0 q-3 91 -56 138.5 q-53 47.5 -145 47.5 q-95 0 -157 -46 q-62 -46 -62 -116 q0 -71 61 -112.5 q61 -41.5 195 -73.5 q369 -91 369 -399 q0 -101 -36.5 -188.5 q-36.5 -87.5 -105.5 -153.5 q-69 -66 -175 -104 q-106 -38 -238 -38 ZM395 1573 l355 332 l243 0 l232 -332 l-234 0 l-139 162 l-203 -162 l-254 0 Z" /><glyph glyph-name="scircumflex" unicode="&#x15d;" d="M403 -31 q-181 0 -289.5 98 q-108.5 98 -109.5 273 l248 0 q0 -76 44 -113 q44 -37 118 -37 q67 0 109 26.5 q42 26.5 42 72.5 q0 47 -37.5 73 q-37.5 26 -126.5 56 q-65 22 -114.5 48 q-49.5 26 -93.5 65 q-44 39 -67.5 95.5 q-23.5 56.5 -23.5 127.5 q0 145 102 237 q102 92 285 92 q165 0 265 -87 q100 -87 106 -263 l-244 0 q-8 131 -151 131 q-56 0 -88.5 -22.5 q-32.5 -22.5 -32.5 -63.5 q0 -43 41 -71 q41 -28 135 -60 q63 -22 110 -48 q47 -26 89.5 -64.5 q42.5 -38.5 65 -94 q22.5 -55.5 22.5 -125.5 q0 -160 -106.5 -253 q-106.5 -93 -297.5 -93 ZM190 1196 l365 379 l233 0 l220 -379 l-230 0 l-131 188 l-207 -188 l-250 0 Z" /><glyph glyph-name="Scedilla" unicode="&#x15e;" d="M63 432 l281 0 q6 -219 219 -219 q115 0 186.5 53.5 q71.5 53.5 71.5 134.5 q0 79 -60.5 125 q-60.5 46 -189.5 78 q-188 46 -280 143 q-92 97 -92 252 q0 190 140.5 317.5 q140.5 127.5 375.5 127.5 q212 0 333.5 -107.5 q121.5 -107.5 125.5 -322.5 l-283 0 q-3 91 -56 138.5 q-53 47.5 -145 47.5 q-95 0 -157 -46 q-62 -46 -62 -116 q0 -71 61 -112.5 q61 -41.5 195 -73.5 q369 -91 369 -399 q0 -130 -57 -234.5 q-57 -104.5 -173.5 -171.5 q-116.5 -67 -275.5 -76 l-66 -75 q31 8 68 8 q71 0 121.5 -42.5 q50.5 -42.5 50.5 -129.5 q0 -116 -94 -185 q-94 -69 -236 -69 q-160 0 -258 55 l35 176 q36 -24 98 -42.5 q62 -18.5 131 -18.5 q60 0 94.5 19.5 q34.5 19.5 34.5 53.5 q0 54 -84 54 q-79 0 -151 -35 l-45 96 l125 146 q-166 34 -260 152.5 q-94 118.5 -91 297.5 Z" /><glyph glyph-name="scedilla" unicode="&#x15f;" d="M4 340 l248 0 q0 -76 44 -113 q44 -37 118 -37 q67 0 109 26.5 q42 26.5 42 72.5 q0 47 -37.5 73 q-37.5 26 -126.5 56 q-65 22 -114.5 48 q-49.5 26 -93.5 65 q-44 39 -67.5 95.5 q-23.5 56.5 -23.5 127.5 q0 145 102 237 q102 92 285 92 q165 0 265 -87 q100 -87 106 -263 l-244 0 q-8 131 -151 131 q-56 0 -88.5 -22.5 q-32.5 -22.5 -32.5 -63.5 q0 -43 41 -71 q41 -28 135 -60 q63 -22 110 -48 q47 -26 89.5 -64.5 q42.5 -38.5 65 -94 q22.5 -55.5 22.5 -125.5 q0 -156 -100.5 -249 q-100.5 -93 -284.5 -97 l-35 -69 q33 8 72 8 q71 0 121.5 -45 q50.5 -45 50.5 -125 q0 -110 -84 -166.5 q-84 -56.5 -215 -56.5 q-164 0 -250 57 l37 174 q31 -26 83 -43.5 q52 -17.5 107 -17.5 q41 0 63.5 15 q22.5 15 22.5 40 q0 24 -13 33.5 q-13 9.5 -40 9.5 q-60 0 -127 -27 l0 88 l70 138 q-130 30 -205 122 q-75 92 -76 236 Z" /><glyph glyph-name="Scaron" unicode="&#x160;" d="M541 -31 q-220 0 -350.5 124.5 q-130.5 124.5 -127.5 338.5 l281 0 q6 -219 219 -219 q115 0 186.5 53.5 q71.5 53.5 71.5 134.5 q0 79 -60.5 125 q-60.5 46 -189.5 78 q-188 46 -280 143 q-92 97 -92 252 q0 190 140.5 317.5 q140.5 127.5 375.5 127.5 q212 0 333.5 -107.5 q121.5 -107.5 125.5 -322.5 l-283 0 q-3 91 -56 138.5 q-53 47.5 -145 47.5 q-95 0 -157 -46 q-62 -46 -62 -116 q0 -71 61 -112.5 q61 -41.5 195 -73.5 q369 -91 369 -399 q0 -101 -36.5 -188.5 q-36.5 -87.5 -105.5 -153.5 q-69 -66 -175 -104 q-106 -38 -238 -38 ZM469 1905 l233 0 l140 -162 l202 162 l254 0 l-354 -332 l-244 0 l-231 332 Z" /><glyph glyph-name="scaron" unicode="&#x161;" d="M403 -31 q-181 0 -289.5 98 q-108.5 98 -109.5 273 l248 0 q0 -76 44 -113 q44 -37 118 -37 q67 0 109 26.5 q42 26.5 42 72.5 q0 47 -37.5 73 q-37.5 26 -126.5 56 q-65 22 -114.5 48 q-49.5 26 -93.5 65 q-44 39 -67.5 95.5 q-23.5 56.5 -23.5 127.5 q0 145 102 237 q102 92 285 92 q165 0 265 -87 q100 -87 106 -263 l-244 0 q-8 131 -151 131 q-56 0 -88.5 -22.5 q-32.5 -22.5 -32.5 -63.5 q0 -43 41 -71 q41 -28 135 -60 q63 -22 110 -48 q47 -26 89.5 -64.5 q42.5 -38.5 65 -94 q22.5 -55.5 22.5 -125.5 q0 -160 -106.5 -253 q-106.5 -93 -297.5 -93 ZM256 1561 l229 0 l131 -189 l207 189 l250 0 l-364 -379 l-234 0 l-219 379 Z" /><glyph glyph-name="uni0162" unicode="&#x162;" d="M1354 1145 l-449 0 l-223 -1145 l-47 0 l-90 -104 q31 8 67 8 q71 0 121.5 -42.5 q50.5 -42.5 50.5 -129.5 q0 -116 -93.5 -185 q-93.5 -69 -235.5 -69 q-160 0 -258 55 l34 176 q36 -24 98.5 -42.5 q62.5 -18.5 131.5 -18.5 q60 0 94.5 19.5 q34.5 19.5 34.5 53.5 q0 54 -84 54 q-80 0 -152 -35 l-45 96 l140 164 l-54 0 l223 1145 l-448 0 l51 268 l1184 0 l-51 -268 Z" /><glyph glyph-name="uni0163" unicode="&#x163;" d="M719 -6 q-128 -20 -227 -14 l-41 -80 q33 8 71 8 q71 0 121.5 -45 q50.5 -45 50.5 -125 q0 -110 -84 -166.5 q-84 -56.5 -215 -56.5 q-164 0 -250 57 l37 174 q31 -26 83.5 -43.5 q52.5 -17.5 107.5 -17.5 q41 0 63.5 15 q22.5 15 22.5 40 q0 24 -13 33.5 q-13 9.5 -40 9.5 q-59 0 -127 -27 l0 88 l79 158 q-252 82 -180 465 l68 352 l-176 0 l45 234 l176 0 l63 327 l269 0 l-64 -327 l330 0 l-45 -234 l-330 0 l-61 -313 q-19 -96 -20.5 -159.5 q-1.5 -63.5 36 -94.5 q37.5 -31 125.5 -31 q73 0 172 17 l-47 -244 Z" /><glyph glyph-name="Tcaron" unicode="&#x164;" d="M1354 1145 l-449 0 l-223 -1145 l-287 0 l223 1145 l-448 0 l51 268 l1184 0 l-51 -268 ZM496 1860 l233 0 l139 -162 l203 162 l254 0 l-354 -332 l-244 0 l-231 332 Z" /><glyph glyph-name="tcaron" unicode="&#x165;" d="M719 -6 q-119 -17 -184 -17 q-121 0 -202.5 34 q-81.5 34 -120.5 98 q-39 64 -48.5 154.5 q-9.5 90.5 14.5 203.5 l68 352 l-176 0 l45 234 l176 0 l63 327 l269 0 l-64 -327 l330 0 l-45 -234 l-330 0 l-61 -313 q-19 -96 -20.5 -159.5 q-1.5 -63.5 36 -94.5 q37.5 -31 125.5 -31 q73 0 172 17 l-47 -244 ZM752 1188 l198 534 l256 0 l-252 -534 l-202 0 Z" /><glyph glyph-name="Tbar" unicode="&#x166;" d="M1354 1145 l-449 0 l-76 -391 l330 0 l-55 -256 l-326 0 l-96 -498 l-287 0 l97 498 l-316 0 l55 256 l312 0 l75 391 l-448 0 l51 268 l1184 0 l-51 -268 Z" /><glyph glyph-name="tbar" unicode="&#x167;" d="M719 -6 q-119 -17 -184 -17 q-121 0 -202.5 34 q-81.5 34 -120.5 98 q-39 64 -48.5 154.5 q-9.5 90.5 14.5 203.5 l2 8 l-145 0 l45 180 l135 0 l31 164 l-176 0 l45 234 l176 0 l63 327 l269 0 l-64 -327 l330 0 l-45 -234 l-330 0 l-33 -164 l373 0 l-45 -180 l-363 0 q-16 -86 -13.5 -142.5 q2.5 -56.5 40.5 -84 q38 -27.5 121 -27.5 q73 0 172 17 l-47 -244 Z" /><glyph glyph-name="Utilde" unicode="&#x168;" d="M649 -31 q-184 0 -308.5 91.5 q-124.5 91.5 -171.5 264 q-47 172.5 -3 400.5 l133 688 l287 0 l-142 -729 q-43 -225 24.5 -330.5 q67.5 -105.5 225.5 -105.5 q150 0 264 107.5 q114 107.5 156 328.5 l141 729 l287 0 l-141 -729 q-71 -370 -255 -542.5 q-184 -172.5 -497 -172.5 ZM584 1544 l41 221 q94 62 206 62 q55 0 102.5 -13.5 q47.5 -13.5 75.5 -30.5 q28 -17 68 -30.5 q40 -13.5 82 -13.5 q91 0 203 73 l-41 -225 q-98 -59 -215 -59 q-53 0 -100.5 14 q-47.5 14 -76.5 30 q-29 16 -68 30 q-39 14 -77 14 q-89 0 -200 -72 Z" /><glyph glyph-name="utilde" unicode="&#x169;" d="M963 0 l-275 0 l23 119 q-66 -72 -151 -111 q-85 -39 -173 -39 q-59 0 -109.5 18.5 q-50.5 18.5 -92 58 q-41.5 39.5 -64.5 101 q-23 61.5 -27.5 147.5 q-4.5 86 17.5 198 l108 561 l273 0 l-109 -559 q-56 -281 133 -281 q87 0 161.5 66 q74.5 66 100.5 186 l115 588 l274 0 l-204 -1053 ZM389 1321 l45 227 q73 45 168 45 q60 0 114 -16.5 q54 -16.5 88 -36.5 q34 -20 82 -36.5 q48 -16.5 97 -16.5 q84 0 164 51 l-43 -225 q-73 -39 -162 -39 q-56 0 -110 17 q-54 17 -89.5 37 q-35.5 20 -85 37 q-49.5 17 -98.5 17 q-93 0 -170 -61 Z" /><glyph glyph-name="Umacron" unicode="&#x16a;" d="M649 -31 q-184 0 -308.5 91.5 q-124.5 91.5 -171.5 264 q-47 172.5 -3 400.5 l133 688 l287 0 l-142 -729 q-43 -225 24.5 -330.5 q67.5 -105.5 225.5 -105.5 q150 0 264 107.5 q114 107.5 156 328.5 l141 729 l287 0 l-141 -729 q-71 -370 -255 -542.5 q-184 -172.5 -497 -172.5 ZM569 1563 l43 221 l756 0 l-43 -221 l-756 0 Z" /><glyph glyph-name="umacron" unicode="&#x16b;" d="M963 0 l-275 0 l23 119 q-66 -72 -151 -111 q-85 -39 -173 -39 q-59 0 -109.5 18.5 q-50.5 18.5 -92 58 q-41.5 39.5 -64.5 101 q-23 61.5 -27.5 147.5 q-4.5 86 17.5 198 l108 561 l273 0 l-109 -559 q-56 -281 133 -281 q87 0 161.5 66 q74.5 66 100.5 186 l115 588 l274 0 l-204 -1053 ZM367 1298 l43 222 l755 0 l-43 -222 l-755 0 Z" /><glyph glyph-name="Ubreve" unicode="&#x16c;" d="M649 -31 q-184 0 -308.5 91.5 q-124.5 91.5 -171.5 264 q-47 172.5 -3 400.5 l133 688 l287 0 l-142 -729 q-43 -225 24.5 -330.5 q67.5 -105.5 225.5 -105.5 q150 0 264 107.5 q114 107.5 156 328.5 l141 729 l287 0 l-141 -729 q-71 -370 -255 -542.5 q-184 -172.5 -497 -172.5 ZM637 1882 l213 0 q-14 -72 20 -118 q34 -46 109 -46 q76 0 129.5 46 q53.5 46 67.5 118 l215 0 q-12 -64 -47 -125 q-35 -61 -90 -113 q-55 -52 -136.5 -84 q-81.5 -32 -175.5 -32 q-62 0 -113.5 15 q-51.5 15 -86 40.5 q-34.5 25.5 -60.5 60 q-26 34.5 -36.5 74 q-10.5 39.5 -14.5 81.5 q-4 42 6 83 Z" /><glyph glyph-name="ubreve" unicode="&#x16d;" d="M963 0 l-275 0 l23 119 q-66 -72 -151 -111 q-85 -39 -173 -39 q-59 0 -109.5 18.5 q-50.5 18.5 -92 58 q-41.5 39.5 -64.5 101 q-23 61.5 -27.5 147.5 q-4.5 86 17.5 198 l108 561 l273 0 l-109 -559 q-56 -281 133 -281 q87 0 161.5 66 q74.5 66 100.5 186 l115 588 l274 0 l-204 -1053 ZM430 1602 l217 0 q-17 -89 15.5 -137 q32.5 -48 107.5 -48 q75 0 126.5 48.5 q51.5 48.5 68.5 136.5 l219 0 q-14 -69 -49.5 -132.5 q-35.5 -63.5 -90 -115.5 q-54.5 -52 -135 -83.5 q-80.5 -31.5 -174.5 -31.5 q-76 0 -135 20.5 q-59 20.5 -94.5 56 q-35.5 35.5 -58 82 q-22.5 46.5 -24 98.5 q-1.5 52 6.5 106 Z" /><glyph glyph-name="Uring" unicode="&#x16e;" d="M842 1753 q0 -60 32.5 -89.5 q32.5 -29.5 90.5 -29.5 q69 0 122.5 54 q53.5 54 53.5 122 q0 61 -32 90 q-32 29 -89 29 q-69 0 -123.5 -53.5 q-54.5 -53.5 -54.5 -122.5 ZM649 -31 q-184 0 -308.5 91.5 q-124.5 91.5 -171.5 264 q-47 172.5 -3 400.5 l133 688 l287 0 l-142 -729 q-43 -225 24.5 -330.5 q67.5 -105.5 225.5 -105.5 q150 0 264 107.5 q114 107.5 156 328.5 l141 729 l287 0 l-141 -729 q-71 -370 -255 -542.5 q-184 -172.5 -497 -172.5 ZM680 1733 q0 150 107 252 q107 102 266 102 q112 0 182 -74 q70 -74 70 -182 q0 -149 -106.5 -250.5 q-106.5 -101.5 -264.5 -101.5 q-113 0 -183.5 73.5 q-70.5 73.5 -70.5 180.5 Z" /><glyph glyph-name="uring" unicode="&#x16f;" d="M641 1458 q0 -47 31.5 -78.5 q31.5 -31.5 81.5 -31.5 q65 0 115.5 49.5 q50.5 49.5 50.5 113.5 q0 48 -31.5 79.5 q-31.5 31.5 -81.5 31.5 q-64 0 -115 -50.5 q-51 -50.5 -51 -113.5 ZM1167 1053 l-204 -1053 l-275 0 l23 119 q-66 -72 -151 -111 q-85 -39 -173 -39 q-59 0 -109.5 18.5 q-50.5 18.5 -92 58 q-41.5 39.5 -64.5 101 q-23 61.5 -27.5 147.5 q-4.5 86 17.5 198 l108 561 l273 0 l-109 -559 q-56 -281 133 -281 q87 0 161.5 66 q74.5 66 100.5 186 l115 588 l274 0 ZM487 1430 q0 130 107 233.5 q107 103.5 242 103.5 q103 0 169 -65 q66 -65 66 -164 q0 -132 -105.5 -236 q-105.5 -104 -240.5 -104 q-104 0 -171 66 q-67 66 -67 166 Z" /><glyph glyph-name="Uhungarumlaut" unicode="&#x170;" d="M649 -31 q-184 0 -308.5 91.5 q-124.5 91.5 -171.5 264 q-47 172.5 -3 400.5 l133 688 l287 0 l-142 -729 q-43 -225 24.5 -330.5 q67.5 -105.5 225.5 -105.5 q150 0 264 107.5 q114 107.5 156 328.5 l141 729 l287 0 l-141 -729 q-71 -370 -255 -542.5 q-184 -172.5 -497 -172.5 ZM559 1487 l258 272 l309 0 l-309 -272 l-258 0 ZM979 1487 l311 272 l338 0 l-379 -272 l-270 0 Z" /><glyph glyph-name="uhungarumlaut" unicode="&#x171;" d="M963 0 l-275 0 l23 119 q-66 -72 -151 -111 q-85 -39 -173 -39 q-59 0 -109.5 18.5 q-50.5 18.5 -92 58 q-41.5 39.5 -64.5 101 q-23 61.5 -27.5 147.5 q-4.5 86 17.5 198 l108 561 l273 0 l-109 -559 q-56 -281 133 -281 q87 0 161.5 66 q74.5 66 100.5 186 l115 588 l274 0 l-204 -1053 ZM424 1229 l227 383 l289 0 l-289 -383 l-227 0 ZM807 1229 l311 383 l289 0 l-373 -383 l-227 0 Z" /><glyph glyph-name="Uogonek" unicode="&#x172;" d="M166 725 l133 688 l287 0 l-142 -729 q-43 -225 24.5 -330.5 q67.5 -105.5 225.5 -105.5 q150 0 264 107.5 q114 107.5 156 328.5 l141 729 l287 0 l-141 -729 q-63 -323 -209.5 -494 q-146.5 -171 -388.5 -208 q-106 -44 -167 -94.5 q-61 -50.5 -61 -94.5 q0 -47 78 -47 q78 0 144 27 l-37 -193 q-90 -33 -205 -33 q-101 0 -161 38.5 q-60 38.5 -60 119.5 q0 152 198 275 q-223 43 -324 242 q-101 199 -42 503 Z" /><glyph glyph-name="uogonek" unicode="&#x173;" d="M963 0 q-129 -49 -198 -108.5 q-69 -59.5 -69 -118.5 q0 -60 76 -60 q62 0 133 31 l-39 -201 q-83 -26 -182 -26 q-92 0 -150.5 45.5 q-58.5 45.5 -58.5 130.5 q0 86 56 167 q56 81 159 148 l21 111 q-66 -72 -151 -111 q-85 -39 -173 -39 q-59 0 -109.5 18.5 q-50.5 18.5 -92 58 q-41.5 39.5 -64.5 101 q-23 61.5 -27.5 147.5 q-4.5 86 17.5 198 l108 561 l273 0 l-109 -559 q-56 -281 133 -281 q87 0 161.5 66 q74.5 66 100.5 186 l115 588 l274 0 l-204 -1053 Z" /><glyph glyph-name="Wcircumflex" unicode="&#x174;" d="M418 0 l-244 1413 l305 0 l156 -1005 l543 1005 l299 0 l147 -1016 l553 1016 l305 0 l-792 -1413 l-291 0 l-154 1014 l-534 -1014 l-293 0 ZM934 1528 l354 332 l244 0 l231 -332 l-233 0 l-139 162 l-203 -162 l-254 0 Z" /><glyph glyph-name="wcircumflex" unicode="&#x175;" d="M315 0 l-194 1053 l287 0 l106 -715 l397 715 l263 0 l116 -717 l383 717 l307 0 l-604 -1053 l-284 0 l-119 666 l-369 -666 l-289 0 ZM670 1196 l364 379 l234 0 l219 -379 l-230 0 l-131 188 l-206 -188 l-250 0 Z" /><glyph glyph-name="Ycircumflex" unicode="&#x176;" d="M442 0 l119 608 l-381 805 l307 0 l248 -551 l447 551 l354 0 l-698 -838 l-111 -575 l-285 0 ZM469 1528 l354 332 l244 0 l231 -332 l-233 0 l-139 162 l-203 -162 l-254 0 Z" /><glyph glyph-name="ycircumflex" unicode="&#x177;" d="M72 -348 l233 399 l-201 1002 l281 0 l125 -666 l385 666 l305 0 l-823 -1401 l-305 0 ZM266 1196 l365 379 l233 0 l219 -379 l-229 0 l-131 188 l-207 -188 l-250 0 Z" /><glyph glyph-name="Ydieresis" unicode="&#x178;" d="M442 0 l119 608 l-381 805 l307 0 l248 -551 l447 551 l354 0 l-698 -838 l-111 -575 l-285 0 ZM506 1653 q0 67 54.5 120.5 q54.5 53.5 123.5 53.5 q54 0 88.5 -34 q34.5 -34 34.5 -85 q0 -68 -55 -121 q-55 -53 -125 -53 q-53 0 -87 33.5 q-34 33.5 -34 85.5 ZM1016 1651 q0 69 54 122.5 q54 53.5 124 53.5 q53 0 88 -34 q35 -34 35 -85 q0 -67 -55.5 -120.5 q-55.5 -53.5 -124.5 -53.5 q-54 0 -87.5 33 q-33.5 33 -33.5 84 Z" /><glyph glyph-name="Zacute" unicode="&#x179;" d="M12 0 l45 242 l856 903 l-725 0 l52 268 l1101 0 l-47 -248 l-854 -897 l740 0 l-52 -268 l-1116 0 ZM698 1534 l260 264 l342 0 l-323 -264 l-279 0 Z" /><glyph glyph-name="zacute" unicode="&#x17a;" d="M1042 831 l-632 -598 l573 0 l-45 -233 l-918 0 l41 209 l641 610 l-555 0 l46 234 l892 0 l-43 -222 ZM586 1229 l186 383 l293 0 l-250 -383 l-229 0 Z" /><glyph glyph-name="Zdotaccent" unicode="&#x17b;" d="M12 0 l45 242 l856 903 l-725 0 l52 268 l1101 0 l-47 -248 l-854 -897 l740 0 l-52 -268 l-1116 0 ZM752 1722 q0 68 55 121 q55 53 125 53 q53 0 87 -33 q34 -33 34 -83 q0 -69 -55 -122.5 q-55 -53.5 -124 -53.5 q-54 0 -88 33 q-34 33 -34 85 Z" /><glyph glyph-name="zdotaccent" unicode="&#x17c;" d="M1042 831 l-632 -598 l573 0 l-45 -233 l-918 0 l41 209 l641 610 l-555 0 l46 234 l892 0 l-43 -222 ZM586 1362 q0 68 55 121 q55 53 125 53 q53 0 87 -33.5 q34 -33.5 34 -83.5 q0 -69 -54.5 -122.5 q-54.5 -53.5 -123.5 -53.5 q-54 0 -88.5 33.5 q-34.5 33.5 -34.5 85.5 Z" /><glyph glyph-name="Zcaron" unicode="&#x17d;" d="M12 0 l45 242 l856 903 l-725 0 l52 268 l1101 0 l-47 -248 l-854 -897 l740 0 l-52 -268 l-1116 0 ZM520 1860 l234 0 l139 -162 l203 162 l254 0 l-355 -332 l-243 0 l-232 332 Z" /><glyph glyph-name="zcaron" unicode="&#x17e;" d="M1042 831 l-632 -598 l573 0 l-45 -233 l-918 0 l41 209 l641 610 l-555 0 l46 234 l892 0 l-43 -222 ZM356 1561 l230 0 l131 -189 l207 189 l250 0 l-365 -379 l-234 0 l-219 379 Z" /><glyph glyph-name="Aringacute" unicode="&#x1fa;" d="M856 1133 l-328 -596 l426 0 l-98 596 ZM907 1452 q76 0 131.5 54.5 q55.5 54.5 55.5 129.5 q0 53 -33.5 87 q-33.5 34 -93.5 34 q-76 0 -131.5 -55.5 q-55.5 -55.5 -55.5 -130.5 q0 -53 33.5 -86 q33.5 -33 93.5 -33 ZM231 0 l-301 0 l775 1358 q-89 67 -89 186 q0 142 111 250 l250 223 l295 0 l-193 -125 q85 -23 133 -83.5 q48 -60.5 48 -145.5 q0 -96 -50 -178.5 q-50 -82.5 -135 -130.5 l250 -1354 l-283 0 l-49 303 l-594 0 l-168 -303 Z" /><glyph glyph-name="aringacute" unicode="&#x1fb;" d="M334 465 q0 -104 64 -170 q64 -66 177 -66 q136 0 245.5 110 q109.5 110 109.5 245 q0 103 -64.5 170 q-64.5 67 -175.5 67 q-146 0 -251 -108.5 q-105 -108.5 -105 -247.5 ZM729 1458 q0 -47 31.5 -78.5 q31.5 -31.5 81.5 -31.5 q65 0 115.5 49.5 q50.5 49.5 50.5 113.5 q0 48 -31.5 79.5 q-31.5 31.5 -81.5 31.5 q-64 0 -115 -50.5 q-51 -50.5 -51 -113.5 ZM471 -31 q-175 0 -294.5 132 q-119.5 132 -119.5 348 q0 127 51 244.5 q51 117.5 135.5 202.5 q84.5 85 197 136 q112.5 51 231.5 51 q110 0 193.5 -55 q83.5 -55 125.5 -151 l35 176 l268 0 l-202 -1053 l-269 0 l29 143 q-76 -84 -174.5 -129 q-98.5 -45 -206.5 -45 ZM575 1430 q0 118 93 221 l211 250 l206 0 l-139 -134 q95 -7 154 -71 q59 -64 59 -158 q0 -132 -105.5 -236 q-105.5 -104 -240.5 -104 q-104 0 -171 66 q-67 66 -67 166 Z" /><glyph glyph-name="AEacute" unicode="&#x1fc;" d="M1155 1147 l-442 -561 l401 0 l84 561 l-43 0 ZM-82 0 l1145 1413 l1276 0 l-51 -266 l-803 0 l-47 -309 l694 0 l-47 -240 l-682 0 l-49 -332 l762 0 l-52 -266 l-1036 0 l49 330 l-567 0 l-260 -330 l-332 0 ZM1810 1579 l-278 0 l260 264 l342 0 l-324 -264 Z" /><glyph glyph-name="aeacute" unicode="&#x1fd;" d="M322 317 q0 -55 36 -85.5 q36 -30.5 99 -30.5 q101 0 182.5 64.5 q81.5 64.5 110.5 199.5 l-222 0 q-103 0 -154.5 -39 q-51.5 -39 -51.5 -109 ZM1079 643 l498 0 q-11 84 -64.5 133 q-53.5 49 -140.5 49 q-88 0 -166.5 -49.5 q-78.5 -49.5 -126.5 -132.5 ZM369 -31 q-150 0 -241 84 q-91 84 -91 223 q0 164 128.5 266.5 q128.5 102.5 346.5 102.5 l276 0 q15 94 -18 143.5 q-33 49.5 -106 49.5 q-139 0 -197 -113 l-285 0 q75 164 213.5 261 q138.5 97 323.5 97 q105 0 183.5 -41.5 q78.5 -41.5 119.5 -121.5 q185 161 410 161 q147 -1 252 -79.5 q105 -78.5 142 -215 q37 -136.5 -5 -321.5 l-791 -2 q0 -102 64 -170 q64 -68 163 -68 q83 0 149 35.5 q66 35.5 105 93.5 l279 0 q-88 -194 -241.5 -289.5 q-153.5 -95.5 -346.5 -95.5 q-121 0 -219 56 q-98 56 -152 157 q-169 -213 -462 -213 ZM1176 1229 l-230 0 l187 383 l292 0 l-249 -383 Z" /><glyph glyph-name="Oslashacute" unicode="&#x1fe;" d="M379 614 q0 -116 49 -198 l702 706 q-84 43 -196 43 q-144 0 -272.5 -77 q-128.5 -77 -205.5 -204.5 q-77 -127.5 -77 -269.5 ZM1270 983 l-699 -698 q75 -37 185 -37 q143 0 271.5 77 q128.5 77 206 204.5 q77.5 127.5 77.5 269.5 q0 104 -41 184 ZM1327 1354 l125 125 l178 -174 l-125 -123 q103 -153 103 -355 q0 -169 -65.5 -325 q-65.5 -156 -181.5 -274 q-116 -118 -287.5 -188.5 q-171.5 -70.5 -371.5 -70.5 q-185 0 -327 82 l-142 -141 l-178 172 l135 135 q-108 154 -108 369 q0 169 68 325 q68 156 186 274 q118 118 288.5 188.5 q170.5 70.5 364.5 70.5 q190 0 338 -90 ZM1122 1534 l-278 0 l260 264 l342 0 l-324 -264 Z" /><glyph glyph-name="oslashacute" unicode="&#x1ff;" d="M385 469 q0 -47 12 -84 l471 422 q-50 24 -114 24 q-144 0 -256.5 -111 q-112.5 -111 -112.5 -251 ZM983 688 l-485 -432 q60 -37 135 -37 q93 0 179.5 52 q86.5 52 139 137.5 q52.5 85.5 52.5 177.5 q0 48 -21 102 ZM588 -31 q-164 0 -289 88 l-119 -106 l-129 147 l119 105 q-53 100 -53 221 q0 125 57.5 246.5 q57.5 121.5 151.5 211.5 q94 90 220 145.5 q126 55.5 257 55.5 q155 0 268 -75 l117 102 l127 -147 l-107 -95 q64 -106 64 -235 q0 -167 -97 -321.5 q-97 -154.5 -256 -248.5 q-159 -94 -331 -94 ZM856 1229 l-229 0 l186 383 l293 0 l-250 -383 Z" /><glyph glyph-name="uni0218" unicode="&#x218;" d="M541 -31 q-220 0 -350.5 124.5 q-130.5 124.5 -127.5 338.5 l281 0 q6 -219 219 -219 q115 0 186.5 53.5 q71.5 53.5 71.5 134.5 q0 79 -60.5 125 q-60.5 46 -189.5 78 q-188 46 -280 143 q-92 97 -92 252 q0 190 140.5 317.5 q140.5 127.5 375.5 127.5 q212 0 333.5 -107.5 q121.5 -107.5 125.5 -322.5 l-283 0 q-3 91 -56 138.5 q-53 47.5 -145 47.5 q-95 0 -157 -46 q-62 -46 -62 -116 q0 -71 61 -112.5 q61 -41.5 195 -73.5 q369 -91 369 -399 q0 -101 -36.5 -188.5 q-36.5 -87.5 -105.5 -153.5 q-69 -66 -175 -104 q-106 -38 -238 -38 ZM168 -586 l194 451 l267 0 l-287 -451 l-174 0 Z" /><glyph glyph-name="uni0219" unicode="&#x219;" d="M403 -31 q-181 0 -289.5 98 q-108.5 98 -109.5 273 l248 0 q0 -76 44 -113 q44 -37 118 -37 q67 0 109 26.5 q42 26.5 42 72.5 q0 47 -37.5 73 q-37.5 26 -126.5 56 q-65 22 -114.5 48 q-49.5 26 -93.5 65 q-44 39 -67.5 95.5 q-23.5 56.5 -23.5 127.5 q0 145 102 237 q102 92 285 92 q165 0 265 -87 q100 -87 106 -263 l-244 0 q-8 131 -151 131 q-56 0 -88.5 -22.5 q-32.5 -22.5 -32.5 -63.5 q0 -43 41 -71 q41 -28 135 -60 q63 -22 110 -48 q47 -26 89.5 -64.5 q42.5 -38.5 65 -94 q22.5 -55.5 22.5 -125.5 q0 -160 -106.5 -253 q-106.5 -93 -297.5 -93 ZM35 -524 l194 389 l248 0 l-278 -389 l-164 0 Z" /><glyph glyph-name="uni021A" unicode="&#x21a;" d="M1354 1145 l-449 0 l-223 -1145 l-287 0 l223 1145 l-448 0 l51 268 l1184 0 l-51 -268 ZM188 -586 l195 451 l266 0 l-287 -451 l-174 0 Z" /><glyph glyph-name="uni021B" unicode="&#x21b;" d="M719 -6 q-119 -17 -184 -17 q-121 0 -202.5 34 q-81.5 34 -120.5 98 q-39 64 -48.5 154.5 q-9.5 90.5 14.5 203.5 l68 352 l-176 0 l45 234 l176 0 l63 327 l269 0 l-64 -327 l330 0 l-45 -234 l-330 0 l-61 -313 q-19 -96 -20.5 -159.5 q-1.5 -63.5 36 -94.5 q37.5 -31 125.5 -31 q73 0 172 17 l-47 -244 ZM98 -524 l195 389 l248 0 l-279 -389 l-164 0 Z" /><glyph glyph-name="uni0237" unicode="&#x237;" d="M-150 -121 q18 -4 50 -4 q63 0 97 38 q34 38 48 114 l199 1026 l272 0 l-197 -1012 q-42 -213 -140 -311.5 q-98 -98.5 -279 -98.5 q-36 0 -97 7 l47 241 Z" /><glyph glyph-name="gravecomb" unicode="&#x300;" d="M219 1612 l293 0 l145 -383 l-229 0 l-209 383 Z" /><glyph glyph-name="acutecomb" unicode="&#x301;" d="M700 1612 l-249 -383 l-230 0 l187 383 l292 0 Z" /><glyph glyph-name="uni0302" unicode="&#x302;" d="M213 1196 l365 379 l233 0 l219 -379 l-229 0 l-131 188 l-207 -188 l-250 0 Z" /><glyph glyph-name="tildecomb" unicode="&#x303;" d="M690 1274 q-56 0 -110 17 q-54 17 -89.5 37 q-35.5 20 -85 37 q-49.5 17 -98.5 17 q-93 0 -170 -61 l45 227 q73 45 168 45 q60 0 114 -16.5 q54 -16.5 88 -36.5 q34 -20 82 -36.5 q48 -16.5 97 -16.5 q84 0 164 51 l-43 -225 q-73 -39 -162 -39 Z" /><glyph glyph-name="uni0304" unicode="&#x304;" d="M840 1298 l-756 0 l43 222 l756 0 l-43 -222 Z" /><glyph glyph-name="uni0306" unicode="&#x306;" d="M426 1239 q-76 0 -135 20.5 q-59 20.5 -94.5 56 q-35.5 35.5 -58 82 q-22.5 46.5 -24 98.5 q-1.5 52 6.5 106 l217 0 q-17 -89 15.5 -137 q32.5 -48 107.5 -48 q75 0 126 48.5 q51 48.5 68 136.5 l219 0 q-14 -69 -49 -132 q-35 -63 -90 -115.5 q-55 -52.5 -135 -84 q-80 -31.5 -174 -31.5 Z" /><glyph glyph-name="uni0307" unicode="&#x307;" d="M217 1243 q-54 0 -88.5 33.5 q-34.5 33.5 -34.5 85.5 q0 68 55 121 q55 53 125 53 q53 0 87 -33.5 q34 -33.5 34 -83.5 q0 -69 -54.5 -122.5 q-54.5 -53.5 -123.5 -53.5 Z" /><glyph glyph-name="uni0308" unicode="&#x308;" d="M217 1243 q-53 0 -87 33.5 q-34 33.5 -34 85.5 q0 67 54.5 120.5 q54.5 53.5 123.5 53.5 q54 0 88.5 -34 q34.5 -34 34.5 -85 q0 -68 -55 -121 q-55 -53 -125 -53 ZM606 1360 q0 69 54 122.5 q54 53.5 124 53.5 q53 0 88 -34 q35 -34 35 -85 q0 -67 -55.5 -120.5 q-55.5 -53.5 -124.5 -53.5 q-54 0 -87.5 33 q-33.5 33 -33.5 84 Z" /><glyph glyph-name="uni030A" unicode="&#x30a;" d="M393 1198 q-104 0 -170.5 66 q-66.5 66 -66.5 166 q0 85 49 163.5 q49 78.5 130 126 q81 47.5 169 47.5 q103 0 169 -65 q66 -65 66 -164 q0 -132 -105.5 -236 q-105.5 -104 -240.5 -104 ZM309 1458 q0 -47 31.5 -78.5 q31.5 -31.5 81.5 -31.5 q65 0 115.5 49.5 q50.5 49.5 50.5 113.5 q0 48 -31.5 79.5 q-31.5 31.5 -81.5 31.5 q-64 0 -115 -50.5 q-51 -50.5 -51 -113.5 Z" /><glyph glyph-name="uni030B" unicode="&#x30b;" d="M578 1612 l-289 -383 l-228 0 l228 383 l289 0 ZM444 1229 l312 383 l288 0 l-372 -383 l-228 0 Z" /><glyph glyph-name="uni030C" unicode="&#x30c;" d="M1030 1561 l-364 -379 l-234 0 l-219 379 l229 0 l131 -189 l207 189 l250 0 Z" /><glyph glyph-name="uni0312" unicode="&#x312;" d="M455 1202 l-248 0 l278 389 l164 0 l-194 -389 Z" /><glyph glyph-name="uni0326" unicode="&#x326;" d="M319 -135 l248 0 l-278 -389 l-164 0 l194 389 Z" /><glyph glyph-name="uni0327" unicode="&#x327;" d="M164 33 l143 0 l-67 -133 q33 8 71 8 q71 0 121.5 -45 q50.5 -45 50.5 -125 q0 -110 -84 -166.5 q-84 -56.5 -215 -56.5 q-164 0 -250 57 l37 174 q31 -26 83.5 -43.5 q52.5 -17.5 107.5 -17.5 q41 0 63.5 15 q22.5 15 22.5 40 q0 24 -13 33.5 q-13 9.5 -40 9.5 q-59 0 -127 -27 l0 88 l96 189 Z" /><glyph glyph-name="uni0328" unicode="&#x328;" d="M547 2 q-129 -49 -197.5 -108.5 q-68.5 -59.5 -68.5 -118.5 q0 -60 75 -60 q62 0 133 31 l-38 -201 q-83 -26 -183 -26 q-92 0 -150.5 45.5 q-58.5 45.5 -58.5 130.5 q0 129 122 243.5 q122 114.5 329 182.5 l37 -119 Z" /><glyph glyph-name="Wgrave" unicode="&#x1e80;" d="M418 0 l-244 1413 l305 0 l156 -1005 l543 1005 l299 0 l147 -1016 l553 1016 l305 0 l-792 -1413 l-291 0 l-154 1014 l-534 -1014 l-293 0 ZM967 1788 l342 0 l260 -264 l-279 0 l-323 264 Z" /><glyph glyph-name="wgrave" unicode="&#x1e81;" d="M315 0 l-194 1053 l287 0 l106 -715 l397 715 l263 0 l116 -717 l383 717 l307 0 l-604 -1053 l-284 0 l-119 666 l-369 -666 l-289 0 ZM807 1612 l293 0 l145 -383 l-229 0 l-209 383 Z" /><glyph glyph-name="Wacute" unicode="&#x1e82;" d="M418 0 l-244 1413 l305 0 l156 -1005 l543 1005 l299 0 l147 -1016 l553 1016 l305 0 l-792 -1413 l-291 0 l-154 1014 l-534 -1014 l-293 0 ZM1186 1534 l260 264 l342 0 l-324 -264 l-278 0 Z" /><glyph glyph-name="wacute" unicode="&#x1e83;" d="M315 0 l-194 1053 l287 0 l106 -715 l397 715 l263 0 l116 -717 l383 717 l307 0 l-604 -1053 l-284 0 l-119 666 l-369 -666 l-289 0 ZM965 1229 l186 383 l293 0 l-250 -383 l-229 0 Z" /><glyph glyph-name="Wdieresis" unicode="&#x1e84;" d="M418 0 l-244 1413 l305 0 l156 -1005 l543 1005 l299 0 l147 -1016 l553 1016 l305 0 l-792 -1413 l-291 0 l-154 1014 l-534 -1014 l-293 0 ZM971 1653 q0 67 54.5 120.5 q54.5 53.5 123.5 53.5 q54 0 88.5 -34 q34.5 -34 34.5 -85 q0 -68 -55 -121 q-55 -53 -125 -53 q-53 0 -87 33.5 q-34 33.5 -34 85.5 ZM1481 1651 q0 69 54 122.5 q54 53.5 124 53.5 q53 0 88 -34 q35 -34 35 -85 q0 -67 -55.5 -120.5 q-55.5 -53.5 -124.5 -53.5 q-54 0 -87.5 33 q-33.5 33 -33.5 84 Z" /><glyph glyph-name="wdieresis" unicode="&#x1e85;" d="M315 0 l-194 1053 l287 0 l106 -715 l397 715 l263 0 l116 -717 l383 717 l307 0 l-604 -1053 l-284 0 l-119 666 l-369 -666 l-289 0 ZM711 1362 q0 67 54.5 120.5 q54.5 53.5 123.5 53.5 q54 0 88.5 -34 q34.5 -34 34.5 -85 q0 -68 -55.5 -121 q-55.5 -53 -125.5 -53 q-53 0 -86.5 33.5 q-33.5 33.5 -33.5 85.5 ZM1221 1360 q0 69 54 122.5 q54 53.5 124 53.5 q53 0 88 -34 q35 -34 35 -85 q0 -67 -56 -120.5 q-56 -53.5 -125 -53.5 q-54 0 -87 33 q-33 33 -33 84 Z" /><glyph glyph-name="Germandbls" unicode="&#x1e9e;" d="M731 602 l41 209 l313 334 l-516 0 l-223 -1145 l-289 0 l275 1413 l1159 0 l-47 -242 l-371 -370 q172 -27 265.5 -119 q93.5 -92 93.5 -252 q0 -97 -35.5 -180 q-35.5 -83 -103.5 -145.5 q-68 -62.5 -175.5 -98 q-107.5 -35.5 -243.5 -35.5 q-160 0 -290 56 l53 280 q114 -71 270 -71 q119 0 184.5 54.5 q65.5 54.5 65.5 139.5 q0 99 -96 138 q-96 39 -330 34 Z" /><glyph glyph-name="Ygrave" unicode="&#x1ef2;" d="M442 0 l119 608 l-381 805 l307 0 l248 -551 l447 551 l354 0 l-698 -838 l-111 -575 l-285 0 ZM502 1788 l342 0 l260 -264 l-279 0 l-323 264 Z" /><glyph glyph-name="ygrave" unicode="&#x1ef3;" d="M72 -348 l233 399 l-201 1002 l281 0 l125 -666 l385 666 l305 0 l-823 -1401 l-305 0 ZM403 1612 l293 0 l146 -383 l-230 0 l-209 383 Z" /><glyph glyph-name="endash" unicode="&#x2013;" d="M1249 559 l-1157 0 l49 256 l1155 0 l-47 -256 Z" /><glyph glyph-name="emdash" unicode="&#x2014;" d="M1815 559 l-1723 0 l49 256 l1721 0 l-47 -256 Z" /><glyph glyph-name="quoteleft" unicode="&#x2018;" d="M418 889 l-258 0 l217 524 l207 0 l-166 -524 Z" /><glyph glyph-name="quoteright" unicode="&#x2019;" d="M328 1413 l258 0 l-217 -524 l-207 0 l166 524 Z" /><glyph glyph-name="quotesinglbase" unicode="&#x201a;" d="M123 258 l258 0 l-217 -524 l-207 0 l166 524 Z" /><glyph glyph-name="quotedblleft" unicode="&#x201c;" d="M772 889 l-258 0 l217 524 l207 0 l-166 -524 ZM160 889 l217 524 l207 0 l-166 -524 l-258 0 Z" /><glyph glyph-name="quotedblright" unicode="&#x201d;" d="M328 1413 l258 0 l-217 -524 l-207 0 l166 524 ZM516 889 l166 524 l258 0 l-217 -524 l-207 0 Z" /><glyph glyph-name="quotedblbase" unicode="&#x201e;" d="M82 258 l258 0 l-217 -524 l-207 0 l166 524 ZM270 -266 l166 524 l258 0 l-217 -524 l-207 0 Z" /><glyph glyph-name="dagger" unicode="&#x2020;" d="M1044 860 l-296 0 l-115 -590 l-258 0 l114 590 l-294 0 l45 236 l295 0 l61 317 l258 0 l-61 -317 l297 0 l-46 -236 Z" /><glyph glyph-name="daggerdbl" unicode="&#x2021;" d="M1073 969 l-295 0 l-47 -242 l297 0 l-47 -238 l-297 0 l-41 -208 l-258 0 l41 208 l-297 0 l47 238 l297 0 l47 242 l-299 0 l47 235 l297 0 l41 209 l258 0 l-41 -209 l297 0 l-47 -235 Z" /><glyph glyph-name="bullet" unicode="&#x2022;" d="M367 502 q-88 0 -145.5 60 q-57.5 60 -57.5 151 q0 109 86.5 196.5 q86.5 87.5 212.5 87.5 q92 0 146.5 -58.5 q54.5 -58.5 54.5 -152.5 q0 -110 -84.5 -197 q-84.5 -87 -212.5 -87 Z" /><glyph glyph-name="ellipsis" unicode="&#x2026;" d="M653 -33 q-64 0 -106.5 44 q-42.5 44 -42.5 112 q0 80 64 144.5 q64 64.5 157 64.5 q67 0 107 -43 q40 -43 40 -113 q0 -81 -62.5 -145 q-62.5 -64 -156.5 -64 ZM51 123 q0 80 64 144.5 q64 64.5 157 64.5 q67 0 107.5 -43 q40.5 -43 40.5 -113 q0 -81 -62.5 -145 q-62.5 -64 -156.5 -64 q-65 0 -107.5 44.5 q-42.5 44.5 -42.5 111.5 ZM954 123 q0 80 64.5 144.5 q64.5 64.5 157.5 64.5 q67 0 107 -43 q40 -43 40 -113 q0 -81 -62.5 -145 q-62.5 -64 -156.5 -64 q-65 0 -107.5 44.5 q-42.5 44.5 -42.5 111.5 Z" /><glyph glyph-name="perthousand" unicode="&#x2030;" d="M2126 -31 q-137 0 -221 88.5 q-84 88.5 -84 241.5 q0 121 57 227.5 q57 106.5 163 173 q106 66.5 238 66.5 q137 0 221.5 -89 q84.5 -89 84.5 -241 q0 -121 -58 -227.5 q-58 -106.5 -164.5 -173 q-106.5 -66.5 -236.5 -66.5 ZM160 977 q0 121 57 227.5 q57 106.5 163 173 q106 66.5 238 66.5 q137 0 221.5 -89 q84.5 -89 84.5 -241 q0 -121 -58 -227.5 q-58 -106.5 -164.5 -173 q-106.5 -66.5 -236.5 -66.5 q-137 0 -221 88.5 q-84 88.5 -84 241.5 ZM254 0 l1110 1413 l305 0 l-1110 -1413 l-305 0 ZM389 987 q0 -66 29.5 -104.5 q29.5 -38.5 83.5 -38.5 q75 0 133.5 79 q58.5 79 58.5 179 q0 67 -29.5 106 q-29.5 39 -82.5 39 q-76 0 -134.5 -78.5 q-58.5 -78.5 -58.5 -181.5 ZM1001 299 q0 121 57 227.5 q57 106.5 163.5 173 q106.5 66.5 238.5 66.5 q137 0 221 -89 q84 -89 84 -241 q0 -121 -57.5 -227.5 q-57.5 -106.5 -164 -173 q-106.5 -66.5 -236.5 -66.5 q-137 0 -221.5 88.5 q-84.5 88.5 -84.5 241.5 ZM1231 309 q0 -66 29 -104.5 q29 -38.5 83 -38.5 q75 0 134 79 q59 79 59 179 q0 67 -30 106 q-30 39 -83 39 q-76 0 -134 -78.5 q-58 -78.5 -58 -181.5 ZM2050 309 q0 -66 29.5 -104.5 q29.5 -38.5 83.5 -38.5 q75 0 133.5 79 q58.5 79 58.5 179 q0 67 -29.5 106 q-29.5 39 -82.5 39 q-76 0 -134.5 -78.5 q-58.5 -78.5 -58.5 -181.5 Z" /><glyph glyph-name="guilsinglleft" unicode="&#x2039;" d="M559 1083 l156 -163 l-289 -287 l178 -287 l-194 -127 l-289 434 l438 430 Z" /><glyph glyph-name="guilsinglright" unicode="&#x203a;" d="M231 223 l-155 164 l289 287 l-179 287 l195 126 l289 -434 l-439 -430 Z" /><glyph glyph-name="fraction" unicode="&#x2044;" d="M1475 1413 l-1110 -1413 l-306 0 l1110 1413 l306 0 Z" /><glyph glyph-name="Euro" unicode="&#x20ac;" d="M782 -31 q-217 0 -366 130 q-149 130 -183 339 l-188 0 l43 203 l139 0 q3 40 25 137 l-135 0 l39 203 l176 0 q111 207 303 335 q192 128 416 128 q152 0 269.5 -70 q117.5 -70 182 -192 q64.5 -122 70.5 -279 l-287 0 q-15 124 -87 193 q-72 69 -185 69 q-99 0 -191.5 -49 q-92.5 -49 -160.5 -135 l344 0 l-39 -203 l-416 0 q-21 -64 -27 -137 l414 0 l-43 -203 l-350 0 q63 -190 274 -190 q126 0 226 68 q100 68 165 194 l287 0 q-49 -136 -126.5 -241 q-77.5 -105 -171.5 -170 q-94 -65 -199 -97.5 q-105 -32.5 -218 -32.5 Z" /><glyph glyph-name="trademark" unicode="&#x2122;" d="M1022 1190 l-264 0 l-115 -588 l-237 0 l114 588 l-266 0 l43 223 l768 0 l-43 -223 ZM1030 602 l158 811 l297 0 l162 -397 l319 397 l299 0 l-158 -811 l-241 0 l96 490 l-385 -449 l-211 451 l-96 -492 l-240 0 Z" /><glyph glyph-name="oneeighth" unicode="&#x215b;" d="M1077 219 q0 -34 27.5 -54 q27.5 -20 79.5 -20 q59 0 97 28 q38 28 38 67 q0 33 -27.5 52 q-27.5 19 -77.5 19 q-60 0 -98.5 -26.5 q-38.5 -26.5 -38.5 -65.5 ZM1159 487 q0 -29 22 -45 q22 -16 56 -16 q42 0 72 24.5 q30 24.5 30 57.5 q0 30 -20.5 45.5 q-20.5 15.5 -52.5 15.5 q-44 0 -75.5 -24 q-31.5 -24 -31.5 -58 ZM883 186 q0 65 47.5 117 q47.5 52 124.5 74 q-34 19 -54 52.5 q-20 33.5 -20 74.5 q0 94 90.5 157.5 q90.5 63.5 224.5 63.5 q104 0 169 -47 q65 -47 65 -129 q0 -53 -35 -100 q-35 -47 -92 -74 q100 -38 100 -152 q0 -101 -97.5 -171 q-97.5 -70 -254.5 -70 q-123 0 -195.5 57 q-72.5 57 -72.5 147 ZM219 1327 l156 86 l139 0 l-137 -706 l-184 0 l100 520 l-94 0 l20 100 ZM387 0 l-305 0 l1110 1413 l305 0 l-1110 -1413 Z" /><glyph glyph-name="threeeighths" unicode="&#x215c;" d="M1204 219 q0 -34 27.5 -54 q27.5 -20 79.5 -20 q59 0 97 28 q38 28 38 67 q0 33 -27.5 52 q-27.5 19 -77.5 19 q-60 0 -98.5 -26.5 q-38.5 -26.5 -38.5 -65.5 ZM1286 487 q0 -29 22 -45 q22 -16 56 -16 q42 0 72 24.5 q30 24.5 30 57.5 q0 30 -20.5 45.5 q-20.5 15.5 -52.5 15.5 q-44 0 -75.5 -24 q-31.5 -24 -31.5 -58 ZM1010 186 q0 65 47.5 117 q47.5 52 124.5 74 q-34 19 -54 52.5 q-20 33.5 -20 74.5 q0 94 90.5 157.5 q90.5 63.5 224.5 63.5 q104 0 169 -47 q65 -47 65 -129 q0 -53 -35 -100 q-35 -47 -92 -74 q100 -38 100 -152 q0 -101 -97.5 -171 q-97.5 -70 -254.5 -70 q-123 0 -195.5 57 q-72.5 57 -72.5 147 ZM365 688 q-115 0 -183.5 73 q-68.5 73 -62.5 183 l188 0 q0 -37 24 -58.5 q24 -21.5 62 -21.5 q51 0 82 24.5 q31 24.5 31 63.5 q0 29 -22.5 44.5 q-22.5 15.5 -61.5 15.5 l-100 0 l20 110 l158 121 l-303 -2 l34 172 l510 0 l-30 -156 l-179 -135 q156 -36 156 -182 q0 -107 -88 -179.5 q-88 -72.5 -235 -72.5 ZM496 0 l-306 0 l1110 1413 l306 0 l-1110 -1413 Z" /><glyph glyph-name="fiveeighths" unicode="&#x215d;" d="M1194 219 q0 -34 27 -54 q27 -20 79 -20 q59 0 97.5 28 q38.5 28 38.5 67 q0 33 -27.5 52 q-27.5 19 -77.5 19 q-60 0 -98.5 -26.5 q-38.5 -26.5 -38.5 -65.5 ZM1276 487 q0 -29 22 -45 q22 -16 56 -16 q42 0 72 24.5 q30 24.5 30 57.5 q0 30 -21 45.5 q-21 15.5 -53 15.5 q-44 0 -75 -24 q-31 -24 -31 -58 ZM999 186 q0 65 47.5 117 q47.5 52 124.5 74 q-73 41 -73 127 q0 94 90.5 157.5 q90.5 63.5 224.5 63.5 q104 0 169 -47 q65 -47 65 -129 q0 -53 -35 -100 q-35 -47 -92 -74 q100 -38 100 -152 q0 -101 -97.5 -171 q-97.5 -70 -254.5 -70 q-124 0 -196.5 57 q-72.5 57 -72.5 147 ZM373 688 q-119 0 -188 65.5 q-69 65.5 -66 180.5 l186 0 q2 -33 24.5 -53.5 q22.5 -20.5 61.5 -20.5 q49 0 84 32.5 q35 32.5 35 78.5 q0 31 -22 51 q-22 20 -58 20 q-67 0 -113 -53 l-157 35 l145 389 l418 0 l-33 -174 l-299 0 l-47 -125 q79 45 178 45 q71 0 124.5 -47.5 q53.5 -47.5 53.5 -130.5 q0 -123 -94.5 -208 q-94.5 -85 -232.5 -85 ZM479 0 l-305 0 l1110 1413 l305 0 l-1110 -1413 Z" /><glyph glyph-name="seveneighths" unicode="&#x215e;" d="M1153 219 q0 -34 27.5 -54 q27.5 -20 79.5 -20 q59 0 97 28 q38 28 38 67 q0 33 -27.5 52 q-27.5 19 -77.5 19 q-60 0 -98.5 -26.5 q-38.5 -26.5 -38.5 -65.5 ZM1235 487 q0 -29 22 -45 q22 -16 56 -16 q42 0 72 24.5 q30 24.5 30 57.5 q0 30 -21 45.5 q-21 15.5 -53 15.5 q-44 0 -75 -24 q-31 -24 -31 -58 ZM958 186 q0 65 47.5 117 q47.5 52 124.5 74 q-73 41 -73 127 q0 94 90.5 157.5 q90.5 63.5 224.5 63.5 q104 0 169 -47 q65 -47 65 -129 q0 -53 -35 -100 q-35 -47 -92 -74 q100 -38 100 -152 q0 -101 -97.5 -171 q-97.5 -70 -254.5 -70 q-124 0 -196.5 57 q-72.5 57 -72.5 147 ZM418 707 l-201 0 l313 526 l-352 0 l35 180 l551 0 l-27 -141 l-319 -565 ZM438 0 l-305 0 l1110 1413 l305 0 l-1110 -1413 Z" /><glyph glyph-name="minus" unicode="&#x2212;" d="M991 625 l-897 0 l47 243 l897 0 l-47 -243 Z" /><glyph glyph-name="notequal" unicode="&#x2260;" d="M1028 811 l-897 0 l47 244 l424 0 l107 217 l256 0 l-107 -217 l217 0 l-47 -244 ZM49 379 l47 244 l897 0 l-47 -244 l-422 0 l-104 -213 l-256 0 l104 213 l-219 0 Z" /><glyph glyph-name="lessequal" unicode="&#x2264;" d="M1180 1282 l-54 -276 l-632 -164 l567 -162 l-47 -240 l-832 303 l45 232 l953 307 ZM59 127 l47 244 l898 0 l-48 -244 l-897 0 Z" /><glyph glyph-name="greaterequal" unicode="&#x2265;" d="M94 440 l53 277 l633 164 l-567 161 l47 240 l832 -303 l-45 -231 l-953 -308 ZM31 127 l47 244 l897 0 l-47 -244 l-897 0 Z" /><glyph glyph-name="lozenge" unicode="&#x25ca;" d="M819 1198 l-446 -504 l235 -477 l449 506 l-238 475 ZM717 0 l-281 0 l-360 709 l635 704 l280 0 l361 -704 l-635 -709 Z" /><glyph glyph-name="fi" unicode="&#xfb01;" d="M369 1073 q43 220 181.5 336.5 q138.5 116.5 334.5 116.5 q137 0 250 -47 l-58 -254 q-84 61 -205 61 q-91 0 -149 -52 q-58 -52 -78 -153 l-6 -28 l360 0 l-45 -234 l-360 0 l-160 -819 l-274 0 l159 819 l-198 0 l45 234 l199 0 l4 20 ZM983 0 l205 1053 l274 0 l-205 -1053 l-274 0 ZM1223 1335 q0 74 53.5 128.5 q53.5 54.5 138.5 54.5 q59 0 96 -36 q37 -36 37 -93 q0 -74 -55 -130.5 q-55 -56.5 -139 -56.5 q-58 0 -94.5 37 q-36.5 37 -36.5 96 Z" /><glyph glyph-name="fl" unicode="&#xfb02;" d="M369 1073 q43 220 181.5 336.5 q138.5 116.5 334.5 116.5 q137 0 250 -47 l-58 -254 q-84 61 -205 61 q-91 0 -149 -52 q-58 -52 -78 -153 l-6 -28 l360 0 l-45 -234 l-360 0 l-160 -819 l-274 0 l159 819 l-198 0 l45 234 l199 0 l4 20 ZM983 0 l291 1495 l272 0 l-291 -1495 l-272 0 Z" /></font>
</defs>
</svg>
