<?xml version="1.0" standalone="no"?><!DOCTYPE svg PUBLIC "-//W3C//DTD SVG 1.1//EN" "http://www.w3.org/Graphics/SVG/1.1/DTD/svg11.dtd" ><svg xmlns="http://www.w3.org/2000/svg"><metadata></metadata><defs><font id="Version 1.000;FEAKit 1.0;UKWN;Uto-SemiBold;2022;FL801" horiz-adv-x="2674"><font-face font-family="Uto SemBd" font-weight="600" font-stretch="normal" units-per-em="2048" panose-1="0 0 0 0 0 0 0 0 0 0" ascent="2093" descent="-586" x-height="0" bbox="-141 -586 2617 2093" underline-thickness="102" underline-position="-307" unicode-range="U+000d-fb02" /><missing-glyph horiz-adv-x="921" d="M307 764 l0 -62 l185 0 l0 129 l122 0 l0 62 l-307 0 l0 -62 l123 0 l0 -67 l-123 0 ZM307 1135 l0 -193 l307 0 l0 64 l-122 0 l0 129 l-185 0 ZM307 1243 l0 -61 l307 0 l0 61 l-122 0 l0 68 l122 0 l0 61 l-305 0 l0 -61 l121 0 l0 -68 l-123 0 ZM307 -160 l0 -61 l307 0 l0 61 l-188 0 l129 86 l59 0 l0 62 l-307 0 l0 -62 l129 0 l-129 -86 ZM307 238 l0 -207 l307 0 l0 207 l-307 0 ZM307 557 l0 -209 l307 0 l0 209 l-184 0 l0 -102 l62 0 l0 41 l61 0 l0 -86 l-184 0 l0 147 l-62 0 ZM307 659 l0 -61 l307 0 l0 184 l-61 0 l0 -123 l-246 0 ZM553 90 l-184 0 l0 88 l184 0 l0 -88 ZM172 1495 l584 0 l0 -1843 l-584 0 l0 1843 ZM430 1006 l-61 0 l0 65 l61 0 l0 -65 Z" /><glyph glyph-name="uni0000" unicode="" d="" /><glyph glyph-name="uni000D" unicode="" d="" /><glyph glyph-name="space" unicode="  " d="" /><glyph glyph-name="exclam" unicode="!" d="M281 1413 l284 0 l0 -932 l-284 0 l0 932 ZM242 150 q0 76 53.5 130 q53.5 54 128.5 54 q76 0 128 -53.5 q52 -53.5 52 -130.5 q0 -73 -53 -127 q-53 -54 -127 -54 q-73 0 -127.5 54.5 q-54.5 54.5 -54.5 126.5 Z" /><glyph glyph-name="quotedbl" unicode="&quot;" d="M184 1497 l254 0 l-20 -561 l-217 0 l-17 561 ZM535 1497 l253 0 l-20 -561 l-217 0 l-16 561 Z" /><glyph glyph-name="numbersign" unicode="#" d="M575 883 l-43 -334 l340 0 l46 334 l-343 0 ZM346 1096 l41 317 l258 0 l-41 -317 l342 0 l41 317 l256 0 l-41 -317 l195 0 l0 -213 l-223 0 l-44 -334 l193 0 l0 -213 l-221 0 l-43 -336 l-258 0 l45 336 l-342 0 l-43 -336 l-258 0 l43 336 l-193 0 l0 213 l221 0 l43 334 l-192 0 l0 213 l221 0 Z" /><glyph glyph-name="dollar" unicode="$" d="M360 -61 l0 202 q-135 39 -220 134 q-85 95 -109 225 l239 0 q45 -176 258 -176 q96 0 156.5 36 q60.5 36 60.5 101 q0 67 -62 102.5 q-62 35.5 -216 57.5 q-412 58 -412 352 q0 123 82.5 206.5 q82.5 83.5 222.5 108.5 l0 187 l261 0 l0 -195 q126 -36 206 -125 q80 -89 101 -209 l-240 0 q-35 146 -215 146 q-87 0 -136.5 -31.5 q-49.5 -31.5 -49.5 -85.5 q0 -62 56.5 -97 q56.5 -35 197.5 -55 q434 -49 434 -358 q0 -137 -97.5 -228 q-97.5 -91 -256.5 -112 l0 -186 l-261 0 Z" /><glyph glyph-name="percent" unicode="%" d="M1405 -31 q-159 0 -266 111.5 q-107 111.5 -107 286.5 q0 176 107 287.5 q107 111.5 266 111.5 q158 0 265.5 -111.5 q107.5 -111.5 107.5 -287.5 q0 -174 -107.5 -286 q-107.5 -112 -265.5 -112 ZM57 1047 q0 175 107 286 q107 111 266 111 q158 0 265.5 -111.5 q107.5 -111.5 107.5 -285.5 q0 -176 -107.5 -288 q-107.5 -112 -265.5 -112 q-159 0 -266 112 q-107 112 -107 288 ZM283 1047 q0 -89 41 -146 q41 -57 106 -57 q63 0 105.5 57 q42.5 57 42.5 146 q0 87 -42.5 143.5 q-42.5 56.5 -105.5 56.5 q-64 0 -105.5 -56 q-41.5 -56 -41.5 -144 ZM360 0 l836 1413 l264 0 l-835 -1413 l-265 0 ZM1257 367 q0 -88 41.5 -144.5 q41.5 -56.5 106.5 -56.5 q63 0 105 57 q42 57 42 144 q0 89 -42 145.5 q-42 56.5 -105 56.5 q-65 0 -106.5 -56.5 q-41.5 -56.5 -41.5 -145.5 Z" /><glyph glyph-name="ampersand" unicode="&amp;" d="M897 299 l-319 319 q-230 -84 -230 -231 q0 -75 65.5 -121.5 q65.5 -46.5 178.5 -46.5 q166 0 305 80 ZM563 1061 q0 -43 30 -90 q30 -47 103 -121 q89 35 143 93 q54 58 54 118 q0 60 -44 95.5 q-44 35.5 -116 35.5 q-75 0 -122.5 -36 q-47.5 -36 -47.5 -95 ZM66 350 q0 74 29.5 139 q29.5 65 83 115.5 q53.5 50.5 119 89.5 q65.5 39 146.5 70 q-72 89 -108.5 165.5 q-36.5 76.5 -36.5 155.5 q0 112 61 195 q61 83 159 123.5 q98 40.5 218 40.5 q183 0 304.5 -92.5 q121.5 -92.5 121.5 -251.5 q0 -122 -87.5 -220.5 q-87.5 -98.5 -244.5 -162.5 l248 -246 q79 121 97 291 l260 0 q-23 -262 -179 -465 l304 -297 l-367 0 l-121 121 q-228 -154 -500 -154 q-228 0 -367.5 101 q-139.5 101 -139.5 282 Z" /><glyph glyph-name="quotesingle" unicode="&#39;" d="M184 1497 l254 0 l-20 -561 l-217 0 l-17 561 Z" /><glyph glyph-name="parenleft" unicode="(" d="M115 694 q0 341 164.5 605.5 q164.5 264.5 439.5 398.5 l96 -238 q-202 -113 -312 -314.5 q-110 -201.5 -110 -451.5 q0 -252 111 -458.5 q111 -206.5 313 -319.5 l-98 -238 q-275 135 -439.5 403.5 q-164.5 268.5 -164.5 612.5 Z" /><glyph glyph-name="parenright" unicode=")" d="M766 694 q0 -344 -164.5 -612.5 q-164.5 -268.5 -439.5 -403.5 l-99 238 q202 113 313 319.5 q111 206.5 111 458.5 q0 250 -109.5 451.5 q-109.5 201.5 -311.5 314.5 l96 238 q275 -134 439.5 -398.5 q164.5 -264.5 164.5 -605.5 Z" /><glyph glyph-name="asterisk" unicode="*" d="M643 688 l-149 230 l-152 -230 l-156 121 l187 203 l-250 69 l70 183 l225 -109 l-25 258 l199 0 l-23 -256 l222 107 l67 -183 l-246 -67 l187 -205 l-156 -121 Z" /><glyph glyph-name="plus" unicode="+" d="M991 625 l-315 0 l0 -314 l-262 0 l0 314 l-320 0 l0 243 l320 0 l0 316 l262 0 l0 -316 l315 0 l0 -243 Z" /><glyph glyph-name="comma" unicode="," d="M193 319 l305 0 l-228 -581 l-211 0 l134 581 Z" /><glyph glyph-name="hyphen" unicode="-" d="M926 559 l-834 0 l0 256 l834 0 l0 -256 Z" /><glyph glyph-name="period" unicode="." d="M315 -33 q-73 0 -127.5 54 q-54.5 54 -54.5 126 q0 76 53.5 130.5 q53.5 54.5 128.5 54.5 q76 0 128.5 -54 q52.5 -54 52.5 -131 q0 -73 -53.5 -126.5 q-53.5 -53.5 -127.5 -53.5 Z" /><glyph glyph-name="slash" unicode="/" d="M850 1608 l278 0 l-776 -1846 l-278 0 l776 1846 Z" /><glyph glyph-name="zero" unicode="0" d="M748 -31 q-179 0 -325 96.5 q-146 96.5 -229 266 q-83 169.5 -83 377.5 q0 161 49 298.5 q49 137.5 133.5 233 q84.5 95.5 202.5 149.5 q118 54 252 54 q135 0 253 -54 q118 -54 202 -149.5 q84 -95.5 132.5 -233 q48.5 -137.5 48.5 -298.5 q0 -208 -82.5 -377.5 q-82.5 -169.5 -228 -266 q-145.5 -96.5 -325.5 -96.5 ZM406 709 q0 -198 97 -329.5 q97 -131.5 245 -131.5 q148 0 245 131.5 q97 131.5 97 329.5 q0 206 -96 331 q-96 125 -246 125 q-150 0 -246 -125 q-96 -125 -96 -331 Z" /><glyph glyph-name="one" unicode="1" d="M373 1413 l215 0 l0 -1413 l-289 0 l0 1116 l-180 0 l0 164 l254 133 Z" /><glyph glyph-name="two" unicode="2" d="M104 0 l-2 256 l437 319 q148 110 222.5 203.5 q74.5 93.5 74.5 188.5 q0 90 -53 144 q-53 54 -146 54 q-99 0 -169.5 -61 q-70.5 -61 -96.5 -172 l-283 0 q20 105 66.5 196 q46.5 91 116.5 162.5 q70 71.5 169.5 112.5 q99.5 41 216.5 41 q208 0 338.5 -118.5 q130.5 -118.5 130.5 -317.5 q0 -114 -51 -220 q-51 -106 -139.5 -198 q-88.5 -92 -224.5 -191 l-187 -131 l678 0 l0 -268 l-1098 0 Z" /><glyph glyph-name="three" unicode="3" d="M610 -31 q-237 0 -385.5 133 q-148.5 133 -183.5 351 l301 0 q21 -98 87.5 -152.5 q66.5 -54.5 174.5 -54.5 q102 0 164.5 58.5 q62.5 58.5 62.5 150.5 q0 92 -64.5 146 q-64.5 54 -207.5 54 l-160 0 l-2 181 l285 309 l-598 0 l0 268 l958 0 l0 -248 l-319 -323 q185 -32 290 -136.5 q105 -104.5 105 -279.5 q0 -212 -141.5 -334.5 q-141.5 -122.5 -366.5 -122.5 Z" /><glyph glyph-name="four" unicode="4" d="M799 1182 l-449 -672 l449 0 l0 672 ZM705 1413 l374 0 l0 -903 l248 0 l0 -244 l-248 0 l0 -266 l-280 0 l0 266 l-719 0 l-2 209 l627 938 Z" /><glyph glyph-name="five" unicode="5" d="M616 -31 q-214 0 -363 125 q-149 125 -190 346 l297 0 q21 -89 85 -140.5 q64 -51.5 163 -51.5 q110 0 177 62.5 q67 62.5 67 164.5 q0 100 -65 167 q-65 67 -166 67 q-83 0 -149.5 -39 q-66.5 -39 -102.5 -99 l-263 58 l142 784 l784 0 l0 -274 l-583 0 l-64 -338 q139 112 328 112 q82 0 159.5 -29 q77.5 -29 141 -83.5 q63.5 -54.5 101.5 -142.5 q38 -88 38 -197 q0 -223 -153.5 -357.5 q-153.5 -134.5 -383.5 -134.5 Z" /><glyph glyph-name="six" unicode="6" d="M475 483 q0 -105 73.5 -178.5 q73.5 -73.5 178.5 -73.5 q105 0 178.5 73.5 q73.5 73.5 73.5 178.5 q0 103 -74 176.5 q-74 73.5 -178 73.5 q-104 0 -178 -73.5 q-74 -73.5 -74 -176.5 ZM735 -31 q-148 0 -267 58.5 q-119 58.5 -196.5 161.5 q-77.5 103 -119 243 q-41.5 140 -41.5 305 q0 153 49 286 q49 133 133 224.5 q84 91.5 197 144 q113 52.5 239 52.5 q108 0 198 -35.5 q90 -35.5 152.5 -97.5 q62.5 -62 103.5 -138.5 q41 -76.5 60 -164.5 l-285 0 q-54 161 -227 161 q-139 0 -232 -121 q-93 -121 -93 -313 l0 -30 q68 111 167.5 165 q99.5 54 217.5 54 q93 0 178 -30.5 q85 -30.5 152 -87.5 q67 -57 107 -147 q40 -90 40 -200 q0 -113 -45 -207.5 q-45 -94.5 -120.5 -155.5 q-75.5 -61 -170.5 -94 q-95 -33 -197 -33 Z" /><glyph glyph-name="seven" unicode="7" d="M317 0 l467 1133 l-735 0 l0 280 l1047 0 l0 -219 l-463 -1194 l-316 0 Z" /><glyph glyph-name="eight" unicode="8" d="M383 444 q0 -94 72 -150 q72 -56 200 -56 q130 0 201.5 56 q71.5 56 71.5 150 q0 93 -71.5 147 q-71.5 54 -201.5 54 q-129 0 -200.5 -54 q-71.5 -54 -71.5 -147 ZM511.5 1145 q-56.5 -45 -56.5 -127 q0 -82 57.5 -132 q57.5 -50 142.5 -50 q85 0 143 50.5 q58 50.5 58 131.5 q0 82 -57 127 q-57 45 -144 45 q-87 0 -143.5 -45 ZM948 22 q-130 -53 -293 -53 q-163 0 -293 53 q-130 53 -204 152 q-74 99 -74 227 q0 133 73.5 225.5 q73.5 92.5 198.5 131.5 q-88 41 -141 122.5 q-53 81.5 -53 190.5 q0 167 136.5 270 q136.5 103 356.5 103 q221 0 357.5 -103 q136.5 -103 136.5 -270 q0 -105 -52 -187 q-52 -82 -139 -126 q121 -38 195 -131.5 q74 -93.5 74 -225.5 q0 -128 -74.5 -227 q-74.5 -99 -204.5 -152 Z" /><glyph glyph-name="nine" unicode="9" d="M375 930 q0 -103 74 -176.5 q74 -73.5 178 -73.5 q104 0 178 73.5 q74 73.5 74 176.5 q0 105 -73.5 178.5 q-73.5 73.5 -178.5 73.5 q-105 0 -178.5 -73.5 q-73.5 -73.5 -73.5 -178.5 ZM618 1444 q196 0 339.5 -101.5 q143.5 -101.5 214.5 -273.5 q71 -172 71 -393 q0 -153 -49 -286 q-49 -133 -133 -224.5 q-84 -91.5 -197 -144 q-113 -52.5 -239 -52.5 q-108 0 -198 36 q-90 36 -152.5 98 q-62.5 62 -103.5 138.5 q-41 76.5 -60 164.5 l284 0 q55 -162 228 -162 q139 0 232 121 q93 121 93 313 l0 31 q-69 -111 -168 -165.5 q-99 -54.5 -217 -54.5 q-93 0 -178 30.5 q-85 30.5 -152 87.5 q-67 57 -107 147 q-40 90 -40 200 q0 114 45 208 q45 94 120 155 q75 61 170 94 q95 33 197 33 Z" /><glyph glyph-name="colon" unicode=":" d="M354 4 q-73 0 -127.5 54 q-54.5 54 -54.5 126 q0 76 53.5 130.5 q53.5 54.5 128.5 54.5 q76 0 128.5 -54 q52.5 -54 52.5 -131 q0 -73 -53.5 -126.5 q-53.5 -53.5 -127.5 -53.5 ZM172 874 q0 76 53.5 130.5 q53.5 54.5 128.5 54.5 q76 0 128.5 -54 q52.5 -54 52.5 -131 q0 -73 -53.5 -126.5 q-53.5 -53.5 -127.5 -53.5 q-73 0 -127.5 54 q-54.5 54 -54.5 126 Z" /><glyph glyph-name="semicolon" unicode=";" d="M233 332 l306 0 l-228 -582 l-211 0 l133 582 ZM193 870 q0 76 53.5 130.5 q53.5 54.5 128.5 54.5 q76 0 128 -54 q52 -54 52 -131 q0 -73 -53 -126.5 q-53 -53.5 -127 -53.5 q-73 0 -127.5 54 q-54.5 54 -54.5 126 Z" /><glyph glyph-name="less" unicode="&lt;" d="M795 164 l-707 461 l0 229 l707 463 l0 -287 l-478 -291 l478 -290 l0 -285 Z" /><glyph glyph-name="equal" unicode="=" d="M991 811 l-897 0 l0 244 l897 0 l0 -244 ZM94 379 l0 244 l897 0 l0 -244 l-897 0 Z" /><glyph glyph-name="greater" unicode="&gt;" d="M96 164 l0 285 l477 290 l-477 291 l0 287 l707 -463 l0 -229 l-707 -461 Z" /><glyph glyph-name="question" unicode="?" d="M672 1167 q-107 0 -181 -54 q-74 -54 -98 -157 l-301 0 q20 103 67 190 q47 87 119 154.5 q72 67.5 175.5 105.5 q103.5 38 228.5 38 q227 0 357 -107 q130 -107 130 -280 q0 -139 -78.5 -240 q-78.5 -101 -254.5 -182 q-52 -26 -78.5 -43 q-26.5 -17 -42 -42 q-15.5 -25 -18.5 -49.5 q-3 -24.5 -3 -74.5 l-284 0 q0 80 8 131 q8 51 31.5 99 q23.5 48 68 84.5 q44.5 36.5 117.5 72.5 q131 67 185 113.5 q54 46.5 54 107.5 q0 60 -51.5 96.5 q-51.5 36.5 -150.5 36.5 ZM373 147 q0 76 53.5 130.5 q53.5 54.5 128.5 54.5 q76 0 128 -54 q52 -54 52 -131 q0 -73 -53 -126.5 q-53 -53.5 -127 -53.5 q-73 0 -127.5 54 q-54.5 54 -54.5 126 Z" /><glyph glyph-name="at" unicode="@" d="M729 637 q0 -104 62.5 -173 q62.5 -69 156.5 -69 q94 0 155.5 69 q61.5 69 61.5 173 q0 104 -61.5 169.5 q-61.5 65.5 -155.5 65.5 q-95 0 -157 -66 q-62 -66 -62 -169 ZM911 -188 q-160 0 -305 53.5 q-145 53.5 -257.5 152.5 q-112.5 99 -179.5 252.5 q-67 153.5 -67 339.5 q0 190 70.5 348 q70.5 158 191.5 262.5 q121 104.5 283 162 q162 57.5 346 57.5 q184 0 347 -59 q163 -59 284 -163.5 q121 -104.5 191.5 -258.5 q70.5 -154 70.5 -334 q0 -225 -93 -351.5 q-93 -126.5 -269 -126.5 q-121 0 -201.5 63 q-80.5 63 -114.5 161 q-47 -88 -131.5 -136.5 q-84.5 -48.5 -191.5 -48.5 q-106 0 -197.5 56.5 q-91.5 56.5 -147 160.5 q-55.5 104 -55.5 232 q0 97 32.5 181 q32.5 84 87.5 142 q55 58 128 91.5 q73 33.5 152 33.5 q186 0 280 -151 l0 119 l236 0 l0 -525 q0 -117 39 -176 q39 -59 112 -59 q81 0 133 82.5 q52 82.5 52 251.5 q0 194 -94 349 q-94 155 -264 243 q-170 88 -386 88 q-216 0 -384 -87.5 q-168 -87.5 -261.5 -245.5 q-93.5 -158 -93.5 -362 q0 -196 89 -349 q89 -153 238 -233.5 q149 -80.5 330 -80.5 q158 0 289 39 l0 -142 q-149 -32 -289 -32 Z" /><glyph glyph-name="A" unicode="A" d="M729 1133 l-213 -596 l426 0 l-213 596 ZM324 0 l-291 0 l530 1413 l330 0 l534 -1413 l-292 0 l-109 303 l-594 0 l-108 -303 Z" /><glyph glyph-name="B" unicode="B" d="M463 633 l0 -373 l354 0 q83 0 138 53.5 q55 53.5 55 132.5 q0 79 -55 133 q-55 54 -138 54 l-354 0 ZM463 1153 l0 -338 l289 0 q82 0 134 49.5 q52 49.5 52 124.5 q0 70 -52 117 q-52 47 -134 47 l-289 0 ZM815 0 l-639 0 l0 1413 l649 0 q177 0 290.5 -100 q113.5 -100 113.5 -252 q0 -100 -48.5 -176.5 q-48.5 -76.5 -138.5 -122.5 q127 -42 197 -134 q70 -92 70 -222 q0 -183 -128.5 -294.5 q-128.5 -111.5 -365.5 -111.5 Z" /><glyph glyph-name="C" unicode="C" d="M86 709 q0 201 100.5 370.5 q100.5 169.5 273 267 q172.5 97.5 376.5 97.5 q244 0 433 -151.5 q189 -151.5 253 -389.5 l-301 0 q-49 124 -151.5 193 q-102.5 69 -233.5 69 q-130 0 -234.5 -60.5 q-104.5 -60.5 -162.5 -164.5 q-58 -104 -58 -231 q0 -196 129 -328.5 q129 -132.5 326 -132.5 q131 0 233.5 69 q102.5 69 151.5 193 l301 0 q-62 -236 -252 -388.5 q-190 -152.5 -434 -152.5 q-204 0 -376.5 98.5 q-172.5 98.5 -273 269 q-100.5 170.5 -100.5 372.5 Z" /><glyph glyph-name="D" unicode="D" d="M176 0 l0 1413 l543 0 q164 0 306.5 -53.5 q142.5 -53.5 243.5 -146.5 q101 -93 158.5 -223.5 q57.5 -130.5 57.5 -278.5 q0 -205 -99 -367.5 q-99 -162.5 -273.5 -253 q-174.5 -90.5 -393.5 -90.5 l-543 0 ZM463 264 l250 0 q216 0 347.5 123.5 q131.5 123.5 131.5 321.5 q0 191 -132.5 315.5 q-132.5 124.5 -346.5 124.5 l-250 0 l0 -885 Z" /><glyph glyph-name="E" unicode="E" d="M176 1413 l1000 0 l0 -266 l-713 0 l0 -289 l618 0 l0 -264 l-618 0 l0 -328 l713 0 l0 -266 l-1000 0 l0 1413 Z" /><glyph glyph-name="F" unicode="F" d="M176 0 l0 1413 l1036 0 l0 -266 l-749 0 l0 -338 l655 0 l0 -266 l-655 0 l0 -543 l-287 0 Z" /><glyph glyph-name="G" unicode="G" d="M827 -31 q-150 0 -287 58 q-137 58 -236.5 157 q-99.5 99 -158.5 236 q-59 137 -59 289 q0 201 100.5 370.5 q100.5 169.5 273 267 q172.5 97.5 376.5 97.5 q237 0 422 -141.5 q185 -141.5 247 -364.5 l-313 0 q-44 107 -140 167 q-96 60 -216 60 q-130 0 -234.5 -60.5 q-104.5 -60.5 -162.5 -164.5 q-58 -104 -58 -231 q0 -196 129 -328.5 q129 -132.5 326 -132.5 q119 0 222 37 q103 37 169 108 l0 162 l-422 0 l0 236 l704 0 l0 -791 l-215 0 l-32 125 q-190 -156 -435 -156 Z" /><glyph glyph-name="H" unicode="H" d="M176 1413 l287 0 l0 -543 l657 0 l0 543 l287 0 l0 -1413 l-287 0 l0 604 l-657 0 l0 -604 l-287 0 l0 1413 Z" /><glyph glyph-name="I" unicode="I" d="M176 1413 l287 0 l0 -1413 l-287 0 l0 1413 Z" /><glyph glyph-name="J" unicode="J" d="M633 604 l0 809 l287 0 l0 -795 q0 -170 -39.5 -297 q-39.5 -127 -112 -202.5 q-72.5 -75.5 -167 -112.5 q-94.5 -37 -212.5 -37 q-188 0 -315 66 l0 293 q137 -82 284 -82 q139 0 207 88 q68 88 68 270 Z" /><glyph glyph-name="K" unicode="K" d="M176 1413 l287 0 l0 -649 l565 649 l350 0 l-592 -670 l615 -743 l-352 0 l-586 717 l0 -717 l-287 0 l0 1413 Z" /><glyph glyph-name="L" unicode="L" d="M176 0 l0 1413 l287 0 l0 -1145 l731 0 l0 -268 l-1018 0 Z" /><glyph glyph-name="M" unicode="M" d="M885 158 l-420 878 l0 -1036 l-289 0 l0 1413 l422 0 l434 -903 l420 903 l432 0 l0 -1413 l-291 0 l0 1030 l-424 -872 l-284 0 Z" /><glyph glyph-name="N" unicode="N" d="M1108 0 l-651 997 l0 -997 l-281 0 l0 1413 l348 0 l621 -950 l0 950 l280 0 l0 -1413 l-317 0 Z" /><glyph glyph-name="O" unicode="O" d="M836 -31 q-154 0 -292.5 57.5 q-138.5 57.5 -239 156 q-100.5 98.5 -159.5 236.5 q-59 138 -59 292 q0 200 100.5 368.5 q100.5 168.5 273 266.5 q172.5 98 376.5 98 q152 0 290 -58.5 q138 -58.5 238.5 -156.5 q100.5 -98 159.5 -234 q59 -136 59 -284 q0 -205 -100.5 -376 q-100.5 -171 -272 -268.5 q-171.5 -97.5 -374.5 -97.5 ZM381 709 q0 -195 131 -328 q131 -133 324 -133 q192 0 322 133 q130 133 130 328 q0 124 -59 228.5 q-59 104.5 -163.5 166 q-104.5 61.5 -229.5 61.5 q-192 0 -323.5 -133 q-131.5 -133 -131.5 -323 Z" /><glyph glyph-name="P" unicode="P" d="M463 1147 l0 -430 l248 0 q112 0 178.5 61.5 q66.5 61.5 66.5 155.5 q0 93 -66.5 153 q-66.5 60 -178.5 60 l-248 0 ZM723 451 l-260 0 l0 -451 l-287 0 l0 1413 l547 0 q236 0 381 -136 q145 -136 145 -343 q0 -208 -145.5 -345.5 q-145.5 -137.5 -380.5 -137.5 Z" /><glyph glyph-name="Q" unicode="Q" d="M381 709 q0 -195 131 -328 q131 -133 324 -133 q192 0 322 133 q130 133 130 328 q0 124 -59 228.5 q-59 104.5 -163.5 166 q-104.5 61.5 -229.5 61.5 q-192 0 -323.5 -133 q-131.5 -133 -131.5 -323 ZM1130 29 l320 -152 l-113 -231 l-815 389 q-197 88 -316.5 269.5 q-119.5 181.5 -119.5 406.5 q0 200 100.5 368.5 q100.5 168.5 273 266.5 q172.5 98 376.5 98 q152 0 290 -58.5 q138 -58.5 238.5 -156.5 q100.5 -98 159.5 -234 q59 -136 59 -284 q0 -229 -125 -413 q-125 -184 -328 -269 Z" /><glyph glyph-name="R" unicode="R" d="M463 1145 l0 -377 l317 0 q92 0 149.5 52 q57.5 52 57.5 134 q0 83 -58 137 q-58 54 -149 54 l-317 0 ZM463 0 l-287 0 l0 1413 l615 0 q222 0 355.5 -120.5 q133.5 -120.5 133.5 -323.5 q0 -165 -101.5 -275.5 q-101.5 -110.5 -275.5 -138.5 l494 -555 l-359 0 l-493 547 l-82 0 l0 -547 Z" /><glyph glyph-name="S" unicode="S" d="M584 -31 q-218 0 -361.5 118.5 q-143.5 118.5 -181.5 344.5 l281 0 q49 -219 258 -219 q88 0 149.5 43.5 q61.5 43.5 61.5 130.5 q0 80 -62.5 129 q-62.5 49 -212.5 86 q-450 102 -450 451 q0 171 126.5 281 q126.5 110 329.5 110 q196 0 334.5 -108.5 q138.5 -108.5 181.5 -321.5 l-282 0 q-21 91 -80.5 138.5 q-59.5 47.5 -147.5 47.5 q-80 0 -131 -37.5 q-51 -37.5 -51 -103.5 q0 -79 64.5 -123.5 q64.5 -44.5 212.5 -81.5 q105 -26 184 -63 q79 -37 140 -92 q61 -55 92.5 -132.5 q31.5 -77.5 31.5 -175.5 q0 -188 -137.5 -305 q-137.5 -117 -349.5 -117 Z" /><glyph glyph-name="T" unicode="T" d="M1231 1145 l-449 0 l0 -1145 l-286 0 l0 1145 l-449 0 l0 268 l1184 0 l0 -268 Z" /><glyph glyph-name="U" unicode="U" d="M762 -33 q-279 0 -450 185 q-171 185 -171 512 l0 749 l287 0 l0 -749 q0 -210 92 -314 q92 -104 242 -104 q151 0 243.5 104 q92.5 104 92.5 314 l0 749 l286 0 l0 -749 q0 -327 -170.5 -512 q-170.5 -185 -451.5 -185 Z" /><glyph glyph-name="V" unicode="V" d="M571 0 l-522 1413 l303 0 l393 -1106 l390 1106 l305 0 l-522 -1413 l-347 0 Z" /><glyph glyph-name="W" unicode="W" d="M567 0 l-518 1413 l305 0 l351 -1003 l348 1003 l299 0 l344 -1016 l356 1016 l305 0 l-518 -1413 l-291 0 l-350 1014 l-338 -1014 l-293 0 Z" /><glyph glyph-name="X" unicode="X" d="M39 0 l496 727 l-447 686 l328 0 l297 -467 l301 467 l325 0 l-462 -682 l497 -731 l-338 0 l-338 518 l-336 -518 l-323 0 Z" /><glyph glyph-name="Y" unicode="Y" d="M553 0 l0 608 l-537 805 l336 0 l348 -541 l347 541 l325 0 l-534 -813 l0 -600 l-285 0 Z" /><glyph glyph-name="Z" unicode="Z" d="M147 0 l-2 242 l697 903 l-723 0 l0 268 l1102 0 l0 -248 l-693 -897 l736 0 l0 -268 l-1117 0 Z" /><glyph glyph-name="bracketleft" unicode="[" d="M123 -211 l0 1935 l577 5 l0 -230 l-311 -4 l0 -1479 l311 -2 l0 -229 l-577 4 Z" /><glyph glyph-name="backslash" unicode="\" d="M352 1608 l776 -1846 l-278 0 l-776 1846 l278 0 Z" /><glyph glyph-name="bracketright" unicode="]" d="M43 -215 l0 229 l311 2 l0 1479 l-311 4 l0 230 l578 -5 l0 -1935 l-578 -4 Z" /><glyph glyph-name="asciicircum" unicode="^" d="M573 1497 l320 0 l500 -891 l-306 0 l-354 674 l-354 -674 l-305 0 l499 891 Z" /><glyph glyph-name="underscore" unicode="_" d="M1159 -295 l-1157 0 l0 248 l1157 0 l0 -248 Z" /><glyph glyph-name="a" unicode="a" d="M330 528 q0 -126 86 -212.5 q86 -86.5 209 -86.5 q120 0 205 87.5 q85 87.5 85 211.5 q0 120 -85 207.5 q-85 87.5 -205 87.5 q-122 0 -208.5 -87 q-86.5 -87 -86.5 -208 ZM571 -31 q-138 0 -256 73.5 q-118 73.5 -188 202.5 q-70 129 -70 283 q0 154 70 282.5 q70 128.5 188 201.5 q118 73 256 73 q111 0 198 -52 q87 -52 146 -146 l0 166 l269 0 l0 -1053 l-269 0 l0 170 q-124 -201 -344 -201 Z" /><glyph glyph-name="b" unicode="b" d="M401 528 q0 -124 85.5 -211.5 q85.5 -87.5 205.5 -87.5 q124 0 209.5 86 q85.5 86 85.5 213 q0 122 -86.5 209.5 q-86.5 87.5 -208.5 87.5 q-120 0 -205.5 -87.5 q-85.5 -87.5 -85.5 -209.5 ZM401 0 l-270 0 l0 1495 l270 0 l0 -602 q62 91 152.5 141.5 q90.5 50.5 196.5 50.5 q101 0 195 -43 q94 -43 163 -117 q69 -74 110.5 -177.5 q41.5 -103.5 41.5 -219.5 q0 -116 -41.5 -220 q-41.5 -104 -110.5 -178 q-69 -74 -163 -117.5 q-94 -43.5 -195 -43.5 q-105 0 -195.5 51 q-90.5 51 -153.5 142 l0 -162 Z" /><glyph glyph-name="c" unicode="c" d="M618 -31 q-155 0 -285.5 75 q-130.5 75 -206 203.5 q-75.5 128.5 -75.5 280.5 q0 113 44.5 216 q44.5 103 120.5 178 q76 75 181 119 q105 44 221 44 q193 0 337.5 -123 q144.5 -123 183.5 -311 l-271 0 q-32 80 -96 127 q-64 47 -156 47 q-122 0 -208 -87.5 q-86 -87.5 -86 -211.5 q0 -123 85.5 -211 q85.5 -88 208.5 -88 q90 0 153 45 q63 45 97 123 l273 0 q-42 -186 -185 -306 q-143 -120 -336 -120 Z" /><glyph glyph-name="d" unicode="d" d="M324 528 q0 -127 85 -213 q85 -86 207 -86 q120 0 205.5 87.5 q85.5 87.5 85.5 211.5 q0 122 -85.5 209.5 q-85.5 87.5 -205.5 87.5 q-121 0 -206.5 -87.5 q-85.5 -87.5 -85.5 -209.5 ZM1178 0 l-271 0 l0 166 q-61 -93 -150.5 -145 q-89.5 -52 -197.5 -52 q-136 0 -252.5 73.5 q-116.5 73.5 -186 202.5 q-69.5 129 -69.5 283 q0 154 69.5 282.5 q69.5 128.5 186 201.5 q116.5 73 252.5 73 q108 0 197.5 -51.5 q89.5 -51.5 150.5 -144.5 l0 606 l271 0 l0 -1495 Z" /><glyph glyph-name="e" unicode="e" d="M340 643 l520 0 q-27 84 -92 134 q-65 50 -156 50 q-94 0 -166.5 -50 q-72.5 -50 -105.5 -134 ZM608 -31 q-108 0 -208.5 40 q-100.5 40 -177.5 110 q-77 70 -123.5 173.5 q-46.5 103.5 -47.5 223.5 q-1 159 76 290.5 q77 131.5 207.5 204.5 q130.5 73 283.5 72 q237 -2 390.5 -175.5 q153.5 -173.5 140.5 -442.5 l-825 -4 q24 -103 104 -169.5 q80 -66.5 186 -66.5 q164 0 240 127 l276 0 q-51 -181 -194.5 -282 q-143.5 -101 -327.5 -101 Z" /><glyph glyph-name="f" unicode="f" d="M238 1073 q0 220 116 336.5 q116 116.5 312 116.5 q138 0 258 -47 l-6 -254 q-97 61 -218 61 q-93 0 -140.5 -53 q-47.5 -53 -47.5 -152 l0 -28 l360 0 l0 -234 l-360 0 l0 -819 l-274 0 l0 819 l-199 0 l0 234 l199 0 l0 20 Z" /><glyph glyph-name="g" unicode="g" d="M326 573 q0 -116 75 -194 q75 -78 189 -78 q112 0 187 77 q75 77 75 193 q0 116 -75 196.5 q-75 80.5 -187 80.5 q-113 0 -188.5 -80 q-75.5 -80 -75.5 -195 ZM586 -379 q-200 0 -336 101 q-136 101 -174 284 l280 0 q20 -73 78 -112 q58 -39 148 -39 q128 0 199 84.5 q71 84.5 71 261.5 l0 57 q-55 -91 -140.5 -141.5 q-85.5 -50.5 -191.5 -50.5 q-193 0 -329 145 q-136 145 -136 362 q0 216 136.5 363 q136.5 147 328.5 147 q105 0 191 -52 q86 -52 141 -144 l0 166 l272 0 l0 -826 q0 -158 -42.5 -277.5 q-42.5 -119.5 -117.5 -190 q-75 -70.5 -169.5 -104.5 q-94.5 -34 -208.5 -34 Z" /><glyph glyph-name="h" unicode="h" d="M131 1495 l275 0 l0 -604 q51 91 137 140.5 q86 49.5 192 49.5 q60 0 113 -15 q53 -15 101 -50.5 q48 -35.5 82.5 -88.5 q34.5 -53 54.5 -133 q20 -80 20 -180 l0 -614 l-275 0 l0 588 q0 254 -190 254 q-91 0 -157.5 -61.5 q-66.5 -61.5 -77.5 -182.5 l0 -598 l-275 0 l0 1495 Z" /><glyph glyph-name="i" unicode="i" d="M141 0 l0 1053 l275 0 l0 -1053 l-275 0 ZM106 1362 q0 69 50.5 118.5 q50.5 49.5 122.5 49.5 q71 0 121.5 -49 q50.5 -49 50.5 -119 q0 -70 -50.5 -121 q-50.5 -51 -121.5 -51 q-72 0 -122.5 50.5 q-50.5 50.5 -50.5 121.5 Z" /><glyph glyph-name="j" unicode="j" d="M-14 -121 q18 -4 49 -4 q64 0 90.5 38.5 q26.5 38.5 26.5 113.5 l0 1026 l272 0 l0 -1012 q0 -213 -79 -311.5 q-79 -98.5 -263 -98.5 q-35 0 -96 7 l0 241 ZM106 1362 q0 69 50.5 118.5 q50.5 49.5 122.5 49.5 q71 0 121.5 -49 q50.5 -49 50.5 -119 q0 -70 -50.5 -121 q-50.5 -51 -121.5 -51 q-72 0 -122.5 50.5 q-50.5 50.5 -50.5 121.5 Z" /><glyph glyph-name="k" unicode="k" d="M791 0 l-388 516 l0 -516 l-272 0 l0 1485 l272 0 l0 -903 l390 471 l342 0 l-435 -482 l414 -571 l-323 0 Z" /><glyph glyph-name="l" unicode="l" d="M131 1495 l272 0 l0 -1495 l-272 0 l0 1495 Z" /><glyph glyph-name="m" unicode="m" d="M141 1053 l275 0 l0 -158 q111 188 315 188 q105 0 187 -58.5 q82 -58.5 120 -180.5 q51 116 139 177.5 q88 61.5 205 61.5 q71 0 129.5 -23 q58.5 -23 106.5 -72.5 q48 -49.5 75 -139 q27 -89.5 27 -211.5 l0 -637 l-274 0 l0 602 q0 238 -170 238 q-90 0 -149 -70.5 q-59 -70.5 -60 -202.5 l0 -567 l-272 0 l0 602 q0 118 -46.5 178 q-46.5 60 -125.5 60 q-88 0 -147 -70.5 q-59 -70.5 -60 -202.5 l0 -567 l-275 0 l0 1053 Z" /><glyph glyph-name="n" unicode="n" d="M141 1053 l275 0 l0 -170 q56 95 142 148.5 q86 53.5 187 53.5 q163 0 259 -109.5 q96 -109.5 96 -350.5 l0 -625 l-275 0 l0 582 q0 260 -188 260 q-92 0 -156 -72.5 q-64 -72.5 -65 -210.5 l0 -559 l-275 0 l0 1053 Z" /><glyph glyph-name="o" unicode="o" d="M621 -31 q-155 0 -286.5 75.5 q-131.5 75.5 -207.5 204.5 q-76 129 -76 281 q0 112 45 215 q45 103 121.5 177.5 q76.5 74.5 182 118.5 q105.5 44 221.5 44 q153 0 283 -74.5 q130 -74.5 206 -202.5 q76 -128 76 -278 q0 -153 -76 -282 q-76 -129 -206 -204 q-130 -75 -283 -75 ZM328 528 q0 -123 84.5 -210 q84.5 -87 205.5 -87 q122 0 206.5 86.5 q84.5 86.5 84.5 210.5 q0 121 -85.5 207 q-85.5 86 -205.5 86 q-121 0 -205.5 -85.5 q-84.5 -85.5 -84.5 -207.5 Z" /><glyph glyph-name="p" unicode="p" d="M399 528 q0 -124 85.5 -211.5 q85.5 -87.5 205.5 -87.5 q124 0 209.5 85.5 q85.5 85.5 85.5 211.5 q0 122 -86.5 209.5 q-86.5 87.5 -208.5 87.5 q-120 0 -205.5 -86.5 q-85.5 -86.5 -85.5 -208.5 ZM397 -348 l-272 0 l0 1401 l272 0 l0 -162 q63 91 154 142.5 q91 51.5 197 51.5 q135 0 251.5 -73 q116.5 -73 186 -202 q69.5 -129 69.5 -282 q0 -155 -69.5 -284 q-69.5 -129 -185.5 -202 q-116 -73 -252 -73 q-106 0 -197 52.5 q-91 52.5 -154 144.5 l0 -514 Z" /><glyph glyph-name="q" unicode="q" d="M324 528 q0 -127 85 -213 q85 -86 207 -86 q120 0 205.5 87.5 q85.5 87.5 85.5 211.5 q0 122 -85.5 209.5 q-85.5 87.5 -205.5 87.5 q-121 0 -206.5 -87.5 q-85.5 -87.5 -85.5 -209.5 ZM1184 -348 l-277 0 l0 524 q-60 -97 -149.5 -152 q-89.5 -55 -194.5 -55 q-138 0 -255.5 73.5 q-117.5 73.5 -187 202.5 q-69.5 129 -69.5 283 q0 154 69.5 282.5 q69.5 128.5 187 201.5 q117.5 73 255.5 73 q106 0 195.5 -54.5 q89.5 -54.5 148.5 -151.5 l0 174 l277 0 l0 -1401 Z" /><glyph glyph-name="r" unicode="r" d="M141 1053 l262 0 l0 -199 q40 106 128 164 q88 58 221 51 l0 -281 q-177 15 -255.5 -67 q-78.5 -82 -78.5 -258 l0 -463 l-277 0 l0 1053 Z" /><glyph glyph-name="s" unicode="s" d="M459 -31 q-159 0 -270.5 88 q-111.5 88 -145.5 262 l248 0 q12 -69 57 -104 q45 -35 111 -35 q62 0 102.5 30.5 q40.5 30.5 40.5 84.5 q0 59 -42.5 88 q-42.5 29 -141.5 51 q-352 80 -352 340 q0 135 99 223 q99 88 257 88 q149 0 255.5 -83.5 q106.5 -83.5 141.5 -249.5 l-244 0 q-17 63 -55.5 94 q-38.5 31 -91.5 31 q-54 0 -89.5 -27 q-35.5 -27 -35.5 -76 q0 -53 44 -82 q44 -29 151 -53 q59 -14 106.5 -31.5 q47.5 -17.5 93 -45.5 q45.5 -28 76.5 -63.5 q31 -35.5 49.5 -86.5 q18.5 -51 18.5 -113 q0 -105 -54 -181 q-54 -76 -139.5 -112.5 q-85.5 -36.5 -189.5 -36.5 Z" /><glyph glyph-name="t" unicode="t" d="M842 -6 q-122 -17 -195 -17 q-126 0 -213 33.5 q-87 33.5 -135.5 100 q-48.5 66.5 -69 152 q-20.5 85.5 -20.5 204.5 l0 352 l-176 0 l0 234 l176 0 l0 327 l268 0 l0 -327 l350 0 l0 -234 l-350 0 l0 -313 q0 -56 3 -92.5 q3 -36.5 16 -76.5 q13 -40 36.5 -62 q23.5 -22 66 -37 q42.5 -15 103.5 -15 q41 0 140 15 l0 -244 Z" /><glyph glyph-name="u" unicode="u" d="M1079 0 l-274 0 l0 141 q-49 -83 -131.5 -127.5 q-82.5 -44.5 -184.5 -44.5 q-78 0 -143 26 q-65 26 -117 79.5 q-52 53.5 -81 144 q-29 90.5 -29 211.5 l0 623 l272 0 l0 -580 q0 -260 189 -260 q94 0 159 68 q65 68 66 192 l0 580 l274 0 l0 -1053 Z" /><glyph glyph-name="v" unicode="v" d="M410 0 l-392 1053 l289 0 l262 -789 l265 789 l288 0 l-391 -1053 l-321 0 Z" /><glyph glyph-name="w" unicode="w" d="M418 0 l-400 1053 l291 0 l254 -750 l258 750 l254 0 l260 -740 l252 740 l291 0 l-401 -1053 l-283 0 l-246 666 l-241 -666 l-289 0 Z" /><glyph glyph-name="x" unicode="x" d="M1085 0 l-315 0 l-225 342 l-226 -342 l-305 0 l373 530 l-348 523 l313 0 l207 -324 l215 324 l303 0 l-362 -514 l370 -539 Z" /><glyph glyph-name="y" unicode="y" d="M299 -348 l137 348 l-418 1053 l293 0 l269 -709 l270 709 l285 0 l-551 -1401 l-285 0 Z" /><glyph glyph-name="z" unicode="z" d="M958 831 l-514 -598 l572 0 l0 -233 l-918 0 l0 209 l523 610 l-555 0 l0 234 l892 0 l0 -222 Z" /><glyph glyph-name="braceleft" unicode="{" d="M39 618 l0 222 l125 0 q69 0 101 24.5 q32 24.5 32 75.5 q0 41 -21 92 q-21 51 -46.5 94.5 q-25.5 43.5 -46.5 108.5 q-21 65 -21 131 q0 161 141.5 264 q141.5 103 413.5 103 l0 -234 q-285 0 -285 -182 q0 -43 19 -98 q19 -55 42.5 -99 q23.5 -44 42.5 -102.5 q19 -58.5 19 -108.5 q0 -68 -42.5 -116.5 q-42.5 -48.5 -115.5 -63.5 q73 -15 115.5 -63.5 q42.5 -48.5 42.5 -116.5 q0 -50 -19 -108.5 q-19 -58.5 -42.5 -102.5 q-23.5 -44 -42.5 -99 q-19 -55 -19 -98 q0 -182 285 -182 l0 -233 q-272 0 -413.5 102.5 q-141.5 102.5 -141.5 263.5 q0 66 21 131.5 q21 65.5 46.5 108.5 q25.5 43 46.5 94 q21 51 21 92 q0 51 -32 75.5 q-32 24.5 -101 24.5 l-125 0 Z" /><glyph glyph-name="bar" unicode="|" d="M289 1718 l280 0 l0 -2015 l-280 0 l0 2015 Z" /><glyph glyph-name="braceright" unicode="}" d="M45 -274 l0 233 q285 0 285 182 q0 43 -19 98 q-19 55 -42.5 99 q-23.5 44 -42.5 102.5 q-19 58.5 -19 108.5 q0 68 42.5 116.5 q42.5 48.5 115.5 63.5 q-73 15 -115.5 63.5 q-42.5 48.5 -42.5 116.5 q0 50 19 108.5 q19 58.5 42.5 102.5 q23.5 44 42.5 99 q19 55 19 98 q0 182 -285 182 l0 234 q272 0 413.5 -103 q141.5 -103 141.5 -264 q0 -66 -21 -131 q-21 -65 -46.5 -108.5 q-25.5 -43.5 -46.5 -94.5 q-21 -51 -21 -92 q0 -51 32 -75.5 q32 -24.5 101 -24.5 l125 0 l0 -222 l-125 0 q-69 0 -101 -24.5 q-32 -24.5 -32 -75.5 q0 -41 21 -92 q21 -51 46.5 -94 q25.5 -43 46.5 -108.5 q21 -65.5 21 -131.5 q0 -161 -141.5 -263.5 q-141.5 -102.5 -413.5 -102.5 Z" /><glyph glyph-name="exclamdown" unicode="¡" d="M281 -360 l0 931 l284 0 l0 -931 l-284 0 ZM242 903 q0 72 54.5 126 q54.5 54 127.5 54 q74 0 127 -53.5 q53 -53.5 53 -126.5 q0 -77 -52 -130.5 q-52 -53.5 -128 -53.5 q-75 0 -128.5 54 q-53.5 54 -53.5 130 Z" /><glyph glyph-name="cent" unicode="¢" d="M459 0 l0 174 q-179 46 -294.5 194.5 q-115.5 148.5 -115.5 340.5 q0 190 115.5 338 q115.5 148 294.5 194 l0 172 l274 0 l0 -172 q142 -38 243.5 -149 q101.5 -111 133.5 -261 l-281 0 q-31 82 -90.5 129.5 q-59.5 47.5 -146.5 47.5 q-114 0 -193.5 -88 q-79.5 -88 -79.5 -213 q0 -123 79.5 -211 q79.5 -88 193.5 -88 q163 0 235 170 l281 -3 q-34 -148 -134 -255.5 q-100 -107.5 -241 -145.5 l0 -174 l-274 0 Z" /><glyph glyph-name="sterling" unicode="£" d="M72 260 q122 24 195 85.5 q73 61.5 73 154.5 q0 43 -18 102 l-252 0 l0 184 l166 0 q-58 127 -58 236 q0 182 135 302 q135 120 340 120 q214 0 348 -118 q134 -118 170 -320 l-288 0 q-40 163 -209 163 q-90 0 -146.5 -53 q-56.5 -53 -56.5 -141 q0 -86 49 -189 l490 0 l0 -184 l-420 0 q6 -30 6 -63 q0 -85 -51.5 -155.5 q-51.5 -70.5 -141.5 -117.5 l820 0 l0 -266 l-1151 0 l0 260 Z" /><glyph glyph-name="yen" unicode="¥" d="M504 0 l0 276 l-379 0 l0 185 l379 0 l0 162 l-375 0 l0 184 l283 0 l-387 606 l333 0 l293 -506 l293 506 l322 0 l-383 -606 l284 0 l0 -184 l-376 0 l0 -162 l374 0 l0 -185 l-374 0 l0 -276 l-287 0 Z" /><glyph glyph-name="brokenbar" unicode="¦" d="M569 586 l0 -883 l-280 0 l0 883 l280 0 ZM289 836 l0 882 l280 0 l0 -882 l-280 0 Z" /><glyph glyph-name="section" unicode="§" d="M450 688.5 q-83 -35.5 -83 -100.5 q0 -65 68.5 -94 q68.5 -29 234.5 -45 q5 0 14 -1.5 q9 -1.5 14 -1.5 q154 -1 237 35 q83 36 83 101 q0 66 -67 94.5 q-67 28.5 -234 44.5 q-5 0 -14.5 1 q-9.5 1 -14.5 1 q-155 1 -238 -34.5 ZM713 -276 q-191 0 -325 99.5 q-134 99.5 -177 287.5 l270 0 q22 -75 81.5 -115.5 q59.5 -40.5 150.5 -40.5 q90 0 143 34 q53 34 53 93 q0 68 -74 101.5 q-74 33.5 -239 47.5 q-252 22 -368.5 95.5 q-116.5 73.5 -116.5 214.5 q0 101 67 172 q67 71 197 106 q-154 96 -154 275 q0 154 124 252 q124 98 327 98 q192 0 326.5 -99.5 q134.5 -99.5 177.5 -287.5 l-273 0 q-20 76 -79.5 116.5 q-59.5 40.5 -151.5 40.5 q-91 0 -144 -33 q-53 -33 -53 -94 q0 -65 77.5 -100.5 q77.5 -35.5 248.5 -50.5 q246 -21 360.5 -93 q114.5 -72 114.5 -216 q0 -100 -66.5 -171 q-66.5 -71 -195.5 -106 q151 -94 151 -274 q0 -154 -124 -253 q-124 -99 -328 -99 Z" /><glyph glyph-name="copyright" unicode="©" d="M209 713 q0 -136 48.5 -256.5 q48.5 -120.5 134 -207.5 q85.5 -87 209 -137.5 q123.5 -50.5 265.5 -50.5 q142 0 265.5 50.5 q123.5 50.5 209 137.5 q85.5 87 134.5 207.5 q49 120.5 49 256.5 q0 131 -49 248.5 q-49 117.5 -135 203.5 q-86 86 -209.5 136.5 q-123.5 50.5 -264.5 50.5 q-142 0 -265.5 -51 q-123.5 -51 -208.5 -137 q-85 -86 -134 -203.5 q-49 -117.5 -49 -247.5 ZM418 700 q0 187 134 319 q134 132 325 132 q159 0 277 -99 q118 -99 151 -251 l-230 0 q-26 61 -77.5 97 q-51.5 36 -123.5 36 q-95 0 -163 -68.5 q-68 -68.5 -68 -165.5 q0 -97 68 -166 q68 -69 163 -69 q140 0 201 131 l228 0 q-34 -153 -150.5 -250.5 q-116.5 -97.5 -275.5 -97.5 q-190 0 -324.5 132 q-134.5 132 -134.5 320 ZM866 -31 q-156 0 -296 57.5 q-140 57.5 -241 156 q-101 98.5 -160.5 236.5 q-59.5 138 -59.5 292 q0 200 100.5 368.5 q100.5 168.5 275 266.5 q174.5 98 381.5 98 q155 0 295.5 -58 q140.5 -58 241 -156 q100.5 -98 160 -233.5 q59.5 -135.5 59.5 -285.5 q0 -123 -38 -237 q-38 -114 -107 -205 q-69 -91 -162 -159 q-93 -68 -208.5 -104.5 q-115.5 -36.5 -240.5 -36.5 Z" /><glyph glyph-name="guillemotleft" unicode="«" d="M485 219 l-372 434 l372 434 l170 -126 l-249 -308 l249 -307 l-170 -127 ZM586 653 l372 434 l170 -126 l-249 -308 l249 -307 l-170 -127 l-372 434 Z" /><glyph glyph-name="registered" unicode="®" d="M256 991 q0 -164 111.5 -276.5 q111.5 -112.5 271.5 -112.5 q161 0 272 112.5 q111 112.5 111 276.5 q0 162 -111 274.5 q-111 112.5 -272 112.5 q-160 0 -271.5 -113 q-111.5 -113 -111.5 -274 ZM578 1120 l0 -114 l84 0 q26 0 42.5 16 q16.5 16 16.5 41 q0 26 -16.5 41.5 q-16.5 15.5 -42.5 15.5 l-84 0 ZM961 668 q-133 -133 -322 -133 q-189 0 -322 133 q-133 133 -133 323 q0 92 36 176 q36 84 97 144.5 q61 60.5 145 96.5 q84 36 177 36 q93 0 177 -36 q84 -36 145 -96.5 q61 -60.5 97 -144.5 q36 -84 36 -176 q0 -190 -133 -323 ZM578 752 l-129 0 l0 483 l235 0 q81 0 127.5 -48 q46.5 -48 46.5 -122 q0 -47 -25 -89 q-25 -42 -69 -63 l125 -161 l-156 0 l-100 143 l-55 0 l0 -143 Z" /><glyph glyph-name="degree" unicode="°" d="M814 740.5 q-120 -119.5 -290 -119.5 q-170 0 -290.5 119.5 q-120.5 119.5 -120.5 289.5 q0 169 120.5 288.5 q120.5 119.5 290.5 119.5 q170 0 290 -119.5 q120 -119.5 120 -288.5 q0 -170 -120 -289.5 ZM315 1030 q0 -88 60.5 -149.5 q60.5 -61.5 148.5 -61.5 q86 0 147.5 61.5 q61.5 61.5 61.5 149.5 q0 86 -61.5 147.5 q-61.5 61.5 -147.5 61.5 q-87 0 -148 -61 q-61 -61 -61 -148 Z" /><glyph glyph-name="plusminus" unicode="±" d="M991 709 l-319 0 l0 -220 l-256 0 l0 220 l-322 0 l0 243 l322 0 l0 219 l256 0 l0 -219 l319 0 l0 -243 ZM94 94 l0 244 l897 0 l0 -244 l-897 0 Z" /><glyph glyph-name="paragraph" unicode="¶" d="M594 487 q-212 0 -345.5 135 q-133.5 135 -133.5 330 q0 94 34.5 178 q34.5 84 96 147 q61.5 63 152 99.5 q90.5 36.5 196.5 36.5 l879 0 l0 -1761 l-275 0 l0 1495 l-244 0 l0 -1495 l-274 0 l0 835 l-86 0 Z" /><glyph glyph-name="periodcentered" unicode="·" d="M315 555 q-73 0 -127.5 54 q-54.5 54 -54.5 126 q0 76 53.5 130.5 q53.5 54.5 128.5 54.5 q76 0 128.5 -54 q52.5 -54 52.5 -131 q0 -73 -53.5 -126.5 q-53.5 -53.5 -127.5 -53.5 Z" /><glyph glyph-name="guillemotright" unicode="»" d="M772 219 l-170 127 l250 307 l-250 308 l170 126 l373 -434 l-373 -434 ZM129 346 l250 307 l-250 308 l170 126 l373 -434 l-373 -434 l-170 127 Z" /><glyph glyph-name="onequarter" unicode="¼" d="M1149 561 l-199 -301 l199 0 l0 301 ZM793 121 l-2 129 l299 457 l235 0 l0 -447 l123 0 l0 -139 l-123 0 l0 -121 l-176 0 l0 121 l-356 0 ZM55 1327 l140 86 l139 0 l0 -706 l-184 0 l0 520 l-95 0 l0 100 ZM395 0 l-264 0 l836 1413 l264 0 l-836 -1413 Z" /><glyph glyph-name="onehalf" unicode="½" d="M55 1327 l140 86 l139 0 l0 -706 l-184 0 l0 520 l-95 0 l0 100 ZM399 0 l-264 0 l836 1413 l264 0 l-836 -1413 ZM1110 449 l-178 0 q19 113 98.5 194.5 q79.5 81.5 206.5 81.5 q108 0 178 -65 q70 -65 70 -166 q0 -173 -236 -308 l-24 -14 l297 0 l0 -172 l-574 0 l-2 162 l232 143 q122 75 122 162 q0 34 -22.5 56 q-22.5 22 -58.5 22 q-41 0 -70.5 -25 q-29.5 -25 -38.5 -71 Z" /><glyph glyph-name="threequarters" unicode="¾" d="M1282 561 l-199 -301 l199 0 l0 301 ZM926 121 l-2 129 l299 457 l235 0 l0 -447 l123 0 l0 -139 l-123 0 l0 -121 l-176 0 l0 121 l-356 0 ZM313 688 q-126 0 -202.5 71 q-76.5 71 -92.5 185 l189 0 q7 -38 35 -59 q28 -21 67 -21 q45 0 71 19.5 q26 19.5 26 54.5 q0 35 -26 54.5 q-26 19.5 -71 19.5 l-100 0 l-2 110 l135 121 l-303 -2 l0 172 l510 0 l0 -156 l-152 -135 q191 -36 191 -202 q0 -108 -77 -170 q-77 -62 -198 -62 ZM526 0 l-264 0 l836 1413 l264 0 l-836 -1413 Z" /><glyph glyph-name="questiondown" unicode="¿" d="M555 -152 q107 0 181 54 q74 54 98 157 l301 0 q-20 -103 -67 -189.5 q-47 -86.5 -119 -154 q-72 -67.5 -175.5 -105.5 q-103.5 -38 -228.5 -38 q-227 0 -357.5 107.5 q-130.5 107.5 -130.5 279.5 q0 138 79 239.5 q79 101.5 255 182.5 q52 26 78.5 43 q26.5 17 41.5 42 q15 25 18 49.5 q3 24.5 3 74.5 l285 0 q0 -80 -8 -131 q-8 -51 -31.5 -99 q-23.5 -48 -68 -84.5 q-44.5 -36.5 -117.5 -72.5 q-131 -67 -185.5 -113.5 q-54.5 -46.5 -54.5 -107.5 q0 -60 52 -97 q52 -37 151 -37 ZM492 868 q0 73 53 127 q53 54 127 54 q73 0 127.5 -54.5 q54.5 -54.5 54.5 -126.5 q0 -76 -53.5 -130 q-53.5 -54 -128.5 -54 q-76 0 -128 53.5 q-52 53.5 -52 130.5 Z" /><glyph glyph-name="Agrave" unicode="À" d="M729 1133 l-213 -596 l426 0 l-213 596 ZM324 0 l-291 0 l530 1413 l330 0 l534 -1413 l-292 0 l-109 303 l-594 0 l-108 -303 ZM662 1524 l-375 264 l342 0 l311 -264 l-278 0 Z" /><glyph glyph-name="Aacute" unicode="Á" d="M729 1133 l-213 -596 l426 0 l-213 596 ZM324 0 l-291 0 l530 1413 l330 0 l534 -1413 l-292 0 l-109 303 l-594 0 l-108 -303 ZM766 1534 l-279 0 l312 264 l342 0 l-375 -264 Z" /><glyph glyph-name="Acircumflex" unicode="Â" d="M729 1133 l-213 -596 l426 0 l-213 596 ZM324 0 l-291 0 l530 1413 l330 0 l534 -1413 l-292 0 l-109 303 l-594 0 l-108 -303 ZM539 1528 l-234 0 l291 332 l244 0 l295 -332 l-234 0 l-180 172 l-182 -172 Z" /><glyph glyph-name="Atilde" unicode="Ã" d="M729 1133 l-213 -596 l426 0 l-213 596 ZM324 0 l-291 0 l530 1413 l330 0 l534 -1413 l-292 0 l-109 303 l-594 0 l-108 -303 ZM358 1544 l-2 221 q83 62 195 62 q69 0 129 -22 q60 -22 112.5 -44 q52.5 -22 104.5 -22 q91 0 188 73 l2 -225 q-88 -59 -202 -59 q-67 0 -128 22 q-61 22 -113 44 q-52 22 -99 22 q-90 0 -187 -72 Z" /><glyph glyph-name="Adieresis" unicode="Ä" d="M729 1133 l-213 -596 l426 0 l-213 596 ZM324 0 l-291 0 l530 1413 l330 0 l534 -1413 l-292 0 l-109 303 l-594 0 l-108 -303 ZM315 1681 q0 60 43.5 103 q43.5 43 104.5 43 q61 0 104 -43 q43 -43 43 -103 q0 -63 -42.5 -105 q-42.5 -42 -104.5 -42 q-62 0 -105 42 q-43 42 -43 105 ZM825 1681 q0 61 42.5 103.5 q42.5 42.5 105.5 42.5 q60 0 103.5 -43 q43.5 -43 43.5 -103 q0 -61 -43 -104 q-43 -43 -104 -43 q-63 0 -105.5 42 q-42.5 42 -42.5 105 Z" /><glyph glyph-name="Aring" unicode="Å" d="M729 1133 l-213 -596 l426 0 l-213 596 ZM573 1782 q0 -60 43.5 -104 q43.5 -44 104.5 -44 q61 0 103 43.5 q42 43.5 42 104.5 q0 62 -42 104.5 q-42 42.5 -103 42.5 q-62 0 -105 -43 q-43 -43 -43 -104 ZM324 0 l-291 0 l530 1413 l330 0 l534 -1413 l-292 0 l-109 303 l-594 0 l-108 -303 ZM414 1782 q0 126 90 215.5 q90 89.5 217 89.5 q126 0 215.5 -89.5 q89.5 -89.5 89.5 -215.5 q0 -125 -89.5 -214 q-89.5 -89 -215.5 -89 q-127 0 -217 89 q-90 89 -90 214 Z" /><glyph glyph-name="AE" unicode="Æ" d="M1016 1147 l-336 -561 l403 0 l-26 561 l-41 0 ZM0 0 l870 1413 l1276 0 l0 -266 l-803 0 l15 -309 l692 0 l0 -240 l-682 0 l16 -332 l762 0 l0 -266 l-1036 0 l-14 330 l-568 0 l-196 -330 l-332 0 Z" /><glyph glyph-name="Ccedilla" unicode="Ç" d="M86 709 q0 201 100.5 370.5 q100.5 169.5 273 267 q172.5 97.5 376.5 97.5 q244 0 433 -151.5 q189 -151.5 253 -389.5 l-301 0 q-49 124 -151.5 193 q-102.5 69 -233.5 69 q-130 0 -234.5 -60.5 q-104.5 -60.5 -162.5 -164.5 q-58 -104 -58 -231 q0 -196 129 -328.5 q129 -132.5 326 -132.5 q131 0 233.5 69 q102.5 69 151.5 193 l301 0 q-58 -217 -225 -365.5 q-167 -148.5 -388 -171.5 l-53 -79 q45 10 88 10 q37 0 72 -10.5 q35 -10.5 65.5 -31.5 q30.5 -21 49 -59 q18.5 -38 18.5 -88 q0 -119 -82.5 -178 q-82.5 -59 -212.5 -59 q-144 0 -254 55 l0 176 q41 -24 107 -42.5 q66 -18.5 135 -18.5 q114 0 114 67 q0 60 -94 60 q-77 0 -145 -35 l-64 96 l92 139 q-184 21 -334.5 123 q-150.5 102 -237.5 263 q-87 161 -87 348 Z" /><glyph glyph-name="Egrave" unicode="È" d="M176 1413 l1000 0 l0 -266 l-713 0 l0 -289 l618 0 l0 -264 l-618 0 l0 -328 l713 0 l0 -266 l-1000 0 l0 1413 ZM289 1788 l342 0 l311 -264 l-278 0 l-375 264 Z" /><glyph glyph-name="Eacute" unicode="É" d="M176 1413 l1000 0 l0 -266 l-713 0 l0 -289 l618 0 l0 -264 l-618 0 l0 -328 l713 0 l0 -266 l-1000 0 l0 1413 ZM489 1534 l312 264 l342 0 l-375 -264 l-279 0 Z" /><glyph glyph-name="Ecircumflex" unicode="Ê" d="M176 1413 l1000 0 l0 -266 l-713 0 l0 -289 l618 0 l0 -264 l-618 0 l0 -328 l713 0 l0 -266 l-1000 0 l0 1413 ZM307 1528 l291 332 l244 0 l295 -332 l-234 0 l-180 172 l-182 -172 l-234 0 Z" /><glyph glyph-name="Edieresis" unicode="Ë" d="M176 1413 l1000 0 l0 -266 l-713 0 l0 -289 l618 0 l0 -264 l-618 0 l0 -328 l713 0 l0 -266 l-1000 0 l0 1413 ZM317 1681 q0 60 43.5 103 q43.5 43 104.5 43 q61 0 104 -43 q43 -43 43 -103 q0 -63 -42.5 -105 q-42.5 -42 -104.5 -42 q-62 0 -105 42 q-43 42 -43 105 ZM827 1681 q0 61 42.5 103.5 q42.5 42.5 105.5 42.5 q60 0 103.5 -43 q43.5 -43 43.5 -103 q0 -61 -43 -104 q-43 -43 -104 -43 q-63 0 -105.5 42 q-42.5 42 -42.5 105 Z" /><glyph glyph-name="Igrave" unicode="Ì" d="M176 1413 l287 0 l0 -1413 l-287 0 l0 1413 ZM-113 1788 l342 0 l312 -264 l-279 0 l-375 264 Z" /><glyph glyph-name="Iacute" unicode="Í" d="M176 1413 l287 0 l0 -1413 l-287 0 l0 1413 ZM88 1534 l311 264 l342 0 l-374 -264 l-279 0 Z" /><glyph glyph-name="Icircumflex" unicode="Î" d="M176 1413 l287 0 l0 -1413 l-287 0 l0 1413 ZM-94 1528 l291 332 l243 0 l295 -332 l-233 0 l-180 172 l-183 -172 l-233 0 Z" /><glyph glyph-name="Idieresis" unicode="Ï" d="M176 1413 l287 0 l0 -1413 l-287 0 l0 1413 ZM-84 1681 q0 60 43 103 q43 43 104 43 q61 0 104.5 -43 q43.5 -43 43.5 -103 q0 -63 -43 -105 q-43 -42 -105 -42 q-62 0 -104.5 42 q-42.5 42 -42.5 105 ZM426 1681 q0 61 42.5 103.5 q42.5 42.5 104.5 42.5 q60 0 104 -43 q44 -43 44 -103 q0 -61 -43 -104 q-43 -43 -105 -43 q-63 0 -105 42 q-42 42 -42 105 Z" /><glyph glyph-name="Eth" unicode="Ð" d="M524 590 l0 -326 l250 0 q216 0 347.5 123.5 q131.5 123.5 131.5 321.5 q0 191 -132.5 315.5 q-132.5 124.5 -346.5 124.5 l-250 0 l0 -299 l426 0 l0 -260 l-426 0 ZM780 0 l-542 0 l0 590 l-140 0 l0 260 l140 0 l0 563 l542 0 q164 0 306.5 -53.5 q142.5 -53.5 243.5 -146.5 q101 -93 158.5 -223.5 q57.5 -130.5 57.5 -278.5 q0 -205 -99 -367.5 q-99 -162.5 -273.5 -253 q-174.5 -90.5 -393.5 -90.5 Z" /><glyph glyph-name="Ntilde" unicode="Ñ" d="M1108 0 l-651 997 l0 -997 l-281 0 l0 1413 l348 0 l621 -950 l0 950 l280 0 l0 -1413 l-317 0 ZM475 1765 q83 62 195 62 q69 0 129 -22 q60 -22 112.5 -44 q52.5 -22 104.5 -22 q91 0 188 73 l2 -225 q-88 -59 -202 -59 q-67 0 -128 22 q-61 22 -113 44 q-52 22 -99 22 q-90 0 -187 -72 l-2 221 Z" /><glyph glyph-name="Ograve" unicode="Ò" d="M836 -31 q-154 0 -292.5 57.5 q-138.5 57.5 -239 156 q-100.5 98.5 -159.5 236.5 q-59 138 -59 292 q0 200 100.5 368.5 q100.5 168.5 273 266.5 q172.5 98 376.5 98 q152 0 290 -58.5 q138 -58.5 238.5 -156.5 q100.5 -98 159.5 -234 q59 -136 59 -284 q0 -205 -100.5 -376 q-100.5 -171 -272 -268.5 q-171.5 -97.5 -374.5 -97.5 ZM381 709 q0 -195 131 -328 q131 -133 324 -133 q192 0 322 133 q130 133 130 328 q0 124 -59 228.5 q-59 104.5 -163.5 166 q-104.5 61.5 -229.5 61.5 q-192 0 -323.5 -133 q-131.5 -133 -131.5 -323 ZM403 1788 l342 0 l312 -264 l-279 0 l-375 264 Z" /><glyph glyph-name="Oacute" unicode="Ó" d="M836 -31 q-154 0 -292.5 57.5 q-138.5 57.5 -239 156 q-100.5 98.5 -159.5 236.5 q-59 138 -59 292 q0 200 100.5 368.5 q100.5 168.5 273 266.5 q172.5 98 376.5 98 q152 0 290 -58.5 q138 -58.5 238.5 -156.5 q100.5 -98 159.5 -234 q59 -136 59 -284 q0 -205 -100.5 -376 q-100.5 -171 -272 -268.5 q-171.5 -97.5 -374.5 -97.5 ZM381 709 q0 -195 131 -328 q131 -133 324 -133 q192 0 322 133 q130 133 130 328 q0 124 -59 228.5 q-59 104.5 -163.5 166 q-104.5 61.5 -229.5 61.5 q-192 0 -323.5 -133 q-131.5 -133 -131.5 -323 ZM604 1534 l311 264 l342 0 l-374 -264 l-279 0 Z" /><glyph glyph-name="Ocircumflex" unicode="Ô" d="M381 709 q0 -195 131 -328 q131 -133 324 -133 q192 0 322 133 q130 133 130 328 q0 124 -59 228.5 q-59 104.5 -163.5 166 q-104.5 61.5 -229.5 61.5 q-192 0 -323.5 -133 q-131.5 -133 -131.5 -323 ZM836 -31 q-154 0 -292.5 57.5 q-138.5 57.5 -239 156 q-100.5 98.5 -159.5 236.5 q-59 138 -59 292 q0 200 100.5 368.5 q100.5 168.5 273 266.5 q172.5 98 376.5 98 q152 0 290 -58.5 q138 -58.5 238.5 -156.5 q100.5 -98 159.5 -234 q59 -136 59 -284 q0 -205 -100.5 -376 q-100.5 -171 -272 -268.5 q-171.5 -97.5 -374.5 -97.5 ZM655 1528 l-233 0 l291 332 l243 0 l295 -332 l-233 0 l-180 172 l-183 -172 Z" /><glyph glyph-name="Otilde" unicode="Õ" d="M381 709 q0 -195 131 -328 q131 -133 324 -133 q192 0 322 133 q130 133 130 328 q0 124 -59 228.5 q-59 104.5 -163.5 166 q-104.5 61.5 -229.5 61.5 q-192 0 -323.5 -133 q-131.5 -133 -131.5 -323 ZM836 -31 q-154 0 -292.5 57.5 q-138.5 57.5 -239 156 q-100.5 98.5 -159.5 236.5 q-59 138 -59 292 q0 200 100.5 368.5 q100.5 168.5 273 266.5 q172.5 98 376.5 98 q152 0 290 -58.5 q138 -58.5 238.5 -156.5 q100.5 -98 159.5 -234 q59 -136 59 -284 q0 -205 -100.5 -376 q-100.5 -171 -272 -268.5 q-171.5 -97.5 -374.5 -97.5 ZM475 1544 l-2 221 q83 62 195 62 q69 0 129 -22 q60 -22 112.5 -44 q52.5 -22 104.5 -22 q91 0 188 73 l2 -225 q-88 -59 -203 -59 q-67 0 -127.5 22 q-60.5 22 -112.5 44 q-52 22 -99 22 q-90 0 -187 -72 Z" /><glyph glyph-name="Odieresis" unicode="Ö" d="M836 -31 q-154 0 -292.5 57.5 q-138.5 57.5 -239 156 q-100.5 98.5 -159.5 236.5 q-59 138 -59 292 q0 200 100.5 368.5 q100.5 168.5 273 266.5 q172.5 98 376.5 98 q152 0 290 -58.5 q138 -58.5 238.5 -156.5 q100.5 -98 159.5 -234 q59 -136 59 -284 q0 -205 -100.5 -376 q-100.5 -171 -272 -268.5 q-171.5 -97.5 -374.5 -97.5 ZM381 709 q0 -195 131 -328 q131 -133 324 -133 q192 0 322 133 q130 133 130 328 q0 124 -59 228.5 q-59 104.5 -163.5 166 q-104.5 61.5 -229.5 61.5 q-192 0 -323.5 -133 q-131.5 -133 -131.5 -323 ZM432 1681 q0 60 43.5 103 q43.5 43 104.5 43 q61 0 104 -43 q43 -43 43 -103 q0 -63 -42.5 -105 q-42.5 -42 -104.5 -42 q-62 0 -105 42 q-43 42 -43 105 ZM942 1681 q0 61 43 103.5 q43 42.5 105 42.5 q60 0 103.5 -43 q43.5 -43 43.5 -103 q0 -61 -42.5 -104 q-42.5 -43 -104.5 -43 q-63 0 -105.5 42 q-42.5 42 -42.5 105 Z" /><glyph glyph-name="multiply" unicode="×" d="M801 281 l-254 278 l-256 -278 l-182 163 l270 295 l-270 295 l184 166 l254 -276 l252 276 l184 -166 l-270 -295 l270 -295 l-182 -163 Z" /><glyph glyph-name="Oslash" unicode="Ø" d="M381 709 q0 -166 96 -289 l604 674 q-110 71 -245 71 q-192 0 -323.5 -133 q-131.5 -133 -131.5 -323 ZM1208 971 l-596 -666 q102 -57 224 -57 q192 0 322 133 q130 133 130 328 q0 143 -80 262 ZM1247 1321 l103 113 l176 -156 l-103 -115 q160 -200 160 -452 q0 -205 -100.5 -376 q-100.5 -171 -272 -268.5 q-171.5 -97.5 -374.5 -97.5 q-211 0 -392 107 l-116 -131 l-176 155 l112 125 q-85 98 -131.5 223.5 q-46.5 125.5 -46.5 262.5 q0 200 100.5 368.5 q100.5 168.5 273 266.5 q172.5 98 376.5 98 q226 0 411 -123 Z" /><glyph glyph-name="Ugrave" unicode="Ù" d="M762 -33 q-279 0 -450 185 q-171 185 -171 512 l0 749 l287 0 l0 -749 q0 -210 92 -314 q92 -104 242 -104 q151 0 243.5 104 q92.5 104 92.5 314 l0 749 l286 0 l0 -749 q0 -327 -170.5 -512 q-170.5 -185 -451.5 -185 ZM330 1788 l342 0 l311 -264 l-278 0 l-375 264 Z" /><glyph glyph-name="Uacute" unicode="Ú" d="M762 -33 q-279 0 -450 185 q-171 185 -171 512 l0 749 l287 0 l0 -749 q0 -210 92 -314 q92 -104 242 -104 q151 0 243.5 104 q92.5 104 92.5 314 l0 749 l286 0 l0 -749 q0 -327 -170.5 -512 q-170.5 -185 -451.5 -185 ZM530 1534 l312 264 l342 0 l-375 -264 l-279 0 Z" /><glyph glyph-name="Ucircumflex" unicode="Û" d="M762 -33 q-279 0 -450 185 q-171 185 -171 512 l0 749 l287 0 l0 -749 q0 -210 92 -314 q92 -104 242 -104 q151 0 243.5 104 q92.5 104 92.5 314 l0 749 l286 0 l0 -749 q0 -327 -170.5 -512 q-170.5 -185 -451.5 -185 ZM348 1528 l291 332 l244 0 l295 -332 l-234 0 l-180 172 l-182 -172 l-234 0 Z" /><glyph glyph-name="Udieresis" unicode="Ü" d="M762 -33 q-279 0 -450 185 q-171 185 -171 512 l0 749 l287 0 l0 -749 q0 -210 92 -314 q92 -104 242 -104 q151 0 243.5 104 q92.5 104 92.5 314 l0 749 l286 0 l0 -749 q0 -327 -170.5 -512 q-170.5 -185 -451.5 -185 ZM358 1681 q0 60 43.5 103 q43.5 43 104.5 43 q61 0 104 -43 q43 -43 43 -103 q0 -63 -42.5 -105 q-42.5 -42 -104.5 -42 q-62 0 -105 42 q-43 42 -43 105 ZM868 1681 q0 61 43 103.5 q43 42.5 105 42.5 q60 0 103.5 -43 q43.5 -43 43.5 -103 q0 -61 -42.5 -104 q-42.5 -43 -104.5 -43 q-63 0 -105.5 42 q-42.5 42 -42.5 105 Z" /><glyph glyph-name="Yacute" unicode="Ý" d="M553 0 l0 608 l-537 805 l336 0 l348 -541 l347 541 l325 0 l-534 -813 l0 -600 l-285 0 ZM465 1534 l311 264 l342 0 l-375 -264 l-278 0 Z" /><glyph glyph-name="Thorn" unicode="Þ" d="M461 954 l0 -432 l260 0 q113 0 179.5 61 q66.5 61 66.5 156 q0 94 -66.5 154.5 q-66.5 60.5 -179.5 60.5 l-260 0 ZM176 1413 l285 0 l0 -194 l272 0 q236 0 382.5 -136 q146.5 -136 146.5 -342 q0 -208 -146 -346.5 q-146 -138.5 -383 -138.5 l-272 0 l0 -256 l-285 0 l0 1413 Z" /><glyph glyph-name="germandbls" unicode="ß" d="M766 -25 q-136 0 -236 29 l0 256 q91 -33 181 -33 q111 0 172 57 q61 57 61 152 q0 94 -60.5 147.5 q-60.5 53.5 -172.5 53.5 l-160 0 l-2 219 l51 0 q98 0 155.5 62 q57.5 62 57.5 151 q0 97 -55.5 151 q-55.5 54 -147.5 54 q-97 0 -160 -66.5 q-63 -66.5 -63 -199.5 l0 -1008 l-272 0 l0 981 q0 138 41 244.5 q41 106.5 112 171 q71 64.5 160.5 97 q89.5 32.5 192.5 32.5 q201 0 328.5 -113 q127.5 -113 127.5 -291 q0 -97 -51 -182.5 q-51 -85.5 -131 -134.5 q148 -39 232.5 -144.5 q84.5 -105.5 84.5 -257.5 q0 -190 -126 -309 q-126 -119 -320 -119 Z" /><glyph glyph-name="agrave" unicode="à" d="M330 528 q0 -126 86 -212.5 q86 -86.5 209 -86.5 q120 0 205 87.5 q85 87.5 85 211.5 q0 120 -85 207.5 q-85 87.5 -205 87.5 q-122 0 -208.5 -87 q-86.5 -87 -86.5 -208 ZM571 -31 q-138 0 -256 73.5 q-118 73.5 -188 202.5 q-70 129 -70 283 q0 154 70 282.5 q70 128.5 188 201.5 q118 73 256 73 q111 0 198 -52 q87 -52 146 -146 l0 166 l269 0 l0 -1053 l-269 0 l0 170 q-124 -201 -344 -201 ZM598 1229 l-283 383 l293 0 l219 -383 l-229 0 Z" /><glyph glyph-name="aacute" unicode="á" d="M330 528 q0 -126 86 -212.5 q86 -86.5 209 -86.5 q120 0 205 87.5 q85 87.5 85 211.5 q0 120 -85 207.5 q-85 87.5 -205 87.5 q-122 0 -208.5 -87 q-86.5 -87 -86.5 -208 ZM571 -31 q-138 0 -256 73.5 q-118 73.5 -188 202.5 q-70 129 -70 283 q0 154 70 282.5 q70 128.5 188 201.5 q118 73 256 73 q111 0 198 -52 q87 -52 146 -146 l0 166 l269 0 l0 -1053 l-269 0 l0 170 q-124 -201 -344 -201 ZM766 1229 l-229 0 l219 383 l293 0 l-283 -383 Z" /><glyph glyph-name="acircumflex" unicode="â" d="M330 528 q0 -126 86 -212.5 q86 -86.5 209 -86.5 q120 0 205 87.5 q85 87.5 85 211.5 q0 120 -85 207.5 q-85 87.5 -205 87.5 q-122 0 -208.5 -87 q-86.5 -87 -86.5 -208 ZM571 -31 q-138 0 -256 73.5 q-118 73.5 -188 202.5 q-70 129 -70 283 q0 154 70 282.5 q70 128.5 188 201.5 q118 73 256 73 q111 0 198 -52 q87 -52 146 -146 l0 166 l269 0 l0 -1053 l-269 0 l0 170 q-124 -201 -344 -201 ZM487 1196 l-229 0 l291 379 l233 0 l293 -379 l-229 0 l-178 201 l-181 -201 Z" /><glyph glyph-name="atilde" unicode="ã" d="M330 528 q0 -126 86 -212.5 q86 -86.5 209 -86.5 q120 0 205 87.5 q85 87.5 85 211.5 q0 120 -85 207.5 q-85 87.5 -205 87.5 q-122 0 -208.5 -87 q-86.5 -87 -86.5 -208 ZM571 -31 q-138 0 -256 73.5 q-118 73.5 -188 202.5 q-70 129 -70 283 q0 154 70 282.5 q70 128.5 188 201.5 q118 73 256 73 q111 0 198 -52 q87 -52 146 -146 l0 166 l269 0 l0 -1053 l-269 0 l0 170 q-124 -201 -344 -201 ZM307 1321 l0 227 q67 45 160 45 q60 0 117 -16.5 q57 -16.5 95 -36.5 q38 -20 89 -36.5 q51 -16.5 100 -16.5 q84 0 154 51 l2 -225 q-67 -39 -156 -39 q-56 0 -113 17 q-57 17 -96.5 37 q-39.5 20 -92 37 q-52.5 17 -101.5 17 q-94 0 -158 -61 Z" /><glyph glyph-name="adieresis" unicode="ä" d="M330 528 q0 -126 86 -212.5 q86 -86.5 209 -86.5 q120 0 205 87.5 q85 87.5 85 211.5 q0 120 -85 207.5 q-85 87.5 -205 87.5 q-122 0 -208.5 -87 q-86.5 -87 -86.5 -208 ZM571 -31 q-138 0 -256 73.5 q-118 73.5 -188 202.5 q-70 129 -70 283 q0 154 70 282.5 q70 128.5 188 201.5 q118 73 256 73 q111 0 198 -52 q87 -52 146 -146 l0 166 l269 0 l0 -1053 l-269 0 l0 170 q-124 -201 -344 -201 ZM264 1391 q0 60 43.5 102.5 q43.5 42.5 104.5 42.5 q61 0 104 -42.5 q43 -42.5 43 -102.5 q0 -63 -42.5 -105.5 q-42.5 -42.5 -104.5 -42.5 q-62 0 -105 42.5 q-43 42.5 -43 105.5 ZM774 1391 q0 60 42.5 102.5 q42.5 42.5 105.5 42.5 q60 0 103.5 -42.5 q43.5 -42.5 43.5 -102.5 q0 -62 -43 -105 q-43 -43 -104 -43 q-63 0 -105.5 42.5 q-42.5 42.5 -42.5 105.5 Z" /><glyph glyph-name="aring" unicode="å" d="M330 528 q0 -126 86 -212.5 q86 -86.5 209 -86.5 q120 0 205 87.5 q85 87.5 85 211.5 q0 120 -85 207.5 q-85 87.5 -205 87.5 q-122 0 -208.5 -87 q-86.5 -87 -86.5 -208 ZM568.5 1582 q-40.5 -40 -40.5 -97 q0 -57 40.5 -97 q40.5 -40 97.5 -40 q58 0 97.5 40 q39.5 40 39.5 97 q0 57 -39.5 97 q-39.5 40 -97.5 40 q-57 0 -97.5 -40 ZM571 -31 q-138 0 -256 73.5 q-118 73.5 -188 202.5 q-70 129 -70 283 q0 154 70 282.5 q70 128.5 188 201.5 q118 73 256 73 q111 0 198 -52 q87 -52 146 -146 l0 166 l269 0 l0 -1053 l-269 0 l0 170 q-124 -201 -344 -201 ZM463 1281.5 q-84 83.5 -84 201.5 q0 118 84 201 q84 83 203 83 q120 0 203 -82.5 q83 -82.5 83 -201.5 q0 -119 -83 -202 q-83 -83 -203 -83 q-119 0 -203 83.5 Z" /><glyph glyph-name="ae" unicode="æ" d="M330 334 q0 -62 42 -97.5 q42 -35.5 115 -35.5 q48 0 90 14.5 q42 14.5 77 44.5 q35 30 55.5 82.5 q20.5 52.5 21.5 122.5 l-203 0 q-95 0 -146.5 -33.5 q-51.5 -33.5 -51.5 -97.5 ZM1024 643 l498 0 q-29 83 -91.5 132.5 q-62.5 49.5 -148.5 49.5 q-89 0 -158 -49.5 q-69 -49.5 -100 -132.5 ZM424 -31 q-168 0 -269.5 95.5 q-101.5 95.5 -101.5 246.5 q0 154 110.5 244 q110.5 90 313.5 90 l256 0 q-1 94 -45 143.5 q-44 49.5 -119 49.5 q-69 0 -115 -29.5 q-46 -29.5 -65 -83.5 l-278 0 q42 162 166.5 260 q124.5 98 300.5 98 q105 0 191 -41.5 q86 -41.5 142 -121.5 q71 76 168.5 118.5 q97.5 42.5 204.5 42.5 l6 0 q111 -1 207.5 -46.5 q96.5 -45.5 165.5 -125 q69 -79.5 106.5 -195 q37.5 -115.5 30.5 -249.5 l-790 -2 q20 -102 97 -170 q77 -68 177 -68 q83 0 141 35.5 q58 35.5 86 93.5 l279 0 q-53 -181 -194 -283 q-141 -102 -318 -102 q-122 0 -232.5 57.5 q-110.5 57.5 -183.5 159.5 q-68 -108 -181 -162.5 q-113 -54.5 -257 -54.5 Z" /><glyph glyph-name="ccedilla" unicode="ç" d="M645 -508 q-102 0 -188 39 l0 184 q77 -45 176 -45 q80 0 80 49 q0 48 -64 48 q-57 0 -143 -19 l0 96 l29 131 q-136 19 -246.5 97 q-110.5 78 -174 198 q-63.5 120 -63.5 258 q0 113 44.5 216 q44.5 103 120.5 178 q76 75 181 119 q105 44 221 44 q193 0 337.5 -123 q144.5 -123 183.5 -311 l-271 0 q-32 80 -96 127 q-64 47 -156 47 q-122 0 -208 -87.5 q-86 -87.5 -86 -211.5 q0 -123 85.5 -211 q85.5 -88 208.5 -88 q90 0 153 45 q63 45 97 123 l273 0 q-37 -166 -156 -280.5 q-119 -114.5 -285 -139.5 l-16 -71 q12 2 37 2 q76 0 131 -46 q55 -46 55 -136 q0 -106 -68.5 -169 q-68.5 -63 -191.5 -63 Z" /><glyph glyph-name="egrave" unicode="è" d="M340 643 l520 0 q-27 84 -92 134 q-65 50 -156 50 q-94 0 -166.5 -50 q-72.5 -50 -105.5 -134 ZM608 -31 q-108 0 -208.5 40 q-100.5 40 -177.5 110 q-77 70 -123.5 173.5 q-46.5 103.5 -47.5 223.5 q-1 159 76 290.5 q77 131.5 207.5 204.5 q130.5 73 283.5 72 q237 -2 390.5 -175.5 q153.5 -173.5 140.5 -442.5 l-825 -4 q24 -103 104 -169.5 q80 -66.5 186 -66.5 q164 0 240 127 l276 0 q-51 -181 -194.5 -282 q-143.5 -101 -327.5 -101 ZM555 1229 l-283 383 l293 0 l219 -383 l-229 0 Z" /><glyph glyph-name="eacute" unicode="é" d="M340 643 l520 0 q-27 84 -92 134 q-65 50 -156 50 q-94 0 -166.5 -50 q-72.5 -50 -105.5 -134 ZM608 -31 q-108 0 -208.5 40 q-100.5 40 -177.5 110 q-77 70 -123.5 173.5 q-46.5 103.5 -47.5 223.5 q-1 159 76 290.5 q77 131.5 207.5 204.5 q130.5 73 283.5 72 q237 -2 390.5 -175.5 q153.5 -173.5 140.5 -442.5 l-825 -4 q24 -103 104 -169.5 q80 -66.5 186 -66.5 q164 0 240 127 l276 0 q-51 -181 -194.5 -282 q-143.5 -101 -327.5 -101 ZM723 1229 l-229 0 l219 383 l293 0 l-283 -383 Z" /><glyph glyph-name="ecircumflex" unicode="ê" d="M340 643 l520 0 q-27 84 -92 134 q-65 50 -156 50 q-94 0 -166.5 -50 q-72.5 -50 -105.5 -134 ZM608 -31 q-108 0 -208.5 40 q-100.5 40 -177.5 110 q-77 70 -123.5 173.5 q-46.5 103.5 -47.5 223.5 q-1 159 76 290.5 q77 131.5 207.5 204.5 q130.5 73 283.5 72 q237 -2 390.5 -175.5 q153.5 -173.5 140.5 -442.5 l-825 -4 q24 -103 104 -169.5 q80 -66.5 186 -66.5 q164 0 240 127 l276 0 q-51 -181 -194.5 -282 q-143.5 -101 -327.5 -101 ZM444 1196 l-229 0 l291 379 l233 0 l293 -379 l-229 0 l-178 201 l-181 -201 Z" /><glyph glyph-name="edieresis" unicode="ë" d="M340 643 l520 0 q-27 84 -92 134 q-65 50 -156 50 q-94 0 -166.5 -50 q-72.5 -50 -105.5 -134 ZM608 -31 q-108 0 -208.5 40 q-100.5 40 -177.5 110 q-77 70 -123.5 173.5 q-46.5 103.5 -47.5 223.5 q-1 159 76 290.5 q77 131.5 207.5 204.5 q130.5 73 283.5 72 q237 -2 390.5 -175.5 q153.5 -173.5 140.5 -442.5 l-825 -4 q24 -103 104 -169.5 q80 -66.5 186 -66.5 q164 0 240 127 l276 0 q-51 -181 -194.5 -282 q-143.5 -101 -327.5 -101 ZM221 1391 q0 60 43.5 102.5 q43.5 42.5 104.5 42.5 q61 0 104 -42.5 q43 -42.5 43 -102.5 q0 -63 -42.5 -105.5 q-42.5 -42.5 -104.5 -42.5 q-62 0 -105 42.5 q-43 42.5 -43 105.5 ZM731 1391 q0 60 42.5 102.5 q42.5 42.5 105.5 42.5 q60 0 103.5 -42.5 q43.5 -42.5 43.5 -102.5 q0 -62 -43 -105 q-43 -43 -104 -43 q-63 0 -105.5 42.5 q-42.5 42.5 -42.5 105.5 Z" /><glyph glyph-name="igrave" unicode="ì" d="M160 0 l0 1053 l272 0 l0 -1053 l-272 0 ZM-55 1612 l293 0 l219 -383 l-230 0 l-282 383 Z" /><glyph glyph-name="iacute" unicode="í" d="M160 0 l0 1053 l272 0 l0 -1053 l-272 0 ZM166 1229 l219 383 l293 0 l-283 -383 l-229 0 Z" /><glyph glyph-name="icircumflex" unicode="î" d="M160 0 l0 1053 l272 0 l0 -1053 l-272 0 ZM-113 1196 l291 379 l234 0 l293 -379 l-230 0 l-178 201 l-180 -201 l-230 0 Z" /><glyph glyph-name="idieresis" unicode="ï" d="M160 0 l0 1053 l272 0 l0 -1053 l-272 0 ZM-106 1391 q0 60 43 102.5 q43 42.5 104 42.5 q61 0 104 -42.5 q43 -42.5 43 -102.5 q0 -63 -42.5 -105.5 q-42.5 -42.5 -104.5 -42.5 q-62 0 -104.5 42.5 q-42.5 42.5 -42.5 105.5 ZM403 1391 q0 60 42.5 102.5 q42.5 42.5 105.5 42.5 q60 0 103.5 -42.5 q43.5 -42.5 43.5 -102.5 q0 -62 -43 -105 q-43 -43 -104 -43 q-63 0 -105.5 42.5 q-42.5 42.5 -42.5 105.5 Z" /><glyph glyph-name="eth" unicode="ð" d="M328 512 q0 -119 84 -203 q84 -84 202 -84 q118 0 201.5 84 q83.5 84 83.5 203 q0 118 -83.5 201.5 q-83.5 83.5 -201.5 83.5 q-119 0 -202.5 -83.5 q-83.5 -83.5 -83.5 -201.5 ZM612 -31 q-156 0 -283.5 64 q-127.5 64 -202.5 182.5 q-75 118.5 -75 269.5 q0 147 68 263 q68 116 186.5 179.5 q118.5 63.5 265.5 63.5 q109 0 208 -44.5 q99 -44.5 167 -133.5 q-9 198 -115 326 l-192 -117 l-96 145 l141 86 q-76 29 -149 29 q-180 0 -299 -76 l0 258 q130 62 319 62 q223 0 383 -117 l192 117 l95 -148 l-160 -98 q152 -206 152 -537 q0 -158 -33 -288 q-33 -130 -90 -219 q-57 -89 -134.5 -150 q-77.5 -61 -165 -89 q-87.5 -28 -182.5 -28 Z" /><glyph glyph-name="ntilde" unicode="ñ" d="M141 1053 l275 0 l0 -170 q56 95 142 148.5 q86 53.5 187 53.5 q163 0 259 -109.5 q96 -109.5 96 -350.5 l0 -625 l-275 0 l0 582 q0 260 -188 260 q-92 0 -156 -72.5 q-64 -72.5 -65 -210.5 l0 -559 l-275 0 l0 1053 ZM258 1321 l0 227 q67 45 160 45 q60 0 117 -16.5 q57 -16.5 95 -36.5 q38 -20 89 -36.5 q51 -16.5 100 -16.5 q84 0 154 51 l2 -225 q-67 -39 -156 -39 q-56 0 -113 17 q-57 17 -96.5 37 q-39.5 20 -92 37 q-52.5 17 -101.5 17 q-94 0 -158 -61 Z" /><glyph glyph-name="ograve" unicode="ò" d="M621 -31 q-155 0 -286.5 75.5 q-131.5 75.5 -207.5 204.5 q-76 129 -76 281 q0 112 45 215 q45 103 121.5 177.5 q76.5 74.5 182 118.5 q105.5 44 221.5 44 q153 0 283 -74.5 q130 -74.5 206 -202.5 q76 -128 76 -278 q0 -153 -76 -282 q-76 -129 -206 -204 q-130 -75 -283 -75 ZM254 1612 l293 0 l219 -383 l-229 0 l-283 383 ZM328 528 q0 -123 84.5 -210 q84.5 -87 205.5 -87 q122 0 206.5 86.5 q84.5 86.5 84.5 210.5 q0 121 -85.5 207 q-85.5 86 -205.5 86 q-121 0 -205.5 -85.5 q-84.5 -85.5 -84.5 -207.5 Z" /><glyph glyph-name="oacute" unicode="ó" d="M621 -31 q-155 0 -286.5 75.5 q-131.5 75.5 -207.5 204.5 q-76 129 -76 281 q0 112 45 215 q45 103 121.5 177.5 q76.5 74.5 182 118.5 q105.5 44 221.5 44 q153 0 283 -74.5 q130 -74.5 206 -202.5 q76 -128 76 -278 q0 -153 -76 -282 q-76 -129 -206 -204 q-130 -75 -283 -75 ZM328 528 q0 -123 84.5 -210 q84.5 -87 205.5 -87 q122 0 206.5 86.5 q84.5 86.5 84.5 210.5 q0 121 -85.5 207 q-85.5 86 -205.5 86 q-121 0 -205.5 -85.5 q-84.5 -85.5 -84.5 -207.5 ZM475 1229 l219 383 l293 0 l-282 -383 l-230 0 Z" /><glyph glyph-name="ocircumflex" unicode="ô" d="M328 528 q0 -123 84.5 -210 q84.5 -87 205.5 -87 q122 0 206.5 86.5 q84.5 86.5 84.5 210.5 q0 121 -85.5 207 q-85.5 86 -205.5 86 q-121 0 -205.5 -85.5 q-84.5 -85.5 -84.5 -207.5 ZM621 -31 q-155 0 -286.5 75.5 q-131.5 75.5 -207.5 204.5 q-76 129 -76 281 q0 112 45 215 q45 103 121.5 177.5 q76.5 74.5 182 118.5 q105.5 44 221.5 44 q153 0 283 -74.5 q130 -74.5 206 -202.5 q76 -128 76 -278 q0 -153 -76 -282 q-76 -129 -206 -204 q-130 -75 -283 -75 ZM426 1196 l-229 0 l290 379 l234 0 l293 -379 l-230 0 l-178 201 l-180 -201 Z" /><glyph glyph-name="otilde" unicode="õ" d="M328 528 q0 -123 84.5 -210 q84.5 -87 205.5 -87 q122 0 206.5 86.5 q84.5 86.5 84.5 210.5 q0 121 -85.5 207 q-85.5 86 -205.5 86 q-121 0 -205.5 -85.5 q-84.5 -85.5 -84.5 -207.5 ZM621 -31 q-155 0 -286.5 75.5 q-131.5 75.5 -207.5 204.5 q-76 129 -76 281 q0 112 45 215 q45 103 121.5 177.5 q76.5 74.5 182 118.5 q105.5 44 221.5 44 q153 0 283 -74.5 q130 -74.5 206 -202.5 q76 -128 76 -278 q0 -153 -76 -282 q-76 -129 -206 -204 q-130 -75 -283 -75 ZM246 1321 l0 227 q67 45 160 45 q60 0 117 -16.5 q57 -16.5 95 -36.5 q38 -20 89 -36.5 q51 -16.5 100 -16.5 q84 0 154 51 l2 -225 q-67 -39 -156 -39 q-71 0 -141 27 q-70 27 -136 54 q-66 27 -127 27 q-93 0 -157 -61 Z" /><glyph glyph-name="odieresis" unicode="ö" d="M621 -31 q-155 0 -286.5 75.5 q-131.5 75.5 -207.5 204.5 q-76 129 -76 281 q0 112 45 215 q45 103 121.5 177.5 q76.5 74.5 182 118.5 q105.5 44 221.5 44 q153 0 283 -74.5 q130 -74.5 206 -202.5 q76 -128 76 -278 q0 -153 -76 -282 q-76 -129 -206 -204 q-130 -75 -283 -75 ZM203 1391 q0 60 43 102.5 q43 42.5 104 42.5 q61 0 104.5 -42.5 q43.5 -42.5 43.5 -102.5 q0 -63 -43 -105.5 q-43 -42.5 -105 -42.5 q-62 0 -104.5 42.5 q-42.5 42.5 -42.5 105.5 ZM328 528 q0 -123 84.5 -210 q84.5 -87 205.5 -87 q122 0 206.5 86.5 q84.5 86.5 84.5 210.5 q0 121 -85.5 207 q-85.5 86 -205.5 86 q-121 0 -205.5 -85.5 q-84.5 -85.5 -84.5 -207.5 ZM713 1391 q0 61 42.5 103 q42.5 42 104.5 42 q60 0 104 -42.5 q44 -42.5 44 -102.5 q0 -61 -43 -104.5 q-43 -43.5 -105 -43.5 q-63 0 -105 42.5 q-42 42.5 -42 105.5 Z" /><glyph glyph-name="divide" unicode="÷" d="M991 623 l-897 0 l0 243 l897 0 l0 -243 ZM393 399 q0 65 46.5 111.5 q46.5 46.5 109.5 46.5 q66 0 111 -46 q45 -46 45 -112 q0 -62 -46 -107.5 q-46 -45.5 -110 -45.5 q-63 0 -109.5 45.5 q-46.5 45.5 -46.5 107.5 ZM397 1110 q0 66 46.5 112 q46.5 46 109.5 46 q66 0 111 -46 q45 -46 45 -112 q0 -62 -46 -108 q-46 -46 -110 -46 q-63 0 -109.5 46 q-46.5 46 -46.5 108 Z" /><glyph glyph-name="oslash" unicode="ø" d="M315 528 q0 -78 35 -143 l389 422 q-56 24 -121 24 q-126 0 -214.5 -88.5 q-88.5 -88.5 -88.5 -214.5 ZM877 688 l-402 -432 q69 -37 143 -37 q126 0 215 90 q89 90 89 219 q0 87 -45 160 ZM621 -31 q-163 0 -306 86 l-98 -104 l-158 147 l99 105 q-107 145 -107 327 q0 112 45 214 q45 102 121.5 176.5 q76.5 74.5 182 118.5 q105.5 44 221.5 44 q156 0 282 -75 l96 102 l156 -147 l-88 -95 q119 -151 119 -338 q0 -153 -76 -282 q-76 -129 -206 -204 q-130 -75 -283 -75 Z" /><glyph glyph-name="ugrave" unicode="ù" d="M1079 0 l-274 0 l0 141 q-49 -83 -131.5 -127.5 q-82.5 -44.5 -184.5 -44.5 q-78 0 -143 26 q-65 26 -117 79.5 q-52 53.5 -81 144 q-29 90.5 -29 211.5 l0 623 l272 0 l0 -580 q0 -260 189 -260 q94 0 159 68 q65 68 66 192 l0 580 l274 0 l0 -1053 ZM258 1612 l293 0 l219 -383 l-229 0 l-283 383 Z" /><glyph glyph-name="uacute" unicode="ú" d="M1079 0 l-274 0 l0 141 q-49 -83 -131.5 -127.5 q-82.5 -44.5 -184.5 -44.5 q-78 0 -143 26 q-65 26 -117 79.5 q-52 53.5 -81 144 q-29 90.5 -29 211.5 l0 623 l272 0 l0 -580 q0 -260 189 -260 q94 0 159 68 q65 68 66 192 l0 580 l274 0 l0 -1053 ZM479 1229 l219 383 l293 0 l-282 -383 l-230 0 Z" /><glyph glyph-name="ucircumflex" unicode="û" d="M1079 0 l-274 0 l0 141 q-49 -83 -131.5 -127.5 q-82.5 -44.5 -184.5 -44.5 q-78 0 -143 26 q-65 26 -117 79.5 q-52 53.5 -81 144 q-29 90.5 -29 211.5 l0 623 l272 0 l0 -580 q0 -260 189 -260 q94 0 159 68 q65 68 66 192 l0 580 l274 0 l0 -1053 ZM201 1196 l291 379 l233 0 l293 -379 l-230 0 l-178 201 l-180 -201 l-229 0 Z" /><glyph glyph-name="udieresis" unicode="ü" d="M1079 0 l-274 0 l0 141 q-49 -83 -131.5 -127.5 q-82.5 -44.5 -184.5 -44.5 q-78 0 -143 26 q-65 26 -117 79.5 q-52 53.5 -81 144 q-29 90.5 -29 211.5 l0 623 l272 0 l0 -580 q0 -260 189 -260 q94 0 159 68 q65 68 66 192 l0 580 l274 0 l0 -1053 ZM207 1391 q0 60 43 102.5 q43 42.5 104 42.5 q61 0 104.5 -42.5 q43.5 -42.5 43.5 -102.5 q0 -63 -43 -105.5 q-43 -42.5 -105 -42.5 q-62 0 -104.5 42.5 q-42.5 42.5 -42.5 105.5 ZM717 1391 q0 61 42.5 103 q42.5 42 104.5 42 q60 0 104 -42.5 q44 -42.5 44 -102.5 q0 -61 -43 -104.5 q-43 -43.5 -105 -43.5 q-63 0 -105 42.5 q-42 42.5 -42 105.5 Z" /><glyph glyph-name="yacute" unicode="ý" d="M299 -348 l137 348 l-418 1053 l293 0 l269 -709 l270 709 l285 0 l-551 -1401 l-285 0 ZM451 1229 l219 383 l293 0 l-283 -383 l-229 0 Z" /><glyph glyph-name="thorn" unicode="þ" d="M397 528 q0 -124 85.5 -211.5 q85.5 -87.5 205.5 -87.5 q124 0 209.5 85.5 q85.5 85.5 85.5 211.5 q0 122 -86.5 209.5 q-86.5 87.5 -208.5 87.5 q-120 0 -205.5 -86.5 q-85.5 -86.5 -85.5 -208.5 ZM397 -348 l-272 0 l0 1843 l272 0 l0 -602 q63 91 152.5 141.5 q89.5 50.5 195.5 50.5 q101 0 194.5 -43.5 q93.5 -43.5 162.5 -117.5 q69 -74 110 -177.5 q41 -103.5 41 -218.5 q0 -155 -69.5 -284 q-69.5 -129 -186 -202 q-116.5 -73 -252.5 -73 q-105 0 -195 51 q-90 51 -153 142 l0 -510 Z" /><glyph glyph-name="ydieresis" unicode="ÿ" d="M299 -348 l137 348 l-418 1053 l293 0 l269 -709 l270 709 l285 0 l-551 -1401 l-285 0 ZM178 1391 q0 60 43.5 102.5 q43.5 42.5 104.5 42.5 q61 0 104 -42.5 q43 -42.5 43 -102.5 q0 -63 -42.5 -105.5 q-42.5 -42.5 -104.5 -42.5 q-62 0 -105 42.5 q-43 42.5 -43 105.5 ZM688 1391 q0 60 42.5 102.5 q42.5 42.5 105.5 42.5 q60 0 103.5 -42.5 q43.5 -42.5 43.5 -102.5 q0 -62 -43 -105 q-43 -43 -104 -43 q-63 0 -105.5 42.5 q-42.5 42.5 -42.5 105.5 Z" /><glyph glyph-name="Amacron" unicode="&#x100;" d="M729 1133 l-213 -596 l426 0 l-213 596 ZM324 0 l-291 0 l530 1413 l330 0 l534 -1413 l-292 0 l-109 303 l-594 0 l-108 -303 ZM1096 1563 l-756 0 l0 221 l756 0 l0 -221 Z" /><glyph glyph-name="amacron" unicode="&#x101;" d="M330 528 q0 -126 86 -212.5 q86 -86.5 209 -86.5 q120 0 205 87.5 q85 87.5 85 211.5 q0 120 -85 207.5 q-85 87.5 -205 87.5 q-122 0 -208.5 -87 q-86.5 -87 -86.5 -208 ZM571 -31 q-138 0 -256 73.5 q-118 73.5 -188 202.5 q-70 129 -70 283 q0 154 70 282.5 q70 128.5 188 201.5 q118 73 256 73 q111 0 198 -52 q87 -52 146 -146 l0 166 l269 0 l0 -1053 l-269 0 l0 170 q-124 -201 -344 -201 ZM1044 1298 l-755 0 l0 222 l755 0 l0 -222 Z" /><glyph glyph-name="Abreve" unicode="&#x102;" d="M729 1133 l-213 -596 l426 0 l-213 596 ZM324 0 l-291 0 l530 1413 l330 0 l534 -1413 l-292 0 l-109 303 l-594 0 l-108 -303 ZM344 1882 l213 0 q0 -72 43.5 -118 q43.5 -46 118.5 -46 q76 0 120 46 q44 46 44 118 l215 0 q1 -63 -22.5 -124.5 q-23.5 -61.5 -68 -113.5 q-44.5 -52 -120 -84 q-75.5 -32 -168.5 -32 q-93 0 -166.5 32 q-73.5 32 -117.5 84 q-44 52 -67 113 q-23 61 -24 125 Z" /><glyph glyph-name="abreve" unicode="&#x103;" d="M330 528 q0 -126 86 -212.5 q86 -86.5 209 -86.5 q120 0 205 87.5 q85 87.5 85 211.5 q0 120 -85 207.5 q-85 87.5 -205 87.5 q-122 0 -208.5 -87 q-86.5 -87 -86.5 -208 ZM571 -31 q-138 0 -256 73.5 q-118 73.5 -188 202.5 q-70 129 -70 283 q0 154 70 282.5 q70 128.5 188 201.5 q118 73 256 73 q111 0 198 -52 q87 -52 146 -146 l0 166 l269 0 l0 -1053 l-269 0 l0 170 q-124 -201 -344 -201 ZM293 1602 l217 0 q0 -88 42 -136.5 q42 -48.5 116 -48.5 q76 0 117.5 48.5 q41.5 48.5 41.5 136.5 l220 0 q0 -69 -23 -132 q-23 -63 -67.5 -115.5 q-44.5 -52.5 -119.5 -84 q-75 -31.5 -169 -31.5 q-94 0 -168 31.5 q-74 31.5 -118 84 q-44 52.5 -66.5 115.5 q-22.5 63 -22.5 132 Z" /><glyph glyph-name="Aogonek" unicode="&#x104;" d="M729 1133 l-213 -596 l426 0 l-213 596 ZM324 0 l-291 0 l530 1413 l330 0 l534 -1413 q-107 -41 -173 -93 q-66 -52 -66 -102 q0 -28 23 -43.5 q23 -15.5 65 -15.5 q77 0 139 27 l0 -193 q-83 -33 -198 -33 q-115 0 -185.5 50 q-70.5 50 -70.5 155 q0 138 180 248 l-6 0 l-109 303 l-594 0 l-108 -303 Z" /><glyph glyph-name="aogonek" unicode="&#x105;" d="M330 528 q0 -126 86 -212.5 q86 -86.5 209 -86.5 q120 0 205 87.5 q85 87.5 85 211.5 q0 120 -85 207.5 q-85 87.5 -205 87.5 q-122 0 -208.5 -87 q-86.5 -87 -86.5 -208 ZM571 -31 q-138 0 -256 73.5 q-118 73.5 -188 202.5 q-70 129 -70 283 q0 154 70 282.5 q70 128.5 188 201.5 q118 73 256 73 q111 0 198 -52 q87 -52 146 -146 l0 166 l269 0 l0 -1053 q-104 -42 -163.5 -96.5 q-59.5 -54.5 -59.5 -110.5 q0 -38 22.5 -59 q22.5 -21 65.5 -21 q63 0 127 31 l0 -201 q-76 -26 -177 -26 q-106 0 -176.5 58.5 q-70.5 58.5 -70.5 166.5 q0 153 163 272 l0 156 q-124 -201 -344 -201 Z" /><glyph glyph-name="Cacute" unicode="&#x106;" d="M86 709 q0 201 100.5 370.5 q100.5 169.5 273 267 q172.5 97.5 376.5 97.5 q244 0 433 -151.5 q189 -151.5 253 -389.5 l-301 0 q-49 124 -151.5 193 q-102.5 69 -233.5 69 q-130 0 -234.5 -60.5 q-104.5 -60.5 -162.5 -164.5 q-58 -104 -58 -231 q0 -196 129 -328.5 q129 -132.5 326 -132.5 q131 0 233.5 69 q102.5 69 151.5 193 l301 0 q-62 -236 -252 -388.5 q-190 -152.5 -434 -152.5 q-204 0 -376.5 98.5 q-172.5 98.5 -273 269 q-100.5 170.5 -100.5 372.5 ZM621 1534 l311 264 l342 0 l-375 -264 l-278 0 Z" /><glyph glyph-name="cacute" unicode="&#x107;" d="M618 -31 q-155 0 -285.5 75 q-130.5 75 -206 203.5 q-75.5 128.5 -75.5 280.5 q0 113 44.5 216 q44.5 103 120.5 178 q76 75 181 119 q105 44 221 44 q193 0 337.5 -123 q144.5 -123 183.5 -311 l-271 0 q-32 80 -96 127 q-64 47 -156 47 q-122 0 -208 -87.5 q-86 -87.5 -86 -211.5 q0 -123 85.5 -211 q85.5 -88 208.5 -88 q90 0 153 45 q63 45 97 123 l273 0 q-42 -186 -185 -306 q-143 -120 -336 -120 ZM469 1229 l219 383 l293 0 l-283 -383 l-229 0 Z" /><glyph glyph-name="Ccircumflex" unicode="&#x108;" d="M86 709 q0 201 100.5 370.5 q100.5 169.5 273 267 q172.5 97.5 376.5 97.5 q244 0 433 -151.5 q189 -151.5 253 -389.5 l-301 0 q-49 124 -151.5 193 q-102.5 69 -233.5 69 q-130 0 -234.5 -60.5 q-104.5 -60.5 -162.5 -164.5 q-58 -104 -58 -231 q0 -196 129 -328.5 q129 -132.5 326 -132.5 q131 0 233.5 69 q102.5 69 151.5 193 l301 0 q-62 -236 -252 -388.5 q-190 -152.5 -434 -152.5 q-204 0 -376.5 98.5 q-172.5 98.5 -273 269 q-100.5 170.5 -100.5 372.5 ZM438 1528 l291 332 l244 0 l295 -332 l-234 0 l-180 172 l-182 -172 l-234 0 Z" /><glyph glyph-name="ccircumflex" unicode="&#x109;" d="M618 -31 q-155 0 -285.5 75 q-130.5 75 -206 203.5 q-75.5 128.5 -75.5 280.5 q0 113 44.5 216 q44.5 103 120.5 178 q76 75 181 119 q105 44 221 44 q193 0 337.5 -123 q144.5 -123 183.5 -311 l-271 0 q-32 80 -96 127 q-64 47 -156 47 q-122 0 -208 -87.5 q-86 -87.5 -86 -211.5 q0 -123 85.5 -211 q85.5 -88 208.5 -88 q90 0 153 45 q63 45 97 123 l273 0 q-42 -186 -185 -306 q-143 -120 -336 -120 ZM190 1196 l291 379 l234 0 l293 -379 l-230 0 l-178 201 l-180 -201 l-230 0 Z" /><glyph glyph-name="Cdotaccent" unicode="&#x10a;" d="M86 709 q0 201 100.5 370.5 q100.5 169.5 273 267 q172.5 97.5 376.5 97.5 q244 0 433 -151.5 q189 -151.5 253 -389.5 l-301 0 q-49 124 -151.5 193 q-102.5 69 -233.5 69 q-130 0 -234.5 -60.5 q-104.5 -60.5 -162.5 -164.5 q-58 -104 -58 -231 q0 -196 129 -328.5 q129 -132.5 326 -132.5 q131 0 233.5 69 q102.5 69 151.5 193 l301 0 q-62 -236 -252 -388.5 q-190 -152.5 -434 -152.5 q-204 0 -376.5 98.5 q-172.5 98.5 -273 269 q-100.5 170.5 -100.5 372.5 ZM702 1751 q0 60 43.5 102.5 q43.5 42.5 106.5 42.5 q61 0 103 -42.5 q42 -42.5 42 -102.5 q0 -63 -42.5 -105 q-42.5 -42 -102.5 -42 q-63 0 -106.5 42 q-43.5 42 -43.5 105 Z" /><glyph glyph-name="cdotaccent" unicode="&#x10b;" d="M618 -31 q-155 0 -285.5 75 q-130.5 75 -206 203.5 q-75.5 128.5 -75.5 280.5 q0 113 44.5 216 q44.5 103 120.5 178 q76 75 181 119 q105 44 221 44 q193 0 337.5 -123 q144.5 -123 183.5 -311 l-271 0 q-32 80 -96 127 q-64 47 -156 47 q-122 0 -208 -87.5 q-86 -87.5 -86 -211.5 q0 -123 85.5 -211 q85.5 -88 208.5 -88 q90 0 153 45 q63 45 97 123 l273 0 q-42 -186 -185 -306 q-143 -120 -336 -120 ZM451 1391 q0 60 43 102.5 q43 42.5 106 42.5 q61 0 103 -42.5 q42 -42.5 42 -102.5 q0 -63 -42.5 -105.5 q-42.5 -42.5 -102.5 -42.5 q-63 0 -106 42.5 q-43 42.5 -43 105.5 Z" /><glyph glyph-name="Ccaron" unicode="&#x10c;" d="M86 709 q0 201 100.5 370.5 q100.5 169.5 273 267 q172.5 97.5 376.5 97.5 q244 0 433 -151.5 q189 -151.5 253 -389.5 l-301 0 q-49 124 -151.5 193 q-102.5 69 -233.5 69 q-130 0 -234.5 -60.5 q-104.5 -60.5 -162.5 -164.5 q-58 -104 -58 -231 q0 -196 129 -328.5 q129 -132.5 326 -132.5 q131 0 233.5 69 q102.5 69 151.5 193 l301 0 q-62 -236 -252 -388.5 q-190 -152.5 -434 -152.5 q-204 0 -376.5 98.5 q-172.5 98.5 -273 269 q-100.5 170.5 -100.5 372.5 ZM438 1860 l234 0 l182 -172 l180 172 l234 0 l-295 -332 l-244 0 l-291 332 Z" /><glyph glyph-name="ccaron" unicode="&#x10d;" d="M618 -31 q-155 0 -285.5 75 q-130.5 75 -206 203.5 q-75.5 128.5 -75.5 280.5 q0 113 44.5 216 q44.5 103 120.5 178 q76 75 181 119 q105 44 221 44 q193 0 337.5 -123 q144.5 -123 183.5 -311 l-271 0 q-32 80 -96 127 q-64 47 -156 47 q-122 0 -208 -87.5 q-86 -87.5 -86 -211.5 q0 -123 85.5 -211 q85.5 -88 208.5 -88 q90 0 153 45 q63 45 97 123 l273 0 q-42 -186 -185 -306 q-143 -120 -336 -120 ZM186 1561 l230 0 l180 -201 l178 201 l230 0 l-293 -379 l-234 0 l-291 379 Z" /><glyph glyph-name="Dcaron" unicode="&#x10e;" d="M463 1149 l0 -885 l250 0 q216 0 347.5 123.5 q131.5 123.5 131.5 321.5 q0 191 -132.5 315.5 q-132.5 124.5 -346.5 124.5 l-250 0 ZM719 0 l-543 0 l0 1413 l543 0 q164 0 306.5 -53.5 q142.5 -53.5 243.5 -146.5 q101 -93 158.5 -223.5 q57.5 -130.5 57.5 -278.5 q0 -205 -99 -367.5 q-99 -162.5 -273.5 -253 q-174.5 -90.5 -393.5 -90.5 ZM594 1528 l-291 332 l234 0 l182 -172 l180 172 l234 0 l-295 -332 l-244 0 Z" /><glyph glyph-name="dcaron" unicode="&#x10f;" d="M324 528 q0 -127 85 -213 q85 -86 207 -86 q120 0 205.5 87.5 q85.5 87.5 85.5 211.5 q0 122 -85.5 209.5 q-85.5 87.5 -205.5 87.5 q-121 0 -206.5 -87.5 q-85.5 -87.5 -85.5 -209.5 ZM1178 0 l-271 0 l0 166 q-61 -93 -150.5 -145 q-89.5 -52 -197.5 -52 q-136 0 -252.5 73.5 q-116.5 73.5 -186 202.5 q-69.5 129 -69.5 283 q0 154 69.5 282.5 q69.5 128.5 186 201.5 q116.5 73 252.5 73 q108 0 197.5 -51.5 q89.5 -51.5 150.5 -144.5 l0 606 l271 0 l0 -1495 ZM1497 1116 l-203 0 l95 535 l256 0 l-148 -535 Z" /><glyph glyph-name="Dcroat" unicode="&#x110;" d="M524 590 l0 -326 l250 0 q216 0 347.5 123.5 q131.5 123.5 131.5 321.5 q0 191 -132.5 315.5 q-132.5 124.5 -346.5 124.5 l-250 0 l0 -299 l426 0 l0 -260 l-426 0 ZM780 0 l-542 0 l0 590 l-140 0 l0 260 l140 0 l0 563 l542 0 q164 0 306.5 -53.5 q142.5 -53.5 243.5 -146.5 q101 -93 158.5 -223.5 q57.5 -130.5 57.5 -278.5 q0 -205 -99 -367.5 q-99 -162.5 -273.5 -253 q-174.5 -90.5 -393.5 -90.5 Z" /><glyph glyph-name="dcroat" unicode="&#x111;" d="M324 528 q0 -127 85 -213 q85 -86 207 -86 q120 0 205.5 87.5 q85.5 87.5 85.5 211.5 q0 122 -85.5 209.5 q-85.5 87.5 -205.5 87.5 q-121 0 -206.5 -87.5 q-85.5 -87.5 -85.5 -209.5 ZM1178 0 l-271 0 l0 166 q-61 -93 -150.5 -145 q-89.5 -52 -197.5 -52 q-136 0 -252.5 73.5 q-116.5 73.5 -186 202.5 q-69.5 129 -69.5 283 q0 154 69.5 282.5 q69.5 128.5 186 201.5 q116.5 73 252.5 73 q108 0 197.5 -51.5 q89.5 -51.5 150.5 -144.5 l0 311 l-387 0 l0 199 l387 0 l0 96 l271 0 l0 -96 l122 0 l0 -199 l-122 0 l0 -1200 Z" /><glyph glyph-name="Emacron" unicode="&#x112;" d="M176 1413 l1000 0 l0 -266 l-713 0 l0 -289 l618 0 l0 -264 l-618 0 l0 -328 l713 0 l0 -266 l-1000 0 l0 1413 ZM342 1563 l0 221 l756 0 l0 -221 l-756 0 Z" /><glyph glyph-name="emacron" unicode="&#x113;" d="M340 643 l520 0 q-27 84 -92 134 q-65 50 -156 50 q-94 0 -166.5 -50 q-72.5 -50 -105.5 -134 ZM608 -31 q-108 0 -208.5 40 q-100.5 40 -177.5 110 q-77 70 -123.5 173.5 q-46.5 103.5 -47.5 223.5 q-1 159 76 290.5 q77 131.5 207.5 204.5 q130.5 73 283.5 72 q237 -2 390.5 -175.5 q153.5 -173.5 140.5 -442.5 l-825 -4 q24 -103 104 -169.5 q80 -66.5 186 -66.5 q164 0 240 127 l276 0 q-51 -181 -194.5 -282 q-143.5 -101 -327.5 -101 ZM1001 1298 l-755 0 l0 222 l755 0 l0 -222 Z" /><glyph glyph-name="Ebreve" unicode="&#x114;" d="M176 1413 l1000 0 l0 -266 l-713 0 l0 -289 l618 0 l0 -264 l-618 0 l0 -328 l713 0 l0 -266 l-1000 0 l0 1413 ZM346 1882 l213 0 q0 -72 43.5 -118 q43.5 -46 118.5 -46 q76 0 120 46 q44 46 44 118 l215 0 q1 -63 -22.5 -124.5 q-23.5 -61.5 -68 -113.5 q-44.5 -52 -120 -84 q-75.5 -32 -168.5 -32 q-93 0 -166.5 32 q-73.5 32 -117.5 84 q-44 52 -67 113 q-23 61 -24 125 Z" /><glyph glyph-name="ebreve" unicode="&#x115;" d="M340 643 l520 0 q-27 84 -92 134 q-65 50 -156 50 q-94 0 -166.5 -50 q-72.5 -50 -105.5 -134 ZM608 -31 q-108 0 -208.5 40 q-100.5 40 -177.5 110 q-77 70 -123.5 173.5 q-46.5 103.5 -47.5 223.5 q-1 159 76 290.5 q77 131.5 207.5 204.5 q130.5 73 283.5 72 q237 -2 390.5 -175.5 q153.5 -173.5 140.5 -442.5 l-825 -4 q24 -103 104 -169.5 q80 -66.5 186 -66.5 q164 0 240 127 l276 0 q-51 -181 -194.5 -282 q-143.5 -101 -327.5 -101 ZM250 1602 l217 0 q0 -88 42 -136.5 q42 -48.5 116 -48.5 q76 0 117.5 48.5 q41.5 48.5 41.5 136.5 l220 0 q0 -69 -23 -132 q-23 -63 -67.5 -115.5 q-44.5 -52.5 -119.5 -84 q-75 -31.5 -169 -31.5 q-94 0 -168 31.5 q-74 31.5 -118 84 q-44 52.5 -66.5 115.5 q-22.5 63 -22.5 132 Z" /><glyph glyph-name="Edotaccent" unicode="&#x116;" d="M176 1413 l1000 0 l0 -266 l-713 0 l0 -289 l618 0 l0 -264 l-618 0 l0 -328 l713 0 l0 -266 l-1000 0 l0 1413 ZM571 1751 q0 60 43.5 102.5 q43.5 42.5 106.5 42.5 q61 0 103 -42.5 q42 -42.5 42 -102.5 q0 -63 -42 -105 q-42 -42 -103 -42 q-63 0 -106.5 42 q-43.5 42 -43.5 105 Z" /><glyph glyph-name="edotaccent" unicode="&#x117;" d="M340 643 l520 0 q-27 84 -92 134 q-65 50 -156 50 q-94 0 -166.5 -50 q-72.5 -50 -105.5 -134 ZM608 -31 q-108 0 -208.5 40 q-100.5 40 -177.5 110 q-77 70 -123.5 173.5 q-46.5 103.5 -47.5 223.5 q-1 159 76 290.5 q77 131.5 207.5 204.5 q130.5 73 283.5 72 q237 -2 390.5 -175.5 q153.5 -173.5 140.5 -442.5 l-825 -4 q24 -103 104 -169.5 q80 -66.5 186 -66.5 q164 0 240 127 l276 0 q-51 -181 -194.5 -282 q-143.5 -101 -327.5 -101 ZM475 1391 q0 60 43.5 102.5 q43.5 42.5 106.5 42.5 q61 0 103 -42.5 q42 -42.5 42 -102.5 q0 -63 -42.5 -105.5 q-42.5 -42.5 -102.5 -42.5 q-63 0 -106.5 42.5 q-43.5 42.5 -43.5 105.5 Z" /><glyph glyph-name="Eogonek" unicode="&#x118;" d="M176 1413 l1000 0 l0 -266 l-713 0 l0 -289 l618 0 l0 -264 l-618 0 l0 -328 l713 0 l0 -205 l41 -61 q-108 -41 -174 -93 q-66 -52 -66 -102 q0 -28 23 -43.5 q23 -15.5 65 -15.5 q77 0 139 27 l0 -193 q-82 -33 -198 -33 q-115 0 -185.5 50 q-70.5 50 -70.5 155 q0 138 180 248 l-754 0 l0 1413 Z" /><glyph glyph-name="eogonek" unicode="&#x119;" d="M340 643 l520 0 q-27 84 -92 134 q-65 50 -156 50 q-94 0 -166.5 -50 q-72.5 -50 -105.5 -134 ZM51 516 q-1 159 76 290.5 q77 131.5 207.5 204.5 q130.5 73 283.5 72 q237 -2 390.5 -175.5 q153.5 -173.5 140.5 -442.5 l-825 -4 q24 -103 104 -169.5 q80 -66.5 186 -66.5 q164 0 240 127 l276 0 q-37 -132 -125 -222.5 q-88 -90.5 -210 -131.5 q-166 -83 -166 -180 q0 -38 22.5 -59 q22.5 -21 65.5 -21 q63 0 127 31 l0 -201 q-79 -27 -176 -27 q-106 0 -177 59 q-71 59 -71 167 q0 111 92 210 q-126 22 -229 93 q-103 71 -167 188 q-64 117 -65 258 Z" /><glyph glyph-name="Ecaron" unicode="&#x11a;" d="M176 1413 l1000 0 l0 -266 l-713 0 l0 -289 l618 0 l0 -264 l-618 0 l0 -328 l713 0 l0 -266 l-1000 0 l0 1413 ZM307 1860 l234 0 l182 -172 l180 172 l234 0 l-295 -332 l-244 0 l-291 332 Z" /><glyph glyph-name="ecaron" unicode="&#x11b;" d="M340 643 l520 0 q-27 84 -92 134 q-65 50 -156 50 q-94 0 -166.5 -50 q-72.5 -50 -105.5 -134 ZM608 -31 q-108 0 -208.5 40 q-100.5 40 -177.5 110 q-77 70 -123.5 173.5 q-46.5 103.5 -47.5 223.5 q-1 159 76 290.5 q77 131.5 207.5 204.5 q130.5 73 283.5 72 q237 -2 390.5 -175.5 q153.5 -173.5 140.5 -442.5 l-825 -4 q24 -103 104 -169.5 q80 -66.5 186 -66.5 q164 0 240 127 l276 0 q-51 -181 -194.5 -282 q-143.5 -101 -327.5 -101 ZM502 1182 l-291 379 l229 0 l181 -201 l178 201 l229 0 l-293 -379 l-233 0 Z" /><glyph glyph-name="Gcircumflex" unicode="&#x11c;" d="M827 -31 q-150 0 -287 58 q-137 58 -236.5 157 q-99.5 99 -158.5 236 q-59 137 -59 289 q0 201 100.5 370.5 q100.5 169.5 273 267 q172.5 97.5 376.5 97.5 q237 0 422 -141.5 q185 -141.5 247 -364.5 l-313 0 q-44 107 -140 167 q-96 60 -216 60 q-130 0 -234.5 -60.5 q-104.5 -60.5 -162.5 -164.5 q-58 -104 -58 -231 q0 -196 129 -328.5 q129 -132.5 326 -132.5 q119 0 222 37 q103 37 169 108 l0 162 l-422 0 l0 236 l704 0 l0 -791 l-215 0 l-32 125 q-190 -156 -435 -156 ZM418 1528 l291 332 l243 0 l295 -332 l-233 0 l-180 172 l-183 -172 l-233 0 Z" /><glyph glyph-name="gcircumflex" unicode="&#x11d;" d="M326 573 q0 -116 75 -194 q75 -78 189 -78 q112 0 187 77 q75 77 75 193 q0 116 -75 196.5 q-75 80.5 -187 80.5 q-113 0 -188.5 -80 q-75.5 -80 -75.5 -195 ZM586 -379 q-200 0 -336 101 q-136 101 -174 284 l280 0 q20 -73 78 -112 q58 -39 148 -39 q128 0 199 84.5 q71 84.5 71 261.5 l0 57 q-55 -91 -140.5 -141.5 q-85.5 -50.5 -191.5 -50.5 q-193 0 -329 145 q-136 145 -136 362 q0 216 136.5 363 q136.5 147 328.5 147 q105 0 191 -52 q86 -52 141 -144 l0 166 l272 0 l0 -826 q0 -158 -42.5 -277.5 q-42.5 -119.5 -117.5 -190 q-75 -70.5 -169.5 -104.5 q-94.5 -34 -208.5 -34 ZM455 1196 l-230 0 l291 379 l234 0 l292 -379 l-229 0 l-178 201 l-180 -201 Z" /><glyph glyph-name="Gbreve" unicode="&#x11e;" d="M827 -31 q-150 0 -287 58 q-137 58 -236.5 157 q-99.5 99 -158.5 236 q-59 137 -59 289 q0 201 100.5 370.5 q100.5 169.5 273 267 q172.5 97.5 376.5 97.5 q237 0 422 -141.5 q185 -141.5 247 -364.5 l-313 0 q-44 107 -140 167 q-96 60 -216 60 q-130 0 -234.5 -60.5 q-104.5 -60.5 -162.5 -164.5 q-58 -104 -58 -231 q0 -196 129 -328.5 q129 -132.5 326 -132.5 q119 0 222 37 q103 37 169 108 l0 162 l-422 0 l0 236 l704 0 l0 -791 l-215 0 l-32 125 q-190 -156 -435 -156 ZM457 1882 l213 0 q0 -72 43 -118 q43 -46 118 -46 q76 0 120 46 q44 46 44 118 l215 0 q1 -63 -22.5 -124.5 q-23.5 -61.5 -68 -113.5 q-44.5 -52 -120 -84 q-75.5 -32 -168.5 -32 q-93 0 -166.5 32 q-73.5 32 -117 84 q-43.5 52 -66.5 113 q-23 61 -24 125 Z" /><glyph glyph-name="gbreve" unicode="&#x11f;" d="M326 573 q0 -116 75 -194 q75 -78 189 -78 q112 0 187 77 q75 77 75 193 q0 116 -75 196.5 q-75 80.5 -187 80.5 q-113 0 -188.5 -80 q-75.5 -80 -75.5 -195 ZM586 -379 q-200 0 -336 101 q-136 101 -174 284 l280 0 q20 -73 78 -112 q58 -39 148 -39 q128 0 199 84.5 q71 84.5 71 261.5 l0 57 q-55 -91 -140.5 -141.5 q-85.5 -50.5 -191.5 -50.5 q-193 0 -329 145 q-136 145 -136 362 q0 216 136.5 363 q136.5 147 328.5 147 q105 0 191 -52 q86 -52 141 -144 l0 166 l272 0 l0 -826 q0 -158 -42.5 -277.5 q-42.5 -119.5 -117.5 -190 q-75 -70.5 -169.5 -104.5 q-94.5 -34 -208.5 -34 ZM260 1602 l217 0 q0 -88 42 -136.5 q42 -48.5 116 -48.5 q76 0 118 48.5 q42 48.5 42 136.5 l219 0 q0 -69 -23 -132 q-23 -63 -67.5 -115.5 q-44.5 -52.5 -119.5 -84 q-75 -31.5 -169 -31.5 q-94 0 -168 31.5 q-74 31.5 -118 84 q-44 52.5 -66.5 115.5 q-22.5 63 -22.5 132 Z" /><glyph glyph-name="Gdotaccent" unicode="&#x120;" d="M827 -31 q-150 0 -287 58 q-137 58 -236.5 157 q-99.5 99 -158.5 236 q-59 137 -59 289 q0 201 100.5 370.5 q100.5 169.5 273 267 q172.5 97.5 376.5 97.5 q237 0 422 -141.5 q185 -141.5 247 -364.5 l-313 0 q-44 107 -140 167 q-96 60 -216 60 q-130 0 -234.5 -60.5 q-104.5 -60.5 -162.5 -164.5 q-58 -104 -58 -231 q0 -196 129 -328.5 q129 -132.5 326 -132.5 q119 0 222 37 q103 37 169 108 l0 162 l-422 0 l0 236 l704 0 l0 -791 l-215 0 l-32 125 q-190 -156 -435 -156 ZM682 1751 q0 60 43 102.5 q43 42.5 106 42.5 q61 0 103.5 -42.5 q42.5 -42.5 42.5 -102.5 q0 -62 -42.5 -104.5 q-42.5 -42.5 -103.5 -42.5 q-63 0 -106 42 q-43 42 -43 105 Z" /><glyph glyph-name="gdotaccent" unicode="&#x121;" d="M326 573 q0 -116 75 -194 q75 -78 189 -78 q112 0 187 77 q75 77 75 193 q0 116 -75 196.5 q-75 80.5 -187 80.5 q-113 0 -188.5 -80 q-75.5 -80 -75.5 -195 ZM586 -379 q-200 0 -336 101 q-136 101 -174 284 l280 0 q20 -73 78 -112 q58 -39 148 -39 q128 0 199 84.5 q71 84.5 71 261.5 l0 57 q-55 -91 -140.5 -141.5 q-85.5 -50.5 -191.5 -50.5 q-193 0 -329 145 q-136 145 -136 362 q0 216 136.5 363 q136.5 147 328.5 147 q105 0 191 -52 q86 -52 141 -144 l0 166 l272 0 l0 -826 q0 -158 -42.5 -277.5 q-42.5 -119.5 -117.5 -190 q-75 -70.5 -169.5 -104.5 q-94.5 -34 -208.5 -34 ZM485 1391 q0 60 43.5 102.5 q43.5 42.5 106.5 42.5 q61 0 103 -42.5 q42 -42.5 42 -102.5 q0 -63 -42.5 -105.5 q-42.5 -42.5 -102.5 -42.5 q-63 0 -106.5 42.5 q-43.5 42.5 -43.5 105.5 Z" /><glyph glyph-name="uni0122" unicode="&#x122;" d="M827 -31 q-150 0 -287 58 q-137 58 -236.5 157 q-99.5 99 -158.5 236 q-59 137 -59 289 q0 201 100.5 370.5 q100.5 169.5 273 267 q172.5 97.5 376.5 97.5 q237 0 422 -141.5 q185 -141.5 247 -364.5 l-313 0 q-44 107 -140 167 q-96 60 -216 60 q-130 0 -234.5 -60.5 q-104.5 -60.5 -162.5 -164.5 q-58 -104 -58 -231 q0 -196 129 -328.5 q129 -132.5 326 -132.5 q119 0 222 37 q103 37 169 108 l0 162 l-422 0 l0 236 l704 0 l0 -791 l-215 0 l-32 125 q-190 -156 -435 -156 ZM614 -586 l107 451 l266 0 l-199 -451 l-174 0 Z" /><glyph glyph-name="uni0123" unicode="&#x123;" d="M326 573 q0 -116 75 -194 q75 -78 189 -78 q112 0 187 77 q75 77 75 193 q0 116 -75 196.5 q-75 80.5 -187 80.5 q-113 0 -188.5 -80 q-75.5 -80 -75.5 -195 ZM586 -379 q-200 0 -336 101 q-136 101 -174 284 l280 0 q20 -73 78 -112 q58 -39 148 -39 q128 0 199 84.5 q71 84.5 71 261.5 l0 57 q-55 -91 -140.5 -141.5 q-85.5 -50.5 -191.5 -50.5 q-193 0 -329 145 q-136 145 -136 362 q0 216 136.5 363 q136.5 147 328.5 147 q105 0 191 -52 q86 -52 141 -144 l0 166 l272 0 l0 -826 q0 -158 -42.5 -277.5 q-42.5 -119.5 -117.5 -190 q-75 -70.5 -169.5 -104.5 q-94.5 -34 -208.5 -34 ZM727 1202 l-248 0 l203 389 l164 0 l-119 -389 Z" /><glyph glyph-name="Hcircumflex" unicode="&#x124;" d="M176 1413 l287 0 l0 -543 l657 0 l0 543 l287 0 l0 -1413 l-287 0 l0 604 l-657 0 l0 -604 l-287 0 l0 1413 ZM379 1528 l291 332 l243 0 l295 -332 l-233 0 l-180 172 l-183 -172 l-233 0 Z" /><glyph glyph-name="hcircumflex" unicode="&#x125;" d="M131 1495 l275 0 l0 -604 q51 91 137 140.5 q86 49.5 192 49.5 q60 0 113 -15 q53 -15 101 -50.5 q48 -35.5 82.5 -88.5 q34.5 -53 54.5 -133 q20 -80 20 -180 l0 -614 l-275 0 l0 588 q0 254 -190 254 q-91 0 -157.5 -61.5 q-66.5 -61.5 -77.5 -182.5 l0 -598 l-275 0 l0 1495 ZM-141 1618 l291 332 l243 0 l295 -332 l-233 0 l-181 172 l-182 -172 l-233 0 Z" /><glyph glyph-name="Hbar" unicode="&#x126;" d="M463 1079 l0 -209 l657 0 l0 209 l-657 0 ZM29 1079 l0 197 l147 0 l0 137 l287 0 l0 -137 l657 0 l0 137 l287 0 l0 -137 l143 0 l0 -197 l-143 0 l0 -1079 l-287 0 l0 604 l-657 0 l0 -604 l-287 0 l0 1079 l-147 0 Z" /><glyph glyph-name="hbar" unicode="&#x127;" d="M795 1180 l-379 0 l0 -289 q51 91 137 140.5 q86 49.5 192 49.5 q60 0 113 -15 q53 -15 101 -50.5 q48 -35.5 82.5 -88.5 q34.5 -53 54.5 -133 q20 -80 20 -180 l0 -614 l-274 0 l0 588 q0 254 -191 254 q-91 0 -157.5 -61.5 q-66.5 -61.5 -77.5 -182.5 l0 -598 l-275 0 l0 1180 l-116 0 l0 223 l116 0 l0 92 l275 0 l0 -92 l379 0 l0 -223 Z" /><glyph glyph-name="Itilde" unicode="&#x128;" d="M176 1413 l287 0 l0 -1413 l-287 0 l0 1413 ZM-43 1765 q83 62 195 62 q69 0 129 -22 q60 -22 112.5 -44 q52.5 -22 104.5 -22 q91 0 188 73 l2 -225 q-88 -59 -203 -59 q-67 0 -128 22 q-61 22 -113 44 q-52 22 -99 22 q-89 0 -186 -72 l-2 221 Z" /><glyph glyph-name="itilde" unicode="&#x129;" d="M160 0 l0 1053 l272 0 l0 -1053 l-272 0 ZM-63 1321 l0 227 q67 45 159 45 q60 0 117.5 -16.5 q57.5 -16.5 95.5 -36.5 q38 -20 89 -36.5 q51 -16.5 100 -16.5 q83 0 153 51 l2 -225 q-67 -39 -155 -39 q-71 0 -141 27 q-70 27 -136 54 q-66 27 -127 27 q-93 0 -157 -61 Z" /><glyph glyph-name="Imacron" unicode="&#x12a;" d="M176 1413 l287 0 l0 -1413 l-287 0 l0 1413 ZM-59 1563 l0 221 l755 0 l0 -221 l-755 0 Z" /><glyph glyph-name="imacron" unicode="&#x12b;" d="M160 0 l0 1053 l272 0 l0 -1053 l-272 0 ZM14 1298 l0 222 l564 0 l0 -222 l-564 0 Z" /><glyph glyph-name="Ibreve" unicode="&#x12c;" d="M176 1413 l287 0 l0 -1413 l-287 0 l0 1413 ZM-55 1882 l213 0 q0 -72 43 -118 q43 -46 118 -46 q76 0 120 46 q44 46 44 118 l215 0 q1 -63 -22.5 -124.5 q-23.5 -61.5 -68 -113.5 q-44.5 -52 -120 -84 q-75.5 -32 -168.5 -32 q-93 0 -166.5 32 q-73.5 32 -117 84 q-43.5 52 -66.5 113 q-23 61 -24 125 Z" /><glyph glyph-name="ibreve" unicode="&#x12d;" d="M160 0 l0 1053 l272 0 l0 -1053 l-272 0 ZM-78 1602 l217 0 q0 -88 42 -136.5 q42 -48.5 116 -48.5 q76 0 118 48.5 q42 48.5 42 136.5 l219 0 q0 -69 -23 -132 q-23 -63 -67.5 -115.5 q-44.5 -52.5 -119.5 -84 q-75 -31.5 -169 -31.5 q-94 0 -168 31.5 q-74 31.5 -118 84 q-44 52.5 -66.5 115.5 q-22.5 63 -22.5 132 Z" /><glyph glyph-name="Iogonek" unicode="&#x12e;" d="M176 1413 l287 0 l0 -1413 l-2 0 q-108 -41 -174 -93 q-66 -52 -66 -102 q0 -28 23 -43.5 q23 -15.5 65 -15.5 q78 0 140 27 l0 -193 q-82 -33 -199 -33 q-115 0 -185.5 50 q-70.5 50 -70.5 155 q0 138 182 248 l0 1413 Z" /><glyph glyph-name="iogonek" unicode="&#x12f;" d="M297 1243 q-63 0 -106.5 42.5 q-43.5 42.5 -43.5 105.5 q0 60 43.5 102.5 q43.5 42.5 106.5 42.5 q61 0 103 -42.5 q42 -42.5 42 -102.5 q0 -63 -42.5 -105.5 q-42.5 -42.5 -102.5 -42.5 ZM0 -258 q0 152 160 268 l0 1043 l272 0 l0 -1053 q-104 -42 -163.5 -96.5 q-59.5 -54.5 -59.5 -110.5 q0 -38 22.5 -59 q22.5 -21 65.5 -21 q63 0 127 31 l0 -201 q-76 -26 -176 -26 q-106 0 -177 59 q-71 59 -71 166 Z" /><glyph glyph-name="Idotaccent" unicode="&#x130;" d="M176 1413 l287 0 l0 -1413 l-287 0 l0 1413 ZM170 1751 q0 60 43 102.5 q43 42.5 106 42.5 q61 0 103.5 -42.5 q42.5 -42.5 42.5 -102.5 q0 -62 -42.5 -104.5 q-42.5 -42.5 -103.5 -42.5 q-63 0 -106 42 q-43 42 -43 105 Z" /><glyph glyph-name="dotlessi" unicode="&#x131;" d="M160 0 l0 1053 l272 0 l0 -1053 l-272 0 Z" /><glyph glyph-name="IJ" unicode="&#x132;" d="M965 -31 q-177 0 -310 51 l0 293 q71 -37 131.5 -52 q60.5 -15 139.5 -15 q131 0 199.5 82.5 q68.5 82.5 68.5 246.5 l0 838 l287 0 l0 -833 q0 -156 -40 -275.5 q-40 -119.5 -111 -191.5 q-71 -72 -163 -108 q-92 -36 -202 -36 ZM176 0 l0 1413 l287 0 l0 -1413 l-287 0 Z" /><glyph glyph-name="ij" unicode="&#x133;" d="M141 0 l0 1053 l275 0 l0 -1053 l-275 0 ZM106 1362 q0 69 50.5 118.5 q50.5 49.5 122.5 49.5 q71 0 121.5 -49 q50.5 -49 50.5 -119 q0 -70 -50.5 -121 q-50.5 -51 -121.5 -51 q-72 0 -122.5 50.5 q-50.5 50.5 -50.5 121.5 ZM543 -362 l0 241 q18 -4 49 -4 q64 0 90.5 38.5 q26.5 38.5 26.5 113.5 l0 1026 l272 0 l0 -1012 q0 -213 -79 -311.5 q-79 -98.5 -263 -98.5 q-35 0 -96 7 ZM664 1362 q0 69 50 118.5 q50 49.5 122 49.5 q71 0 121.5 -49 q50.5 -49 50.5 -119 q0 -70 -51 -121 q-51 -51 -121 -51 q-72 0 -122 50.5 q-50 50.5 -50 121.5 Z" /><glyph glyph-name="Jcircumflex" unicode="&#x134;" d="M633 604 l0 809 l287 0 l0 -795 q0 -170 -39.5 -297 q-39.5 -127 -112 -202.5 q-72.5 -75.5 -167 -112.5 q-94.5 -37 -212.5 -37 q-188 0 -315 66 l0 293 q137 -82 284 -82 q139 0 207 88 q68 88 68 270 ZM362 1528 l291 332 l244 0 l295 -332 l-234 0 l-180 172 l-182 -172 l-234 0 Z" /><glyph glyph-name="jcircumflex" unicode="&#x135;" d="M160 -369 l0 1422 l272 0 l0 -1422 l-272 0 ZM-113 1196 l291 379 l234 0 l293 -379 l-230 0 l-178 201 l-180 -201 l-230 0 Z" /><glyph glyph-name="uni0136" unicode="&#x136;" d="M176 1413 l287 0 l0 -649 l565 649 l350 0 l-592 -670 l615 -743 l-352 0 l-586 717 l0 -717 l-287 0 l0 1413 ZM508 -586 l106 451 l267 0 l-199 -451 l-174 0 Z" /><glyph glyph-name="uni0137" unicode="&#x137;" d="M791 0 l-388 516 l0 -516 l-272 0 l0 1485 l272 0 l0 -903 l390 471 l342 0 l-435 -482 l414 -571 l-323 0 ZM369 -524 l118 389 l248 0 l-203 -389 l-163 0 Z" /><glyph glyph-name="kgreenlandic" unicode="&#x138;" d="M141 1053 l275 0 l0 -475 l401 475 l340 0 l-455 -480 l435 -573 l-330 0 l-391 514 l0 -514 l-275 0 l0 1053 Z" /><glyph glyph-name="Lacute" unicode="&#x139;" d="M176 0 l0 1413 l287 0 l0 -1145 l731 0 l0 -268 l-1018 0 ZM117 1534 l311 264 l342 0 l-375 -264 l-278 0 Z" /><glyph glyph-name="lacute" unicode="&#x13a;" d="M131 1495 l272 0 l0 -1495 l-272 0 l0 1495 ZM45 1706 l311 264 l342 0 l-374 -264 l-279 0 Z" /><glyph glyph-name="uni013B" unicode="&#x13b;" d="M176 0 l0 1413 l287 0 l0 -1145 l731 0 l0 -268 l-1018 0 ZM508 -586 l106 451 l267 0 l-199 -451 l-174 0 Z" /><glyph glyph-name="uni013C" unicode="&#x13c;" d="M131 1495 l272 0 l0 -1495 l-272 0 l0 1495 ZM39 -524 l119 389 l248 0 l-203 -389 l-164 0 Z" /><glyph glyph-name="Lcaron" unicode="&#x13d;" d="M176 0 l0 1413 l287 0 l0 -1145 l731 0 l0 -268 l-1018 0 ZM819 944 l94 535 l256 0 l-147 -535 l-203 0 Z" /><glyph glyph-name="lcaron" unicode="&#x13e;" d="M131 1495 l272 0 l0 -1495 l-272 0 l0 1495 ZM-137 2093 l229 0 l180 -201 l179 201 l229 0 l-293 -379 l-233 0 l-291 379 Z" /><glyph glyph-name="Ldot" unicode="&#x13f;" d="M176 0 l0 1413 l287 0 l0 -1145 l731 0 l0 -268 l-1018 0 ZM762 879 q0 76 53.5 130 q53.5 54 128.5 54 q76 0 128 -53.5 q52 -53.5 52 -130.5 q0 -73 -53 -127 q-53 -54 -127 -54 q-73 0 -127.5 54.5 q-54.5 54.5 -54.5 126.5 Z" /><glyph glyph-name="ldot" unicode="&#x140;" d="M131 1495 l272 0 l0 -1495 l-272 0 l0 1495 ZM575 760 q0 76 54 130 q54 54 129 54 q76 0 128 -53.5 q52 -53.5 52 -130.5 q0 -73 -53 -126.5 q-53 -53.5 -127 -53.5 q-73 0 -128 54 q-55 54 -55 126 Z" /><glyph glyph-name="Lslash" unicode="&#x141;" d="M977 811 l-451 -74 l0 -469 l731 0 l0 -268 l-1017 0 l0 690 l-205 -33 l0 228 l205 33 l0 495 l286 0 l0 -448 l451 73 l0 -227 Z" /><glyph glyph-name="lslash" unicode="&#x142;" d="M643 895 l-176 -78 l0 -817 l-272 0 l0 698 l-158 -69 l0 229 l158 70 l0 567 l272 0 l0 -448 l176 75 l0 -227 Z" /><glyph glyph-name="Nacute" unicode="&#x143;" d="M1108 0 l-651 997 l0 -997 l-281 0 l0 1413 l348 0 l621 -950 l0 950 l280 0 l0 -1413 l-317 0 ZM606 1534 l312 264 l342 0 l-375 -264 l-279 0 Z" /><glyph glyph-name="nacute" unicode="&#x144;" d="M141 1053 l275 0 l0 -170 q56 95 142 148.5 q86 53.5 187 53.5 q163 0 259 -109.5 q96 -109.5 96 -350.5 l0 -625 l-275 0 l0 582 q0 260 -188 260 q-92 0 -156 -72.5 q-64 -72.5 -65 -210.5 l0 -559 l-275 0 l0 1053 ZM487 1229 l220 383 l292 0 l-282 -383 l-230 0 Z" /><glyph glyph-name="uni0145" unicode="&#x145;" d="M1108 0 l-651 997 l0 -997 l-281 0 l0 1413 l348 0 l621 -950 l0 950 l280 0 l0 -1413 l-317 0 ZM602 -586 l107 451 l266 0 l-199 -451 l-174 0 Z" /><glyph glyph-name="uni0146" unicode="&#x146;" d="M141 1053 l275 0 l0 -170 q56 95 142 148.5 q86 53.5 187 53.5 q163 0 259 -109.5 q96 -109.5 96 -350.5 l0 -625 l-275 0 l0 582 q0 260 -188 260 q-92 0 -156 -72.5 q-64 -72.5 -65 -210.5 l0 -559 l-275 0 l0 1053 ZM410 -524 l118 389 l248 0 l-203 -389 l-163 0 Z" /><glyph glyph-name="Ncaron" unicode="&#x147;" d="M1108 0 l-651 997 l0 -997 l-281 0 l0 1413 l348 0 l621 -950 l0 950 l280 0 l0 -1413 l-317 0 ZM424 1860 l233 0 l183 -172 l180 172 l233 0 l-295 -332 l-243 0 l-291 332 Z" /><glyph glyph-name="ncaron" unicode="&#x148;" d="M141 1053 l275 0 l0 -170 q56 95 142 148.5 q86 53.5 187 53.5 q163 0 259 -109.5 q96 -109.5 96 -350.5 l0 -625 l-275 0 l0 582 q0 260 -188 260 q-92 0 -156 -72.5 q-64 -72.5 -65 -210.5 l0 -559 l-275 0 l0 1053 ZM205 1561 l229 0 l180 -201 l179 201 l229 0 l-293 -379 l-233 0 l-291 379 Z" /><glyph glyph-name="Eng" unicode="&#x14a;" d="M649 -66 q108 -59 244 -59 q167 0 231 125 l-665 991 l0 -991 l-283 0 l0 1413 l350 0 l643 -962 l0 962 l283 0 l0 -1159 q0 -159 -41.5 -282 q-41.5 -123 -116 -200 q-74.5 -77 -174.5 -116 q-100 -39 -221 -39 q-145 0 -252 39 l2 278 Z" /><glyph glyph-name="eng" unicode="&#x14b;" d="M776 -367 q-144 0 -244 66 l82 211 q52 -55 123 -55 q59 0 89 35.5 q30 35.5 30 119.5 l0 619 q0 121 -46 174 q-46 53 -140 53 q-103 0 -172 -70.5 q-69 -70.5 -70 -207.5 l0 -578 l-274 0 l0 1053 l274 0 l0 -160 q49 92 136 142 q87 50 196 50 q76 0 140 -21 q64 -21 117 -66.5 q53 -45.5 83 -126.5 q30 -81 30 -191 l0 -637 q0 -112 -29 -194.5 q-29 -82.5 -80.5 -128 q-51.5 -45.5 -112 -66.5 q-60.5 -21 -132.5 -21 Z" /><glyph glyph-name="Omacron" unicode="&#x14c;" d="M836 -31 q-154 0 -292.5 57.5 q-138.5 57.5 -239 156 q-100.5 98.5 -159.5 236.5 q-59 138 -59 292 q0 200 100.5 368.5 q100.5 168.5 273 266.5 q172.5 98 376.5 98 q152 0 290 -58.5 q138 -58.5 238.5 -156.5 q100.5 -98 159.5 -234 q59 -136 59 -284 q0 -205 -100.5 -376 q-100.5 -171 -272 -268.5 q-171.5 -97.5 -374.5 -97.5 ZM381 709 q0 -195 131 -328 q131 -133 324 -133 q192 0 322 133 q130 133 130 328 q0 124 -59 228.5 q-59 104.5 -163.5 166 q-104.5 61.5 -229.5 61.5 q-192 0 -323.5 -133 q-131.5 -133 -131.5 -323 ZM457 1563 l0 221 l755 0 l0 -221 l-755 0 Z" /><glyph glyph-name="omacron" unicode="&#x14d;" d="M621 -31 q-155 0 -286.5 75.5 q-131.5 75.5 -207.5 204.5 q-76 129 -76 281 q0 112 45 215 q45 103 121.5 177.5 q76.5 74.5 182 118.5 q105.5 44 221.5 44 q153 0 283 -74.5 q130 -74.5 206 -202.5 q76 -128 76 -278 q0 -153 -76 -282 q-76 -129 -206 -204 q-130 -75 -283 -75 ZM227 1298 l0 222 l756 0 l0 -222 l-756 0 ZM328 528 q0 -123 84.5 -210 q84.5 -87 205.5 -87 q122 0 206.5 86.5 q84.5 86.5 84.5 210.5 q0 121 -85.5 207 q-85.5 86 -205.5 86 q-121 0 -205.5 -85.5 q-84.5 -85.5 -84.5 -207.5 Z" /><glyph glyph-name="Obreve" unicode="&#x14e;" d="M381 709 q0 -195 131 -328 q131 -133 324 -133 q192 0 322 133 q130 133 130 328 q0 124 -59 228.5 q-59 104.5 -163.5 166 q-104.5 61.5 -229.5 61.5 q-192 0 -323.5 -133 q-131.5 -133 -131.5 -323 ZM836 -31 q-154 0 -292.5 57.5 q-138.5 57.5 -239 156 q-100.5 98.5 -159.5 236.5 q-59 138 -59 292 q0 200 100.5 368.5 q100.5 168.5 273 266.5 q172.5 98 376.5 98 q152 0 290 -58.5 q138 -58.5 238.5 -156.5 q100.5 -98 159.5 -234 q59 -136 59 -284 q0 -205 -100.5 -376 q-100.5 -171 -272 -268.5 q-171.5 -97.5 -374.5 -97.5 ZM461 1882 l213 0 q0 -72 43.5 -118 q43.5 -46 118.5 -46 q76 0 119.5 46 q43.5 46 43.5 118 l215 0 q1 -64 -22 -125 q-23 -61 -68 -113 q-45 -52 -120 -84 q-75 -32 -168 -32 q-93 0 -166.5 32 q-73.5 32 -117.5 84 q-44 52 -67 113 q-23 61 -24 125 Z" /><glyph glyph-name="obreve" unicode="&#x14f;" d="M328 528 q0 -123 84.5 -210 q84.5 -87 205.5 -87 q122 0 206.5 86.5 q84.5 86.5 84.5 210.5 q0 121 -85.5 207 q-85.5 86 -205.5 86 q-121 0 -205.5 -85.5 q-84.5 -85.5 -84.5 -207.5 ZM621 -31 q-155 0 -286.5 75.5 q-131.5 75.5 -207.5 204.5 q-76 129 -76 281 q0 112 45 215 q45 103 121.5 177.5 q76.5 74.5 182 118.5 q105.5 44 221.5 44 q153 0 283 -74.5 q130 -74.5 206 -202.5 q76 -128 76 -278 q0 -153 -76 -282 q-76 -129 -206 -204 q-130 -75 -283 -75 ZM231 1602 l218 0 q0 -89 41.5 -137 q41.5 -48 115.5 -48 q76 0 118 48.5 q42 48.5 42 136.5 l219 0 q0 -69 -23 -132 q-23 -63 -67.5 -115.5 q-44.5 -52.5 -119.5 -84 q-75 -31.5 -169 -31.5 q-94 0 -168 31.5 q-74 31.5 -118 84 q-44 52.5 -66.5 115.5 q-22.5 63 -22.5 132 Z" /><glyph glyph-name="Ohungarumlaut" unicode="&#x150;" d="M836 -31 q-154 0 -292.5 57.5 q-138.5 57.5 -239 156 q-100.5 98.5 -159.5 236.5 q-59 138 -59 292 q0 200 100.5 368.5 q100.5 168.5 273 266.5 q172.5 98 376.5 98 q152 0 290 -58.5 q138 -58.5 238.5 -156.5 q100.5 -98 159.5 -234 q59 -136 59 -284 q0 -205 -100.5 -376 q-100.5 -171 -272 -268.5 q-171.5 -97.5 -374.5 -97.5 ZM381 709 q0 -195 131 -328 q131 -133 324 -133 q192 0 322 133 q130 133 130 328 q0 124 -59 228.5 q-59 104.5 -163.5 166 q-104.5 61.5 -229.5 61.5 q-192 0 -323.5 -133 q-131.5 -133 -131.5 -323 ZM461 1487 l205 272 l309 0 l-256 -272 l-258 0 ZM881 1487 l258 272 l338 0 l-326 -272 l-270 0 Z" /><glyph glyph-name="ohungarumlaut" unicode="&#x151;" d="M621 -31 q-155 0 -286.5 75.5 q-131.5 75.5 -207.5 204.5 q-76 129 -76 281 q0 112 45 215 q45 103 121.5 177.5 q76.5 74.5 182 118.5 q105.5 44 221.5 44 q153 0 283 -74.5 q130 -74.5 206 -202.5 q76 -128 76 -278 q0 -153 -76 -282 q-76 -129 -206 -204 q-130 -75 -283 -75 ZM297 1229 l154 383 l288 0 l-215 -383 l-227 0 ZM328 528 q0 -123 84.5 -210 q84.5 -87 205.5 -87 q122 0 206.5 86.5 q84.5 86.5 84.5 210.5 q0 121 -85.5 207 q-85.5 86 -205.5 86 q-121 0 -205.5 -85.5 q-84.5 -85.5 -84.5 -207.5 ZM680 1229 l238 383 l288 0 l-299 -383 l-227 0 Z" /><glyph glyph-name="OE" unicode="&#x152;" d="M381 707 q0 -193 131.5 -317 q131.5 -124 345.5 -124 l156 0 l0 881 l-156 0 q-214 0 -345.5 -124 q-131.5 -124 -131.5 -316 ZM2003 0 l-1151 0 q-163 0 -305.5 54 q-142.5 54 -243.5 148 q-101 94 -159 226 q-58 132 -58 283 q0 198 98.5 358.5 q98.5 160.5 274 252 q175.5 91.5 393.5 91.5 l1151 0 l0 -266 l-705 0 l0 -303 l611 0 l0 -230 l-611 0 l0 -348 l705 0 l0 -266 Z" /><glyph glyph-name="oe" unicode="&#x153;" d="M328 528 q0 -123 84.5 -210 q84.5 -87 205.5 -87 q122 0 206.5 86.5 q84.5 86.5 84.5 210.5 q0 121 -85.5 207 q-85.5 86 -205.5 86 q-121 0 -205.5 -85.5 q-84.5 -85.5 -84.5 -207.5 ZM1204 643 l520 0 q-27 84 -91.5 134 q-64.5 50 -155.5 50 q-94 0 -167 -50 q-73 -50 -106 -134 ZM621 -31 q-155 0 -286.5 75.5 q-131.5 75.5 -207.5 204.5 q-76 129 -76 281 q0 112 45 215 q45 103 121.5 177.5 q76.5 74.5 182 118.5 q105.5 44 221.5 44 q127 0 239 -52 q112 -52 191 -144 q78 90 190 142 q112 52 236 52 l6 0 q155 -1 278.5 -78.5 q123.5 -77.5 192 -219.5 q68.5 -142 59.5 -320 l-825 -4 q24 -103 104.5 -169.5 q80.5 -66.5 186.5 -66.5 q163 0 239 127 l277 0 q-51 -181 -194.5 -282 q-143.5 -101 -327.5 -101 q-123 0 -235.5 51 q-112.5 51 -190.5 142 q-79 -91 -190 -142 q-111 -51 -236 -51 Z" /><glyph glyph-name="Racute" unicode="&#x154;" d="M463 1145 l0 -377 l317 0 q92 0 149.5 52 q57.5 52 57.5 134 q0 83 -58 137 q-58 54 -149 54 l-317 0 ZM463 0 l-287 0 l0 1413 l615 0 q222 0 355.5 -120.5 q133.5 -120.5 133.5 -323.5 q0 -165 -101.5 -275.5 q-101.5 -110.5 -275.5 -138.5 l494 -555 l-359 0 l-493 547 l-82 0 l0 -547 ZM791 1843 l342 0 l-375 -264 l-279 0 l312 264 Z" /><glyph glyph-name="racute" unicode="&#x155;" d="M141 1053 l262 0 l0 -199 q40 106 128 164 q88 58 221 51 l0 -281 q-177 15 -255.5 -67 q-78.5 -82 -78.5 -258 l0 -463 l-277 0 l0 1053 ZM289 1229 l219 383 l293 0 l-283 -383 l-229 0 Z" /><glyph glyph-name="uni0156" unicode="&#x156;" d="M463 1145 l0 -377 l317 0 q92 0 149.5 52 q57.5 52 57.5 134 q0 83 -58 137 q-58 54 -149 54 l-317 0 ZM463 0 l-287 0 l0 1413 l615 0 q222 0 355.5 -120.5 q133.5 -120.5 133.5 -323.5 q0 -165 -101.5 -275.5 q-101.5 -110.5 -275.5 -138.5 l494 -555 l-359 0 l-493 547 l-82 0 l0 -547 ZM475 -586 l107 451 l266 0 l-199 -451 l-174 0 Z" /><glyph glyph-name="uni0157" unicode="&#x157;" d="M141 1053 l262 0 l0 -199 q40 106 128 164 q88 58 221 51 l0 -281 q-177 15 -255.5 -67 q-78.5 -82 -78.5 -258 l0 -463 l-277 0 l0 1053 ZM59 -524 l119 389 l248 0 l-203 -389 l-164 0 Z" /><glyph glyph-name="Rcaron" unicode="&#x158;" d="M463 1145 l0 -377 l317 0 q92 0 149.5 52 q57.5 52 57.5 134 q0 83 -58 137 q-58 54 -149 54 l-317 0 ZM463 0 l-287 0 l0 1413 l615 0 q222 0 355.5 -120.5 q133.5 -120.5 133.5 -323.5 q0 -165 -101.5 -275.5 q-101.5 -110.5 -275.5 -138.5 l494 -555 l-359 0 l-493 547 l-82 0 l0 -547 ZM893 1905 l233 0 l-295 -332 l-243 0 l-291 332 l233 0 l183 -172 l180 172 Z" /><glyph glyph-name="rcaron" unicode="&#x159;" d="M141 1053 l262 0 l0 -199 q40 106 128 164 q88 58 221 51 l0 -281 q-177 15 -255.5 -67 q-78.5 -82 -78.5 -258 l0 -463 l-277 0 l0 1053 ZM6 1561 l230 0 l180 -201 l178 201 l229 0 l-293 -379 l-233 0 l-291 379 Z" /><glyph glyph-name="Sacute" unicode="&#x15a;" d="M584 -31 q-218 0 -361.5 118.5 q-143.5 118.5 -181.5 344.5 l281 0 q49 -219 258 -219 q88 0 149.5 43.5 q61.5 43.5 61.5 130.5 q0 80 -62.5 129 q-62.5 49 -212.5 86 q-450 102 -450 451 q0 171 126.5 281 q126.5 110 329.5 110 q196 0 334.5 -108.5 q138.5 -108.5 181.5 -321.5 l-282 0 q-21 91 -80.5 138.5 q-59.5 47.5 -147.5 47.5 q-80 0 -131 -37.5 q-51 -37.5 -51 -103.5 q0 -79 64.5 -123.5 q64.5 -44.5 212.5 -81.5 q105 -26 184 -63 q79 -37 140 -92 q61 -55 92.5 -132.5 q31.5 -77.5 31.5 -175.5 q0 -188 -137.5 -305 q-137.5 -117 -349.5 -117 ZM334 1579 l311 264 l342 0 l-375 -264 l-278 0 Z" /><glyph glyph-name="sacute" unicode="&#x15b;" d="M459 -31 q-159 0 -270.5 88 q-111.5 88 -145.5 262 l248 0 q12 -69 57 -104 q45 -35 111 -35 q62 0 102.5 30.5 q40.5 30.5 40.5 84.5 q0 59 -42.5 88 q-42.5 29 -141.5 51 q-352 80 -352 340 q0 135 99 223 q99 88 257 88 q149 0 255.5 -83.5 q106.5 -83.5 141.5 -249.5 l-244 0 q-17 63 -55.5 94 q-38.5 31 -91.5 31 q-54 0 -89.5 -27 q-35.5 -27 -35.5 -76 q0 -53 44 -82 q44 -29 151 -53 q59 -14 106.5 -31.5 q47.5 -17.5 93 -45.5 q45.5 -28 76.5 -63.5 q31 -35.5 49.5 -86.5 q18.5 -51 18.5 -113 q0 -105 -54 -181 q-54 -76 -139.5 -112.5 q-85.5 -36.5 -189.5 -36.5 ZM336 1229 l219 383 l293 0 l-283 -383 l-229 0 Z" /><glyph glyph-name="Scircumflex" unicode="&#x15c;" d="M584 -31 q-218 0 -361.5 118.5 q-143.5 118.5 -181.5 344.5 l281 0 q49 -219 258 -219 q88 0 149.5 43.5 q61.5 43.5 61.5 130.5 q0 80 -62.5 129 q-62.5 49 -212.5 86 q-450 102 -450 451 q0 171 126.5 281 q126.5 110 329.5 110 q196 0 334.5 -108.5 q138.5 -108.5 181.5 -321.5 l-282 0 q-21 91 -80.5 138.5 q-59.5 47.5 -147.5 47.5 q-80 0 -131 -37.5 q-51 -37.5 -51 -103.5 q0 -79 64.5 -123.5 q64.5 -44.5 212.5 -81.5 q105 -26 184 -63 q79 -37 140 -92 q61 -55 92.5 -132.5 q31.5 -77.5 31.5 -175.5 q0 -188 -137.5 -305 q-137.5 -117 -349.5 -117 ZM152 1573 l290 332 l244 0 l295 -332 l-233 0 l-181 172 l-182 -172 l-233 0 Z" /><glyph glyph-name="scircumflex" unicode="&#x15d;" d="M459 -31 q-159 0 -270.5 88 q-111.5 88 -145.5 262 l248 0 q12 -69 57 -104 q45 -35 111 -35 q62 0 102.5 30.5 q40.5 30.5 40.5 84.5 q0 59 -42.5 88 q-42.5 29 -141.5 51 q-352 80 -352 340 q0 135 99 223 q99 88 257 88 q149 0 255.5 -83.5 q106.5 -83.5 141.5 -249.5 l-244 0 q-17 63 -55.5 94 q-38.5 31 -91.5 31 q-54 0 -89.5 -27 q-35.5 -27 -35.5 -76 q0 -53 44 -82 q44 -29 151 -53 q59 -14 106.5 -31.5 q47.5 -17.5 93 -45.5 q45.5 -28 76.5 -63.5 q31 -35.5 49.5 -86.5 q18.5 -51 18.5 -113 q0 -105 -54 -181 q-54 -76 -139.5 -112.5 q-85.5 -36.5 -189.5 -36.5 ZM57 1196 l291 379 l234 0 l292 -379 l-229 0 l-178 201 l-180 -201 l-230 0 Z" /><glyph glyph-name="Scedilla" unicode="&#x15e;" d="M41 432 l281 0 q49 -219 258 -219 q88 0 149.5 43.5 q61.5 43.5 61.5 130.5 q0 80 -62.5 129 q-62.5 49 -212.5 86 q-450 102 -450 451 q0 171 126.5 281 q126.5 110 329.5 110 q196 0 334.5 -108.5 q138.5 -108.5 181.5 -321.5 l-282 0 q-21 91 -80.5 138.5 q-59.5 47.5 -147.5 47.5 q-80 0 -131 -37.5 q-51 -37.5 -51 -103.5 q0 -79 64.5 -123.5 q64.5 -44.5 212.5 -81.5 q105 -26 184 -63 q79 -37 140 -92 q61 -55 92.5 -132.5 q31.5 -77.5 31.5 -175.5 q0 -173 -117.5 -287 q-117.5 -114 -304.5 -131 l-53 -79 q45 10 88 10 q37 0 72 -10.5 q35 -10.5 65.5 -31.5 q30.5 -21 49 -59 q18.5 -38 18.5 -88 q0 -119 -82.5 -178 q-82.5 -59 -212.5 -59 q-144 0 -254 55 l0 176 q41 -24 107 -42.5 q66 -18.5 135 -18.5 q114 0 114 67 q0 60 -94 60 q-77 0 -145 -35 l-64 96 l92 139 q-178 25 -294.5 141.5 q-116.5 116.5 -149.5 315.5 Z" /><glyph glyph-name="scedilla" unicode="&#x15f;" d="M504 -508 q-103 0 -189 39 l0 184 q77 -45 177 -45 q79 0 79 49 q0 48 -63 48 q-58 0 -143 -19 l0 96 l28 129 q-135 18 -227.5 105 q-92.5 87 -122.5 241 l248 0 q12 -69 57 -104 q45 -35 111 -35 q62 0 102.5 30.5 q40.5 30.5 40.5 84.5 q0 59 -42.5 88 q-42.5 29 -141.5 51 q-352 80 -352 340 q0 135 99 223 q99 88 257 88 q149 0 255.5 -83.5 q106.5 -83.5 141.5 -249.5 l-244 0 q-17 63 -55.5 94 q-38.5 31 -91.5 31 q-54 0 -89.5 -27 q-35.5 -27 -35.5 -76 q0 -53 44 -82 q44 -29 151 -53 q59 -14 106.5 -31.5 q47.5 -17.5 93 -45.5 q45.5 -28 76.5 -63.5 q31 -35.5 49.5 -86.5 q18.5 -51 18.5 -113 q0 -129 -79 -211.5 q-79 -82.5 -206 -107.5 l-16 -76 q12 2 37 2 q76 0 131 -46 q55 -46 55 -136 q0 -106 -68.5 -169 q-68.5 -63 -191.5 -63 Z" /><glyph glyph-name="Scaron" unicode="&#x160;" d="M584 -31 q-218 0 -361.5 118.5 q-143.5 118.5 -181.5 344.5 l281 0 q49 -219 258 -219 q88 0 149.5 43.5 q61.5 43.5 61.5 130.5 q0 80 -62.5 129 q-62.5 49 -212.5 86 q-450 102 -450 451 q0 171 126.5 281 q126.5 110 329.5 110 q196 0 334.5 -108.5 q138.5 -108.5 181.5 -321.5 l-282 0 q-21 91 -80.5 138.5 q-59.5 47.5 -147.5 47.5 q-80 0 -131 -37.5 q-51 -37.5 -51 -103.5 q0 -79 64.5 -123.5 q64.5 -44.5 212.5 -81.5 q105 -26 184 -63 q79 -37 140 -92 q61 -55 92.5 -132.5 q31.5 -77.5 31.5 -175.5 q0 -188 -137.5 -305 q-137.5 -117 -349.5 -117 ZM152 1905 l233 0 l182 -172 l181 172 l233 0 l-295 -332 l-244 0 l-290 332 Z" /><glyph glyph-name="scaron" unicode="&#x161;" d="M459 -31 q-159 0 -270.5 88 q-111.5 88 -145.5 262 l248 0 q12 -69 57 -104 q45 -35 111 -35 q62 0 102.5 30.5 q40.5 30.5 40.5 84.5 q0 59 -42.5 88 q-42.5 29 -141.5 51 q-352 80 -352 340 q0 135 99 223 q99 88 257 88 q149 0 255.5 -83.5 q106.5 -83.5 141.5 -249.5 l-244 0 q-17 63 -55.5 94 q-38.5 31 -91.5 31 q-54 0 -89.5 -27 q-35.5 -27 -35.5 -76 q0 -53 44 -82 q44 -29 151 -53 q59 -14 106.5 -31.5 q47.5 -17.5 93 -45.5 q45.5 -28 76.5 -63.5 q31 -35.5 49.5 -86.5 q18.5 -51 18.5 -113 q0 -105 -54 -181 q-54 -76 -139.5 -112.5 q-85.5 -36.5 -189.5 -36.5 ZM53 1561 l230 0 l180 -201 l178 201 l229 0 l-292 -379 l-234 0 l-291 379 Z" /><glyph glyph-name="uni0162" unicode="&#x162;" d="M1231 1145 l-449 0 l0 -1145 l-55 0 l-72 -106 q45 10 88 10 q37 0 72 -10.5 q35 -10.5 65.5 -31.5 q30.5 -21 49 -59 q18.5 -38 18.5 -88 q0 -119 -82.5 -178 q-82.5 -59 -212.5 -59 q-144 0 -254 55 l0 176 q41 -24 107 -42.5 q66 -18.5 135 -18.5 q115 0 115 67 q0 60 -94 60 q-78 0 -146 -35 l-63 96 l108 164 l-65 0 l0 1145 l-449 0 l0 268 l1184 0 l0 -268 Z" /><glyph glyph-name="uni0163" unicode="&#x163;" d="M842 -6 q-110 -17 -209 -17 l-17 -73 q12 2 37 2 q76 0 131.5 -46 q55.5 -46 55.5 -136 q0 -106 -68.5 -169 q-68.5 -63 -191.5 -63 q-103 0 -189 39 l0 184 q77 -45 176 -45 q80 0 80 49 q0 48 -63 48 q-58 0 -144 -19 l0 96 l33 154 q-145 41 -204.5 157.5 q-59.5 116.5 -59.5 311.5 l0 352 l-176 0 l0 234 l176 0 l0 327 l268 0 l0 -327 l350 0 l0 -234 l-350 0 l0 -313 q0 -56 3 -92.5 q3 -36.5 16 -76.5 q13 -40 36.5 -62 q23.5 -22 66 -37 q42.5 -15 103.5 -15 q41 0 140 15 l0 -244 Z" /><glyph glyph-name="Tcaron" unicode="&#x164;" d="M1231 1145 l-449 0 l0 -1145 l-286 0 l0 1145 l-449 0 l0 268 l1184 0 l0 -268 ZM225 1860 l234 0 l182 -172 l180 172 l234 0 l-295 -332 l-244 0 l-291 332 Z" /><glyph glyph-name="tcaron" unicode="&#x165;" d="M842 -6 q-122 -17 -195 -17 q-126 0 -213 33.5 q-87 33.5 -135.5 100 q-48.5 66.5 -69 152 q-20.5 85.5 -20.5 204.5 l0 352 l-176 0 l0 234 l176 0 l0 327 l268 0 l0 -327 l350 0 l0 -234 l-350 0 l0 -313 q0 -56 3 -92.5 q3 -36.5 16 -76.5 q13 -40 36.5 -62 q23.5 -22 66 -37 q42.5 -15 103.5 -15 q41 0 140 15 l0 -244 ZM643 1188 l94 534 l256 0 l-147 -534 l-203 0 Z" /><glyph glyph-name="Tbar" unicode="&#x166;" d="M1231 1145 l-449 0 l0 -391 l322 0 l0 -256 l-322 0 l0 -498 l-286 0 l0 498 l-320 0 l0 256 l320 0 l0 391 l-449 0 l0 268 l1184 0 l0 -268 Z" /><glyph glyph-name="tbar" unicode="&#x167;" d="M842 -6 q-122 -17 -195 -17 q-126 0 -213 33.5 q-87 33.5 -135.5 100 q-48.5 66.5 -69 152 q-20.5 85.5 -20.5 204.5 l0 8 l-172 0 l0 180 l172 0 l0 164 l-176 0 l0 234 l176 0 l0 327 l268 0 l0 -327 l350 0 l0 -234 l-350 0 l0 -164 l334 0 l0 -180 l-334 0 q1 -49 6 -83 q5 -34 19 -68 q14 -34 37.5 -54 q23.5 -20 64.5 -32.5 q41 -12.5 98 -12.5 q54 0 140 13 l0 -244 Z" /><glyph glyph-name="Utilde" unicode="&#x168;" d="M762 -33 q-279 0 -450 185 q-171 185 -171 512 l0 749 l287 0 l0 -749 q0 -210 92 -314 q92 -104 242 -104 q151 0 243.5 104 q92.5 104 92.5 314 l0 749 l286 0 l0 -749 q0 -327 -170.5 -512 q-170.5 -185 -451.5 -185 ZM399 1765 q83 62 195 62 q69 0 129 -22 q60 -22 112.5 -44 q52.5 -22 104.5 -22 q91 0 188 73 l2 -225 q-88 -59 -202 -59 q-67 0 -128 22 q-61 22 -113 44 q-52 22 -99 22 q-90 0 -187 -72 l-2 221 Z" /><glyph glyph-name="utilde" unicode="&#x169;" d="M1079 0 l-274 0 l0 141 q-49 -83 -131.5 -127.5 q-82.5 -44.5 -184.5 -44.5 q-78 0 -143 26 q-65 26 -117 79.5 q-52 53.5 -81 144 q-29 90.5 -29 211.5 l0 623 l272 0 l0 -580 q0 -260 189 -260 q94 0 159 68 q65 68 66 192 l0 580 l274 0 l0 -1053 ZM250 1321 l0 227 q67 45 160 45 q60 0 117 -16.5 q57 -16.5 95 -36.5 q38 -20 89 -36.5 q51 -16.5 100 -16.5 q84 0 154 51 l2 -225 q-67 -39 -156 -39 q-56 0 -113 17 q-57 17 -96.5 37 q-39.5 20 -92 37 q-52.5 17 -101.5 17 q-94 0 -158 -61 Z" /><glyph glyph-name="Umacron" unicode="&#x16a;" d="M762 -33 q-279 0 -450 185 q-171 185 -171 512 l0 749 l287 0 l0 -749 q0 -210 92 -314 q92 -104 242 -104 q151 0 243.5 104 q92.5 104 92.5 314 l0 749 l286 0 l0 -749 q0 -327 -170.5 -512 q-170.5 -185 -451.5 -185 ZM383 1563 l0 221 l756 0 l0 -221 l-756 0 Z" /><glyph glyph-name="umacron" unicode="&#x16b;" d="M1079 0 l-274 0 l0 141 q-49 -83 -131.5 -127.5 q-82.5 -44.5 -184.5 -44.5 q-78 0 -143 26 q-65 26 -117 79.5 q-52 53.5 -81 144 q-29 90.5 -29 211.5 l0 623 l272 0 l0 -580 q0 -260 189 -260 q94 0 159 68 q65 68 66 192 l0 580 l274 0 l0 -1053 ZM231 1298 l0 222 l756 0 l0 -222 l-756 0 Z" /><glyph glyph-name="Ubreve" unicode="&#x16c;" d="M762 -33 q-279 0 -450 185 q-171 185 -171 512 l0 749 l287 0 l0 -749 q0 -210 92 -314 q92 -104 242 -104 q151 0 243.5 104 q92.5 104 92.5 314 l0 749 l286 0 l0 -749 q0 -327 -170.5 -512 q-170.5 -185 -451.5 -185 ZM387 1882 l213 0 q0 -72 43.5 -118 q43.5 -46 118.5 -46 q76 0 120 46 q44 46 44 118 l215 0 q1 -63 -22.5 -124.5 q-23.5 -61.5 -68 -113.5 q-44.5 -52 -120 -84 q-75.5 -32 -168.5 -32 q-93 0 -166.5 32 q-73.5 32 -117.5 84 q-44 52 -67 113 q-23 61 -24 125 Z" /><glyph glyph-name="ubreve" unicode="&#x16d;" d="M1079 0 l-274 0 l0 141 q-49 -83 -131.5 -127.5 q-82.5 -44.5 -184.5 -44.5 q-78 0 -143 26 q-65 26 -117 79.5 q-52 53.5 -81 144 q-29 90.5 -29 211.5 l0 623 l272 0 l0 -580 q0 -260 189 -260 q94 0 159 68 q65 68 66 192 l0 580 l274 0 l0 -1053 ZM236 1602 l217 0 q0 -89 41.5 -137 q41.5 -48 115.5 -48 q76 0 118 48.5 q42 48.5 42 136.5 l219 0 q0 -69 -23 -132 q-23 -63 -67.5 -115.5 q-44.5 -52.5 -119.5 -84 q-75 -31.5 -169 -31.5 q-94 0 -167.5 31.5 q-73.5 31.5 -117.5 84 q-44 52.5 -66.5 115.5 q-22.5 63 -22.5 132 Z" /><glyph glyph-name="Uring" unicode="&#x16e;" d="M616 1782 q0 -60 43.5 -104 q43.5 -44 104.5 -44 q61 0 103 43.5 q42 43.5 42 104.5 q0 62 -42 104.5 q-42 42.5 -103 42.5 q-62 0 -105 -43 q-43 -43 -43 -104 ZM762 -33 q-279 0 -450 185 q-171 185 -171 512 l0 749 l287 0 l0 -749 q0 -210 92 -314 q92 -104 242 -104 q151 0 243.5 104 q92.5 104 92.5 314 l0 749 l286 0 l0 -749 q0 -327 -170.5 -512 q-170.5 -185 -451.5 -185 ZM457 1782 q0 126 90 215.5 q90 89.5 217 89.5 q126 0 215.5 -89.5 q89.5 -89.5 89.5 -215.5 q0 -125 -89.5 -214 q-89.5 -89 -215.5 -89 q-127 0 -217 89 q-90 89 -90 214 Z" /><glyph glyph-name="uring" unicode="&#x16f;" d="M511 1582 q-40 -40 -40 -97 q0 -57 40 -97 q40 -40 97 -40 q58 0 97.5 40 q39.5 40 39.5 97 q0 57 -39.5 97 q-39.5 40 -97.5 40 q-57 0 -97 -40 ZM1079 1053 l0 -1053 l-274 0 l0 141 q-49 -83 -131.5 -127.5 q-82.5 -44.5 -184.5 -44.5 q-78 0 -143 26 q-65 26 -117 79.5 q-52 53.5 -81 144 q-29 90.5 -29 211.5 l0 623 l272 0 l0 -580 q0 -260 189 -260 q94 0 159 68 q65 68 66 192 l0 580 l274 0 ZM405.5 1281.5 q-83.5 83.5 -83.5 201.5 q0 118 83.5 201 q83.5 83 202.5 83 q120 0 203.5 -82.5 q83.5 -82.5 83.5 -201.5 q0 -119 -83.5 -202 q-83.5 -83 -203.5 -83 q-119 0 -202.5 83.5 Z" /><glyph glyph-name="Uhungarumlaut" unicode="&#x170;" d="M762 -33 q-279 0 -450 185 q-171 185 -171 512 l0 749 l287 0 l0 -749 q0 -210 92 -314 q92 -104 242 -104 q151 0 243.5 104 q92.5 104 92.5 314 l0 749 l286 0 l0 -749 q0 -327 -170.5 -512 q-170.5 -185 -451.5 -185 ZM387 1487 l205 272 l309 0 l-256 -272 l-258 0 ZM807 1487 l258 272 l338 0 l-326 -272 l-270 0 Z" /><glyph glyph-name="uhungarumlaut" unicode="&#x171;" d="M1079 0 l-274 0 l0 141 q-49 -83 -131.5 -127.5 q-82.5 -44.5 -184.5 -44.5 q-78 0 -143 26 q-65 26 -117 79.5 q-52 53.5 -81 144 q-29 90.5 -29 211.5 l0 623 l272 0 l0 -580 q0 -260 189 -260 q94 0 159 68 q65 68 66 192 l0 580 l274 0 l0 -1053 ZM301 1229 l154 383 l288 0 l-215 -383 l-227 0 ZM684 1229 l238 383 l288 0 l-299 -383 l-227 0 Z" /><glyph glyph-name="Uogonek" unicode="&#x172;" d="M141 664 l0 749 l287 0 l0 -749 q0 -210 92 -314 q92 -104 242 -104 q151 0 243.5 104 q92.5 104 92.5 314 l0 749 l286 0 l0 -749 q0 -266 -116.5 -440.5 q-116.5 -174.5 -317.5 -231.5 q-99 -41 -159 -91 q-60 -50 -60 -96 q0 -28 23 -43.5 q23 -15.5 65 -15.5 q77 0 139 27 l0 -193 q-82 -33 -198 -33 q-115 0 -185.5 50 q-70.5 50 -70.5 155 q0 121 143 223 q-232 38 -369 217.5 q-137 179.5 -137 471.5 Z" /><glyph glyph-name="uogonek" unicode="&#x173;" d="M1079 0 q-104 -42 -163.5 -96.5 q-59.5 -54.5 -59.5 -110.5 q0 -38 22.5 -59 q22.5 -21 65.5 -21 q63 0 127 31 l0 -201 q-76 -26 -176 -26 q-106 0 -177 59 q-71 59 -71 166 q0 149 158 266 l0 133 q-49 -83 -131.5 -127.5 q-82.5 -44.5 -184.5 -44.5 q-78 0 -143 26 q-65 26 -117 79.5 q-52 53.5 -81 144 q-29 90.5 -29 211.5 l0 623 l272 0 l0 -580 q0 -260 189 -260 q94 0 159 68 q65 68 66 192 l0 580 l274 0 l0 -1053 Z" /><glyph glyph-name="Wcircumflex" unicode="&#x174;" d="M567 0 l-518 1413 l305 0 l351 -1003 l348 1003 l299 0 l344 -1016 l356 1016 l305 0 l-518 -1413 l-291 0 l-350 1014 l-338 -1014 l-293 0 ZM786 1528 l291 332 l244 0 l295 -332 l-234 0 l-180 172 l-182 -172 l-234 0 Z" /><glyph glyph-name="wcircumflex" unicode="&#x175;" d="M418 0 l-400 1053 l291 0 l254 -750 l258 750 l254 0 l260 -740 l252 740 l291 0 l-401 -1053 l-283 0 l-246 666 l-241 -666 l-289 0 ZM539 1196 l290 379 l234 0 l293 -379 l-230 0 l-178 201 l-180 -201 l-229 0 Z" /><glyph glyph-name="Ycircumflex" unicode="&#x176;" d="M553 0 l0 608 l-537 805 l336 0 l348 -541 l347 541 l325 0 l-534 -813 l0 -600 l-285 0 ZM283 1528 l290 332 l244 0 l295 -332 l-233 0 l-181 172 l-182 -172 l-233 0 Z" /><glyph glyph-name="ycircumflex" unicode="&#x177;" d="M299 -348 l137 348 l-418 1053 l293 0 l269 -709 l270 709 l285 0 l-551 -1401 l-285 0 ZM172 1196 l291 379 l233 0 l293 -379 l-229 0 l-178 201 l-181 -201 l-229 0 Z" /><glyph glyph-name="Ydieresis" unicode="&#x178;" d="M553 0 l0 608 l-537 805 l336 0 l348 -541 l347 541 l325 0 l-534 -813 l0 -600 l-285 0 ZM293 1681 q0 60 43 103 q43 43 104 43 q61 0 104.5 -43 q43.5 -43 43.5 -103 q0 -63 -43 -105 q-43 -42 -105 -42 q-62 0 -104.5 42 q-42.5 42 -42.5 105 ZM803 1681 q0 61 42.5 103.5 q42.5 42.5 104.5 42.5 q60 0 104 -43 q44 -43 44 -103 q0 -61 -43 -104 q-43 -43 -105 -43 q-63 0 -105 42 q-42 42 -42 105 Z" /><glyph glyph-name="Zacute" unicode="&#x179;" d="M147 0 l-2 242 l697 903 l-723 0 l0 268 l1102 0 l0 -248 l-693 -897 l736 0 l0 -268 l-1117 0 ZM467 1534 l311 264 l342 0 l-375 -264 l-278 0 Z" /><glyph glyph-name="zacute" unicode="&#x17a;" d="M958 831 l-514 -598 l572 0 l0 -233 l-918 0 l0 209 l523 610 l-555 0 l0 234 l892 0 l0 -222 ZM414 1229 l219 383 l293 0 l-283 -383 l-229 0 Z" /><glyph glyph-name="Zdotaccent" unicode="&#x17b;" d="M147 0 l-2 242 l697 903 l-723 0 l0 268 l1102 0 l0 -248 l-693 -897 l736 0 l0 -268 l-1117 0 ZM549 1751 q0 60 43 102.5 q43 42.5 106 42.5 q61 0 103.5 -42.5 q42.5 -42.5 42.5 -102.5 q0 -62 -42.5 -104.5 q-42.5 -42.5 -103.5 -42.5 q-63 0 -106 42 q-43 42 -43 105 Z" /><glyph glyph-name="zdotaccent" unicode="&#x17c;" d="M958 831 l-514 -598 l572 0 l0 -233 l-918 0 l0 209 l523 610 l-555 0 l0 234 l892 0 l0 -222 ZM395 1391 q0 60 43.5 102.5 q43.5 42.5 106.5 42.5 q61 0 103 -42.5 q42 -42.5 42 -102.5 q0 -63 -42.5 -105.5 q-42.5 -42.5 -102.5 -42.5 q-63 0 -106.5 42.5 q-43.5 42.5 -43.5 105.5 Z" /><glyph glyph-name="Zcaron" unicode="&#x17d;" d="M147 0 l-2 242 l697 903 l-723 0 l0 268 l1102 0 l0 -248 l-693 -897 l736 0 l0 -268 l-1117 0 ZM285 1860 l233 0 l182 -172 l181 172 l233 0 l-295 -332 l-244 0 l-290 332 Z" /><glyph glyph-name="zcaron" unicode="&#x17e;" d="M958 831 l-514 -598 l572 0 l0 -233 l-918 0 l0 209 l523 610 l-555 0 l0 234 l892 0 l0 -222 ZM131 1561 l229 0 l181 -201 l178 201 l229 0 l-293 -379 l-233 0 l-291 379 Z" /><glyph glyph-name="Aringacute" unicode="&#x1fa;" d="M729 1133 l-213 -596 l426 0 l-213 596 ZM727 1462 q70 0 112 43.5 q42 43.5 42 108.5 q0 64 -42 108.5 q-42 44.5 -112 44.5 q-69 0 -110.5 -44 q-41.5 -44 -41.5 -109 q0 -65 41.5 -108.5 q41.5 -43.5 110.5 -43.5 ZM324 0 l-291 0 l512 1366 q-61 40 -96 105.5 q-35 65.5 -35 142.5 q0 128 92 217 l182 197 l295 0 l-168 -125 q103 -26 166 -105 q63 -79 63 -184 q0 -77 -35.5 -142.5 q-35.5 -65.5 -97.5 -105.5 l516 -1366 l-292 0 l-109 303 l-594 0 l-108 -303 Z" /><glyph glyph-name="aringacute" unicode="&#x1fb;" d="M330 528 q0 -126 86 -212.5 q86 -86.5 209 -86.5 q120 0 205 87.5 q85 87.5 85 211.5 q0 120 -85 207.5 q-85 87.5 -205 87.5 q-122 0 -208.5 -87 q-86.5 -87 -86.5 -208 ZM579 1582 q-40 -40 -40 -97 q0 -57 40 -97 q40 -40 97 -40 q58 0 97.5 40 q39.5 40 39.5 97 q0 57 -39.5 97 q-39.5 40 -97.5 40 q-57 0 -97 -40 ZM571 -31 q-138 0 -256 73.5 q-118 73.5 -188 202.5 q-70 129 -70 283 q0 154 70 282.5 q70 128.5 188 201.5 q118 73 256 73 q111 0 198 -52 q87 -52 146 -146 l0 166 l269 0 l0 -1053 l-269 0 l0 170 q-124 -201 -344 -201 ZM389 1483 q0 83 43 151 l168 267 l207 0 l-111 -134 q113 -8 190 -89 q77 -81 77 -195 q0 -119 -83.5 -202 q-83.5 -83 -203.5 -83 q-119 0 -203 83.5 q-84 83.5 -84 201.5 Z" /><glyph glyph-name="AEacute" unicode="&#x1fc;" d="M1016 1147 l-336 -561 l403 0 l-26 561 l-41 0 ZM0 0 l870 1413 l1276 0 l0 -266 l-803 0 l15 -309 l692 0 l0 -240 l-682 0 l16 -332 l762 0 l0 -266 l-1036 0 l-14 330 l-568 0 l-196 -330 l-332 0 ZM1518 1579 l-279 0 l311 264 l342 0 l-374 -264 Z" /><glyph glyph-name="aeacute" unicode="&#x1fd;" d="M330 334 q0 -62 42 -97.5 q42 -35.5 115 -35.5 q48 0 90 14.5 q42 14.5 77 44.5 q35 30 55.5 82.5 q20.5 52.5 21.5 122.5 l-203 0 q-95 0 -146.5 -33.5 q-51.5 -33.5 -51.5 -97.5 ZM1024 643 l498 0 q-29 83 -91.5 132.5 q-62.5 49.5 -148.5 49.5 q-89 0 -158 -49.5 q-69 -49.5 -100 -132.5 ZM424 -31 q-168 0 -269.5 95.5 q-101.5 95.5 -101.5 246.5 q0 154 110.5 244 q110.5 90 313.5 90 l256 0 q-1 94 -45 143.5 q-44 49.5 -119 49.5 q-69 0 -115 -29.5 q-46 -29.5 -65 -83.5 l-278 0 q42 162 166.5 260 q124.5 98 300.5 98 q105 0 191 -41.5 q86 -41.5 142 -121.5 q71 76 168.5 118.5 q97.5 42.5 204.5 42.5 l6 0 q111 -1 207.5 -46.5 q96.5 -45.5 165.5 -125 q69 -79.5 106.5 -195 q37.5 -115.5 30.5 -249.5 l-790 -2 q20 -102 97 -170 q77 -68 177 -68 q83 0 141 35.5 q58 35.5 86 93.5 l279 0 q-53 -181 -194 -283 q-141 -102 -318 -102 q-122 0 -232.5 57.5 q-110.5 57.5 -183.5 159.5 q-68 -108 -181 -162.5 q-113 -54.5 -257 -54.5 ZM1018 1229 l-230 0 l220 383 l292 0 l-282 -383 Z" /><glyph glyph-name="Oslashacute" unicode="&#x1fe;" d="M381 709 q0 -166 96 -289 l604 674 q-110 71 -245 71 q-192 0 -323.5 -133 q-131.5 -133 -131.5 -323 ZM1208 971 l-596 -666 q102 -57 224 -57 q192 0 322 133 q130 133 130 328 q0 143 -80 262 ZM1247 1321 l103 113 l176 -156 l-103 -115 q160 -200 160 -452 q0 -205 -100.5 -376 q-100.5 -171 -272 -268.5 q-171.5 -97.5 -374.5 -97.5 q-211 0 -392 107 l-116 -131 l-176 155 l112 125 q-85 98 -131.5 223.5 q-46.5 125.5 -46.5 262.5 q0 200 100.5 368.5 q100.5 168.5 273 266.5 q172.5 98 376.5 98 q226 0 411 -123 ZM883 1534 l-279 0 l311 264 l342 0 l-374 -264 Z" /><glyph glyph-name="oslashacute" unicode="&#x1ff;" d="M315 528 q0 -78 35 -143 l389 422 q-56 24 -121 24 q-126 0 -214.5 -88.5 q-88.5 -88.5 -88.5 -214.5 ZM877 688 l-402 -432 q69 -37 143 -37 q126 0 215 90 q89 90 89 219 q0 87 -45 160 ZM621 -31 q-163 0 -306 86 l-98 -104 l-158 147 l99 105 q-107 145 -107 327 q0 112 45 214 q45 102 121.5 176.5 q76.5 74.5 182 118.5 q105.5 44 221.5 44 q156 0 282 -75 l96 102 l156 -147 l-88 -95 q119 -151 119 -338 q0 -153 -76 -282 q-76 -129 -206 -204 q-130 -75 -283 -75 ZM705 1229 l-230 0 l219 383 l293 0 l-282 -383 Z" /><glyph glyph-name="uni0218" unicode="&#x218;" d="M584 -31 q-218 0 -361.5 118.5 q-143.5 118.5 -181.5 344.5 l281 0 q49 -219 258 -219 q88 0 149.5 43.5 q61.5 43.5 61.5 130.5 q0 80 -62.5 129 q-62.5 49 -212.5 86 q-450 102 -450 451 q0 171 126.5 281 q126.5 110 329.5 110 q196 0 334.5 -108.5 q138.5 -108.5 181.5 -321.5 l-282 0 q-21 91 -80.5 138.5 q-59.5 47.5 -147.5 47.5 q-80 0 -131 -37.5 q-51 -37.5 -51 -103.5 q0 -79 64.5 -123.5 q64.5 -44.5 212.5 -81.5 q105 -26 184 -63 q79 -37 140 -92 q61 -55 92.5 -132.5 q31.5 -77.5 31.5 -175.5 q0 -188 -137.5 -305 q-137.5 -117 -349.5 -117 ZM344 -586 l107 451 l266 0 l-199 -451 l-174 0 Z" /><glyph glyph-name="uni0219" unicode="&#x219;" d="M459 -31 q-159 0 -270.5 88 q-111.5 88 -145.5 262 l248 0 q12 -69 57 -104 q45 -35 111 -35 q62 0 102.5 30.5 q40.5 30.5 40.5 84.5 q0 59 -42.5 88 q-42.5 29 -141.5 51 q-352 80 -352 340 q0 135 99 223 q99 88 257 88 q149 0 255.5 -83.5 q106.5 -83.5 141.5 -249.5 l-244 0 q-17 63 -55.5 94 q-38.5 31 -91.5 31 q-54 0 -89.5 -27 q-35.5 -27 -35.5 -76 q0 -53 44 -82 q44 -29 151 -53 q59 -14 106.5 -31.5 q47.5 -17.5 93 -45.5 q45.5 -28 76.5 -63.5 q31 -35.5 49.5 -86.5 q18.5 -51 18.5 -113 q0 -105 -54 -181 q-54 -76 -139.5 -112.5 q-85.5 -36.5 -189.5 -36.5 ZM238 -524 l118 389 l248 0 l-203 -389 l-163 0 Z" /><glyph glyph-name="uni021A" unicode="&#x21a;" d="M1231 1145 l-449 0 l0 -1145 l-286 0 l0 1145 l-449 0 l0 268 l1184 0 l0 -268 ZM403 -586 l107 451 l266 0 l-198 -451 l-175 0 Z" /><glyph glyph-name="uni021B" unicode="&#x21b;" d="M842 -6 q-122 -17 -195 -17 q-126 0 -213 33.5 q-87 33.5 -135.5 100 q-48.5 66.5 -69 152 q-20.5 85.5 -20.5 204.5 l0 352 l-176 0 l0 234 l176 0 l0 327 l268 0 l0 -327 l350 0 l0 -234 l-350 0 l0 -313 q0 -56 3 -92.5 q3 -36.5 16 -76.5 q13 -40 36.5 -62 q23.5 -22 66 -37 q42.5 -15 103.5 -15 q41 0 140 15 l0 -244 ZM313 -524 l119 389 l248 0 l-203 -389 l-164 0 Z" /><glyph glyph-name="uni0237" unicode="&#x237;" d="M160 -369 l0 1422 l272 0 l0 -1422 l-272 0 Z" /><glyph glyph-name="gravecomb" unicode="&#x300;" d="M76 1612 l293 0 l219 -383 l-230 0 l-282 383 Z" /><glyph glyph-name="acutecomb" unicode="&#x301;" d="M582 1612 l-283 -383 l-229 0 l219 383 l293 0 Z" /><glyph glyph-name="uni0302" unicode="&#x302;" d="M899 1196 l-229 0 l-178 201 l-181 -201 l-229 0 l291 379 l233 0 l293 -379 Z" /><glyph glyph-name="tildecomb" unicode="&#x303;" d="M698 1274 q-56 0 -113 17 q-57 17 -96.5 37 q-39.5 20 -92 37 q-52.5 17 -101.5 17 q-94 0 -158 -61 l0 227 q67 45 160 45 q60 0 117 -16.5 q57 -16.5 95 -36.5 q38 -20 89 -36.5 q51 -16.5 100 -16.5 q84 0 154 51 l2 -225 q-67 -39 -156 -39 Z" /><glyph glyph-name="uni0304" unicode="&#x304;" d="M840 1298 l-756 0 l0 222 l756 0 l0 -222 Z" /><glyph glyph-name="uni0306" unicode="&#x306;" d="M664.5 1270.5 q-74.5 -31.5 -168.5 -31.5 q-94 0 -168 31.5 q-74 31.5 -118 84 q-44 52.5 -66.5 115.5 q-22.5 63 -22.5 132 l217 0 q0 -88 42 -136.5 q42 -48.5 116 -48.5 q76 0 117.5 48.5 q41.5 48.5 41.5 136.5 l219 0 q0 -69 -23 -132 q-23 -63 -67.5 -115.5 q-44.5 -52.5 -119 -84 Z" /><glyph glyph-name="uni0307" unicode="&#x307;" d="M244 1243 q-63 0 -106.5 42.5 q-43.5 42.5 -43.5 105.5 q0 60 43.5 102.5 q43.5 42.5 106.5 42.5 q61 0 103 -42.5 q42 -42.5 42 -102.5 q0 -63 -42.5 -105.5 q-42.5 -42.5 -102.5 -42.5 Z" /><glyph glyph-name="uni0308" unicode="&#x308;" d="M348.5 1285.5 q-42.5 -42.5 -104.5 -42.5 q-62 0 -105 42.5 q-43 42.5 -43 105.5 q0 60 43.5 102.5 q43.5 42.5 104.5 42.5 q61 0 104 -42.5 q43 -42.5 43 -102.5 q0 -63 -42.5 -105.5 ZM606 1391 q0 60 42.5 102.5 q42.5 42.5 105.5 42.5 q60 0 103.5 -42.5 q43.5 -42.5 43.5 -102.5 q0 -62 -43 -105 q-43 -43 -104 -43 q-63 0 -105.5 42.5 q-42.5 42.5 -42.5 105.5 Z" /><glyph glyph-name="uni030A" unicode="&#x30a;" d="M442 1198 q-119 0 -202.5 83.5 q-83.5 83.5 -83.5 201.5 q0 118 83.5 201 q83.5 83 202.5 83 q120 0 203.5 -82.5 q83.5 -82.5 83.5 -201.5 q0 -119 -83.5 -202 q-83.5 -83 -203.5 -83 ZM345 1582 q-40 -40 -40 -97 q0 -57 40 -97 q40 -40 97 -40 q58 0 98 40 q40 40 40 97 q0 57 -40 97 q-40 40 -98 40 q-57 0 -97 -40 Z" /><glyph glyph-name="uni030B" unicode="&#x30b;" d="M504 1612 l-215 -383 l-228 0 l154 383 l289 0 ZM444 1229 l238 383 l289 0 l-299 -383 l-228 0 Z" /><glyph glyph-name="uni030C" unicode="&#x30c;" d="M899 1561 l-293 -379 l-233 0 l-291 379 l229 0 l181 -201 l178 201 l229 0 Z" /><glyph glyph-name="uni0312" unicode="&#x312;" d="M330 1202 l-248 0 l203 389 l164 0 l-119 -389 Z" /><glyph glyph-name="uni0326" unicode="&#x326;" d="M244 -135 l248 0 l-203 -389 l-164 0 l119 389 Z" /><glyph glyph-name="uni0327" unicode="&#x327;" d="M322 -508 q-103 0 -189 39 l0 184 q77 -45 176 -45 q80 0 80 49 q0 48 -63 48 q-58 0 -144 -19 l0 96 l41 189 l164 0 l-29 -129 q12 2 37 2 q76 0 131.5 -46 q55.5 -46 55.5 -136 q0 -106 -68.5 -169 q-68.5 -63 -191.5 -63 Z" /><glyph glyph-name="uni0328" unicode="&#x328;" d="M492 2 q-104 -42 -164 -96.5 q-60 -54.5 -60 -110.5 q0 -38 22.5 -59 q22.5 -21 65.5 -21 q63 0 127 31 l0 -201 q-76 -26 -176 -26 q-106 0 -177 59 q-71 59 -71 166 q0 66 31 126 q31 60 85 106.5 q54 46.5 118 82.5 q64 36 139 62 l60 -119 Z" /><glyph glyph-name="Wgrave" unicode="&#x1e80;" d="M567 0 l-518 1413 l305 0 l351 -1003 l348 1003 l299 0 l344 -1016 l356 1016 l305 0 l-518 -1413 l-291 0 l-350 1014 l-338 -1014 l-293 0 ZM768 1788 l342 0 l311 -264 l-278 0 l-375 264 Z" /><glyph glyph-name="wgrave" unicode="&#x1e81;" d="M418 0 l-400 1053 l291 0 l254 -750 l258 750 l254 0 l260 -740 l252 740 l291 0 l-401 -1053 l-283 0 l-246 666 l-241 -666 l-289 0 ZM596 1612 l293 0 l219 -383 l-229 0 l-283 383 Z" /><glyph glyph-name="Wacute" unicode="&#x1e82;" d="M567 0 l-518 1413 l305 0 l351 -1003 l348 1003 l299 0 l344 -1016 l356 1016 l305 0 l-518 -1413 l-291 0 l-350 1014 l-338 -1014 l-293 0 ZM969 1534 l311 264 l342 0 l-375 -264 l-278 0 Z" /><glyph glyph-name="wacute" unicode="&#x1e83;" d="M418 0 l-400 1053 l291 0 l254 -750 l258 750 l254 0 l260 -740 l252 740 l291 0 l-401 -1053 l-283 0 l-246 666 l-241 -666 l-289 0 ZM817 1229 l219 383 l293 0 l-282 -383 l-230 0 Z" /><glyph glyph-name="Wdieresis" unicode="&#x1e84;" d="M567 0 l-518 1413 l305 0 l351 -1003 l348 1003 l299 0 l344 -1016 l356 1016 l305 0 l-518 -1413 l-291 0 l-350 1014 l-338 -1014 l-293 0 ZM797 1681 q0 60 43 103 q43 43 104 43 q61 0 104.5 -43 q43.5 -43 43.5 -103 q0 -63 -43 -105 q-43 -42 -105 -42 q-62 0 -104.5 42 q-42.5 42 -42.5 105 ZM1307 1681 q0 61 42.5 103.5 q42.5 42.5 104.5 42.5 q60 0 104 -43 q44 -43 44 -103 q0 -61 -43 -104 q-43 -43 -105 -43 q-63 0 -105 42 q-42 42 -42 105 Z" /><glyph glyph-name="wdieresis" unicode="&#x1e85;" d="M418 0 l-400 1053 l291 0 l254 -750 l258 750 l254 0 l260 -740 l252 740 l291 0 l-401 -1053 l-283 0 l-246 666 l-241 -666 l-289 0 ZM545 1391 q0 60 43 102.5 q43 42.5 104 42.5 q61 0 104.5 -42.5 q43.5 -42.5 43.5 -102.5 q0 -63 -43 -105.5 q-43 -42.5 -105 -42.5 q-62 0 -104.5 42.5 q-42.5 42.5 -42.5 105.5 ZM1055 1391 q0 61 42.5 103 q42.5 42 104.5 42 q60 0 104 -42.5 q44 -42.5 44 -102.5 q0 -61 -43 -104.5 q-43 -43.5 -105 -43.5 q-63 0 -105 42.5 q-42 42.5 -42 105.5 Z" /><glyph glyph-name="Germandbls" unicode="&#x1e9e;" d="M733 602 l0 209 l248 334 l-516 0 l0 -1145 l-289 0 l0 1413 l1159 0 l0 -242 l-297 -368 q214 -25 328.5 -127 q114.5 -102 114.5 -281 q0 -205 -134 -314.5 q-134 -109.5 -348 -109.5 q-162 0 -303 56 l0 280 q126 -71 285 -71 q102 0 164.5 41.5 q62.5 41.5 62.5 132.5 q0 106 -111 151 q-111 45 -364 41 Z" /><glyph glyph-name="Ygrave" unicode="&#x1ef2;" d="M553 0 l0 608 l-537 805 l336 0 l348 -541 l347 541 l325 0 l-534 -813 l0 -600 l-285 0 ZM264 1788 l342 0 l312 -264 l-279 0 l-375 264 Z" /><glyph glyph-name="ygrave" unicode="&#x1ef3;" d="M299 -348 l137 348 l-418 1053 l293 0 l269 -709 l270 709 l285 0 l-551 -1401 l-285 0 ZM229 1612 l293 0 l219 -383 l-229 0 l-283 383 Z" /><glyph glyph-name="endash" unicode="&#x2013;" d="M1249 559 l-1157 0 l0 256 l1157 0 l0 -256 Z" /><glyph glyph-name="emdash" unicode="&#x2014;" d="M1815 559 l-1723 0 l0 256 l1723 0 l0 -256 Z" /><glyph glyph-name="quoteleft" unicode="&#x2018;" d="M401 889 l-258 0 l115 524 l207 0 l-64 -524 Z" /><glyph glyph-name="quoteright" unicode="&#x2019;" d="M205 1413 l258 0 l-115 -524 l-207 0 l64 524 Z" /><glyph glyph-name="quotesinglbase" unicode="&#x201a;" d="M205 258 l258 0 l-115 -524 l-207 0 l64 524 Z" /><glyph glyph-name="quotedblleft" unicode="&#x201c;" d="M756 889 l-258 0 l114 524 l207 0 l-63 -524 ZM143 889 l115 524 l207 0 l-64 -524 l-258 0 Z" /><glyph glyph-name="quotedblright" unicode="&#x201d;" d="M205 1413 l258 0 l-115 -524 l-207 0 l64 524 ZM496 889 l63 524 l258 0 l-115 -524 l-206 0 Z" /><glyph glyph-name="quotedblbase" unicode="&#x201e;" d="M205 258 l258 0 l-115 -524 l-207 0 l64 524 ZM496 -266 l63 524 l258 0 l-115 -524 l-206 0 Z" /><glyph glyph-name="dagger" unicode="&#x2020;" d="M958 860 l-296 0 l0 -590 l-259 0 l0 590 l-294 0 l0 236 l294 0 l0 317 l259 0 l0 -317 l296 0 l0 -236 Z" /><glyph glyph-name="daggerdbl" unicode="&#x2021;" d="M981 969 l-297 0 l0 -242 l297 0 l0 -238 l-297 0 l0 -208 l-258 0 l0 208 l-297 0 l0 238 l297 0 l0 242 l-297 0 l0 235 l297 0 l0 209 l258 0 l0 -209 l297 0 l0 -235 Z" /><glyph glyph-name="bullet" unicode="&#x2022;" d="M694 575.5 q-72 -73.5 -172 -73.5 q-100 0 -174 74 q-74 74 -74 172 q0 104 72.5 176.5 q72.5 72.5 175.5 72.5 q104 0 174 -72 q70 -72 70 -177 q0 -99 -72 -172.5 Z" /><glyph glyph-name="ellipsis" unicode="&#x2026;" d="M768 -33 q-73 0 -127.5 54 q-54.5 54 -54.5 126 q0 76 53.5 130.5 q53.5 54.5 128.5 54.5 q76 0 128 -54 q52 -54 52 -131 q0 -73 -53 -126.5 q-53 -53.5 -127 -53.5 ZM133 147 q0 76 53.5 130.5 q53.5 54.5 128.5 54.5 q76 0 128.5 -54 q52.5 -54 52.5 -131 q0 -73 -53.5 -126.5 q-53.5 -53.5 -127.5 -53.5 q-73 0 -127.5 54 q-54.5 54 -54.5 126 ZM1036 147 q0 76 54 130.5 q54 54.5 129 54.5 q76 0 128 -54 q52 -54 52 -131 q0 -73 -53 -126.5 q-53 -53.5 -127 -53.5 q-73 0 -128 54 q-55 54 -55 126 Z" /><glyph glyph-name="perthousand" unicode="&#x2030;" d="M2510.5 80.5 q-106.5 -111.5 -265.5 -111.5 q-159 0 -266 111.5 q-107 111.5 -107 286.5 q0 176 107 287.5 q107 111.5 266 111.5 q159 0 265.5 -111.5 q106.5 -111.5 106.5 -287.5 q0 -175 -106.5 -286.5 ZM57 1047 q0 175 107 286 q107 111 266 111 q158 0 265.5 -111.5 q107.5 -111.5 107.5 -285.5 q0 -176 -107.5 -288 q-107.5 -112 -265.5 -112 q-159 0 -266 112 q-107 112 -107 288 ZM283 1047 q0 -89 41 -146 q41 -57 106 -57 q63 0 105.5 57 q42.5 57 42.5 146 q0 87 -42.5 143.5 q-42.5 56.5 -105.5 56.5 q-64 0 -105.5 -56 q-41.5 -56 -41.5 -144 ZM360 0 l836 1413 l264 0 l-835 -1413 l-265 0 ZM1032 367 q0 176 107 287.5 q107 111.5 266 111.5 q158 0 265.5 -111.5 q107.5 -111.5 107.5 -287.5 q0 -174 -107.5 -286 q-107.5 -112 -265.5 -112 q-159 0 -266 111.5 q-107 111.5 -107 286.5 ZM1257 367 q0 -88 41.5 -144.5 q41.5 -56.5 106.5 -56.5 q63 0 105 57 q42 57 42 144 q0 89 -42 145.5 q-42 56.5 -105 56.5 q-65 0 -106.5 -56.5 q-41.5 -56.5 -41.5 -145.5 ZM2097 367 q0 -88 41.5 -144.5 q41.5 -56.5 106.5 -56.5 q64 0 105.5 56.5 q41.5 56.5 41.5 144.5 q0 89 -41 145.5 q-41 56.5 -106 56.5 q-65 0 -106.5 -56.5 q-41.5 -56.5 -41.5 -145.5 Z" /><glyph glyph-name="guilsinglleft" unicode="&#x2039;" d="M485 219 l-372 434 l372 434 l170 -126 l-249 -308 l249 -307 l-170 -127 Z" /><glyph glyph-name="guilsinglright" unicode="&#x203a;" d="M299 219 l-170 127 l250 307 l-250 308 l170 126 l373 -434 l-373 -434 Z" /><glyph glyph-name="fraction" unicode="&#x2044;" d="M1159 1413 l-835 -1413 l-265 0 l836 1413 l264 0 Z" /><glyph glyph-name="Euro" unicode="&#x20ac;" d="M877 -31 q-226 0 -406 142.5 q-180 142.5 -248 367.5 l-172 0 l0 142 l144 0 q-5 72 -5 88 q0 17 5 90 l-140 0 l0 141 l170 0 q68 223 247.5 363.5 q179.5 140.5 404.5 140.5 q218 0 386 -151.5 q168 -151.5 224 -389.5 l-287 0 q-40 124 -125 193 q-85 69 -198 69 q-111 0 -200 -60.5 q-89 -60.5 -140 -164.5 l368 0 l0 -141 l-413 0 q-7 -51 -7 -90 q0 -37 7 -88 l409 0 l0 -142 l-366 0 q48 -106 138.5 -168.5 q90.5 -62.5 203.5 -62.5 q113 0 198 69 q85 69 125 193 l287 0 q-56 -237 -224 -389 q-168 -152 -386 -152 Z" /><glyph glyph-name="trademark" unicode="&#x2122;" d="M858 1190 l-264 0 l0 -588 l-238 0 l0 588 l-266 0 l0 223 l768 0 l0 -223 ZM981 602 l0 811 l297 0 l242 -397 l239 397 l299 0 l0 -811 l-241 0 l0 490 l-297 -449 l-299 451 l0 -492 l-240 0 Z" /><glyph glyph-name="oneeighth" unicode="&#x215b;" d="M1154 550 q-26 -19 -26 -52 q0 -33 26 -52.5 q26 -19.5 65 -19.5 q36 0 61 19.5 q25 19.5 25 52.5 q0 33 -24.5 52 q-24.5 19 -61.5 19 q-39 0 -65 -19 ZM1098 229 q0 -37 32.5 -60.5 q32.5 -23.5 88.5 -23.5 q55 0 86.5 23.5 q31.5 23.5 31.5 60.5 q0 36 -32 59 q-32 23 -86 23 q-56 0 -88.5 -23 q-32.5 -23 -32.5 -59 ZM911 199 q0 66 36 111.5 q36 45.5 97 66.5 q-44 21 -71 60 q-27 39 -27 89 q0 89 75.5 144 q75.5 55 197.5 55 q120 0 194 -55 q74 -55 74 -144 q0 -49 -25.5 -88.5 q-25.5 -39.5 -68.5 -62.5 q61 -21 96 -66 q35 -45 35 -110 q0 -95 -84 -156 q-84 -61 -221 -61 q-138 0 -223 61 q-85 61 -85 156 ZM55 1327 l140 86 l139 0 l0 -706 l-184 0 l0 520 l-95 0 l0 100 ZM403 0 l-264 0 l836 1413 l264 0 l-836 -1413 Z" /><glyph glyph-name="threeeighths" unicode="&#x215c;" d="M1301.5 550 q-25.5 -19 -25.5 -52 q0 -33 25.5 -52.5 q25.5 -19.5 64.5 -19.5 q36 0 61 19.5 q25 19.5 25 52.5 q0 33 -24.5 52 q-24.5 19 -61.5 19 q-39 0 -64.5 -19 ZM1245 229 q0 -37 32.5 -60.5 q32.5 -23.5 88.5 -23.5 q55 0 87 23.5 q32 23.5 32 60.5 q0 36 -32.5 59 q-32.5 23 -86.5 23 q-56 0 -88.5 -23 q-32.5 -23 -32.5 -59 ZM1059 199 q0 66 36 111.5 q36 45.5 97 66.5 q-44 21 -71 60 q-27 39 -27 89 q0 89 75 144 q75 55 197 55 q120 0 194 -55 q74 -55 74 -144 q0 -49 -25.5 -88.5 q-25.5 -39.5 -68.5 -62.5 q61 -21 96 -66 q35 -45 35 -110 q0 -95 -84 -156 q-84 -61 -221 -61 q-138 0 -222.5 61 q-84.5 61 -84.5 156 ZM313 688 q-126 0 -202.5 71 q-76.5 71 -92.5 185 l189 0 q7 -38 35 -59 q28 -21 67 -21 q45 0 71 19.5 q26 19.5 26 54.5 q0 35 -26 54.5 q-26 19.5 -71 19.5 l-100 0 l-2 110 l135 121 l-303 -2 l0 172 l510 0 l0 -156 l-152 -135 q191 -36 191 -202 q0 -108 -77 -170 q-77 -62 -198 -62 ZM547 0 l-264 0 l835 1413 l264 0 l-835 -1413 Z" /><glyph glyph-name="fiveeighths" unicode="&#x215d;" d="M1311.5 550 q-25.5 -19 -25.5 -52 q0 -33 25.5 -52.5 q25.5 -19.5 64.5 -19.5 q36 0 61 19.5 q25 19.5 25 52.5 q0 33 -24.5 52 q-24.5 19 -61.5 19 q-39 0 -64.5 -19 ZM1255 229 q0 -37 32.5 -60.5 q32.5 -23.5 88.5 -23.5 q55 0 87 23.5 q32 23.5 32 60.5 q0 36 -32.5 59 q-32.5 23 -86.5 23 q-56 0 -88.5 -23 q-32.5 -23 -32.5 -59 ZM1069 199 q0 66 36 111.5 q36 45.5 97 66.5 q-44 21 -71 60 q-27 39 -27 89 q0 89 75 144 q75 55 197 55 q120 0 194.5 -55 q74.5 -55 74.5 -144 q0 -49 -26 -88.5 q-26 -39.5 -69 -62.5 q61 -21 96 -66 q35 -45 35 -110 q0 -95 -84 -156 q-84 -61 -221 -61 q-138 0 -222.5 61 q-84.5 61 -84.5 156 ZM336 688 q-120 0 -200.5 65.5 q-80.5 65.5 -100.5 180.5 l186 0 q8 -33 35 -53.5 q27 -20.5 66 -20.5 q44 0 71 25.5 q27 25.5 27 64.5 q0 40 -26.5 66 q-26.5 26 -67.5 26 q-69 0 -103 -53 l-166 35 l72 389 l418 0 l0 -174 l-299 0 l-23 -125 q73 45 170 45 q82 0 149.5 -61.5 q67.5 -61.5 67.5 -167.5 q0 -111 -78.5 -176.5 q-78.5 -65.5 -197.5 -65.5 ZM559 0 l-264 0 l835 1413 l265 0 l-836 -1413 Z" /><glyph glyph-name="seveneighths" unicode="&#x215e;" d="M1250.5 550 q-25.5 -19 -25.5 -52 q0 -33 25.5 -52.5 q25.5 -19.5 64.5 -19.5 q36 0 61 19.5 q25 19.5 25 52.5 q0 33 -24.5 52 q-24.5 19 -61.5 19 q-39 0 -64.5 -19 ZM1194 229 q0 -37 32.5 -60.5 q32.5 -23.5 88.5 -23.5 q55 0 87 23.5 q32 23.5 32 60.5 q0 36 -32.5 59 q-32.5 23 -86.5 23 q-56 0 -88.5 -23 q-32.5 -23 -32.5 -59 ZM1008 199 q0 66 36 111.5 q36 45.5 97 66.5 q-44 21 -71.5 60.5 q-27.5 39.5 -27.5 88.5 q0 89 75.5 144 q75.5 55 197.5 55 q120 0 194 -55 q74 -55 74 -144 q0 -49 -25.5 -88.5 q-25.5 -39.5 -68.5 -62.5 q61 -21 96 -66 q35 -45 35 -110 q0 -95 -84 -156 q-84 -61 -221 -61 q-138 0 -222.5 61 q-84.5 61 -84.5 156 ZM350 707 l-200 0 l229 526 l-356 0 l0 180 l557 0 l0 -141 l-230 -565 ZM496 0 l-265 0 l836 1413 l264 0 l-835 -1413 Z" /><glyph glyph-name="minus" unicode="&#x2212;" d="M991 625 l-897 0 l0 243 l897 0 l0 -243 Z" /><glyph glyph-name="notequal" unicode="&#x2260;" d="M991 811 l-897 0 l0 244 l416 0 l65 217 l256 0 l-65 -217 l225 0 l0 -244 ZM94 379 l0 244 l897 0 l0 -244 l-426 0 l-63 -213 l-256 0 l63 213 l-215 0 Z" /><glyph glyph-name="lessequal" unicode="&#x2264;" d="M940 440 l-836 312 l0 231 l836 299 l0 -258 l-555 -160 l555 -166 l0 -258 ZM70 127 l0 244 l897 0 l0 -244 l-897 0 Z" /><glyph glyph-name="greaterequal" unicode="&#x2265;" d="M96 440 l0 258 l555 166 l-555 160 l0 258 l836 -299 l0 -231 l-836 -312 ZM70 127 l0 244 l897 0 l0 -244 l-897 0 Z" /><glyph glyph-name="lozenge" unicode="&#x25ca;" d="M715 1212 l-350 -503 l350 -506 l348 506 l-348 503 ZM854 0 l-281 0 l-497 709 l497 704 l281 0 l498 -704 l-498 -709 Z" /><glyph glyph-name="fi" unicode="&#xfb01;" d="M238 1073 q0 220 116 336.5 q116 116.5 312 116.5 q138 0 258 -47 l-6 -254 q-97 61 -218 61 q-93 0 -140.5 -53 q-47.5 -53 -47.5 -152 l0 -28 l360 0 l0 -234 l-360 0 l0 -819 l-274 0 l0 819 l-199 0 l0 234 l199 0 l0 20 ZM993 1362 q0 69 50 118.5 q50 49.5 122 49.5 q71 0 121.5 -49 q50.5 -49 50.5 -119 q0 -70 -50.5 -121 q-50.5 -51 -121.5 -51 q-72 0 -122 50.5 q-50 50.5 -50 121.5 ZM1028 0 l0 1053 l275 0 l0 -1053 l-275 0 Z" /><glyph glyph-name="fl" unicode="&#xfb02;" d="M238 1073 q0 220 116 336.5 q116 116.5 312 116.5 q138 0 258 -47 l-6 -254 q-97 61 -218 61 q-93 0 -140.5 -53 q-47.5 -53 -47.5 -152 l0 -28 l360 0 l0 -234 l-360 0 l0 -819 l-274 0 l0 819 l-199 0 l0 234 l199 0 l0 20 ZM1018 0 l0 1495 l272 0 l0 -1495 l-272 0 Z" /></font>
</defs>
</svg>
