<svg width="20" height="20" viewBox="0 0 20 20" fill="current" xmlns="http://www.w3.org/2000/svg">
<path fill-rule="evenodd" clip-rule="evenodd" d="M6.40989 3.48109C6.12153 3.48109 5.8472 3.60557 5.65731 3.82259L2.10778 7.8792C1.76981 8.26544 1.77911 8.84483 2.1293 9.22002L9.22837 16.8262C9.34014 16.9459 9.47831 17.0351 9.62986 17.088C9.67392 17.1034 9.71938 17.1158 9.766 17.125C9.82923 17.1374 9.89398 17.1439 9.95942 17.1439C9.97787 17.1439 9.99627 17.1433 10.0146 17.1423C10.2919 17.1274 10.5393 16.9995 10.7113 16.8038L17.7895 9.22002C18.1397 8.84483 18.149 8.26544 17.8111 7.8792L14.2615 3.82259C14.0716 3.60557 13.7973 3.48109 13.509 3.48109H6.40989ZM10.9602 13.606L15.7108 8.51607L13.0552 5.48109H10.9605L10.9602 13.606ZM8.96051 5.48109H6.86366L4.20805 8.51607L8.96018 13.6076L8.96051 5.48109Z" fill="current"/>
</svg>
