<svg width="20" height="20" viewBox="0 0 20 20" fill="none" xmlns="http://www.w3.org/2000/svg">
<path fill-rule="evenodd" clip-rule="evenodd" d="M12.0392 4.99999L13.3841 3.65512L16.3447 6.61377L14.999 7.9598L12.0392 4.99999ZM9.91789 4.29289L7.41789 6.79287L2.60071 11.6101L2.60031 11.6105C2.29614 11.915 2.1252 12.3277 2.125 12.7581L2.125 12.7586V16.25C2.125 16.681 2.2962 17.0943 2.60095 17.399C2.9057 17.7038 3.31903 17.875 3.75 17.875H7.24141H7.24187C7.67227 17.8748 8.08502 17.7038 8.38953 17.3997L8.39001 17.3992L15.6704 10.117C15.6828 10.1058 15.6951 10.0941 15.7071 10.0821C15.7192 10.07 15.7309 10.0577 15.7422 10.0452L18.0244 7.76247L18.0245 7.76232C18.329 7.45761 18.5001 7.04444 18.5001 6.61365C18.5001 6.18286 18.329 5.76969 18.0245 5.46498L18.0241 5.46451L14.5327 1.97545L14.5327 1.97545C14.2279 1.67093 13.8148 1.49988 13.384 1.49988C12.9532 1.49988 12.54 1.67094 12.2353 1.97545L12.2351 1.97568L9.91789 4.29289ZM13.585 9.37418L10.625 6.4142L8.83211 8.20709L4.125 12.9142V15.875H7.08576L13.585 9.37418Z" fill="current"/>
</svg>
