<svg width="22" height="14" viewBox="0 0 22 14" fill="none" xmlns="http://www.w3.org/2000/svg">
<path d="M21.0511 6.6334C20.9136 6.3958 17.6312 0.85 11 0.85C4.36875 0.85 1.08644 6.39581 0.948934 6.63322L0.948925 6.63323C0.884202 6.745 0.85 6.87123 0.85 6.99993C0.85 7.12861 0.884198 7.25483 0.948913 7.3666L1.07872 7.29146L0.948925 7.36662C1.08664 7.60452 4.36895 13.15 11 13.15C17.6312 13.15 20.9136 7.60419 21.0511 7.36678L21.0511 7.36677C21.1158 7.25499 21.15 7.12877 21.15 7.00008C21.15 6.87139 21.1158 6.74517 21.0511 6.6334ZM21.0511 6.6334L20.9213 6.70855L21.0511 6.63338C21.0511 6.63339 21.0511 6.6334 21.0511 6.6334ZM11 11.65C6.22312 11.65 3.36602 8.16701 2.54306 6.9989C3.3627 5.83003 6.20784 2.35 11 2.35C15.7769 2.35 18.634 5.83299 19.4569 7.00111C18.6373 8.16998 15.7922 11.65 11 11.65ZM7.09999 7C7.09999 9.07366 8.85517 10.75 11 10.75C13.1448 10.75 14.9 9.07366 14.9 7C14.9 4.92635 13.1448 3.25 11 3.25C8.85517 3.25 7.09999 4.92635 7.09999 7ZM8.65 7C8.65 5.76526 9.69857 4.75 11 4.75C12.3014 4.75 13.35 5.76526 13.35 7C13.35 8.23475 12.3014 9.25 11 9.25C9.69857 9.25 8.65 8.23475 8.65 7Z" fill="current" stroke="current" stroke-width="0.3"/>
</svg>
