<svg width="20" height="20" viewBox="0 0 20 20" fill="none" xmlns="http://www.w3.org/2000/svg">
<path fill-rule="evenodd" clip-rule="evenodd" d="M3.60095 2.60095C3.9057 2.29621 4.31902 2.125 4.75 2.125H9.125C9.67728 2.125 10.125 2.57272 10.125 3.125C10.125 3.67728 9.67728 4.125 9.125 4.125H5.125V15.875H9.125C9.67728 15.875 10.125 16.3227 10.125 16.875C10.125 17.4273 9.67728 17.875 9.125 17.875H4.75C4.31902 17.875 3.9057 17.7038 3.60095 17.399C3.2962 17.0943 3.125 16.681 3.125 16.25V3.75C3.125 3.31902 3.29621 2.9057 3.60095 2.60095ZM8.125 10C8.125 9.44772 8.57272 9 9.125 9H15.4608L14.0429 7.58211C13.6524 7.19158 13.6524 6.55842 14.0429 6.16789C14.4334 5.77737 15.0666 5.77737 15.4571 6.16789L18.5815 9.2923C18.5839 9.29467 18.5863 9.29705 18.5886 9.29945C18.6813 9.3938 18.7514 9.50195 18.7991 9.61722C18.8477 9.73425 18.8746 9.8625 18.875 9.997C18.875 9.998 18.875 9.999 18.875 10C18.875 10.001 18.875 10.002 18.875 10.003C18.8742 10.2746 18.7651 10.5208 18.5886 10.7005C18.5862 10.703 18.5838 10.7054 18.5814 10.7078L15.4571 13.8321C15.0666 14.2226 14.4334 14.2226 14.0429 13.8321C13.6524 13.4416 13.6524 12.8084 14.0429 12.4179L15.4608 11H9.125C8.57272 11 8.125 10.5523 8.125 10Z" fill="current"/>
</svg>
