<svg width="24" height="24" viewBox="0 0 24 24" fill="none" xmlns="http://www.w3.org/2000/svg">
<path d="M14.0498 20.1818V20.1318H13.9998H10.3634H10.3134V20.1818C10.3134 20.6773 10.5103 21.1525 10.8606 21.5028C11.211 21.8532 11.6862 22.05 12.1816 22.05C12.6771 22.05 13.1523 21.8532 13.5026 21.5028C13.853 21.1525 14.0498 20.6773 14.0498 20.1818ZM20.3405 17.8219L20.3405 17.8219C20.4132 17.6466 20.4321 17.4537 20.3951 17.2676C20.358 17.0815 20.2666 16.9106 20.1324 16.7765L18.5953 15.2393V10.1818V10.1818C18.5935 8.6408 18.0369 7.15199 17.0274 5.98772C16.0274 4.83437 14.6491 4.07588 13.1407 3.84776V2.90909C13.1407 2.65472 13.0397 2.41078 12.8598 2.23091C12.6799 2.05105 12.436 1.95 12.1816 1.95C11.9273 1.95 11.6833 2.05105 11.5034 2.23091C11.3236 2.41078 11.2225 2.65472 11.2225 2.90909V3.84776C9.71411 4.07588 8.33585 4.83437 7.33583 5.98772C6.32635 7.15199 5.76979 8.6408 5.76799 10.1818V10.1818V15.2393L4.23081 16.7765L4.23081 16.7765C4.09672 16.9106 4.00541 17.0815 3.96842 17.2675C3.93143 17.4535 3.95042 17.6463 4.023 17.8215C4.09557 17.9968 4.21847 18.1465 4.37615 18.2519C4.53384 18.3573 4.71923 18.4136 4.90889 18.4136H19.4544C19.644 18.4137 19.8294 18.3575 19.9872 18.2522C20.1449 18.1468 20.2679 17.9971 20.3405 17.8219ZM17.1391 16.4955H7.22415L7.40516 16.3144C7.58503 16.1346 7.68612 15.8907 7.68617 15.6364V10.1818C7.68617 8.98955 8.1598 7.84611 9.00286 7.00305C9.84592 6.15999 10.9894 5.68636 12.1816 5.68636C13.3739 5.68636 14.5173 6.15999 15.3604 7.00305C16.2035 7.84611 16.6771 8.98955 16.6771 10.1818V15.6364C16.6771 15.8907 16.7782 16.1346 16.9581 16.3144C16.9581 16.3144 16.9581 16.3145 16.9581 16.3145L17.1391 16.4955Z" fill="white" stroke="white" stroke-width="0.1"/>
</svg>
