<svg width="17" height="16" viewBox="0 0 17 16" fill="none" xmlns="http://www.w3.org/2000/svg">
<path d="M12.7474 6.53582L5.70625 2.56331C5.4763 2.4319 5.21565 2.36374 4.95081 2.36577C4.68597 2.36779 4.42639 2.43993 4.19848 2.57483C3.97643 2.70183 3.79196 2.88533 3.66379 3.1067C3.53562 3.32807 3.46833 3.57941 3.46875 3.83521V11.7802C3.46833 12.036 3.53562 12.2874 3.66379 12.5087C3.79196 12.7301 3.97643 12.9136 4.19848 13.0406C4.42641 13.1755 4.68598 13.2475 4.95081 13.2496C5.21564 13.2516 5.47628 13.1835 5.70625 13.0521L12.7474 9.07962C12.9745 8.95382 13.1638 8.76952 13.2956 8.54586C13.4274 8.32219 13.4969 8.06732 13.4969 7.80772C13.4969 7.54812 13.4274 7.29325 13.2956 7.06958C13.1638 6.84592 12.9745 6.66162 12.7474 6.53582Z" fill="current"/>
</svg>
