<svg width="24" height="24" viewBox="0 0 24 24" fill="none" xmlns="http://www.w3.org/2000/svg">
<path d="M20.1423 18.73L16.8993 15.487C17.8882 14.1978 18.4233 12.6178 18.4213 10.993C18.4213 9.008 17.6483 7.1425 16.2448 5.739C15.5565 5.04682 14.7377 4.49805 13.8358 4.12445C12.934 3.75086 11.967 3.55985 10.9908 3.5625C9.00633 3.5625 7.14083 4.3355 5.73683 5.739C2.84033 8.636 2.84033 13.35 5.73683 16.247C6.42515 16.9392 7.24394 17.488 8.14579 17.8616C9.04765 18.2352 10.0147 18.4262 10.9908 18.4235C12.6378 18.4235 14.1983 17.884 15.4853 16.901L18.7283 20.1445C18.9233 20.3395 19.1793 20.4375 19.4353 20.4375C19.6913 20.4375 19.9473 20.3395 20.1423 20.1445C20.2352 20.0516 20.3089 19.9414 20.3592 19.82C20.4095 19.6987 20.4354 19.5686 20.4354 19.4372C20.4354 19.3059 20.4095 19.1758 20.3592 19.0545C20.3089 18.9331 20.2352 18.8229 20.1423 18.73ZM7.15133 14.833C5.03383 12.7155 5.03433 9.2705 7.15133 7.153C7.65451 6.64729 8.25298 6.24638 8.9121 5.97346C9.57123 5.70054 10.2779 5.56103 10.9913 5.563C11.7046 5.56104 12.4113 5.70055 13.0703 5.97347C13.7294 6.2464 14.3277 6.6473 14.8308 7.153C15.3367 7.6561 15.7377 8.25455 16.0107 8.91368C16.2837 9.57282 16.4233 10.2796 16.4213 10.993C16.4213 12.4435 15.8563 13.807 14.8308 14.833C13.8053 15.859 12.4418 16.423 10.9908 16.423C9.54083 16.423 8.17683 15.858 7.15083 14.833H7.15133Z" fill="current"/>
</svg>
